%TF.GenerationSoftware,KiCad,Pcbnew,9.0.7-9.0.7~ubuntu24.04.1*%
%TF.CreationDate,2026-02-25T17:59:07+01:00*%
%TF.ProjectId,fcg4,66636734-2e6b-4696-9361-645f70636258,rev?*%
%TF.SameCoordinates,Original*%
%TF.FileFunction,Soldermask,Top*%
%TF.FilePolarity,Negative*%
%FSLAX46Y46*%
G04 Gerber Fmt 4.6, Leading zero omitted, Abs format (unit mm)*
G04 Created by KiCad (PCBNEW 9.0.7-9.0.7~ubuntu24.04.1) date 2026-02-25 17:59:07*
%MOMM*%
%LPD*%
G01*
G04 APERTURE LIST*
G04 Aperture macros list*
%AMRoundRect*
0 Rectangle with rounded corners*
0 $1 Rounding radius*
0 $2 $3 $4 $5 $6 $7 $8 $9 X,Y pos of 4 corners*
0 Add a 4 corners polygon primitive as box body*
4,1,4,$2,$3,$4,$5,$6,$7,$8,$9,$2,$3,0*
0 Add four circle primitives for the rounded corners*
1,1,$1+$1,$2,$3*
1,1,$1+$1,$4,$5*
1,1,$1+$1,$6,$7*
1,1,$1+$1,$8,$9*
0 Add four rect primitives between the rounded corners*
20,1,$1+$1,$2,$3,$4,$5,0*
20,1,$1+$1,$4,$5,$6,$7,0*
20,1,$1+$1,$6,$7,$8,$9,0*
20,1,$1+$1,$8,$9,$2,$3,0*%
%AMFreePoly0*
4,1,23,0.500000,-0.750000,0.000000,-0.750000,0.000000,-0.745722,-0.065263,-0.745722,-0.191342,-0.711940,-0.304381,-0.646677,-0.396677,-0.554381,-0.461940,-0.441342,-0.495722,-0.315263,-0.495722,-0.250000,-0.500000,-0.250000,-0.500000,0.250000,-0.495722,0.250000,-0.495722,0.315263,-0.461940,0.441342,-0.396677,0.554381,-0.304381,0.646677,-0.191342,0.711940,-0.065263,0.745722,0.000000,0.745722,
0.000000,0.750000,0.500000,0.750000,0.500000,-0.750000,0.500000,-0.750000,$1*%
%AMFreePoly1*
4,1,23,0.000000,0.745722,0.065263,0.745722,0.191342,0.711940,0.304381,0.646677,0.396677,0.554381,0.461940,0.441342,0.495722,0.315263,0.495722,0.250000,0.500000,0.250000,0.500000,-0.250000,0.495722,-0.250000,0.495722,-0.315263,0.461940,-0.441342,0.396677,-0.554381,0.304381,-0.646677,0.191342,-0.711940,0.065263,-0.745722,0.000000,-0.745722,0.000000,-0.750000,-0.500000,-0.750000,
-0.500000,0.750000,0.000000,0.750000,0.000000,0.745722,0.000000,0.745722,$1*%
G04 Aperture macros list end*
%ADD10C,0.010000*%
%ADD11RoundRect,0.135000X-0.185000X0.135000X-0.185000X-0.135000X0.185000X-0.135000X0.185000X0.135000X0*%
%ADD12C,1.000000*%
%ADD13RoundRect,0.140000X-0.140000X-0.170000X0.140000X-0.170000X0.140000X0.170000X-0.140000X0.170000X0*%
%ADD14RoundRect,0.270000X0.630000X-0.930000X0.630000X0.930000X-0.630000X0.930000X-0.630000X-0.930000X0*%
%ADD15RoundRect,0.270000X0.930000X0.630000X-0.930000X0.630000X-0.930000X-0.630000X0.930000X-0.630000X0*%
%ADD16RoundRect,0.135000X0.135000X0.185000X-0.135000X0.185000X-0.135000X-0.185000X0.135000X-0.185000X0*%
%ADD17RoundRect,0.140000X0.170000X-0.140000X0.170000X0.140000X-0.170000X0.140000X-0.170000X-0.140000X0*%
%ADD18RoundRect,0.140000X-0.170000X0.140000X-0.170000X-0.140000X0.170000X-0.140000X0.170000X0.140000X0*%
%ADD19RoundRect,0.250000X-0.475000X0.250000X-0.475000X-0.250000X0.475000X-0.250000X0.475000X0.250000X0*%
%ADD20R,1.004699X0.558800*%
%ADD21RoundRect,0.250000X0.475000X-0.250000X0.475000X0.250000X-0.475000X0.250000X-0.475000X-0.250000X0*%
%ADD22R,0.350000X1.550000*%
%ADD23RoundRect,0.225000X-0.225000X-0.250000X0.225000X-0.250000X0.225000X0.250000X-0.225000X0.250000X0*%
%ADD24RoundRect,0.270000X-0.930000X-0.630000X0.930000X-0.630000X0.930000X0.630000X-0.930000X0.630000X0*%
%ADD25RoundRect,0.225000X0.225000X0.250000X-0.225000X0.250000X-0.225000X-0.250000X0.225000X-0.250000X0*%
%ADD26FreePoly0,90.000000*%
%ADD27FreePoly1,90.000000*%
%ADD28RoundRect,0.135000X0.185000X-0.135000X0.185000X0.135000X-0.185000X0.135000X-0.185000X-0.135000X0*%
%ADD29FreePoly0,180.000000*%
%ADD30FreePoly1,180.000000*%
%ADD31RoundRect,0.060300X0.341700X-0.716700X0.341700X0.716700X-0.341700X0.716700X-0.341700X-0.716700X0*%
%ADD32RoundRect,0.225000X-0.250000X0.225000X-0.250000X-0.225000X0.250000X-0.225000X0.250000X0.225000X0*%
%ADD33R,0.965200X0.736600*%
%ADD34R,0.355600X0.736600*%
%ADD35RoundRect,0.102000X0.300000X0.775000X-0.300000X0.775000X-0.300000X-0.775000X0.300000X-0.775000X0*%
%ADD36RoundRect,0.102000X0.600000X0.900000X-0.600000X0.900000X-0.600000X-0.900000X0.600000X-0.900000X0*%
%ADD37C,3.300000*%
%ADD38RoundRect,0.140000X0.140000X0.170000X-0.140000X0.170000X-0.140000X-0.170000X0.140000X-0.170000X0*%
%ADD39C,0.404000*%
%ADD40R,0.450000X0.450000*%
%ADD41RoundRect,0.250000X-1.075000X0.375000X-1.075000X-0.375000X1.075000X-0.375000X1.075000X0.375000X0*%
%ADD42RoundRect,0.135000X-0.135000X-0.185000X0.135000X-0.185000X0.135000X0.185000X-0.135000X0.185000X0*%
%ADD43RoundRect,0.250000X0.250000X0.475000X-0.250000X0.475000X-0.250000X-0.475000X0.250000X-0.475000X0*%
%ADD44RoundRect,0.062500X-0.375000X-0.062500X0.375000X-0.062500X0.375000X0.062500X-0.375000X0.062500X0*%
%ADD45RoundRect,0.062500X-0.062500X-0.375000X0.062500X-0.375000X0.062500X0.375000X-0.062500X0.375000X0*%
%ADD46R,5.600000X5.600000*%
%ADD47RoundRect,0.250000X-0.375000X-1.075000X0.375000X-1.075000X0.375000X1.075000X-0.375000X1.075000X0*%
%ADD48RoundRect,0.102000X0.500000X0.485000X-0.500000X0.485000X-0.500000X-0.485000X0.500000X-0.485000X0*%
%ADD49C,0.650000*%
%ADD50RoundRect,0.102000X0.575000X-0.300000X0.575000X0.300000X-0.575000X0.300000X-0.575000X-0.300000X0*%
%ADD51RoundRect,0.102000X0.575000X-0.150000X0.575000X0.150000X-0.575000X0.150000X-0.575000X-0.150000X0*%
%ADD52O,2.304000X1.204000*%
%ADD53O,2.004000X1.204000*%
%ADD54RoundRect,0.102000X-0.425000X-0.375000X0.425000X-0.375000X0.425000X0.375000X-0.425000X0.375000X0*%
G04 APERTURE END LIST*
%TO.C,JP1*%
G36*
X2550000Y-21100000D02*
G01*
X4050000Y-21100000D01*
X4050000Y-20800000D01*
X2550000Y-20800000D01*
X2550000Y-21100000D01*
G37*
%TO.C,JP2*%
G36*
X31690000Y-8050000D02*
G01*
X31390000Y-8050000D01*
X31390000Y-6550000D01*
X31690000Y-6550000D01*
X31690000Y-8050000D01*
G37*
D10*
%TO.C,U2*%
X11393000Y-22506001D02*
X11400000Y-22507001D01*
X11406000Y-22508001D01*
X11412000Y-22509001D01*
X11419000Y-22511001D01*
X11425000Y-22513001D01*
X11431000Y-22516001D01*
X11437000Y-22519001D01*
X11442000Y-22522001D01*
X11448000Y-22525001D01*
X11453000Y-22529001D01*
X11459000Y-22533001D01*
X11464000Y-22537001D01*
X11468000Y-22542001D01*
X11473000Y-22546001D01*
X11477000Y-22551001D01*
X11481000Y-22557001D01*
X11485000Y-22562001D01*
X11488000Y-22567001D01*
X11491000Y-22573001D01*
X11494000Y-22579001D01*
X11497000Y-22585001D01*
X11499000Y-22591001D01*
X11501000Y-22598001D01*
X11502000Y-22604001D01*
X11503000Y-22610001D01*
X11504000Y-22617001D01*
X11505000Y-22623001D01*
X11505000Y-22630001D01*
X11505000Y-23070001D01*
X11505000Y-23077001D01*
X11504000Y-23083001D01*
X11503000Y-23090001D01*
X11502000Y-23096001D01*
X11501000Y-23102001D01*
X11499000Y-23109001D01*
X11497000Y-23115001D01*
X11494000Y-23121001D01*
X11491000Y-23127001D01*
X11488000Y-23133001D01*
X11485000Y-23138001D01*
X11481000Y-23143001D01*
X11477000Y-23149001D01*
X11473000Y-23154001D01*
X11468000Y-23158001D01*
X11464000Y-23163001D01*
X11459000Y-23167001D01*
X11453000Y-23171001D01*
X11448000Y-23175001D01*
X11442000Y-23178001D01*
X11437000Y-23181001D01*
X11431000Y-23184001D01*
X11425000Y-23187001D01*
X11419000Y-23189001D01*
X11412000Y-23191001D01*
X11406000Y-23192001D01*
X11400000Y-23193001D01*
X11393000Y-23194001D01*
X11387000Y-23195001D01*
X11380000Y-23195001D01*
X11180000Y-23195001D01*
X11173000Y-23195001D01*
X11167000Y-23194001D01*
X11160000Y-23193001D01*
X11154000Y-23192001D01*
X11148000Y-23191001D01*
X11141000Y-23189001D01*
X11135000Y-23187001D01*
X11129000Y-23184001D01*
X11123000Y-23181001D01*
X11118000Y-23178001D01*
X11112000Y-23175001D01*
X11107000Y-23171001D01*
X11101000Y-23167001D01*
X11096000Y-23163001D01*
X11092000Y-23158001D01*
X11087000Y-23154001D01*
X11083000Y-23149001D01*
X11079000Y-23143001D01*
X11075000Y-23138001D01*
X11072000Y-23133001D01*
X11069000Y-23127001D01*
X11066000Y-23121001D01*
X11063000Y-23115001D01*
X11061000Y-23109001D01*
X11059000Y-23102001D01*
X11058000Y-23096001D01*
X11057000Y-23090001D01*
X11056000Y-23083001D01*
X11055000Y-23077001D01*
X11055000Y-23070001D01*
X11055000Y-22630001D01*
X11055000Y-22623001D01*
X11056000Y-22617001D01*
X11057000Y-22610001D01*
X11058000Y-22604001D01*
X11059000Y-22598001D01*
X11061000Y-22591001D01*
X11063000Y-22585001D01*
X11066000Y-22579001D01*
X11069000Y-22573001D01*
X11072000Y-22567001D01*
X11075000Y-22562001D01*
X11079000Y-22557001D01*
X11083000Y-22551001D01*
X11087000Y-22546001D01*
X11092000Y-22542001D01*
X11096000Y-22537001D01*
X11101000Y-22533001D01*
X11107000Y-22529001D01*
X11112000Y-22525001D01*
X11118000Y-22522001D01*
X11123000Y-22519001D01*
X11129000Y-22516001D01*
X11135000Y-22513001D01*
X11141000Y-22511001D01*
X11148000Y-22509001D01*
X11154000Y-22508001D01*
X11160000Y-22507001D01*
X11167000Y-22506001D01*
X11173000Y-22505001D01*
X11180000Y-22505001D01*
X11380000Y-22505001D01*
X11387000Y-22505001D01*
X11393000Y-22506001D01*
G36*
X11393000Y-22506001D02*
G01*
X11400000Y-22507001D01*
X11406000Y-22508001D01*
X11412000Y-22509001D01*
X11419000Y-22511001D01*
X11425000Y-22513001D01*
X11431000Y-22516001D01*
X11437000Y-22519001D01*
X11442000Y-22522001D01*
X11448000Y-22525001D01*
X11453000Y-22529001D01*
X11459000Y-22533001D01*
X11464000Y-22537001D01*
X11468000Y-22542001D01*
X11473000Y-22546001D01*
X11477000Y-22551001D01*
X11481000Y-22557001D01*
X11485000Y-22562001D01*
X11488000Y-22567001D01*
X11491000Y-22573001D01*
X11494000Y-22579001D01*
X11497000Y-22585001D01*
X11499000Y-22591001D01*
X11501000Y-22598001D01*
X11502000Y-22604001D01*
X11503000Y-22610001D01*
X11504000Y-22617001D01*
X11505000Y-22623001D01*
X11505000Y-22630001D01*
X11505000Y-23070001D01*
X11505000Y-23077001D01*
X11504000Y-23083001D01*
X11503000Y-23090001D01*
X11502000Y-23096001D01*
X11501000Y-23102001D01*
X11499000Y-23109001D01*
X11497000Y-23115001D01*
X11494000Y-23121001D01*
X11491000Y-23127001D01*
X11488000Y-23133001D01*
X11485000Y-23138001D01*
X11481000Y-23143001D01*
X11477000Y-23149001D01*
X11473000Y-23154001D01*
X11468000Y-23158001D01*
X11464000Y-23163001D01*
X11459000Y-23167001D01*
X11453000Y-23171001D01*
X11448000Y-23175001D01*
X11442000Y-23178001D01*
X11437000Y-23181001D01*
X11431000Y-23184001D01*
X11425000Y-23187001D01*
X11419000Y-23189001D01*
X11412000Y-23191001D01*
X11406000Y-23192001D01*
X11400000Y-23193001D01*
X11393000Y-23194001D01*
X11387000Y-23195001D01*
X11380000Y-23195001D01*
X11180000Y-23195001D01*
X11173000Y-23195001D01*
X11167000Y-23194001D01*
X11160000Y-23193001D01*
X11154000Y-23192001D01*
X11148000Y-23191001D01*
X11141000Y-23189001D01*
X11135000Y-23187001D01*
X11129000Y-23184001D01*
X11123000Y-23181001D01*
X11118000Y-23178001D01*
X11112000Y-23175001D01*
X11107000Y-23171001D01*
X11101000Y-23167001D01*
X11096000Y-23163001D01*
X11092000Y-23158001D01*
X11087000Y-23154001D01*
X11083000Y-23149001D01*
X11079000Y-23143001D01*
X11075000Y-23138001D01*
X11072000Y-23133001D01*
X11069000Y-23127001D01*
X11066000Y-23121001D01*
X11063000Y-23115001D01*
X11061000Y-23109001D01*
X11059000Y-23102001D01*
X11058000Y-23096001D01*
X11057000Y-23090001D01*
X11056000Y-23083001D01*
X11055000Y-23077001D01*
X11055000Y-23070001D01*
X11055000Y-22630001D01*
X11055000Y-22623001D01*
X11056000Y-22617001D01*
X11057000Y-22610001D01*
X11058000Y-22604001D01*
X11059000Y-22598001D01*
X11061000Y-22591001D01*
X11063000Y-22585001D01*
X11066000Y-22579001D01*
X11069000Y-22573001D01*
X11072000Y-22567001D01*
X11075000Y-22562001D01*
X11079000Y-22557001D01*
X11083000Y-22551001D01*
X11087000Y-22546001D01*
X11092000Y-22542001D01*
X11096000Y-22537001D01*
X11101000Y-22533001D01*
X11107000Y-22529001D01*
X11112000Y-22525001D01*
X11118000Y-22522001D01*
X11123000Y-22519001D01*
X11129000Y-22516001D01*
X11135000Y-22513001D01*
X11141000Y-22511001D01*
X11148000Y-22509001D01*
X11154000Y-22508001D01*
X11160000Y-22507001D01*
X11167000Y-22506001D01*
X11173000Y-22505001D01*
X11180000Y-22505001D01*
X11380000Y-22505001D01*
X11387000Y-22505001D01*
X11393000Y-22506001D01*
G37*
X11393000Y-24836001D02*
X11400000Y-24837001D01*
X11406000Y-24838001D01*
X11412000Y-24839001D01*
X11419000Y-24841001D01*
X11425000Y-24843001D01*
X11431000Y-24846001D01*
X11437000Y-24849001D01*
X11442000Y-24852001D01*
X11448000Y-24855001D01*
X11453000Y-24859001D01*
X11459000Y-24863001D01*
X11464000Y-24867001D01*
X11468000Y-24872001D01*
X11473000Y-24876001D01*
X11477000Y-24881001D01*
X11481000Y-24887001D01*
X11485000Y-24892001D01*
X11488000Y-24897001D01*
X11491000Y-24903001D01*
X11494000Y-24909001D01*
X11497000Y-24915001D01*
X11499000Y-24921001D01*
X11501000Y-24928001D01*
X11502000Y-24934001D01*
X11503000Y-24940001D01*
X11504000Y-24947001D01*
X11505000Y-24953001D01*
X11505000Y-24960001D01*
X11505000Y-25400001D01*
X11505000Y-25407001D01*
X11504000Y-25413001D01*
X11503000Y-25420001D01*
X11502000Y-25426001D01*
X11501000Y-25432001D01*
X11499000Y-25439001D01*
X11497000Y-25445001D01*
X11494000Y-25451001D01*
X11491000Y-25457001D01*
X11488000Y-25463001D01*
X11485000Y-25468001D01*
X11481000Y-25473001D01*
X11477000Y-25479001D01*
X11473000Y-25484001D01*
X11468000Y-25488001D01*
X11464000Y-25493001D01*
X11459000Y-25497001D01*
X11453000Y-25501001D01*
X11448000Y-25505001D01*
X11442000Y-25508001D01*
X11437000Y-25511001D01*
X11431000Y-25514001D01*
X11425000Y-25517001D01*
X11419000Y-25519001D01*
X11412000Y-25521001D01*
X11406000Y-25522001D01*
X11400000Y-25523001D01*
X11393000Y-25524001D01*
X11387000Y-25525001D01*
X11380000Y-25525001D01*
X11180000Y-25525001D01*
X11173000Y-25525001D01*
X11167000Y-25524001D01*
X11160000Y-25523001D01*
X11154000Y-25522001D01*
X11148000Y-25521001D01*
X11141000Y-25519001D01*
X11135000Y-25517001D01*
X11129000Y-25514001D01*
X11123000Y-25511001D01*
X11118000Y-25508001D01*
X11112000Y-25505001D01*
X11107000Y-25501001D01*
X11101000Y-25497001D01*
X11096000Y-25493001D01*
X11092000Y-25488001D01*
X11087000Y-25484001D01*
X11083000Y-25479001D01*
X11079000Y-25473001D01*
X11075000Y-25468001D01*
X11072000Y-25463001D01*
X11069000Y-25457001D01*
X11066000Y-25451001D01*
X11063000Y-25445001D01*
X11061000Y-25439001D01*
X11059000Y-25432001D01*
X11058000Y-25426001D01*
X11057000Y-25420001D01*
X11056000Y-25413001D01*
X11055000Y-25407001D01*
X11055000Y-25400001D01*
X11055000Y-24960001D01*
X11055000Y-24953001D01*
X11056000Y-24947001D01*
X11057000Y-24940001D01*
X11058000Y-24934001D01*
X11059000Y-24928001D01*
X11061000Y-24921001D01*
X11063000Y-24915001D01*
X11066000Y-24909001D01*
X11069000Y-24903001D01*
X11072000Y-24897001D01*
X11075000Y-24892001D01*
X11079000Y-24887001D01*
X11083000Y-24881001D01*
X11087000Y-24876001D01*
X11092000Y-24872001D01*
X11096000Y-24867001D01*
X11101000Y-24863001D01*
X11107000Y-24859001D01*
X11112000Y-24855001D01*
X11118000Y-24852001D01*
X11123000Y-24849001D01*
X11129000Y-24846001D01*
X11135000Y-24843001D01*
X11141000Y-24841001D01*
X11148000Y-24839001D01*
X11154000Y-24838001D01*
X11160000Y-24837001D01*
X11167000Y-24836001D01*
X11173000Y-24835001D01*
X11180000Y-24835001D01*
X11380000Y-24835001D01*
X11387000Y-24835001D01*
X11393000Y-24836001D01*
G36*
X11393000Y-24836001D02*
G01*
X11400000Y-24837001D01*
X11406000Y-24838001D01*
X11412000Y-24839001D01*
X11419000Y-24841001D01*
X11425000Y-24843001D01*
X11431000Y-24846001D01*
X11437000Y-24849001D01*
X11442000Y-24852001D01*
X11448000Y-24855001D01*
X11453000Y-24859001D01*
X11459000Y-24863001D01*
X11464000Y-24867001D01*
X11468000Y-24872001D01*
X11473000Y-24876001D01*
X11477000Y-24881001D01*
X11481000Y-24887001D01*
X11485000Y-24892001D01*
X11488000Y-24897001D01*
X11491000Y-24903001D01*
X11494000Y-24909001D01*
X11497000Y-24915001D01*
X11499000Y-24921001D01*
X11501000Y-24928001D01*
X11502000Y-24934001D01*
X11503000Y-24940001D01*
X11504000Y-24947001D01*
X11505000Y-24953001D01*
X11505000Y-24960001D01*
X11505000Y-25400001D01*
X11505000Y-25407001D01*
X11504000Y-25413001D01*
X11503000Y-25420001D01*
X11502000Y-25426001D01*
X11501000Y-25432001D01*
X11499000Y-25439001D01*
X11497000Y-25445001D01*
X11494000Y-25451001D01*
X11491000Y-25457001D01*
X11488000Y-25463001D01*
X11485000Y-25468001D01*
X11481000Y-25473001D01*
X11477000Y-25479001D01*
X11473000Y-25484001D01*
X11468000Y-25488001D01*
X11464000Y-25493001D01*
X11459000Y-25497001D01*
X11453000Y-25501001D01*
X11448000Y-25505001D01*
X11442000Y-25508001D01*
X11437000Y-25511001D01*
X11431000Y-25514001D01*
X11425000Y-25517001D01*
X11419000Y-25519001D01*
X11412000Y-25521001D01*
X11406000Y-25522001D01*
X11400000Y-25523001D01*
X11393000Y-25524001D01*
X11387000Y-25525001D01*
X11380000Y-25525001D01*
X11180000Y-25525001D01*
X11173000Y-25525001D01*
X11167000Y-25524001D01*
X11160000Y-25523001D01*
X11154000Y-25522001D01*
X11148000Y-25521001D01*
X11141000Y-25519001D01*
X11135000Y-25517001D01*
X11129000Y-25514001D01*
X11123000Y-25511001D01*
X11118000Y-25508001D01*
X11112000Y-25505001D01*
X11107000Y-25501001D01*
X11101000Y-25497001D01*
X11096000Y-25493001D01*
X11092000Y-25488001D01*
X11087000Y-25484001D01*
X11083000Y-25479001D01*
X11079000Y-25473001D01*
X11075000Y-25468001D01*
X11072000Y-25463001D01*
X11069000Y-25457001D01*
X11066000Y-25451001D01*
X11063000Y-25445001D01*
X11061000Y-25439001D01*
X11059000Y-25432001D01*
X11058000Y-25426001D01*
X11057000Y-25420001D01*
X11056000Y-25413001D01*
X11055000Y-25407001D01*
X11055000Y-25400001D01*
X11055000Y-24960001D01*
X11055000Y-24953001D01*
X11056000Y-24947001D01*
X11057000Y-24940001D01*
X11058000Y-24934001D01*
X11059000Y-24928001D01*
X11061000Y-24921001D01*
X11063000Y-24915001D01*
X11066000Y-24909001D01*
X11069000Y-24903001D01*
X11072000Y-24897001D01*
X11075000Y-24892001D01*
X11079000Y-24887001D01*
X11083000Y-24881001D01*
X11087000Y-24876001D01*
X11092000Y-24872001D01*
X11096000Y-24867001D01*
X11101000Y-24863001D01*
X11107000Y-24859001D01*
X11112000Y-24855001D01*
X11118000Y-24852001D01*
X11123000Y-24849001D01*
X11129000Y-24846001D01*
X11135000Y-24843001D01*
X11141000Y-24841001D01*
X11148000Y-24839001D01*
X11154000Y-24838001D01*
X11160000Y-24837001D01*
X11167000Y-24836001D01*
X11173000Y-24835001D01*
X11180000Y-24835001D01*
X11380000Y-24835001D01*
X11387000Y-24835001D01*
X11393000Y-24836001D01*
G37*
X11348000Y-23291001D02*
X11355000Y-23292001D01*
X11361000Y-23293001D01*
X11367000Y-23294001D01*
X11374000Y-23296001D01*
X11380000Y-23298001D01*
X11386000Y-23301001D01*
X11392000Y-23304001D01*
X11398000Y-23307001D01*
X11403000Y-23310001D01*
X11408000Y-23314001D01*
X11414000Y-23318001D01*
X11419000Y-23322001D01*
X11423000Y-23327001D01*
X11428000Y-23331001D01*
X11432000Y-23336001D01*
X11436000Y-23342001D01*
X11440000Y-23347001D01*
X11443000Y-23353001D01*
X11446000Y-23358001D01*
X11449000Y-23364001D01*
X11452000Y-23370001D01*
X11454000Y-23376001D01*
X11456000Y-23383001D01*
X11457000Y-23389001D01*
X11458000Y-23395001D01*
X11459000Y-23402001D01*
X11460000Y-23408001D01*
X11460000Y-23415001D01*
X11460000Y-23615001D01*
X11460000Y-23622001D01*
X11459000Y-23628001D01*
X11458000Y-23635001D01*
X11457000Y-23641001D01*
X11456000Y-23647001D01*
X11454000Y-23654001D01*
X11452000Y-23660001D01*
X11449000Y-23666001D01*
X11446000Y-23672001D01*
X11443000Y-23677001D01*
X11440000Y-23683001D01*
X11436000Y-23688001D01*
X11432000Y-23694001D01*
X11428000Y-23699001D01*
X11423000Y-23703001D01*
X11419000Y-23708001D01*
X11414000Y-23712001D01*
X11408000Y-23716001D01*
X11403000Y-23720001D01*
X11398000Y-23723001D01*
X11392000Y-23726001D01*
X11386000Y-23729001D01*
X11380000Y-23732001D01*
X11374000Y-23734001D01*
X11367000Y-23736001D01*
X11361000Y-23737001D01*
X11355000Y-23738001D01*
X11348000Y-23739001D01*
X11342000Y-23740001D01*
X11335000Y-23740001D01*
X10895000Y-23740001D01*
X10888000Y-23740001D01*
X10882000Y-23739001D01*
X10875000Y-23738001D01*
X10869000Y-23737001D01*
X10863000Y-23736001D01*
X10856000Y-23734001D01*
X10850000Y-23732001D01*
X10844000Y-23729001D01*
X10838000Y-23726001D01*
X10832000Y-23723001D01*
X10827000Y-23720001D01*
X10822000Y-23716001D01*
X10816000Y-23712001D01*
X10811000Y-23708001D01*
X10807000Y-23703001D01*
X10802000Y-23699001D01*
X10798000Y-23694001D01*
X10794000Y-23688001D01*
X10790000Y-23683001D01*
X10787000Y-23677001D01*
X10784000Y-23672001D01*
X10781000Y-23666001D01*
X10778000Y-23660001D01*
X10776000Y-23654001D01*
X10774000Y-23647001D01*
X10773000Y-23641001D01*
X10772000Y-23635001D01*
X10771000Y-23628001D01*
X10770000Y-23622001D01*
X10770000Y-23615001D01*
X10770000Y-23415001D01*
X10770000Y-23408001D01*
X10771000Y-23402001D01*
X10772000Y-23395001D01*
X10773000Y-23389001D01*
X10774000Y-23383001D01*
X10776000Y-23376001D01*
X10778000Y-23370001D01*
X10781000Y-23364001D01*
X10784000Y-23358001D01*
X10787000Y-23352001D01*
X10790000Y-23347001D01*
X10794000Y-23342001D01*
X10798000Y-23336001D01*
X10802000Y-23331001D01*
X10807000Y-23327001D01*
X10811000Y-23322001D01*
X10816000Y-23318001D01*
X10822000Y-23314001D01*
X10827000Y-23310001D01*
X10832000Y-23307001D01*
X10838000Y-23304001D01*
X10844000Y-23301001D01*
X10850000Y-23298001D01*
X10856000Y-23296001D01*
X10863000Y-23294001D01*
X10869000Y-23293001D01*
X10875000Y-23292001D01*
X10882000Y-23291001D01*
X10888000Y-23290001D01*
X10895000Y-23290001D01*
X11335000Y-23290001D01*
X11342000Y-23290001D01*
X11348000Y-23291001D01*
G36*
X11348000Y-23291001D02*
G01*
X11355000Y-23292001D01*
X11361000Y-23293001D01*
X11367000Y-23294001D01*
X11374000Y-23296001D01*
X11380000Y-23298001D01*
X11386000Y-23301001D01*
X11392000Y-23304001D01*
X11398000Y-23307001D01*
X11403000Y-23310001D01*
X11408000Y-23314001D01*
X11414000Y-23318001D01*
X11419000Y-23322001D01*
X11423000Y-23327001D01*
X11428000Y-23331001D01*
X11432000Y-23336001D01*
X11436000Y-23342001D01*
X11440000Y-23347001D01*
X11443000Y-23353001D01*
X11446000Y-23358001D01*
X11449000Y-23364001D01*
X11452000Y-23370001D01*
X11454000Y-23376001D01*
X11456000Y-23383001D01*
X11457000Y-23389001D01*
X11458000Y-23395001D01*
X11459000Y-23402001D01*
X11460000Y-23408001D01*
X11460000Y-23415001D01*
X11460000Y-23615001D01*
X11460000Y-23622001D01*
X11459000Y-23628001D01*
X11458000Y-23635001D01*
X11457000Y-23641001D01*
X11456000Y-23647001D01*
X11454000Y-23654001D01*
X11452000Y-23660001D01*
X11449000Y-23666001D01*
X11446000Y-23672001D01*
X11443000Y-23677001D01*
X11440000Y-23683001D01*
X11436000Y-23688001D01*
X11432000Y-23694001D01*
X11428000Y-23699001D01*
X11423000Y-23703001D01*
X11419000Y-23708001D01*
X11414000Y-23712001D01*
X11408000Y-23716001D01*
X11403000Y-23720001D01*
X11398000Y-23723001D01*
X11392000Y-23726001D01*
X11386000Y-23729001D01*
X11380000Y-23732001D01*
X11374000Y-23734001D01*
X11367000Y-23736001D01*
X11361000Y-23737001D01*
X11355000Y-23738001D01*
X11348000Y-23739001D01*
X11342000Y-23740001D01*
X11335000Y-23740001D01*
X10895000Y-23740001D01*
X10888000Y-23740001D01*
X10882000Y-23739001D01*
X10875000Y-23738001D01*
X10869000Y-23737001D01*
X10863000Y-23736001D01*
X10856000Y-23734001D01*
X10850000Y-23732001D01*
X10844000Y-23729001D01*
X10838000Y-23726001D01*
X10832000Y-23723001D01*
X10827000Y-23720001D01*
X10822000Y-23716001D01*
X10816000Y-23712001D01*
X10811000Y-23708001D01*
X10807000Y-23703001D01*
X10802000Y-23699001D01*
X10798000Y-23694001D01*
X10794000Y-23688001D01*
X10790000Y-23683001D01*
X10787000Y-23677001D01*
X10784000Y-23672001D01*
X10781000Y-23666001D01*
X10778000Y-23660001D01*
X10776000Y-23654001D01*
X10774000Y-23647001D01*
X10773000Y-23641001D01*
X10772000Y-23635001D01*
X10771000Y-23628001D01*
X10770000Y-23622001D01*
X10770000Y-23615001D01*
X10770000Y-23415001D01*
X10770000Y-23408001D01*
X10771000Y-23402001D01*
X10772000Y-23395001D01*
X10773000Y-23389001D01*
X10774000Y-23383001D01*
X10776000Y-23376001D01*
X10778000Y-23370001D01*
X10781000Y-23364001D01*
X10784000Y-23358001D01*
X10787000Y-23352001D01*
X10790000Y-23347001D01*
X10794000Y-23342001D01*
X10798000Y-23336001D01*
X10802000Y-23331001D01*
X10807000Y-23327001D01*
X10811000Y-23322001D01*
X10816000Y-23318001D01*
X10822000Y-23314001D01*
X10827000Y-23310001D01*
X10832000Y-23307001D01*
X10838000Y-23304001D01*
X10844000Y-23301001D01*
X10850000Y-23298001D01*
X10856000Y-23296001D01*
X10863000Y-23294001D01*
X10869000Y-23293001D01*
X10875000Y-23292001D01*
X10882000Y-23291001D01*
X10888000Y-23290001D01*
X10895000Y-23290001D01*
X11335000Y-23290001D01*
X11342000Y-23290001D01*
X11348000Y-23291001D01*
G37*
X11348000Y-23791001D02*
X11355000Y-23792001D01*
X11361000Y-23793001D01*
X11367000Y-23794001D01*
X11374000Y-23796001D01*
X11380000Y-23798001D01*
X11386000Y-23801001D01*
X11392000Y-23804001D01*
X11398000Y-23807001D01*
X11403000Y-23810001D01*
X11408000Y-23814001D01*
X11414000Y-23818001D01*
X11419000Y-23822001D01*
X11423000Y-23827001D01*
X11428000Y-23831001D01*
X11432000Y-23836001D01*
X11436000Y-23842001D01*
X11440000Y-23847001D01*
X11443000Y-23853001D01*
X11446000Y-23858001D01*
X11449000Y-23864001D01*
X11452000Y-23870001D01*
X11454000Y-23876001D01*
X11456000Y-23883001D01*
X11457000Y-23889001D01*
X11458000Y-23895001D01*
X11459000Y-23902001D01*
X11460000Y-23908001D01*
X11460000Y-23915001D01*
X11460000Y-24115001D01*
X11460000Y-24122001D01*
X11459000Y-24128001D01*
X11458000Y-24135001D01*
X11457000Y-24141001D01*
X11456000Y-24147001D01*
X11454000Y-24154001D01*
X11452000Y-24160001D01*
X11449000Y-24166001D01*
X11446000Y-24172001D01*
X11443000Y-24178001D01*
X11440000Y-24183001D01*
X11436000Y-24188001D01*
X11432000Y-24194001D01*
X11428000Y-24199001D01*
X11423000Y-24203001D01*
X11419000Y-24208001D01*
X11414000Y-24212001D01*
X11408000Y-24216001D01*
X11403000Y-24220001D01*
X11398000Y-24223001D01*
X11392000Y-24226001D01*
X11386000Y-24229001D01*
X11380000Y-24232001D01*
X11374000Y-24234001D01*
X11367000Y-24236001D01*
X11361000Y-24237001D01*
X11355000Y-24238001D01*
X11348000Y-24239001D01*
X11342000Y-24240001D01*
X11335000Y-24240001D01*
X10895000Y-24240001D01*
X10888000Y-24240001D01*
X10882000Y-24239001D01*
X10875000Y-24238001D01*
X10869000Y-24237001D01*
X10863000Y-24236001D01*
X10856000Y-24234001D01*
X10850000Y-24232001D01*
X10844000Y-24229001D01*
X10838000Y-24226001D01*
X10832000Y-24223001D01*
X10827000Y-24220001D01*
X10822000Y-24216001D01*
X10816000Y-24212001D01*
X10811000Y-24208001D01*
X10807000Y-24203001D01*
X10802000Y-24199001D01*
X10798000Y-24194001D01*
X10794000Y-24188001D01*
X10790000Y-24183001D01*
X10787000Y-24178001D01*
X10784000Y-24172001D01*
X10781000Y-24166001D01*
X10778000Y-24160001D01*
X10776000Y-24154001D01*
X10774000Y-24147001D01*
X10773000Y-24141001D01*
X10772000Y-24135001D01*
X10771000Y-24128001D01*
X10770000Y-24122001D01*
X10770000Y-24115001D01*
X10770000Y-23915001D01*
X10770000Y-23908001D01*
X10771000Y-23902001D01*
X10772000Y-23895001D01*
X10773000Y-23889001D01*
X10774000Y-23883001D01*
X10776000Y-23876001D01*
X10778000Y-23870001D01*
X10781000Y-23864001D01*
X10784000Y-23858001D01*
X10787000Y-23852001D01*
X10790000Y-23847001D01*
X10794000Y-23842001D01*
X10798000Y-23836001D01*
X10802000Y-23831001D01*
X10807000Y-23827001D01*
X10811000Y-23822001D01*
X10816000Y-23818001D01*
X10822000Y-23814001D01*
X10827000Y-23810001D01*
X10832000Y-23807001D01*
X10838000Y-23804001D01*
X10844000Y-23801001D01*
X10850000Y-23798001D01*
X10856000Y-23796001D01*
X10863000Y-23794001D01*
X10869000Y-23793001D01*
X10875000Y-23792001D01*
X10882000Y-23791001D01*
X10888000Y-23790001D01*
X10895000Y-23790001D01*
X11335000Y-23790001D01*
X11342000Y-23790001D01*
X11348000Y-23791001D01*
G36*
X11348000Y-23791001D02*
G01*
X11355000Y-23792001D01*
X11361000Y-23793001D01*
X11367000Y-23794001D01*
X11374000Y-23796001D01*
X11380000Y-23798001D01*
X11386000Y-23801001D01*
X11392000Y-23804001D01*
X11398000Y-23807001D01*
X11403000Y-23810001D01*
X11408000Y-23814001D01*
X11414000Y-23818001D01*
X11419000Y-23822001D01*
X11423000Y-23827001D01*
X11428000Y-23831001D01*
X11432000Y-23836001D01*
X11436000Y-23842001D01*
X11440000Y-23847001D01*
X11443000Y-23853001D01*
X11446000Y-23858001D01*
X11449000Y-23864001D01*
X11452000Y-23870001D01*
X11454000Y-23876001D01*
X11456000Y-23883001D01*
X11457000Y-23889001D01*
X11458000Y-23895001D01*
X11459000Y-23902001D01*
X11460000Y-23908001D01*
X11460000Y-23915001D01*
X11460000Y-24115001D01*
X11460000Y-24122001D01*
X11459000Y-24128001D01*
X11458000Y-24135001D01*
X11457000Y-24141001D01*
X11456000Y-24147001D01*
X11454000Y-24154001D01*
X11452000Y-24160001D01*
X11449000Y-24166001D01*
X11446000Y-24172001D01*
X11443000Y-24178001D01*
X11440000Y-24183001D01*
X11436000Y-24188001D01*
X11432000Y-24194001D01*
X11428000Y-24199001D01*
X11423000Y-24203001D01*
X11419000Y-24208001D01*
X11414000Y-24212001D01*
X11408000Y-24216001D01*
X11403000Y-24220001D01*
X11398000Y-24223001D01*
X11392000Y-24226001D01*
X11386000Y-24229001D01*
X11380000Y-24232001D01*
X11374000Y-24234001D01*
X11367000Y-24236001D01*
X11361000Y-24237001D01*
X11355000Y-24238001D01*
X11348000Y-24239001D01*
X11342000Y-24240001D01*
X11335000Y-24240001D01*
X10895000Y-24240001D01*
X10888000Y-24240001D01*
X10882000Y-24239001D01*
X10875000Y-24238001D01*
X10869000Y-24237001D01*
X10863000Y-24236001D01*
X10856000Y-24234001D01*
X10850000Y-24232001D01*
X10844000Y-24229001D01*
X10838000Y-24226001D01*
X10832000Y-24223001D01*
X10827000Y-24220001D01*
X10822000Y-24216001D01*
X10816000Y-24212001D01*
X10811000Y-24208001D01*
X10807000Y-24203001D01*
X10802000Y-24199001D01*
X10798000Y-24194001D01*
X10794000Y-24188001D01*
X10790000Y-24183001D01*
X10787000Y-24178001D01*
X10784000Y-24172001D01*
X10781000Y-24166001D01*
X10778000Y-24160001D01*
X10776000Y-24154001D01*
X10774000Y-24147001D01*
X10773000Y-24141001D01*
X10772000Y-24135001D01*
X10771000Y-24128001D01*
X10770000Y-24122001D01*
X10770000Y-24115001D01*
X10770000Y-23915001D01*
X10770000Y-23908001D01*
X10771000Y-23902001D01*
X10772000Y-23895001D01*
X10773000Y-23889001D01*
X10774000Y-23883001D01*
X10776000Y-23876001D01*
X10778000Y-23870001D01*
X10781000Y-23864001D01*
X10784000Y-23858001D01*
X10787000Y-23852001D01*
X10790000Y-23847001D01*
X10794000Y-23842001D01*
X10798000Y-23836001D01*
X10802000Y-23831001D01*
X10807000Y-23827001D01*
X10811000Y-23822001D01*
X10816000Y-23818001D01*
X10822000Y-23814001D01*
X10827000Y-23810001D01*
X10832000Y-23807001D01*
X10838000Y-23804001D01*
X10844000Y-23801001D01*
X10850000Y-23798001D01*
X10856000Y-23796001D01*
X10863000Y-23794001D01*
X10869000Y-23793001D01*
X10875000Y-23792001D01*
X10882000Y-23791001D01*
X10888000Y-23790001D01*
X10895000Y-23790001D01*
X11335000Y-23790001D01*
X11342000Y-23790001D01*
X11348000Y-23791001D01*
G37*
X11348000Y-24291001D02*
X11355000Y-24292001D01*
X11361000Y-24293001D01*
X11367000Y-24294001D01*
X11374000Y-24296001D01*
X11380000Y-24298001D01*
X11386000Y-24301001D01*
X11392000Y-24304001D01*
X11398000Y-24307001D01*
X11403000Y-24310001D01*
X11408000Y-24314001D01*
X11414000Y-24318001D01*
X11419000Y-24322001D01*
X11423000Y-24327001D01*
X11428000Y-24331001D01*
X11432000Y-24336001D01*
X11436000Y-24342001D01*
X11440000Y-24347001D01*
X11443000Y-24353001D01*
X11446000Y-24358001D01*
X11449000Y-24364001D01*
X11452000Y-24370001D01*
X11454000Y-24376001D01*
X11456000Y-24383001D01*
X11457000Y-24389001D01*
X11458000Y-24395001D01*
X11459000Y-24402001D01*
X11460000Y-24408001D01*
X11460000Y-24415001D01*
X11460000Y-24615001D01*
X11460000Y-24622001D01*
X11459000Y-24628001D01*
X11458000Y-24635001D01*
X11457000Y-24641001D01*
X11456000Y-24647001D01*
X11454000Y-24654001D01*
X11452000Y-24660001D01*
X11449000Y-24666001D01*
X11446000Y-24672001D01*
X11443000Y-24677001D01*
X11440000Y-24683001D01*
X11436000Y-24688001D01*
X11432000Y-24694001D01*
X11428000Y-24699001D01*
X11423000Y-24703001D01*
X11419000Y-24708001D01*
X11414000Y-24712001D01*
X11408000Y-24716001D01*
X11403000Y-24720001D01*
X11398000Y-24723001D01*
X11392000Y-24726001D01*
X11386000Y-24729001D01*
X11380000Y-24732001D01*
X11374000Y-24734001D01*
X11367000Y-24736001D01*
X11361000Y-24737001D01*
X11355000Y-24738001D01*
X11348000Y-24739001D01*
X11342000Y-24740001D01*
X11335000Y-24740001D01*
X10895000Y-24740001D01*
X10888000Y-24740001D01*
X10882000Y-24739001D01*
X10875000Y-24738001D01*
X10869000Y-24737001D01*
X10863000Y-24736001D01*
X10856000Y-24734001D01*
X10850000Y-24732001D01*
X10844000Y-24729001D01*
X10838000Y-24726001D01*
X10832000Y-24723001D01*
X10827000Y-24720001D01*
X10822000Y-24716001D01*
X10816000Y-24712001D01*
X10811000Y-24708001D01*
X10807000Y-24703001D01*
X10802000Y-24699001D01*
X10798000Y-24694001D01*
X10794000Y-24688001D01*
X10790000Y-24683001D01*
X10787000Y-24677001D01*
X10784000Y-24672001D01*
X10781000Y-24666001D01*
X10778000Y-24660001D01*
X10776000Y-24654001D01*
X10774000Y-24647001D01*
X10773000Y-24641001D01*
X10772000Y-24635001D01*
X10771000Y-24628001D01*
X10770000Y-24622001D01*
X10770000Y-24615001D01*
X10770000Y-24415001D01*
X10770000Y-24408001D01*
X10771000Y-24402001D01*
X10772000Y-24395001D01*
X10773000Y-24389001D01*
X10774000Y-24383001D01*
X10776000Y-24376001D01*
X10778000Y-24370001D01*
X10781000Y-24364001D01*
X10784000Y-24358001D01*
X10787000Y-24352001D01*
X10790000Y-24347001D01*
X10794000Y-24342001D01*
X10798000Y-24336001D01*
X10802000Y-24331001D01*
X10807000Y-24327001D01*
X10811000Y-24322001D01*
X10816000Y-24318001D01*
X10822000Y-24314001D01*
X10827000Y-24310001D01*
X10832000Y-24307001D01*
X10838000Y-24304001D01*
X10844000Y-24301001D01*
X10850000Y-24298001D01*
X10856000Y-24296001D01*
X10863000Y-24294001D01*
X10869000Y-24293001D01*
X10875000Y-24292001D01*
X10882000Y-24291001D01*
X10888000Y-24290001D01*
X10895000Y-24290001D01*
X11335000Y-24290001D01*
X11342000Y-24290001D01*
X11348000Y-24291001D01*
G36*
X11348000Y-24291001D02*
G01*
X11355000Y-24292001D01*
X11361000Y-24293001D01*
X11367000Y-24294001D01*
X11374000Y-24296001D01*
X11380000Y-24298001D01*
X11386000Y-24301001D01*
X11392000Y-24304001D01*
X11398000Y-24307001D01*
X11403000Y-24310001D01*
X11408000Y-24314001D01*
X11414000Y-24318001D01*
X11419000Y-24322001D01*
X11423000Y-24327001D01*
X11428000Y-24331001D01*
X11432000Y-24336001D01*
X11436000Y-24342001D01*
X11440000Y-24347001D01*
X11443000Y-24353001D01*
X11446000Y-24358001D01*
X11449000Y-24364001D01*
X11452000Y-24370001D01*
X11454000Y-24376001D01*
X11456000Y-24383001D01*
X11457000Y-24389001D01*
X11458000Y-24395001D01*
X11459000Y-24402001D01*
X11460000Y-24408001D01*
X11460000Y-24415001D01*
X11460000Y-24615001D01*
X11460000Y-24622001D01*
X11459000Y-24628001D01*
X11458000Y-24635001D01*
X11457000Y-24641001D01*
X11456000Y-24647001D01*
X11454000Y-24654001D01*
X11452000Y-24660001D01*
X11449000Y-24666001D01*
X11446000Y-24672001D01*
X11443000Y-24677001D01*
X11440000Y-24683001D01*
X11436000Y-24688001D01*
X11432000Y-24694001D01*
X11428000Y-24699001D01*
X11423000Y-24703001D01*
X11419000Y-24708001D01*
X11414000Y-24712001D01*
X11408000Y-24716001D01*
X11403000Y-24720001D01*
X11398000Y-24723001D01*
X11392000Y-24726001D01*
X11386000Y-24729001D01*
X11380000Y-24732001D01*
X11374000Y-24734001D01*
X11367000Y-24736001D01*
X11361000Y-24737001D01*
X11355000Y-24738001D01*
X11348000Y-24739001D01*
X11342000Y-24740001D01*
X11335000Y-24740001D01*
X10895000Y-24740001D01*
X10888000Y-24740001D01*
X10882000Y-24739001D01*
X10875000Y-24738001D01*
X10869000Y-24737001D01*
X10863000Y-24736001D01*
X10856000Y-24734001D01*
X10850000Y-24732001D01*
X10844000Y-24729001D01*
X10838000Y-24726001D01*
X10832000Y-24723001D01*
X10827000Y-24720001D01*
X10822000Y-24716001D01*
X10816000Y-24712001D01*
X10811000Y-24708001D01*
X10807000Y-24703001D01*
X10802000Y-24699001D01*
X10798000Y-24694001D01*
X10794000Y-24688001D01*
X10790000Y-24683001D01*
X10787000Y-24677001D01*
X10784000Y-24672001D01*
X10781000Y-24666001D01*
X10778000Y-24660001D01*
X10776000Y-24654001D01*
X10774000Y-24647001D01*
X10773000Y-24641001D01*
X10772000Y-24635001D01*
X10771000Y-24628001D01*
X10770000Y-24622001D01*
X10770000Y-24615001D01*
X10770000Y-24415001D01*
X10770000Y-24408001D01*
X10771000Y-24402001D01*
X10772000Y-24395001D01*
X10773000Y-24389001D01*
X10774000Y-24383001D01*
X10776000Y-24376001D01*
X10778000Y-24370001D01*
X10781000Y-24364001D01*
X10784000Y-24358001D01*
X10787000Y-24352001D01*
X10790000Y-24347001D01*
X10794000Y-24342001D01*
X10798000Y-24336001D01*
X10802000Y-24331001D01*
X10807000Y-24327001D01*
X10811000Y-24322001D01*
X10816000Y-24318001D01*
X10822000Y-24314001D01*
X10827000Y-24310001D01*
X10832000Y-24307001D01*
X10838000Y-24304001D01*
X10844000Y-24301001D01*
X10850000Y-24298001D01*
X10856000Y-24296001D01*
X10863000Y-24294001D01*
X10869000Y-24293001D01*
X10875000Y-24292001D01*
X10882000Y-24291001D01*
X10888000Y-24290001D01*
X10895000Y-24290001D01*
X11335000Y-24290001D01*
X11342000Y-24290001D01*
X11348000Y-24291001D01*
G37*
X11893000Y-22506001D02*
X11900000Y-22507001D01*
X11906000Y-22508001D01*
X11912000Y-22509001D01*
X11919000Y-22511001D01*
X11925000Y-22513001D01*
X11931000Y-22516001D01*
X11937000Y-22519001D01*
X11942000Y-22522001D01*
X11948000Y-22525001D01*
X11953000Y-22529001D01*
X11959000Y-22533001D01*
X11964000Y-22537001D01*
X11968000Y-22542001D01*
X11973000Y-22546001D01*
X11977000Y-22551001D01*
X11981000Y-22557001D01*
X11985000Y-22562001D01*
X11988000Y-22567001D01*
X11991000Y-22573001D01*
X11994000Y-22579001D01*
X11997000Y-22585001D01*
X11999000Y-22591001D01*
X12001000Y-22598001D01*
X12002000Y-22604001D01*
X12003000Y-22610001D01*
X12004000Y-22617001D01*
X12005000Y-22623001D01*
X12005000Y-22630001D01*
X12005000Y-23070001D01*
X12005000Y-23077001D01*
X12004000Y-23083001D01*
X12003000Y-23090001D01*
X12002000Y-23096001D01*
X12001000Y-23102001D01*
X11999000Y-23109001D01*
X11997000Y-23115001D01*
X11994000Y-23121001D01*
X11991000Y-23127001D01*
X11988000Y-23133001D01*
X11985000Y-23138001D01*
X11981000Y-23143001D01*
X11977000Y-23149001D01*
X11973000Y-23154001D01*
X11968000Y-23158001D01*
X11964000Y-23163001D01*
X11959000Y-23167001D01*
X11953000Y-23171001D01*
X11948000Y-23175001D01*
X11942000Y-23178001D01*
X11937000Y-23181001D01*
X11931000Y-23184001D01*
X11925000Y-23187001D01*
X11919000Y-23189001D01*
X11912000Y-23191001D01*
X11906000Y-23192001D01*
X11900000Y-23193001D01*
X11893000Y-23194001D01*
X11887000Y-23195001D01*
X11880000Y-23195001D01*
X11680000Y-23195001D01*
X11673000Y-23195001D01*
X11667000Y-23194001D01*
X11660000Y-23193001D01*
X11654000Y-23192001D01*
X11648000Y-23191001D01*
X11641000Y-23189001D01*
X11635000Y-23187001D01*
X11629000Y-23184001D01*
X11623000Y-23181001D01*
X11618000Y-23178001D01*
X11612000Y-23175001D01*
X11607000Y-23171001D01*
X11601000Y-23167001D01*
X11596000Y-23163001D01*
X11592000Y-23158001D01*
X11587000Y-23154001D01*
X11583000Y-23149001D01*
X11579000Y-23143001D01*
X11575000Y-23138001D01*
X11572000Y-23133001D01*
X11569000Y-23127001D01*
X11566000Y-23121001D01*
X11563000Y-23115001D01*
X11561000Y-23109001D01*
X11559000Y-23102001D01*
X11558000Y-23096001D01*
X11557000Y-23090001D01*
X11556000Y-23083001D01*
X11555000Y-23077001D01*
X11555000Y-23070001D01*
X11555000Y-22630001D01*
X11555000Y-22623001D01*
X11556000Y-22617001D01*
X11557000Y-22610001D01*
X11558000Y-22604001D01*
X11559000Y-22598001D01*
X11561000Y-22591001D01*
X11563000Y-22585001D01*
X11566000Y-22579001D01*
X11569000Y-22573001D01*
X11572000Y-22567001D01*
X11575000Y-22562001D01*
X11579000Y-22557001D01*
X11583000Y-22551001D01*
X11587000Y-22546001D01*
X11592000Y-22542001D01*
X11596000Y-22537001D01*
X11601000Y-22533001D01*
X11607000Y-22529001D01*
X11612000Y-22525001D01*
X11618000Y-22522001D01*
X11623000Y-22519001D01*
X11629000Y-22516001D01*
X11635000Y-22513001D01*
X11641000Y-22511001D01*
X11648000Y-22509001D01*
X11654000Y-22508001D01*
X11660000Y-22507001D01*
X11667000Y-22506001D01*
X11673000Y-22505001D01*
X11680000Y-22505001D01*
X11880000Y-22505001D01*
X11887000Y-22505001D01*
X11893000Y-22506001D01*
G36*
X11893000Y-22506001D02*
G01*
X11900000Y-22507001D01*
X11906000Y-22508001D01*
X11912000Y-22509001D01*
X11919000Y-22511001D01*
X11925000Y-22513001D01*
X11931000Y-22516001D01*
X11937000Y-22519001D01*
X11942000Y-22522001D01*
X11948000Y-22525001D01*
X11953000Y-22529001D01*
X11959000Y-22533001D01*
X11964000Y-22537001D01*
X11968000Y-22542001D01*
X11973000Y-22546001D01*
X11977000Y-22551001D01*
X11981000Y-22557001D01*
X11985000Y-22562001D01*
X11988000Y-22567001D01*
X11991000Y-22573001D01*
X11994000Y-22579001D01*
X11997000Y-22585001D01*
X11999000Y-22591001D01*
X12001000Y-22598001D01*
X12002000Y-22604001D01*
X12003000Y-22610001D01*
X12004000Y-22617001D01*
X12005000Y-22623001D01*
X12005000Y-22630001D01*
X12005000Y-23070001D01*
X12005000Y-23077001D01*
X12004000Y-23083001D01*
X12003000Y-23090001D01*
X12002000Y-23096001D01*
X12001000Y-23102001D01*
X11999000Y-23109001D01*
X11997000Y-23115001D01*
X11994000Y-23121001D01*
X11991000Y-23127001D01*
X11988000Y-23133001D01*
X11985000Y-23138001D01*
X11981000Y-23143001D01*
X11977000Y-23149001D01*
X11973000Y-23154001D01*
X11968000Y-23158001D01*
X11964000Y-23163001D01*
X11959000Y-23167001D01*
X11953000Y-23171001D01*
X11948000Y-23175001D01*
X11942000Y-23178001D01*
X11937000Y-23181001D01*
X11931000Y-23184001D01*
X11925000Y-23187001D01*
X11919000Y-23189001D01*
X11912000Y-23191001D01*
X11906000Y-23192001D01*
X11900000Y-23193001D01*
X11893000Y-23194001D01*
X11887000Y-23195001D01*
X11880000Y-23195001D01*
X11680000Y-23195001D01*
X11673000Y-23195001D01*
X11667000Y-23194001D01*
X11660000Y-23193001D01*
X11654000Y-23192001D01*
X11648000Y-23191001D01*
X11641000Y-23189001D01*
X11635000Y-23187001D01*
X11629000Y-23184001D01*
X11623000Y-23181001D01*
X11618000Y-23178001D01*
X11612000Y-23175001D01*
X11607000Y-23171001D01*
X11601000Y-23167001D01*
X11596000Y-23163001D01*
X11592000Y-23158001D01*
X11587000Y-23154001D01*
X11583000Y-23149001D01*
X11579000Y-23143001D01*
X11575000Y-23138001D01*
X11572000Y-23133001D01*
X11569000Y-23127001D01*
X11566000Y-23121001D01*
X11563000Y-23115001D01*
X11561000Y-23109001D01*
X11559000Y-23102001D01*
X11558000Y-23096001D01*
X11557000Y-23090001D01*
X11556000Y-23083001D01*
X11555000Y-23077001D01*
X11555000Y-23070001D01*
X11555000Y-22630001D01*
X11555000Y-22623001D01*
X11556000Y-22617001D01*
X11557000Y-22610001D01*
X11558000Y-22604001D01*
X11559000Y-22598001D01*
X11561000Y-22591001D01*
X11563000Y-22585001D01*
X11566000Y-22579001D01*
X11569000Y-22573001D01*
X11572000Y-22567001D01*
X11575000Y-22562001D01*
X11579000Y-22557001D01*
X11583000Y-22551001D01*
X11587000Y-22546001D01*
X11592000Y-22542001D01*
X11596000Y-22537001D01*
X11601000Y-22533001D01*
X11607000Y-22529001D01*
X11612000Y-22525001D01*
X11618000Y-22522001D01*
X11623000Y-22519001D01*
X11629000Y-22516001D01*
X11635000Y-22513001D01*
X11641000Y-22511001D01*
X11648000Y-22509001D01*
X11654000Y-22508001D01*
X11660000Y-22507001D01*
X11667000Y-22506001D01*
X11673000Y-22505001D01*
X11680000Y-22505001D01*
X11880000Y-22505001D01*
X11887000Y-22505001D01*
X11893000Y-22506001D01*
G37*
X11893000Y-24836001D02*
X11900000Y-24837001D01*
X11906000Y-24838001D01*
X11912000Y-24839001D01*
X11919000Y-24841001D01*
X11925000Y-24843001D01*
X11931000Y-24846001D01*
X11937000Y-24849001D01*
X11942000Y-24852001D01*
X11948000Y-24855001D01*
X11953000Y-24859001D01*
X11959000Y-24863001D01*
X11964000Y-24867001D01*
X11968000Y-24872001D01*
X11973000Y-24876001D01*
X11977000Y-24881001D01*
X11981000Y-24887001D01*
X11985000Y-24892001D01*
X11988000Y-24897001D01*
X11991000Y-24903001D01*
X11994000Y-24909001D01*
X11997000Y-24915001D01*
X11999000Y-24921001D01*
X12001000Y-24928001D01*
X12002000Y-24934001D01*
X12003000Y-24940001D01*
X12004000Y-24947001D01*
X12005000Y-24953001D01*
X12005000Y-24960001D01*
X12005000Y-25400001D01*
X12005000Y-25407001D01*
X12004000Y-25413001D01*
X12003000Y-25420001D01*
X12002000Y-25426001D01*
X12001000Y-25432001D01*
X11999000Y-25439001D01*
X11997000Y-25445001D01*
X11994000Y-25451001D01*
X11991000Y-25457001D01*
X11988000Y-25463001D01*
X11985000Y-25468001D01*
X11981000Y-25473001D01*
X11977000Y-25479001D01*
X11973000Y-25484001D01*
X11968000Y-25488001D01*
X11964000Y-25493001D01*
X11959000Y-25497001D01*
X11953000Y-25501001D01*
X11948000Y-25505001D01*
X11942000Y-25508001D01*
X11937000Y-25511001D01*
X11931000Y-25514001D01*
X11925000Y-25517001D01*
X11919000Y-25519001D01*
X11912000Y-25521001D01*
X11906000Y-25522001D01*
X11900000Y-25523001D01*
X11893000Y-25524001D01*
X11887000Y-25525001D01*
X11880000Y-25525001D01*
X11680000Y-25525001D01*
X11673000Y-25525001D01*
X11667000Y-25524001D01*
X11660000Y-25523001D01*
X11654000Y-25522001D01*
X11648000Y-25521001D01*
X11641000Y-25519001D01*
X11635000Y-25517001D01*
X11629000Y-25514001D01*
X11623000Y-25511001D01*
X11618000Y-25508001D01*
X11612000Y-25505001D01*
X11607000Y-25501001D01*
X11601000Y-25497001D01*
X11596000Y-25493001D01*
X11592000Y-25488001D01*
X11587000Y-25484001D01*
X11583000Y-25479001D01*
X11579000Y-25473001D01*
X11575000Y-25468001D01*
X11572000Y-25463001D01*
X11569000Y-25457001D01*
X11566000Y-25451001D01*
X11563000Y-25445001D01*
X11561000Y-25439001D01*
X11559000Y-25432001D01*
X11558000Y-25426001D01*
X11557000Y-25420001D01*
X11556000Y-25413001D01*
X11555000Y-25407001D01*
X11555000Y-25400001D01*
X11555000Y-24960001D01*
X11555000Y-24953001D01*
X11556000Y-24947001D01*
X11557000Y-24940001D01*
X11558000Y-24934001D01*
X11559000Y-24928001D01*
X11561000Y-24921001D01*
X11563000Y-24915001D01*
X11566000Y-24909001D01*
X11569000Y-24903001D01*
X11572000Y-24897001D01*
X11575000Y-24892001D01*
X11579000Y-24887001D01*
X11583000Y-24881001D01*
X11587000Y-24876001D01*
X11592000Y-24872001D01*
X11596000Y-24867001D01*
X11601000Y-24863001D01*
X11607000Y-24859001D01*
X11612000Y-24855001D01*
X11618000Y-24852001D01*
X11623000Y-24849001D01*
X11629000Y-24846001D01*
X11635000Y-24843001D01*
X11641000Y-24841001D01*
X11648000Y-24839001D01*
X11654000Y-24838001D01*
X11660000Y-24837001D01*
X11667000Y-24836001D01*
X11673000Y-24835001D01*
X11680000Y-24835001D01*
X11880000Y-24835001D01*
X11887000Y-24835001D01*
X11893000Y-24836001D01*
G36*
X11893000Y-24836001D02*
G01*
X11900000Y-24837001D01*
X11906000Y-24838001D01*
X11912000Y-24839001D01*
X11919000Y-24841001D01*
X11925000Y-24843001D01*
X11931000Y-24846001D01*
X11937000Y-24849001D01*
X11942000Y-24852001D01*
X11948000Y-24855001D01*
X11953000Y-24859001D01*
X11959000Y-24863001D01*
X11964000Y-24867001D01*
X11968000Y-24872001D01*
X11973000Y-24876001D01*
X11977000Y-24881001D01*
X11981000Y-24887001D01*
X11985000Y-24892001D01*
X11988000Y-24897001D01*
X11991000Y-24903001D01*
X11994000Y-24909001D01*
X11997000Y-24915001D01*
X11999000Y-24921001D01*
X12001000Y-24928001D01*
X12002000Y-24934001D01*
X12003000Y-24940001D01*
X12004000Y-24947001D01*
X12005000Y-24953001D01*
X12005000Y-24960001D01*
X12005000Y-25400001D01*
X12005000Y-25407001D01*
X12004000Y-25413001D01*
X12003000Y-25420001D01*
X12002000Y-25426001D01*
X12001000Y-25432001D01*
X11999000Y-25439001D01*
X11997000Y-25445001D01*
X11994000Y-25451001D01*
X11991000Y-25457001D01*
X11988000Y-25463001D01*
X11985000Y-25468001D01*
X11981000Y-25473001D01*
X11977000Y-25479001D01*
X11973000Y-25484001D01*
X11968000Y-25488001D01*
X11964000Y-25493001D01*
X11959000Y-25497001D01*
X11953000Y-25501001D01*
X11948000Y-25505001D01*
X11942000Y-25508001D01*
X11937000Y-25511001D01*
X11931000Y-25514001D01*
X11925000Y-25517001D01*
X11919000Y-25519001D01*
X11912000Y-25521001D01*
X11906000Y-25522001D01*
X11900000Y-25523001D01*
X11893000Y-25524001D01*
X11887000Y-25525001D01*
X11880000Y-25525001D01*
X11680000Y-25525001D01*
X11673000Y-25525001D01*
X11667000Y-25524001D01*
X11660000Y-25523001D01*
X11654000Y-25522001D01*
X11648000Y-25521001D01*
X11641000Y-25519001D01*
X11635000Y-25517001D01*
X11629000Y-25514001D01*
X11623000Y-25511001D01*
X11618000Y-25508001D01*
X11612000Y-25505001D01*
X11607000Y-25501001D01*
X11601000Y-25497001D01*
X11596000Y-25493001D01*
X11592000Y-25488001D01*
X11587000Y-25484001D01*
X11583000Y-25479001D01*
X11579000Y-25473001D01*
X11575000Y-25468001D01*
X11572000Y-25463001D01*
X11569000Y-25457001D01*
X11566000Y-25451001D01*
X11563000Y-25445001D01*
X11561000Y-25439001D01*
X11559000Y-25432001D01*
X11558000Y-25426001D01*
X11557000Y-25420001D01*
X11556000Y-25413001D01*
X11555000Y-25407001D01*
X11555000Y-25400001D01*
X11555000Y-24960001D01*
X11555000Y-24953001D01*
X11556000Y-24947001D01*
X11557000Y-24940001D01*
X11558000Y-24934001D01*
X11559000Y-24928001D01*
X11561000Y-24921001D01*
X11563000Y-24915001D01*
X11566000Y-24909001D01*
X11569000Y-24903001D01*
X11572000Y-24897001D01*
X11575000Y-24892001D01*
X11579000Y-24887001D01*
X11583000Y-24881001D01*
X11587000Y-24876001D01*
X11592000Y-24872001D01*
X11596000Y-24867001D01*
X11601000Y-24863001D01*
X11607000Y-24859001D01*
X11612000Y-24855001D01*
X11618000Y-24852001D01*
X11623000Y-24849001D01*
X11629000Y-24846001D01*
X11635000Y-24843001D01*
X11641000Y-24841001D01*
X11648000Y-24839001D01*
X11654000Y-24838001D01*
X11660000Y-24837001D01*
X11667000Y-24836001D01*
X11673000Y-24835001D01*
X11680000Y-24835001D01*
X11880000Y-24835001D01*
X11887000Y-24835001D01*
X11893000Y-24836001D01*
G37*
X12393000Y-22506001D02*
X12400000Y-22507001D01*
X12406000Y-22508001D01*
X12412000Y-22509001D01*
X12419000Y-22511001D01*
X12425000Y-22513001D01*
X12431000Y-22516001D01*
X12437000Y-22519001D01*
X12442000Y-22522001D01*
X12448000Y-22525001D01*
X12453000Y-22529001D01*
X12459000Y-22533001D01*
X12464000Y-22537001D01*
X12468000Y-22542001D01*
X12473000Y-22546001D01*
X12477000Y-22551001D01*
X12481000Y-22557001D01*
X12485000Y-22562001D01*
X12488000Y-22567001D01*
X12491000Y-22573001D01*
X12494000Y-22579001D01*
X12497000Y-22585001D01*
X12499000Y-22591001D01*
X12501000Y-22598001D01*
X12502000Y-22604001D01*
X12503000Y-22610001D01*
X12504000Y-22617001D01*
X12505000Y-22623001D01*
X12505000Y-22630001D01*
X12505000Y-23070001D01*
X12505000Y-23077001D01*
X12504000Y-23083001D01*
X12503000Y-23090001D01*
X12502000Y-23096001D01*
X12501000Y-23102001D01*
X12499000Y-23109001D01*
X12497000Y-23115001D01*
X12494000Y-23121001D01*
X12491000Y-23127001D01*
X12488000Y-23133001D01*
X12485000Y-23138001D01*
X12481000Y-23143001D01*
X12477000Y-23149001D01*
X12473000Y-23154001D01*
X12468000Y-23158001D01*
X12464000Y-23163001D01*
X12459000Y-23167001D01*
X12453000Y-23171001D01*
X12448000Y-23175001D01*
X12442000Y-23178001D01*
X12437000Y-23181001D01*
X12431000Y-23184001D01*
X12425000Y-23187001D01*
X12419000Y-23189001D01*
X12412000Y-23191001D01*
X12406000Y-23192001D01*
X12400000Y-23193001D01*
X12393000Y-23194001D01*
X12387000Y-23195001D01*
X12380000Y-23195001D01*
X12180000Y-23195001D01*
X12173000Y-23195001D01*
X12167000Y-23194001D01*
X12160000Y-23193001D01*
X12154000Y-23192001D01*
X12148000Y-23191001D01*
X12141000Y-23189001D01*
X12135000Y-23187001D01*
X12129000Y-23184001D01*
X12123000Y-23181001D01*
X12118000Y-23178001D01*
X12112000Y-23175001D01*
X12107000Y-23171001D01*
X12101000Y-23167001D01*
X12096000Y-23163001D01*
X12092000Y-23158001D01*
X12087000Y-23154001D01*
X12083000Y-23149001D01*
X12079000Y-23143001D01*
X12075000Y-23138001D01*
X12072000Y-23133001D01*
X12069000Y-23127001D01*
X12066000Y-23121001D01*
X12063000Y-23115001D01*
X12061000Y-23109001D01*
X12059000Y-23102001D01*
X12058000Y-23096001D01*
X12057000Y-23090001D01*
X12056000Y-23083001D01*
X12055000Y-23077001D01*
X12055000Y-23070001D01*
X12055000Y-22630001D01*
X12055000Y-22623001D01*
X12056000Y-22617001D01*
X12057000Y-22610001D01*
X12058000Y-22604001D01*
X12059000Y-22598001D01*
X12061000Y-22591001D01*
X12063000Y-22585001D01*
X12066000Y-22579001D01*
X12069000Y-22573001D01*
X12072000Y-22567001D01*
X12075000Y-22562001D01*
X12079000Y-22557001D01*
X12083000Y-22551001D01*
X12087000Y-22546001D01*
X12092000Y-22542001D01*
X12096000Y-22537001D01*
X12101000Y-22533001D01*
X12107000Y-22529001D01*
X12112000Y-22525001D01*
X12118000Y-22522001D01*
X12123000Y-22519001D01*
X12129000Y-22516001D01*
X12135000Y-22513001D01*
X12141000Y-22511001D01*
X12148000Y-22509001D01*
X12154000Y-22508001D01*
X12160000Y-22507001D01*
X12167000Y-22506001D01*
X12173000Y-22505001D01*
X12180000Y-22505001D01*
X12380000Y-22505001D01*
X12387000Y-22505001D01*
X12393000Y-22506001D01*
G36*
X12393000Y-22506001D02*
G01*
X12400000Y-22507001D01*
X12406000Y-22508001D01*
X12412000Y-22509001D01*
X12419000Y-22511001D01*
X12425000Y-22513001D01*
X12431000Y-22516001D01*
X12437000Y-22519001D01*
X12442000Y-22522001D01*
X12448000Y-22525001D01*
X12453000Y-22529001D01*
X12459000Y-22533001D01*
X12464000Y-22537001D01*
X12468000Y-22542001D01*
X12473000Y-22546001D01*
X12477000Y-22551001D01*
X12481000Y-22557001D01*
X12485000Y-22562001D01*
X12488000Y-22567001D01*
X12491000Y-22573001D01*
X12494000Y-22579001D01*
X12497000Y-22585001D01*
X12499000Y-22591001D01*
X12501000Y-22598001D01*
X12502000Y-22604001D01*
X12503000Y-22610001D01*
X12504000Y-22617001D01*
X12505000Y-22623001D01*
X12505000Y-22630001D01*
X12505000Y-23070001D01*
X12505000Y-23077001D01*
X12504000Y-23083001D01*
X12503000Y-23090001D01*
X12502000Y-23096001D01*
X12501000Y-23102001D01*
X12499000Y-23109001D01*
X12497000Y-23115001D01*
X12494000Y-23121001D01*
X12491000Y-23127001D01*
X12488000Y-23133001D01*
X12485000Y-23138001D01*
X12481000Y-23143001D01*
X12477000Y-23149001D01*
X12473000Y-23154001D01*
X12468000Y-23158001D01*
X12464000Y-23163001D01*
X12459000Y-23167001D01*
X12453000Y-23171001D01*
X12448000Y-23175001D01*
X12442000Y-23178001D01*
X12437000Y-23181001D01*
X12431000Y-23184001D01*
X12425000Y-23187001D01*
X12419000Y-23189001D01*
X12412000Y-23191001D01*
X12406000Y-23192001D01*
X12400000Y-23193001D01*
X12393000Y-23194001D01*
X12387000Y-23195001D01*
X12380000Y-23195001D01*
X12180000Y-23195001D01*
X12173000Y-23195001D01*
X12167000Y-23194001D01*
X12160000Y-23193001D01*
X12154000Y-23192001D01*
X12148000Y-23191001D01*
X12141000Y-23189001D01*
X12135000Y-23187001D01*
X12129000Y-23184001D01*
X12123000Y-23181001D01*
X12118000Y-23178001D01*
X12112000Y-23175001D01*
X12107000Y-23171001D01*
X12101000Y-23167001D01*
X12096000Y-23163001D01*
X12092000Y-23158001D01*
X12087000Y-23154001D01*
X12083000Y-23149001D01*
X12079000Y-23143001D01*
X12075000Y-23138001D01*
X12072000Y-23133001D01*
X12069000Y-23127001D01*
X12066000Y-23121001D01*
X12063000Y-23115001D01*
X12061000Y-23109001D01*
X12059000Y-23102001D01*
X12058000Y-23096001D01*
X12057000Y-23090001D01*
X12056000Y-23083001D01*
X12055000Y-23077001D01*
X12055000Y-23070001D01*
X12055000Y-22630001D01*
X12055000Y-22623001D01*
X12056000Y-22617001D01*
X12057000Y-22610001D01*
X12058000Y-22604001D01*
X12059000Y-22598001D01*
X12061000Y-22591001D01*
X12063000Y-22585001D01*
X12066000Y-22579001D01*
X12069000Y-22573001D01*
X12072000Y-22567001D01*
X12075000Y-22562001D01*
X12079000Y-22557001D01*
X12083000Y-22551001D01*
X12087000Y-22546001D01*
X12092000Y-22542001D01*
X12096000Y-22537001D01*
X12101000Y-22533001D01*
X12107000Y-22529001D01*
X12112000Y-22525001D01*
X12118000Y-22522001D01*
X12123000Y-22519001D01*
X12129000Y-22516001D01*
X12135000Y-22513001D01*
X12141000Y-22511001D01*
X12148000Y-22509001D01*
X12154000Y-22508001D01*
X12160000Y-22507001D01*
X12167000Y-22506001D01*
X12173000Y-22505001D01*
X12180000Y-22505001D01*
X12380000Y-22505001D01*
X12387000Y-22505001D01*
X12393000Y-22506001D01*
G37*
X12393000Y-24836001D02*
X12400000Y-24837001D01*
X12406000Y-24838001D01*
X12412000Y-24839001D01*
X12419000Y-24841001D01*
X12425000Y-24843001D01*
X12431000Y-24846001D01*
X12437000Y-24849001D01*
X12442000Y-24852001D01*
X12448000Y-24855001D01*
X12453000Y-24859001D01*
X12459000Y-24863001D01*
X12464000Y-24867001D01*
X12468000Y-24872001D01*
X12473000Y-24876001D01*
X12477000Y-24881001D01*
X12481000Y-24887001D01*
X12485000Y-24892001D01*
X12488000Y-24897001D01*
X12491000Y-24903001D01*
X12494000Y-24909001D01*
X12497000Y-24915001D01*
X12499000Y-24921001D01*
X12501000Y-24928001D01*
X12502000Y-24934001D01*
X12503000Y-24940001D01*
X12504000Y-24947001D01*
X12505000Y-24953001D01*
X12505000Y-24960001D01*
X12505000Y-25400001D01*
X12505000Y-25407001D01*
X12504000Y-25413001D01*
X12503000Y-25420001D01*
X12502000Y-25426001D01*
X12501000Y-25432001D01*
X12499000Y-25439001D01*
X12497000Y-25445001D01*
X12494000Y-25451001D01*
X12491000Y-25457001D01*
X12488000Y-25463001D01*
X12485000Y-25468001D01*
X12481000Y-25473001D01*
X12477000Y-25479001D01*
X12473000Y-25484001D01*
X12468000Y-25488001D01*
X12464000Y-25493001D01*
X12459000Y-25497001D01*
X12453000Y-25501001D01*
X12448000Y-25505001D01*
X12442000Y-25508001D01*
X12437000Y-25511001D01*
X12431000Y-25514001D01*
X12425000Y-25517001D01*
X12419000Y-25519001D01*
X12412000Y-25521001D01*
X12406000Y-25522001D01*
X12400000Y-25523001D01*
X12393000Y-25524001D01*
X12387000Y-25525001D01*
X12380000Y-25525001D01*
X12180000Y-25525001D01*
X12173000Y-25525001D01*
X12167000Y-25524001D01*
X12160000Y-25523001D01*
X12154000Y-25522001D01*
X12148000Y-25521001D01*
X12141000Y-25519001D01*
X12135000Y-25517001D01*
X12129000Y-25514001D01*
X12123000Y-25511001D01*
X12118000Y-25508001D01*
X12112000Y-25505001D01*
X12107000Y-25501001D01*
X12101000Y-25497001D01*
X12096000Y-25493001D01*
X12092000Y-25488001D01*
X12087000Y-25484001D01*
X12083000Y-25479001D01*
X12079000Y-25473001D01*
X12075000Y-25468001D01*
X12072000Y-25463001D01*
X12069000Y-25457001D01*
X12066000Y-25451001D01*
X12063000Y-25445001D01*
X12061000Y-25439001D01*
X12059000Y-25432001D01*
X12058000Y-25426001D01*
X12057000Y-25420001D01*
X12056000Y-25413001D01*
X12055000Y-25407001D01*
X12055000Y-25400001D01*
X12055000Y-24960001D01*
X12055000Y-24953001D01*
X12056000Y-24947001D01*
X12057000Y-24940001D01*
X12058000Y-24934001D01*
X12059000Y-24928001D01*
X12061000Y-24921001D01*
X12063000Y-24915001D01*
X12066000Y-24909001D01*
X12069000Y-24903001D01*
X12072000Y-24897001D01*
X12075000Y-24892001D01*
X12079000Y-24887001D01*
X12083000Y-24881001D01*
X12087000Y-24876001D01*
X12092000Y-24872001D01*
X12096000Y-24867001D01*
X12101000Y-24863001D01*
X12107000Y-24859001D01*
X12112000Y-24855001D01*
X12118000Y-24852001D01*
X12123000Y-24849001D01*
X12129000Y-24846001D01*
X12135000Y-24843001D01*
X12141000Y-24841001D01*
X12148000Y-24839001D01*
X12154000Y-24838001D01*
X12160000Y-24837001D01*
X12167000Y-24836001D01*
X12173000Y-24835001D01*
X12180000Y-24835001D01*
X12380000Y-24835001D01*
X12387000Y-24835001D01*
X12393000Y-24836001D01*
G36*
X12393000Y-24836001D02*
G01*
X12400000Y-24837001D01*
X12406000Y-24838001D01*
X12412000Y-24839001D01*
X12419000Y-24841001D01*
X12425000Y-24843001D01*
X12431000Y-24846001D01*
X12437000Y-24849001D01*
X12442000Y-24852001D01*
X12448000Y-24855001D01*
X12453000Y-24859001D01*
X12459000Y-24863001D01*
X12464000Y-24867001D01*
X12468000Y-24872001D01*
X12473000Y-24876001D01*
X12477000Y-24881001D01*
X12481000Y-24887001D01*
X12485000Y-24892001D01*
X12488000Y-24897001D01*
X12491000Y-24903001D01*
X12494000Y-24909001D01*
X12497000Y-24915001D01*
X12499000Y-24921001D01*
X12501000Y-24928001D01*
X12502000Y-24934001D01*
X12503000Y-24940001D01*
X12504000Y-24947001D01*
X12505000Y-24953001D01*
X12505000Y-24960001D01*
X12505000Y-25400001D01*
X12505000Y-25407001D01*
X12504000Y-25413001D01*
X12503000Y-25420001D01*
X12502000Y-25426001D01*
X12501000Y-25432001D01*
X12499000Y-25439001D01*
X12497000Y-25445001D01*
X12494000Y-25451001D01*
X12491000Y-25457001D01*
X12488000Y-25463001D01*
X12485000Y-25468001D01*
X12481000Y-25473001D01*
X12477000Y-25479001D01*
X12473000Y-25484001D01*
X12468000Y-25488001D01*
X12464000Y-25493001D01*
X12459000Y-25497001D01*
X12453000Y-25501001D01*
X12448000Y-25505001D01*
X12442000Y-25508001D01*
X12437000Y-25511001D01*
X12431000Y-25514001D01*
X12425000Y-25517001D01*
X12419000Y-25519001D01*
X12412000Y-25521001D01*
X12406000Y-25522001D01*
X12400000Y-25523001D01*
X12393000Y-25524001D01*
X12387000Y-25525001D01*
X12380000Y-25525001D01*
X12180000Y-25525001D01*
X12173000Y-25525001D01*
X12167000Y-25524001D01*
X12160000Y-25523001D01*
X12154000Y-25522001D01*
X12148000Y-25521001D01*
X12141000Y-25519001D01*
X12135000Y-25517001D01*
X12129000Y-25514001D01*
X12123000Y-25511001D01*
X12118000Y-25508001D01*
X12112000Y-25505001D01*
X12107000Y-25501001D01*
X12101000Y-25497001D01*
X12096000Y-25493001D01*
X12092000Y-25488001D01*
X12087000Y-25484001D01*
X12083000Y-25479001D01*
X12079000Y-25473001D01*
X12075000Y-25468001D01*
X12072000Y-25463001D01*
X12069000Y-25457001D01*
X12066000Y-25451001D01*
X12063000Y-25445001D01*
X12061000Y-25439001D01*
X12059000Y-25432001D01*
X12058000Y-25426001D01*
X12057000Y-25420001D01*
X12056000Y-25413001D01*
X12055000Y-25407001D01*
X12055000Y-25400001D01*
X12055000Y-24960001D01*
X12055000Y-24953001D01*
X12056000Y-24947001D01*
X12057000Y-24940001D01*
X12058000Y-24934001D01*
X12059000Y-24928001D01*
X12061000Y-24921001D01*
X12063000Y-24915001D01*
X12066000Y-24909001D01*
X12069000Y-24903001D01*
X12072000Y-24897001D01*
X12075000Y-24892001D01*
X12079000Y-24887001D01*
X12083000Y-24881001D01*
X12087000Y-24876001D01*
X12092000Y-24872001D01*
X12096000Y-24867001D01*
X12101000Y-24863001D01*
X12107000Y-24859001D01*
X12112000Y-24855001D01*
X12118000Y-24852001D01*
X12123000Y-24849001D01*
X12129000Y-24846001D01*
X12135000Y-24843001D01*
X12141000Y-24841001D01*
X12148000Y-24839001D01*
X12154000Y-24838001D01*
X12160000Y-24837001D01*
X12167000Y-24836001D01*
X12173000Y-24835001D01*
X12180000Y-24835001D01*
X12380000Y-24835001D01*
X12387000Y-24835001D01*
X12393000Y-24836001D01*
G37*
X12893000Y-22506001D02*
X12900000Y-22507001D01*
X12906000Y-22508001D01*
X12912000Y-22509001D01*
X12919000Y-22511001D01*
X12925000Y-22513001D01*
X12931000Y-22516001D01*
X12937000Y-22519001D01*
X12942000Y-22522001D01*
X12948000Y-22525001D01*
X12953000Y-22529001D01*
X12959000Y-22533001D01*
X12964000Y-22537001D01*
X12968000Y-22542001D01*
X12973000Y-22546001D01*
X12977000Y-22551001D01*
X12981000Y-22557001D01*
X12985000Y-22562001D01*
X12988000Y-22567001D01*
X12991000Y-22573001D01*
X12994000Y-22579001D01*
X12997000Y-22585001D01*
X12999000Y-22591001D01*
X13001000Y-22598001D01*
X13002000Y-22604001D01*
X13003000Y-22610001D01*
X13004000Y-22617001D01*
X13005000Y-22623001D01*
X13005000Y-22630001D01*
X13005000Y-23070001D01*
X13005000Y-23077001D01*
X13004000Y-23083001D01*
X13003000Y-23090001D01*
X13002000Y-23096001D01*
X13001000Y-23102001D01*
X12999000Y-23109001D01*
X12997000Y-23115001D01*
X12994000Y-23121001D01*
X12991000Y-23127001D01*
X12988000Y-23133001D01*
X12985000Y-23138001D01*
X12981000Y-23143001D01*
X12977000Y-23149001D01*
X12973000Y-23154001D01*
X12968000Y-23158001D01*
X12964000Y-23163001D01*
X12959000Y-23167001D01*
X12953000Y-23171001D01*
X12948000Y-23175001D01*
X12942000Y-23178001D01*
X12937000Y-23181001D01*
X12931000Y-23184001D01*
X12925000Y-23187001D01*
X12919000Y-23189001D01*
X12912000Y-23191001D01*
X12906000Y-23192001D01*
X12900000Y-23193001D01*
X12893000Y-23194001D01*
X12887000Y-23195001D01*
X12880000Y-23195001D01*
X12680000Y-23195001D01*
X12673000Y-23195001D01*
X12667000Y-23194001D01*
X12660000Y-23193001D01*
X12654000Y-23192001D01*
X12648000Y-23191001D01*
X12641000Y-23189001D01*
X12635000Y-23187001D01*
X12629000Y-23184001D01*
X12623000Y-23181001D01*
X12618000Y-23178001D01*
X12612000Y-23175001D01*
X12607000Y-23171001D01*
X12601000Y-23167001D01*
X12596000Y-23163001D01*
X12592000Y-23158001D01*
X12587000Y-23154001D01*
X12583000Y-23149001D01*
X12579000Y-23143001D01*
X12575000Y-23138001D01*
X12572000Y-23133001D01*
X12569000Y-23127001D01*
X12566000Y-23121001D01*
X12563000Y-23115001D01*
X12561000Y-23109001D01*
X12559000Y-23102001D01*
X12558000Y-23096001D01*
X12557000Y-23090001D01*
X12556000Y-23083001D01*
X12555000Y-23077001D01*
X12555000Y-23070001D01*
X12555000Y-22630001D01*
X12555000Y-22623001D01*
X12556000Y-22617001D01*
X12557000Y-22610001D01*
X12558000Y-22604001D01*
X12559000Y-22598001D01*
X12561000Y-22591001D01*
X12563000Y-22585001D01*
X12566000Y-22579001D01*
X12569000Y-22573001D01*
X12572000Y-22567001D01*
X12575000Y-22562001D01*
X12579000Y-22557001D01*
X12583000Y-22551001D01*
X12587000Y-22546001D01*
X12592000Y-22542001D01*
X12596000Y-22537001D01*
X12601000Y-22533001D01*
X12607000Y-22529001D01*
X12612000Y-22525001D01*
X12618000Y-22522001D01*
X12623000Y-22519001D01*
X12629000Y-22516001D01*
X12635000Y-22513001D01*
X12641000Y-22511001D01*
X12648000Y-22509001D01*
X12654000Y-22508001D01*
X12660000Y-22507001D01*
X12667000Y-22506001D01*
X12673000Y-22505001D01*
X12680000Y-22505001D01*
X12880000Y-22505001D01*
X12887000Y-22505001D01*
X12893000Y-22506001D01*
G36*
X12893000Y-22506001D02*
G01*
X12900000Y-22507001D01*
X12906000Y-22508001D01*
X12912000Y-22509001D01*
X12919000Y-22511001D01*
X12925000Y-22513001D01*
X12931000Y-22516001D01*
X12937000Y-22519001D01*
X12942000Y-22522001D01*
X12948000Y-22525001D01*
X12953000Y-22529001D01*
X12959000Y-22533001D01*
X12964000Y-22537001D01*
X12968000Y-22542001D01*
X12973000Y-22546001D01*
X12977000Y-22551001D01*
X12981000Y-22557001D01*
X12985000Y-22562001D01*
X12988000Y-22567001D01*
X12991000Y-22573001D01*
X12994000Y-22579001D01*
X12997000Y-22585001D01*
X12999000Y-22591001D01*
X13001000Y-22598001D01*
X13002000Y-22604001D01*
X13003000Y-22610001D01*
X13004000Y-22617001D01*
X13005000Y-22623001D01*
X13005000Y-22630001D01*
X13005000Y-23070001D01*
X13005000Y-23077001D01*
X13004000Y-23083001D01*
X13003000Y-23090001D01*
X13002000Y-23096001D01*
X13001000Y-23102001D01*
X12999000Y-23109001D01*
X12997000Y-23115001D01*
X12994000Y-23121001D01*
X12991000Y-23127001D01*
X12988000Y-23133001D01*
X12985000Y-23138001D01*
X12981000Y-23143001D01*
X12977000Y-23149001D01*
X12973000Y-23154001D01*
X12968000Y-23158001D01*
X12964000Y-23163001D01*
X12959000Y-23167001D01*
X12953000Y-23171001D01*
X12948000Y-23175001D01*
X12942000Y-23178001D01*
X12937000Y-23181001D01*
X12931000Y-23184001D01*
X12925000Y-23187001D01*
X12919000Y-23189001D01*
X12912000Y-23191001D01*
X12906000Y-23192001D01*
X12900000Y-23193001D01*
X12893000Y-23194001D01*
X12887000Y-23195001D01*
X12880000Y-23195001D01*
X12680000Y-23195001D01*
X12673000Y-23195001D01*
X12667000Y-23194001D01*
X12660000Y-23193001D01*
X12654000Y-23192001D01*
X12648000Y-23191001D01*
X12641000Y-23189001D01*
X12635000Y-23187001D01*
X12629000Y-23184001D01*
X12623000Y-23181001D01*
X12618000Y-23178001D01*
X12612000Y-23175001D01*
X12607000Y-23171001D01*
X12601000Y-23167001D01*
X12596000Y-23163001D01*
X12592000Y-23158001D01*
X12587000Y-23154001D01*
X12583000Y-23149001D01*
X12579000Y-23143001D01*
X12575000Y-23138001D01*
X12572000Y-23133001D01*
X12569000Y-23127001D01*
X12566000Y-23121001D01*
X12563000Y-23115001D01*
X12561000Y-23109001D01*
X12559000Y-23102001D01*
X12558000Y-23096001D01*
X12557000Y-23090001D01*
X12556000Y-23083001D01*
X12555000Y-23077001D01*
X12555000Y-23070001D01*
X12555000Y-22630001D01*
X12555000Y-22623001D01*
X12556000Y-22617001D01*
X12557000Y-22610001D01*
X12558000Y-22604001D01*
X12559000Y-22598001D01*
X12561000Y-22591001D01*
X12563000Y-22585001D01*
X12566000Y-22579001D01*
X12569000Y-22573001D01*
X12572000Y-22567001D01*
X12575000Y-22562001D01*
X12579000Y-22557001D01*
X12583000Y-22551001D01*
X12587000Y-22546001D01*
X12592000Y-22542001D01*
X12596000Y-22537001D01*
X12601000Y-22533001D01*
X12607000Y-22529001D01*
X12612000Y-22525001D01*
X12618000Y-22522001D01*
X12623000Y-22519001D01*
X12629000Y-22516001D01*
X12635000Y-22513001D01*
X12641000Y-22511001D01*
X12648000Y-22509001D01*
X12654000Y-22508001D01*
X12660000Y-22507001D01*
X12667000Y-22506001D01*
X12673000Y-22505001D01*
X12680000Y-22505001D01*
X12880000Y-22505001D01*
X12887000Y-22505001D01*
X12893000Y-22506001D01*
G37*
X12893000Y-24836001D02*
X12900000Y-24837001D01*
X12906000Y-24838001D01*
X12912000Y-24839001D01*
X12919000Y-24841001D01*
X12925000Y-24843001D01*
X12931000Y-24846001D01*
X12937000Y-24849001D01*
X12942000Y-24852001D01*
X12948000Y-24855001D01*
X12953000Y-24859001D01*
X12959000Y-24863001D01*
X12964000Y-24867001D01*
X12968000Y-24872001D01*
X12973000Y-24876001D01*
X12977000Y-24881001D01*
X12981000Y-24887001D01*
X12985000Y-24892001D01*
X12988000Y-24897001D01*
X12991000Y-24903001D01*
X12994000Y-24909001D01*
X12997000Y-24915001D01*
X12999000Y-24921001D01*
X13001000Y-24928001D01*
X13002000Y-24934001D01*
X13003000Y-24940001D01*
X13004000Y-24947001D01*
X13005000Y-24953001D01*
X13005000Y-24960001D01*
X13005000Y-25400001D01*
X13005000Y-25407001D01*
X13004000Y-25413001D01*
X13003000Y-25420001D01*
X13002000Y-25426001D01*
X13001000Y-25432001D01*
X12999000Y-25439001D01*
X12997000Y-25445001D01*
X12994000Y-25451001D01*
X12991000Y-25457001D01*
X12988000Y-25463001D01*
X12985000Y-25468001D01*
X12981000Y-25473001D01*
X12977000Y-25479001D01*
X12973000Y-25484001D01*
X12968000Y-25488001D01*
X12964000Y-25493001D01*
X12959000Y-25497001D01*
X12953000Y-25501001D01*
X12948000Y-25505001D01*
X12942000Y-25508001D01*
X12937000Y-25511001D01*
X12931000Y-25514001D01*
X12925000Y-25517001D01*
X12919000Y-25519001D01*
X12912000Y-25521001D01*
X12906000Y-25522001D01*
X12900000Y-25523001D01*
X12893000Y-25524001D01*
X12887000Y-25525001D01*
X12880000Y-25525001D01*
X12680000Y-25525001D01*
X12673000Y-25525001D01*
X12667000Y-25524001D01*
X12660000Y-25523001D01*
X12654000Y-25522001D01*
X12648000Y-25521001D01*
X12641000Y-25519001D01*
X12635000Y-25517001D01*
X12629000Y-25514001D01*
X12623000Y-25511001D01*
X12618000Y-25508001D01*
X12612000Y-25505001D01*
X12607000Y-25501001D01*
X12601000Y-25497001D01*
X12596000Y-25493001D01*
X12592000Y-25488001D01*
X12587000Y-25484001D01*
X12583000Y-25479001D01*
X12579000Y-25473001D01*
X12575000Y-25468001D01*
X12572000Y-25463001D01*
X12569000Y-25457001D01*
X12566000Y-25451001D01*
X12563000Y-25445001D01*
X12561000Y-25439001D01*
X12559000Y-25432001D01*
X12558000Y-25426001D01*
X12557000Y-25420001D01*
X12556000Y-25413001D01*
X12555000Y-25407001D01*
X12555000Y-25400001D01*
X12555000Y-24960001D01*
X12555000Y-24953001D01*
X12556000Y-24947001D01*
X12557000Y-24940001D01*
X12558000Y-24934001D01*
X12559000Y-24928001D01*
X12561000Y-24921001D01*
X12563000Y-24915001D01*
X12566000Y-24909001D01*
X12569000Y-24903001D01*
X12572000Y-24897001D01*
X12575000Y-24892001D01*
X12579000Y-24887001D01*
X12583000Y-24881001D01*
X12587000Y-24876001D01*
X12592000Y-24872001D01*
X12596000Y-24867001D01*
X12601000Y-24863001D01*
X12607000Y-24859001D01*
X12612000Y-24855001D01*
X12618000Y-24852001D01*
X12623000Y-24849001D01*
X12629000Y-24846001D01*
X12635000Y-24843001D01*
X12641000Y-24841001D01*
X12648000Y-24839001D01*
X12654000Y-24838001D01*
X12660000Y-24837001D01*
X12667000Y-24836001D01*
X12673000Y-24835001D01*
X12680000Y-24835001D01*
X12880000Y-24835001D01*
X12887000Y-24835001D01*
X12893000Y-24836001D01*
G36*
X12893000Y-24836001D02*
G01*
X12900000Y-24837001D01*
X12906000Y-24838001D01*
X12912000Y-24839001D01*
X12919000Y-24841001D01*
X12925000Y-24843001D01*
X12931000Y-24846001D01*
X12937000Y-24849001D01*
X12942000Y-24852001D01*
X12948000Y-24855001D01*
X12953000Y-24859001D01*
X12959000Y-24863001D01*
X12964000Y-24867001D01*
X12968000Y-24872001D01*
X12973000Y-24876001D01*
X12977000Y-24881001D01*
X12981000Y-24887001D01*
X12985000Y-24892001D01*
X12988000Y-24897001D01*
X12991000Y-24903001D01*
X12994000Y-24909001D01*
X12997000Y-24915001D01*
X12999000Y-24921001D01*
X13001000Y-24928001D01*
X13002000Y-24934001D01*
X13003000Y-24940001D01*
X13004000Y-24947001D01*
X13005000Y-24953001D01*
X13005000Y-24960001D01*
X13005000Y-25400001D01*
X13005000Y-25407001D01*
X13004000Y-25413001D01*
X13003000Y-25420001D01*
X13002000Y-25426001D01*
X13001000Y-25432001D01*
X12999000Y-25439001D01*
X12997000Y-25445001D01*
X12994000Y-25451001D01*
X12991000Y-25457001D01*
X12988000Y-25463001D01*
X12985000Y-25468001D01*
X12981000Y-25473001D01*
X12977000Y-25479001D01*
X12973000Y-25484001D01*
X12968000Y-25488001D01*
X12964000Y-25493001D01*
X12959000Y-25497001D01*
X12953000Y-25501001D01*
X12948000Y-25505001D01*
X12942000Y-25508001D01*
X12937000Y-25511001D01*
X12931000Y-25514001D01*
X12925000Y-25517001D01*
X12919000Y-25519001D01*
X12912000Y-25521001D01*
X12906000Y-25522001D01*
X12900000Y-25523001D01*
X12893000Y-25524001D01*
X12887000Y-25525001D01*
X12880000Y-25525001D01*
X12680000Y-25525001D01*
X12673000Y-25525001D01*
X12667000Y-25524001D01*
X12660000Y-25523001D01*
X12654000Y-25522001D01*
X12648000Y-25521001D01*
X12641000Y-25519001D01*
X12635000Y-25517001D01*
X12629000Y-25514001D01*
X12623000Y-25511001D01*
X12618000Y-25508001D01*
X12612000Y-25505001D01*
X12607000Y-25501001D01*
X12601000Y-25497001D01*
X12596000Y-25493001D01*
X12592000Y-25488001D01*
X12587000Y-25484001D01*
X12583000Y-25479001D01*
X12579000Y-25473001D01*
X12575000Y-25468001D01*
X12572000Y-25463001D01*
X12569000Y-25457001D01*
X12566000Y-25451001D01*
X12563000Y-25445001D01*
X12561000Y-25439001D01*
X12559000Y-25432001D01*
X12558000Y-25426001D01*
X12557000Y-25420001D01*
X12556000Y-25413001D01*
X12555000Y-25407001D01*
X12555000Y-25400001D01*
X12555000Y-24960001D01*
X12555000Y-24953001D01*
X12556000Y-24947001D01*
X12557000Y-24940001D01*
X12558000Y-24934001D01*
X12559000Y-24928001D01*
X12561000Y-24921001D01*
X12563000Y-24915001D01*
X12566000Y-24909001D01*
X12569000Y-24903001D01*
X12572000Y-24897001D01*
X12575000Y-24892001D01*
X12579000Y-24887001D01*
X12583000Y-24881001D01*
X12587000Y-24876001D01*
X12592000Y-24872001D01*
X12596000Y-24867001D01*
X12601000Y-24863001D01*
X12607000Y-24859001D01*
X12612000Y-24855001D01*
X12618000Y-24852001D01*
X12623000Y-24849001D01*
X12629000Y-24846001D01*
X12635000Y-24843001D01*
X12641000Y-24841001D01*
X12648000Y-24839001D01*
X12654000Y-24838001D01*
X12660000Y-24837001D01*
X12667000Y-24836001D01*
X12673000Y-24835001D01*
X12680000Y-24835001D01*
X12880000Y-24835001D01*
X12887000Y-24835001D01*
X12893000Y-24836001D01*
G37*
X13178000Y-23291001D02*
X13185000Y-23292001D01*
X13191000Y-23293001D01*
X13197000Y-23294001D01*
X13204000Y-23296001D01*
X13210000Y-23298001D01*
X13216000Y-23301001D01*
X13222000Y-23304001D01*
X13228000Y-23307001D01*
X13233000Y-23310001D01*
X13238000Y-23314001D01*
X13244000Y-23318001D01*
X13249000Y-23322001D01*
X13253000Y-23327001D01*
X13258000Y-23331001D01*
X13262000Y-23336001D01*
X13266000Y-23342001D01*
X13270000Y-23347001D01*
X13273000Y-23353001D01*
X13276000Y-23358001D01*
X13279000Y-23364001D01*
X13282000Y-23370001D01*
X13284000Y-23376001D01*
X13286000Y-23383001D01*
X13287000Y-23389001D01*
X13288000Y-23395001D01*
X13289000Y-23402001D01*
X13290000Y-23408001D01*
X13290000Y-23415001D01*
X13290000Y-23615001D01*
X13290000Y-23622001D01*
X13289000Y-23628001D01*
X13288000Y-23635001D01*
X13287000Y-23641001D01*
X13286000Y-23647001D01*
X13284000Y-23654001D01*
X13282000Y-23660001D01*
X13279000Y-23666001D01*
X13276000Y-23672001D01*
X13273000Y-23677001D01*
X13270000Y-23683001D01*
X13266000Y-23688001D01*
X13262000Y-23694001D01*
X13258000Y-23699001D01*
X13253000Y-23703001D01*
X13249000Y-23708001D01*
X13244000Y-23712001D01*
X13238000Y-23716001D01*
X13233000Y-23720001D01*
X13228000Y-23723001D01*
X13222000Y-23726001D01*
X13216000Y-23729001D01*
X13210000Y-23732001D01*
X13204000Y-23734001D01*
X13197000Y-23736001D01*
X13191000Y-23737001D01*
X13185000Y-23738001D01*
X13178000Y-23739001D01*
X13172000Y-23740001D01*
X13165000Y-23740001D01*
X12725000Y-23740001D01*
X12718000Y-23740001D01*
X12712000Y-23739001D01*
X12705000Y-23738001D01*
X12699000Y-23737001D01*
X12693000Y-23736001D01*
X12686000Y-23734001D01*
X12680000Y-23732001D01*
X12674000Y-23729001D01*
X12668000Y-23726001D01*
X12662000Y-23723001D01*
X12657000Y-23720001D01*
X12652000Y-23716001D01*
X12646000Y-23712001D01*
X12641000Y-23708001D01*
X12637000Y-23703001D01*
X12632000Y-23699001D01*
X12628000Y-23694001D01*
X12624000Y-23688001D01*
X12620000Y-23683001D01*
X12617000Y-23677001D01*
X12614000Y-23672001D01*
X12611000Y-23666001D01*
X12608000Y-23660001D01*
X12606000Y-23654001D01*
X12604000Y-23647001D01*
X12603000Y-23641001D01*
X12602000Y-23635001D01*
X12601000Y-23628001D01*
X12600000Y-23622001D01*
X12600000Y-23615001D01*
X12600000Y-23415001D01*
X12600000Y-23408001D01*
X12601000Y-23402001D01*
X12602000Y-23395001D01*
X12603000Y-23389001D01*
X12604000Y-23383001D01*
X12606000Y-23376001D01*
X12608000Y-23370001D01*
X12611000Y-23364001D01*
X12614000Y-23358001D01*
X12617000Y-23352001D01*
X12620000Y-23347001D01*
X12624000Y-23342001D01*
X12628000Y-23336001D01*
X12632000Y-23331001D01*
X12637000Y-23327001D01*
X12641000Y-23322001D01*
X12646000Y-23318001D01*
X12652000Y-23314001D01*
X12657000Y-23310001D01*
X12662000Y-23307001D01*
X12668000Y-23304001D01*
X12674000Y-23301001D01*
X12680000Y-23298001D01*
X12686000Y-23296001D01*
X12693000Y-23294001D01*
X12699000Y-23293001D01*
X12705000Y-23292001D01*
X12712000Y-23291001D01*
X12718000Y-23290001D01*
X12725000Y-23290001D01*
X13165000Y-23290001D01*
X13172000Y-23290001D01*
X13178000Y-23291001D01*
G36*
X13178000Y-23291001D02*
G01*
X13185000Y-23292001D01*
X13191000Y-23293001D01*
X13197000Y-23294001D01*
X13204000Y-23296001D01*
X13210000Y-23298001D01*
X13216000Y-23301001D01*
X13222000Y-23304001D01*
X13228000Y-23307001D01*
X13233000Y-23310001D01*
X13238000Y-23314001D01*
X13244000Y-23318001D01*
X13249000Y-23322001D01*
X13253000Y-23327001D01*
X13258000Y-23331001D01*
X13262000Y-23336001D01*
X13266000Y-23342001D01*
X13270000Y-23347001D01*
X13273000Y-23353001D01*
X13276000Y-23358001D01*
X13279000Y-23364001D01*
X13282000Y-23370001D01*
X13284000Y-23376001D01*
X13286000Y-23383001D01*
X13287000Y-23389001D01*
X13288000Y-23395001D01*
X13289000Y-23402001D01*
X13290000Y-23408001D01*
X13290000Y-23415001D01*
X13290000Y-23615001D01*
X13290000Y-23622001D01*
X13289000Y-23628001D01*
X13288000Y-23635001D01*
X13287000Y-23641001D01*
X13286000Y-23647001D01*
X13284000Y-23654001D01*
X13282000Y-23660001D01*
X13279000Y-23666001D01*
X13276000Y-23672001D01*
X13273000Y-23677001D01*
X13270000Y-23683001D01*
X13266000Y-23688001D01*
X13262000Y-23694001D01*
X13258000Y-23699001D01*
X13253000Y-23703001D01*
X13249000Y-23708001D01*
X13244000Y-23712001D01*
X13238000Y-23716001D01*
X13233000Y-23720001D01*
X13228000Y-23723001D01*
X13222000Y-23726001D01*
X13216000Y-23729001D01*
X13210000Y-23732001D01*
X13204000Y-23734001D01*
X13197000Y-23736001D01*
X13191000Y-23737001D01*
X13185000Y-23738001D01*
X13178000Y-23739001D01*
X13172000Y-23740001D01*
X13165000Y-23740001D01*
X12725000Y-23740001D01*
X12718000Y-23740001D01*
X12712000Y-23739001D01*
X12705000Y-23738001D01*
X12699000Y-23737001D01*
X12693000Y-23736001D01*
X12686000Y-23734001D01*
X12680000Y-23732001D01*
X12674000Y-23729001D01*
X12668000Y-23726001D01*
X12662000Y-23723001D01*
X12657000Y-23720001D01*
X12652000Y-23716001D01*
X12646000Y-23712001D01*
X12641000Y-23708001D01*
X12637000Y-23703001D01*
X12632000Y-23699001D01*
X12628000Y-23694001D01*
X12624000Y-23688001D01*
X12620000Y-23683001D01*
X12617000Y-23677001D01*
X12614000Y-23672001D01*
X12611000Y-23666001D01*
X12608000Y-23660001D01*
X12606000Y-23654001D01*
X12604000Y-23647001D01*
X12603000Y-23641001D01*
X12602000Y-23635001D01*
X12601000Y-23628001D01*
X12600000Y-23622001D01*
X12600000Y-23615001D01*
X12600000Y-23415001D01*
X12600000Y-23408001D01*
X12601000Y-23402001D01*
X12602000Y-23395001D01*
X12603000Y-23389001D01*
X12604000Y-23383001D01*
X12606000Y-23376001D01*
X12608000Y-23370001D01*
X12611000Y-23364001D01*
X12614000Y-23358001D01*
X12617000Y-23352001D01*
X12620000Y-23347001D01*
X12624000Y-23342001D01*
X12628000Y-23336001D01*
X12632000Y-23331001D01*
X12637000Y-23327001D01*
X12641000Y-23322001D01*
X12646000Y-23318001D01*
X12652000Y-23314001D01*
X12657000Y-23310001D01*
X12662000Y-23307001D01*
X12668000Y-23304001D01*
X12674000Y-23301001D01*
X12680000Y-23298001D01*
X12686000Y-23296001D01*
X12693000Y-23294001D01*
X12699000Y-23293001D01*
X12705000Y-23292001D01*
X12712000Y-23291001D01*
X12718000Y-23290001D01*
X12725000Y-23290001D01*
X13165000Y-23290001D01*
X13172000Y-23290001D01*
X13178000Y-23291001D01*
G37*
X13178000Y-23791001D02*
X13185000Y-23792001D01*
X13191000Y-23793001D01*
X13197000Y-23794001D01*
X13204000Y-23796001D01*
X13210000Y-23798001D01*
X13216000Y-23801001D01*
X13222000Y-23804001D01*
X13228000Y-23807001D01*
X13233000Y-23810001D01*
X13238000Y-23814001D01*
X13244000Y-23818001D01*
X13249000Y-23822001D01*
X13253000Y-23827001D01*
X13258000Y-23831001D01*
X13262000Y-23836001D01*
X13266000Y-23842001D01*
X13270000Y-23847001D01*
X13273000Y-23853001D01*
X13276000Y-23858001D01*
X13279000Y-23864001D01*
X13282000Y-23870001D01*
X13284000Y-23876001D01*
X13286000Y-23883001D01*
X13287000Y-23889001D01*
X13288000Y-23895001D01*
X13289000Y-23902001D01*
X13290000Y-23908001D01*
X13290000Y-23915001D01*
X13290000Y-24115001D01*
X13290000Y-24122001D01*
X13289000Y-24128001D01*
X13288000Y-24135001D01*
X13287000Y-24141001D01*
X13286000Y-24147001D01*
X13284000Y-24154001D01*
X13282000Y-24160001D01*
X13279000Y-24166001D01*
X13276000Y-24172001D01*
X13273000Y-24178001D01*
X13270000Y-24183001D01*
X13266000Y-24188001D01*
X13262000Y-24194001D01*
X13258000Y-24199001D01*
X13253000Y-24203001D01*
X13249000Y-24208001D01*
X13244000Y-24212001D01*
X13238000Y-24216001D01*
X13233000Y-24220001D01*
X13228000Y-24223001D01*
X13222000Y-24226001D01*
X13216000Y-24229001D01*
X13210000Y-24232001D01*
X13204000Y-24234001D01*
X13197000Y-24236001D01*
X13191000Y-24237001D01*
X13185000Y-24238001D01*
X13178000Y-24239001D01*
X13172000Y-24240001D01*
X13165000Y-24240001D01*
X12725000Y-24240001D01*
X12718000Y-24240001D01*
X12712000Y-24239001D01*
X12705000Y-24238001D01*
X12699000Y-24237001D01*
X12693000Y-24236001D01*
X12686000Y-24234001D01*
X12680000Y-24232001D01*
X12674000Y-24229001D01*
X12668000Y-24226001D01*
X12662000Y-24223001D01*
X12657000Y-24220001D01*
X12652000Y-24216001D01*
X12646000Y-24212001D01*
X12641000Y-24208001D01*
X12637000Y-24203001D01*
X12632000Y-24199001D01*
X12628000Y-24194001D01*
X12624000Y-24188001D01*
X12620000Y-24183001D01*
X12617000Y-24178001D01*
X12614000Y-24172001D01*
X12611000Y-24166001D01*
X12608000Y-24160001D01*
X12606000Y-24154001D01*
X12604000Y-24147001D01*
X12603000Y-24141001D01*
X12602000Y-24135001D01*
X12601000Y-24128001D01*
X12600000Y-24122001D01*
X12600000Y-24115001D01*
X12600000Y-23915001D01*
X12600000Y-23908001D01*
X12601000Y-23902001D01*
X12602000Y-23895001D01*
X12603000Y-23889001D01*
X12604000Y-23883001D01*
X12606000Y-23876001D01*
X12608000Y-23870001D01*
X12611000Y-23864001D01*
X12614000Y-23858001D01*
X12617000Y-23852001D01*
X12620000Y-23847001D01*
X12624000Y-23842001D01*
X12628000Y-23836001D01*
X12632000Y-23831001D01*
X12637000Y-23827001D01*
X12641000Y-23822001D01*
X12646000Y-23818001D01*
X12652000Y-23814001D01*
X12657000Y-23810001D01*
X12662000Y-23807001D01*
X12668000Y-23804001D01*
X12674000Y-23801001D01*
X12680000Y-23798001D01*
X12686000Y-23796001D01*
X12693000Y-23794001D01*
X12699000Y-23793001D01*
X12705000Y-23792001D01*
X12712000Y-23791001D01*
X12718000Y-23790001D01*
X12725000Y-23790001D01*
X13165000Y-23790001D01*
X13172000Y-23790001D01*
X13178000Y-23791001D01*
G36*
X13178000Y-23791001D02*
G01*
X13185000Y-23792001D01*
X13191000Y-23793001D01*
X13197000Y-23794001D01*
X13204000Y-23796001D01*
X13210000Y-23798001D01*
X13216000Y-23801001D01*
X13222000Y-23804001D01*
X13228000Y-23807001D01*
X13233000Y-23810001D01*
X13238000Y-23814001D01*
X13244000Y-23818001D01*
X13249000Y-23822001D01*
X13253000Y-23827001D01*
X13258000Y-23831001D01*
X13262000Y-23836001D01*
X13266000Y-23842001D01*
X13270000Y-23847001D01*
X13273000Y-23853001D01*
X13276000Y-23858001D01*
X13279000Y-23864001D01*
X13282000Y-23870001D01*
X13284000Y-23876001D01*
X13286000Y-23883001D01*
X13287000Y-23889001D01*
X13288000Y-23895001D01*
X13289000Y-23902001D01*
X13290000Y-23908001D01*
X13290000Y-23915001D01*
X13290000Y-24115001D01*
X13290000Y-24122001D01*
X13289000Y-24128001D01*
X13288000Y-24135001D01*
X13287000Y-24141001D01*
X13286000Y-24147001D01*
X13284000Y-24154001D01*
X13282000Y-24160001D01*
X13279000Y-24166001D01*
X13276000Y-24172001D01*
X13273000Y-24178001D01*
X13270000Y-24183001D01*
X13266000Y-24188001D01*
X13262000Y-24194001D01*
X13258000Y-24199001D01*
X13253000Y-24203001D01*
X13249000Y-24208001D01*
X13244000Y-24212001D01*
X13238000Y-24216001D01*
X13233000Y-24220001D01*
X13228000Y-24223001D01*
X13222000Y-24226001D01*
X13216000Y-24229001D01*
X13210000Y-24232001D01*
X13204000Y-24234001D01*
X13197000Y-24236001D01*
X13191000Y-24237001D01*
X13185000Y-24238001D01*
X13178000Y-24239001D01*
X13172000Y-24240001D01*
X13165000Y-24240001D01*
X12725000Y-24240001D01*
X12718000Y-24240001D01*
X12712000Y-24239001D01*
X12705000Y-24238001D01*
X12699000Y-24237001D01*
X12693000Y-24236001D01*
X12686000Y-24234001D01*
X12680000Y-24232001D01*
X12674000Y-24229001D01*
X12668000Y-24226001D01*
X12662000Y-24223001D01*
X12657000Y-24220001D01*
X12652000Y-24216001D01*
X12646000Y-24212001D01*
X12641000Y-24208001D01*
X12637000Y-24203001D01*
X12632000Y-24199001D01*
X12628000Y-24194001D01*
X12624000Y-24188001D01*
X12620000Y-24183001D01*
X12617000Y-24178001D01*
X12614000Y-24172001D01*
X12611000Y-24166001D01*
X12608000Y-24160001D01*
X12606000Y-24154001D01*
X12604000Y-24147001D01*
X12603000Y-24141001D01*
X12602000Y-24135001D01*
X12601000Y-24128001D01*
X12600000Y-24122001D01*
X12600000Y-24115001D01*
X12600000Y-23915001D01*
X12600000Y-23908001D01*
X12601000Y-23902001D01*
X12602000Y-23895001D01*
X12603000Y-23889001D01*
X12604000Y-23883001D01*
X12606000Y-23876001D01*
X12608000Y-23870001D01*
X12611000Y-23864001D01*
X12614000Y-23858001D01*
X12617000Y-23852001D01*
X12620000Y-23847001D01*
X12624000Y-23842001D01*
X12628000Y-23836001D01*
X12632000Y-23831001D01*
X12637000Y-23827001D01*
X12641000Y-23822001D01*
X12646000Y-23818001D01*
X12652000Y-23814001D01*
X12657000Y-23810001D01*
X12662000Y-23807001D01*
X12668000Y-23804001D01*
X12674000Y-23801001D01*
X12680000Y-23798001D01*
X12686000Y-23796001D01*
X12693000Y-23794001D01*
X12699000Y-23793001D01*
X12705000Y-23792001D01*
X12712000Y-23791001D01*
X12718000Y-23790001D01*
X12725000Y-23790001D01*
X13165000Y-23790001D01*
X13172000Y-23790001D01*
X13178000Y-23791001D01*
G37*
X13178000Y-24291001D02*
X13185000Y-24292001D01*
X13191000Y-24293001D01*
X13197000Y-24294001D01*
X13204000Y-24296001D01*
X13210000Y-24298001D01*
X13216000Y-24301001D01*
X13222000Y-24304001D01*
X13228000Y-24307001D01*
X13233000Y-24310001D01*
X13238000Y-24314001D01*
X13244000Y-24318001D01*
X13249000Y-24322001D01*
X13253000Y-24327001D01*
X13258000Y-24331001D01*
X13262000Y-24336001D01*
X13266000Y-24342001D01*
X13270000Y-24347001D01*
X13273000Y-24353001D01*
X13276000Y-24358001D01*
X13279000Y-24364001D01*
X13282000Y-24370001D01*
X13284000Y-24376001D01*
X13286000Y-24383001D01*
X13287000Y-24389001D01*
X13288000Y-24395001D01*
X13289000Y-24402001D01*
X13290000Y-24408001D01*
X13290000Y-24415001D01*
X13290000Y-24615001D01*
X13290000Y-24622001D01*
X13289000Y-24628001D01*
X13288000Y-24635001D01*
X13287000Y-24641001D01*
X13286000Y-24647001D01*
X13284000Y-24654001D01*
X13282000Y-24660001D01*
X13279000Y-24666001D01*
X13276000Y-24672001D01*
X13273000Y-24677001D01*
X13270000Y-24683001D01*
X13266000Y-24688001D01*
X13262000Y-24694001D01*
X13258000Y-24699001D01*
X13253000Y-24703001D01*
X13249000Y-24708001D01*
X13244000Y-24712001D01*
X13238000Y-24716001D01*
X13233000Y-24720001D01*
X13228000Y-24723001D01*
X13222000Y-24726001D01*
X13216000Y-24729001D01*
X13210000Y-24732001D01*
X13204000Y-24734001D01*
X13197000Y-24736001D01*
X13191000Y-24737001D01*
X13185000Y-24738001D01*
X13178000Y-24739001D01*
X13172000Y-24740001D01*
X13165000Y-24740001D01*
X12725000Y-24740001D01*
X12718000Y-24740001D01*
X12712000Y-24739001D01*
X12705000Y-24738001D01*
X12699000Y-24737001D01*
X12693000Y-24736001D01*
X12686000Y-24734001D01*
X12680000Y-24732001D01*
X12674000Y-24729001D01*
X12668000Y-24726001D01*
X12662000Y-24723001D01*
X12657000Y-24720001D01*
X12652000Y-24716001D01*
X12646000Y-24712001D01*
X12641000Y-24708001D01*
X12637000Y-24703001D01*
X12632000Y-24699001D01*
X12628000Y-24694001D01*
X12624000Y-24688001D01*
X12620000Y-24683001D01*
X12617000Y-24677001D01*
X12614000Y-24672001D01*
X12611000Y-24666001D01*
X12608000Y-24660001D01*
X12606000Y-24654001D01*
X12604000Y-24647001D01*
X12603000Y-24641001D01*
X12602000Y-24635001D01*
X12601000Y-24628001D01*
X12600000Y-24622001D01*
X12600000Y-24615001D01*
X12600000Y-24415001D01*
X12600000Y-24408001D01*
X12601000Y-24402001D01*
X12602000Y-24395001D01*
X12603000Y-24389001D01*
X12604000Y-24383001D01*
X12606000Y-24376001D01*
X12608000Y-24370001D01*
X12611000Y-24364001D01*
X12614000Y-24358001D01*
X12617000Y-24352001D01*
X12620000Y-24347001D01*
X12624000Y-24342001D01*
X12628000Y-24336001D01*
X12632000Y-24331001D01*
X12637000Y-24327001D01*
X12641000Y-24322001D01*
X12646000Y-24318001D01*
X12652000Y-24314001D01*
X12657000Y-24310001D01*
X12662000Y-24307001D01*
X12668000Y-24304001D01*
X12674000Y-24301001D01*
X12680000Y-24298001D01*
X12686000Y-24296001D01*
X12693000Y-24294001D01*
X12699000Y-24293001D01*
X12705000Y-24292001D01*
X12712000Y-24291001D01*
X12718000Y-24290001D01*
X12725000Y-24290001D01*
X13165000Y-24290001D01*
X13172000Y-24290001D01*
X13178000Y-24291001D01*
G36*
X13178000Y-24291001D02*
G01*
X13185000Y-24292001D01*
X13191000Y-24293001D01*
X13197000Y-24294001D01*
X13204000Y-24296001D01*
X13210000Y-24298001D01*
X13216000Y-24301001D01*
X13222000Y-24304001D01*
X13228000Y-24307001D01*
X13233000Y-24310001D01*
X13238000Y-24314001D01*
X13244000Y-24318001D01*
X13249000Y-24322001D01*
X13253000Y-24327001D01*
X13258000Y-24331001D01*
X13262000Y-24336001D01*
X13266000Y-24342001D01*
X13270000Y-24347001D01*
X13273000Y-24353001D01*
X13276000Y-24358001D01*
X13279000Y-24364001D01*
X13282000Y-24370001D01*
X13284000Y-24376001D01*
X13286000Y-24383001D01*
X13287000Y-24389001D01*
X13288000Y-24395001D01*
X13289000Y-24402001D01*
X13290000Y-24408001D01*
X13290000Y-24415001D01*
X13290000Y-24615001D01*
X13290000Y-24622001D01*
X13289000Y-24628001D01*
X13288000Y-24635001D01*
X13287000Y-24641001D01*
X13286000Y-24647001D01*
X13284000Y-24654001D01*
X13282000Y-24660001D01*
X13279000Y-24666001D01*
X13276000Y-24672001D01*
X13273000Y-24677001D01*
X13270000Y-24683001D01*
X13266000Y-24688001D01*
X13262000Y-24694001D01*
X13258000Y-24699001D01*
X13253000Y-24703001D01*
X13249000Y-24708001D01*
X13244000Y-24712001D01*
X13238000Y-24716001D01*
X13233000Y-24720001D01*
X13228000Y-24723001D01*
X13222000Y-24726001D01*
X13216000Y-24729001D01*
X13210000Y-24732001D01*
X13204000Y-24734001D01*
X13197000Y-24736001D01*
X13191000Y-24737001D01*
X13185000Y-24738001D01*
X13178000Y-24739001D01*
X13172000Y-24740001D01*
X13165000Y-24740001D01*
X12725000Y-24740001D01*
X12718000Y-24740001D01*
X12712000Y-24739001D01*
X12705000Y-24738001D01*
X12699000Y-24737001D01*
X12693000Y-24736001D01*
X12686000Y-24734001D01*
X12680000Y-24732001D01*
X12674000Y-24729001D01*
X12668000Y-24726001D01*
X12662000Y-24723001D01*
X12657000Y-24720001D01*
X12652000Y-24716001D01*
X12646000Y-24712001D01*
X12641000Y-24708001D01*
X12637000Y-24703001D01*
X12632000Y-24699001D01*
X12628000Y-24694001D01*
X12624000Y-24688001D01*
X12620000Y-24683001D01*
X12617000Y-24677001D01*
X12614000Y-24672001D01*
X12611000Y-24666001D01*
X12608000Y-24660001D01*
X12606000Y-24654001D01*
X12604000Y-24647001D01*
X12603000Y-24641001D01*
X12602000Y-24635001D01*
X12601000Y-24628001D01*
X12600000Y-24622001D01*
X12600000Y-24615001D01*
X12600000Y-24415001D01*
X12600000Y-24408001D01*
X12601000Y-24402001D01*
X12602000Y-24395001D01*
X12603000Y-24389001D01*
X12604000Y-24383001D01*
X12606000Y-24376001D01*
X12608000Y-24370001D01*
X12611000Y-24364001D01*
X12614000Y-24358001D01*
X12617000Y-24352001D01*
X12620000Y-24347001D01*
X12624000Y-24342001D01*
X12628000Y-24336001D01*
X12632000Y-24331001D01*
X12637000Y-24327001D01*
X12641000Y-24322001D01*
X12646000Y-24318001D01*
X12652000Y-24314001D01*
X12657000Y-24310001D01*
X12662000Y-24307001D01*
X12668000Y-24304001D01*
X12674000Y-24301001D01*
X12680000Y-24298001D01*
X12686000Y-24296001D01*
X12693000Y-24294001D01*
X12699000Y-24293001D01*
X12705000Y-24292001D01*
X12712000Y-24291001D01*
X12718000Y-24290001D01*
X12725000Y-24290001D01*
X13165000Y-24290001D01*
X13172000Y-24290001D01*
X13178000Y-24291001D01*
G37*
%TD*%
D11*
%TO.C,R8*%
X10600000Y-11452500D03*
X10600000Y-12472500D03*
%TD*%
D12*
%TO.C,TP3*%
X24800000Y-31100000D03*
%TD*%
D13*
%TO.C,C36*%
X23000000Y-9700000D03*
X23960000Y-9700000D03*
%TD*%
D14*
%TO.C,U6*%
X6700000Y-29900000D03*
%TD*%
%TO.C,U8*%
X11100000Y-29900000D03*
%TD*%
D15*
%TO.C,U19*%
X900000Y-12500000D03*
%TD*%
D13*
%TO.C,C5*%
X10140000Y-16400000D03*
X11100000Y-16400000D03*
%TD*%
D16*
%TO.C,R20*%
X24010000Y-10700000D03*
X22990000Y-10700000D03*
%TD*%
D17*
%TO.C,C1*%
X3500000Y-6710000D03*
X3500000Y-5750000D03*
%TD*%
D18*
%TO.C,C20*%
X7600000Y-20420000D03*
X7600000Y-21380000D03*
%TD*%
D19*
%TO.C,C17*%
X16600000Y-4100000D03*
X16600000Y-6000000D03*
%TD*%
D12*
%TO.C,TP4*%
X6700000Y-3900000D03*
%TD*%
D14*
%TO.C,U15*%
X11300000Y-900000D03*
%TD*%
D20*
%TO.C,U5*%
X8993504Y-19400000D03*
X8993504Y-20350001D03*
X8993504Y-21300002D03*
X11700000Y-21300002D03*
X11700000Y-19400000D03*
%TD*%
D21*
%TO.C,C19*%
X16600000Y-2450000D03*
X16600000Y-550000D03*
%TD*%
D16*
%TO.C,R11*%
X30600000Y-15900000D03*
X29580000Y-15900000D03*
%TD*%
D22*
%TO.C,IC1*%
X19460000Y-11900000D03*
X20110000Y-11900000D03*
X20760000Y-11900000D03*
X21410000Y-11900000D03*
X21410000Y-9500000D03*
X20760000Y-9500000D03*
X20110000Y-9500000D03*
X19460000Y-9500000D03*
%TD*%
D23*
%TO.C,C40*%
X27525000Y-9400000D03*
X29075000Y-9400000D03*
%TD*%
D24*
%TO.C,U24*%
X900000Y-25800000D03*
%TD*%
D25*
%TO.C,C42*%
X32175000Y-9400000D03*
X30625000Y-9400000D03*
%TD*%
D17*
%TO.C,C24*%
X19900000Y-27560000D03*
X19900000Y-26600000D03*
%TD*%
D14*
%TO.C,U7*%
X8900000Y-29900000D03*
%TD*%
D11*
%TO.C,R7*%
X10600000Y-9500000D03*
X10600000Y-10520000D03*
%TD*%
D25*
%TO.C,C34*%
X17375000Y-7900000D03*
X15825000Y-7900000D03*
%TD*%
D26*
%TO.C,JP1*%
X3300000Y-21600000D03*
D27*
X3300000Y-20300000D03*
%TD*%
D28*
%TO.C,R22*%
X8700000Y-17120000D03*
X8700000Y-16100000D03*
%TD*%
D29*
%TO.C,JP2*%
X32190000Y-7300000D03*
D30*
X30890000Y-7300000D03*
%TD*%
D13*
%TO.C,C29*%
X4020000Y-17300000D03*
X4980000Y-17300000D03*
%TD*%
D23*
%TO.C,C39*%
X18425000Y-6300000D03*
X19975000Y-6300000D03*
%TD*%
D16*
%TO.C,R23*%
X7700000Y-19400000D03*
X6680000Y-19400000D03*
%TD*%
D11*
%TO.C,R21*%
X28300000Y-13880000D03*
X28300000Y-14900000D03*
%TD*%
D17*
%TO.C,C10*%
X22500000Y-25360000D03*
X22500000Y-24400000D03*
%TD*%
D14*
%TO.C,U28*%
X17700000Y-33100000D03*
%TD*%
D12*
%TO.C,TP6*%
X8800000Y-3900000D03*
%TD*%
D28*
%TO.C,R2*%
X11800000Y-15120000D03*
X11800000Y-14100000D03*
%TD*%
D31*
%TO.C,U4*%
X3500000Y-10500000D03*
X4450000Y-10500000D03*
X5400000Y-10500000D03*
X5400000Y-8130000D03*
X3500000Y-8130000D03*
%TD*%
D14*
%TO.C,U31*%
X15500000Y-33100000D03*
%TD*%
D28*
%TO.C,R16*%
X20100000Y-14710000D03*
X20100000Y-13690000D03*
%TD*%
D32*
%TO.C,C33*%
X13500000Y-10900000D03*
X13500000Y-12450000D03*
%TD*%
D12*
%TO.C,TP2*%
X24300000Y-24000000D03*
%TD*%
D11*
%TO.C,R3*%
X12800000Y-14090000D03*
X12800000Y-15110000D03*
%TD*%
D33*
%TO.C,R12*%
X25759000Y-6800000D03*
D34*
X24929500Y-6800000D03*
X24429500Y-6800000D03*
D33*
X23600000Y-6800000D03*
X23600000Y-8070000D03*
D34*
X24429500Y-8070000D03*
X24929500Y-8070000D03*
D33*
X25759000Y-8070000D03*
%TD*%
D22*
%TO.C,IC2*%
X23700000Y-14900000D03*
X24350000Y-14900000D03*
X25000000Y-14900000D03*
X25650000Y-14900000D03*
X25650000Y-12500000D03*
X25000000Y-12500000D03*
X24350000Y-12500000D03*
X23700000Y-12500000D03*
%TD*%
D14*
%TO.C,U29*%
X11100000Y-33100000D03*
%TD*%
D18*
%TO.C,C21*%
X13100000Y-19500000D03*
X13100000Y-20460000D03*
%TD*%
D35*
%TO.C,J2*%
X26900000Y-4475000D03*
X25900000Y-4475000D03*
X24900000Y-4475000D03*
X23900000Y-4475000D03*
X22900000Y-4475000D03*
X21900000Y-4475000D03*
X20900000Y-4475000D03*
X19900000Y-4475000D03*
D36*
X28200000Y-600000D03*
X18600000Y-600000D03*
%TD*%
D17*
%TO.C,C3*%
X18300000Y-25880000D03*
X18300000Y-24920000D03*
%TD*%
D37*
%TO.C,H1*%
X1750000Y-32250000D03*
X32250000Y-32250000D03*
X1750000Y-1750000D03*
X32250000Y-1750000D03*
%TD*%
D28*
%TO.C,R4*%
X29300000Y-14920000D03*
X29300000Y-13900000D03*
%TD*%
D23*
%TO.C,C22*%
X12725000Y-7900000D03*
X14275000Y-7900000D03*
%TD*%
D38*
%TO.C,C28*%
X9980000Y-23000000D03*
X9020000Y-23000000D03*
%TD*%
D14*
%TO.C,U30*%
X13300000Y-33100000D03*
%TD*%
D12*
%TO.C,TP7*%
X8700000Y-6000000D03*
%TD*%
D13*
%TO.C,C11*%
X23420000Y-17800000D03*
X24380000Y-17800000D03*
%TD*%
D18*
%TO.C,C6*%
X13800000Y-14100000D03*
X13800000Y-15060000D03*
%TD*%
D11*
%TO.C,R19*%
X27300000Y-11790000D03*
X27300000Y-12810000D03*
%TD*%
D17*
%TO.C,C25*%
X20900000Y-27560000D03*
X20900000Y-26600000D03*
%TD*%
D39*
%TO.C,U11*%
X24500000Y-28000000D03*
X24850000Y-28000000D03*
X24500000Y-28350000D03*
X24850000Y-28350000D03*
%TD*%
D17*
%TO.C,C2*%
X2500000Y-6710000D03*
X2500000Y-5750000D03*
%TD*%
D40*
%TO.C,U3*%
X7550000Y-16300000D03*
X7550000Y-16950000D03*
X7550000Y-17600000D03*
X7550000Y-18250000D03*
X6100000Y-18250000D03*
X6100000Y-17600000D03*
X6100000Y-16950000D03*
X6100000Y-16300000D03*
%TD*%
D16*
%TO.C,R14*%
X5010000Y-18300000D03*
X3990000Y-18300000D03*
%TD*%
D32*
%TO.C,C32*%
X11900000Y-10900000D03*
X11900000Y-12450000D03*
%TD*%
D14*
%TO.C,U23*%
X13300000Y-29900000D03*
%TD*%
D38*
%TO.C,C8*%
X15900000Y-15500000D03*
X14940000Y-15500000D03*
%TD*%
D18*
%TO.C,C30*%
X4500000Y-12050000D03*
X4500000Y-13010000D03*
%TD*%
D14*
%TO.C,U9*%
X17700000Y-29900000D03*
%TD*%
D25*
%TO.C,C38*%
X29075000Y-7800000D03*
X27525000Y-7800000D03*
%TD*%
D13*
%TO.C,C35*%
X10520000Y-7500000D03*
X11480000Y-7500000D03*
%TD*%
D39*
%TO.C,U10*%
X8000000Y-11400000D03*
X7650000Y-11400000D03*
X8000000Y-11050000D03*
X7650000Y-11050000D03*
%TD*%
D14*
%TO.C,U17*%
X9100000Y-900000D03*
%TD*%
D11*
%TO.C,R6*%
X31300000Y-13900000D03*
X31300000Y-14920000D03*
%TD*%
%TO.C,R5*%
X30300000Y-13900000D03*
X30300000Y-14920000D03*
%TD*%
D14*
%TO.C,U26*%
X15500000Y-29900000D03*
%TD*%
D41*
%TO.C,L1*%
X15900000Y-10212500D03*
X15900000Y-13012500D03*
%TD*%
D12*
%TO.C,TP8*%
X9200000Y-13700000D03*
%TD*%
D24*
%TO.C,U22*%
X900000Y-23800000D03*
%TD*%
D13*
%TO.C,C41*%
X10540000Y-8500000D03*
X11500000Y-8500000D03*
%TD*%
D42*
%TO.C,R18*%
X18180000Y-13700000D03*
X19200000Y-13700000D03*
%TD*%
%TO.C,R15*%
X29190000Y-5500000D03*
X30210000Y-5500000D03*
%TD*%
D17*
%TO.C,C4*%
X17300000Y-25860000D03*
X17300000Y-24900000D03*
%TD*%
D14*
%TO.C,U16*%
X6900000Y-900000D03*
%TD*%
D43*
%TO.C,C16*%
X14650000Y-4000000D03*
X12750000Y-4000000D03*
%TD*%
D44*
%TO.C,U1*%
X15362500Y-17400000D03*
X15362500Y-17900000D03*
X15362500Y-18400000D03*
X15362500Y-18900000D03*
X15362500Y-19400000D03*
X15362500Y-19900000D03*
X15362500Y-20400000D03*
X15362500Y-20900000D03*
X15362500Y-21400000D03*
X15362500Y-21900000D03*
X15362500Y-22400000D03*
X15362500Y-22900000D03*
D45*
X16050000Y-23587500D03*
X16550000Y-23587500D03*
X17050000Y-23587500D03*
X17550000Y-23587500D03*
X18050000Y-23587500D03*
X18550000Y-23587500D03*
X19050000Y-23587500D03*
X19550000Y-23587500D03*
X20050000Y-23587500D03*
X20550000Y-23587500D03*
X21050000Y-23587500D03*
X21550000Y-23587500D03*
D44*
X22237500Y-22900000D03*
X22237500Y-22400000D03*
X22237500Y-21900000D03*
X22237500Y-21400000D03*
X22237500Y-20900000D03*
X22237500Y-20400000D03*
X22237500Y-19900000D03*
X22237500Y-19400000D03*
X22237500Y-18900000D03*
X22237500Y-18400000D03*
X22237500Y-17900000D03*
X22237500Y-17400000D03*
D45*
X21550000Y-16712500D03*
X21050000Y-16712500D03*
X20550000Y-16712500D03*
X20050000Y-16712500D03*
X19550000Y-16712500D03*
X19050000Y-16712500D03*
X18550000Y-16712500D03*
X18050000Y-16712500D03*
X17550000Y-16712500D03*
X17050000Y-16712500D03*
X16550000Y-16712500D03*
X16050000Y-16712500D03*
D46*
X18800000Y-20150000D03*
%TD*%
D24*
%TO.C,U25*%
X900000Y-27800000D03*
%TD*%
D13*
%TO.C,C27*%
X11240000Y-26300000D03*
X12200000Y-26300000D03*
%TD*%
D17*
%TO.C,C7*%
X5100000Y-21480000D03*
X5100000Y-20520000D03*
%TD*%
D42*
%TO.C,R9*%
X10090000Y-17400000D03*
X11110000Y-17400000D03*
%TD*%
D12*
%TO.C,TP1*%
X24000000Y-21900000D03*
%TD*%
D47*
%TO.C,L2*%
X29200000Y-11800000D03*
X32000000Y-11800000D03*
%TD*%
D48*
%TO.C,FL1*%
X21235000Y-25300000D03*
X19765000Y-25300000D03*
%TD*%
D11*
%TO.C,R17*%
X22100000Y-13700000D03*
X22100000Y-14720000D03*
%TD*%
D14*
%TO.C,U32*%
X8900000Y-33100000D03*
%TD*%
D49*
%TO.C,J1*%
X28020000Y-24470000D03*
X28020000Y-18690000D03*
D50*
X26945000Y-24780000D03*
X26945000Y-23980000D03*
D51*
X26945000Y-22830000D03*
X26945000Y-21830000D03*
X26945000Y-21330000D03*
X26945000Y-20330000D03*
D50*
X26945000Y-18380000D03*
X26945000Y-19180000D03*
D51*
X26945000Y-19830000D03*
X26945000Y-20830000D03*
X26945000Y-22330000D03*
X26945000Y-23330000D03*
D52*
X27520000Y-25900000D03*
X27520000Y-17260000D03*
D53*
X31700000Y-25900000D03*
X31700000Y-17260000D03*
%TD*%
D38*
%TO.C,C9*%
X15880000Y-14500000D03*
X14920000Y-14500000D03*
%TD*%
D14*
%TO.C,U14*%
X13500000Y-900000D03*
%TD*%
D42*
%TO.C,R10*%
X27500000Y-27200000D03*
X28520000Y-27200000D03*
%TD*%
D28*
%TO.C,R1*%
X10800000Y-15120000D03*
X10800000Y-14100000D03*
%TD*%
D38*
%TO.C,C26*%
X9960000Y-24000000D03*
X9000000Y-24000000D03*
%TD*%
D15*
%TO.C,U18*%
X900000Y-14700000D03*
%TD*%
D38*
%TO.C,C23*%
X19100000Y-14700000D03*
X18140000Y-14700000D03*
%TD*%
D54*
%TO.C,Y1*%
X12400000Y-17350000D03*
X13750000Y-17350000D03*
X13750000Y-16300000D03*
X12400000Y-16300000D03*
%TD*%
D18*
%TO.C,C37*%
X27300000Y-13900000D03*
X27300000Y-14860000D03*
%TD*%
D43*
%TO.C,C18*%
X14700000Y-6100000D03*
X12800000Y-6100000D03*
%TD*%
D12*
%TO.C,TP5*%
X6600000Y-6000000D03*
%TD*%
D18*
%TO.C,C31*%
X21100000Y-13720000D03*
X21100000Y-14680000D03*
%TD*%
D14*
%TO.C,U27*%
X6700000Y-33100000D03*
%TD*%
M02*
