%TF.GenerationSoftware,KiCad,Pcbnew,9.0.7-9.0.7~ubuntu24.04.1*%
%TF.CreationDate,2026-02-25T20:16:22+01:00*%
%TF.ProjectId,fcg4,66636734-2e6b-4696-9361-645f70636258,rev?*%
%TF.SameCoordinates,Original*%
%TF.FileFunction,Legend,Top*%
%TF.FilePolarity,Positive*%
%FSLAX46Y46*%
G04 Gerber Fmt 4.6, Leading zero omitted, Abs format (unit mm)*
G04 Created by KiCad (PCBNEW 9.0.7-9.0.7~ubuntu24.04.1) date 2026-02-25 20:16:22*
%MOMM*%
%LPD*%
G01*
G04 APERTURE LIST*
%ADD10C,0.125000*%
%ADD11C,0.200000*%
%ADD12C,0.120000*%
%ADD13C,0.127000*%
%ADD14C,0.300000*%
%ADD15C,0.152400*%
%ADD16C,0.152000*%
%ADD17C,0.250000*%
G04 APERTURE END LIST*
D10*
X32833333Y-26624809D02*
X32833333Y-26981952D01*
X32833333Y-26981952D02*
X32809524Y-27053380D01*
X32809524Y-27053380D02*
X32761905Y-27101000D01*
X32761905Y-27101000D02*
X32690476Y-27124809D01*
X32690476Y-27124809D02*
X32642857Y-27124809D01*
X33333333Y-27124809D02*
X33047619Y-27124809D01*
X33190476Y-27124809D02*
X33190476Y-26624809D01*
X33190476Y-26624809D02*
X33142857Y-26696238D01*
X33142857Y-26696238D02*
X33095238Y-26743857D01*
X33095238Y-26743857D02*
X33047619Y-26767666D01*
X28624809Y-3566666D02*
X28981952Y-3566666D01*
X28981952Y-3566666D02*
X29053380Y-3590475D01*
X29053380Y-3590475D02*
X29101000Y-3638094D01*
X29101000Y-3638094D02*
X29124809Y-3709523D01*
X29124809Y-3709523D02*
X29124809Y-3757142D01*
X28672428Y-3352380D02*
X28648619Y-3328571D01*
X28648619Y-3328571D02*
X28624809Y-3280952D01*
X28624809Y-3280952D02*
X28624809Y-3161904D01*
X28624809Y-3161904D02*
X28648619Y-3114285D01*
X28648619Y-3114285D02*
X28672428Y-3090476D01*
X28672428Y-3090476D02*
X28720047Y-3066666D01*
X28720047Y-3066666D02*
X28767666Y-3066666D01*
X28767666Y-3066666D02*
X28839095Y-3090476D01*
X28839095Y-3090476D02*
X29124809Y-3376190D01*
X29124809Y-3376190D02*
X29124809Y-3066666D01*
X14224809Y-23180952D02*
X14629571Y-23180952D01*
X14629571Y-23180952D02*
X14677190Y-23157142D01*
X14677190Y-23157142D02*
X14701000Y-23133333D01*
X14701000Y-23133333D02*
X14724809Y-23085714D01*
X14724809Y-23085714D02*
X14724809Y-22990476D01*
X14724809Y-22990476D02*
X14701000Y-22942857D01*
X14701000Y-22942857D02*
X14677190Y-22919047D01*
X14677190Y-22919047D02*
X14629571Y-22895238D01*
X14629571Y-22895238D02*
X14224809Y-22895238D01*
X14724809Y-22395237D02*
X14724809Y-22680951D01*
X14724809Y-22538094D02*
X14224809Y-22538094D01*
X14224809Y-22538094D02*
X14296238Y-22585713D01*
X14296238Y-22585713D02*
X14343857Y-22633332D01*
X14343857Y-22633332D02*
X14367666Y-22680951D01*
X1624809Y-9610952D02*
X2029571Y-9610952D01*
X2029571Y-9610952D02*
X2077190Y-9587142D01*
X2077190Y-9587142D02*
X2101000Y-9563333D01*
X2101000Y-9563333D02*
X2124809Y-9515714D01*
X2124809Y-9515714D02*
X2124809Y-9420476D01*
X2124809Y-9420476D02*
X2101000Y-9372857D01*
X2101000Y-9372857D02*
X2077190Y-9349047D01*
X2077190Y-9349047D02*
X2029571Y-9325238D01*
X2029571Y-9325238D02*
X1624809Y-9325238D01*
X1791476Y-8872856D02*
X2124809Y-8872856D01*
X1601000Y-8991904D02*
X1958142Y-9110951D01*
X1958142Y-9110951D02*
X1958142Y-8801428D01*
X11961905Y-18286714D02*
X11961905Y-18524809D01*
X11795239Y-18024809D02*
X11961905Y-18286714D01*
X11961905Y-18286714D02*
X12128572Y-18024809D01*
X12557143Y-18524809D02*
X12271429Y-18524809D01*
X12414286Y-18524809D02*
X12414286Y-18024809D01*
X12414286Y-18024809D02*
X12366667Y-18096238D01*
X12366667Y-18096238D02*
X12319048Y-18143857D01*
X12319048Y-18143857D02*
X12271429Y-18167666D01*
X24224809Y-32869047D02*
X23724809Y-32869047D01*
X23724809Y-32869047D02*
X23724809Y-32749999D01*
X23724809Y-32749999D02*
X23748619Y-32678571D01*
X23748619Y-32678571D02*
X23796238Y-32630952D01*
X23796238Y-32630952D02*
X23843857Y-32607142D01*
X23843857Y-32607142D02*
X23939095Y-32583333D01*
X23939095Y-32583333D02*
X24010523Y-32583333D01*
X24010523Y-32583333D02*
X24105761Y-32607142D01*
X24105761Y-32607142D02*
X24153380Y-32630952D01*
X24153380Y-32630952D02*
X24201000Y-32678571D01*
X24201000Y-32678571D02*
X24224809Y-32749999D01*
X24224809Y-32749999D02*
X24224809Y-32869047D01*
X23772428Y-32392856D02*
X23748619Y-32369047D01*
X23748619Y-32369047D02*
X23724809Y-32321428D01*
X23724809Y-32321428D02*
X23724809Y-32202380D01*
X23724809Y-32202380D02*
X23748619Y-32154761D01*
X23748619Y-32154761D02*
X23772428Y-32130952D01*
X23772428Y-32130952D02*
X23820047Y-32107142D01*
X23820047Y-32107142D02*
X23867666Y-32107142D01*
X23867666Y-32107142D02*
X23939095Y-32130952D01*
X23939095Y-32130952D02*
X24224809Y-32416666D01*
X24224809Y-32416666D02*
X24224809Y-32107142D01*
X6324809Y-9869047D02*
X5824809Y-9869047D01*
X5824809Y-9869047D02*
X5824809Y-9749999D01*
X5824809Y-9749999D02*
X5848619Y-9678571D01*
X5848619Y-9678571D02*
X5896238Y-9630952D01*
X5896238Y-9630952D02*
X5943857Y-9607142D01*
X5943857Y-9607142D02*
X6039095Y-9583333D01*
X6039095Y-9583333D02*
X6110523Y-9583333D01*
X6110523Y-9583333D02*
X6205761Y-9607142D01*
X6205761Y-9607142D02*
X6253380Y-9630952D01*
X6253380Y-9630952D02*
X6301000Y-9678571D01*
X6301000Y-9678571D02*
X6324809Y-9749999D01*
X6324809Y-9749999D02*
X6324809Y-9869047D01*
X6324809Y-9107142D02*
X6324809Y-9392856D01*
X6324809Y-9249999D02*
X5824809Y-9249999D01*
X5824809Y-9249999D02*
X5896238Y-9297618D01*
X5896238Y-9297618D02*
X5943857Y-9345237D01*
X5943857Y-9345237D02*
X5967666Y-9392856D01*
X10024809Y-12145833D02*
X9786714Y-12312499D01*
X10024809Y-12431547D02*
X9524809Y-12431547D01*
X9524809Y-12431547D02*
X9524809Y-12241071D01*
X9524809Y-12241071D02*
X9548619Y-12193452D01*
X9548619Y-12193452D02*
X9572428Y-12169642D01*
X9572428Y-12169642D02*
X9620047Y-12145833D01*
X9620047Y-12145833D02*
X9691476Y-12145833D01*
X9691476Y-12145833D02*
X9739095Y-12169642D01*
X9739095Y-12169642D02*
X9762904Y-12193452D01*
X9762904Y-12193452D02*
X9786714Y-12241071D01*
X9786714Y-12241071D02*
X9786714Y-12431547D01*
X9739095Y-11860118D02*
X9715285Y-11907737D01*
X9715285Y-11907737D02*
X9691476Y-11931547D01*
X9691476Y-11931547D02*
X9643857Y-11955356D01*
X9643857Y-11955356D02*
X9620047Y-11955356D01*
X9620047Y-11955356D02*
X9572428Y-11931547D01*
X9572428Y-11931547D02*
X9548619Y-11907737D01*
X9548619Y-11907737D02*
X9524809Y-11860118D01*
X9524809Y-11860118D02*
X9524809Y-11764880D01*
X9524809Y-11764880D02*
X9548619Y-11717261D01*
X9548619Y-11717261D02*
X9572428Y-11693452D01*
X9572428Y-11693452D02*
X9620047Y-11669642D01*
X9620047Y-11669642D02*
X9643857Y-11669642D01*
X9643857Y-11669642D02*
X9691476Y-11693452D01*
X9691476Y-11693452D02*
X9715285Y-11717261D01*
X9715285Y-11717261D02*
X9739095Y-11764880D01*
X9739095Y-11764880D02*
X9739095Y-11860118D01*
X9739095Y-11860118D02*
X9762904Y-11907737D01*
X9762904Y-11907737D02*
X9786714Y-11931547D01*
X9786714Y-11931547D02*
X9834333Y-11955356D01*
X9834333Y-11955356D02*
X9929571Y-11955356D01*
X9929571Y-11955356D02*
X9977190Y-11931547D01*
X9977190Y-11931547D02*
X10001000Y-11907737D01*
X10001000Y-11907737D02*
X10024809Y-11860118D01*
X10024809Y-11860118D02*
X10024809Y-11764880D01*
X10024809Y-11764880D02*
X10001000Y-11717261D01*
X10001000Y-11717261D02*
X9977190Y-11693452D01*
X9977190Y-11693452D02*
X9929571Y-11669642D01*
X9929571Y-11669642D02*
X9834333Y-11669642D01*
X9834333Y-11669642D02*
X9786714Y-11693452D01*
X9786714Y-11693452D02*
X9762904Y-11717261D01*
X9762904Y-11717261D02*
X9739095Y-11764880D01*
X28324809Y-31454761D02*
X28824809Y-31288095D01*
X28824809Y-31288095D02*
X28324809Y-31121428D01*
X28824809Y-30954762D02*
X28324809Y-30954762D01*
X28324809Y-30954762D02*
X28324809Y-30835714D01*
X28324809Y-30835714D02*
X28348619Y-30764286D01*
X28348619Y-30764286D02*
X28396238Y-30716667D01*
X28396238Y-30716667D02*
X28443857Y-30692857D01*
X28443857Y-30692857D02*
X28539095Y-30669048D01*
X28539095Y-30669048D02*
X28610523Y-30669048D01*
X28610523Y-30669048D02*
X28705761Y-30692857D01*
X28705761Y-30692857D02*
X28753380Y-30716667D01*
X28753380Y-30716667D02*
X28801000Y-30764286D01*
X28801000Y-30764286D02*
X28824809Y-30835714D01*
X28824809Y-30835714D02*
X28824809Y-30954762D01*
X28824809Y-30454762D02*
X28324809Y-30454762D01*
X28324809Y-30454762D02*
X28324809Y-30335714D01*
X28324809Y-30335714D02*
X28348619Y-30264286D01*
X28348619Y-30264286D02*
X28396238Y-30216667D01*
X28396238Y-30216667D02*
X28443857Y-30192857D01*
X28443857Y-30192857D02*
X28539095Y-30169048D01*
X28539095Y-30169048D02*
X28610523Y-30169048D01*
X28610523Y-30169048D02*
X28705761Y-30192857D01*
X28705761Y-30192857D02*
X28753380Y-30216667D01*
X28753380Y-30216667D02*
X28801000Y-30264286D01*
X28801000Y-30264286D02*
X28824809Y-30335714D01*
X28824809Y-30335714D02*
X28824809Y-30454762D01*
X28872428Y-30073810D02*
X28872428Y-29692857D01*
X28824809Y-29573810D02*
X28324809Y-29573810D01*
X28324809Y-29573810D02*
X28681952Y-29407143D01*
X28681952Y-29407143D02*
X28324809Y-29240477D01*
X28324809Y-29240477D02*
X28824809Y-29240477D01*
X28777190Y-28716667D02*
X28801000Y-28740476D01*
X28801000Y-28740476D02*
X28824809Y-28811905D01*
X28824809Y-28811905D02*
X28824809Y-28859524D01*
X28824809Y-28859524D02*
X28801000Y-28930952D01*
X28801000Y-28930952D02*
X28753380Y-28978571D01*
X28753380Y-28978571D02*
X28705761Y-29002381D01*
X28705761Y-29002381D02*
X28610523Y-29026190D01*
X28610523Y-29026190D02*
X28539095Y-29026190D01*
X28539095Y-29026190D02*
X28443857Y-29002381D01*
X28443857Y-29002381D02*
X28396238Y-28978571D01*
X28396238Y-28978571D02*
X28348619Y-28930952D01*
X28348619Y-28930952D02*
X28324809Y-28859524D01*
X28324809Y-28859524D02*
X28324809Y-28811905D01*
X28324809Y-28811905D02*
X28348619Y-28740476D01*
X28348619Y-28740476D02*
X28372428Y-28716667D01*
X28324809Y-28502381D02*
X28729571Y-28502381D01*
X28729571Y-28502381D02*
X28777190Y-28478571D01*
X28777190Y-28478571D02*
X28801000Y-28454762D01*
X28801000Y-28454762D02*
X28824809Y-28407143D01*
X28824809Y-28407143D02*
X28824809Y-28311905D01*
X28824809Y-28311905D02*
X28801000Y-28264286D01*
X28801000Y-28264286D02*
X28777190Y-28240476D01*
X28777190Y-28240476D02*
X28729571Y-28216667D01*
X28729571Y-28216667D02*
X28324809Y-28216667D01*
X24678571Y-9877190D02*
X24654762Y-9901000D01*
X24654762Y-9901000D02*
X24583333Y-9924809D01*
X24583333Y-9924809D02*
X24535714Y-9924809D01*
X24535714Y-9924809D02*
X24464286Y-9901000D01*
X24464286Y-9901000D02*
X24416667Y-9853380D01*
X24416667Y-9853380D02*
X24392857Y-9805761D01*
X24392857Y-9805761D02*
X24369048Y-9710523D01*
X24369048Y-9710523D02*
X24369048Y-9639095D01*
X24369048Y-9639095D02*
X24392857Y-9543857D01*
X24392857Y-9543857D02*
X24416667Y-9496238D01*
X24416667Y-9496238D02*
X24464286Y-9448619D01*
X24464286Y-9448619D02*
X24535714Y-9424809D01*
X24535714Y-9424809D02*
X24583333Y-9424809D01*
X24583333Y-9424809D02*
X24654762Y-9448619D01*
X24654762Y-9448619D02*
X24678571Y-9472428D01*
X24845238Y-9424809D02*
X25154762Y-9424809D01*
X25154762Y-9424809D02*
X24988095Y-9615285D01*
X24988095Y-9615285D02*
X25059524Y-9615285D01*
X25059524Y-9615285D02*
X25107143Y-9639095D01*
X25107143Y-9639095D02*
X25130952Y-9662904D01*
X25130952Y-9662904D02*
X25154762Y-9710523D01*
X25154762Y-9710523D02*
X25154762Y-9829571D01*
X25154762Y-9829571D02*
X25130952Y-9877190D01*
X25130952Y-9877190D02*
X25107143Y-9901000D01*
X25107143Y-9901000D02*
X25059524Y-9924809D01*
X25059524Y-9924809D02*
X24916667Y-9924809D01*
X24916667Y-9924809D02*
X24869048Y-9901000D01*
X24869048Y-9901000D02*
X24845238Y-9877190D01*
X25583333Y-9424809D02*
X25488095Y-9424809D01*
X25488095Y-9424809D02*
X25440476Y-9448619D01*
X25440476Y-9448619D02*
X25416666Y-9472428D01*
X25416666Y-9472428D02*
X25369047Y-9543857D01*
X25369047Y-9543857D02*
X25345238Y-9639095D01*
X25345238Y-9639095D02*
X25345238Y-9829571D01*
X25345238Y-9829571D02*
X25369047Y-9877190D01*
X25369047Y-9877190D02*
X25392857Y-9901000D01*
X25392857Y-9901000D02*
X25440476Y-9924809D01*
X25440476Y-9924809D02*
X25535714Y-9924809D01*
X25535714Y-9924809D02*
X25583333Y-9901000D01*
X25583333Y-9901000D02*
X25607142Y-9877190D01*
X25607142Y-9877190D02*
X25630952Y-9829571D01*
X25630952Y-9829571D02*
X25630952Y-9710523D01*
X25630952Y-9710523D02*
X25607142Y-9662904D01*
X25607142Y-9662904D02*
X25583333Y-9639095D01*
X25583333Y-9639095D02*
X25535714Y-9615285D01*
X25535714Y-9615285D02*
X25440476Y-9615285D01*
X25440476Y-9615285D02*
X25392857Y-9639095D01*
X25392857Y-9639095D02*
X25369047Y-9662904D01*
X25369047Y-9662904D02*
X25345238Y-9710523D01*
X6080953Y-28034809D02*
X6366667Y-28034809D01*
X6223810Y-28534809D02*
X6223810Y-28034809D01*
X6485714Y-28034809D02*
X6819047Y-28534809D01*
X6819047Y-28034809D02*
X6485714Y-28534809D01*
X7271428Y-28534809D02*
X6985714Y-28534809D01*
X7128571Y-28534809D02*
X7128571Y-28034809D01*
X7128571Y-28034809D02*
X7080952Y-28106238D01*
X7080952Y-28106238D02*
X7033333Y-28153857D01*
X7033333Y-28153857D02*
X6985714Y-28177666D01*
X10357143Y-28344333D02*
X10738096Y-28344333D01*
X10547619Y-28534809D02*
X10547619Y-28153857D01*
X11214286Y-28034809D02*
X10976191Y-28034809D01*
X10976191Y-28034809D02*
X10952382Y-28272904D01*
X10952382Y-28272904D02*
X10976191Y-28249095D01*
X10976191Y-28249095D02*
X11023810Y-28225285D01*
X11023810Y-28225285D02*
X11142858Y-28225285D01*
X11142858Y-28225285D02*
X11190477Y-28249095D01*
X11190477Y-28249095D02*
X11214286Y-28272904D01*
X11214286Y-28272904D02*
X11238096Y-28320523D01*
X11238096Y-28320523D02*
X11238096Y-28439571D01*
X11238096Y-28439571D02*
X11214286Y-28487190D01*
X11214286Y-28487190D02*
X11190477Y-28511000D01*
X11190477Y-28511000D02*
X11142858Y-28534809D01*
X11142858Y-28534809D02*
X11023810Y-28534809D01*
X11023810Y-28534809D02*
X10976191Y-28511000D01*
X10976191Y-28511000D02*
X10952382Y-28487190D01*
X11380953Y-28034809D02*
X11547619Y-28534809D01*
X11547619Y-28534809D02*
X11714286Y-28034809D01*
X2248619Y-12880952D02*
X2224809Y-12928571D01*
X2224809Y-12928571D02*
X2224809Y-13000000D01*
X2224809Y-13000000D02*
X2248619Y-13071428D01*
X2248619Y-13071428D02*
X2296238Y-13119047D01*
X2296238Y-13119047D02*
X2343857Y-13142857D01*
X2343857Y-13142857D02*
X2439095Y-13166666D01*
X2439095Y-13166666D02*
X2510523Y-13166666D01*
X2510523Y-13166666D02*
X2605761Y-13142857D01*
X2605761Y-13142857D02*
X2653380Y-13119047D01*
X2653380Y-13119047D02*
X2701000Y-13071428D01*
X2701000Y-13071428D02*
X2724809Y-13000000D01*
X2724809Y-13000000D02*
X2724809Y-12952381D01*
X2724809Y-12952381D02*
X2701000Y-12880952D01*
X2701000Y-12880952D02*
X2677190Y-12857143D01*
X2677190Y-12857143D02*
X2510523Y-12857143D01*
X2510523Y-12857143D02*
X2510523Y-12952381D01*
X2724809Y-12642857D02*
X2224809Y-12642857D01*
X2224809Y-12642857D02*
X2724809Y-12357143D01*
X2724809Y-12357143D02*
X2224809Y-12357143D01*
X2724809Y-12119047D02*
X2224809Y-12119047D01*
X2224809Y-12119047D02*
X2224809Y-11999999D01*
X2224809Y-11999999D02*
X2248619Y-11928571D01*
X2248619Y-11928571D02*
X2296238Y-11880952D01*
X2296238Y-11880952D02*
X2343857Y-11857142D01*
X2343857Y-11857142D02*
X2439095Y-11833333D01*
X2439095Y-11833333D02*
X2510523Y-11833333D01*
X2510523Y-11833333D02*
X2605761Y-11857142D01*
X2605761Y-11857142D02*
X2653380Y-11880952D01*
X2653380Y-11880952D02*
X2701000Y-11928571D01*
X2701000Y-11928571D02*
X2724809Y-11999999D01*
X2724809Y-11999999D02*
X2724809Y-12119047D01*
X9677190Y-16283333D02*
X9701000Y-16307142D01*
X9701000Y-16307142D02*
X9724809Y-16378571D01*
X9724809Y-16378571D02*
X9724809Y-16426190D01*
X9724809Y-16426190D02*
X9701000Y-16497618D01*
X9701000Y-16497618D02*
X9653380Y-16545237D01*
X9653380Y-16545237D02*
X9605761Y-16569047D01*
X9605761Y-16569047D02*
X9510523Y-16592856D01*
X9510523Y-16592856D02*
X9439095Y-16592856D01*
X9439095Y-16592856D02*
X9343857Y-16569047D01*
X9343857Y-16569047D02*
X9296238Y-16545237D01*
X9296238Y-16545237D02*
X9248619Y-16497618D01*
X9248619Y-16497618D02*
X9224809Y-16426190D01*
X9224809Y-16426190D02*
X9224809Y-16378571D01*
X9224809Y-16378571D02*
X9248619Y-16307142D01*
X9248619Y-16307142D02*
X9272428Y-16283333D01*
X9224809Y-15830952D02*
X9224809Y-16069047D01*
X9224809Y-16069047D02*
X9462904Y-16092856D01*
X9462904Y-16092856D02*
X9439095Y-16069047D01*
X9439095Y-16069047D02*
X9415285Y-16021428D01*
X9415285Y-16021428D02*
X9415285Y-15902380D01*
X9415285Y-15902380D02*
X9439095Y-15854761D01*
X9439095Y-15854761D02*
X9462904Y-15830952D01*
X9462904Y-15830952D02*
X9510523Y-15807142D01*
X9510523Y-15807142D02*
X9629571Y-15807142D01*
X9629571Y-15807142D02*
X9677190Y-15830952D01*
X9677190Y-15830952D02*
X9701000Y-15854761D01*
X9701000Y-15854761D02*
X9724809Y-15902380D01*
X9724809Y-15902380D02*
X9724809Y-16021428D01*
X9724809Y-16021428D02*
X9701000Y-16069047D01*
X9701000Y-16069047D02*
X9677190Y-16092856D01*
X24778571Y-10924809D02*
X24611905Y-10686714D01*
X24492857Y-10924809D02*
X24492857Y-10424809D01*
X24492857Y-10424809D02*
X24683333Y-10424809D01*
X24683333Y-10424809D02*
X24730952Y-10448619D01*
X24730952Y-10448619D02*
X24754762Y-10472428D01*
X24754762Y-10472428D02*
X24778571Y-10520047D01*
X24778571Y-10520047D02*
X24778571Y-10591476D01*
X24778571Y-10591476D02*
X24754762Y-10639095D01*
X24754762Y-10639095D02*
X24730952Y-10662904D01*
X24730952Y-10662904D02*
X24683333Y-10686714D01*
X24683333Y-10686714D02*
X24492857Y-10686714D01*
X24969048Y-10472428D02*
X24992857Y-10448619D01*
X24992857Y-10448619D02*
X25040476Y-10424809D01*
X25040476Y-10424809D02*
X25159524Y-10424809D01*
X25159524Y-10424809D02*
X25207143Y-10448619D01*
X25207143Y-10448619D02*
X25230952Y-10472428D01*
X25230952Y-10472428D02*
X25254762Y-10520047D01*
X25254762Y-10520047D02*
X25254762Y-10567666D01*
X25254762Y-10567666D02*
X25230952Y-10639095D01*
X25230952Y-10639095D02*
X24945238Y-10924809D01*
X24945238Y-10924809D02*
X25254762Y-10924809D01*
X25564285Y-10424809D02*
X25611904Y-10424809D01*
X25611904Y-10424809D02*
X25659523Y-10448619D01*
X25659523Y-10448619D02*
X25683333Y-10472428D01*
X25683333Y-10472428D02*
X25707142Y-10520047D01*
X25707142Y-10520047D02*
X25730952Y-10615285D01*
X25730952Y-10615285D02*
X25730952Y-10734333D01*
X25730952Y-10734333D02*
X25707142Y-10829571D01*
X25707142Y-10829571D02*
X25683333Y-10877190D01*
X25683333Y-10877190D02*
X25659523Y-10901000D01*
X25659523Y-10901000D02*
X25611904Y-10924809D01*
X25611904Y-10924809D02*
X25564285Y-10924809D01*
X25564285Y-10924809D02*
X25516666Y-10901000D01*
X25516666Y-10901000D02*
X25492857Y-10877190D01*
X25492857Y-10877190D02*
X25469047Y-10829571D01*
X25469047Y-10829571D02*
X25445238Y-10734333D01*
X25445238Y-10734333D02*
X25445238Y-10615285D01*
X25445238Y-10615285D02*
X25469047Y-10520047D01*
X25469047Y-10520047D02*
X25492857Y-10472428D01*
X25492857Y-10472428D02*
X25516666Y-10448619D01*
X25516666Y-10448619D02*
X25564285Y-10424809D01*
X4477190Y-6213333D02*
X4501000Y-6237142D01*
X4501000Y-6237142D02*
X4524809Y-6308571D01*
X4524809Y-6308571D02*
X4524809Y-6356190D01*
X4524809Y-6356190D02*
X4501000Y-6427618D01*
X4501000Y-6427618D02*
X4453380Y-6475237D01*
X4453380Y-6475237D02*
X4405761Y-6499047D01*
X4405761Y-6499047D02*
X4310523Y-6522856D01*
X4310523Y-6522856D02*
X4239095Y-6522856D01*
X4239095Y-6522856D02*
X4143857Y-6499047D01*
X4143857Y-6499047D02*
X4096238Y-6475237D01*
X4096238Y-6475237D02*
X4048619Y-6427618D01*
X4048619Y-6427618D02*
X4024809Y-6356190D01*
X4024809Y-6356190D02*
X4024809Y-6308571D01*
X4024809Y-6308571D02*
X4048619Y-6237142D01*
X4048619Y-6237142D02*
X4072428Y-6213333D01*
X4524809Y-5737142D02*
X4524809Y-6022856D01*
X4524809Y-5879999D02*
X4024809Y-5879999D01*
X4024809Y-5879999D02*
X4096238Y-5927618D01*
X4096238Y-5927618D02*
X4143857Y-5975237D01*
X4143857Y-5975237D02*
X4167666Y-6022856D01*
X6977190Y-21221428D02*
X7001000Y-21245237D01*
X7001000Y-21245237D02*
X7024809Y-21316666D01*
X7024809Y-21316666D02*
X7024809Y-21364285D01*
X7024809Y-21364285D02*
X7001000Y-21435713D01*
X7001000Y-21435713D02*
X6953380Y-21483332D01*
X6953380Y-21483332D02*
X6905761Y-21507142D01*
X6905761Y-21507142D02*
X6810523Y-21530951D01*
X6810523Y-21530951D02*
X6739095Y-21530951D01*
X6739095Y-21530951D02*
X6643857Y-21507142D01*
X6643857Y-21507142D02*
X6596238Y-21483332D01*
X6596238Y-21483332D02*
X6548619Y-21435713D01*
X6548619Y-21435713D02*
X6524809Y-21364285D01*
X6524809Y-21364285D02*
X6524809Y-21316666D01*
X6524809Y-21316666D02*
X6548619Y-21245237D01*
X6548619Y-21245237D02*
X6572428Y-21221428D01*
X6572428Y-21030951D02*
X6548619Y-21007142D01*
X6548619Y-21007142D02*
X6524809Y-20959523D01*
X6524809Y-20959523D02*
X6524809Y-20840475D01*
X6524809Y-20840475D02*
X6548619Y-20792856D01*
X6548619Y-20792856D02*
X6572428Y-20769047D01*
X6572428Y-20769047D02*
X6620047Y-20745237D01*
X6620047Y-20745237D02*
X6667666Y-20745237D01*
X6667666Y-20745237D02*
X6739095Y-20769047D01*
X6739095Y-20769047D02*
X7024809Y-21054761D01*
X7024809Y-21054761D02*
X7024809Y-20745237D01*
X6524809Y-20435714D02*
X6524809Y-20388095D01*
X6524809Y-20388095D02*
X6548619Y-20340476D01*
X6548619Y-20340476D02*
X6572428Y-20316666D01*
X6572428Y-20316666D02*
X6620047Y-20292857D01*
X6620047Y-20292857D02*
X6715285Y-20269047D01*
X6715285Y-20269047D02*
X6834333Y-20269047D01*
X6834333Y-20269047D02*
X6929571Y-20292857D01*
X6929571Y-20292857D02*
X6977190Y-20316666D01*
X6977190Y-20316666D02*
X7001000Y-20340476D01*
X7001000Y-20340476D02*
X7024809Y-20388095D01*
X7024809Y-20388095D02*
X7024809Y-20435714D01*
X7024809Y-20435714D02*
X7001000Y-20483333D01*
X7001000Y-20483333D02*
X6977190Y-20507142D01*
X6977190Y-20507142D02*
X6929571Y-20530952D01*
X6929571Y-20530952D02*
X6834333Y-20554761D01*
X6834333Y-20554761D02*
X6715285Y-20554761D01*
X6715285Y-20554761D02*
X6620047Y-20530952D01*
X6620047Y-20530952D02*
X6572428Y-20507142D01*
X6572428Y-20507142D02*
X6548619Y-20483333D01*
X6548619Y-20483333D02*
X6524809Y-20435714D01*
X17977190Y-5321428D02*
X18001000Y-5345237D01*
X18001000Y-5345237D02*
X18024809Y-5416666D01*
X18024809Y-5416666D02*
X18024809Y-5464285D01*
X18024809Y-5464285D02*
X18001000Y-5535713D01*
X18001000Y-5535713D02*
X17953380Y-5583332D01*
X17953380Y-5583332D02*
X17905761Y-5607142D01*
X17905761Y-5607142D02*
X17810523Y-5630951D01*
X17810523Y-5630951D02*
X17739095Y-5630951D01*
X17739095Y-5630951D02*
X17643857Y-5607142D01*
X17643857Y-5607142D02*
X17596238Y-5583332D01*
X17596238Y-5583332D02*
X17548619Y-5535713D01*
X17548619Y-5535713D02*
X17524809Y-5464285D01*
X17524809Y-5464285D02*
X17524809Y-5416666D01*
X17524809Y-5416666D02*
X17548619Y-5345237D01*
X17548619Y-5345237D02*
X17572428Y-5321428D01*
X18024809Y-4845237D02*
X18024809Y-5130951D01*
X18024809Y-4988094D02*
X17524809Y-4988094D01*
X17524809Y-4988094D02*
X17596238Y-5035713D01*
X17596238Y-5035713D02*
X17643857Y-5083332D01*
X17643857Y-5083332D02*
X17667666Y-5130951D01*
X17524809Y-4678571D02*
X17524809Y-4345238D01*
X17524809Y-4345238D02*
X18024809Y-4559523D01*
X5724809Y-4004761D02*
X5224809Y-4004761D01*
X5224809Y-4004761D02*
X5581952Y-3838094D01*
X5581952Y-3838094D02*
X5224809Y-3671428D01*
X5224809Y-3671428D02*
X5724809Y-3671428D01*
X5724809Y-3171427D02*
X5724809Y-3457141D01*
X5724809Y-3314284D02*
X5224809Y-3314284D01*
X5224809Y-3314284D02*
X5296238Y-3361903D01*
X5296238Y-3361903D02*
X5343857Y-3409522D01*
X5343857Y-3409522D02*
X5367666Y-3457141D01*
X10978571Y-2724809D02*
X10811905Y-2486714D01*
X10692857Y-2724809D02*
X10692857Y-2224809D01*
X10692857Y-2224809D02*
X10883333Y-2224809D01*
X10883333Y-2224809D02*
X10930952Y-2248619D01*
X10930952Y-2248619D02*
X10954762Y-2272428D01*
X10954762Y-2272428D02*
X10978571Y-2320047D01*
X10978571Y-2320047D02*
X10978571Y-2391476D01*
X10978571Y-2391476D02*
X10954762Y-2439095D01*
X10954762Y-2439095D02*
X10930952Y-2462904D01*
X10930952Y-2462904D02*
X10883333Y-2486714D01*
X10883333Y-2486714D02*
X10692857Y-2486714D01*
X11145238Y-2224809D02*
X11478571Y-2724809D01*
X11478571Y-2224809D02*
X11145238Y-2724809D01*
X11621428Y-2224809D02*
X11930952Y-2224809D01*
X11930952Y-2224809D02*
X11764285Y-2415285D01*
X11764285Y-2415285D02*
X11835714Y-2415285D01*
X11835714Y-2415285D02*
X11883333Y-2439095D01*
X11883333Y-2439095D02*
X11907142Y-2462904D01*
X11907142Y-2462904D02*
X11930952Y-2510523D01*
X11930952Y-2510523D02*
X11930952Y-2629571D01*
X11930952Y-2629571D02*
X11907142Y-2677190D01*
X11907142Y-2677190D02*
X11883333Y-2701000D01*
X11883333Y-2701000D02*
X11835714Y-2724809D01*
X11835714Y-2724809D02*
X11692857Y-2724809D01*
X11692857Y-2724809D02*
X11645238Y-2701000D01*
X11645238Y-2701000D02*
X11621428Y-2677190D01*
X8319047Y-21824809D02*
X8319047Y-22229571D01*
X8319047Y-22229571D02*
X8342857Y-22277190D01*
X8342857Y-22277190D02*
X8366666Y-22301000D01*
X8366666Y-22301000D02*
X8414285Y-22324809D01*
X8414285Y-22324809D02*
X8509523Y-22324809D01*
X8509523Y-22324809D02*
X8557142Y-22301000D01*
X8557142Y-22301000D02*
X8580952Y-22277190D01*
X8580952Y-22277190D02*
X8604761Y-22229571D01*
X8604761Y-22229571D02*
X8604761Y-21824809D01*
X9080952Y-21824809D02*
X8842857Y-21824809D01*
X8842857Y-21824809D02*
X8819048Y-22062904D01*
X8819048Y-22062904D02*
X8842857Y-22039095D01*
X8842857Y-22039095D02*
X8890476Y-22015285D01*
X8890476Y-22015285D02*
X9009524Y-22015285D01*
X9009524Y-22015285D02*
X9057143Y-22039095D01*
X9057143Y-22039095D02*
X9080952Y-22062904D01*
X9080952Y-22062904D02*
X9104762Y-22110523D01*
X9104762Y-22110523D02*
X9104762Y-22229571D01*
X9104762Y-22229571D02*
X9080952Y-22277190D01*
X9080952Y-22277190D02*
X9057143Y-22301000D01*
X9057143Y-22301000D02*
X9009524Y-22324809D01*
X9009524Y-22324809D02*
X8890476Y-22324809D01*
X8890476Y-22324809D02*
X8842857Y-22301000D01*
X8842857Y-22301000D02*
X8819048Y-22277190D01*
X15577190Y-1821428D02*
X15601000Y-1845237D01*
X15601000Y-1845237D02*
X15624809Y-1916666D01*
X15624809Y-1916666D02*
X15624809Y-1964285D01*
X15624809Y-1964285D02*
X15601000Y-2035713D01*
X15601000Y-2035713D02*
X15553380Y-2083332D01*
X15553380Y-2083332D02*
X15505761Y-2107142D01*
X15505761Y-2107142D02*
X15410523Y-2130951D01*
X15410523Y-2130951D02*
X15339095Y-2130951D01*
X15339095Y-2130951D02*
X15243857Y-2107142D01*
X15243857Y-2107142D02*
X15196238Y-2083332D01*
X15196238Y-2083332D02*
X15148619Y-2035713D01*
X15148619Y-2035713D02*
X15124809Y-1964285D01*
X15124809Y-1964285D02*
X15124809Y-1916666D01*
X15124809Y-1916666D02*
X15148619Y-1845237D01*
X15148619Y-1845237D02*
X15172428Y-1821428D01*
X15624809Y-1345237D02*
X15624809Y-1630951D01*
X15624809Y-1488094D02*
X15124809Y-1488094D01*
X15124809Y-1488094D02*
X15196238Y-1535713D01*
X15196238Y-1535713D02*
X15243857Y-1583332D01*
X15243857Y-1583332D02*
X15267666Y-1630951D01*
X15624809Y-1107142D02*
X15624809Y-1011904D01*
X15624809Y-1011904D02*
X15601000Y-964285D01*
X15601000Y-964285D02*
X15577190Y-940476D01*
X15577190Y-940476D02*
X15505761Y-892857D01*
X15505761Y-892857D02*
X15410523Y-869047D01*
X15410523Y-869047D02*
X15220047Y-869047D01*
X15220047Y-869047D02*
X15172428Y-892857D01*
X15172428Y-892857D02*
X15148619Y-916666D01*
X15148619Y-916666D02*
X15124809Y-964285D01*
X15124809Y-964285D02*
X15124809Y-1059523D01*
X15124809Y-1059523D02*
X15148619Y-1107142D01*
X15148619Y-1107142D02*
X15172428Y-1130952D01*
X15172428Y-1130952D02*
X15220047Y-1154761D01*
X15220047Y-1154761D02*
X15339095Y-1154761D01*
X15339095Y-1154761D02*
X15386714Y-1130952D01*
X15386714Y-1130952D02*
X15410523Y-1107142D01*
X15410523Y-1107142D02*
X15434333Y-1059523D01*
X15434333Y-1059523D02*
X15434333Y-964285D01*
X15434333Y-964285D02*
X15410523Y-916666D01*
X15410523Y-916666D02*
X15386714Y-892857D01*
X15386714Y-892857D02*
X15339095Y-869047D01*
X31378571Y-16124809D02*
X31211905Y-15886714D01*
X31092857Y-16124809D02*
X31092857Y-15624809D01*
X31092857Y-15624809D02*
X31283333Y-15624809D01*
X31283333Y-15624809D02*
X31330952Y-15648619D01*
X31330952Y-15648619D02*
X31354762Y-15672428D01*
X31354762Y-15672428D02*
X31378571Y-15720047D01*
X31378571Y-15720047D02*
X31378571Y-15791476D01*
X31378571Y-15791476D02*
X31354762Y-15839095D01*
X31354762Y-15839095D02*
X31330952Y-15862904D01*
X31330952Y-15862904D02*
X31283333Y-15886714D01*
X31283333Y-15886714D02*
X31092857Y-15886714D01*
X31854762Y-16124809D02*
X31569048Y-16124809D01*
X31711905Y-16124809D02*
X31711905Y-15624809D01*
X31711905Y-15624809D02*
X31664286Y-15696238D01*
X31664286Y-15696238D02*
X31616667Y-15743857D01*
X31616667Y-15743857D02*
X31569048Y-15767666D01*
X32330952Y-16124809D02*
X32045238Y-16124809D01*
X32188095Y-16124809D02*
X32188095Y-15624809D01*
X32188095Y-15624809D02*
X32140476Y-15696238D01*
X32140476Y-15696238D02*
X32092857Y-15743857D01*
X32092857Y-15743857D02*
X32045238Y-15767666D01*
X26877190Y-9721428D02*
X26901000Y-9745237D01*
X26901000Y-9745237D02*
X26924809Y-9816666D01*
X26924809Y-9816666D02*
X26924809Y-9864285D01*
X26924809Y-9864285D02*
X26901000Y-9935713D01*
X26901000Y-9935713D02*
X26853380Y-9983332D01*
X26853380Y-9983332D02*
X26805761Y-10007142D01*
X26805761Y-10007142D02*
X26710523Y-10030951D01*
X26710523Y-10030951D02*
X26639095Y-10030951D01*
X26639095Y-10030951D02*
X26543857Y-10007142D01*
X26543857Y-10007142D02*
X26496238Y-9983332D01*
X26496238Y-9983332D02*
X26448619Y-9935713D01*
X26448619Y-9935713D02*
X26424809Y-9864285D01*
X26424809Y-9864285D02*
X26424809Y-9816666D01*
X26424809Y-9816666D02*
X26448619Y-9745237D01*
X26448619Y-9745237D02*
X26472428Y-9721428D01*
X26591476Y-9292856D02*
X26924809Y-9292856D01*
X26401000Y-9411904D02*
X26758142Y-9530951D01*
X26758142Y-9530951D02*
X26758142Y-9221428D01*
X26424809Y-8935714D02*
X26424809Y-8888095D01*
X26424809Y-8888095D02*
X26448619Y-8840476D01*
X26448619Y-8840476D02*
X26472428Y-8816666D01*
X26472428Y-8816666D02*
X26520047Y-8792857D01*
X26520047Y-8792857D02*
X26615285Y-8769047D01*
X26615285Y-8769047D02*
X26734333Y-8769047D01*
X26734333Y-8769047D02*
X26829571Y-8792857D01*
X26829571Y-8792857D02*
X26877190Y-8816666D01*
X26877190Y-8816666D02*
X26901000Y-8840476D01*
X26901000Y-8840476D02*
X26924809Y-8888095D01*
X26924809Y-8888095D02*
X26924809Y-8935714D01*
X26924809Y-8935714D02*
X26901000Y-8983333D01*
X26901000Y-8983333D02*
X26877190Y-9007142D01*
X26877190Y-9007142D02*
X26829571Y-9030952D01*
X26829571Y-9030952D02*
X26734333Y-9054761D01*
X26734333Y-9054761D02*
X26615285Y-9054761D01*
X26615285Y-9054761D02*
X26520047Y-9030952D01*
X26520047Y-9030952D02*
X26472428Y-9007142D01*
X26472428Y-9007142D02*
X26448619Y-8983333D01*
X26448619Y-8983333D02*
X26424809Y-8935714D01*
X2524333Y-26342856D02*
X2524333Y-25961904D01*
X2714809Y-26152380D02*
X2333857Y-26152380D01*
X2214809Y-25485713D02*
X2214809Y-25723808D01*
X2214809Y-25723808D02*
X2452904Y-25747617D01*
X2452904Y-25747617D02*
X2429095Y-25723808D01*
X2429095Y-25723808D02*
X2405285Y-25676189D01*
X2405285Y-25676189D02*
X2405285Y-25557141D01*
X2405285Y-25557141D02*
X2429095Y-25509522D01*
X2429095Y-25509522D02*
X2452904Y-25485713D01*
X2452904Y-25485713D02*
X2500523Y-25461903D01*
X2500523Y-25461903D02*
X2619571Y-25461903D01*
X2619571Y-25461903D02*
X2667190Y-25485713D01*
X2667190Y-25485713D02*
X2691000Y-25509522D01*
X2691000Y-25509522D02*
X2714809Y-25557141D01*
X2714809Y-25557141D02*
X2714809Y-25676189D01*
X2714809Y-25676189D02*
X2691000Y-25723808D01*
X2691000Y-25723808D02*
X2667190Y-25747617D01*
X2214809Y-25319046D02*
X2714809Y-25152380D01*
X2714809Y-25152380D02*
X2214809Y-24985713D01*
X33277190Y-9821428D02*
X33301000Y-9845237D01*
X33301000Y-9845237D02*
X33324809Y-9916666D01*
X33324809Y-9916666D02*
X33324809Y-9964285D01*
X33324809Y-9964285D02*
X33301000Y-10035713D01*
X33301000Y-10035713D02*
X33253380Y-10083332D01*
X33253380Y-10083332D02*
X33205761Y-10107142D01*
X33205761Y-10107142D02*
X33110523Y-10130951D01*
X33110523Y-10130951D02*
X33039095Y-10130951D01*
X33039095Y-10130951D02*
X32943857Y-10107142D01*
X32943857Y-10107142D02*
X32896238Y-10083332D01*
X32896238Y-10083332D02*
X32848619Y-10035713D01*
X32848619Y-10035713D02*
X32824809Y-9964285D01*
X32824809Y-9964285D02*
X32824809Y-9916666D01*
X32824809Y-9916666D02*
X32848619Y-9845237D01*
X32848619Y-9845237D02*
X32872428Y-9821428D01*
X32991476Y-9392856D02*
X33324809Y-9392856D01*
X32801000Y-9511904D02*
X33158142Y-9630951D01*
X33158142Y-9630951D02*
X33158142Y-9321428D01*
X32872428Y-9154761D02*
X32848619Y-9130952D01*
X32848619Y-9130952D02*
X32824809Y-9083333D01*
X32824809Y-9083333D02*
X32824809Y-8964285D01*
X32824809Y-8964285D02*
X32848619Y-8916666D01*
X32848619Y-8916666D02*
X32872428Y-8892857D01*
X32872428Y-8892857D02*
X32920047Y-8869047D01*
X32920047Y-8869047D02*
X32967666Y-8869047D01*
X32967666Y-8869047D02*
X33039095Y-8892857D01*
X33039095Y-8892857D02*
X33324809Y-9178571D01*
X33324809Y-9178571D02*
X33324809Y-8869047D01*
X20077190Y-29021428D02*
X20101000Y-29045237D01*
X20101000Y-29045237D02*
X20124809Y-29116666D01*
X20124809Y-29116666D02*
X20124809Y-29164285D01*
X20124809Y-29164285D02*
X20101000Y-29235713D01*
X20101000Y-29235713D02*
X20053380Y-29283332D01*
X20053380Y-29283332D02*
X20005761Y-29307142D01*
X20005761Y-29307142D02*
X19910523Y-29330951D01*
X19910523Y-29330951D02*
X19839095Y-29330951D01*
X19839095Y-29330951D02*
X19743857Y-29307142D01*
X19743857Y-29307142D02*
X19696238Y-29283332D01*
X19696238Y-29283332D02*
X19648619Y-29235713D01*
X19648619Y-29235713D02*
X19624809Y-29164285D01*
X19624809Y-29164285D02*
X19624809Y-29116666D01*
X19624809Y-29116666D02*
X19648619Y-29045237D01*
X19648619Y-29045237D02*
X19672428Y-29021428D01*
X19672428Y-28830951D02*
X19648619Y-28807142D01*
X19648619Y-28807142D02*
X19624809Y-28759523D01*
X19624809Y-28759523D02*
X19624809Y-28640475D01*
X19624809Y-28640475D02*
X19648619Y-28592856D01*
X19648619Y-28592856D02*
X19672428Y-28569047D01*
X19672428Y-28569047D02*
X19720047Y-28545237D01*
X19720047Y-28545237D02*
X19767666Y-28545237D01*
X19767666Y-28545237D02*
X19839095Y-28569047D01*
X19839095Y-28569047D02*
X20124809Y-28854761D01*
X20124809Y-28854761D02*
X20124809Y-28545237D01*
X19791476Y-28116666D02*
X20124809Y-28116666D01*
X19601000Y-28235714D02*
X19958142Y-28354761D01*
X19958142Y-28354761D02*
X19958142Y-28045238D01*
X8578571Y-28534809D02*
X8411905Y-28296714D01*
X8292857Y-28534809D02*
X8292857Y-28034809D01*
X8292857Y-28034809D02*
X8483333Y-28034809D01*
X8483333Y-28034809D02*
X8530952Y-28058619D01*
X8530952Y-28058619D02*
X8554762Y-28082428D01*
X8554762Y-28082428D02*
X8578571Y-28130047D01*
X8578571Y-28130047D02*
X8578571Y-28201476D01*
X8578571Y-28201476D02*
X8554762Y-28249095D01*
X8554762Y-28249095D02*
X8530952Y-28272904D01*
X8530952Y-28272904D02*
X8483333Y-28296714D01*
X8483333Y-28296714D02*
X8292857Y-28296714D01*
X8745238Y-28034809D02*
X9078571Y-28534809D01*
X9078571Y-28034809D02*
X8745238Y-28534809D01*
X9530952Y-28534809D02*
X9245238Y-28534809D01*
X9388095Y-28534809D02*
X9388095Y-28034809D01*
X9388095Y-28034809D02*
X9340476Y-28106238D01*
X9340476Y-28106238D02*
X9292857Y-28153857D01*
X9292857Y-28153857D02*
X9245238Y-28177666D01*
X10024809Y-10083333D02*
X9786714Y-10249999D01*
X10024809Y-10369047D02*
X9524809Y-10369047D01*
X9524809Y-10369047D02*
X9524809Y-10178571D01*
X9524809Y-10178571D02*
X9548619Y-10130952D01*
X9548619Y-10130952D02*
X9572428Y-10107142D01*
X9572428Y-10107142D02*
X9620047Y-10083333D01*
X9620047Y-10083333D02*
X9691476Y-10083333D01*
X9691476Y-10083333D02*
X9739095Y-10107142D01*
X9739095Y-10107142D02*
X9762904Y-10130952D01*
X9762904Y-10130952D02*
X9786714Y-10178571D01*
X9786714Y-10178571D02*
X9786714Y-10369047D01*
X9524809Y-9916666D02*
X9524809Y-9583333D01*
X9524809Y-9583333D02*
X10024809Y-9797618D01*
X16178571Y-9077190D02*
X16154762Y-9101000D01*
X16154762Y-9101000D02*
X16083333Y-9124809D01*
X16083333Y-9124809D02*
X16035714Y-9124809D01*
X16035714Y-9124809D02*
X15964286Y-9101000D01*
X15964286Y-9101000D02*
X15916667Y-9053380D01*
X15916667Y-9053380D02*
X15892857Y-9005761D01*
X15892857Y-9005761D02*
X15869048Y-8910523D01*
X15869048Y-8910523D02*
X15869048Y-8839095D01*
X15869048Y-8839095D02*
X15892857Y-8743857D01*
X15892857Y-8743857D02*
X15916667Y-8696238D01*
X15916667Y-8696238D02*
X15964286Y-8648619D01*
X15964286Y-8648619D02*
X16035714Y-8624809D01*
X16035714Y-8624809D02*
X16083333Y-8624809D01*
X16083333Y-8624809D02*
X16154762Y-8648619D01*
X16154762Y-8648619D02*
X16178571Y-8672428D01*
X16345238Y-8624809D02*
X16654762Y-8624809D01*
X16654762Y-8624809D02*
X16488095Y-8815285D01*
X16488095Y-8815285D02*
X16559524Y-8815285D01*
X16559524Y-8815285D02*
X16607143Y-8839095D01*
X16607143Y-8839095D02*
X16630952Y-8862904D01*
X16630952Y-8862904D02*
X16654762Y-8910523D01*
X16654762Y-8910523D02*
X16654762Y-9029571D01*
X16654762Y-9029571D02*
X16630952Y-9077190D01*
X16630952Y-9077190D02*
X16607143Y-9101000D01*
X16607143Y-9101000D02*
X16559524Y-9124809D01*
X16559524Y-9124809D02*
X16416667Y-9124809D01*
X16416667Y-9124809D02*
X16369048Y-9101000D01*
X16369048Y-9101000D02*
X16345238Y-9077190D01*
X17083333Y-8791476D02*
X17083333Y-9124809D01*
X16964285Y-8601000D02*
X16845238Y-8958142D01*
X16845238Y-8958142D02*
X17154761Y-8958142D01*
X2024809Y-21526190D02*
X1786714Y-21692856D01*
X2024809Y-21811904D02*
X1524809Y-21811904D01*
X1524809Y-21811904D02*
X1524809Y-21621428D01*
X1524809Y-21621428D02*
X1548619Y-21573809D01*
X1548619Y-21573809D02*
X1572428Y-21549999D01*
X1572428Y-21549999D02*
X1620047Y-21526190D01*
X1620047Y-21526190D02*
X1691476Y-21526190D01*
X1691476Y-21526190D02*
X1739095Y-21549999D01*
X1739095Y-21549999D02*
X1762904Y-21573809D01*
X1762904Y-21573809D02*
X1786714Y-21621428D01*
X1786714Y-21621428D02*
X1786714Y-21811904D01*
X1762904Y-21311904D02*
X1762904Y-21145237D01*
X2024809Y-21073809D02*
X2024809Y-21311904D01*
X2024809Y-21311904D02*
X1524809Y-21311904D01*
X1524809Y-21311904D02*
X1524809Y-21073809D01*
X2001000Y-20883332D02*
X2024809Y-20811904D01*
X2024809Y-20811904D02*
X2024809Y-20692856D01*
X2024809Y-20692856D02*
X2001000Y-20645237D01*
X2001000Y-20645237D02*
X1977190Y-20621428D01*
X1977190Y-20621428D02*
X1929571Y-20597618D01*
X1929571Y-20597618D02*
X1881952Y-20597618D01*
X1881952Y-20597618D02*
X1834333Y-20621428D01*
X1834333Y-20621428D02*
X1810523Y-20645237D01*
X1810523Y-20645237D02*
X1786714Y-20692856D01*
X1786714Y-20692856D02*
X1762904Y-20788094D01*
X1762904Y-20788094D02*
X1739095Y-20835713D01*
X1739095Y-20835713D02*
X1715285Y-20859523D01*
X1715285Y-20859523D02*
X1667666Y-20883332D01*
X1667666Y-20883332D02*
X1620047Y-20883332D01*
X1620047Y-20883332D02*
X1572428Y-20859523D01*
X1572428Y-20859523D02*
X1548619Y-20835713D01*
X1548619Y-20835713D02*
X1524809Y-20788094D01*
X1524809Y-20788094D02*
X1524809Y-20669047D01*
X1524809Y-20669047D02*
X1548619Y-20597618D01*
X1762904Y-20383333D02*
X1762904Y-20216666D01*
X2024809Y-20145238D02*
X2024809Y-20383333D01*
X2024809Y-20383333D02*
X1524809Y-20383333D01*
X1524809Y-20383333D02*
X1524809Y-20145238D01*
X1524809Y-20002380D02*
X1524809Y-19716666D01*
X2024809Y-19859523D02*
X1524809Y-19859523D01*
X9024809Y-18521428D02*
X8786714Y-18688094D01*
X9024809Y-18807142D02*
X8524809Y-18807142D01*
X8524809Y-18807142D02*
X8524809Y-18616666D01*
X8524809Y-18616666D02*
X8548619Y-18569047D01*
X8548619Y-18569047D02*
X8572428Y-18545237D01*
X8572428Y-18545237D02*
X8620047Y-18521428D01*
X8620047Y-18521428D02*
X8691476Y-18521428D01*
X8691476Y-18521428D02*
X8739095Y-18545237D01*
X8739095Y-18545237D02*
X8762904Y-18569047D01*
X8762904Y-18569047D02*
X8786714Y-18616666D01*
X8786714Y-18616666D02*
X8786714Y-18807142D01*
X8572428Y-18330951D02*
X8548619Y-18307142D01*
X8548619Y-18307142D02*
X8524809Y-18259523D01*
X8524809Y-18259523D02*
X8524809Y-18140475D01*
X8524809Y-18140475D02*
X8548619Y-18092856D01*
X8548619Y-18092856D02*
X8572428Y-18069047D01*
X8572428Y-18069047D02*
X8620047Y-18045237D01*
X8620047Y-18045237D02*
X8667666Y-18045237D01*
X8667666Y-18045237D02*
X8739095Y-18069047D01*
X8739095Y-18069047D02*
X9024809Y-18354761D01*
X9024809Y-18354761D02*
X9024809Y-18045237D01*
X8572428Y-17854761D02*
X8548619Y-17830952D01*
X8548619Y-17830952D02*
X8524809Y-17783333D01*
X8524809Y-17783333D02*
X8524809Y-17664285D01*
X8524809Y-17664285D02*
X8548619Y-17616666D01*
X8548619Y-17616666D02*
X8572428Y-17592857D01*
X8572428Y-17592857D02*
X8620047Y-17569047D01*
X8620047Y-17569047D02*
X8667666Y-17569047D01*
X8667666Y-17569047D02*
X8739095Y-17592857D01*
X8739095Y-17592857D02*
X9024809Y-17878571D01*
X9024809Y-17878571D02*
X9024809Y-17569047D01*
X33352904Y-7978571D02*
X33376714Y-7907143D01*
X33376714Y-7907143D02*
X33400523Y-7883333D01*
X33400523Y-7883333D02*
X33448142Y-7859524D01*
X33448142Y-7859524D02*
X33519571Y-7859524D01*
X33519571Y-7859524D02*
X33567190Y-7883333D01*
X33567190Y-7883333D02*
X33591000Y-7907143D01*
X33591000Y-7907143D02*
X33614809Y-7954762D01*
X33614809Y-7954762D02*
X33614809Y-8145238D01*
X33614809Y-8145238D02*
X33114809Y-8145238D01*
X33114809Y-8145238D02*
X33114809Y-7978571D01*
X33114809Y-7978571D02*
X33138619Y-7930952D01*
X33138619Y-7930952D02*
X33162428Y-7907143D01*
X33162428Y-7907143D02*
X33210047Y-7883333D01*
X33210047Y-7883333D02*
X33257666Y-7883333D01*
X33257666Y-7883333D02*
X33305285Y-7907143D01*
X33305285Y-7907143D02*
X33329095Y-7930952D01*
X33329095Y-7930952D02*
X33352904Y-7978571D01*
X33352904Y-7978571D02*
X33352904Y-8145238D01*
X33114809Y-7550000D02*
X33114809Y-7454762D01*
X33114809Y-7454762D02*
X33138619Y-7407143D01*
X33138619Y-7407143D02*
X33186238Y-7359524D01*
X33186238Y-7359524D02*
X33281476Y-7335714D01*
X33281476Y-7335714D02*
X33448142Y-7335714D01*
X33448142Y-7335714D02*
X33543380Y-7359524D01*
X33543380Y-7359524D02*
X33591000Y-7407143D01*
X33591000Y-7407143D02*
X33614809Y-7454762D01*
X33614809Y-7454762D02*
X33614809Y-7550000D01*
X33614809Y-7550000D02*
X33591000Y-7597619D01*
X33591000Y-7597619D02*
X33543380Y-7645238D01*
X33543380Y-7645238D02*
X33448142Y-7669047D01*
X33448142Y-7669047D02*
X33281476Y-7669047D01*
X33281476Y-7669047D02*
X33186238Y-7645238D01*
X33186238Y-7645238D02*
X33138619Y-7597619D01*
X33138619Y-7597619D02*
X33114809Y-7550000D01*
X33114809Y-7026190D02*
X33114809Y-6930952D01*
X33114809Y-6930952D02*
X33138619Y-6883333D01*
X33138619Y-6883333D02*
X33186238Y-6835714D01*
X33186238Y-6835714D02*
X33281476Y-6811904D01*
X33281476Y-6811904D02*
X33448142Y-6811904D01*
X33448142Y-6811904D02*
X33543380Y-6835714D01*
X33543380Y-6835714D02*
X33591000Y-6883333D01*
X33591000Y-6883333D02*
X33614809Y-6930952D01*
X33614809Y-6930952D02*
X33614809Y-7026190D01*
X33614809Y-7026190D02*
X33591000Y-7073809D01*
X33591000Y-7073809D02*
X33543380Y-7121428D01*
X33543380Y-7121428D02*
X33448142Y-7145237D01*
X33448142Y-7145237D02*
X33281476Y-7145237D01*
X33281476Y-7145237D02*
X33186238Y-7121428D01*
X33186238Y-7121428D02*
X33138619Y-7073809D01*
X33138619Y-7073809D02*
X33114809Y-7026190D01*
X33114809Y-6669046D02*
X33114809Y-6383332D01*
X33614809Y-6526189D02*
X33114809Y-6526189D01*
X2578571Y-17477190D02*
X2554762Y-17501000D01*
X2554762Y-17501000D02*
X2483333Y-17524809D01*
X2483333Y-17524809D02*
X2435714Y-17524809D01*
X2435714Y-17524809D02*
X2364286Y-17501000D01*
X2364286Y-17501000D02*
X2316667Y-17453380D01*
X2316667Y-17453380D02*
X2292857Y-17405761D01*
X2292857Y-17405761D02*
X2269048Y-17310523D01*
X2269048Y-17310523D02*
X2269048Y-17239095D01*
X2269048Y-17239095D02*
X2292857Y-17143857D01*
X2292857Y-17143857D02*
X2316667Y-17096238D01*
X2316667Y-17096238D02*
X2364286Y-17048619D01*
X2364286Y-17048619D02*
X2435714Y-17024809D01*
X2435714Y-17024809D02*
X2483333Y-17024809D01*
X2483333Y-17024809D02*
X2554762Y-17048619D01*
X2554762Y-17048619D02*
X2578571Y-17072428D01*
X2769048Y-17072428D02*
X2792857Y-17048619D01*
X2792857Y-17048619D02*
X2840476Y-17024809D01*
X2840476Y-17024809D02*
X2959524Y-17024809D01*
X2959524Y-17024809D02*
X3007143Y-17048619D01*
X3007143Y-17048619D02*
X3030952Y-17072428D01*
X3030952Y-17072428D02*
X3054762Y-17120047D01*
X3054762Y-17120047D02*
X3054762Y-17167666D01*
X3054762Y-17167666D02*
X3030952Y-17239095D01*
X3030952Y-17239095D02*
X2745238Y-17524809D01*
X2745238Y-17524809D02*
X3054762Y-17524809D01*
X3292857Y-17524809D02*
X3388095Y-17524809D01*
X3388095Y-17524809D02*
X3435714Y-17501000D01*
X3435714Y-17501000D02*
X3459523Y-17477190D01*
X3459523Y-17477190D02*
X3507142Y-17405761D01*
X3507142Y-17405761D02*
X3530952Y-17310523D01*
X3530952Y-17310523D02*
X3530952Y-17120047D01*
X3530952Y-17120047D02*
X3507142Y-17072428D01*
X3507142Y-17072428D02*
X3483333Y-17048619D01*
X3483333Y-17048619D02*
X3435714Y-17024809D01*
X3435714Y-17024809D02*
X3340476Y-17024809D01*
X3340476Y-17024809D02*
X3292857Y-17048619D01*
X3292857Y-17048619D02*
X3269047Y-17072428D01*
X3269047Y-17072428D02*
X3245238Y-17120047D01*
X3245238Y-17120047D02*
X3245238Y-17239095D01*
X3245238Y-17239095D02*
X3269047Y-17286714D01*
X3269047Y-17286714D02*
X3292857Y-17310523D01*
X3292857Y-17310523D02*
X3340476Y-17334333D01*
X3340476Y-17334333D02*
X3435714Y-17334333D01*
X3435714Y-17334333D02*
X3483333Y-17310523D01*
X3483333Y-17310523D02*
X3507142Y-17286714D01*
X3507142Y-17286714D02*
X3530952Y-17239095D01*
X20878571Y-6477190D02*
X20854762Y-6501000D01*
X20854762Y-6501000D02*
X20783333Y-6524809D01*
X20783333Y-6524809D02*
X20735714Y-6524809D01*
X20735714Y-6524809D02*
X20664286Y-6501000D01*
X20664286Y-6501000D02*
X20616667Y-6453380D01*
X20616667Y-6453380D02*
X20592857Y-6405761D01*
X20592857Y-6405761D02*
X20569048Y-6310523D01*
X20569048Y-6310523D02*
X20569048Y-6239095D01*
X20569048Y-6239095D02*
X20592857Y-6143857D01*
X20592857Y-6143857D02*
X20616667Y-6096238D01*
X20616667Y-6096238D02*
X20664286Y-6048619D01*
X20664286Y-6048619D02*
X20735714Y-6024809D01*
X20735714Y-6024809D02*
X20783333Y-6024809D01*
X20783333Y-6024809D02*
X20854762Y-6048619D01*
X20854762Y-6048619D02*
X20878571Y-6072428D01*
X21045238Y-6024809D02*
X21354762Y-6024809D01*
X21354762Y-6024809D02*
X21188095Y-6215285D01*
X21188095Y-6215285D02*
X21259524Y-6215285D01*
X21259524Y-6215285D02*
X21307143Y-6239095D01*
X21307143Y-6239095D02*
X21330952Y-6262904D01*
X21330952Y-6262904D02*
X21354762Y-6310523D01*
X21354762Y-6310523D02*
X21354762Y-6429571D01*
X21354762Y-6429571D02*
X21330952Y-6477190D01*
X21330952Y-6477190D02*
X21307143Y-6501000D01*
X21307143Y-6501000D02*
X21259524Y-6524809D01*
X21259524Y-6524809D02*
X21116667Y-6524809D01*
X21116667Y-6524809D02*
X21069048Y-6501000D01*
X21069048Y-6501000D02*
X21045238Y-6477190D01*
X21592857Y-6524809D02*
X21688095Y-6524809D01*
X21688095Y-6524809D02*
X21735714Y-6501000D01*
X21735714Y-6501000D02*
X21759523Y-6477190D01*
X21759523Y-6477190D02*
X21807142Y-6405761D01*
X21807142Y-6405761D02*
X21830952Y-6310523D01*
X21830952Y-6310523D02*
X21830952Y-6120047D01*
X21830952Y-6120047D02*
X21807142Y-6072428D01*
X21807142Y-6072428D02*
X21783333Y-6048619D01*
X21783333Y-6048619D02*
X21735714Y-6024809D01*
X21735714Y-6024809D02*
X21640476Y-6024809D01*
X21640476Y-6024809D02*
X21592857Y-6048619D01*
X21592857Y-6048619D02*
X21569047Y-6072428D01*
X21569047Y-6072428D02*
X21545238Y-6120047D01*
X21545238Y-6120047D02*
X21545238Y-6239095D01*
X21545238Y-6239095D02*
X21569047Y-6286714D01*
X21569047Y-6286714D02*
X21592857Y-6310523D01*
X21592857Y-6310523D02*
X21640476Y-6334333D01*
X21640476Y-6334333D02*
X21735714Y-6334333D01*
X21735714Y-6334333D02*
X21783333Y-6310523D01*
X21783333Y-6310523D02*
X21807142Y-6286714D01*
X21807142Y-6286714D02*
X21830952Y-6239095D01*
X5278571Y-19624809D02*
X5111905Y-19386714D01*
X4992857Y-19624809D02*
X4992857Y-19124809D01*
X4992857Y-19124809D02*
X5183333Y-19124809D01*
X5183333Y-19124809D02*
X5230952Y-19148619D01*
X5230952Y-19148619D02*
X5254762Y-19172428D01*
X5254762Y-19172428D02*
X5278571Y-19220047D01*
X5278571Y-19220047D02*
X5278571Y-19291476D01*
X5278571Y-19291476D02*
X5254762Y-19339095D01*
X5254762Y-19339095D02*
X5230952Y-19362904D01*
X5230952Y-19362904D02*
X5183333Y-19386714D01*
X5183333Y-19386714D02*
X4992857Y-19386714D01*
X5469048Y-19172428D02*
X5492857Y-19148619D01*
X5492857Y-19148619D02*
X5540476Y-19124809D01*
X5540476Y-19124809D02*
X5659524Y-19124809D01*
X5659524Y-19124809D02*
X5707143Y-19148619D01*
X5707143Y-19148619D02*
X5730952Y-19172428D01*
X5730952Y-19172428D02*
X5754762Y-19220047D01*
X5754762Y-19220047D02*
X5754762Y-19267666D01*
X5754762Y-19267666D02*
X5730952Y-19339095D01*
X5730952Y-19339095D02*
X5445238Y-19624809D01*
X5445238Y-19624809D02*
X5754762Y-19624809D01*
X5921428Y-19124809D02*
X6230952Y-19124809D01*
X6230952Y-19124809D02*
X6064285Y-19315285D01*
X6064285Y-19315285D02*
X6135714Y-19315285D01*
X6135714Y-19315285D02*
X6183333Y-19339095D01*
X6183333Y-19339095D02*
X6207142Y-19362904D01*
X6207142Y-19362904D02*
X6230952Y-19410523D01*
X6230952Y-19410523D02*
X6230952Y-19529571D01*
X6230952Y-19529571D02*
X6207142Y-19577190D01*
X6207142Y-19577190D02*
X6183333Y-19601000D01*
X6183333Y-19601000D02*
X6135714Y-19624809D01*
X6135714Y-19624809D02*
X5992857Y-19624809D01*
X5992857Y-19624809D02*
X5945238Y-19601000D01*
X5945238Y-19601000D02*
X5921428Y-19577190D01*
X28524809Y-16221428D02*
X28286714Y-16388094D01*
X28524809Y-16507142D02*
X28024809Y-16507142D01*
X28024809Y-16507142D02*
X28024809Y-16316666D01*
X28024809Y-16316666D02*
X28048619Y-16269047D01*
X28048619Y-16269047D02*
X28072428Y-16245237D01*
X28072428Y-16245237D02*
X28120047Y-16221428D01*
X28120047Y-16221428D02*
X28191476Y-16221428D01*
X28191476Y-16221428D02*
X28239095Y-16245237D01*
X28239095Y-16245237D02*
X28262904Y-16269047D01*
X28262904Y-16269047D02*
X28286714Y-16316666D01*
X28286714Y-16316666D02*
X28286714Y-16507142D01*
X28072428Y-16030951D02*
X28048619Y-16007142D01*
X28048619Y-16007142D02*
X28024809Y-15959523D01*
X28024809Y-15959523D02*
X28024809Y-15840475D01*
X28024809Y-15840475D02*
X28048619Y-15792856D01*
X28048619Y-15792856D02*
X28072428Y-15769047D01*
X28072428Y-15769047D02*
X28120047Y-15745237D01*
X28120047Y-15745237D02*
X28167666Y-15745237D01*
X28167666Y-15745237D02*
X28239095Y-15769047D01*
X28239095Y-15769047D02*
X28524809Y-16054761D01*
X28524809Y-16054761D02*
X28524809Y-15745237D01*
X28524809Y-15269047D02*
X28524809Y-15554761D01*
X28524809Y-15411904D02*
X28024809Y-15411904D01*
X28024809Y-15411904D02*
X28096238Y-15459523D01*
X28096238Y-15459523D02*
X28143857Y-15507142D01*
X28143857Y-15507142D02*
X28167666Y-15554761D01*
X22677190Y-26821428D02*
X22701000Y-26845237D01*
X22701000Y-26845237D02*
X22724809Y-26916666D01*
X22724809Y-26916666D02*
X22724809Y-26964285D01*
X22724809Y-26964285D02*
X22701000Y-27035713D01*
X22701000Y-27035713D02*
X22653380Y-27083332D01*
X22653380Y-27083332D02*
X22605761Y-27107142D01*
X22605761Y-27107142D02*
X22510523Y-27130951D01*
X22510523Y-27130951D02*
X22439095Y-27130951D01*
X22439095Y-27130951D02*
X22343857Y-27107142D01*
X22343857Y-27107142D02*
X22296238Y-27083332D01*
X22296238Y-27083332D02*
X22248619Y-27035713D01*
X22248619Y-27035713D02*
X22224809Y-26964285D01*
X22224809Y-26964285D02*
X22224809Y-26916666D01*
X22224809Y-26916666D02*
X22248619Y-26845237D01*
X22248619Y-26845237D02*
X22272428Y-26821428D01*
X22724809Y-26345237D02*
X22724809Y-26630951D01*
X22724809Y-26488094D02*
X22224809Y-26488094D01*
X22224809Y-26488094D02*
X22296238Y-26535713D01*
X22296238Y-26535713D02*
X22343857Y-26583332D01*
X22343857Y-26583332D02*
X22367666Y-26630951D01*
X22224809Y-26035714D02*
X22224809Y-25988095D01*
X22224809Y-25988095D02*
X22248619Y-25940476D01*
X22248619Y-25940476D02*
X22272428Y-25916666D01*
X22272428Y-25916666D02*
X22320047Y-25892857D01*
X22320047Y-25892857D02*
X22415285Y-25869047D01*
X22415285Y-25869047D02*
X22534333Y-25869047D01*
X22534333Y-25869047D02*
X22629571Y-25892857D01*
X22629571Y-25892857D02*
X22677190Y-25916666D01*
X22677190Y-25916666D02*
X22701000Y-25940476D01*
X22701000Y-25940476D02*
X22724809Y-25988095D01*
X22724809Y-25988095D02*
X22724809Y-26035714D01*
X22724809Y-26035714D02*
X22701000Y-26083333D01*
X22701000Y-26083333D02*
X22677190Y-26107142D01*
X22677190Y-26107142D02*
X22629571Y-26130952D01*
X22629571Y-26130952D02*
X22534333Y-26154761D01*
X22534333Y-26154761D02*
X22415285Y-26154761D01*
X22415285Y-26154761D02*
X22320047Y-26130952D01*
X22320047Y-26130952D02*
X22272428Y-26107142D01*
X22272428Y-26107142D02*
X22248619Y-26083333D01*
X22248619Y-26083333D02*
X22224809Y-26035714D01*
X17319047Y-31258619D02*
X17271428Y-31234809D01*
X17271428Y-31234809D02*
X17199999Y-31234809D01*
X17199999Y-31234809D02*
X17128571Y-31258619D01*
X17128571Y-31258619D02*
X17080952Y-31306238D01*
X17080952Y-31306238D02*
X17057142Y-31353857D01*
X17057142Y-31353857D02*
X17033333Y-31449095D01*
X17033333Y-31449095D02*
X17033333Y-31520523D01*
X17033333Y-31520523D02*
X17057142Y-31615761D01*
X17057142Y-31615761D02*
X17080952Y-31663380D01*
X17080952Y-31663380D02*
X17128571Y-31711000D01*
X17128571Y-31711000D02*
X17199999Y-31734809D01*
X17199999Y-31734809D02*
X17247618Y-31734809D01*
X17247618Y-31734809D02*
X17319047Y-31711000D01*
X17319047Y-31711000D02*
X17342856Y-31687190D01*
X17342856Y-31687190D02*
X17342856Y-31520523D01*
X17342856Y-31520523D02*
X17247618Y-31520523D01*
X17557142Y-31734809D02*
X17557142Y-31234809D01*
X17557142Y-31234809D02*
X17842856Y-31734809D01*
X17842856Y-31734809D02*
X17842856Y-31234809D01*
X18080952Y-31734809D02*
X18080952Y-31234809D01*
X18080952Y-31234809D02*
X18200000Y-31234809D01*
X18200000Y-31234809D02*
X18271428Y-31258619D01*
X18271428Y-31258619D02*
X18319047Y-31306238D01*
X18319047Y-31306238D02*
X18342857Y-31353857D01*
X18342857Y-31353857D02*
X18366666Y-31449095D01*
X18366666Y-31449095D02*
X18366666Y-31520523D01*
X18366666Y-31520523D02*
X18342857Y-31615761D01*
X18342857Y-31615761D02*
X18319047Y-31663380D01*
X18319047Y-31663380D02*
X18271428Y-31711000D01*
X18271428Y-31711000D02*
X18200000Y-31734809D01*
X18200000Y-31734809D02*
X18080952Y-31734809D01*
X10324809Y-4304761D02*
X9824809Y-4304761D01*
X9824809Y-4304761D02*
X10181952Y-4138094D01*
X10181952Y-4138094D02*
X9824809Y-3971428D01*
X9824809Y-3971428D02*
X10324809Y-3971428D01*
X9824809Y-3780951D02*
X9824809Y-3471427D01*
X9824809Y-3471427D02*
X10015285Y-3638094D01*
X10015285Y-3638094D02*
X10015285Y-3566665D01*
X10015285Y-3566665D02*
X10039095Y-3519046D01*
X10039095Y-3519046D02*
X10062904Y-3495237D01*
X10062904Y-3495237D02*
X10110523Y-3471427D01*
X10110523Y-3471427D02*
X10229571Y-3471427D01*
X10229571Y-3471427D02*
X10277190Y-3495237D01*
X10277190Y-3495237D02*
X10301000Y-3519046D01*
X10301000Y-3519046D02*
X10324809Y-3566665D01*
X10324809Y-3566665D02*
X10324809Y-3709522D01*
X10324809Y-3709522D02*
X10301000Y-3757141D01*
X10301000Y-3757141D02*
X10277190Y-3780951D01*
X11516666Y-13624809D02*
X11350000Y-13386714D01*
X11230952Y-13624809D02*
X11230952Y-13124809D01*
X11230952Y-13124809D02*
X11421428Y-13124809D01*
X11421428Y-13124809D02*
X11469047Y-13148619D01*
X11469047Y-13148619D02*
X11492857Y-13172428D01*
X11492857Y-13172428D02*
X11516666Y-13220047D01*
X11516666Y-13220047D02*
X11516666Y-13291476D01*
X11516666Y-13291476D02*
X11492857Y-13339095D01*
X11492857Y-13339095D02*
X11469047Y-13362904D01*
X11469047Y-13362904D02*
X11421428Y-13386714D01*
X11421428Y-13386714D02*
X11230952Y-13386714D01*
X11707143Y-13172428D02*
X11730952Y-13148619D01*
X11730952Y-13148619D02*
X11778571Y-13124809D01*
X11778571Y-13124809D02*
X11897619Y-13124809D01*
X11897619Y-13124809D02*
X11945238Y-13148619D01*
X11945238Y-13148619D02*
X11969047Y-13172428D01*
X11969047Y-13172428D02*
X11992857Y-13220047D01*
X11992857Y-13220047D02*
X11992857Y-13267666D01*
X11992857Y-13267666D02*
X11969047Y-13339095D01*
X11969047Y-13339095D02*
X11683333Y-13624809D01*
X11683333Y-13624809D02*
X11992857Y-13624809D01*
X15090477Y-31724809D02*
X15185715Y-31724809D01*
X15185715Y-31724809D02*
X15233334Y-31701000D01*
X15233334Y-31701000D02*
X15257143Y-31677190D01*
X15257143Y-31677190D02*
X15304762Y-31605761D01*
X15304762Y-31605761D02*
X15328572Y-31510523D01*
X15328572Y-31510523D02*
X15328572Y-31320047D01*
X15328572Y-31320047D02*
X15304762Y-31272428D01*
X15304762Y-31272428D02*
X15280953Y-31248619D01*
X15280953Y-31248619D02*
X15233334Y-31224809D01*
X15233334Y-31224809D02*
X15138096Y-31224809D01*
X15138096Y-31224809D02*
X15090477Y-31248619D01*
X15090477Y-31248619D02*
X15066667Y-31272428D01*
X15066667Y-31272428D02*
X15042858Y-31320047D01*
X15042858Y-31320047D02*
X15042858Y-31439095D01*
X15042858Y-31439095D02*
X15066667Y-31486714D01*
X15066667Y-31486714D02*
X15090477Y-31510523D01*
X15090477Y-31510523D02*
X15138096Y-31534333D01*
X15138096Y-31534333D02*
X15233334Y-31534333D01*
X15233334Y-31534333D02*
X15280953Y-31510523D01*
X15280953Y-31510523D02*
X15304762Y-31486714D01*
X15304762Y-31486714D02*
X15328572Y-31439095D01*
X15471429Y-31224809D02*
X15638095Y-31724809D01*
X15638095Y-31724809D02*
X15804762Y-31224809D01*
X19778571Y-15624809D02*
X19611905Y-15386714D01*
X19492857Y-15624809D02*
X19492857Y-15124809D01*
X19492857Y-15124809D02*
X19683333Y-15124809D01*
X19683333Y-15124809D02*
X19730952Y-15148619D01*
X19730952Y-15148619D02*
X19754762Y-15172428D01*
X19754762Y-15172428D02*
X19778571Y-15220047D01*
X19778571Y-15220047D02*
X19778571Y-15291476D01*
X19778571Y-15291476D02*
X19754762Y-15339095D01*
X19754762Y-15339095D02*
X19730952Y-15362904D01*
X19730952Y-15362904D02*
X19683333Y-15386714D01*
X19683333Y-15386714D02*
X19492857Y-15386714D01*
X20254762Y-15624809D02*
X19969048Y-15624809D01*
X20111905Y-15624809D02*
X20111905Y-15124809D01*
X20111905Y-15124809D02*
X20064286Y-15196238D01*
X20064286Y-15196238D02*
X20016667Y-15243857D01*
X20016667Y-15243857D02*
X19969048Y-15267666D01*
X20683333Y-15124809D02*
X20588095Y-15124809D01*
X20588095Y-15124809D02*
X20540476Y-15148619D01*
X20540476Y-15148619D02*
X20516666Y-15172428D01*
X20516666Y-15172428D02*
X20469047Y-15243857D01*
X20469047Y-15243857D02*
X20445238Y-15339095D01*
X20445238Y-15339095D02*
X20445238Y-15529571D01*
X20445238Y-15529571D02*
X20469047Y-15577190D01*
X20469047Y-15577190D02*
X20492857Y-15601000D01*
X20492857Y-15601000D02*
X20540476Y-15624809D01*
X20540476Y-15624809D02*
X20635714Y-15624809D01*
X20635714Y-15624809D02*
X20683333Y-15601000D01*
X20683333Y-15601000D02*
X20707142Y-15577190D01*
X20707142Y-15577190D02*
X20730952Y-15529571D01*
X20730952Y-15529571D02*
X20730952Y-15410523D01*
X20730952Y-15410523D02*
X20707142Y-15362904D01*
X20707142Y-15362904D02*
X20683333Y-15339095D01*
X20683333Y-15339095D02*
X20635714Y-15315285D01*
X20635714Y-15315285D02*
X20540476Y-15315285D01*
X20540476Y-15315285D02*
X20492857Y-15339095D01*
X20492857Y-15339095D02*
X20469047Y-15362904D01*
X20469047Y-15362904D02*
X20445238Y-15410523D01*
X13178571Y-10239690D02*
X13154762Y-10263500D01*
X13154762Y-10263500D02*
X13083333Y-10287309D01*
X13083333Y-10287309D02*
X13035714Y-10287309D01*
X13035714Y-10287309D02*
X12964286Y-10263500D01*
X12964286Y-10263500D02*
X12916667Y-10215880D01*
X12916667Y-10215880D02*
X12892857Y-10168261D01*
X12892857Y-10168261D02*
X12869048Y-10073023D01*
X12869048Y-10073023D02*
X12869048Y-10001595D01*
X12869048Y-10001595D02*
X12892857Y-9906357D01*
X12892857Y-9906357D02*
X12916667Y-9858738D01*
X12916667Y-9858738D02*
X12964286Y-9811119D01*
X12964286Y-9811119D02*
X13035714Y-9787309D01*
X13035714Y-9787309D02*
X13083333Y-9787309D01*
X13083333Y-9787309D02*
X13154762Y-9811119D01*
X13154762Y-9811119D02*
X13178571Y-9834928D01*
X13345238Y-9787309D02*
X13654762Y-9787309D01*
X13654762Y-9787309D02*
X13488095Y-9977785D01*
X13488095Y-9977785D02*
X13559524Y-9977785D01*
X13559524Y-9977785D02*
X13607143Y-10001595D01*
X13607143Y-10001595D02*
X13630952Y-10025404D01*
X13630952Y-10025404D02*
X13654762Y-10073023D01*
X13654762Y-10073023D02*
X13654762Y-10192071D01*
X13654762Y-10192071D02*
X13630952Y-10239690D01*
X13630952Y-10239690D02*
X13607143Y-10263500D01*
X13607143Y-10263500D02*
X13559524Y-10287309D01*
X13559524Y-10287309D02*
X13416667Y-10287309D01*
X13416667Y-10287309D02*
X13369048Y-10263500D01*
X13369048Y-10263500D02*
X13345238Y-10239690D01*
X13821428Y-9787309D02*
X14130952Y-9787309D01*
X14130952Y-9787309D02*
X13964285Y-9977785D01*
X13964285Y-9977785D02*
X14035714Y-9977785D01*
X14035714Y-9977785D02*
X14083333Y-10001595D01*
X14083333Y-10001595D02*
X14107142Y-10025404D01*
X14107142Y-10025404D02*
X14130952Y-10073023D01*
X14130952Y-10073023D02*
X14130952Y-10192071D01*
X14130952Y-10192071D02*
X14107142Y-10239690D01*
X14107142Y-10239690D02*
X14083333Y-10263500D01*
X14083333Y-10263500D02*
X14035714Y-10287309D01*
X14035714Y-10287309D02*
X13892857Y-10287309D01*
X13892857Y-10287309D02*
X13845238Y-10263500D01*
X13845238Y-10263500D02*
X13821428Y-10239690D01*
X24801000Y-26959523D02*
X24824809Y-26888095D01*
X24824809Y-26888095D02*
X24824809Y-26769047D01*
X24824809Y-26769047D02*
X24801000Y-26721428D01*
X24801000Y-26721428D02*
X24777190Y-26697619D01*
X24777190Y-26697619D02*
X24729571Y-26673809D01*
X24729571Y-26673809D02*
X24681952Y-26673809D01*
X24681952Y-26673809D02*
X24634333Y-26697619D01*
X24634333Y-26697619D02*
X24610523Y-26721428D01*
X24610523Y-26721428D02*
X24586714Y-26769047D01*
X24586714Y-26769047D02*
X24562904Y-26864285D01*
X24562904Y-26864285D02*
X24539095Y-26911904D01*
X24539095Y-26911904D02*
X24515285Y-26935714D01*
X24515285Y-26935714D02*
X24467666Y-26959523D01*
X24467666Y-26959523D02*
X24420047Y-26959523D01*
X24420047Y-26959523D02*
X24372428Y-26935714D01*
X24372428Y-26935714D02*
X24348619Y-26911904D01*
X24348619Y-26911904D02*
X24324809Y-26864285D01*
X24324809Y-26864285D02*
X24324809Y-26745238D01*
X24324809Y-26745238D02*
X24348619Y-26673809D01*
X24324809Y-26507143D02*
X24824809Y-26388095D01*
X24824809Y-26388095D02*
X24467666Y-26292857D01*
X24467666Y-26292857D02*
X24824809Y-26197619D01*
X24824809Y-26197619D02*
X24324809Y-26078572D01*
X24824809Y-25888095D02*
X24324809Y-25888095D01*
X24324809Y-25888095D02*
X24324809Y-25769047D01*
X24324809Y-25769047D02*
X24348619Y-25697619D01*
X24348619Y-25697619D02*
X24396238Y-25650000D01*
X24396238Y-25650000D02*
X24443857Y-25626190D01*
X24443857Y-25626190D02*
X24539095Y-25602381D01*
X24539095Y-25602381D02*
X24610523Y-25602381D01*
X24610523Y-25602381D02*
X24705761Y-25626190D01*
X24705761Y-25626190D02*
X24753380Y-25650000D01*
X24753380Y-25650000D02*
X24801000Y-25697619D01*
X24801000Y-25697619D02*
X24824809Y-25769047D01*
X24824809Y-25769047D02*
X24824809Y-25888095D01*
X24824809Y-25388095D02*
X24324809Y-25388095D01*
X24324809Y-25054762D02*
X24324809Y-24959524D01*
X24324809Y-24959524D02*
X24348619Y-24911905D01*
X24348619Y-24911905D02*
X24396238Y-24864286D01*
X24396238Y-24864286D02*
X24491476Y-24840476D01*
X24491476Y-24840476D02*
X24658142Y-24840476D01*
X24658142Y-24840476D02*
X24753380Y-24864286D01*
X24753380Y-24864286D02*
X24801000Y-24911905D01*
X24801000Y-24911905D02*
X24824809Y-24959524D01*
X24824809Y-24959524D02*
X24824809Y-25054762D01*
X24824809Y-25054762D02*
X24801000Y-25102381D01*
X24801000Y-25102381D02*
X24753380Y-25150000D01*
X24753380Y-25150000D02*
X24658142Y-25173809D01*
X24658142Y-25173809D02*
X24491476Y-25173809D01*
X24491476Y-25173809D02*
X24396238Y-25150000D01*
X24396238Y-25150000D02*
X24348619Y-25102381D01*
X24348619Y-25102381D02*
X24324809Y-25054762D01*
X12516666Y-13624809D02*
X12350000Y-13386714D01*
X12230952Y-13624809D02*
X12230952Y-13124809D01*
X12230952Y-13124809D02*
X12421428Y-13124809D01*
X12421428Y-13124809D02*
X12469047Y-13148619D01*
X12469047Y-13148619D02*
X12492857Y-13172428D01*
X12492857Y-13172428D02*
X12516666Y-13220047D01*
X12516666Y-13220047D02*
X12516666Y-13291476D01*
X12516666Y-13291476D02*
X12492857Y-13339095D01*
X12492857Y-13339095D02*
X12469047Y-13362904D01*
X12469047Y-13362904D02*
X12421428Y-13386714D01*
X12421428Y-13386714D02*
X12230952Y-13386714D01*
X12683333Y-13124809D02*
X12992857Y-13124809D01*
X12992857Y-13124809D02*
X12826190Y-13315285D01*
X12826190Y-13315285D02*
X12897619Y-13315285D01*
X12897619Y-13315285D02*
X12945238Y-13339095D01*
X12945238Y-13339095D02*
X12969047Y-13362904D01*
X12969047Y-13362904D02*
X12992857Y-13410523D01*
X12992857Y-13410523D02*
X12992857Y-13529571D01*
X12992857Y-13529571D02*
X12969047Y-13577190D01*
X12969047Y-13577190D02*
X12945238Y-13601000D01*
X12945238Y-13601000D02*
X12897619Y-13624809D01*
X12897619Y-13624809D02*
X12754762Y-13624809D01*
X12754762Y-13624809D02*
X12707143Y-13601000D01*
X12707143Y-13601000D02*
X12683333Y-13577190D01*
X22883809Y-7721428D02*
X22645714Y-7888094D01*
X22883809Y-8007142D02*
X22383809Y-8007142D01*
X22383809Y-8007142D02*
X22383809Y-7816666D01*
X22383809Y-7816666D02*
X22407619Y-7769047D01*
X22407619Y-7769047D02*
X22431428Y-7745237D01*
X22431428Y-7745237D02*
X22479047Y-7721428D01*
X22479047Y-7721428D02*
X22550476Y-7721428D01*
X22550476Y-7721428D02*
X22598095Y-7745237D01*
X22598095Y-7745237D02*
X22621904Y-7769047D01*
X22621904Y-7769047D02*
X22645714Y-7816666D01*
X22645714Y-7816666D02*
X22645714Y-8007142D01*
X22883809Y-7245237D02*
X22883809Y-7530951D01*
X22883809Y-7388094D02*
X22383809Y-7388094D01*
X22383809Y-7388094D02*
X22455238Y-7435713D01*
X22455238Y-7435713D02*
X22502857Y-7483332D01*
X22502857Y-7483332D02*
X22526666Y-7530951D01*
X22431428Y-7054761D02*
X22407619Y-7030952D01*
X22407619Y-7030952D02*
X22383809Y-6983333D01*
X22383809Y-6983333D02*
X22383809Y-6864285D01*
X22383809Y-6864285D02*
X22407619Y-6816666D01*
X22407619Y-6816666D02*
X22431428Y-6792857D01*
X22431428Y-6792857D02*
X22479047Y-6769047D01*
X22479047Y-6769047D02*
X22526666Y-6769047D01*
X22526666Y-6769047D02*
X22598095Y-6792857D01*
X22598095Y-6792857D02*
X22883809Y-7078571D01*
X22883809Y-7078571D02*
X22883809Y-6769047D01*
X10778571Y-31734809D02*
X10611905Y-31496714D01*
X10492857Y-31734809D02*
X10492857Y-31234809D01*
X10492857Y-31234809D02*
X10683333Y-31234809D01*
X10683333Y-31234809D02*
X10730952Y-31258619D01*
X10730952Y-31258619D02*
X10754762Y-31282428D01*
X10754762Y-31282428D02*
X10778571Y-31330047D01*
X10778571Y-31330047D02*
X10778571Y-31401476D01*
X10778571Y-31401476D02*
X10754762Y-31449095D01*
X10754762Y-31449095D02*
X10730952Y-31472904D01*
X10730952Y-31472904D02*
X10683333Y-31496714D01*
X10683333Y-31496714D02*
X10492857Y-31496714D01*
X10945238Y-31234809D02*
X11278571Y-31734809D01*
X11278571Y-31234809D02*
X10945238Y-31734809D01*
X11683333Y-31401476D02*
X11683333Y-31734809D01*
X11564285Y-31211000D02*
X11445238Y-31568142D01*
X11445238Y-31568142D02*
X11754761Y-31568142D01*
X14077190Y-20321428D02*
X14101000Y-20345237D01*
X14101000Y-20345237D02*
X14124809Y-20416666D01*
X14124809Y-20416666D02*
X14124809Y-20464285D01*
X14124809Y-20464285D02*
X14101000Y-20535713D01*
X14101000Y-20535713D02*
X14053380Y-20583332D01*
X14053380Y-20583332D02*
X14005761Y-20607142D01*
X14005761Y-20607142D02*
X13910523Y-20630951D01*
X13910523Y-20630951D02*
X13839095Y-20630951D01*
X13839095Y-20630951D02*
X13743857Y-20607142D01*
X13743857Y-20607142D02*
X13696238Y-20583332D01*
X13696238Y-20583332D02*
X13648619Y-20535713D01*
X13648619Y-20535713D02*
X13624809Y-20464285D01*
X13624809Y-20464285D02*
X13624809Y-20416666D01*
X13624809Y-20416666D02*
X13648619Y-20345237D01*
X13648619Y-20345237D02*
X13672428Y-20321428D01*
X13672428Y-20130951D02*
X13648619Y-20107142D01*
X13648619Y-20107142D02*
X13624809Y-20059523D01*
X13624809Y-20059523D02*
X13624809Y-19940475D01*
X13624809Y-19940475D02*
X13648619Y-19892856D01*
X13648619Y-19892856D02*
X13672428Y-19869047D01*
X13672428Y-19869047D02*
X13720047Y-19845237D01*
X13720047Y-19845237D02*
X13767666Y-19845237D01*
X13767666Y-19845237D02*
X13839095Y-19869047D01*
X13839095Y-19869047D02*
X14124809Y-20154761D01*
X14124809Y-20154761D02*
X14124809Y-19845237D01*
X14124809Y-19369047D02*
X14124809Y-19654761D01*
X14124809Y-19511904D02*
X13624809Y-19511904D01*
X13624809Y-19511904D02*
X13696238Y-19559523D01*
X13696238Y-19559523D02*
X13743857Y-19607142D01*
X13743857Y-19607142D02*
X13767666Y-19654761D01*
X18377190Y-26783333D02*
X18401000Y-26807142D01*
X18401000Y-26807142D02*
X18424809Y-26878571D01*
X18424809Y-26878571D02*
X18424809Y-26926190D01*
X18424809Y-26926190D02*
X18401000Y-26997618D01*
X18401000Y-26997618D02*
X18353380Y-27045237D01*
X18353380Y-27045237D02*
X18305761Y-27069047D01*
X18305761Y-27069047D02*
X18210523Y-27092856D01*
X18210523Y-27092856D02*
X18139095Y-27092856D01*
X18139095Y-27092856D02*
X18043857Y-27069047D01*
X18043857Y-27069047D02*
X17996238Y-27045237D01*
X17996238Y-27045237D02*
X17948619Y-26997618D01*
X17948619Y-26997618D02*
X17924809Y-26926190D01*
X17924809Y-26926190D02*
X17924809Y-26878571D01*
X17924809Y-26878571D02*
X17948619Y-26807142D01*
X17948619Y-26807142D02*
X17972428Y-26783333D01*
X17924809Y-26616666D02*
X17924809Y-26307142D01*
X17924809Y-26307142D02*
X18115285Y-26473809D01*
X18115285Y-26473809D02*
X18115285Y-26402380D01*
X18115285Y-26402380D02*
X18139095Y-26354761D01*
X18139095Y-26354761D02*
X18162904Y-26330952D01*
X18162904Y-26330952D02*
X18210523Y-26307142D01*
X18210523Y-26307142D02*
X18329571Y-26307142D01*
X18329571Y-26307142D02*
X18377190Y-26330952D01*
X18377190Y-26330952D02*
X18401000Y-26354761D01*
X18401000Y-26354761D02*
X18424809Y-26402380D01*
X18424809Y-26402380D02*
X18424809Y-26545237D01*
X18424809Y-26545237D02*
X18401000Y-26592856D01*
X18401000Y-26592856D02*
X18377190Y-26616666D01*
X32424809Y-14983333D02*
X32186714Y-15149999D01*
X32424809Y-15269047D02*
X31924809Y-15269047D01*
X31924809Y-15269047D02*
X31924809Y-15078571D01*
X31924809Y-15078571D02*
X31948619Y-15030952D01*
X31948619Y-15030952D02*
X31972428Y-15007142D01*
X31972428Y-15007142D02*
X32020047Y-14983333D01*
X32020047Y-14983333D02*
X32091476Y-14983333D01*
X32091476Y-14983333D02*
X32139095Y-15007142D01*
X32139095Y-15007142D02*
X32162904Y-15030952D01*
X32162904Y-15030952D02*
X32186714Y-15078571D01*
X32186714Y-15078571D02*
X32186714Y-15269047D01*
X32091476Y-14554761D02*
X32424809Y-14554761D01*
X31901000Y-14673809D02*
X32258142Y-14792856D01*
X32258142Y-14792856D02*
X32258142Y-14483333D01*
X13178571Y-9077190D02*
X13154762Y-9101000D01*
X13154762Y-9101000D02*
X13083333Y-9124809D01*
X13083333Y-9124809D02*
X13035714Y-9124809D01*
X13035714Y-9124809D02*
X12964286Y-9101000D01*
X12964286Y-9101000D02*
X12916667Y-9053380D01*
X12916667Y-9053380D02*
X12892857Y-9005761D01*
X12892857Y-9005761D02*
X12869048Y-8910523D01*
X12869048Y-8910523D02*
X12869048Y-8839095D01*
X12869048Y-8839095D02*
X12892857Y-8743857D01*
X12892857Y-8743857D02*
X12916667Y-8696238D01*
X12916667Y-8696238D02*
X12964286Y-8648619D01*
X12964286Y-8648619D02*
X13035714Y-8624809D01*
X13035714Y-8624809D02*
X13083333Y-8624809D01*
X13083333Y-8624809D02*
X13154762Y-8648619D01*
X13154762Y-8648619D02*
X13178571Y-8672428D01*
X13369048Y-8672428D02*
X13392857Y-8648619D01*
X13392857Y-8648619D02*
X13440476Y-8624809D01*
X13440476Y-8624809D02*
X13559524Y-8624809D01*
X13559524Y-8624809D02*
X13607143Y-8648619D01*
X13607143Y-8648619D02*
X13630952Y-8672428D01*
X13630952Y-8672428D02*
X13654762Y-8720047D01*
X13654762Y-8720047D02*
X13654762Y-8767666D01*
X13654762Y-8767666D02*
X13630952Y-8839095D01*
X13630952Y-8839095D02*
X13345238Y-9124809D01*
X13345238Y-9124809D02*
X13654762Y-9124809D01*
X13845238Y-8672428D02*
X13869047Y-8648619D01*
X13869047Y-8648619D02*
X13916666Y-8624809D01*
X13916666Y-8624809D02*
X14035714Y-8624809D01*
X14035714Y-8624809D02*
X14083333Y-8648619D01*
X14083333Y-8648619D02*
X14107142Y-8672428D01*
X14107142Y-8672428D02*
X14130952Y-8720047D01*
X14130952Y-8720047D02*
X14130952Y-8767666D01*
X14130952Y-8767666D02*
X14107142Y-8839095D01*
X14107142Y-8839095D02*
X13821428Y-9124809D01*
X13821428Y-9124809D02*
X14130952Y-9124809D01*
X7578571Y-23177190D02*
X7554762Y-23201000D01*
X7554762Y-23201000D02*
X7483333Y-23224809D01*
X7483333Y-23224809D02*
X7435714Y-23224809D01*
X7435714Y-23224809D02*
X7364286Y-23201000D01*
X7364286Y-23201000D02*
X7316667Y-23153380D01*
X7316667Y-23153380D02*
X7292857Y-23105761D01*
X7292857Y-23105761D02*
X7269048Y-23010523D01*
X7269048Y-23010523D02*
X7269048Y-22939095D01*
X7269048Y-22939095D02*
X7292857Y-22843857D01*
X7292857Y-22843857D02*
X7316667Y-22796238D01*
X7316667Y-22796238D02*
X7364286Y-22748619D01*
X7364286Y-22748619D02*
X7435714Y-22724809D01*
X7435714Y-22724809D02*
X7483333Y-22724809D01*
X7483333Y-22724809D02*
X7554762Y-22748619D01*
X7554762Y-22748619D02*
X7578571Y-22772428D01*
X7769048Y-22772428D02*
X7792857Y-22748619D01*
X7792857Y-22748619D02*
X7840476Y-22724809D01*
X7840476Y-22724809D02*
X7959524Y-22724809D01*
X7959524Y-22724809D02*
X8007143Y-22748619D01*
X8007143Y-22748619D02*
X8030952Y-22772428D01*
X8030952Y-22772428D02*
X8054762Y-22820047D01*
X8054762Y-22820047D02*
X8054762Y-22867666D01*
X8054762Y-22867666D02*
X8030952Y-22939095D01*
X8030952Y-22939095D02*
X7745238Y-23224809D01*
X7745238Y-23224809D02*
X8054762Y-23224809D01*
X8340476Y-22939095D02*
X8292857Y-22915285D01*
X8292857Y-22915285D02*
X8269047Y-22891476D01*
X8269047Y-22891476D02*
X8245238Y-22843857D01*
X8245238Y-22843857D02*
X8245238Y-22820047D01*
X8245238Y-22820047D02*
X8269047Y-22772428D01*
X8269047Y-22772428D02*
X8292857Y-22748619D01*
X8292857Y-22748619D02*
X8340476Y-22724809D01*
X8340476Y-22724809D02*
X8435714Y-22724809D01*
X8435714Y-22724809D02*
X8483333Y-22748619D01*
X8483333Y-22748619D02*
X8507142Y-22772428D01*
X8507142Y-22772428D02*
X8530952Y-22820047D01*
X8530952Y-22820047D02*
X8530952Y-22843857D01*
X8530952Y-22843857D02*
X8507142Y-22891476D01*
X8507142Y-22891476D02*
X8483333Y-22915285D01*
X8483333Y-22915285D02*
X8435714Y-22939095D01*
X8435714Y-22939095D02*
X8340476Y-22939095D01*
X8340476Y-22939095D02*
X8292857Y-22962904D01*
X8292857Y-22962904D02*
X8269047Y-22986714D01*
X8269047Y-22986714D02*
X8245238Y-23034333D01*
X8245238Y-23034333D02*
X8245238Y-23129571D01*
X8245238Y-23129571D02*
X8269047Y-23177190D01*
X8269047Y-23177190D02*
X8292857Y-23201000D01*
X8292857Y-23201000D02*
X8340476Y-23224809D01*
X8340476Y-23224809D02*
X8435714Y-23224809D01*
X8435714Y-23224809D02*
X8483333Y-23201000D01*
X8483333Y-23201000D02*
X8507142Y-23177190D01*
X8507142Y-23177190D02*
X8530952Y-23129571D01*
X8530952Y-23129571D02*
X8530952Y-23034333D01*
X8530952Y-23034333D02*
X8507142Y-22986714D01*
X8507142Y-22986714D02*
X8483333Y-22962904D01*
X8483333Y-22962904D02*
X8435714Y-22939095D01*
X12680953Y-31234809D02*
X12966667Y-31234809D01*
X12823810Y-31734809D02*
X12823810Y-31234809D01*
X13085714Y-31234809D02*
X13419047Y-31734809D01*
X13419047Y-31234809D02*
X13085714Y-31734809D01*
X13823809Y-31401476D02*
X13823809Y-31734809D01*
X13704761Y-31211000D02*
X13585714Y-31568142D01*
X13585714Y-31568142D02*
X13895237Y-31568142D01*
X10224809Y-6504761D02*
X9724809Y-6504761D01*
X9724809Y-6504761D02*
X10081952Y-6338094D01*
X10081952Y-6338094D02*
X9724809Y-6171428D01*
X9724809Y-6171428D02*
X10224809Y-6171428D01*
X9891476Y-5719046D02*
X10224809Y-5719046D01*
X9701000Y-5838094D02*
X10058142Y-5957141D01*
X10058142Y-5957141D02*
X10058142Y-5647618D01*
X25178571Y-17977190D02*
X25154762Y-18001000D01*
X25154762Y-18001000D02*
X25083333Y-18024809D01*
X25083333Y-18024809D02*
X25035714Y-18024809D01*
X25035714Y-18024809D02*
X24964286Y-18001000D01*
X24964286Y-18001000D02*
X24916667Y-17953380D01*
X24916667Y-17953380D02*
X24892857Y-17905761D01*
X24892857Y-17905761D02*
X24869048Y-17810523D01*
X24869048Y-17810523D02*
X24869048Y-17739095D01*
X24869048Y-17739095D02*
X24892857Y-17643857D01*
X24892857Y-17643857D02*
X24916667Y-17596238D01*
X24916667Y-17596238D02*
X24964286Y-17548619D01*
X24964286Y-17548619D02*
X25035714Y-17524809D01*
X25035714Y-17524809D02*
X25083333Y-17524809D01*
X25083333Y-17524809D02*
X25154762Y-17548619D01*
X25154762Y-17548619D02*
X25178571Y-17572428D01*
X25654762Y-18024809D02*
X25369048Y-18024809D01*
X25511905Y-18024809D02*
X25511905Y-17524809D01*
X25511905Y-17524809D02*
X25464286Y-17596238D01*
X25464286Y-17596238D02*
X25416667Y-17643857D01*
X25416667Y-17643857D02*
X25369048Y-17667666D01*
X26130952Y-18024809D02*
X25845238Y-18024809D01*
X25988095Y-18024809D02*
X25988095Y-17524809D01*
X25988095Y-17524809D02*
X25940476Y-17596238D01*
X25940476Y-17596238D02*
X25892857Y-17643857D01*
X25892857Y-17643857D02*
X25845238Y-17667666D01*
X13916666Y-13577190D02*
X13892857Y-13601000D01*
X13892857Y-13601000D02*
X13821428Y-13624809D01*
X13821428Y-13624809D02*
X13773809Y-13624809D01*
X13773809Y-13624809D02*
X13702381Y-13601000D01*
X13702381Y-13601000D02*
X13654762Y-13553380D01*
X13654762Y-13553380D02*
X13630952Y-13505761D01*
X13630952Y-13505761D02*
X13607143Y-13410523D01*
X13607143Y-13410523D02*
X13607143Y-13339095D01*
X13607143Y-13339095D02*
X13630952Y-13243857D01*
X13630952Y-13243857D02*
X13654762Y-13196238D01*
X13654762Y-13196238D02*
X13702381Y-13148619D01*
X13702381Y-13148619D02*
X13773809Y-13124809D01*
X13773809Y-13124809D02*
X13821428Y-13124809D01*
X13821428Y-13124809D02*
X13892857Y-13148619D01*
X13892857Y-13148619D02*
X13916666Y-13172428D01*
X14345238Y-13124809D02*
X14250000Y-13124809D01*
X14250000Y-13124809D02*
X14202381Y-13148619D01*
X14202381Y-13148619D02*
X14178571Y-13172428D01*
X14178571Y-13172428D02*
X14130952Y-13243857D01*
X14130952Y-13243857D02*
X14107143Y-13339095D01*
X14107143Y-13339095D02*
X14107143Y-13529571D01*
X14107143Y-13529571D02*
X14130952Y-13577190D01*
X14130952Y-13577190D02*
X14154762Y-13601000D01*
X14154762Y-13601000D02*
X14202381Y-13624809D01*
X14202381Y-13624809D02*
X14297619Y-13624809D01*
X14297619Y-13624809D02*
X14345238Y-13601000D01*
X14345238Y-13601000D02*
X14369047Y-13577190D01*
X14369047Y-13577190D02*
X14392857Y-13529571D01*
X14392857Y-13529571D02*
X14392857Y-13410523D01*
X14392857Y-13410523D02*
X14369047Y-13362904D01*
X14369047Y-13362904D02*
X14345238Y-13339095D01*
X14345238Y-13339095D02*
X14297619Y-13315285D01*
X14297619Y-13315285D02*
X14202381Y-13315285D01*
X14202381Y-13315285D02*
X14154762Y-13339095D01*
X14154762Y-13339095D02*
X14130952Y-13362904D01*
X14130952Y-13362904D02*
X14107143Y-13410523D01*
X27524809Y-11021428D02*
X27286714Y-11188094D01*
X27524809Y-11307142D02*
X27024809Y-11307142D01*
X27024809Y-11307142D02*
X27024809Y-11116666D01*
X27024809Y-11116666D02*
X27048619Y-11069047D01*
X27048619Y-11069047D02*
X27072428Y-11045237D01*
X27072428Y-11045237D02*
X27120047Y-11021428D01*
X27120047Y-11021428D02*
X27191476Y-11021428D01*
X27191476Y-11021428D02*
X27239095Y-11045237D01*
X27239095Y-11045237D02*
X27262904Y-11069047D01*
X27262904Y-11069047D02*
X27286714Y-11116666D01*
X27286714Y-11116666D02*
X27286714Y-11307142D01*
X27524809Y-10545237D02*
X27524809Y-10830951D01*
X27524809Y-10688094D02*
X27024809Y-10688094D01*
X27024809Y-10688094D02*
X27096238Y-10735713D01*
X27096238Y-10735713D02*
X27143857Y-10783332D01*
X27143857Y-10783332D02*
X27167666Y-10830951D01*
X27524809Y-10307142D02*
X27524809Y-10211904D01*
X27524809Y-10211904D02*
X27501000Y-10164285D01*
X27501000Y-10164285D02*
X27477190Y-10140476D01*
X27477190Y-10140476D02*
X27405761Y-10092857D01*
X27405761Y-10092857D02*
X27310523Y-10069047D01*
X27310523Y-10069047D02*
X27120047Y-10069047D01*
X27120047Y-10069047D02*
X27072428Y-10092857D01*
X27072428Y-10092857D02*
X27048619Y-10116666D01*
X27048619Y-10116666D02*
X27024809Y-10164285D01*
X27024809Y-10164285D02*
X27024809Y-10259523D01*
X27024809Y-10259523D02*
X27048619Y-10307142D01*
X27048619Y-10307142D02*
X27072428Y-10330952D01*
X27072428Y-10330952D02*
X27120047Y-10354761D01*
X27120047Y-10354761D02*
X27239095Y-10354761D01*
X27239095Y-10354761D02*
X27286714Y-10330952D01*
X27286714Y-10330952D02*
X27310523Y-10307142D01*
X27310523Y-10307142D02*
X27334333Y-10259523D01*
X27334333Y-10259523D02*
X27334333Y-10164285D01*
X27334333Y-10164285D02*
X27310523Y-10116666D01*
X27310523Y-10116666D02*
X27286714Y-10092857D01*
X27286714Y-10092857D02*
X27239095Y-10069047D01*
X21077190Y-29021428D02*
X21101000Y-29045237D01*
X21101000Y-29045237D02*
X21124809Y-29116666D01*
X21124809Y-29116666D02*
X21124809Y-29164285D01*
X21124809Y-29164285D02*
X21101000Y-29235713D01*
X21101000Y-29235713D02*
X21053380Y-29283332D01*
X21053380Y-29283332D02*
X21005761Y-29307142D01*
X21005761Y-29307142D02*
X20910523Y-29330951D01*
X20910523Y-29330951D02*
X20839095Y-29330951D01*
X20839095Y-29330951D02*
X20743857Y-29307142D01*
X20743857Y-29307142D02*
X20696238Y-29283332D01*
X20696238Y-29283332D02*
X20648619Y-29235713D01*
X20648619Y-29235713D02*
X20624809Y-29164285D01*
X20624809Y-29164285D02*
X20624809Y-29116666D01*
X20624809Y-29116666D02*
X20648619Y-29045237D01*
X20648619Y-29045237D02*
X20672428Y-29021428D01*
X20672428Y-28830951D02*
X20648619Y-28807142D01*
X20648619Y-28807142D02*
X20624809Y-28759523D01*
X20624809Y-28759523D02*
X20624809Y-28640475D01*
X20624809Y-28640475D02*
X20648619Y-28592856D01*
X20648619Y-28592856D02*
X20672428Y-28569047D01*
X20672428Y-28569047D02*
X20720047Y-28545237D01*
X20720047Y-28545237D02*
X20767666Y-28545237D01*
X20767666Y-28545237D02*
X20839095Y-28569047D01*
X20839095Y-28569047D02*
X21124809Y-28854761D01*
X21124809Y-28854761D02*
X21124809Y-28545237D01*
X20624809Y-28092857D02*
X20624809Y-28330952D01*
X20624809Y-28330952D02*
X20862904Y-28354761D01*
X20862904Y-28354761D02*
X20839095Y-28330952D01*
X20839095Y-28330952D02*
X20815285Y-28283333D01*
X20815285Y-28283333D02*
X20815285Y-28164285D01*
X20815285Y-28164285D02*
X20839095Y-28116666D01*
X20839095Y-28116666D02*
X20862904Y-28092857D01*
X20862904Y-28092857D02*
X20910523Y-28069047D01*
X20910523Y-28069047D02*
X21029571Y-28069047D01*
X21029571Y-28069047D02*
X21077190Y-28092857D01*
X21077190Y-28092857D02*
X21101000Y-28116666D01*
X21101000Y-28116666D02*
X21124809Y-28164285D01*
X21124809Y-28164285D02*
X21124809Y-28283333D01*
X21124809Y-28283333D02*
X21101000Y-28330952D01*
X21101000Y-28330952D02*
X21077190Y-28354761D01*
X1877190Y-6313333D02*
X1901000Y-6337142D01*
X1901000Y-6337142D02*
X1924809Y-6408571D01*
X1924809Y-6408571D02*
X1924809Y-6456190D01*
X1924809Y-6456190D02*
X1901000Y-6527618D01*
X1901000Y-6527618D02*
X1853380Y-6575237D01*
X1853380Y-6575237D02*
X1805761Y-6599047D01*
X1805761Y-6599047D02*
X1710523Y-6622856D01*
X1710523Y-6622856D02*
X1639095Y-6622856D01*
X1639095Y-6622856D02*
X1543857Y-6599047D01*
X1543857Y-6599047D02*
X1496238Y-6575237D01*
X1496238Y-6575237D02*
X1448619Y-6527618D01*
X1448619Y-6527618D02*
X1424809Y-6456190D01*
X1424809Y-6456190D02*
X1424809Y-6408571D01*
X1424809Y-6408571D02*
X1448619Y-6337142D01*
X1448619Y-6337142D02*
X1472428Y-6313333D01*
X1472428Y-6122856D02*
X1448619Y-6099047D01*
X1448619Y-6099047D02*
X1424809Y-6051428D01*
X1424809Y-6051428D02*
X1424809Y-5932380D01*
X1424809Y-5932380D02*
X1448619Y-5884761D01*
X1448619Y-5884761D02*
X1472428Y-5860952D01*
X1472428Y-5860952D02*
X1520047Y-5837142D01*
X1520047Y-5837142D02*
X1567666Y-5837142D01*
X1567666Y-5837142D02*
X1639095Y-5860952D01*
X1639095Y-5860952D02*
X1924809Y-6146666D01*
X1924809Y-6146666D02*
X1924809Y-5837142D01*
X5024809Y-16380952D02*
X5429571Y-16380952D01*
X5429571Y-16380952D02*
X5477190Y-16357142D01*
X5477190Y-16357142D02*
X5501000Y-16333333D01*
X5501000Y-16333333D02*
X5524809Y-16285714D01*
X5524809Y-16285714D02*
X5524809Y-16190476D01*
X5524809Y-16190476D02*
X5501000Y-16142857D01*
X5501000Y-16142857D02*
X5477190Y-16119047D01*
X5477190Y-16119047D02*
X5429571Y-16095238D01*
X5429571Y-16095238D02*
X5024809Y-16095238D01*
X5024809Y-15904761D02*
X5024809Y-15595237D01*
X5024809Y-15595237D02*
X5215285Y-15761904D01*
X5215285Y-15761904D02*
X5215285Y-15690475D01*
X5215285Y-15690475D02*
X5239095Y-15642856D01*
X5239095Y-15642856D02*
X5262904Y-15619047D01*
X5262904Y-15619047D02*
X5310523Y-15595237D01*
X5310523Y-15595237D02*
X5429571Y-15595237D01*
X5429571Y-15595237D02*
X5477190Y-15619047D01*
X5477190Y-15619047D02*
X5501000Y-15642856D01*
X5501000Y-15642856D02*
X5524809Y-15690475D01*
X5524809Y-15690475D02*
X5524809Y-15833332D01*
X5524809Y-15833332D02*
X5501000Y-15880951D01*
X5501000Y-15880951D02*
X5477190Y-15904761D01*
X2578571Y-18524809D02*
X2411905Y-18286714D01*
X2292857Y-18524809D02*
X2292857Y-18024809D01*
X2292857Y-18024809D02*
X2483333Y-18024809D01*
X2483333Y-18024809D02*
X2530952Y-18048619D01*
X2530952Y-18048619D02*
X2554762Y-18072428D01*
X2554762Y-18072428D02*
X2578571Y-18120047D01*
X2578571Y-18120047D02*
X2578571Y-18191476D01*
X2578571Y-18191476D02*
X2554762Y-18239095D01*
X2554762Y-18239095D02*
X2530952Y-18262904D01*
X2530952Y-18262904D02*
X2483333Y-18286714D01*
X2483333Y-18286714D02*
X2292857Y-18286714D01*
X3054762Y-18524809D02*
X2769048Y-18524809D01*
X2911905Y-18524809D02*
X2911905Y-18024809D01*
X2911905Y-18024809D02*
X2864286Y-18096238D01*
X2864286Y-18096238D02*
X2816667Y-18143857D01*
X2816667Y-18143857D02*
X2769048Y-18167666D01*
X3483333Y-18191476D02*
X3483333Y-18524809D01*
X3364285Y-18001000D02*
X3245238Y-18358142D01*
X3245238Y-18358142D02*
X3554761Y-18358142D01*
X11578571Y-10277190D02*
X11554762Y-10301000D01*
X11554762Y-10301000D02*
X11483333Y-10324809D01*
X11483333Y-10324809D02*
X11435714Y-10324809D01*
X11435714Y-10324809D02*
X11364286Y-10301000D01*
X11364286Y-10301000D02*
X11316667Y-10253380D01*
X11316667Y-10253380D02*
X11292857Y-10205761D01*
X11292857Y-10205761D02*
X11269048Y-10110523D01*
X11269048Y-10110523D02*
X11269048Y-10039095D01*
X11269048Y-10039095D02*
X11292857Y-9943857D01*
X11292857Y-9943857D02*
X11316667Y-9896238D01*
X11316667Y-9896238D02*
X11364286Y-9848619D01*
X11364286Y-9848619D02*
X11435714Y-9824809D01*
X11435714Y-9824809D02*
X11483333Y-9824809D01*
X11483333Y-9824809D02*
X11554762Y-9848619D01*
X11554762Y-9848619D02*
X11578571Y-9872428D01*
X11745238Y-9824809D02*
X12054762Y-9824809D01*
X12054762Y-9824809D02*
X11888095Y-10015285D01*
X11888095Y-10015285D02*
X11959524Y-10015285D01*
X11959524Y-10015285D02*
X12007143Y-10039095D01*
X12007143Y-10039095D02*
X12030952Y-10062904D01*
X12030952Y-10062904D02*
X12054762Y-10110523D01*
X12054762Y-10110523D02*
X12054762Y-10229571D01*
X12054762Y-10229571D02*
X12030952Y-10277190D01*
X12030952Y-10277190D02*
X12007143Y-10301000D01*
X12007143Y-10301000D02*
X11959524Y-10324809D01*
X11959524Y-10324809D02*
X11816667Y-10324809D01*
X11816667Y-10324809D02*
X11769048Y-10301000D01*
X11769048Y-10301000D02*
X11745238Y-10277190D01*
X12245238Y-9872428D02*
X12269047Y-9848619D01*
X12269047Y-9848619D02*
X12316666Y-9824809D01*
X12316666Y-9824809D02*
X12435714Y-9824809D01*
X12435714Y-9824809D02*
X12483333Y-9848619D01*
X12483333Y-9848619D02*
X12507142Y-9872428D01*
X12507142Y-9872428D02*
X12530952Y-9920047D01*
X12530952Y-9920047D02*
X12530952Y-9967666D01*
X12530952Y-9967666D02*
X12507142Y-10039095D01*
X12507142Y-10039095D02*
X12221428Y-10324809D01*
X12221428Y-10324809D02*
X12530952Y-10324809D01*
X13524809Y-25580952D02*
X13929571Y-25580952D01*
X13929571Y-25580952D02*
X13977190Y-25557142D01*
X13977190Y-25557142D02*
X14001000Y-25533333D01*
X14001000Y-25533333D02*
X14024809Y-25485714D01*
X14024809Y-25485714D02*
X14024809Y-25390476D01*
X14024809Y-25390476D02*
X14001000Y-25342857D01*
X14001000Y-25342857D02*
X13977190Y-25319047D01*
X13977190Y-25319047D02*
X13929571Y-25295238D01*
X13929571Y-25295238D02*
X13524809Y-25295238D01*
X13572428Y-25080951D02*
X13548619Y-25057142D01*
X13548619Y-25057142D02*
X13524809Y-25009523D01*
X13524809Y-25009523D02*
X13524809Y-24890475D01*
X13524809Y-24890475D02*
X13548619Y-24842856D01*
X13548619Y-24842856D02*
X13572428Y-24819047D01*
X13572428Y-24819047D02*
X13620047Y-24795237D01*
X13620047Y-24795237D02*
X13667666Y-24795237D01*
X13667666Y-24795237D02*
X13739095Y-24819047D01*
X13739095Y-24819047D02*
X14024809Y-25104761D01*
X14024809Y-25104761D02*
X14024809Y-24795237D01*
X12692858Y-28501000D02*
X12764286Y-28524809D01*
X12764286Y-28524809D02*
X12883334Y-28524809D01*
X12883334Y-28524809D02*
X12930953Y-28501000D01*
X12930953Y-28501000D02*
X12954762Y-28477190D01*
X12954762Y-28477190D02*
X12978572Y-28429571D01*
X12978572Y-28429571D02*
X12978572Y-28381952D01*
X12978572Y-28381952D02*
X12954762Y-28334333D01*
X12954762Y-28334333D02*
X12930953Y-28310523D01*
X12930953Y-28310523D02*
X12883334Y-28286714D01*
X12883334Y-28286714D02*
X12788096Y-28262904D01*
X12788096Y-28262904D02*
X12740477Y-28239095D01*
X12740477Y-28239095D02*
X12716667Y-28215285D01*
X12716667Y-28215285D02*
X12692858Y-28167666D01*
X12692858Y-28167666D02*
X12692858Y-28120047D01*
X12692858Y-28120047D02*
X12716667Y-28072428D01*
X12716667Y-28072428D02*
X12740477Y-28048619D01*
X12740477Y-28048619D02*
X12788096Y-28024809D01*
X12788096Y-28024809D02*
X12907143Y-28024809D01*
X12907143Y-28024809D02*
X12978572Y-28048619D01*
X13192857Y-28524809D02*
X13192857Y-28024809D01*
X13192857Y-28024809D02*
X13311905Y-28024809D01*
X13311905Y-28024809D02*
X13383333Y-28048619D01*
X13383333Y-28048619D02*
X13430952Y-28096238D01*
X13430952Y-28096238D02*
X13454762Y-28143857D01*
X13454762Y-28143857D02*
X13478571Y-28239095D01*
X13478571Y-28239095D02*
X13478571Y-28310523D01*
X13478571Y-28310523D02*
X13454762Y-28405761D01*
X13454762Y-28405761D02*
X13430952Y-28453380D01*
X13430952Y-28453380D02*
X13383333Y-28501000D01*
X13383333Y-28501000D02*
X13311905Y-28524809D01*
X13311905Y-28524809D02*
X13192857Y-28524809D01*
X13669048Y-28381952D02*
X13907143Y-28381952D01*
X13621429Y-28524809D02*
X13788095Y-28024809D01*
X13788095Y-28024809D02*
X13954762Y-28524809D01*
X16797190Y-15583333D02*
X16821000Y-15607142D01*
X16821000Y-15607142D02*
X16844809Y-15678571D01*
X16844809Y-15678571D02*
X16844809Y-15726190D01*
X16844809Y-15726190D02*
X16821000Y-15797618D01*
X16821000Y-15797618D02*
X16773380Y-15845237D01*
X16773380Y-15845237D02*
X16725761Y-15869047D01*
X16725761Y-15869047D02*
X16630523Y-15892856D01*
X16630523Y-15892856D02*
X16559095Y-15892856D01*
X16559095Y-15892856D02*
X16463857Y-15869047D01*
X16463857Y-15869047D02*
X16416238Y-15845237D01*
X16416238Y-15845237D02*
X16368619Y-15797618D01*
X16368619Y-15797618D02*
X16344809Y-15726190D01*
X16344809Y-15726190D02*
X16344809Y-15678571D01*
X16344809Y-15678571D02*
X16368619Y-15607142D01*
X16368619Y-15607142D02*
X16392428Y-15583333D01*
X16559095Y-15297618D02*
X16535285Y-15345237D01*
X16535285Y-15345237D02*
X16511476Y-15369047D01*
X16511476Y-15369047D02*
X16463857Y-15392856D01*
X16463857Y-15392856D02*
X16440047Y-15392856D01*
X16440047Y-15392856D02*
X16392428Y-15369047D01*
X16392428Y-15369047D02*
X16368619Y-15345237D01*
X16368619Y-15345237D02*
X16344809Y-15297618D01*
X16344809Y-15297618D02*
X16344809Y-15202380D01*
X16344809Y-15202380D02*
X16368619Y-15154761D01*
X16368619Y-15154761D02*
X16392428Y-15130952D01*
X16392428Y-15130952D02*
X16440047Y-15107142D01*
X16440047Y-15107142D02*
X16463857Y-15107142D01*
X16463857Y-15107142D02*
X16511476Y-15130952D01*
X16511476Y-15130952D02*
X16535285Y-15154761D01*
X16535285Y-15154761D02*
X16559095Y-15202380D01*
X16559095Y-15202380D02*
X16559095Y-15297618D01*
X16559095Y-15297618D02*
X16582904Y-15345237D01*
X16582904Y-15345237D02*
X16606714Y-15369047D01*
X16606714Y-15369047D02*
X16654333Y-15392856D01*
X16654333Y-15392856D02*
X16749571Y-15392856D01*
X16749571Y-15392856D02*
X16797190Y-15369047D01*
X16797190Y-15369047D02*
X16821000Y-15345237D01*
X16821000Y-15345237D02*
X16844809Y-15297618D01*
X16844809Y-15297618D02*
X16844809Y-15202380D01*
X16844809Y-15202380D02*
X16821000Y-15154761D01*
X16821000Y-15154761D02*
X16797190Y-15130952D01*
X16797190Y-15130952D02*
X16749571Y-15107142D01*
X16749571Y-15107142D02*
X16654333Y-15107142D01*
X16654333Y-15107142D02*
X16606714Y-15130952D01*
X16606714Y-15130952D02*
X16582904Y-15154761D01*
X16582904Y-15154761D02*
X16559095Y-15202380D01*
X5477190Y-12851428D02*
X5501000Y-12875237D01*
X5501000Y-12875237D02*
X5524809Y-12946666D01*
X5524809Y-12946666D02*
X5524809Y-12994285D01*
X5524809Y-12994285D02*
X5501000Y-13065713D01*
X5501000Y-13065713D02*
X5453380Y-13113332D01*
X5453380Y-13113332D02*
X5405761Y-13137142D01*
X5405761Y-13137142D02*
X5310523Y-13160951D01*
X5310523Y-13160951D02*
X5239095Y-13160951D01*
X5239095Y-13160951D02*
X5143857Y-13137142D01*
X5143857Y-13137142D02*
X5096238Y-13113332D01*
X5096238Y-13113332D02*
X5048619Y-13065713D01*
X5048619Y-13065713D02*
X5024809Y-12994285D01*
X5024809Y-12994285D02*
X5024809Y-12946666D01*
X5024809Y-12946666D02*
X5048619Y-12875237D01*
X5048619Y-12875237D02*
X5072428Y-12851428D01*
X5024809Y-12684761D02*
X5024809Y-12375237D01*
X5024809Y-12375237D02*
X5215285Y-12541904D01*
X5215285Y-12541904D02*
X5215285Y-12470475D01*
X5215285Y-12470475D02*
X5239095Y-12422856D01*
X5239095Y-12422856D02*
X5262904Y-12399047D01*
X5262904Y-12399047D02*
X5310523Y-12375237D01*
X5310523Y-12375237D02*
X5429571Y-12375237D01*
X5429571Y-12375237D02*
X5477190Y-12399047D01*
X5477190Y-12399047D02*
X5501000Y-12422856D01*
X5501000Y-12422856D02*
X5524809Y-12470475D01*
X5524809Y-12470475D02*
X5524809Y-12613332D01*
X5524809Y-12613332D02*
X5501000Y-12660951D01*
X5501000Y-12660951D02*
X5477190Y-12684761D01*
X5024809Y-12065714D02*
X5024809Y-12018095D01*
X5024809Y-12018095D02*
X5048619Y-11970476D01*
X5048619Y-11970476D02*
X5072428Y-11946666D01*
X5072428Y-11946666D02*
X5120047Y-11922857D01*
X5120047Y-11922857D02*
X5215285Y-11899047D01*
X5215285Y-11899047D02*
X5334333Y-11899047D01*
X5334333Y-11899047D02*
X5429571Y-11922857D01*
X5429571Y-11922857D02*
X5477190Y-11946666D01*
X5477190Y-11946666D02*
X5501000Y-11970476D01*
X5501000Y-11970476D02*
X5524809Y-12018095D01*
X5524809Y-12018095D02*
X5524809Y-12065714D01*
X5524809Y-12065714D02*
X5501000Y-12113333D01*
X5501000Y-12113333D02*
X5477190Y-12137142D01*
X5477190Y-12137142D02*
X5429571Y-12160952D01*
X5429571Y-12160952D02*
X5334333Y-12184761D01*
X5334333Y-12184761D02*
X5215285Y-12184761D01*
X5215285Y-12184761D02*
X5120047Y-12160952D01*
X5120047Y-12160952D02*
X5072428Y-12137142D01*
X5072428Y-12137142D02*
X5048619Y-12113333D01*
X5048619Y-12113333D02*
X5024809Y-12065714D01*
X17319047Y-28058619D02*
X17271428Y-28034809D01*
X17271428Y-28034809D02*
X17199999Y-28034809D01*
X17199999Y-28034809D02*
X17128571Y-28058619D01*
X17128571Y-28058619D02*
X17080952Y-28106238D01*
X17080952Y-28106238D02*
X17057142Y-28153857D01*
X17057142Y-28153857D02*
X17033333Y-28249095D01*
X17033333Y-28249095D02*
X17033333Y-28320523D01*
X17033333Y-28320523D02*
X17057142Y-28415761D01*
X17057142Y-28415761D02*
X17080952Y-28463380D01*
X17080952Y-28463380D02*
X17128571Y-28511000D01*
X17128571Y-28511000D02*
X17199999Y-28534809D01*
X17199999Y-28534809D02*
X17247618Y-28534809D01*
X17247618Y-28534809D02*
X17319047Y-28511000D01*
X17319047Y-28511000D02*
X17342856Y-28487190D01*
X17342856Y-28487190D02*
X17342856Y-28320523D01*
X17342856Y-28320523D02*
X17247618Y-28320523D01*
X17557142Y-28534809D02*
X17557142Y-28034809D01*
X17557142Y-28034809D02*
X17842856Y-28534809D01*
X17842856Y-28534809D02*
X17842856Y-28034809D01*
X18080952Y-28534809D02*
X18080952Y-28034809D01*
X18080952Y-28034809D02*
X18200000Y-28034809D01*
X18200000Y-28034809D02*
X18271428Y-28058619D01*
X18271428Y-28058619D02*
X18319047Y-28106238D01*
X18319047Y-28106238D02*
X18342857Y-28153857D01*
X18342857Y-28153857D02*
X18366666Y-28249095D01*
X18366666Y-28249095D02*
X18366666Y-28320523D01*
X18366666Y-28320523D02*
X18342857Y-28415761D01*
X18342857Y-28415761D02*
X18319047Y-28463380D01*
X18319047Y-28463380D02*
X18271428Y-28511000D01*
X18271428Y-28511000D02*
X18200000Y-28534809D01*
X18200000Y-28534809D02*
X18080952Y-28534809D01*
X27478571Y-7077190D02*
X27454762Y-7101000D01*
X27454762Y-7101000D02*
X27383333Y-7124809D01*
X27383333Y-7124809D02*
X27335714Y-7124809D01*
X27335714Y-7124809D02*
X27264286Y-7101000D01*
X27264286Y-7101000D02*
X27216667Y-7053380D01*
X27216667Y-7053380D02*
X27192857Y-7005761D01*
X27192857Y-7005761D02*
X27169048Y-6910523D01*
X27169048Y-6910523D02*
X27169048Y-6839095D01*
X27169048Y-6839095D02*
X27192857Y-6743857D01*
X27192857Y-6743857D02*
X27216667Y-6696238D01*
X27216667Y-6696238D02*
X27264286Y-6648619D01*
X27264286Y-6648619D02*
X27335714Y-6624809D01*
X27335714Y-6624809D02*
X27383333Y-6624809D01*
X27383333Y-6624809D02*
X27454762Y-6648619D01*
X27454762Y-6648619D02*
X27478571Y-6672428D01*
X27645238Y-6624809D02*
X27954762Y-6624809D01*
X27954762Y-6624809D02*
X27788095Y-6815285D01*
X27788095Y-6815285D02*
X27859524Y-6815285D01*
X27859524Y-6815285D02*
X27907143Y-6839095D01*
X27907143Y-6839095D02*
X27930952Y-6862904D01*
X27930952Y-6862904D02*
X27954762Y-6910523D01*
X27954762Y-6910523D02*
X27954762Y-7029571D01*
X27954762Y-7029571D02*
X27930952Y-7077190D01*
X27930952Y-7077190D02*
X27907143Y-7101000D01*
X27907143Y-7101000D02*
X27859524Y-7124809D01*
X27859524Y-7124809D02*
X27716667Y-7124809D01*
X27716667Y-7124809D02*
X27669048Y-7101000D01*
X27669048Y-7101000D02*
X27645238Y-7077190D01*
X28240476Y-6839095D02*
X28192857Y-6815285D01*
X28192857Y-6815285D02*
X28169047Y-6791476D01*
X28169047Y-6791476D02*
X28145238Y-6743857D01*
X28145238Y-6743857D02*
X28145238Y-6720047D01*
X28145238Y-6720047D02*
X28169047Y-6672428D01*
X28169047Y-6672428D02*
X28192857Y-6648619D01*
X28192857Y-6648619D02*
X28240476Y-6624809D01*
X28240476Y-6624809D02*
X28335714Y-6624809D01*
X28335714Y-6624809D02*
X28383333Y-6648619D01*
X28383333Y-6648619D02*
X28407142Y-6672428D01*
X28407142Y-6672428D02*
X28430952Y-6720047D01*
X28430952Y-6720047D02*
X28430952Y-6743857D01*
X28430952Y-6743857D02*
X28407142Y-6791476D01*
X28407142Y-6791476D02*
X28383333Y-6815285D01*
X28383333Y-6815285D02*
X28335714Y-6839095D01*
X28335714Y-6839095D02*
X28240476Y-6839095D01*
X28240476Y-6839095D02*
X28192857Y-6862904D01*
X28192857Y-6862904D02*
X28169047Y-6886714D01*
X28169047Y-6886714D02*
X28145238Y-6934333D01*
X28145238Y-6934333D02*
X28145238Y-7029571D01*
X28145238Y-7029571D02*
X28169047Y-7077190D01*
X28169047Y-7077190D02*
X28192857Y-7101000D01*
X28192857Y-7101000D02*
X28240476Y-7124809D01*
X28240476Y-7124809D02*
X28335714Y-7124809D01*
X28335714Y-7124809D02*
X28383333Y-7101000D01*
X28383333Y-7101000D02*
X28407142Y-7077190D01*
X28407142Y-7077190D02*
X28430952Y-7029571D01*
X28430952Y-7029571D02*
X28430952Y-6934333D01*
X28430952Y-6934333D02*
X28407142Y-6886714D01*
X28407142Y-6886714D02*
X28383333Y-6862904D01*
X28383333Y-6862904D02*
X28335714Y-6839095D01*
X10778571Y-6877190D02*
X10754762Y-6901000D01*
X10754762Y-6901000D02*
X10683333Y-6924809D01*
X10683333Y-6924809D02*
X10635714Y-6924809D01*
X10635714Y-6924809D02*
X10564286Y-6901000D01*
X10564286Y-6901000D02*
X10516667Y-6853380D01*
X10516667Y-6853380D02*
X10492857Y-6805761D01*
X10492857Y-6805761D02*
X10469048Y-6710523D01*
X10469048Y-6710523D02*
X10469048Y-6639095D01*
X10469048Y-6639095D02*
X10492857Y-6543857D01*
X10492857Y-6543857D02*
X10516667Y-6496238D01*
X10516667Y-6496238D02*
X10564286Y-6448619D01*
X10564286Y-6448619D02*
X10635714Y-6424809D01*
X10635714Y-6424809D02*
X10683333Y-6424809D01*
X10683333Y-6424809D02*
X10754762Y-6448619D01*
X10754762Y-6448619D02*
X10778571Y-6472428D01*
X10945238Y-6424809D02*
X11254762Y-6424809D01*
X11254762Y-6424809D02*
X11088095Y-6615285D01*
X11088095Y-6615285D02*
X11159524Y-6615285D01*
X11159524Y-6615285D02*
X11207143Y-6639095D01*
X11207143Y-6639095D02*
X11230952Y-6662904D01*
X11230952Y-6662904D02*
X11254762Y-6710523D01*
X11254762Y-6710523D02*
X11254762Y-6829571D01*
X11254762Y-6829571D02*
X11230952Y-6877190D01*
X11230952Y-6877190D02*
X11207143Y-6901000D01*
X11207143Y-6901000D02*
X11159524Y-6924809D01*
X11159524Y-6924809D02*
X11016667Y-6924809D01*
X11016667Y-6924809D02*
X10969048Y-6901000D01*
X10969048Y-6901000D02*
X10945238Y-6877190D01*
X11707142Y-6424809D02*
X11469047Y-6424809D01*
X11469047Y-6424809D02*
X11445238Y-6662904D01*
X11445238Y-6662904D02*
X11469047Y-6639095D01*
X11469047Y-6639095D02*
X11516666Y-6615285D01*
X11516666Y-6615285D02*
X11635714Y-6615285D01*
X11635714Y-6615285D02*
X11683333Y-6639095D01*
X11683333Y-6639095D02*
X11707142Y-6662904D01*
X11707142Y-6662904D02*
X11730952Y-6710523D01*
X11730952Y-6710523D02*
X11730952Y-6829571D01*
X11730952Y-6829571D02*
X11707142Y-6877190D01*
X11707142Y-6877190D02*
X11683333Y-6901000D01*
X11683333Y-6901000D02*
X11635714Y-6924809D01*
X11635714Y-6924809D02*
X11516666Y-6924809D01*
X11516666Y-6924809D02*
X11469047Y-6901000D01*
X11469047Y-6901000D02*
X11445238Y-6877190D01*
X8719047Y-2248619D02*
X8671428Y-2224809D01*
X8671428Y-2224809D02*
X8599999Y-2224809D01*
X8599999Y-2224809D02*
X8528571Y-2248619D01*
X8528571Y-2248619D02*
X8480952Y-2296238D01*
X8480952Y-2296238D02*
X8457142Y-2343857D01*
X8457142Y-2343857D02*
X8433333Y-2439095D01*
X8433333Y-2439095D02*
X8433333Y-2510523D01*
X8433333Y-2510523D02*
X8457142Y-2605761D01*
X8457142Y-2605761D02*
X8480952Y-2653380D01*
X8480952Y-2653380D02*
X8528571Y-2701000D01*
X8528571Y-2701000D02*
X8599999Y-2724809D01*
X8599999Y-2724809D02*
X8647618Y-2724809D01*
X8647618Y-2724809D02*
X8719047Y-2701000D01*
X8719047Y-2701000D02*
X8742856Y-2677190D01*
X8742856Y-2677190D02*
X8742856Y-2510523D01*
X8742856Y-2510523D02*
X8647618Y-2510523D01*
X8957142Y-2724809D02*
X8957142Y-2224809D01*
X8957142Y-2224809D02*
X9242856Y-2724809D01*
X9242856Y-2724809D02*
X9242856Y-2224809D01*
X9480952Y-2724809D02*
X9480952Y-2224809D01*
X9480952Y-2224809D02*
X9600000Y-2224809D01*
X9600000Y-2224809D02*
X9671428Y-2248619D01*
X9671428Y-2248619D02*
X9719047Y-2296238D01*
X9719047Y-2296238D02*
X9742857Y-2343857D01*
X9742857Y-2343857D02*
X9766666Y-2439095D01*
X9766666Y-2439095D02*
X9766666Y-2510523D01*
X9766666Y-2510523D02*
X9742857Y-2605761D01*
X9742857Y-2605761D02*
X9719047Y-2653380D01*
X9719047Y-2653380D02*
X9671428Y-2701000D01*
X9671428Y-2701000D02*
X9600000Y-2724809D01*
X9600000Y-2724809D02*
X9480952Y-2724809D01*
X33824809Y-14983333D02*
X33586714Y-15149999D01*
X33824809Y-15269047D02*
X33324809Y-15269047D01*
X33324809Y-15269047D02*
X33324809Y-15078571D01*
X33324809Y-15078571D02*
X33348619Y-15030952D01*
X33348619Y-15030952D02*
X33372428Y-15007142D01*
X33372428Y-15007142D02*
X33420047Y-14983333D01*
X33420047Y-14983333D02*
X33491476Y-14983333D01*
X33491476Y-14983333D02*
X33539095Y-15007142D01*
X33539095Y-15007142D02*
X33562904Y-15030952D01*
X33562904Y-15030952D02*
X33586714Y-15078571D01*
X33586714Y-15078571D02*
X33586714Y-15269047D01*
X33324809Y-14554761D02*
X33324809Y-14649999D01*
X33324809Y-14649999D02*
X33348619Y-14697618D01*
X33348619Y-14697618D02*
X33372428Y-14721428D01*
X33372428Y-14721428D02*
X33443857Y-14769047D01*
X33443857Y-14769047D02*
X33539095Y-14792856D01*
X33539095Y-14792856D02*
X33729571Y-14792856D01*
X33729571Y-14792856D02*
X33777190Y-14769047D01*
X33777190Y-14769047D02*
X33801000Y-14745237D01*
X33801000Y-14745237D02*
X33824809Y-14697618D01*
X33824809Y-14697618D02*
X33824809Y-14602380D01*
X33824809Y-14602380D02*
X33801000Y-14554761D01*
X33801000Y-14554761D02*
X33777190Y-14530952D01*
X33777190Y-14530952D02*
X33729571Y-14507142D01*
X33729571Y-14507142D02*
X33610523Y-14507142D01*
X33610523Y-14507142D02*
X33562904Y-14530952D01*
X33562904Y-14530952D02*
X33539095Y-14554761D01*
X33539095Y-14554761D02*
X33515285Y-14602380D01*
X33515285Y-14602380D02*
X33515285Y-14697618D01*
X33515285Y-14697618D02*
X33539095Y-14745237D01*
X33539095Y-14745237D02*
X33562904Y-14769047D01*
X33562904Y-14769047D02*
X33610523Y-14792856D01*
X33124809Y-14983333D02*
X32886714Y-15149999D01*
X33124809Y-15269047D02*
X32624809Y-15269047D01*
X32624809Y-15269047D02*
X32624809Y-15078571D01*
X32624809Y-15078571D02*
X32648619Y-15030952D01*
X32648619Y-15030952D02*
X32672428Y-15007142D01*
X32672428Y-15007142D02*
X32720047Y-14983333D01*
X32720047Y-14983333D02*
X32791476Y-14983333D01*
X32791476Y-14983333D02*
X32839095Y-15007142D01*
X32839095Y-15007142D02*
X32862904Y-15030952D01*
X32862904Y-15030952D02*
X32886714Y-15078571D01*
X32886714Y-15078571D02*
X32886714Y-15269047D01*
X32624809Y-14530952D02*
X32624809Y-14769047D01*
X32624809Y-14769047D02*
X32862904Y-14792856D01*
X32862904Y-14792856D02*
X32839095Y-14769047D01*
X32839095Y-14769047D02*
X32815285Y-14721428D01*
X32815285Y-14721428D02*
X32815285Y-14602380D01*
X32815285Y-14602380D02*
X32839095Y-14554761D01*
X32839095Y-14554761D02*
X32862904Y-14530952D01*
X32862904Y-14530952D02*
X32910523Y-14507142D01*
X32910523Y-14507142D02*
X33029571Y-14507142D01*
X33029571Y-14507142D02*
X33077190Y-14530952D01*
X33077190Y-14530952D02*
X33101000Y-14554761D01*
X33101000Y-14554761D02*
X33124809Y-14602380D01*
X33124809Y-14602380D02*
X33124809Y-14721428D01*
X33124809Y-14721428D02*
X33101000Y-14769047D01*
X33101000Y-14769047D02*
X33077190Y-14792856D01*
X14904762Y-28501000D02*
X14976190Y-28524809D01*
X14976190Y-28524809D02*
X15095238Y-28524809D01*
X15095238Y-28524809D02*
X15142857Y-28501000D01*
X15142857Y-28501000D02*
X15166666Y-28477190D01*
X15166666Y-28477190D02*
X15190476Y-28429571D01*
X15190476Y-28429571D02*
X15190476Y-28381952D01*
X15190476Y-28381952D02*
X15166666Y-28334333D01*
X15166666Y-28334333D02*
X15142857Y-28310523D01*
X15142857Y-28310523D02*
X15095238Y-28286714D01*
X15095238Y-28286714D02*
X15000000Y-28262904D01*
X15000000Y-28262904D02*
X14952381Y-28239095D01*
X14952381Y-28239095D02*
X14928571Y-28215285D01*
X14928571Y-28215285D02*
X14904762Y-28167666D01*
X14904762Y-28167666D02*
X14904762Y-28120047D01*
X14904762Y-28120047D02*
X14928571Y-28072428D01*
X14928571Y-28072428D02*
X14952381Y-28048619D01*
X14952381Y-28048619D02*
X15000000Y-28024809D01*
X15000000Y-28024809D02*
X15119047Y-28024809D01*
X15119047Y-28024809D02*
X15190476Y-28048619D01*
X15690475Y-28477190D02*
X15666666Y-28501000D01*
X15666666Y-28501000D02*
X15595237Y-28524809D01*
X15595237Y-28524809D02*
X15547618Y-28524809D01*
X15547618Y-28524809D02*
X15476190Y-28501000D01*
X15476190Y-28501000D02*
X15428571Y-28453380D01*
X15428571Y-28453380D02*
X15404761Y-28405761D01*
X15404761Y-28405761D02*
X15380952Y-28310523D01*
X15380952Y-28310523D02*
X15380952Y-28239095D01*
X15380952Y-28239095D02*
X15404761Y-28143857D01*
X15404761Y-28143857D02*
X15428571Y-28096238D01*
X15428571Y-28096238D02*
X15476190Y-28048619D01*
X15476190Y-28048619D02*
X15547618Y-28024809D01*
X15547618Y-28024809D02*
X15595237Y-28024809D01*
X15595237Y-28024809D02*
X15666666Y-28048619D01*
X15666666Y-28048619D02*
X15690475Y-28072428D01*
X16142856Y-28524809D02*
X15904761Y-28524809D01*
X15904761Y-28524809D02*
X15904761Y-28024809D01*
X15016666Y-9424809D02*
X14778571Y-9424809D01*
X14778571Y-9424809D02*
X14778571Y-8924809D01*
X15445238Y-9424809D02*
X15159524Y-9424809D01*
X15302381Y-9424809D02*
X15302381Y-8924809D01*
X15302381Y-8924809D02*
X15254762Y-8996238D01*
X15254762Y-8996238D02*
X15207143Y-9043857D01*
X15207143Y-9043857D02*
X15159524Y-9067666D01*
X7724809Y-14811904D02*
X7724809Y-15049999D01*
X7724809Y-15049999D02*
X7962904Y-15073808D01*
X7962904Y-15073808D02*
X7939095Y-15049999D01*
X7939095Y-15049999D02*
X7915285Y-15002380D01*
X7915285Y-15002380D02*
X7915285Y-14883332D01*
X7915285Y-14883332D02*
X7939095Y-14835713D01*
X7939095Y-14835713D02*
X7962904Y-14811904D01*
X7962904Y-14811904D02*
X8010523Y-14788094D01*
X8010523Y-14788094D02*
X8129571Y-14788094D01*
X8129571Y-14788094D02*
X8177190Y-14811904D01*
X8177190Y-14811904D02*
X8201000Y-14835713D01*
X8201000Y-14835713D02*
X8224809Y-14883332D01*
X8224809Y-14883332D02*
X8224809Y-15002380D01*
X8224809Y-15002380D02*
X8201000Y-15049999D01*
X8201000Y-15049999D02*
X8177190Y-15073808D01*
X7724809Y-14645237D02*
X8224809Y-14478571D01*
X8224809Y-14478571D02*
X7724809Y-14311904D01*
X8272428Y-14264286D02*
X8272428Y-13883333D01*
X7962904Y-13597619D02*
X7986714Y-13526191D01*
X7986714Y-13526191D02*
X8010523Y-13502381D01*
X8010523Y-13502381D02*
X8058142Y-13478572D01*
X8058142Y-13478572D02*
X8129571Y-13478572D01*
X8129571Y-13478572D02*
X8177190Y-13502381D01*
X8177190Y-13502381D02*
X8201000Y-13526191D01*
X8201000Y-13526191D02*
X8224809Y-13573810D01*
X8224809Y-13573810D02*
X8224809Y-13764286D01*
X8224809Y-13764286D02*
X7724809Y-13764286D01*
X7724809Y-13764286D02*
X7724809Y-13597619D01*
X7724809Y-13597619D02*
X7748619Y-13550000D01*
X7748619Y-13550000D02*
X7772428Y-13526191D01*
X7772428Y-13526191D02*
X7820047Y-13502381D01*
X7820047Y-13502381D02*
X7867666Y-13502381D01*
X7867666Y-13502381D02*
X7915285Y-13526191D01*
X7915285Y-13526191D02*
X7939095Y-13550000D01*
X7939095Y-13550000D02*
X7962904Y-13597619D01*
X7962904Y-13597619D02*
X7962904Y-13764286D01*
X7962904Y-13264286D02*
X7962904Y-13097619D01*
X8224809Y-13026191D02*
X8224809Y-13264286D01*
X8224809Y-13264286D02*
X7724809Y-13264286D01*
X7724809Y-13264286D02*
X7724809Y-13026191D01*
X8177190Y-12526191D02*
X8201000Y-12550000D01*
X8201000Y-12550000D02*
X8224809Y-12621429D01*
X8224809Y-12621429D02*
X8224809Y-12669048D01*
X8224809Y-12669048D02*
X8201000Y-12740476D01*
X8201000Y-12740476D02*
X8153380Y-12788095D01*
X8153380Y-12788095D02*
X8105761Y-12811905D01*
X8105761Y-12811905D02*
X8010523Y-12835714D01*
X8010523Y-12835714D02*
X7939095Y-12835714D01*
X7939095Y-12835714D02*
X7843857Y-12811905D01*
X7843857Y-12811905D02*
X7796238Y-12788095D01*
X7796238Y-12788095D02*
X7748619Y-12740476D01*
X7748619Y-12740476D02*
X7724809Y-12669048D01*
X7724809Y-12669048D02*
X7724809Y-12621429D01*
X7724809Y-12621429D02*
X7748619Y-12550000D01*
X7748619Y-12550000D02*
X7772428Y-12526191D01*
X2462904Y-23902380D02*
X2486714Y-23830952D01*
X2486714Y-23830952D02*
X2510523Y-23807142D01*
X2510523Y-23807142D02*
X2558142Y-23783333D01*
X2558142Y-23783333D02*
X2629571Y-23783333D01*
X2629571Y-23783333D02*
X2677190Y-23807142D01*
X2677190Y-23807142D02*
X2701000Y-23830952D01*
X2701000Y-23830952D02*
X2724809Y-23878571D01*
X2724809Y-23878571D02*
X2724809Y-24069047D01*
X2724809Y-24069047D02*
X2224809Y-24069047D01*
X2224809Y-24069047D02*
X2224809Y-23902380D01*
X2224809Y-23902380D02*
X2248619Y-23854761D01*
X2248619Y-23854761D02*
X2272428Y-23830952D01*
X2272428Y-23830952D02*
X2320047Y-23807142D01*
X2320047Y-23807142D02*
X2367666Y-23807142D01*
X2367666Y-23807142D02*
X2415285Y-23830952D01*
X2415285Y-23830952D02*
X2439095Y-23854761D01*
X2439095Y-23854761D02*
X2462904Y-23902380D01*
X2462904Y-23902380D02*
X2462904Y-24069047D01*
X2224809Y-23616666D02*
X2224809Y-23283333D01*
X2224809Y-23283333D02*
X2724809Y-23616666D01*
X2724809Y-23616666D02*
X2724809Y-23283333D01*
X11478571Y-9477190D02*
X11454762Y-9501000D01*
X11454762Y-9501000D02*
X11383333Y-9524809D01*
X11383333Y-9524809D02*
X11335714Y-9524809D01*
X11335714Y-9524809D02*
X11264286Y-9501000D01*
X11264286Y-9501000D02*
X11216667Y-9453380D01*
X11216667Y-9453380D02*
X11192857Y-9405761D01*
X11192857Y-9405761D02*
X11169048Y-9310523D01*
X11169048Y-9310523D02*
X11169048Y-9239095D01*
X11169048Y-9239095D02*
X11192857Y-9143857D01*
X11192857Y-9143857D02*
X11216667Y-9096238D01*
X11216667Y-9096238D02*
X11264286Y-9048619D01*
X11264286Y-9048619D02*
X11335714Y-9024809D01*
X11335714Y-9024809D02*
X11383333Y-9024809D01*
X11383333Y-9024809D02*
X11454762Y-9048619D01*
X11454762Y-9048619D02*
X11478571Y-9072428D01*
X11907143Y-9191476D02*
X11907143Y-9524809D01*
X11788095Y-9001000D02*
X11669048Y-9358142D01*
X11669048Y-9358142D02*
X11978571Y-9358142D01*
X12430952Y-9524809D02*
X12145238Y-9524809D01*
X12288095Y-9524809D02*
X12288095Y-9024809D01*
X12288095Y-9024809D02*
X12240476Y-9096238D01*
X12240476Y-9096238D02*
X12192857Y-9143857D01*
X12192857Y-9143857D02*
X12145238Y-9167666D01*
X17824809Y-14021428D02*
X17586714Y-14188094D01*
X17824809Y-14307142D02*
X17324809Y-14307142D01*
X17324809Y-14307142D02*
X17324809Y-14116666D01*
X17324809Y-14116666D02*
X17348619Y-14069047D01*
X17348619Y-14069047D02*
X17372428Y-14045237D01*
X17372428Y-14045237D02*
X17420047Y-14021428D01*
X17420047Y-14021428D02*
X17491476Y-14021428D01*
X17491476Y-14021428D02*
X17539095Y-14045237D01*
X17539095Y-14045237D02*
X17562904Y-14069047D01*
X17562904Y-14069047D02*
X17586714Y-14116666D01*
X17586714Y-14116666D02*
X17586714Y-14307142D01*
X17824809Y-13545237D02*
X17824809Y-13830951D01*
X17824809Y-13688094D02*
X17324809Y-13688094D01*
X17324809Y-13688094D02*
X17396238Y-13735713D01*
X17396238Y-13735713D02*
X17443857Y-13783332D01*
X17443857Y-13783332D02*
X17467666Y-13830951D01*
X17539095Y-13259523D02*
X17515285Y-13307142D01*
X17515285Y-13307142D02*
X17491476Y-13330952D01*
X17491476Y-13330952D02*
X17443857Y-13354761D01*
X17443857Y-13354761D02*
X17420047Y-13354761D01*
X17420047Y-13354761D02*
X17372428Y-13330952D01*
X17372428Y-13330952D02*
X17348619Y-13307142D01*
X17348619Y-13307142D02*
X17324809Y-13259523D01*
X17324809Y-13259523D02*
X17324809Y-13164285D01*
X17324809Y-13164285D02*
X17348619Y-13116666D01*
X17348619Y-13116666D02*
X17372428Y-13092857D01*
X17372428Y-13092857D02*
X17420047Y-13069047D01*
X17420047Y-13069047D02*
X17443857Y-13069047D01*
X17443857Y-13069047D02*
X17491476Y-13092857D01*
X17491476Y-13092857D02*
X17515285Y-13116666D01*
X17515285Y-13116666D02*
X17539095Y-13164285D01*
X17539095Y-13164285D02*
X17539095Y-13259523D01*
X17539095Y-13259523D02*
X17562904Y-13307142D01*
X17562904Y-13307142D02*
X17586714Y-13330952D01*
X17586714Y-13330952D02*
X17634333Y-13354761D01*
X17634333Y-13354761D02*
X17729571Y-13354761D01*
X17729571Y-13354761D02*
X17777190Y-13330952D01*
X17777190Y-13330952D02*
X17801000Y-13307142D01*
X17801000Y-13307142D02*
X17824809Y-13259523D01*
X17824809Y-13259523D02*
X17824809Y-13164285D01*
X17824809Y-13164285D02*
X17801000Y-13116666D01*
X17801000Y-13116666D02*
X17777190Y-13092857D01*
X17777190Y-13092857D02*
X17729571Y-13069047D01*
X17729571Y-13069047D02*
X17634333Y-13069047D01*
X17634333Y-13069047D02*
X17586714Y-13092857D01*
X17586714Y-13092857D02*
X17562904Y-13116666D01*
X17562904Y-13116666D02*
X17539095Y-13164285D01*
X29378571Y-4924809D02*
X29211905Y-4686714D01*
X29092857Y-4924809D02*
X29092857Y-4424809D01*
X29092857Y-4424809D02*
X29283333Y-4424809D01*
X29283333Y-4424809D02*
X29330952Y-4448619D01*
X29330952Y-4448619D02*
X29354762Y-4472428D01*
X29354762Y-4472428D02*
X29378571Y-4520047D01*
X29378571Y-4520047D02*
X29378571Y-4591476D01*
X29378571Y-4591476D02*
X29354762Y-4639095D01*
X29354762Y-4639095D02*
X29330952Y-4662904D01*
X29330952Y-4662904D02*
X29283333Y-4686714D01*
X29283333Y-4686714D02*
X29092857Y-4686714D01*
X29854762Y-4924809D02*
X29569048Y-4924809D01*
X29711905Y-4924809D02*
X29711905Y-4424809D01*
X29711905Y-4424809D02*
X29664286Y-4496238D01*
X29664286Y-4496238D02*
X29616667Y-4543857D01*
X29616667Y-4543857D02*
X29569048Y-4567666D01*
X30307142Y-4424809D02*
X30069047Y-4424809D01*
X30069047Y-4424809D02*
X30045238Y-4662904D01*
X30045238Y-4662904D02*
X30069047Y-4639095D01*
X30069047Y-4639095D02*
X30116666Y-4615285D01*
X30116666Y-4615285D02*
X30235714Y-4615285D01*
X30235714Y-4615285D02*
X30283333Y-4639095D01*
X30283333Y-4639095D02*
X30307142Y-4662904D01*
X30307142Y-4662904D02*
X30330952Y-4710523D01*
X30330952Y-4710523D02*
X30330952Y-4829571D01*
X30330952Y-4829571D02*
X30307142Y-4877190D01*
X30307142Y-4877190D02*
X30283333Y-4901000D01*
X30283333Y-4901000D02*
X30235714Y-4924809D01*
X30235714Y-4924809D02*
X30116666Y-4924809D01*
X30116666Y-4924809D02*
X30069047Y-4901000D01*
X30069047Y-4901000D02*
X30045238Y-4877190D01*
X17277190Y-26783333D02*
X17301000Y-26807142D01*
X17301000Y-26807142D02*
X17324809Y-26878571D01*
X17324809Y-26878571D02*
X17324809Y-26926190D01*
X17324809Y-26926190D02*
X17301000Y-26997618D01*
X17301000Y-26997618D02*
X17253380Y-27045237D01*
X17253380Y-27045237D02*
X17205761Y-27069047D01*
X17205761Y-27069047D02*
X17110523Y-27092856D01*
X17110523Y-27092856D02*
X17039095Y-27092856D01*
X17039095Y-27092856D02*
X16943857Y-27069047D01*
X16943857Y-27069047D02*
X16896238Y-27045237D01*
X16896238Y-27045237D02*
X16848619Y-26997618D01*
X16848619Y-26997618D02*
X16824809Y-26926190D01*
X16824809Y-26926190D02*
X16824809Y-26878571D01*
X16824809Y-26878571D02*
X16848619Y-26807142D01*
X16848619Y-26807142D02*
X16872428Y-26783333D01*
X16991476Y-26354761D02*
X17324809Y-26354761D01*
X16801000Y-26473809D02*
X17158142Y-26592856D01*
X17158142Y-26592856D02*
X17158142Y-26283333D01*
X6157143Y-2534333D02*
X6538096Y-2534333D01*
X6347619Y-2724809D02*
X6347619Y-2343857D01*
X7014286Y-2224809D02*
X6776191Y-2224809D01*
X6776191Y-2224809D02*
X6752382Y-2462904D01*
X6752382Y-2462904D02*
X6776191Y-2439095D01*
X6776191Y-2439095D02*
X6823810Y-2415285D01*
X6823810Y-2415285D02*
X6942858Y-2415285D01*
X6942858Y-2415285D02*
X6990477Y-2439095D01*
X6990477Y-2439095D02*
X7014286Y-2462904D01*
X7014286Y-2462904D02*
X7038096Y-2510523D01*
X7038096Y-2510523D02*
X7038096Y-2629571D01*
X7038096Y-2629571D02*
X7014286Y-2677190D01*
X7014286Y-2677190D02*
X6990477Y-2701000D01*
X6990477Y-2701000D02*
X6942858Y-2724809D01*
X6942858Y-2724809D02*
X6823810Y-2724809D01*
X6823810Y-2724809D02*
X6776191Y-2701000D01*
X6776191Y-2701000D02*
X6752382Y-2677190D01*
X7180953Y-2224809D02*
X7347619Y-2724809D01*
X7347619Y-2724809D02*
X7514286Y-2224809D01*
X11178571Y-4977190D02*
X11154762Y-5001000D01*
X11154762Y-5001000D02*
X11083333Y-5024809D01*
X11083333Y-5024809D02*
X11035714Y-5024809D01*
X11035714Y-5024809D02*
X10964286Y-5001000D01*
X10964286Y-5001000D02*
X10916667Y-4953380D01*
X10916667Y-4953380D02*
X10892857Y-4905761D01*
X10892857Y-4905761D02*
X10869048Y-4810523D01*
X10869048Y-4810523D02*
X10869048Y-4739095D01*
X10869048Y-4739095D02*
X10892857Y-4643857D01*
X10892857Y-4643857D02*
X10916667Y-4596238D01*
X10916667Y-4596238D02*
X10964286Y-4548619D01*
X10964286Y-4548619D02*
X11035714Y-4524809D01*
X11035714Y-4524809D02*
X11083333Y-4524809D01*
X11083333Y-4524809D02*
X11154762Y-4548619D01*
X11154762Y-4548619D02*
X11178571Y-4572428D01*
X11654762Y-5024809D02*
X11369048Y-5024809D01*
X11511905Y-5024809D02*
X11511905Y-4524809D01*
X11511905Y-4524809D02*
X11464286Y-4596238D01*
X11464286Y-4596238D02*
X11416667Y-4643857D01*
X11416667Y-4643857D02*
X11369048Y-4667666D01*
X12083333Y-4524809D02*
X11988095Y-4524809D01*
X11988095Y-4524809D02*
X11940476Y-4548619D01*
X11940476Y-4548619D02*
X11916666Y-4572428D01*
X11916666Y-4572428D02*
X11869047Y-4643857D01*
X11869047Y-4643857D02*
X11845238Y-4739095D01*
X11845238Y-4739095D02*
X11845238Y-4929571D01*
X11845238Y-4929571D02*
X11869047Y-4977190D01*
X11869047Y-4977190D02*
X11892857Y-5001000D01*
X11892857Y-5001000D02*
X11940476Y-5024809D01*
X11940476Y-5024809D02*
X12035714Y-5024809D01*
X12035714Y-5024809D02*
X12083333Y-5001000D01*
X12083333Y-5001000D02*
X12107142Y-4977190D01*
X12107142Y-4977190D02*
X12130952Y-4929571D01*
X12130952Y-4929571D02*
X12130952Y-4810523D01*
X12130952Y-4810523D02*
X12107142Y-4762904D01*
X12107142Y-4762904D02*
X12083333Y-4739095D01*
X12083333Y-4739095D02*
X12035714Y-4715285D01*
X12035714Y-4715285D02*
X11940476Y-4715285D01*
X11940476Y-4715285D02*
X11892857Y-4739095D01*
X11892857Y-4739095D02*
X11869047Y-4762904D01*
X11869047Y-4762904D02*
X11845238Y-4810523D01*
X2248619Y-28180952D02*
X2224809Y-28228571D01*
X2224809Y-28228571D02*
X2224809Y-28300000D01*
X2224809Y-28300000D02*
X2248619Y-28371428D01*
X2248619Y-28371428D02*
X2296238Y-28419047D01*
X2296238Y-28419047D02*
X2343857Y-28442857D01*
X2343857Y-28442857D02*
X2439095Y-28466666D01*
X2439095Y-28466666D02*
X2510523Y-28466666D01*
X2510523Y-28466666D02*
X2605761Y-28442857D01*
X2605761Y-28442857D02*
X2653380Y-28419047D01*
X2653380Y-28419047D02*
X2701000Y-28371428D01*
X2701000Y-28371428D02*
X2724809Y-28300000D01*
X2724809Y-28300000D02*
X2724809Y-28252381D01*
X2724809Y-28252381D02*
X2701000Y-28180952D01*
X2701000Y-28180952D02*
X2677190Y-28157143D01*
X2677190Y-28157143D02*
X2510523Y-28157143D01*
X2510523Y-28157143D02*
X2510523Y-28252381D01*
X2724809Y-27942857D02*
X2224809Y-27942857D01*
X2224809Y-27942857D02*
X2724809Y-27657143D01*
X2724809Y-27657143D02*
X2224809Y-27657143D01*
X2724809Y-27419047D02*
X2224809Y-27419047D01*
X2224809Y-27419047D02*
X2224809Y-27299999D01*
X2224809Y-27299999D02*
X2248619Y-27228571D01*
X2248619Y-27228571D02*
X2296238Y-27180952D01*
X2296238Y-27180952D02*
X2343857Y-27157142D01*
X2343857Y-27157142D02*
X2439095Y-27133333D01*
X2439095Y-27133333D02*
X2510523Y-27133333D01*
X2510523Y-27133333D02*
X2605761Y-27157142D01*
X2605761Y-27157142D02*
X2653380Y-27180952D01*
X2653380Y-27180952D02*
X2701000Y-27228571D01*
X2701000Y-27228571D02*
X2724809Y-27299999D01*
X2724809Y-27299999D02*
X2724809Y-27419047D01*
X9778571Y-26577190D02*
X9754762Y-26601000D01*
X9754762Y-26601000D02*
X9683333Y-26624809D01*
X9683333Y-26624809D02*
X9635714Y-26624809D01*
X9635714Y-26624809D02*
X9564286Y-26601000D01*
X9564286Y-26601000D02*
X9516667Y-26553380D01*
X9516667Y-26553380D02*
X9492857Y-26505761D01*
X9492857Y-26505761D02*
X9469048Y-26410523D01*
X9469048Y-26410523D02*
X9469048Y-26339095D01*
X9469048Y-26339095D02*
X9492857Y-26243857D01*
X9492857Y-26243857D02*
X9516667Y-26196238D01*
X9516667Y-26196238D02*
X9564286Y-26148619D01*
X9564286Y-26148619D02*
X9635714Y-26124809D01*
X9635714Y-26124809D02*
X9683333Y-26124809D01*
X9683333Y-26124809D02*
X9754762Y-26148619D01*
X9754762Y-26148619D02*
X9778571Y-26172428D01*
X9969048Y-26172428D02*
X9992857Y-26148619D01*
X9992857Y-26148619D02*
X10040476Y-26124809D01*
X10040476Y-26124809D02*
X10159524Y-26124809D01*
X10159524Y-26124809D02*
X10207143Y-26148619D01*
X10207143Y-26148619D02*
X10230952Y-26172428D01*
X10230952Y-26172428D02*
X10254762Y-26220047D01*
X10254762Y-26220047D02*
X10254762Y-26267666D01*
X10254762Y-26267666D02*
X10230952Y-26339095D01*
X10230952Y-26339095D02*
X9945238Y-26624809D01*
X9945238Y-26624809D02*
X10254762Y-26624809D01*
X10421428Y-26124809D02*
X10754761Y-26124809D01*
X10754761Y-26124809D02*
X10540476Y-26624809D01*
X5016666Y-22377190D02*
X4992857Y-22401000D01*
X4992857Y-22401000D02*
X4921428Y-22424809D01*
X4921428Y-22424809D02*
X4873809Y-22424809D01*
X4873809Y-22424809D02*
X4802381Y-22401000D01*
X4802381Y-22401000D02*
X4754762Y-22353380D01*
X4754762Y-22353380D02*
X4730952Y-22305761D01*
X4730952Y-22305761D02*
X4707143Y-22210523D01*
X4707143Y-22210523D02*
X4707143Y-22139095D01*
X4707143Y-22139095D02*
X4730952Y-22043857D01*
X4730952Y-22043857D02*
X4754762Y-21996238D01*
X4754762Y-21996238D02*
X4802381Y-21948619D01*
X4802381Y-21948619D02*
X4873809Y-21924809D01*
X4873809Y-21924809D02*
X4921428Y-21924809D01*
X4921428Y-21924809D02*
X4992857Y-21948619D01*
X4992857Y-21948619D02*
X5016666Y-21972428D01*
X5183333Y-21924809D02*
X5516666Y-21924809D01*
X5516666Y-21924809D02*
X5302381Y-22424809D01*
X10516666Y-18424809D02*
X10350000Y-18186714D01*
X10230952Y-18424809D02*
X10230952Y-17924809D01*
X10230952Y-17924809D02*
X10421428Y-17924809D01*
X10421428Y-17924809D02*
X10469047Y-17948619D01*
X10469047Y-17948619D02*
X10492857Y-17972428D01*
X10492857Y-17972428D02*
X10516666Y-18020047D01*
X10516666Y-18020047D02*
X10516666Y-18091476D01*
X10516666Y-18091476D02*
X10492857Y-18139095D01*
X10492857Y-18139095D02*
X10469047Y-18162904D01*
X10469047Y-18162904D02*
X10421428Y-18186714D01*
X10421428Y-18186714D02*
X10230952Y-18186714D01*
X10754762Y-18424809D02*
X10850000Y-18424809D01*
X10850000Y-18424809D02*
X10897619Y-18401000D01*
X10897619Y-18401000D02*
X10921428Y-18377190D01*
X10921428Y-18377190D02*
X10969047Y-18305761D01*
X10969047Y-18305761D02*
X10992857Y-18210523D01*
X10992857Y-18210523D02*
X10992857Y-18020047D01*
X10992857Y-18020047D02*
X10969047Y-17972428D01*
X10969047Y-17972428D02*
X10945238Y-17948619D01*
X10945238Y-17948619D02*
X10897619Y-17924809D01*
X10897619Y-17924809D02*
X10802381Y-17924809D01*
X10802381Y-17924809D02*
X10754762Y-17948619D01*
X10754762Y-17948619D02*
X10730952Y-17972428D01*
X10730952Y-17972428D02*
X10707143Y-18020047D01*
X10707143Y-18020047D02*
X10707143Y-18139095D01*
X10707143Y-18139095D02*
X10730952Y-18186714D01*
X10730952Y-18186714D02*
X10754762Y-18210523D01*
X10754762Y-18210523D02*
X10802381Y-18234333D01*
X10802381Y-18234333D02*
X10897619Y-18234333D01*
X10897619Y-18234333D02*
X10945238Y-18210523D01*
X10945238Y-18210523D02*
X10969047Y-18186714D01*
X10969047Y-18186714D02*
X10992857Y-18139095D01*
X24401000Y-20930951D02*
X24424809Y-20859523D01*
X24424809Y-20859523D02*
X24424809Y-20740475D01*
X24424809Y-20740475D02*
X24401000Y-20692856D01*
X24401000Y-20692856D02*
X24377190Y-20669047D01*
X24377190Y-20669047D02*
X24329571Y-20645237D01*
X24329571Y-20645237D02*
X24281952Y-20645237D01*
X24281952Y-20645237D02*
X24234333Y-20669047D01*
X24234333Y-20669047D02*
X24210523Y-20692856D01*
X24210523Y-20692856D02*
X24186714Y-20740475D01*
X24186714Y-20740475D02*
X24162904Y-20835713D01*
X24162904Y-20835713D02*
X24139095Y-20883332D01*
X24139095Y-20883332D02*
X24115285Y-20907142D01*
X24115285Y-20907142D02*
X24067666Y-20930951D01*
X24067666Y-20930951D02*
X24020047Y-20930951D01*
X24020047Y-20930951D02*
X23972428Y-20907142D01*
X23972428Y-20907142D02*
X23948619Y-20883332D01*
X23948619Y-20883332D02*
X23924809Y-20835713D01*
X23924809Y-20835713D02*
X23924809Y-20716666D01*
X23924809Y-20716666D02*
X23948619Y-20645237D01*
X23924809Y-20478571D02*
X24424809Y-20359523D01*
X24424809Y-20359523D02*
X24067666Y-20264285D01*
X24067666Y-20264285D02*
X24424809Y-20169047D01*
X24424809Y-20169047D02*
X23924809Y-20050000D01*
X24377190Y-19573809D02*
X24401000Y-19597618D01*
X24401000Y-19597618D02*
X24424809Y-19669047D01*
X24424809Y-19669047D02*
X24424809Y-19716666D01*
X24424809Y-19716666D02*
X24401000Y-19788094D01*
X24401000Y-19788094D02*
X24353380Y-19835713D01*
X24353380Y-19835713D02*
X24305761Y-19859523D01*
X24305761Y-19859523D02*
X24210523Y-19883332D01*
X24210523Y-19883332D02*
X24139095Y-19883332D01*
X24139095Y-19883332D02*
X24043857Y-19859523D01*
X24043857Y-19859523D02*
X23996238Y-19835713D01*
X23996238Y-19835713D02*
X23948619Y-19788094D01*
X23948619Y-19788094D02*
X23924809Y-19716666D01*
X23924809Y-19716666D02*
X23924809Y-19669047D01*
X23924809Y-19669047D02*
X23948619Y-19597618D01*
X23948619Y-19597618D02*
X23972428Y-19573809D01*
X24424809Y-19121428D02*
X24424809Y-19359523D01*
X24424809Y-19359523D02*
X23924809Y-19359523D01*
X24424809Y-18954761D02*
X23924809Y-18954761D01*
X24424809Y-18669047D02*
X24139095Y-18883332D01*
X23924809Y-18669047D02*
X24210523Y-18954761D01*
X33224809Y-11883333D02*
X33224809Y-12121428D01*
X33224809Y-12121428D02*
X32724809Y-12121428D01*
X32772428Y-11740475D02*
X32748619Y-11716666D01*
X32748619Y-11716666D02*
X32724809Y-11669047D01*
X32724809Y-11669047D02*
X32724809Y-11549999D01*
X32724809Y-11549999D02*
X32748619Y-11502380D01*
X32748619Y-11502380D02*
X32772428Y-11478571D01*
X32772428Y-11478571D02*
X32820047Y-11454761D01*
X32820047Y-11454761D02*
X32867666Y-11454761D01*
X32867666Y-11454761D02*
X32939095Y-11478571D01*
X32939095Y-11478571D02*
X33224809Y-11764285D01*
X33224809Y-11764285D02*
X33224809Y-11454761D01*
X19062904Y-26969046D02*
X19062904Y-27135713D01*
X19324809Y-27135713D02*
X18824809Y-27135713D01*
X18824809Y-27135713D02*
X18824809Y-26897618D01*
X19324809Y-26469047D02*
X19324809Y-26707142D01*
X19324809Y-26707142D02*
X18824809Y-26707142D01*
X19324809Y-26040475D02*
X19324809Y-26326189D01*
X19324809Y-26183332D02*
X18824809Y-26183332D01*
X18824809Y-26183332D02*
X18896238Y-26230951D01*
X18896238Y-26230951D02*
X18943857Y-26278570D01*
X18943857Y-26278570D02*
X18967666Y-26326189D01*
X23124809Y-14521428D02*
X22886714Y-14688094D01*
X23124809Y-14807142D02*
X22624809Y-14807142D01*
X22624809Y-14807142D02*
X22624809Y-14616666D01*
X22624809Y-14616666D02*
X22648619Y-14569047D01*
X22648619Y-14569047D02*
X22672428Y-14545237D01*
X22672428Y-14545237D02*
X22720047Y-14521428D01*
X22720047Y-14521428D02*
X22791476Y-14521428D01*
X22791476Y-14521428D02*
X22839095Y-14545237D01*
X22839095Y-14545237D02*
X22862904Y-14569047D01*
X22862904Y-14569047D02*
X22886714Y-14616666D01*
X22886714Y-14616666D02*
X22886714Y-14807142D01*
X23124809Y-14045237D02*
X23124809Y-14330951D01*
X23124809Y-14188094D02*
X22624809Y-14188094D01*
X22624809Y-14188094D02*
X22696238Y-14235713D01*
X22696238Y-14235713D02*
X22743857Y-14283332D01*
X22743857Y-14283332D02*
X22767666Y-14330951D01*
X22624809Y-13878571D02*
X22624809Y-13545238D01*
X22624809Y-13545238D02*
X23124809Y-13759523D01*
X8519047Y-31258619D02*
X8471428Y-31234809D01*
X8471428Y-31234809D02*
X8399999Y-31234809D01*
X8399999Y-31234809D02*
X8328571Y-31258619D01*
X8328571Y-31258619D02*
X8280952Y-31306238D01*
X8280952Y-31306238D02*
X8257142Y-31353857D01*
X8257142Y-31353857D02*
X8233333Y-31449095D01*
X8233333Y-31449095D02*
X8233333Y-31520523D01*
X8233333Y-31520523D02*
X8257142Y-31615761D01*
X8257142Y-31615761D02*
X8280952Y-31663380D01*
X8280952Y-31663380D02*
X8328571Y-31711000D01*
X8328571Y-31711000D02*
X8399999Y-31734809D01*
X8399999Y-31734809D02*
X8447618Y-31734809D01*
X8447618Y-31734809D02*
X8519047Y-31711000D01*
X8519047Y-31711000D02*
X8542856Y-31687190D01*
X8542856Y-31687190D02*
X8542856Y-31520523D01*
X8542856Y-31520523D02*
X8447618Y-31520523D01*
X8757142Y-31734809D02*
X8757142Y-31234809D01*
X8757142Y-31234809D02*
X9042856Y-31734809D01*
X9042856Y-31734809D02*
X9042856Y-31234809D01*
X9280952Y-31734809D02*
X9280952Y-31234809D01*
X9280952Y-31234809D02*
X9400000Y-31234809D01*
X9400000Y-31234809D02*
X9471428Y-31258619D01*
X9471428Y-31258619D02*
X9519047Y-31306238D01*
X9519047Y-31306238D02*
X9542857Y-31353857D01*
X9542857Y-31353857D02*
X9566666Y-31449095D01*
X9566666Y-31449095D02*
X9566666Y-31520523D01*
X9566666Y-31520523D02*
X9542857Y-31615761D01*
X9542857Y-31615761D02*
X9519047Y-31663380D01*
X9519047Y-31663380D02*
X9471428Y-31711000D01*
X9471428Y-31711000D02*
X9400000Y-31734809D01*
X9400000Y-31734809D02*
X9280952Y-31734809D01*
X16797190Y-14483333D02*
X16821000Y-14507142D01*
X16821000Y-14507142D02*
X16844809Y-14578571D01*
X16844809Y-14578571D02*
X16844809Y-14626190D01*
X16844809Y-14626190D02*
X16821000Y-14697618D01*
X16821000Y-14697618D02*
X16773380Y-14745237D01*
X16773380Y-14745237D02*
X16725761Y-14769047D01*
X16725761Y-14769047D02*
X16630523Y-14792856D01*
X16630523Y-14792856D02*
X16559095Y-14792856D01*
X16559095Y-14792856D02*
X16463857Y-14769047D01*
X16463857Y-14769047D02*
X16416238Y-14745237D01*
X16416238Y-14745237D02*
X16368619Y-14697618D01*
X16368619Y-14697618D02*
X16344809Y-14626190D01*
X16344809Y-14626190D02*
X16344809Y-14578571D01*
X16344809Y-14578571D02*
X16368619Y-14507142D01*
X16368619Y-14507142D02*
X16392428Y-14483333D01*
X16844809Y-14245237D02*
X16844809Y-14149999D01*
X16844809Y-14149999D02*
X16821000Y-14102380D01*
X16821000Y-14102380D02*
X16797190Y-14078571D01*
X16797190Y-14078571D02*
X16725761Y-14030952D01*
X16725761Y-14030952D02*
X16630523Y-14007142D01*
X16630523Y-14007142D02*
X16440047Y-14007142D01*
X16440047Y-14007142D02*
X16392428Y-14030952D01*
X16392428Y-14030952D02*
X16368619Y-14054761D01*
X16368619Y-14054761D02*
X16344809Y-14102380D01*
X16344809Y-14102380D02*
X16344809Y-14197618D01*
X16344809Y-14197618D02*
X16368619Y-14245237D01*
X16368619Y-14245237D02*
X16392428Y-14269047D01*
X16392428Y-14269047D02*
X16440047Y-14292856D01*
X16440047Y-14292856D02*
X16559095Y-14292856D01*
X16559095Y-14292856D02*
X16606714Y-14269047D01*
X16606714Y-14269047D02*
X16630523Y-14245237D01*
X16630523Y-14245237D02*
X16654333Y-14197618D01*
X16654333Y-14197618D02*
X16654333Y-14102380D01*
X16654333Y-14102380D02*
X16630523Y-14054761D01*
X16630523Y-14054761D02*
X16606714Y-14030952D01*
X16606714Y-14030952D02*
X16559095Y-14007142D01*
X12980953Y-2224809D02*
X13266667Y-2224809D01*
X13123810Y-2724809D02*
X13123810Y-2224809D01*
X13385714Y-2224809D02*
X13719047Y-2724809D01*
X13719047Y-2224809D02*
X13385714Y-2724809D01*
X13861904Y-2224809D02*
X14171428Y-2224809D01*
X14171428Y-2224809D02*
X14004761Y-2415285D01*
X14004761Y-2415285D02*
X14076190Y-2415285D01*
X14076190Y-2415285D02*
X14123809Y-2439095D01*
X14123809Y-2439095D02*
X14147618Y-2462904D01*
X14147618Y-2462904D02*
X14171428Y-2510523D01*
X14171428Y-2510523D02*
X14171428Y-2629571D01*
X14171428Y-2629571D02*
X14147618Y-2677190D01*
X14147618Y-2677190D02*
X14123809Y-2701000D01*
X14123809Y-2701000D02*
X14076190Y-2724809D01*
X14076190Y-2724809D02*
X13933333Y-2724809D01*
X13933333Y-2724809D02*
X13885714Y-2701000D01*
X13885714Y-2701000D02*
X13861904Y-2677190D01*
X27688571Y-28224809D02*
X27521905Y-27986714D01*
X27402857Y-28224809D02*
X27402857Y-27724809D01*
X27402857Y-27724809D02*
X27593333Y-27724809D01*
X27593333Y-27724809D02*
X27640952Y-27748619D01*
X27640952Y-27748619D02*
X27664762Y-27772428D01*
X27664762Y-27772428D02*
X27688571Y-27820047D01*
X27688571Y-27820047D02*
X27688571Y-27891476D01*
X27688571Y-27891476D02*
X27664762Y-27939095D01*
X27664762Y-27939095D02*
X27640952Y-27962904D01*
X27640952Y-27962904D02*
X27593333Y-27986714D01*
X27593333Y-27986714D02*
X27402857Y-27986714D01*
X28164762Y-28224809D02*
X27879048Y-28224809D01*
X28021905Y-28224809D02*
X28021905Y-27724809D01*
X28021905Y-27724809D02*
X27974286Y-27796238D01*
X27974286Y-27796238D02*
X27926667Y-27843857D01*
X27926667Y-27843857D02*
X27879048Y-27867666D01*
X28474285Y-27724809D02*
X28521904Y-27724809D01*
X28521904Y-27724809D02*
X28569523Y-27748619D01*
X28569523Y-27748619D02*
X28593333Y-27772428D01*
X28593333Y-27772428D02*
X28617142Y-27820047D01*
X28617142Y-27820047D02*
X28640952Y-27915285D01*
X28640952Y-27915285D02*
X28640952Y-28034333D01*
X28640952Y-28034333D02*
X28617142Y-28129571D01*
X28617142Y-28129571D02*
X28593333Y-28177190D01*
X28593333Y-28177190D02*
X28569523Y-28201000D01*
X28569523Y-28201000D02*
X28521904Y-28224809D01*
X28521904Y-28224809D02*
X28474285Y-28224809D01*
X28474285Y-28224809D02*
X28426666Y-28201000D01*
X28426666Y-28201000D02*
X28402857Y-28177190D01*
X28402857Y-28177190D02*
X28379047Y-28129571D01*
X28379047Y-28129571D02*
X28355238Y-28034333D01*
X28355238Y-28034333D02*
X28355238Y-27915285D01*
X28355238Y-27915285D02*
X28379047Y-27820047D01*
X28379047Y-27820047D02*
X28402857Y-27772428D01*
X28402857Y-27772428D02*
X28426666Y-27748619D01*
X28426666Y-27748619D02*
X28474285Y-27724809D01*
X10516666Y-13624809D02*
X10350000Y-13386714D01*
X10230952Y-13624809D02*
X10230952Y-13124809D01*
X10230952Y-13124809D02*
X10421428Y-13124809D01*
X10421428Y-13124809D02*
X10469047Y-13148619D01*
X10469047Y-13148619D02*
X10492857Y-13172428D01*
X10492857Y-13172428D02*
X10516666Y-13220047D01*
X10516666Y-13220047D02*
X10516666Y-13291476D01*
X10516666Y-13291476D02*
X10492857Y-13339095D01*
X10492857Y-13339095D02*
X10469047Y-13362904D01*
X10469047Y-13362904D02*
X10421428Y-13386714D01*
X10421428Y-13386714D02*
X10230952Y-13386714D01*
X10992857Y-13624809D02*
X10707143Y-13624809D01*
X10850000Y-13624809D02*
X10850000Y-13124809D01*
X10850000Y-13124809D02*
X10802381Y-13196238D01*
X10802381Y-13196238D02*
X10754762Y-13243857D01*
X10754762Y-13243857D02*
X10707143Y-13267666D01*
X7578571Y-24177190D02*
X7554762Y-24201000D01*
X7554762Y-24201000D02*
X7483333Y-24224809D01*
X7483333Y-24224809D02*
X7435714Y-24224809D01*
X7435714Y-24224809D02*
X7364286Y-24201000D01*
X7364286Y-24201000D02*
X7316667Y-24153380D01*
X7316667Y-24153380D02*
X7292857Y-24105761D01*
X7292857Y-24105761D02*
X7269048Y-24010523D01*
X7269048Y-24010523D02*
X7269048Y-23939095D01*
X7269048Y-23939095D02*
X7292857Y-23843857D01*
X7292857Y-23843857D02*
X7316667Y-23796238D01*
X7316667Y-23796238D02*
X7364286Y-23748619D01*
X7364286Y-23748619D02*
X7435714Y-23724809D01*
X7435714Y-23724809D02*
X7483333Y-23724809D01*
X7483333Y-23724809D02*
X7554762Y-23748619D01*
X7554762Y-23748619D02*
X7578571Y-23772428D01*
X7769048Y-23772428D02*
X7792857Y-23748619D01*
X7792857Y-23748619D02*
X7840476Y-23724809D01*
X7840476Y-23724809D02*
X7959524Y-23724809D01*
X7959524Y-23724809D02*
X8007143Y-23748619D01*
X8007143Y-23748619D02*
X8030952Y-23772428D01*
X8030952Y-23772428D02*
X8054762Y-23820047D01*
X8054762Y-23820047D02*
X8054762Y-23867666D01*
X8054762Y-23867666D02*
X8030952Y-23939095D01*
X8030952Y-23939095D02*
X7745238Y-24224809D01*
X7745238Y-24224809D02*
X8054762Y-24224809D01*
X8483333Y-23724809D02*
X8388095Y-23724809D01*
X8388095Y-23724809D02*
X8340476Y-23748619D01*
X8340476Y-23748619D02*
X8316666Y-23772428D01*
X8316666Y-23772428D02*
X8269047Y-23843857D01*
X8269047Y-23843857D02*
X8245238Y-23939095D01*
X8245238Y-23939095D02*
X8245238Y-24129571D01*
X8245238Y-24129571D02*
X8269047Y-24177190D01*
X8269047Y-24177190D02*
X8292857Y-24201000D01*
X8292857Y-24201000D02*
X8340476Y-24224809D01*
X8340476Y-24224809D02*
X8435714Y-24224809D01*
X8435714Y-24224809D02*
X8483333Y-24201000D01*
X8483333Y-24201000D02*
X8507142Y-24177190D01*
X8507142Y-24177190D02*
X8530952Y-24129571D01*
X8530952Y-24129571D02*
X8530952Y-24010523D01*
X8530952Y-24010523D02*
X8507142Y-23962904D01*
X8507142Y-23962904D02*
X8483333Y-23939095D01*
X8483333Y-23939095D02*
X8435714Y-23915285D01*
X8435714Y-23915285D02*
X8340476Y-23915285D01*
X8340476Y-23915285D02*
X8292857Y-23939095D01*
X8292857Y-23939095D02*
X8269047Y-23962904D01*
X8269047Y-23962904D02*
X8245238Y-24010523D01*
X2534333Y-15342856D02*
X2534333Y-14961904D01*
X2724809Y-15152380D02*
X2343857Y-15152380D01*
X2224809Y-14485713D02*
X2224809Y-14723808D01*
X2224809Y-14723808D02*
X2462904Y-14747617D01*
X2462904Y-14747617D02*
X2439095Y-14723808D01*
X2439095Y-14723808D02*
X2415285Y-14676189D01*
X2415285Y-14676189D02*
X2415285Y-14557141D01*
X2415285Y-14557141D02*
X2439095Y-14509522D01*
X2439095Y-14509522D02*
X2462904Y-14485713D01*
X2462904Y-14485713D02*
X2510523Y-14461903D01*
X2510523Y-14461903D02*
X2629571Y-14461903D01*
X2629571Y-14461903D02*
X2677190Y-14485713D01*
X2677190Y-14485713D02*
X2701000Y-14509522D01*
X2701000Y-14509522D02*
X2724809Y-14557141D01*
X2724809Y-14557141D02*
X2724809Y-14676189D01*
X2724809Y-14676189D02*
X2701000Y-14723808D01*
X2701000Y-14723808D02*
X2677190Y-14747617D01*
X2224809Y-14319046D02*
X2724809Y-14152380D01*
X2724809Y-14152380D02*
X2224809Y-13985713D01*
X18298571Y-15677190D02*
X18274762Y-15701000D01*
X18274762Y-15701000D02*
X18203333Y-15724809D01*
X18203333Y-15724809D02*
X18155714Y-15724809D01*
X18155714Y-15724809D02*
X18084286Y-15701000D01*
X18084286Y-15701000D02*
X18036667Y-15653380D01*
X18036667Y-15653380D02*
X18012857Y-15605761D01*
X18012857Y-15605761D02*
X17989048Y-15510523D01*
X17989048Y-15510523D02*
X17989048Y-15439095D01*
X17989048Y-15439095D02*
X18012857Y-15343857D01*
X18012857Y-15343857D02*
X18036667Y-15296238D01*
X18036667Y-15296238D02*
X18084286Y-15248619D01*
X18084286Y-15248619D02*
X18155714Y-15224809D01*
X18155714Y-15224809D02*
X18203333Y-15224809D01*
X18203333Y-15224809D02*
X18274762Y-15248619D01*
X18274762Y-15248619D02*
X18298571Y-15272428D01*
X18489048Y-15272428D02*
X18512857Y-15248619D01*
X18512857Y-15248619D02*
X18560476Y-15224809D01*
X18560476Y-15224809D02*
X18679524Y-15224809D01*
X18679524Y-15224809D02*
X18727143Y-15248619D01*
X18727143Y-15248619D02*
X18750952Y-15272428D01*
X18750952Y-15272428D02*
X18774762Y-15320047D01*
X18774762Y-15320047D02*
X18774762Y-15367666D01*
X18774762Y-15367666D02*
X18750952Y-15439095D01*
X18750952Y-15439095D02*
X18465238Y-15724809D01*
X18465238Y-15724809D02*
X18774762Y-15724809D01*
X18941428Y-15224809D02*
X19250952Y-15224809D01*
X19250952Y-15224809D02*
X19084285Y-15415285D01*
X19084285Y-15415285D02*
X19155714Y-15415285D01*
X19155714Y-15415285D02*
X19203333Y-15439095D01*
X19203333Y-15439095D02*
X19227142Y-15462904D01*
X19227142Y-15462904D02*
X19250952Y-15510523D01*
X19250952Y-15510523D02*
X19250952Y-15629571D01*
X19250952Y-15629571D02*
X19227142Y-15677190D01*
X19227142Y-15677190D02*
X19203333Y-15701000D01*
X19203333Y-15701000D02*
X19155714Y-15724809D01*
X19155714Y-15724809D02*
X19012857Y-15724809D01*
X19012857Y-15724809D02*
X18965238Y-15701000D01*
X18965238Y-15701000D02*
X18941428Y-15677190D01*
X27477190Y-16221428D02*
X27501000Y-16245237D01*
X27501000Y-16245237D02*
X27524809Y-16316666D01*
X27524809Y-16316666D02*
X27524809Y-16364285D01*
X27524809Y-16364285D02*
X27501000Y-16435713D01*
X27501000Y-16435713D02*
X27453380Y-16483332D01*
X27453380Y-16483332D02*
X27405761Y-16507142D01*
X27405761Y-16507142D02*
X27310523Y-16530951D01*
X27310523Y-16530951D02*
X27239095Y-16530951D01*
X27239095Y-16530951D02*
X27143857Y-16507142D01*
X27143857Y-16507142D02*
X27096238Y-16483332D01*
X27096238Y-16483332D02*
X27048619Y-16435713D01*
X27048619Y-16435713D02*
X27024809Y-16364285D01*
X27024809Y-16364285D02*
X27024809Y-16316666D01*
X27024809Y-16316666D02*
X27048619Y-16245237D01*
X27048619Y-16245237D02*
X27072428Y-16221428D01*
X27024809Y-16054761D02*
X27024809Y-15745237D01*
X27024809Y-15745237D02*
X27215285Y-15911904D01*
X27215285Y-15911904D02*
X27215285Y-15840475D01*
X27215285Y-15840475D02*
X27239095Y-15792856D01*
X27239095Y-15792856D02*
X27262904Y-15769047D01*
X27262904Y-15769047D02*
X27310523Y-15745237D01*
X27310523Y-15745237D02*
X27429571Y-15745237D01*
X27429571Y-15745237D02*
X27477190Y-15769047D01*
X27477190Y-15769047D02*
X27501000Y-15792856D01*
X27501000Y-15792856D02*
X27524809Y-15840475D01*
X27524809Y-15840475D02*
X27524809Y-15983332D01*
X27524809Y-15983332D02*
X27501000Y-16030951D01*
X27501000Y-16030951D02*
X27477190Y-16054761D01*
X27024809Y-15578571D02*
X27024809Y-15245238D01*
X27024809Y-15245238D02*
X27524809Y-15459523D01*
X11178571Y-6077190D02*
X11154762Y-6101000D01*
X11154762Y-6101000D02*
X11083333Y-6124809D01*
X11083333Y-6124809D02*
X11035714Y-6124809D01*
X11035714Y-6124809D02*
X10964286Y-6101000D01*
X10964286Y-6101000D02*
X10916667Y-6053380D01*
X10916667Y-6053380D02*
X10892857Y-6005761D01*
X10892857Y-6005761D02*
X10869048Y-5910523D01*
X10869048Y-5910523D02*
X10869048Y-5839095D01*
X10869048Y-5839095D02*
X10892857Y-5743857D01*
X10892857Y-5743857D02*
X10916667Y-5696238D01*
X10916667Y-5696238D02*
X10964286Y-5648619D01*
X10964286Y-5648619D02*
X11035714Y-5624809D01*
X11035714Y-5624809D02*
X11083333Y-5624809D01*
X11083333Y-5624809D02*
X11154762Y-5648619D01*
X11154762Y-5648619D02*
X11178571Y-5672428D01*
X11654762Y-6124809D02*
X11369048Y-6124809D01*
X11511905Y-6124809D02*
X11511905Y-5624809D01*
X11511905Y-5624809D02*
X11464286Y-5696238D01*
X11464286Y-5696238D02*
X11416667Y-5743857D01*
X11416667Y-5743857D02*
X11369048Y-5767666D01*
X11940476Y-5839095D02*
X11892857Y-5815285D01*
X11892857Y-5815285D02*
X11869047Y-5791476D01*
X11869047Y-5791476D02*
X11845238Y-5743857D01*
X11845238Y-5743857D02*
X11845238Y-5720047D01*
X11845238Y-5720047D02*
X11869047Y-5672428D01*
X11869047Y-5672428D02*
X11892857Y-5648619D01*
X11892857Y-5648619D02*
X11940476Y-5624809D01*
X11940476Y-5624809D02*
X12035714Y-5624809D01*
X12035714Y-5624809D02*
X12083333Y-5648619D01*
X12083333Y-5648619D02*
X12107142Y-5672428D01*
X12107142Y-5672428D02*
X12130952Y-5720047D01*
X12130952Y-5720047D02*
X12130952Y-5743857D01*
X12130952Y-5743857D02*
X12107142Y-5791476D01*
X12107142Y-5791476D02*
X12083333Y-5815285D01*
X12083333Y-5815285D02*
X12035714Y-5839095D01*
X12035714Y-5839095D02*
X11940476Y-5839095D01*
X11940476Y-5839095D02*
X11892857Y-5862904D01*
X11892857Y-5862904D02*
X11869047Y-5886714D01*
X11869047Y-5886714D02*
X11845238Y-5934333D01*
X11845238Y-5934333D02*
X11845238Y-6029571D01*
X11845238Y-6029571D02*
X11869047Y-6077190D01*
X11869047Y-6077190D02*
X11892857Y-6101000D01*
X11892857Y-6101000D02*
X11940476Y-6124809D01*
X11940476Y-6124809D02*
X12035714Y-6124809D01*
X12035714Y-6124809D02*
X12083333Y-6101000D01*
X12083333Y-6101000D02*
X12107142Y-6077190D01*
X12107142Y-6077190D02*
X12130952Y-6029571D01*
X12130952Y-6029571D02*
X12130952Y-5934333D01*
X12130952Y-5934333D02*
X12107142Y-5886714D01*
X12107142Y-5886714D02*
X12083333Y-5862904D01*
X12083333Y-5862904D02*
X12035714Y-5839095D01*
X5624809Y-6204761D02*
X5124809Y-6204761D01*
X5124809Y-6204761D02*
X5481952Y-6038094D01*
X5481952Y-6038094D02*
X5124809Y-5871428D01*
X5124809Y-5871428D02*
X5624809Y-5871428D01*
X5172428Y-5657141D02*
X5148619Y-5633332D01*
X5148619Y-5633332D02*
X5124809Y-5585713D01*
X5124809Y-5585713D02*
X5124809Y-5466665D01*
X5124809Y-5466665D02*
X5148619Y-5419046D01*
X5148619Y-5419046D02*
X5172428Y-5395237D01*
X5172428Y-5395237D02*
X5220047Y-5371427D01*
X5220047Y-5371427D02*
X5267666Y-5371427D01*
X5267666Y-5371427D02*
X5339095Y-5395237D01*
X5339095Y-5395237D02*
X5624809Y-5680951D01*
X5624809Y-5680951D02*
X5624809Y-5371427D01*
X21278571Y-15577190D02*
X21254762Y-15601000D01*
X21254762Y-15601000D02*
X21183333Y-15624809D01*
X21183333Y-15624809D02*
X21135714Y-15624809D01*
X21135714Y-15624809D02*
X21064286Y-15601000D01*
X21064286Y-15601000D02*
X21016667Y-15553380D01*
X21016667Y-15553380D02*
X20992857Y-15505761D01*
X20992857Y-15505761D02*
X20969048Y-15410523D01*
X20969048Y-15410523D02*
X20969048Y-15339095D01*
X20969048Y-15339095D02*
X20992857Y-15243857D01*
X20992857Y-15243857D02*
X21016667Y-15196238D01*
X21016667Y-15196238D02*
X21064286Y-15148619D01*
X21064286Y-15148619D02*
X21135714Y-15124809D01*
X21135714Y-15124809D02*
X21183333Y-15124809D01*
X21183333Y-15124809D02*
X21254762Y-15148619D01*
X21254762Y-15148619D02*
X21278571Y-15172428D01*
X21445238Y-15124809D02*
X21754762Y-15124809D01*
X21754762Y-15124809D02*
X21588095Y-15315285D01*
X21588095Y-15315285D02*
X21659524Y-15315285D01*
X21659524Y-15315285D02*
X21707143Y-15339095D01*
X21707143Y-15339095D02*
X21730952Y-15362904D01*
X21730952Y-15362904D02*
X21754762Y-15410523D01*
X21754762Y-15410523D02*
X21754762Y-15529571D01*
X21754762Y-15529571D02*
X21730952Y-15577190D01*
X21730952Y-15577190D02*
X21707143Y-15601000D01*
X21707143Y-15601000D02*
X21659524Y-15624809D01*
X21659524Y-15624809D02*
X21516667Y-15624809D01*
X21516667Y-15624809D02*
X21469048Y-15601000D01*
X21469048Y-15601000D02*
X21445238Y-15577190D01*
X22230952Y-15624809D02*
X21945238Y-15624809D01*
X22088095Y-15624809D02*
X22088095Y-15124809D01*
X22088095Y-15124809D02*
X22040476Y-15196238D01*
X22040476Y-15196238D02*
X21992857Y-15243857D01*
X21992857Y-15243857D02*
X21945238Y-15267666D01*
X6378571Y-31734809D02*
X6211905Y-31496714D01*
X6092857Y-31734809D02*
X6092857Y-31234809D01*
X6092857Y-31234809D02*
X6283333Y-31234809D01*
X6283333Y-31234809D02*
X6330952Y-31258619D01*
X6330952Y-31258619D02*
X6354762Y-31282428D01*
X6354762Y-31282428D02*
X6378571Y-31330047D01*
X6378571Y-31330047D02*
X6378571Y-31401476D01*
X6378571Y-31401476D02*
X6354762Y-31449095D01*
X6354762Y-31449095D02*
X6330952Y-31472904D01*
X6330952Y-31472904D02*
X6283333Y-31496714D01*
X6283333Y-31496714D02*
X6092857Y-31496714D01*
X6545238Y-31234809D02*
X6878571Y-31734809D01*
X6878571Y-31234809D02*
X6545238Y-31734809D01*
X7021428Y-31234809D02*
X7330952Y-31234809D01*
X7330952Y-31234809D02*
X7164285Y-31425285D01*
X7164285Y-31425285D02*
X7235714Y-31425285D01*
X7235714Y-31425285D02*
X7283333Y-31449095D01*
X7283333Y-31449095D02*
X7307142Y-31472904D01*
X7307142Y-31472904D02*
X7330952Y-31520523D01*
X7330952Y-31520523D02*
X7330952Y-31639571D01*
X7330952Y-31639571D02*
X7307142Y-31687190D01*
X7307142Y-31687190D02*
X7283333Y-31711000D01*
X7283333Y-31711000D02*
X7235714Y-31734809D01*
X7235714Y-31734809D02*
X7092857Y-31734809D01*
X7092857Y-31734809D02*
X7045238Y-31711000D01*
X7045238Y-31711000D02*
X7021428Y-31687190D01*
X24811905Y-16524809D02*
X24811905Y-16024809D01*
X25335714Y-16477190D02*
X25311905Y-16501000D01*
X25311905Y-16501000D02*
X25240476Y-16524809D01*
X25240476Y-16524809D02*
X25192857Y-16524809D01*
X25192857Y-16524809D02*
X25121429Y-16501000D01*
X25121429Y-16501000D02*
X25073810Y-16453380D01*
X25073810Y-16453380D02*
X25050000Y-16405761D01*
X25050000Y-16405761D02*
X25026191Y-16310523D01*
X25026191Y-16310523D02*
X25026191Y-16239095D01*
X25026191Y-16239095D02*
X25050000Y-16143857D01*
X25050000Y-16143857D02*
X25073810Y-16096238D01*
X25073810Y-16096238D02*
X25121429Y-16048619D01*
X25121429Y-16048619D02*
X25192857Y-16024809D01*
X25192857Y-16024809D02*
X25240476Y-16024809D01*
X25240476Y-16024809D02*
X25311905Y-16048619D01*
X25311905Y-16048619D02*
X25335714Y-16072428D01*
X25526191Y-16072428D02*
X25550000Y-16048619D01*
X25550000Y-16048619D02*
X25597619Y-16024809D01*
X25597619Y-16024809D02*
X25716667Y-16024809D01*
X25716667Y-16024809D02*
X25764286Y-16048619D01*
X25764286Y-16048619D02*
X25788095Y-16072428D01*
X25788095Y-16072428D02*
X25811905Y-16120047D01*
X25811905Y-16120047D02*
X25811905Y-16167666D01*
X25811905Y-16167666D02*
X25788095Y-16239095D01*
X25788095Y-16239095D02*
X25502381Y-16524809D01*
X25502381Y-16524809D02*
X25811905Y-16524809D01*
X18824809Y-10088094D02*
X18324809Y-10088094D01*
X18777190Y-9564285D02*
X18801000Y-9588094D01*
X18801000Y-9588094D02*
X18824809Y-9659523D01*
X18824809Y-9659523D02*
X18824809Y-9707142D01*
X18824809Y-9707142D02*
X18801000Y-9778570D01*
X18801000Y-9778570D02*
X18753380Y-9826189D01*
X18753380Y-9826189D02*
X18705761Y-9849999D01*
X18705761Y-9849999D02*
X18610523Y-9873808D01*
X18610523Y-9873808D02*
X18539095Y-9873808D01*
X18539095Y-9873808D02*
X18443857Y-9849999D01*
X18443857Y-9849999D02*
X18396238Y-9826189D01*
X18396238Y-9826189D02*
X18348619Y-9778570D01*
X18348619Y-9778570D02*
X18324809Y-9707142D01*
X18324809Y-9707142D02*
X18324809Y-9659523D01*
X18324809Y-9659523D02*
X18348619Y-9588094D01*
X18348619Y-9588094D02*
X18372428Y-9564285D01*
X18824809Y-9088094D02*
X18824809Y-9373808D01*
X18824809Y-9230951D02*
X18324809Y-9230951D01*
X18324809Y-9230951D02*
X18396238Y-9278570D01*
X18396238Y-9278570D02*
X18443857Y-9326189D01*
X18443857Y-9326189D02*
X18467666Y-9373808D01*
D11*
%TO.C,J1*%
X25800000Y-24830000D02*
G75*
G02*
X25600000Y-24830000I-100000J0D01*
G01*
X25600000Y-24830000D02*
G75*
G02*
X25800000Y-24830000I100000J0D01*
G01*
X34300000Y-17110000D02*
X33020000Y-17110000D01*
X33020000Y-26050000D02*
X34300000Y-26050000D01*
X29050000Y-26050000D02*
X30300000Y-26050000D01*
X29050000Y-17110000D02*
X30300000Y-17110000D01*
%TO.C,J2*%
X27300000Y100000D02*
X19500000Y100000D01*
D12*
%TO.C,U1*%
X14743978Y-17400000D02*
X14413978Y-17640000D01*
X14413978Y-17160000D01*
X14743978Y-17400000D01*
G36*
X14743978Y-17400000D02*
G01*
X14413978Y-17640000D01*
X14413978Y-17160000D01*
X14743978Y-17400000D01*
G37*
X22410000Y-23760000D02*
X21935000Y-23760000D01*
X22410000Y-23285000D02*
X22410000Y-23760000D01*
X22410000Y-16540000D02*
X22410000Y-17015000D01*
X21935000Y-16540000D02*
X22410000Y-16540000D01*
X15665000Y-23760000D02*
X15190000Y-23760000D01*
X15190000Y-23760000D02*
X15190000Y-23285000D01*
X15190000Y-17015000D02*
X15190000Y-16540000D01*
X15190000Y-16540000D02*
X15665000Y-16540000D01*
D11*
%TO.C,U4*%
X3100000Y-11784000D02*
G75*
G02*
X2900000Y-11784000I-100000J0D01*
G01*
X2900000Y-11784000D02*
G75*
G02*
X3100000Y-11784000I100000J0D01*
G01*
D13*
X5500000Y-10165000D02*
X5400000Y-10165000D01*
X5500000Y-8465000D02*
X5500000Y-10165000D01*
X5500000Y-8465000D02*
X5400000Y-8465000D01*
X2400000Y-10165000D02*
X2500000Y-10165000D01*
X2400000Y-8465000D02*
X2500000Y-8465000D01*
X2400000Y-8465000D02*
X2400000Y-10165000D01*
D14*
%TO.C,D2*%
X25550000Y-27425000D02*
X25550000Y-28975000D01*
%TO.C,D1*%
X6350000Y-11875000D02*
X6350000Y-10325000D01*
D12*
%TO.C,R8*%
X10220000Y-11808859D02*
X10220000Y-12116141D01*
X10980000Y-11808859D02*
X10980000Y-12116141D01*
%TO.C,TP3*%
X28000000Y-29700000D02*
G75*
G02*
X26600000Y-29700000I-700000J0D01*
G01*
X26600000Y-29700000D02*
G75*
G02*
X28000000Y-29700000I700000J0D01*
G01*
%TO.C,C36*%
X23372164Y-9340000D02*
X23587836Y-9340000D01*
X23372164Y-10060000D02*
X23587836Y-10060000D01*
%TO.C,C5*%
X10512164Y-16040000D02*
X10727836Y-16040000D01*
X10512164Y-16760000D02*
X10727836Y-16760000D01*
%TO.C,R20*%
X23653641Y-10320000D02*
X23346359Y-10320000D01*
X23653641Y-11080000D02*
X23346359Y-11080000D01*
%TO.C,C1*%
X3140000Y-6337836D02*
X3140000Y-6122164D01*
X3860000Y-6337836D02*
X3860000Y-6122164D01*
%TO.C,C20*%
X7240000Y-20792164D02*
X7240000Y-21007836D01*
X7960000Y-20792164D02*
X7960000Y-21007836D01*
%TO.C,C17*%
X15865000Y-4788748D02*
X15865000Y-5311252D01*
X17335000Y-4788748D02*
X17335000Y-5311252D01*
%TO.C,TP4*%
X7400000Y-3900000D02*
G75*
G02*
X6000000Y-3900000I-700000J0D01*
G01*
X6000000Y-3900000D02*
G75*
G02*
X7400000Y-3900000I700000J0D01*
G01*
D15*
%TO.C,U5*%
X9368852Y-22026401D02*
X11324652Y-22026401D01*
X11324652Y-18673601D02*
X9368852Y-18673601D01*
X11324652Y-20687862D02*
X11324652Y-20012140D01*
D12*
%TO.C,C19*%
X15865000Y-1761252D02*
X15865000Y-1238748D01*
X17335000Y-1761252D02*
X17335000Y-1238748D01*
%TO.C,R11*%
X30243641Y-15520000D02*
X29936359Y-15520000D01*
X30243641Y-16280000D02*
X29936359Y-16280000D01*
%TO.C,C40*%
X28159420Y-8890000D02*
X28440580Y-8890000D01*
X28159420Y-9910000D02*
X28440580Y-9910000D01*
%TO.C,C42*%
X31540580Y-8890000D02*
X31259420Y-8890000D01*
X31540580Y-9910000D02*
X31259420Y-9910000D01*
%TO.C,C24*%
X19540000Y-27187836D02*
X19540000Y-26972164D01*
X20260000Y-27187836D02*
X20260000Y-26972164D01*
%TO.C,R7*%
X10220000Y-9856359D02*
X10220000Y-10163641D01*
X10980000Y-9856359D02*
X10980000Y-10163641D01*
%TO.C,C34*%
X16740580Y-7390000D02*
X16459420Y-7390000D01*
X16740580Y-8410000D02*
X16459420Y-8410000D01*
%TO.C,JP1*%
X2300000Y-21650000D02*
X2300000Y-20250000D01*
X3000000Y-19550000D02*
X3600000Y-19550000D01*
X3600000Y-22350000D02*
X3000000Y-22350000D01*
X4300000Y-20250000D02*
X4300000Y-21650000D01*
X2300000Y-20250000D02*
G75*
G02*
X3000000Y-19550000I700000J0D01*
G01*
X3000000Y-22350000D02*
G75*
G02*
X2300000Y-21650000I-1J699999D01*
G01*
X3600000Y-19550000D02*
G75*
G02*
X4300000Y-20250000I0J-700000D01*
G01*
X4300000Y-21650000D02*
G75*
G02*
X3600000Y-22350000I-699999J-1D01*
G01*
%TO.C,R22*%
X8320000Y-16763641D02*
X8320000Y-16456359D01*
X9080000Y-16763641D02*
X9080000Y-16456359D01*
%TO.C,JP2*%
X30140000Y-7600000D02*
X30140000Y-7000000D01*
X30840000Y-6300000D02*
X32240000Y-6300000D01*
X32240000Y-8300000D02*
X30840000Y-8300000D01*
X32940000Y-7000000D02*
X32940000Y-7600000D01*
X30140000Y-7000000D02*
G75*
G02*
X30840000Y-6300000I700000J0D01*
G01*
X30840000Y-8300000D02*
G75*
G02*
X30140000Y-7600000I0J700000D01*
G01*
X32240000Y-6300000D02*
G75*
G02*
X32940000Y-7000000I1J-699999D01*
G01*
X32940000Y-7600000D02*
G75*
G02*
X32240000Y-8300000I-699999J-1D01*
G01*
%TO.C,C29*%
X4392164Y-16940000D02*
X4607836Y-16940000D01*
X4392164Y-17660000D02*
X4607836Y-17660000D01*
%TO.C,C39*%
X19059420Y-5790000D02*
X19340580Y-5790000D01*
X19059420Y-6810000D02*
X19340580Y-6810000D01*
%TO.C,R23*%
X7343641Y-19020000D02*
X7036359Y-19020000D01*
X7343641Y-19780000D02*
X7036359Y-19780000D01*
%TO.C,R21*%
X27920000Y-14236359D02*
X27920000Y-14543641D01*
X28680000Y-14236359D02*
X28680000Y-14543641D01*
%TO.C,C10*%
X22140000Y-24987836D02*
X22140000Y-24772164D01*
X22860000Y-24987836D02*
X22860000Y-24772164D01*
%TO.C,TP6*%
X9500000Y-3900000D02*
G75*
G02*
X8100000Y-3900000I-700000J0D01*
G01*
X8100000Y-3900000D02*
G75*
G02*
X9500000Y-3900000I700000J0D01*
G01*
%TO.C,R2*%
X11420000Y-14763641D02*
X11420000Y-14456359D01*
X12180000Y-14763641D02*
X12180000Y-14456359D01*
%TO.C,R16*%
X19720000Y-14353641D02*
X19720000Y-14046359D01*
X20480000Y-14353641D02*
X20480000Y-14046359D01*
%TO.C,C33*%
X12990000Y-11534420D02*
X12990000Y-11815580D01*
X14010000Y-11534420D02*
X14010000Y-11815580D01*
%TO.C,TP2*%
X25000000Y-24000000D02*
G75*
G02*
X23600000Y-24000000I-700000J0D01*
G01*
X23600000Y-24000000D02*
G75*
G02*
X25000000Y-24000000I700000J0D01*
G01*
%TO.C,R3*%
X12420000Y-14446359D02*
X12420000Y-14753641D01*
X13180000Y-14446359D02*
X13180000Y-14753641D01*
%TO.C,C21*%
X12740000Y-19872164D02*
X12740000Y-20087836D01*
X13460000Y-19872164D02*
X13460000Y-20087836D01*
%TO.C,C3*%
X17940000Y-25507836D02*
X17940000Y-25292164D01*
X18660000Y-25507836D02*
X18660000Y-25292164D01*
%TO.C,R4*%
X28920000Y-14563641D02*
X28920000Y-14256359D01*
X29680000Y-14563641D02*
X29680000Y-14256359D01*
%TO.C,C22*%
X13359420Y-7390000D02*
X13640580Y-7390000D01*
X13359420Y-8410000D02*
X13640580Y-8410000D01*
%TO.C,C28*%
X9607836Y-22640000D02*
X9392164Y-22640000D01*
X9607836Y-23360000D02*
X9392164Y-23360000D01*
%TO.C,TP7*%
X9400000Y-6000000D02*
G75*
G02*
X8000000Y-6000000I-700000J0D01*
G01*
X8000000Y-6000000D02*
G75*
G02*
X9400000Y-6000000I700000J0D01*
G01*
%TO.C,C11*%
X23792164Y-17440000D02*
X24007836Y-17440000D01*
X23792164Y-18160000D02*
X24007836Y-18160000D01*
%TO.C,C6*%
X13440000Y-14472164D02*
X13440000Y-14687836D01*
X14160000Y-14472164D02*
X14160000Y-14687836D01*
%TO.C,R19*%
X26920000Y-12146359D02*
X26920000Y-12453641D01*
X27680000Y-12146359D02*
X27680000Y-12453641D01*
%TO.C,C25*%
X20540000Y-27187836D02*
X20540000Y-26972164D01*
X21260000Y-27187836D02*
X21260000Y-26972164D01*
%TO.C,C2*%
X2140000Y-6337836D02*
X2140000Y-6122164D01*
X2860000Y-6337836D02*
X2860000Y-6122164D01*
D16*
%TO.C,U3*%
X5725000Y-15974500D02*
X5725000Y-18623500D01*
X5725000Y-18623500D02*
X7925000Y-18623500D01*
D12*
X7425000Y-15635000D02*
X7545000Y-15755000D01*
X7845000Y-15635000D02*
X7425000Y-15635000D01*
D16*
X7925000Y-15926500D02*
X5725000Y-15926500D01*
X7925000Y-18623500D02*
X7925000Y-15926500D01*
D12*
%TO.C,R14*%
X4653641Y-17920000D02*
X4346359Y-17920000D01*
X4653641Y-18680000D02*
X4346359Y-18680000D01*
%TO.C,C32*%
X11390000Y-11534420D02*
X11390000Y-11815580D01*
X12410000Y-11534420D02*
X12410000Y-11815580D01*
D11*
%TO.C,U2*%
X13633553Y-24015001D02*
X14583553Y-24015001D01*
D17*
X14230000Y-24368554D02*
X14230000Y-23661448D01*
X14583553Y-24015001D02*
X14230000Y-23661448D01*
X14583553Y-24015001D02*
X14230000Y-24368554D01*
D11*
X13360000Y-22845001D02*
G75*
G02*
X13160000Y-22845001I-100000J0D01*
G01*
X13160000Y-22845001D02*
G75*
G02*
X13360000Y-22845001I100000J0D01*
G01*
D12*
%TO.C,C8*%
X15527836Y-15140000D02*
X15312164Y-15140000D01*
X15527836Y-15860000D02*
X15312164Y-15860000D01*
%TO.C,C30*%
X4140000Y-12422164D02*
X4140000Y-12637836D01*
X4860000Y-12422164D02*
X4860000Y-12637836D01*
%TO.C,C38*%
X28440580Y-7290000D02*
X28159420Y-7290000D01*
X28440580Y-8310000D02*
X28159420Y-8310000D01*
%TO.C,C35*%
X10892164Y-7140000D02*
X11107836Y-7140000D01*
X10892164Y-7860000D02*
X11107836Y-7860000D01*
%TO.C,R6*%
X30920000Y-14256359D02*
X30920000Y-14563641D01*
X31680000Y-14256359D02*
X31680000Y-14563641D01*
%TO.C,R5*%
X29920000Y-14256359D02*
X29920000Y-14563641D01*
X30680000Y-14256359D02*
X30680000Y-14563641D01*
%TO.C,L1*%
X14540000Y-11010436D02*
X14540000Y-12214564D01*
X17260000Y-11010436D02*
X17260000Y-12214564D01*
%TO.C,TP8*%
X9900000Y-13700000D02*
G75*
G02*
X8500000Y-13700000I-700000J0D01*
G01*
X8500000Y-13700000D02*
G75*
G02*
X9900000Y-13700000I700000J0D01*
G01*
%TO.C,C41*%
X10912164Y-8140000D02*
X11127836Y-8140000D01*
X10912164Y-8860000D02*
X11127836Y-8860000D01*
%TO.C,R18*%
X18536359Y-13320000D02*
X18843641Y-13320000D01*
X18536359Y-14080000D02*
X18843641Y-14080000D01*
%TO.C,R15*%
X29546359Y-5120000D02*
X29853641Y-5120000D01*
X29546359Y-5880000D02*
X29853641Y-5880000D01*
%TO.C,C4*%
X16940000Y-25487836D02*
X16940000Y-25272164D01*
X17660000Y-25487836D02*
X17660000Y-25272164D01*
%TO.C,C16*%
X13961252Y-3265000D02*
X13438748Y-3265000D01*
X13961252Y-4735000D02*
X13438748Y-4735000D01*
%TO.C,C27*%
X11612164Y-25940000D02*
X11827836Y-25940000D01*
X11612164Y-26660000D02*
X11827836Y-26660000D01*
%TO.C,C7*%
X4740000Y-21107836D02*
X4740000Y-20892164D01*
X5460000Y-21107836D02*
X5460000Y-20892164D01*
%TO.C,R9*%
X10446359Y-17020000D02*
X10753641Y-17020000D01*
X10446359Y-17780000D02*
X10753641Y-17780000D01*
%TO.C,TP1*%
X24700000Y-21900000D02*
G75*
G02*
X23300000Y-21900000I-700000J0D01*
G01*
X23300000Y-21900000D02*
G75*
G02*
X24700000Y-21900000I700000J0D01*
G01*
%TO.C,L2*%
X29997936Y-10440000D02*
X31202064Y-10440000D01*
X29997936Y-13160000D02*
X31202064Y-13160000D01*
%TO.C,R17*%
X21720000Y-14056359D02*
X21720000Y-14363641D01*
X22480000Y-14056359D02*
X22480000Y-14363641D01*
%TO.C,C9*%
X15507836Y-14140000D02*
X15292164Y-14140000D01*
X15507836Y-14860000D02*
X15292164Y-14860000D01*
%TO.C,R10*%
X27856359Y-26820000D02*
X28163641Y-26820000D01*
X27856359Y-27580000D02*
X28163641Y-27580000D01*
%TO.C,R1*%
X10420000Y-14763641D02*
X10420000Y-14456359D01*
X11180000Y-14763641D02*
X11180000Y-14456359D01*
%TO.C,C26*%
X9587836Y-23640000D02*
X9372164Y-23640000D01*
X9587836Y-24360000D02*
X9372164Y-24360000D01*
%TO.C,C23*%
X18727836Y-14340000D02*
X18512164Y-14340000D01*
X18727836Y-15060000D02*
X18512164Y-15060000D01*
%TO.C,C37*%
X26940000Y-14272164D02*
X26940000Y-14487836D01*
X27660000Y-14272164D02*
X27660000Y-14487836D01*
%TO.C,C18*%
X14011252Y-5365000D02*
X13488748Y-5365000D01*
X14011252Y-6835000D02*
X13488748Y-6835000D01*
%TO.C,TP5*%
X7300000Y-6000000D02*
G75*
G02*
X5900000Y-6000000I-700000J0D01*
G01*
X5900000Y-6000000D02*
G75*
G02*
X7300000Y-6000000I700000J0D01*
G01*
%TO.C,C31*%
X20740000Y-14092164D02*
X20740000Y-14307836D01*
X21460000Y-14092164D02*
X21460000Y-14307836D01*
D17*
%TO.C,IC2*%
X23150000Y-15675000D02*
G75*
G02*
X22900000Y-15675000I-125000J0D01*
G01*
X22900000Y-15675000D02*
G75*
G02*
X23150000Y-15675000I125000J0D01*
G01*
%TO.C,IC1*%
X18910000Y-12675000D02*
G75*
G02*
X18660000Y-12675000I-125000J0D01*
G01*
X18660000Y-12675000D02*
G75*
G02*
X18910000Y-12675000I125000J0D01*
G01*
%TD*%
M02*
