%TF.GenerationSoftware,KiCad,Pcbnew,9.0.7-9.0.7~ubuntu24.04.1*%
%TF.CreationDate,2026-02-28T20:49:21+01:00*%
%TF.ProjectId,fcg4,66636734-2e6b-4696-9361-645f70636258,rev?*%
%TF.SameCoordinates,Original*%
%TF.FileFunction,Copper,L3,Inr*%
%TF.FilePolarity,Positive*%
%FSLAX46Y46*%
G04 Gerber Fmt 4.6, Leading zero omitted, Abs format (unit mm)*
G04 Created by KiCad (PCBNEW 9.0.7-9.0.7~ubuntu24.04.1) date 2026-02-28 20:49:21*
%MOMM*%
%LPD*%
G01*
G04 APERTURE LIST*
%TA.AperFunction,WasherPad*%
%ADD10C,3.300000*%
%TD*%
%TA.AperFunction,ComponentPad*%
%ADD11O,2.100000X1.000000*%
%TD*%
%TA.AperFunction,ComponentPad*%
%ADD12O,1.800000X1.000000*%
%TD*%
%TA.AperFunction,ViaPad*%
%ADD13C,0.500000*%
%TD*%
%TA.AperFunction,Conductor*%
%ADD14C,0.120000*%
%TD*%
G04 APERTURE END LIST*
D10*
%TO.N,*%
%TO.C,H1*%
X1750000Y-32250000D03*
X32250000Y-32250000D03*
X1750000Y-1750000D03*
X32250000Y-1750000D03*
%TD*%
D11*
%TO.N,GND*%
%TO.C,J1*%
X27520000Y-25900000D03*
%TO.N,N/C*%
X27520000Y-17260000D03*
D12*
X31700000Y-25900000D03*
X31700000Y-17260000D03*
%TD*%
D13*
%TO.N,VDD_MCU*%
X6100000Y-15800000D03*
X3800000Y-7900000D03*
X3800000Y-13000000D03*
X15400000Y-16100000D03*
X25510000Y-19701490D03*
X27300000Y-30800000D03*
X32800000Y-5800000D03*
X21839914Y-26539914D03*
%TO.N,GND*%
X6800000Y-16700000D03*
X12800000Y-25900000D03*
X8700000Y-9700000D03*
X900000Y-27800000D03*
X28400000Y-4900000D03*
X21689914Y-27389914D03*
X9100000Y-900000D03*
X19900000Y-3200000D03*
X17700000Y-33100000D03*
X20400000Y-21600000D03*
X8824730Y-24925269D03*
X18800000Y-20150000D03*
X18800000Y-21600000D03*
X17300000Y-18300000D03*
X22300000Y-11800000D03*
X4300000Y-16600000D03*
X22500000Y-23700000D03*
X3500000Y-5000000D03*
X11900000Y-11400000D03*
X900000Y-12500000D03*
X18800000Y-18300000D03*
X12200000Y-4100000D03*
X26800000Y-14800000D03*
X20400000Y-20100000D03*
X24000000Y-29600000D03*
X14356864Y-14617211D03*
X16700000Y-25900000D03*
X21989914Y-7989914D03*
X13110000Y-21100000D03*
X25510000Y-19100000D03*
X17300000Y-20100000D03*
X29600000Y-12900000D03*
X4400000Y-21600000D03*
X18200000Y-13400000D03*
X20400000Y-18300000D03*
X17300000Y-21600000D03*
X17700000Y-29900000D03*
X33200000Y-16800000D03*
X10625180Y-15878377D03*
X32800000Y-8700000D03*
X7600000Y-21920000D03*
X16200000Y-2009000D03*
X8900000Y-33100000D03*
X14500000Y-16900003D03*
%TO.N,/Power/FB_5V5*%
X19000000Y-15600000D03*
X11500000Y-15800000D03*
%TO.N,MOTOR2*%
X18507376Y-24290795D03*
X25000003Y-8800000D03*
%TO.N,MOTOR1*%
X25800000Y-8800000D03*
X17277466Y-15500185D03*
X30900000Y-6000000D03*
%TO.N,RX2*%
X14525440Y-21837402D03*
X22200000Y-6110000D03*
%TO.N,CURRENT_SENSOR*%
X22900000Y-5700000D03*
X14414056Y-20835405D03*
%TO.N,MOTOR3*%
X18391328Y-15936067D03*
X24400000Y-8800000D03*
%TO.N,MOTOR4*%
X23700000Y-8800000D03*
X18540849Y-11523751D03*
%TO.N,TX3*%
X14700000Y-2010000D03*
X20100000Y-24395040D03*
%TO.N,/MCU/NRST*%
X11700000Y-18340000D03*
X6000000Y-20500000D03*
%TO.N,TX1*%
X23329232Y-20378025D03*
X6700000Y-29900000D03*
%TO.N,/MCU/OSC_OUT*%
X14496277Y-20001000D03*
X12800000Y-18100000D03*
%TO.N,SWDIO-JTMS*%
X23200000Y-16400000D03*
X24800000Y-23300000D03*
%TO.N,RX3*%
X16600000Y-25100000D03*
X21840000Y-24300000D03*
X12543046Y-2357205D03*
X6700000Y-33100000D03*
%TO.N,TX4*%
X23570711Y-25070711D03*
X20668758Y-15968758D03*
X13300000Y-33100000D03*
%TO.N,SPI1_SDI*%
X13300000Y-22900000D03*
X15500000Y-24298383D03*
%TO.N,SWCLK-JTCK*%
X22700000Y-15900000D03*
X25100000Y-22700000D03*
%TO.N,RX1*%
X23329232Y-19778022D03*
X8900000Y-29900000D03*
%TO.N,/MCU/OSC_IN*%
X14582980Y-19271421D03*
X14500000Y-16300000D03*
%TO.N,BZ*%
X23024998Y-20895173D03*
X10600000Y-22600000D03*
X900000Y-23800000D03*
%TO.N,GYRO_1_EXTI*%
X11300000Y-22100000D03*
X14497685Y-18677514D03*
%TO.N,SPI1_SD0*%
X16685945Y-24385945D03*
X13600000Y-23555001D03*
%TO.N,GYRO_1_CS*%
X13700000Y-24500000D03*
X13490000Y-18189000D03*
%TO.N,I2C1_SDA*%
X17851988Y-15673172D03*
X9222856Y-18477145D03*
X13300000Y-29900000D03*
%TO.N,I2C1_SCL*%
X15456124Y-29856124D03*
X8404559Y-18426145D03*
X21472090Y-15890000D03*
%TO.N,RX4*%
X20050000Y-16000000D03*
X23409878Y-25740662D03*
X11100000Y-33100000D03*
%TO.N,VOLTAGE_SENSOR*%
X9900000Y-10900000D03*
X9500000Y-16900000D03*
%TO.N,9V_BEC*%
X29100000Y-17600000D03*
X30700000Y-8300000D03*
X15539914Y-33139914D03*
%TO.N,/Connectors/MOTOR_2*%
X7300000Y-5300000D03*
X25900000Y-5800000D03*
%TO.N,/Connectors/MOTOR_1*%
X26900000Y-6000000D03*
X7600000Y-3100000D03*
%TO.N,/Connectors/MOTOR_3*%
X9389914Y-3089914D03*
X24900000Y-5800000D03*
%TO.N,/Connectors/MOTOR_4*%
X9600000Y-5300000D03*
X23900000Y-5800000D03*
%TD*%
D14*
%TO.N,/Power/FB_5V5*%
X12210815Y-15089185D02*
X11500000Y-15800000D01*
X19000000Y-15600000D02*
X18489185Y-15089185D01*
X18489185Y-15089185D02*
X12210815Y-15089185D01*
%TO.N,MOTOR2*%
X18507376Y-24267083D02*
X18938770Y-23835689D01*
X25000000Y-10381242D02*
X25000000Y-8800003D01*
X19576662Y-16276662D02*
X19921000Y-16621000D01*
X25000000Y-8800003D02*
X25000003Y-8800000D01*
X18507376Y-24290795D02*
X18507376Y-24267083D01*
X20664311Y-23835689D02*
X23739232Y-20760768D01*
X19921000Y-16621000D02*
X22016413Y-16621000D01*
X23739232Y-18343819D02*
X22016413Y-16621000D01*
X19576662Y-16276662D02*
X19576662Y-15804580D01*
X19576662Y-15804580D02*
X25000000Y-10381242D01*
X23739232Y-20760768D02*
X23739232Y-18343819D01*
X18938770Y-23835689D02*
X20664311Y-23835689D01*
%TO.N,/MCU/OSC_OUT*%
X15100000Y-19397277D02*
X14496277Y-20001000D01*
X13190691Y-17779000D02*
X12869691Y-18100000D01*
X15100000Y-18500000D02*
X15100000Y-19397277D01*
X15100000Y-18500000D02*
X14379000Y-17779000D01*
X12869691Y-18100000D02*
X12800000Y-18100000D01*
X14379000Y-17779000D02*
X13190691Y-17779000D01*
%TO.N,RX3*%
X16800000Y-25300000D02*
X16600000Y-25100000D01*
X21840000Y-24300000D02*
X21840000Y-24512612D01*
X21840000Y-24512612D02*
X21052612Y-25300000D01*
X21052612Y-25300000D02*
X16800000Y-25300000D01*
%TO.N,TX4*%
X22007955Y-16300000D02*
X21000000Y-16300000D01*
X23960232Y-18252277D02*
X22007955Y-16300000D01*
X23570711Y-25070711D02*
X23960232Y-24681190D01*
X23960232Y-24681190D02*
X23960232Y-18252277D01*
X21000000Y-16300000D02*
X20668758Y-15968758D01*
%TO.N,BZ*%
X10600000Y-22600000D02*
X12620000Y-22600000D01*
X12620000Y-22600000D02*
X12820000Y-22400000D01*
X12820000Y-22400000D02*
X21520171Y-22400000D01*
X21520171Y-22400000D02*
X23024998Y-20895173D01*
%TO.N,GYRO_1_EXTI*%
X14400000Y-18800000D02*
X14400000Y-18775199D01*
X14400000Y-18775199D02*
X14497685Y-18677514D01*
X11300000Y-21875199D02*
X14497685Y-18677514D01*
X11300000Y-22100000D02*
X11300000Y-21875199D01*
%TO.N,I2C1_SDA*%
X10142001Y-17558000D02*
X15967160Y-17558000D01*
X17851988Y-15673172D02*
X17851290Y-15673172D01*
X15967160Y-17558000D02*
X17851988Y-15673172D01*
X9222856Y-18477145D02*
X10142001Y-17558000D01*
%TO.N,RX4*%
X21563332Y-15400000D02*
X20385759Y-15400000D01*
X20050000Y-15735759D02*
X20050000Y-16000000D01*
X24181232Y-25041432D02*
X24181232Y-18017900D01*
X24181232Y-18017900D02*
X21563332Y-15400000D01*
X20385759Y-15400000D02*
X20050000Y-15735759D01*
X23409878Y-25740662D02*
X23482002Y-25740662D01*
X23482002Y-25740662D02*
X24181232Y-25041432D01*
%TD*%
%TA.AperFunction,Conductor*%
%TO.N,VDD_MCU*%
G36*
X31874220Y279815D02*
G01*
X31919975Y227011D01*
X31929919Y157853D01*
X31900894Y94297D01*
X31842116Y56523D01*
X31839315Y55736D01*
X31653900Y6054D01*
X31653895Y6052D01*
X31429794Y-86773D01*
X31429785Y-86777D01*
X31219706Y-208067D01*
X31027263Y-355733D01*
X31027256Y-355739D01*
X30855739Y-527256D01*
X30855733Y-527263D01*
X30708067Y-719706D01*
X30586777Y-929785D01*
X30586773Y-929794D01*
X30493947Y-1153895D01*
X30431161Y-1388214D01*
X30399500Y-1628711D01*
X30399500Y-1871288D01*
X30431161Y-2111785D01*
X30493947Y-2346104D01*
X30570572Y-2531092D01*
X30586776Y-2570212D01*
X30708064Y-2780289D01*
X30708066Y-2780292D01*
X30708067Y-2780293D01*
X30855733Y-2972736D01*
X30855739Y-2972743D01*
X31027256Y-3144260D01*
X31027262Y-3144265D01*
X31219711Y-3291936D01*
X31429788Y-3413224D01*
X31653900Y-3506054D01*
X31888211Y-3568838D01*
X32068586Y-3592584D01*
X32128711Y-3600500D01*
X32128712Y-3600500D01*
X32371289Y-3600500D01*
X32419388Y-3594167D01*
X32611789Y-3568838D01*
X32846100Y-3506054D01*
X33070212Y-3413224D01*
X33280289Y-3291936D01*
X33472738Y-3144265D01*
X33644265Y-2972738D01*
X33791936Y-2780289D01*
X33913224Y-2570212D01*
X34006054Y-2346100D01*
X34055726Y-2160721D01*
X34092090Y-2101064D01*
X34154937Y-2070535D01*
X34224313Y-2078830D01*
X34278191Y-2123315D01*
X34299465Y-2189867D01*
X34299500Y-2192818D01*
X34299500Y-31807181D01*
X34279815Y-31874220D01*
X34227011Y-31919975D01*
X34157853Y-31929919D01*
X34094297Y-31900894D01*
X34056523Y-31842116D01*
X34055736Y-31839315D01*
X34006054Y-31653900D01*
X33913224Y-31429788D01*
X33791936Y-31219711D01*
X33644265Y-31027262D01*
X33644260Y-31027256D01*
X33472743Y-30855739D01*
X33472736Y-30855733D01*
X33280293Y-30708067D01*
X33280292Y-30708066D01*
X33280289Y-30708064D01*
X33070212Y-30586776D01*
X33070205Y-30586773D01*
X32846104Y-30493947D01*
X32611785Y-30431161D01*
X32371289Y-30399500D01*
X32371288Y-30399500D01*
X32128712Y-30399500D01*
X32128711Y-30399500D01*
X31888214Y-30431161D01*
X31653895Y-30493947D01*
X31429794Y-30586773D01*
X31429785Y-30586777D01*
X31219706Y-30708067D01*
X31027263Y-30855733D01*
X31027256Y-30855739D01*
X30855739Y-31027256D01*
X30855733Y-31027263D01*
X30708067Y-31219706D01*
X30586777Y-31429785D01*
X30586773Y-31429794D01*
X30493947Y-31653895D01*
X30431161Y-31888214D01*
X30399500Y-32128711D01*
X30399500Y-32371288D01*
X30431161Y-32611785D01*
X30493947Y-32846104D01*
X30586773Y-33070205D01*
X30586777Y-33070214D01*
X30608974Y-33108661D01*
X30708064Y-33280289D01*
X30708066Y-33280292D01*
X30708067Y-33280293D01*
X30855733Y-33472736D01*
X30855739Y-33472743D01*
X31027256Y-33644260D01*
X31027262Y-33644265D01*
X31219711Y-33791936D01*
X31429788Y-33913224D01*
X31653900Y-34006054D01*
X31839276Y-34055725D01*
X31898935Y-34092090D01*
X31929464Y-34154937D01*
X31921169Y-34224313D01*
X31876684Y-34278191D01*
X31810132Y-34299465D01*
X31807181Y-34299500D01*
X2192819Y-34299500D01*
X2125780Y-34279815D01*
X2080025Y-34227011D01*
X2070081Y-34157853D01*
X2099106Y-34094297D01*
X2157884Y-34056523D01*
X2160684Y-34055736D01*
X2346100Y-34006054D01*
X2570212Y-33913224D01*
X2780289Y-33791936D01*
X2972738Y-33644265D01*
X3144265Y-33472738D01*
X3291936Y-33280289D01*
X3413224Y-33070212D01*
X3425452Y-33040691D01*
X6249500Y-33040691D01*
X6249500Y-33159309D01*
X6280201Y-33273886D01*
X6339511Y-33376613D01*
X6423387Y-33460489D01*
X6526114Y-33519799D01*
X6640691Y-33550500D01*
X6640694Y-33550500D01*
X6759306Y-33550500D01*
X6759309Y-33550500D01*
X6873886Y-33519799D01*
X6976613Y-33460489D01*
X7060489Y-33376613D01*
X7119799Y-33273886D01*
X7150500Y-33159309D01*
X7150500Y-33040691D01*
X8449500Y-33040691D01*
X8449500Y-33159309D01*
X8480201Y-33273886D01*
X8539511Y-33376613D01*
X8623387Y-33460489D01*
X8726114Y-33519799D01*
X8840691Y-33550500D01*
X8840694Y-33550500D01*
X8959306Y-33550500D01*
X8959309Y-33550500D01*
X9073886Y-33519799D01*
X9176613Y-33460489D01*
X9260489Y-33376613D01*
X9319799Y-33273886D01*
X9350500Y-33159309D01*
X9350500Y-33040691D01*
X10649500Y-33040691D01*
X10649500Y-33159309D01*
X10680201Y-33273886D01*
X10739511Y-33376613D01*
X10823387Y-33460489D01*
X10926114Y-33519799D01*
X11040691Y-33550500D01*
X11040694Y-33550500D01*
X11159306Y-33550500D01*
X11159309Y-33550500D01*
X11273886Y-33519799D01*
X11376613Y-33460489D01*
X11460489Y-33376613D01*
X11519799Y-33273886D01*
X11550500Y-33159309D01*
X11550500Y-33040691D01*
X12849500Y-33040691D01*
X12849500Y-33159309D01*
X12880201Y-33273886D01*
X12939511Y-33376613D01*
X13023387Y-33460489D01*
X13126114Y-33519799D01*
X13240691Y-33550500D01*
X13240694Y-33550500D01*
X13359306Y-33550500D01*
X13359309Y-33550500D01*
X13473886Y-33519799D01*
X13576613Y-33460489D01*
X13660489Y-33376613D01*
X13719799Y-33273886D01*
X13750500Y-33159309D01*
X13750500Y-33080605D01*
X15089414Y-33080605D01*
X15089414Y-33199223D01*
X15120115Y-33313800D01*
X15179425Y-33416527D01*
X15263301Y-33500403D01*
X15366028Y-33559713D01*
X15480605Y-33590414D01*
X15480608Y-33590414D01*
X15599220Y-33590414D01*
X15599223Y-33590414D01*
X15713800Y-33559713D01*
X15816527Y-33500403D01*
X15900403Y-33416527D01*
X15959713Y-33313800D01*
X15990414Y-33199223D01*
X15990414Y-33080605D01*
X15979719Y-33040691D01*
X17249500Y-33040691D01*
X17249500Y-33159309D01*
X17280201Y-33273886D01*
X17339511Y-33376613D01*
X17423387Y-33460489D01*
X17526114Y-33519799D01*
X17640691Y-33550500D01*
X17640694Y-33550500D01*
X17759306Y-33550500D01*
X17759309Y-33550500D01*
X17873886Y-33519799D01*
X17976613Y-33460489D01*
X18060489Y-33376613D01*
X18119799Y-33273886D01*
X18150500Y-33159309D01*
X18150500Y-33040691D01*
X18119799Y-32926114D01*
X18060489Y-32823387D01*
X17976613Y-32739511D01*
X17873886Y-32680201D01*
X17759309Y-32649500D01*
X17640691Y-32649500D01*
X17526114Y-32680201D01*
X17526112Y-32680201D01*
X17526112Y-32680202D01*
X17423387Y-32739511D01*
X17423384Y-32739513D01*
X17339513Y-32823384D01*
X17339511Y-32823387D01*
X17326398Y-32846100D01*
X17280201Y-32926114D01*
X17249500Y-33040691D01*
X15979719Y-33040691D01*
X15959713Y-32966028D01*
X15900403Y-32863301D01*
X15816527Y-32779425D01*
X15713800Y-32720115D01*
X15599223Y-32689414D01*
X15480605Y-32689414D01*
X15366028Y-32720115D01*
X15366026Y-32720115D01*
X15366026Y-32720116D01*
X15263301Y-32779425D01*
X15263298Y-32779427D01*
X15179427Y-32863298D01*
X15179425Y-32863301D01*
X15143160Y-32926114D01*
X15120115Y-32966028D01*
X15089414Y-33080605D01*
X13750500Y-33080605D01*
X13750500Y-33040691D01*
X13719799Y-32926114D01*
X13660489Y-32823387D01*
X13576613Y-32739511D01*
X13473886Y-32680201D01*
X13359309Y-32649500D01*
X13240691Y-32649500D01*
X13126114Y-32680201D01*
X13126112Y-32680201D01*
X13126112Y-32680202D01*
X13023387Y-32739511D01*
X13023384Y-32739513D01*
X12939513Y-32823384D01*
X12939511Y-32823387D01*
X12926398Y-32846100D01*
X12880201Y-32926114D01*
X12849500Y-33040691D01*
X11550500Y-33040691D01*
X11519799Y-32926114D01*
X11460489Y-32823387D01*
X11376613Y-32739511D01*
X11273886Y-32680201D01*
X11159309Y-32649500D01*
X11040691Y-32649500D01*
X10926114Y-32680201D01*
X10926112Y-32680201D01*
X10926112Y-32680202D01*
X10823387Y-32739511D01*
X10823384Y-32739513D01*
X10739513Y-32823384D01*
X10739511Y-32823387D01*
X10726398Y-32846100D01*
X10680201Y-32926114D01*
X10649500Y-33040691D01*
X9350500Y-33040691D01*
X9319799Y-32926114D01*
X9260489Y-32823387D01*
X9176613Y-32739511D01*
X9073886Y-32680201D01*
X8959309Y-32649500D01*
X8840691Y-32649500D01*
X8726114Y-32680201D01*
X8726112Y-32680201D01*
X8726112Y-32680202D01*
X8623387Y-32739511D01*
X8623384Y-32739513D01*
X8539513Y-32823384D01*
X8539511Y-32823387D01*
X8526398Y-32846100D01*
X8480201Y-32926114D01*
X8449500Y-33040691D01*
X7150500Y-33040691D01*
X7119799Y-32926114D01*
X7060489Y-32823387D01*
X6976613Y-32739511D01*
X6873886Y-32680201D01*
X6759309Y-32649500D01*
X6640691Y-32649500D01*
X6526114Y-32680201D01*
X6526112Y-32680201D01*
X6526112Y-32680202D01*
X6423387Y-32739511D01*
X6423384Y-32739513D01*
X6339513Y-32823384D01*
X6339511Y-32823387D01*
X6326398Y-32846100D01*
X6280201Y-32926114D01*
X6249500Y-33040691D01*
X3425452Y-33040691D01*
X3448474Y-32985112D01*
X3448474Y-32985111D01*
X3506052Y-32846104D01*
X3506054Y-32846100D01*
X3568838Y-32611789D01*
X3600500Y-32371288D01*
X3600500Y-32128712D01*
X3568838Y-31888211D01*
X3506054Y-31653900D01*
X3413224Y-31429788D01*
X3291936Y-31219711D01*
X3144265Y-31027262D01*
X3144260Y-31027256D01*
X2972743Y-30855739D01*
X2972736Y-30855733D01*
X2780293Y-30708067D01*
X2780292Y-30708066D01*
X2780289Y-30708064D01*
X2570212Y-30586776D01*
X2570205Y-30586773D01*
X2346104Y-30493947D01*
X2111785Y-30431161D01*
X1871289Y-30399500D01*
X1871288Y-30399500D01*
X1628712Y-30399500D01*
X1628711Y-30399500D01*
X1388214Y-30431161D01*
X1153895Y-30493947D01*
X929794Y-30586773D01*
X929785Y-30586777D01*
X719706Y-30708067D01*
X527263Y-30855733D01*
X527256Y-30855739D01*
X355739Y-31027256D01*
X355733Y-31027263D01*
X208067Y-31219706D01*
X86777Y-31429785D01*
X86773Y-31429794D01*
X-6052Y-31653895D01*
X-6054Y-31653900D01*
X-55725Y-31839276D01*
X-92090Y-31898935D01*
X-154937Y-31929464D01*
X-224313Y-31921169D01*
X-278191Y-31876684D01*
X-299465Y-31810132D01*
X-299500Y-31807181D01*
X-299500Y-29840691D01*
X6249500Y-29840691D01*
X6249500Y-29959309D01*
X6280201Y-30073886D01*
X6339511Y-30176613D01*
X6423387Y-30260489D01*
X6526114Y-30319799D01*
X6640691Y-30350500D01*
X6640694Y-30350500D01*
X6759306Y-30350500D01*
X6759309Y-30350500D01*
X6873886Y-30319799D01*
X6976613Y-30260489D01*
X7060489Y-30176613D01*
X7119799Y-30073886D01*
X7150500Y-29959309D01*
X7150500Y-29840691D01*
X8449500Y-29840691D01*
X8449500Y-29959309D01*
X8480201Y-30073886D01*
X8539511Y-30176613D01*
X8623387Y-30260489D01*
X8726114Y-30319799D01*
X8840691Y-30350500D01*
X8840694Y-30350500D01*
X8959306Y-30350500D01*
X8959309Y-30350500D01*
X9073886Y-30319799D01*
X9176613Y-30260489D01*
X9260489Y-30176613D01*
X9319799Y-30073886D01*
X9350500Y-29959309D01*
X9350500Y-29840691D01*
X12849500Y-29840691D01*
X12849500Y-29959309D01*
X12880201Y-30073886D01*
X12939511Y-30176613D01*
X13023387Y-30260489D01*
X13126114Y-30319799D01*
X13240691Y-30350500D01*
X13240694Y-30350500D01*
X13359306Y-30350500D01*
X13359309Y-30350500D01*
X13473886Y-30319799D01*
X13576613Y-30260489D01*
X13660489Y-30176613D01*
X13719799Y-30073886D01*
X13750500Y-29959309D01*
X13750500Y-29840691D01*
X13738743Y-29796815D01*
X15005624Y-29796815D01*
X15005624Y-29915433D01*
X15036325Y-30030010D01*
X15095635Y-30132737D01*
X15179511Y-30216613D01*
X15282238Y-30275923D01*
X15396815Y-30306624D01*
X15396818Y-30306624D01*
X15515430Y-30306624D01*
X15515433Y-30306624D01*
X15630010Y-30275923D01*
X15732737Y-30216613D01*
X15816613Y-30132737D01*
X15875923Y-30030010D01*
X15906624Y-29915433D01*
X15906624Y-29840691D01*
X17249500Y-29840691D01*
X17249500Y-29959309D01*
X17280201Y-30073886D01*
X17339511Y-30176613D01*
X17423387Y-30260489D01*
X17526114Y-30319799D01*
X17640691Y-30350500D01*
X17640694Y-30350500D01*
X17759306Y-30350500D01*
X17759309Y-30350500D01*
X17873886Y-30319799D01*
X17976613Y-30260489D01*
X18060489Y-30176613D01*
X18119799Y-30073886D01*
X18150500Y-29959309D01*
X18150500Y-29840691D01*
X18119799Y-29726114D01*
X18060489Y-29623387D01*
X17977793Y-29540691D01*
X23549500Y-29540691D01*
X23549500Y-29659309D01*
X23580201Y-29773886D01*
X23639511Y-29876613D01*
X23723387Y-29960489D01*
X23826114Y-30019799D01*
X23940691Y-30050500D01*
X23940694Y-30050500D01*
X24059306Y-30050500D01*
X24059309Y-30050500D01*
X24173886Y-30019799D01*
X24276613Y-29960489D01*
X24360489Y-29876613D01*
X24419799Y-29773886D01*
X24450500Y-29659309D01*
X24450500Y-29540691D01*
X24419799Y-29426114D01*
X24360489Y-29323387D01*
X24276613Y-29239511D01*
X24173886Y-29180201D01*
X24059309Y-29149500D01*
X23940691Y-29149500D01*
X23826114Y-29180201D01*
X23826112Y-29180201D01*
X23826112Y-29180202D01*
X23723387Y-29239511D01*
X23723384Y-29239513D01*
X23639513Y-29323384D01*
X23639511Y-29323387D01*
X23580201Y-29426114D01*
X23549500Y-29540691D01*
X17977793Y-29540691D01*
X17976613Y-29539511D01*
X17873886Y-29480201D01*
X17759309Y-29449500D01*
X17640691Y-29449500D01*
X17526114Y-29480201D01*
X17526112Y-29480201D01*
X17526112Y-29480202D01*
X17423387Y-29539511D01*
X17423384Y-29539513D01*
X17339513Y-29623384D01*
X17339511Y-29623387D01*
X17280201Y-29726114D01*
X17249500Y-29840691D01*
X15906624Y-29840691D01*
X15906624Y-29796815D01*
X15875923Y-29682238D01*
X15816613Y-29579511D01*
X15732737Y-29495635D01*
X15630010Y-29436325D01*
X15515433Y-29405624D01*
X15396815Y-29405624D01*
X15282238Y-29436325D01*
X15282236Y-29436325D01*
X15282236Y-29436326D01*
X15179511Y-29495635D01*
X15179508Y-29495637D01*
X15095637Y-29579508D01*
X15095635Y-29579511D01*
X15036325Y-29682238D01*
X15005624Y-29796815D01*
X13738743Y-29796815D01*
X13719799Y-29726114D01*
X13660489Y-29623387D01*
X13576613Y-29539511D01*
X13473886Y-29480201D01*
X13359309Y-29449500D01*
X13240691Y-29449500D01*
X13126114Y-29480201D01*
X13126112Y-29480201D01*
X13126112Y-29480202D01*
X13023387Y-29539511D01*
X13023384Y-29539513D01*
X12939513Y-29623384D01*
X12939511Y-29623387D01*
X12880201Y-29726114D01*
X12849500Y-29840691D01*
X9350500Y-29840691D01*
X9319799Y-29726114D01*
X9260489Y-29623387D01*
X9176613Y-29539511D01*
X9073886Y-29480201D01*
X8959309Y-29449500D01*
X8840691Y-29449500D01*
X8726114Y-29480201D01*
X8726112Y-29480201D01*
X8726112Y-29480202D01*
X8623387Y-29539511D01*
X8623384Y-29539513D01*
X8539513Y-29623384D01*
X8539511Y-29623387D01*
X8480201Y-29726114D01*
X8449500Y-29840691D01*
X7150500Y-29840691D01*
X7119799Y-29726114D01*
X7060489Y-29623387D01*
X6976613Y-29539511D01*
X6873886Y-29480201D01*
X6759309Y-29449500D01*
X6640691Y-29449500D01*
X6526114Y-29480201D01*
X6526112Y-29480201D01*
X6526112Y-29480202D01*
X6423387Y-29539511D01*
X6423384Y-29539513D01*
X6339513Y-29623384D01*
X6339511Y-29623387D01*
X6280201Y-29726114D01*
X6249500Y-29840691D01*
X-299500Y-29840691D01*
X-299500Y-27740691D01*
X449500Y-27740691D01*
X449500Y-27859309D01*
X480201Y-27973886D01*
X539511Y-28076613D01*
X623387Y-28160489D01*
X726114Y-28219799D01*
X840691Y-28250500D01*
X840694Y-28250500D01*
X959306Y-28250500D01*
X959309Y-28250500D01*
X1073886Y-28219799D01*
X1176613Y-28160489D01*
X1260489Y-28076613D01*
X1319799Y-27973886D01*
X1350500Y-27859309D01*
X1350500Y-27740691D01*
X1319799Y-27626114D01*
X1260489Y-27523387D01*
X1176613Y-27439511D01*
X1073886Y-27380201D01*
X959309Y-27349500D01*
X840691Y-27349500D01*
X726114Y-27380201D01*
X726112Y-27380201D01*
X726112Y-27380202D01*
X623387Y-27439511D01*
X623384Y-27439513D01*
X539513Y-27523384D01*
X539511Y-27523387D01*
X480201Y-27626114D01*
X449500Y-27740691D01*
X-299500Y-27740691D01*
X-299500Y-27330605D01*
X21239414Y-27330605D01*
X21239414Y-27449223D01*
X21270115Y-27563800D01*
X21329425Y-27666527D01*
X21413301Y-27750403D01*
X21516028Y-27809713D01*
X21630605Y-27840414D01*
X21630608Y-27840414D01*
X21749220Y-27840414D01*
X21749223Y-27840414D01*
X21863800Y-27809713D01*
X21966527Y-27750403D01*
X22050403Y-27666527D01*
X22109713Y-27563800D01*
X22140414Y-27449223D01*
X22140414Y-27330605D01*
X22109713Y-27216028D01*
X22050403Y-27113301D01*
X21966527Y-27029425D01*
X21863800Y-26970115D01*
X21749223Y-26939414D01*
X21630605Y-26939414D01*
X21516028Y-26970115D01*
X21516026Y-26970115D01*
X21516026Y-26970116D01*
X21413301Y-27029425D01*
X21413298Y-27029427D01*
X21329427Y-27113298D01*
X21329425Y-27113301D01*
X21270115Y-27216028D01*
X21239414Y-27330605D01*
X-299500Y-27330605D01*
X-299500Y-25840691D01*
X12349500Y-25840691D01*
X12349500Y-25959309D01*
X12380201Y-26073886D01*
X12439511Y-26176613D01*
X12523387Y-26260489D01*
X12626114Y-26319799D01*
X12740691Y-26350500D01*
X12740694Y-26350500D01*
X12859306Y-26350500D01*
X12859309Y-26350500D01*
X12973886Y-26319799D01*
X13076613Y-26260489D01*
X13160489Y-26176613D01*
X13219799Y-26073886D01*
X13250500Y-25959309D01*
X13250500Y-25840691D01*
X13219799Y-25726114D01*
X13160489Y-25623387D01*
X13076613Y-25539511D01*
X12973886Y-25480201D01*
X12859309Y-25449500D01*
X12740691Y-25449500D01*
X12626114Y-25480201D01*
X12626112Y-25480201D01*
X12626112Y-25480202D01*
X12523387Y-25539511D01*
X12523384Y-25539513D01*
X12439513Y-25623384D01*
X12439511Y-25623387D01*
X12390621Y-25708067D01*
X12380201Y-25726114D01*
X12349500Y-25840691D01*
X-299500Y-25840691D01*
X-299500Y-24865960D01*
X8374230Y-24865960D01*
X8374230Y-24984578D01*
X8404931Y-25099155D01*
X8464241Y-25201882D01*
X8548117Y-25285758D01*
X8650844Y-25345068D01*
X8765421Y-25375769D01*
X8765424Y-25375769D01*
X8884036Y-25375769D01*
X8884039Y-25375769D01*
X8998616Y-25345068D01*
X9101343Y-25285758D01*
X9185219Y-25201882D01*
X9244529Y-25099155D01*
X9275230Y-24984578D01*
X9275230Y-24865960D01*
X9244529Y-24751383D01*
X9185219Y-24648656D01*
X9101343Y-24564780D01*
X8998616Y-24505470D01*
X8884039Y-24474769D01*
X8765421Y-24474769D01*
X8650844Y-24505470D01*
X8650842Y-24505470D01*
X8650842Y-24505471D01*
X8548117Y-24564780D01*
X8548114Y-24564782D01*
X8464243Y-24648653D01*
X8464241Y-24648656D01*
X8424020Y-24718321D01*
X8404931Y-24751383D01*
X8374230Y-24865960D01*
X-299500Y-24865960D01*
X-299500Y-23740691D01*
X449500Y-23740691D01*
X449500Y-23859309D01*
X480201Y-23973886D01*
X539511Y-24076613D01*
X623387Y-24160489D01*
X726114Y-24219799D01*
X840691Y-24250500D01*
X840694Y-24250500D01*
X959306Y-24250500D01*
X959309Y-24250500D01*
X1073886Y-24219799D01*
X1176613Y-24160489D01*
X1260489Y-24076613D01*
X1319799Y-23973886D01*
X1350500Y-23859309D01*
X1350500Y-23740691D01*
X1319799Y-23626114D01*
X1260489Y-23523387D01*
X1176613Y-23439511D01*
X1073886Y-23380201D01*
X959309Y-23349500D01*
X840691Y-23349500D01*
X726114Y-23380201D01*
X726112Y-23380201D01*
X726112Y-23380202D01*
X623387Y-23439511D01*
X623384Y-23439513D01*
X539513Y-23523384D01*
X539511Y-23523387D01*
X508780Y-23576615D01*
X480201Y-23626114D01*
X449500Y-23740691D01*
X-299500Y-23740691D01*
X-299500Y-21540691D01*
X3949500Y-21540691D01*
X3949500Y-21659309D01*
X3980201Y-21773886D01*
X4039511Y-21876613D01*
X4123387Y-21960489D01*
X4226114Y-22019799D01*
X4340691Y-22050500D01*
X4340694Y-22050500D01*
X4459306Y-22050500D01*
X4459309Y-22050500D01*
X4573886Y-22019799D01*
X4676613Y-21960489D01*
X4760489Y-21876613D01*
X4769682Y-21860691D01*
X7149500Y-21860691D01*
X7149500Y-21979309D01*
X7180201Y-22093886D01*
X7239511Y-22196613D01*
X7323387Y-22280489D01*
X7426114Y-22339799D01*
X7540691Y-22370500D01*
X7540694Y-22370500D01*
X7659306Y-22370500D01*
X7659309Y-22370500D01*
X7773886Y-22339799D01*
X7876613Y-22280489D01*
X7960489Y-22196613D01*
X8019799Y-22093886D01*
X8050500Y-21979309D01*
X8050500Y-21860691D01*
X8019799Y-21746114D01*
X7960489Y-21643387D01*
X7876613Y-21559511D01*
X7773886Y-21500201D01*
X7659309Y-21469500D01*
X7540691Y-21469500D01*
X7426114Y-21500201D01*
X7426112Y-21500201D01*
X7426112Y-21500202D01*
X7323387Y-21559511D01*
X7323384Y-21559513D01*
X7239513Y-21643384D01*
X7239511Y-21643387D01*
X7180201Y-21746114D01*
X7149500Y-21860691D01*
X4769682Y-21860691D01*
X4819799Y-21773886D01*
X4850500Y-21659309D01*
X4850500Y-21540691D01*
X4819799Y-21426114D01*
X4760489Y-21323387D01*
X4676613Y-21239511D01*
X4573886Y-21180201D01*
X4459309Y-21149500D01*
X4340691Y-21149500D01*
X4226114Y-21180201D01*
X4226112Y-21180201D01*
X4226112Y-21180202D01*
X4123387Y-21239511D01*
X4123384Y-21239513D01*
X4039513Y-21323384D01*
X4039511Y-21323387D01*
X4006623Y-21380351D01*
X3980201Y-21426114D01*
X3949500Y-21540691D01*
X-299500Y-21540691D01*
X-299500Y-20440691D01*
X5549500Y-20440691D01*
X5549500Y-20559309D01*
X5580201Y-20673886D01*
X5639511Y-20776613D01*
X5723387Y-20860489D01*
X5826114Y-20919799D01*
X5940691Y-20950500D01*
X5940694Y-20950500D01*
X6059306Y-20950500D01*
X6059309Y-20950500D01*
X6173886Y-20919799D01*
X6276613Y-20860489D01*
X6360489Y-20776613D01*
X6419799Y-20673886D01*
X6450500Y-20559309D01*
X6450500Y-20440691D01*
X6419799Y-20326114D01*
X6360489Y-20223387D01*
X6276613Y-20139511D01*
X6173886Y-20080201D01*
X6059309Y-20049500D01*
X5940691Y-20049500D01*
X5826114Y-20080201D01*
X5826112Y-20080201D01*
X5826112Y-20080202D01*
X5723387Y-20139511D01*
X5723384Y-20139513D01*
X5639513Y-20223384D01*
X5639511Y-20223387D01*
X5610355Y-20273887D01*
X5580201Y-20326114D01*
X5549500Y-20440691D01*
X-299500Y-20440691D01*
X-299500Y-18366836D01*
X7954059Y-18366836D01*
X7954059Y-18485454D01*
X7984760Y-18600031D01*
X8044070Y-18702758D01*
X8127946Y-18786634D01*
X8230673Y-18845944D01*
X8345250Y-18876645D01*
X8345253Y-18876645D01*
X8463865Y-18876645D01*
X8463868Y-18876645D01*
X8578445Y-18845944D01*
X8681172Y-18786634D01*
X8700526Y-18767279D01*
X8761846Y-18733794D01*
X8831538Y-18738777D01*
X8875888Y-18767279D01*
X8946243Y-18837634D01*
X9048970Y-18896944D01*
X9163547Y-18927645D01*
X9163550Y-18927645D01*
X9282162Y-18927645D01*
X9282165Y-18927645D01*
X9396742Y-18896944D01*
X9499469Y-18837634D01*
X9583345Y-18753758D01*
X9642655Y-18651031D01*
X9673356Y-18536454D01*
X9673356Y-18446408D01*
X9693041Y-18379369D01*
X9709675Y-18358727D01*
X10213584Y-17854819D01*
X10274907Y-17821334D01*
X10301265Y-17818500D01*
X11285036Y-17818500D01*
X11352075Y-17838185D01*
X11397830Y-17890989D01*
X11407774Y-17960147D01*
X11378749Y-18023703D01*
X11372717Y-18030181D01*
X11339513Y-18063384D01*
X11339511Y-18063387D01*
X11297581Y-18136012D01*
X11280201Y-18166114D01*
X11249500Y-18280691D01*
X11249500Y-18399309D01*
X11280201Y-18513886D01*
X11339511Y-18616613D01*
X11423387Y-18700489D01*
X11526114Y-18759799D01*
X11640691Y-18790500D01*
X11640694Y-18790500D01*
X11759306Y-18790500D01*
X11759309Y-18790500D01*
X11873886Y-18759799D01*
X11976613Y-18700489D01*
X12060489Y-18616613D01*
X12119799Y-18513886D01*
X12150500Y-18399309D01*
X12150500Y-18338807D01*
X12170185Y-18271768D01*
X12222989Y-18226013D01*
X12292147Y-18216069D01*
X12355703Y-18245094D01*
X12381886Y-18276805D01*
X12439511Y-18376613D01*
X12523387Y-18460489D01*
X12626114Y-18519799D01*
X12740691Y-18550500D01*
X12740694Y-18550500D01*
X12859306Y-18550500D01*
X12859309Y-18550500D01*
X12973886Y-18519799D01*
X13024499Y-18490576D01*
X13092399Y-18474104D01*
X13158426Y-18496956D01*
X13174181Y-18510283D01*
X13213387Y-18549489D01*
X13316114Y-18608799D01*
X13430691Y-18639500D01*
X13430694Y-18639500D01*
X13549306Y-18639500D01*
X13549309Y-18639500D01*
X13663886Y-18608799D01*
X13766613Y-18549489D01*
X13847806Y-18468295D01*
X13909125Y-18434813D01*
X13978817Y-18439797D01*
X14034751Y-18481668D01*
X14059168Y-18547132D01*
X14059081Y-18565962D01*
X14058173Y-18577194D01*
X14047185Y-18618205D01*
X14047185Y-18713241D01*
X14046782Y-18718231D01*
X14035990Y-18746372D01*
X14027500Y-18775287D01*
X14022543Y-18781437D01*
X14021765Y-18783468D01*
X14019664Y-18785010D01*
X14010866Y-18795929D01*
X11152440Y-21654356D01*
X11152434Y-21654363D01*
X11138787Y-21668008D01*
X11113113Y-21687707D01*
X11023387Y-21739511D01*
X11023384Y-21739513D01*
X10939513Y-21823384D01*
X10939511Y-21823387D01*
X10885117Y-21917600D01*
X10880201Y-21926114D01*
X10858620Y-22006653D01*
X10849499Y-22040694D01*
X10848439Y-22048751D01*
X10846664Y-22048517D01*
X10829815Y-22105900D01*
X10777011Y-22151655D01*
X10707853Y-22161599D01*
X10693409Y-22158636D01*
X10659313Y-22149500D01*
X10659309Y-22149500D01*
X10540691Y-22149500D01*
X10426114Y-22180201D01*
X10426112Y-22180201D01*
X10426112Y-22180202D01*
X10323387Y-22239511D01*
X10323384Y-22239513D01*
X10239513Y-22323384D01*
X10239511Y-22323387D01*
X10180201Y-22426114D01*
X10149500Y-22540691D01*
X10149500Y-22659309D01*
X10180201Y-22773886D01*
X10239511Y-22876613D01*
X10323387Y-22960489D01*
X10426114Y-23019799D01*
X10540691Y-23050500D01*
X10540694Y-23050500D01*
X10659306Y-23050500D01*
X10659309Y-23050500D01*
X10773886Y-23019799D01*
X10876613Y-22960489D01*
X10940283Y-22896819D01*
X11001606Y-22863334D01*
X11027964Y-22860500D01*
X12671816Y-22860500D01*
X12671817Y-22860500D01*
X12678671Y-22857660D01*
X12748138Y-22850188D01*
X12810619Y-22881459D01*
X12846275Y-22941545D01*
X12849067Y-22956023D01*
X12849499Y-22959303D01*
X12849500Y-22959306D01*
X12849500Y-22959309D01*
X12880201Y-23073886D01*
X12939511Y-23176613D01*
X13023387Y-23260489D01*
X13104783Y-23307483D01*
X13152998Y-23358050D01*
X13166220Y-23426658D01*
X13162557Y-23446962D01*
X13149500Y-23495692D01*
X13149500Y-23614310D01*
X13180201Y-23728887D01*
X13239511Y-23831614D01*
X13323387Y-23915490D01*
X13388858Y-23953290D01*
X13437074Y-24003857D01*
X13450296Y-24072464D01*
X13424328Y-24137329D01*
X13414540Y-24148358D01*
X13339511Y-24223387D01*
X13299350Y-24292948D01*
X13280201Y-24326114D01*
X13249500Y-24440691D01*
X13249500Y-24559309D01*
X13280201Y-24673886D01*
X13339511Y-24776613D01*
X13423387Y-24860489D01*
X13526114Y-24919799D01*
X13640691Y-24950500D01*
X13640694Y-24950500D01*
X13759306Y-24950500D01*
X13759309Y-24950500D01*
X13873886Y-24919799D01*
X13976613Y-24860489D01*
X14060489Y-24776613D01*
X14119799Y-24673886D01*
X14150500Y-24559309D01*
X14150500Y-24440691D01*
X14119799Y-24326114D01*
X14119797Y-24326111D01*
X14119797Y-24326109D01*
X14119796Y-24326108D01*
X14100652Y-24292950D01*
X14100650Y-24292948D01*
X14069546Y-24239074D01*
X15049500Y-24239074D01*
X15049500Y-24357692D01*
X15080201Y-24472269D01*
X15139511Y-24574996D01*
X15223387Y-24658872D01*
X15326114Y-24718182D01*
X15440691Y-24748883D01*
X15440694Y-24748883D01*
X15559306Y-24748883D01*
X15559309Y-24748883D01*
X15673886Y-24718182D01*
X15776613Y-24658872D01*
X15860489Y-24574996D01*
X15919799Y-24472269D01*
X15950500Y-24357692D01*
X15950500Y-24239074D01*
X15919799Y-24124497D01*
X15860489Y-24021770D01*
X15776613Y-23937894D01*
X15673886Y-23878584D01*
X15559309Y-23847883D01*
X15440691Y-23847883D01*
X15326114Y-23878584D01*
X15326112Y-23878584D01*
X15326112Y-23878585D01*
X15223387Y-23937894D01*
X15223384Y-23937896D01*
X15139513Y-24021767D01*
X15139511Y-24021770D01*
X15082915Y-24119797D01*
X15080201Y-24124497D01*
X15049500Y-24239074D01*
X14069546Y-24239074D01*
X14060489Y-24223387D01*
X13976613Y-24139511D01*
X13911139Y-24101709D01*
X13862925Y-24051142D01*
X13849703Y-23982535D01*
X13875671Y-23917671D01*
X13885444Y-23906658D01*
X13960489Y-23831614D01*
X14019799Y-23728887D01*
X14050500Y-23614310D01*
X14050500Y-23495692D01*
X14019799Y-23381115D01*
X13960489Y-23278388D01*
X13876613Y-23194512D01*
X13795215Y-23147516D01*
X13747001Y-23096949D01*
X13733779Y-23028342D01*
X13737441Y-23008044D01*
X13750500Y-22959309D01*
X13750500Y-22840691D01*
X13744043Y-22816592D01*
X13745706Y-22746742D01*
X13784870Y-22688880D01*
X13849098Y-22661377D01*
X13863818Y-22660500D01*
X21171736Y-22660500D01*
X21238775Y-22680185D01*
X21284530Y-22732989D01*
X21294474Y-22802147D01*
X21265449Y-22865703D01*
X21259417Y-22872181D01*
X20592728Y-23538870D01*
X20531405Y-23572355D01*
X20505047Y-23575189D01*
X18886950Y-23575189D01*
X18824290Y-23601145D01*
X18791210Y-23614847D01*
X18791207Y-23614849D01*
X18602081Y-23803976D01*
X18540758Y-23837461D01*
X18514400Y-23840295D01*
X18448067Y-23840295D01*
X18333490Y-23870996D01*
X18333488Y-23870996D01*
X18333488Y-23870997D01*
X18230763Y-23930306D01*
X18230760Y-23930308D01*
X18146889Y-24014179D01*
X18146887Y-24014182D01*
X18088175Y-24115874D01*
X18087577Y-24116909D01*
X18056876Y-24231486D01*
X18056876Y-24350104D01*
X18087577Y-24464681D01*
X18146887Y-24567408D01*
X18230763Y-24651284D01*
X18333490Y-24710594D01*
X18448067Y-24741295D01*
X18448070Y-24741295D01*
X18566682Y-24741295D01*
X18566685Y-24741295D01*
X18681262Y-24710594D01*
X18783989Y-24651284D01*
X18867865Y-24567408D01*
X18927175Y-24464681D01*
X18957876Y-24350104D01*
X18957876Y-24236347D01*
X18966522Y-24206901D01*
X18973046Y-24176917D01*
X18976798Y-24171904D01*
X18977561Y-24169308D01*
X18994197Y-24148663D01*
X19010356Y-24132505D01*
X19071681Y-24099022D01*
X19098035Y-24096189D01*
X19552086Y-24096189D01*
X19619125Y-24115874D01*
X19664880Y-24168678D01*
X19674824Y-24237836D01*
X19671864Y-24252266D01*
X19649500Y-24335731D01*
X19649500Y-24454349D01*
X19680201Y-24568926D01*
X19739511Y-24671653D01*
X19823387Y-24755529D01*
X19867646Y-24781082D01*
X19914464Y-24808113D01*
X19962679Y-24858681D01*
X19975901Y-24927288D01*
X19949933Y-24992153D01*
X19893018Y-25032680D01*
X19852463Y-25039500D01*
X17145329Y-25039500D01*
X17078290Y-25019815D01*
X17033569Y-24969219D01*
X17028552Y-24958782D01*
X17019799Y-24926114D01*
X16978305Y-24854245D01*
X16976280Y-24850032D01*
X16971357Y-24819996D01*
X16964180Y-24790415D01*
X16965760Y-24785848D01*
X16964979Y-24781082D01*
X16977075Y-24753155D01*
X16987031Y-24724388D01*
X16992162Y-24718321D01*
X16992749Y-24716968D01*
X16994040Y-24716101D01*
X17000354Y-24708637D01*
X17046434Y-24662558D01*
X17105744Y-24559831D01*
X17136445Y-24445254D01*
X17136445Y-24326636D01*
X17105744Y-24212059D01*
X17046434Y-24109332D01*
X16962558Y-24025456D01*
X16859831Y-23966146D01*
X16745254Y-23935445D01*
X16626636Y-23935445D01*
X16512059Y-23966146D01*
X16512057Y-23966146D01*
X16512057Y-23966147D01*
X16409332Y-24025456D01*
X16409329Y-24025458D01*
X16325458Y-24109329D01*
X16325456Y-24109332D01*
X16290829Y-24169308D01*
X16266146Y-24212059D01*
X16235445Y-24326636D01*
X16235445Y-24445254D01*
X16266006Y-24559309D01*
X16266147Y-24559834D01*
X16305290Y-24627631D01*
X16321763Y-24695531D01*
X16298911Y-24761558D01*
X16285586Y-24777311D01*
X16239511Y-24823387D01*
X16218091Y-24860488D01*
X16180201Y-24926114D01*
X16149500Y-25040691D01*
X16149500Y-25159309D01*
X16180201Y-25273886D01*
X16239511Y-25376613D01*
X16239513Y-25376615D01*
X16326342Y-25463444D01*
X16359827Y-25524767D01*
X16354843Y-25594459D01*
X16342927Y-25615975D01*
X16343575Y-25616349D01*
X16339512Y-25623385D01*
X16339511Y-25623387D01*
X16316929Y-25662500D01*
X16290621Y-25708067D01*
X16280201Y-25726114D01*
X16249500Y-25840691D01*
X16249500Y-25959309D01*
X16280201Y-26073886D01*
X16339511Y-26176613D01*
X16423387Y-26260489D01*
X16526114Y-26319799D01*
X16640691Y-26350500D01*
X16640694Y-26350500D01*
X16759306Y-26350500D01*
X16759309Y-26350500D01*
X16873886Y-26319799D01*
X16976613Y-26260489D01*
X17060489Y-26176613D01*
X17119799Y-26073886D01*
X17150500Y-25959309D01*
X17150500Y-25840691D01*
X17119799Y-25726114D01*
X17119797Y-25726112D01*
X17117695Y-25718264D01*
X17120662Y-25717468D01*
X17114745Y-25662500D01*
X17146012Y-25600016D01*
X17206096Y-25564356D01*
X17236778Y-25560500D01*
X21104428Y-25560500D01*
X21104429Y-25560500D01*
X21200173Y-25520841D01*
X21974817Y-24746196D01*
X22007236Y-24724537D01*
X22006847Y-24723863D01*
X22016446Y-24718321D01*
X22116613Y-24660489D01*
X22200489Y-24576613D01*
X22259799Y-24473886D01*
X22290500Y-24359309D01*
X22290500Y-24271856D01*
X22310185Y-24204817D01*
X22362989Y-24159062D01*
X22432147Y-24149118D01*
X22435641Y-24149834D01*
X22440689Y-24150499D01*
X22440691Y-24150500D01*
X22440693Y-24150500D01*
X22559306Y-24150500D01*
X22559309Y-24150500D01*
X22673886Y-24119799D01*
X22776613Y-24060489D01*
X22860489Y-23976613D01*
X22919799Y-23873886D01*
X22950500Y-23759309D01*
X22950500Y-23640691D01*
X22919799Y-23526114D01*
X22860489Y-23423387D01*
X22776613Y-23339511D01*
X22673886Y-23280201D01*
X22559309Y-23249500D01*
X22440691Y-23249500D01*
X22326114Y-23280201D01*
X22326112Y-23280201D01*
X22326112Y-23280202D01*
X22223387Y-23339511D01*
X22223384Y-23339513D01*
X22139513Y-23423384D01*
X22139511Y-23423387D01*
X22110355Y-23473887D01*
X22080201Y-23526114D01*
X22049500Y-23640691D01*
X22049500Y-23640693D01*
X22049500Y-23728143D01*
X22029815Y-23795182D01*
X21977011Y-23840937D01*
X21907853Y-23850881D01*
X21904358Y-23850165D01*
X21899310Y-23849500D01*
X21899309Y-23849500D01*
X21780691Y-23849500D01*
X21666114Y-23880201D01*
X21666112Y-23880201D01*
X21666112Y-23880202D01*
X21563387Y-23939511D01*
X21563384Y-23939513D01*
X21479513Y-24023384D01*
X21479511Y-24023387D01*
X21421135Y-24124497D01*
X21420201Y-24126114D01*
X21389500Y-24240691D01*
X21389500Y-24359309D01*
X21417735Y-24464681D01*
X21420717Y-24475810D01*
X21419054Y-24545660D01*
X21388623Y-24595585D01*
X20981029Y-25003181D01*
X20919706Y-25036666D01*
X20893348Y-25039500D01*
X20347537Y-25039500D01*
X20280498Y-25019815D01*
X20234743Y-24967011D01*
X20224799Y-24897853D01*
X20253824Y-24834297D01*
X20285536Y-24808113D01*
X20316189Y-24790415D01*
X20376613Y-24755529D01*
X20460489Y-24671653D01*
X20519799Y-24568926D01*
X20550500Y-24454349D01*
X20550500Y-24335731D01*
X20528139Y-24252279D01*
X20529802Y-24182433D01*
X20568964Y-24124571D01*
X20633192Y-24097066D01*
X20647914Y-24096189D01*
X20716127Y-24096189D01*
X20716128Y-24096189D01*
X20811872Y-24056530D01*
X23488051Y-21380351D01*
X23549374Y-21346866D01*
X23619066Y-21351850D01*
X23674999Y-21393722D01*
X23699416Y-21459186D01*
X23699732Y-21468032D01*
X23699732Y-24496211D01*
X23680047Y-24563250D01*
X23627243Y-24609005D01*
X23575732Y-24620211D01*
X23511402Y-24620211D01*
X23396825Y-24650912D01*
X23396823Y-24650912D01*
X23396823Y-24650913D01*
X23294098Y-24710222D01*
X23294095Y-24710224D01*
X23210224Y-24794095D01*
X23210222Y-24794098D01*
X23171893Y-24860486D01*
X23150912Y-24896825D01*
X23120211Y-25011402D01*
X23120211Y-25130020D01*
X23139467Y-25201884D01*
X23150912Y-25244598D01*
X23153747Y-25251441D01*
X23161213Y-25320911D01*
X23129936Y-25383389D01*
X23126866Y-25386570D01*
X23049392Y-25464045D01*
X23049389Y-25464049D01*
X23005821Y-25539511D01*
X22990079Y-25566776D01*
X22959378Y-25681353D01*
X22959378Y-25799971D01*
X22990079Y-25914548D01*
X23049389Y-26017275D01*
X23133265Y-26101151D01*
X23235992Y-26160461D01*
X23350569Y-26191162D01*
X23350572Y-26191162D01*
X23469184Y-26191162D01*
X23469187Y-26191162D01*
X23583764Y-26160461D01*
X23686491Y-26101151D01*
X23770367Y-26017275D01*
X23798242Y-25968995D01*
X26269499Y-25968995D01*
X26296418Y-26104322D01*
X26296421Y-26104332D01*
X26349221Y-26231804D01*
X26349228Y-26231817D01*
X26425885Y-26346541D01*
X26425888Y-26346545D01*
X26523454Y-26444111D01*
X26523458Y-26444114D01*
X26638182Y-26520771D01*
X26638195Y-26520778D01*
X26765667Y-26573578D01*
X26765672Y-26573580D01*
X26765676Y-26573580D01*
X26765677Y-26573581D01*
X26901004Y-26600500D01*
X26901007Y-26600500D01*
X28138995Y-26600500D01*
X28230041Y-26582389D01*
X28274328Y-26573580D01*
X28401811Y-26520775D01*
X28516542Y-26444114D01*
X28614114Y-26346542D01*
X28690775Y-26231811D01*
X28743580Y-26104328D01*
X28770500Y-25968995D01*
X30599499Y-25968995D01*
X30626418Y-26104322D01*
X30626421Y-26104332D01*
X30679221Y-26231804D01*
X30679228Y-26231817D01*
X30755885Y-26346541D01*
X30755888Y-26346545D01*
X30853454Y-26444111D01*
X30853458Y-26444114D01*
X30968182Y-26520771D01*
X30968195Y-26520778D01*
X31095667Y-26573578D01*
X31095672Y-26573580D01*
X31095676Y-26573580D01*
X31095677Y-26573581D01*
X31231004Y-26600500D01*
X31231007Y-26600500D01*
X32168995Y-26600500D01*
X32260041Y-26582389D01*
X32304328Y-26573580D01*
X32431811Y-26520775D01*
X32546542Y-26444114D01*
X32644114Y-26346542D01*
X32720775Y-26231811D01*
X32773580Y-26104328D01*
X32800500Y-25968993D01*
X32800500Y-25831007D01*
X32800500Y-25831004D01*
X32773581Y-25695677D01*
X32773580Y-25695676D01*
X32773580Y-25695672D01*
X32743639Y-25623387D01*
X32720778Y-25568195D01*
X32720771Y-25568182D01*
X32644114Y-25453458D01*
X32644111Y-25453454D01*
X32546545Y-25355888D01*
X32546541Y-25355885D01*
X32431817Y-25279228D01*
X32431804Y-25279221D01*
X32304332Y-25226421D01*
X32304322Y-25226418D01*
X32168995Y-25199500D01*
X32168993Y-25199500D01*
X31231007Y-25199500D01*
X31231005Y-25199500D01*
X31095677Y-25226418D01*
X31095667Y-25226421D01*
X30968195Y-25279221D01*
X30968182Y-25279228D01*
X30853458Y-25355885D01*
X30853454Y-25355888D01*
X30755888Y-25453454D01*
X30755885Y-25453458D01*
X30679228Y-25568182D01*
X30679221Y-25568195D01*
X30626421Y-25695667D01*
X30626418Y-25695677D01*
X30599500Y-25831004D01*
X30599500Y-25831007D01*
X30599500Y-25968993D01*
X30599500Y-25968995D01*
X30599499Y-25968995D01*
X28770500Y-25968995D01*
X28770500Y-25968993D01*
X28770500Y-25831007D01*
X28770500Y-25831004D01*
X28743581Y-25695677D01*
X28743580Y-25695676D01*
X28743580Y-25695672D01*
X28713639Y-25623387D01*
X28690778Y-25568195D01*
X28690771Y-25568182D01*
X28614114Y-25453458D01*
X28614111Y-25453454D01*
X28516545Y-25355888D01*
X28516541Y-25355885D01*
X28401817Y-25279228D01*
X28401804Y-25279221D01*
X28274332Y-25226421D01*
X28274322Y-25226418D01*
X28195032Y-25210646D01*
X28133121Y-25178261D01*
X28098547Y-25117545D01*
X28102288Y-25047775D01*
X28143154Y-24991103D01*
X28187128Y-24969255D01*
X28222836Y-24959688D01*
X28342665Y-24890505D01*
X28440505Y-24792665D01*
X28509688Y-24672836D01*
X28545500Y-24539183D01*
X28545500Y-24400817D01*
X28509688Y-24267164D01*
X28453191Y-24169308D01*
X28440507Y-24147338D01*
X28440503Y-24147333D01*
X28342666Y-24049496D01*
X28342661Y-24049492D01*
X28222838Y-23980313D01*
X28222837Y-23980312D01*
X28222836Y-23980312D01*
X28089183Y-23944500D01*
X27950817Y-23944500D01*
X27817164Y-23980312D01*
X27817161Y-23980313D01*
X27697338Y-24049492D01*
X27697333Y-24049496D01*
X27599496Y-24147333D01*
X27599492Y-24147338D01*
X27530313Y-24267161D01*
X27530312Y-24267164D01*
X27494500Y-24400817D01*
X27494500Y-24539183D01*
X27526571Y-24658872D01*
X27530312Y-24672835D01*
X27530313Y-24672838D01*
X27599492Y-24792661D01*
X27599494Y-24792664D01*
X27599495Y-24792665D01*
X27697335Y-24890505D01*
X27697336Y-24890506D01*
X27697338Y-24890507D01*
X27710062Y-24897853D01*
X27817164Y-24959688D01*
X27817167Y-24959689D01*
X27820182Y-24960938D01*
X27822337Y-24962675D01*
X27824203Y-24963752D01*
X27824035Y-24964042D01*
X27874587Y-25004778D01*
X27896653Y-25071072D01*
X27879375Y-25138771D01*
X27828239Y-25186383D01*
X27772732Y-25199500D01*
X26901005Y-25199500D01*
X26765677Y-25226418D01*
X26765667Y-25226421D01*
X26638195Y-25279221D01*
X26638182Y-25279228D01*
X26523458Y-25355885D01*
X26523454Y-25355888D01*
X26425888Y-25453454D01*
X26425885Y-25453458D01*
X26349228Y-25568182D01*
X26349221Y-25568195D01*
X26296421Y-25695667D01*
X26296418Y-25695677D01*
X26269500Y-25831004D01*
X26269500Y-25831007D01*
X26269500Y-25968993D01*
X26269500Y-25968995D01*
X26269499Y-25968995D01*
X23798242Y-25968995D01*
X23829677Y-25914548D01*
X23860378Y-25799971D01*
X23860378Y-25778716D01*
X23860558Y-25775377D01*
X23871124Y-25745450D01*
X23880063Y-25715011D01*
X23883284Y-25711013D01*
X23883821Y-25709494D01*
X23885658Y-25708067D01*
X23896697Y-25694369D01*
X24130577Y-25460489D01*
X24402074Y-25188993D01*
X24431954Y-25116855D01*
X24431955Y-25116854D01*
X24441730Y-25093253D01*
X24441732Y-25093249D01*
X24441732Y-23828120D01*
X24461417Y-23761081D01*
X24514221Y-23715326D01*
X24583379Y-23705382D01*
X24618278Y-23717462D01*
X24618600Y-23716687D01*
X24626109Y-23719797D01*
X24626111Y-23719797D01*
X24626114Y-23719799D01*
X24740691Y-23750500D01*
X24740694Y-23750500D01*
X24859306Y-23750500D01*
X24859309Y-23750500D01*
X24973886Y-23719799D01*
X25076613Y-23660489D01*
X25160489Y-23576613D01*
X25219799Y-23473886D01*
X25250500Y-23359309D01*
X25250500Y-23240691D01*
X25250207Y-23239597D01*
X25250229Y-23238641D01*
X25249439Y-23232635D01*
X25250375Y-23232511D01*
X25251865Y-23169753D01*
X25291024Y-23111888D01*
X25307974Y-23100117D01*
X25376613Y-23060489D01*
X25460489Y-22976613D01*
X25519799Y-22873886D01*
X25550500Y-22759309D01*
X25550500Y-22640691D01*
X25519799Y-22526114D01*
X25460489Y-22423387D01*
X25376613Y-22339511D01*
X25273886Y-22280201D01*
X25159309Y-22249500D01*
X25040691Y-22249500D01*
X24926114Y-22280201D01*
X24926112Y-22280201D01*
X24926112Y-22280202D01*
X24823387Y-22339511D01*
X24823384Y-22339513D01*
X24739513Y-22423384D01*
X24739511Y-22423387D01*
X24676137Y-22533153D01*
X24674979Y-22532484D01*
X24636452Y-22580295D01*
X24570157Y-22602359D01*
X24502458Y-22585079D01*
X24454848Y-22533942D01*
X24441732Y-22478438D01*
X24441732Y-19040691D01*
X25059500Y-19040691D01*
X25059500Y-19159309D01*
X25090201Y-19273886D01*
X25149511Y-19376613D01*
X25233387Y-19460489D01*
X25336114Y-19519799D01*
X25450691Y-19550500D01*
X25450694Y-19550500D01*
X25569306Y-19550500D01*
X25569309Y-19550500D01*
X25683886Y-19519799D01*
X25786613Y-19460489D01*
X25870489Y-19376613D01*
X25929799Y-19273886D01*
X25960500Y-19159309D01*
X25960500Y-19040691D01*
X25929799Y-18926114D01*
X25870489Y-18823387D01*
X25786613Y-18739511D01*
X25683886Y-18680201D01*
X25569309Y-18649500D01*
X25450691Y-18649500D01*
X25336114Y-18680201D01*
X25336112Y-18680201D01*
X25336112Y-18680202D01*
X25233387Y-18739511D01*
X25233384Y-18739513D01*
X25149513Y-18823384D01*
X25149511Y-18823387D01*
X25090201Y-18926114D01*
X25059500Y-19040691D01*
X24441732Y-19040691D01*
X24441732Y-17966085D01*
X24441732Y-17966083D01*
X24439415Y-17960489D01*
X24439413Y-17960483D01*
X24439413Y-17960482D01*
X24402076Y-17870342D01*
X24402074Y-17870339D01*
X23860730Y-17328995D01*
X26269499Y-17328995D01*
X26296418Y-17464322D01*
X26296421Y-17464332D01*
X26349221Y-17591804D01*
X26349228Y-17591817D01*
X26425885Y-17706541D01*
X26425888Y-17706545D01*
X26523454Y-17804111D01*
X26523458Y-17804114D01*
X26638182Y-17880771D01*
X26638195Y-17880778D01*
X26733372Y-17920201D01*
X26765672Y-17933580D01*
X26765676Y-17933580D01*
X26765677Y-17933581D01*
X26901004Y-17960500D01*
X27772732Y-17960500D01*
X27839771Y-17980185D01*
X27885526Y-18032989D01*
X27895470Y-18102147D01*
X27866445Y-18165703D01*
X27824168Y-18196187D01*
X27824203Y-18196248D01*
X27823608Y-18196591D01*
X27820182Y-18199062D01*
X27817163Y-18200312D01*
X27697338Y-18269492D01*
X27697333Y-18269496D01*
X27599496Y-18367333D01*
X27599492Y-18367338D01*
X27530313Y-18487161D01*
X27530312Y-18487164D01*
X27494500Y-18620817D01*
X27494500Y-18759183D01*
X27517748Y-18845944D01*
X27530312Y-18892835D01*
X27530313Y-18892838D01*
X27599492Y-19012661D01*
X27599494Y-19012664D01*
X27599495Y-19012665D01*
X27697335Y-19110505D01*
X27817164Y-19179688D01*
X27950817Y-19215500D01*
X27950819Y-19215500D01*
X28089181Y-19215500D01*
X28089183Y-19215500D01*
X28222836Y-19179688D01*
X28342665Y-19110505D01*
X28440505Y-19012665D01*
X28509688Y-18892836D01*
X28545500Y-18759183D01*
X28545500Y-18620817D01*
X28509688Y-18487164D01*
X28459884Y-18400901D01*
X28440507Y-18367338D01*
X28440503Y-18367333D01*
X28342666Y-18269496D01*
X28342661Y-18269492D01*
X28222838Y-18200313D01*
X28222837Y-18200312D01*
X28207017Y-18196073D01*
X28187129Y-18190744D01*
X28127470Y-18154379D01*
X28096941Y-18091532D01*
X28105236Y-18022157D01*
X28149722Y-17968279D01*
X28195033Y-17949353D01*
X28209297Y-17946515D01*
X28274328Y-17933580D01*
X28401811Y-17880775D01*
X28516542Y-17804114D01*
X28517084Y-17803572D01*
X28517439Y-17803377D01*
X28521252Y-17800249D01*
X28521845Y-17800971D01*
X28578403Y-17770081D01*
X28648096Y-17775058D01*
X28704033Y-17816923D01*
X28712160Y-17829242D01*
X28739508Y-17876609D01*
X28739510Y-17876611D01*
X28739511Y-17876613D01*
X28823387Y-17960489D01*
X28926114Y-18019799D01*
X29040691Y-18050500D01*
X29040694Y-18050500D01*
X29159306Y-18050500D01*
X29159309Y-18050500D01*
X29273886Y-18019799D01*
X29376613Y-17960489D01*
X29460489Y-17876613D01*
X29519799Y-17773886D01*
X29550500Y-17659309D01*
X29550500Y-17540691D01*
X29519799Y-17426114D01*
X29463727Y-17328995D01*
X30599499Y-17328995D01*
X30626418Y-17464322D01*
X30626421Y-17464332D01*
X30679221Y-17591804D01*
X30679228Y-17591817D01*
X30755885Y-17706541D01*
X30755888Y-17706545D01*
X30853454Y-17804111D01*
X30853458Y-17804114D01*
X30968182Y-17880771D01*
X30968195Y-17880778D01*
X31063372Y-17920201D01*
X31095672Y-17933580D01*
X31095676Y-17933580D01*
X31095677Y-17933581D01*
X31231004Y-17960500D01*
X31231007Y-17960500D01*
X32168995Y-17960500D01*
X32274511Y-17939511D01*
X32304328Y-17933580D01*
X32431811Y-17880775D01*
X32546542Y-17804114D01*
X32644114Y-17706542D01*
X32720775Y-17591811D01*
X32773580Y-17464328D01*
X32800500Y-17328993D01*
X32800500Y-17304314D01*
X32820185Y-17237275D01*
X32872989Y-17191520D01*
X32942147Y-17181576D01*
X32986497Y-17196925D01*
X33026114Y-17219799D01*
X33140691Y-17250500D01*
X33140694Y-17250500D01*
X33259306Y-17250500D01*
X33259309Y-17250500D01*
X33373886Y-17219799D01*
X33476613Y-17160489D01*
X33560489Y-17076613D01*
X33619799Y-16973886D01*
X33650500Y-16859309D01*
X33650500Y-16740691D01*
X33619799Y-16626114D01*
X33560489Y-16523387D01*
X33476613Y-16439511D01*
X33373886Y-16380201D01*
X33259309Y-16349500D01*
X33140691Y-16349500D01*
X33026114Y-16380201D01*
X33026112Y-16380201D01*
X33026112Y-16380202D01*
X32923387Y-16439511D01*
X32923384Y-16439513D01*
X32839513Y-16523384D01*
X32839511Y-16523387D01*
X32803119Y-16586420D01*
X32780201Y-16626114D01*
X32770585Y-16662001D01*
X32767440Y-16673740D01*
X32731074Y-16733400D01*
X32668227Y-16763929D01*
X32598852Y-16755634D01*
X32559984Y-16729327D01*
X32546545Y-16715888D01*
X32546541Y-16715885D01*
X32431817Y-16639228D01*
X32431804Y-16639221D01*
X32304332Y-16586421D01*
X32304322Y-16586418D01*
X32168995Y-16559500D01*
X32168993Y-16559500D01*
X31231007Y-16559500D01*
X31231005Y-16559500D01*
X31095677Y-16586418D01*
X31095667Y-16586421D01*
X30968195Y-16639221D01*
X30968182Y-16639228D01*
X30853458Y-16715885D01*
X30853454Y-16715888D01*
X30755888Y-16813454D01*
X30755885Y-16813458D01*
X30679228Y-16928182D01*
X30679221Y-16928195D01*
X30626421Y-17055667D01*
X30626418Y-17055677D01*
X30599500Y-17191004D01*
X30599500Y-17191007D01*
X30599500Y-17328993D01*
X30599500Y-17328995D01*
X30599499Y-17328995D01*
X29463727Y-17328995D01*
X29460489Y-17323387D01*
X29376613Y-17239511D01*
X29273886Y-17180201D01*
X29159309Y-17149500D01*
X29040691Y-17149500D01*
X28929111Y-17179398D01*
X28926103Y-17180204D01*
X28919939Y-17182757D01*
X28850469Y-17190218D01*
X28787993Y-17158937D01*
X28752347Y-17098844D01*
X28750888Y-17092414D01*
X28743580Y-17055672D01*
X28710833Y-16976613D01*
X28690778Y-16928195D01*
X28690771Y-16928182D01*
X28614114Y-16813458D01*
X28614111Y-16813454D01*
X28516545Y-16715888D01*
X28516541Y-16715885D01*
X28401817Y-16639228D01*
X28401804Y-16639221D01*
X28274332Y-16586421D01*
X28274322Y-16586418D01*
X28138995Y-16559500D01*
X28138993Y-16559500D01*
X26901007Y-16559500D01*
X26901005Y-16559500D01*
X26765677Y-16586418D01*
X26765667Y-16586421D01*
X26638195Y-16639221D01*
X26638182Y-16639228D01*
X26523458Y-16715885D01*
X26523454Y-16715888D01*
X26425888Y-16813454D01*
X26425885Y-16813458D01*
X26349228Y-16928182D01*
X26349221Y-16928195D01*
X26296421Y-17055667D01*
X26296418Y-17055677D01*
X26269500Y-17191004D01*
X26269500Y-17191007D01*
X26269500Y-17328993D01*
X26269500Y-17328995D01*
X26269499Y-17328995D01*
X23860730Y-17328995D01*
X23472099Y-16940364D01*
X23438614Y-16879041D01*
X23443598Y-16809349D01*
X23472099Y-16765001D01*
X23476608Y-16760491D01*
X23476613Y-16760489D01*
X23560489Y-16676613D01*
X23619799Y-16573886D01*
X23650500Y-16459309D01*
X23650500Y-16340691D01*
X23619799Y-16226114D01*
X23560489Y-16123387D01*
X23476613Y-16039511D01*
X23373886Y-15980201D01*
X23259309Y-15949500D01*
X23259307Y-15949500D01*
X23259296Y-15949497D01*
X23257480Y-15949258D01*
X23256062Y-15948630D01*
X23251458Y-15947397D01*
X23251650Y-15946678D01*
X23193586Y-15920985D01*
X23155121Y-15862657D01*
X23150739Y-15842509D01*
X23150500Y-15840700D01*
X23150500Y-15840691D01*
X23119799Y-15726114D01*
X23060489Y-15623387D01*
X22976613Y-15539511D01*
X22873886Y-15480201D01*
X22759309Y-15449500D01*
X22640691Y-15449500D01*
X22526114Y-15480201D01*
X22526112Y-15480201D01*
X22526112Y-15480202D01*
X22423387Y-15539511D01*
X22423384Y-15539513D01*
X22334997Y-15627901D01*
X22273674Y-15661386D01*
X22203982Y-15656402D01*
X22159635Y-15627901D01*
X21710894Y-15179160D01*
X21710893Y-15179159D01*
X21615149Y-15139500D01*
X20909506Y-15139500D01*
X20842467Y-15119815D01*
X20796712Y-15067011D01*
X20786768Y-14997853D01*
X20815793Y-14934297D01*
X20821825Y-14927819D01*
X21008953Y-14740691D01*
X26349500Y-14740691D01*
X26349500Y-14859309D01*
X26380201Y-14973886D01*
X26439511Y-15076613D01*
X26523387Y-15160489D01*
X26626114Y-15219799D01*
X26740691Y-15250500D01*
X26740694Y-15250500D01*
X26859306Y-15250500D01*
X26859309Y-15250500D01*
X26973886Y-15219799D01*
X27076613Y-15160489D01*
X27160489Y-15076613D01*
X27219799Y-14973886D01*
X27250500Y-14859309D01*
X27250500Y-14740691D01*
X27219799Y-14626114D01*
X27160489Y-14523387D01*
X27076613Y-14439511D01*
X26973886Y-14380201D01*
X26859309Y-14349500D01*
X26740691Y-14349500D01*
X26626114Y-14380201D01*
X26626112Y-14380201D01*
X26626112Y-14380202D01*
X26523387Y-14439511D01*
X26523384Y-14439513D01*
X26439513Y-14523384D01*
X26439511Y-14523387D01*
X26380201Y-14626114D01*
X26349500Y-14740691D01*
X21008953Y-14740691D01*
X22908953Y-12840691D01*
X29149500Y-12840691D01*
X29149500Y-12959309D01*
X29180201Y-13073886D01*
X29239511Y-13176613D01*
X29323387Y-13260489D01*
X29426114Y-13319799D01*
X29540691Y-13350500D01*
X29540694Y-13350500D01*
X29659306Y-13350500D01*
X29659309Y-13350500D01*
X29773886Y-13319799D01*
X29876613Y-13260489D01*
X29960489Y-13176613D01*
X30019799Y-13073886D01*
X30050500Y-12959309D01*
X30050500Y-12840691D01*
X30019799Y-12726114D01*
X29960489Y-12623387D01*
X29876613Y-12539511D01*
X29773886Y-12480201D01*
X29659309Y-12449500D01*
X29540691Y-12449500D01*
X29426114Y-12480201D01*
X29426112Y-12480201D01*
X29426112Y-12480202D01*
X29323387Y-12539511D01*
X29323384Y-12539513D01*
X29239513Y-12623384D01*
X29239511Y-12623387D01*
X29210355Y-12673887D01*
X29180201Y-12726114D01*
X29149500Y-12840691D01*
X22908953Y-12840691D01*
X23004761Y-12744883D01*
X24073032Y-11676612D01*
X25220841Y-10528803D01*
X25260500Y-10433059D01*
X25260500Y-9227967D01*
X25269143Y-9198529D01*
X25275666Y-9168544D01*
X25279422Y-9163526D01*
X25280185Y-9160928D01*
X25296816Y-9140289D01*
X25300199Y-9136906D01*
X25312319Y-9124785D01*
X25373639Y-9091300D01*
X25443331Y-9096282D01*
X25487682Y-9124784D01*
X25523387Y-9160489D01*
X25626114Y-9219799D01*
X25740691Y-9250500D01*
X25740694Y-9250500D01*
X25859306Y-9250500D01*
X25859309Y-9250500D01*
X25973886Y-9219799D01*
X26076613Y-9160489D01*
X26160489Y-9076613D01*
X26219799Y-8973886D01*
X26250500Y-8859309D01*
X26250500Y-8740691D01*
X26219799Y-8626114D01*
X26160489Y-8523387D01*
X26076613Y-8439511D01*
X25973886Y-8380201D01*
X25869901Y-8352338D01*
X25862675Y-8350402D01*
X25859309Y-8349500D01*
X25740691Y-8349500D01*
X25626114Y-8380201D01*
X25626112Y-8380201D01*
X25626112Y-8380202D01*
X25523387Y-8439511D01*
X25523383Y-8439514D01*
X25487681Y-8475216D01*
X25426358Y-8508701D01*
X25356666Y-8503715D01*
X25312320Y-8475215D01*
X25276618Y-8439513D01*
X25276616Y-8439511D01*
X25173889Y-8380201D01*
X25059312Y-8349500D01*
X24940694Y-8349500D01*
X24835508Y-8377684D01*
X24826113Y-8380202D01*
X24762001Y-8417218D01*
X24694101Y-8433691D01*
X24638001Y-8417218D01*
X24573886Y-8380201D01*
X24459309Y-8349500D01*
X24340691Y-8349500D01*
X24226114Y-8380201D01*
X24123387Y-8439511D01*
X24123385Y-8439512D01*
X24116349Y-8443575D01*
X24115338Y-8441824D01*
X24060311Y-8463095D01*
X23991867Y-8449053D01*
X23980615Y-8441822D01*
X23976614Y-8439512D01*
X23976613Y-8439511D01*
X23873886Y-8380201D01*
X23759309Y-8349500D01*
X23640691Y-8349500D01*
X23526114Y-8380201D01*
X23526112Y-8380201D01*
X23526112Y-8380202D01*
X23423387Y-8439511D01*
X23423384Y-8439513D01*
X23339513Y-8523384D01*
X23339511Y-8523387D01*
X23308780Y-8576615D01*
X23280201Y-8626114D01*
X23249500Y-8740691D01*
X23249500Y-8859309D01*
X23280201Y-8973886D01*
X23339511Y-9076613D01*
X23423387Y-9160489D01*
X23526114Y-9219799D01*
X23640691Y-9250500D01*
X23640694Y-9250500D01*
X23759306Y-9250500D01*
X23759309Y-9250500D01*
X23873886Y-9219799D01*
X23976613Y-9160489D01*
X23976614Y-9160487D01*
X23983651Y-9156425D01*
X23984662Y-9158177D01*
X24039671Y-9136906D01*
X24108117Y-9150938D01*
X24119367Y-9158167D01*
X24123384Y-9160486D01*
X24123387Y-9160489D01*
X24226114Y-9219799D01*
X24340691Y-9250500D01*
X24340694Y-9250500D01*
X24459306Y-9250500D01*
X24459309Y-9250500D01*
X24573886Y-9219799D01*
X24573887Y-9219797D01*
X24581736Y-9217695D01*
X24582531Y-9220662D01*
X24637500Y-9214745D01*
X24699984Y-9246012D01*
X24735644Y-9306096D01*
X24739500Y-9336778D01*
X24739500Y-10221978D01*
X24719815Y-10289017D01*
X24703181Y-10309659D01*
X22930210Y-12082629D01*
X22868887Y-12116114D01*
X22799195Y-12111130D01*
X22743262Y-12069258D01*
X22718845Y-12003794D01*
X22722753Y-11962859D01*
X22750500Y-11859309D01*
X22750500Y-11740691D01*
X22719799Y-11626114D01*
X22660489Y-11523387D01*
X22576613Y-11439511D01*
X22473886Y-11380201D01*
X22359309Y-11349500D01*
X22240691Y-11349500D01*
X22126114Y-11380201D01*
X22126112Y-11380201D01*
X22126112Y-11380202D01*
X22023387Y-11439511D01*
X22023384Y-11439513D01*
X21939513Y-11523384D01*
X21939511Y-11523387D01*
X21910355Y-11573887D01*
X21880201Y-11626114D01*
X21849500Y-11740691D01*
X21849500Y-11859309D01*
X21880201Y-11973886D01*
X21939511Y-12076613D01*
X22023387Y-12160489D01*
X22126114Y-12219799D01*
X22240691Y-12250500D01*
X22240694Y-12250500D01*
X22359306Y-12250500D01*
X22359309Y-12250500D01*
X22462857Y-12222754D01*
X22532704Y-12224417D01*
X22590566Y-12263579D01*
X22618071Y-12327807D01*
X22606485Y-12396710D01*
X22582629Y-12430210D01*
X19595166Y-15417673D01*
X19533843Y-15451158D01*
X19464151Y-15446174D01*
X19408218Y-15404302D01*
X19400098Y-15391992D01*
X19393291Y-15380202D01*
X19360489Y-15323387D01*
X19276613Y-15239511D01*
X19173886Y-15180201D01*
X19059309Y-15149500D01*
X18969265Y-15149500D01*
X18902226Y-15129815D01*
X18881584Y-15113181D01*
X18636747Y-14868345D01*
X18636746Y-14868344D01*
X18541002Y-14828685D01*
X14928191Y-14828685D01*
X14861152Y-14809000D01*
X14815397Y-14756196D01*
X14805453Y-14687038D01*
X14806921Y-14679879D01*
X14807364Y-14676518D01*
X14807364Y-14557904D01*
X14807364Y-14557902D01*
X14776663Y-14443325D01*
X14717353Y-14340598D01*
X14633477Y-14256722D01*
X14530750Y-14197412D01*
X14416173Y-14166711D01*
X14297555Y-14166711D01*
X14182978Y-14197412D01*
X14182976Y-14197412D01*
X14182976Y-14197413D01*
X14080251Y-14256722D01*
X14080248Y-14256724D01*
X13996377Y-14340595D01*
X13996375Y-14340598D01*
X13937065Y-14443325D01*
X13906364Y-14557902D01*
X13906364Y-14557904D01*
X13906364Y-14676518D01*
X13907425Y-14684576D01*
X13905018Y-14684892D01*
X13903650Y-14742438D01*
X13864489Y-14800302D01*
X13800261Y-14827808D01*
X13785537Y-14828685D01*
X12158997Y-14828685D01*
X12063252Y-14868345D01*
X11618416Y-15313181D01*
X11557093Y-15346666D01*
X11530735Y-15349500D01*
X11440691Y-15349500D01*
X11326114Y-15380201D01*
X11326112Y-15380201D01*
X11326112Y-15380202D01*
X11223387Y-15439511D01*
X11223384Y-15439513D01*
X11139513Y-15523384D01*
X11139508Y-15523390D01*
X11135309Y-15530664D01*
X11084739Y-15578877D01*
X11016131Y-15592096D01*
X10951268Y-15566124D01*
X10940244Y-15556339D01*
X10901795Y-15517890D01*
X10901793Y-15517888D01*
X10799066Y-15458578D01*
X10684489Y-15427877D01*
X10565871Y-15427877D01*
X10451294Y-15458578D01*
X10451292Y-15458578D01*
X10451292Y-15458579D01*
X10348567Y-15517888D01*
X10348564Y-15517890D01*
X10264693Y-15601761D01*
X10264691Y-15601764D01*
X10222944Y-15674072D01*
X10205381Y-15704491D01*
X10174680Y-15819068D01*
X10174680Y-15937686D01*
X10205381Y-16052263D01*
X10264691Y-16154990D01*
X10348567Y-16238866D01*
X10451294Y-16298176D01*
X10565871Y-16328877D01*
X10565874Y-16328877D01*
X10684486Y-16328877D01*
X10684489Y-16328877D01*
X10799066Y-16298176D01*
X10901793Y-16238866D01*
X10985669Y-16154990D01*
X10989866Y-16147719D01*
X11040431Y-16099504D01*
X11109038Y-16086279D01*
X11173903Y-16112246D01*
X11184935Y-16122037D01*
X11223387Y-16160489D01*
X11326114Y-16219799D01*
X11440691Y-16250500D01*
X11440694Y-16250500D01*
X11559306Y-16250500D01*
X11559309Y-16250500D01*
X11673886Y-16219799D01*
X11776613Y-16160489D01*
X11860489Y-16076613D01*
X11919799Y-15973886D01*
X11950500Y-15859309D01*
X11950500Y-15769263D01*
X11970185Y-15702224D01*
X11986819Y-15681582D01*
X12282398Y-15386004D01*
X12343721Y-15352519D01*
X12370079Y-15349685D01*
X16702966Y-15349685D01*
X16770005Y-15369370D01*
X16815760Y-15422174D01*
X16826966Y-15473685D01*
X16826966Y-15559494D01*
X16857667Y-15674071D01*
X16916977Y-15776798D01*
X17000853Y-15860674D01*
X17048072Y-15887936D01*
X17096287Y-15938504D01*
X17109509Y-16007111D01*
X17083541Y-16071976D01*
X17073752Y-16083004D01*
X15895577Y-17261181D01*
X15834254Y-17294666D01*
X15807896Y-17297500D01*
X15005471Y-17297500D01*
X14938432Y-17277815D01*
X14892677Y-17225011D01*
X14882733Y-17155853D01*
X14898085Y-17111498D01*
X14905391Y-17098844D01*
X14919799Y-17073889D01*
X14950500Y-16959312D01*
X14950500Y-16840694D01*
X14919799Y-16726117D01*
X14919797Y-16726114D01*
X14919797Y-16726112D01*
X14919796Y-16726111D01*
X14882782Y-16662002D01*
X14866308Y-16594102D01*
X14882782Y-16538000D01*
X14919799Y-16473886D01*
X14950500Y-16359309D01*
X14950500Y-16240691D01*
X14919799Y-16126114D01*
X14860489Y-16023387D01*
X14776613Y-15939511D01*
X14673886Y-15880201D01*
X14559309Y-15849500D01*
X14440691Y-15849500D01*
X14326114Y-15880201D01*
X14326112Y-15880201D01*
X14326112Y-15880202D01*
X14223387Y-15939511D01*
X14223384Y-15939513D01*
X14139513Y-16023384D01*
X14139511Y-16023387D01*
X14081310Y-16124194D01*
X14080201Y-16126114D01*
X14049500Y-16240691D01*
X14049500Y-16359309D01*
X14080201Y-16473886D01*
X14110355Y-16526114D01*
X14117218Y-16538000D01*
X14133691Y-16605900D01*
X14117218Y-16662001D01*
X14080202Y-16726113D01*
X14076574Y-16739651D01*
X14049500Y-16840694D01*
X14049500Y-16959312D01*
X14080201Y-17073888D01*
X14080202Y-17073891D01*
X14101915Y-17111498D01*
X14118389Y-17179398D01*
X14095537Y-17245426D01*
X14040617Y-17288617D01*
X13994529Y-17297500D01*
X10090184Y-17297500D01*
X10090183Y-17297500D01*
X10090178Y-17297501D01*
X10034046Y-17320752D01*
X9964577Y-17328221D01*
X9902098Y-17296946D01*
X9866446Y-17236857D01*
X9868940Y-17167031D01*
X9879203Y-17144198D01*
X9919799Y-17073886D01*
X9950500Y-16959309D01*
X9950500Y-16840691D01*
X9919799Y-16726114D01*
X9860489Y-16623387D01*
X9776613Y-16539511D01*
X9673886Y-16480201D01*
X9559309Y-16449500D01*
X9440691Y-16449500D01*
X9326114Y-16480201D01*
X9326112Y-16480201D01*
X9326112Y-16480202D01*
X9223387Y-16539511D01*
X9223384Y-16539513D01*
X9139513Y-16623384D01*
X9139511Y-16623387D01*
X9080201Y-16726114D01*
X9049500Y-16840691D01*
X9049500Y-16959309D01*
X9080201Y-17073886D01*
X9139511Y-17176613D01*
X9223387Y-17260489D01*
X9326114Y-17319799D01*
X9440691Y-17350500D01*
X9440694Y-17350500D01*
X9559306Y-17350500D01*
X9559309Y-17350500D01*
X9673886Y-17319799D01*
X9673897Y-17319792D01*
X9674794Y-17319422D01*
X9675624Y-17319332D01*
X9681736Y-17317695D01*
X9681991Y-17318647D01*
X9744262Y-17311947D01*
X9806744Y-17343217D01*
X9842402Y-17403303D01*
X9839914Y-17473128D01*
X9809937Y-17521660D01*
X9341272Y-17990326D01*
X9279949Y-18023811D01*
X9253591Y-18026645D01*
X9163547Y-18026645D01*
X9048970Y-18057346D01*
X9048968Y-18057346D01*
X9048968Y-18057347D01*
X8946243Y-18116656D01*
X8946239Y-18116659D01*
X8926886Y-18136012D01*
X8865563Y-18169496D01*
X8795871Y-18164510D01*
X8751526Y-18136010D01*
X8681174Y-18065658D01*
X8681172Y-18065656D01*
X8578445Y-18006346D01*
X8463868Y-17975645D01*
X8345250Y-17975645D01*
X8230673Y-18006346D01*
X8230671Y-18006346D01*
X8230671Y-18006347D01*
X8127946Y-18065656D01*
X8127943Y-18065658D01*
X8044072Y-18149529D01*
X8044070Y-18149532D01*
X7987041Y-18248309D01*
X7984760Y-18252259D01*
X7954059Y-18366836D01*
X-299500Y-18366836D01*
X-299500Y-16540691D01*
X3849500Y-16540691D01*
X3849500Y-16659309D01*
X3880201Y-16773886D01*
X3939511Y-16876613D01*
X4023387Y-16960489D01*
X4126114Y-17019799D01*
X4240691Y-17050500D01*
X4240694Y-17050500D01*
X4359306Y-17050500D01*
X4359309Y-17050500D01*
X4473886Y-17019799D01*
X4576613Y-16960489D01*
X4660489Y-16876613D01*
X4719799Y-16773886D01*
X4750500Y-16659309D01*
X4750500Y-16640691D01*
X6349500Y-16640691D01*
X6349500Y-16759309D01*
X6380201Y-16873886D01*
X6439511Y-16976613D01*
X6523387Y-17060489D01*
X6626114Y-17119799D01*
X6740691Y-17150500D01*
X6740694Y-17150500D01*
X6859306Y-17150500D01*
X6859309Y-17150500D01*
X6973886Y-17119799D01*
X7076613Y-17060489D01*
X7160489Y-16976613D01*
X7219799Y-16873886D01*
X7250500Y-16759309D01*
X7250500Y-16640691D01*
X7219799Y-16526114D01*
X7160489Y-16423387D01*
X7076613Y-16339511D01*
X6973886Y-16280201D01*
X6859309Y-16249500D01*
X6740691Y-16249500D01*
X6626114Y-16280201D01*
X6626112Y-16280201D01*
X6626112Y-16280202D01*
X6523387Y-16339511D01*
X6523384Y-16339513D01*
X6439513Y-16423384D01*
X6439511Y-16423387D01*
X6406709Y-16480202D01*
X6380201Y-16526114D01*
X6349500Y-16640691D01*
X4750500Y-16640691D01*
X4750500Y-16540691D01*
X4719799Y-16426114D01*
X4660489Y-16323387D01*
X4576613Y-16239511D01*
X4473886Y-16180201D01*
X4359309Y-16149500D01*
X4240691Y-16149500D01*
X4126114Y-16180201D01*
X4126112Y-16180201D01*
X4126112Y-16180202D01*
X4023387Y-16239511D01*
X4023384Y-16239513D01*
X3939513Y-16323384D01*
X3939511Y-16323387D01*
X3906709Y-16380202D01*
X3880201Y-16426114D01*
X3849500Y-16540691D01*
X-299500Y-16540691D01*
X-299500Y-13340691D01*
X17749500Y-13340691D01*
X17749500Y-13459309D01*
X17780201Y-13573886D01*
X17839511Y-13676613D01*
X17923387Y-13760489D01*
X18026114Y-13819799D01*
X18140691Y-13850500D01*
X18140694Y-13850500D01*
X18259306Y-13850500D01*
X18259309Y-13850500D01*
X18373886Y-13819799D01*
X18476613Y-13760489D01*
X18560489Y-13676613D01*
X18619799Y-13573886D01*
X18650500Y-13459309D01*
X18650500Y-13340691D01*
X18619799Y-13226114D01*
X18560489Y-13123387D01*
X18476613Y-13039511D01*
X18373886Y-12980201D01*
X18259309Y-12949500D01*
X18140691Y-12949500D01*
X18026114Y-12980201D01*
X18026112Y-12980201D01*
X18026112Y-12980202D01*
X17923387Y-13039511D01*
X17923384Y-13039513D01*
X17839513Y-13123384D01*
X17839511Y-13123387D01*
X17808780Y-13176615D01*
X17780201Y-13226114D01*
X17749500Y-13340691D01*
X-299500Y-13340691D01*
X-299500Y-12440691D01*
X449500Y-12440691D01*
X449500Y-12559309D01*
X480201Y-12673886D01*
X539511Y-12776613D01*
X623387Y-12860489D01*
X726114Y-12919799D01*
X840691Y-12950500D01*
X840694Y-12950500D01*
X959306Y-12950500D01*
X959309Y-12950500D01*
X1073886Y-12919799D01*
X1176613Y-12860489D01*
X1260489Y-12776613D01*
X1319799Y-12673886D01*
X1350500Y-12559309D01*
X1350500Y-12440691D01*
X1319799Y-12326114D01*
X1260489Y-12223387D01*
X1176613Y-12139511D01*
X1073886Y-12080201D01*
X959309Y-12049500D01*
X840691Y-12049500D01*
X726114Y-12080201D01*
X726112Y-12080201D01*
X726112Y-12080202D01*
X623387Y-12139511D01*
X623384Y-12139513D01*
X539513Y-12223384D01*
X539511Y-12223387D01*
X480201Y-12326114D01*
X449500Y-12440691D01*
X-299500Y-12440691D01*
X-299500Y-10840691D01*
X9449500Y-10840691D01*
X9449500Y-10959309D01*
X9480201Y-11073886D01*
X9539511Y-11176613D01*
X9623387Y-11260489D01*
X9726114Y-11319799D01*
X9840691Y-11350500D01*
X9840694Y-11350500D01*
X9959306Y-11350500D01*
X9959309Y-11350500D01*
X9995916Y-11340691D01*
X11449500Y-11340691D01*
X11449500Y-11459309D01*
X11480201Y-11573886D01*
X11539511Y-11676613D01*
X11623387Y-11760489D01*
X11726114Y-11819799D01*
X11840691Y-11850500D01*
X11840694Y-11850500D01*
X11959306Y-11850500D01*
X11959309Y-11850500D01*
X12073886Y-11819799D01*
X12176613Y-11760489D01*
X12260489Y-11676613D01*
X12319799Y-11573886D01*
X12349125Y-11464442D01*
X18090349Y-11464442D01*
X18090349Y-11583060D01*
X18121050Y-11697637D01*
X18180360Y-11800364D01*
X18264236Y-11884240D01*
X18366963Y-11943550D01*
X18481540Y-11974251D01*
X18481543Y-11974251D01*
X18600155Y-11974251D01*
X18600158Y-11974251D01*
X18714735Y-11943550D01*
X18817462Y-11884240D01*
X18901338Y-11800364D01*
X18960648Y-11697637D01*
X18991349Y-11583060D01*
X18991349Y-11464442D01*
X18960648Y-11349865D01*
X18901338Y-11247138D01*
X18817462Y-11163262D01*
X18714735Y-11103952D01*
X18600158Y-11073251D01*
X18481540Y-11073251D01*
X18366963Y-11103952D01*
X18366961Y-11103952D01*
X18366961Y-11103953D01*
X18264236Y-11163262D01*
X18264233Y-11163264D01*
X18180362Y-11247135D01*
X18180360Y-11247138D01*
X18126346Y-11340693D01*
X18121050Y-11349865D01*
X18090349Y-11464442D01*
X12349125Y-11464442D01*
X12350500Y-11459309D01*
X12350500Y-11340691D01*
X12319799Y-11226114D01*
X12260489Y-11123387D01*
X12176613Y-11039511D01*
X12073886Y-10980201D01*
X11959309Y-10949500D01*
X11840691Y-10949500D01*
X11726114Y-10980201D01*
X11726112Y-10980201D01*
X11726112Y-10980202D01*
X11623387Y-11039511D01*
X11623384Y-11039513D01*
X11539513Y-11123384D01*
X11539511Y-11123387D01*
X11508780Y-11176615D01*
X11480201Y-11226114D01*
X11449500Y-11340691D01*
X9995916Y-11340691D01*
X10073886Y-11319799D01*
X10176613Y-11260489D01*
X10260489Y-11176613D01*
X10319799Y-11073886D01*
X10350500Y-10959309D01*
X10350500Y-10840691D01*
X10319799Y-10726114D01*
X10260489Y-10623387D01*
X10176613Y-10539511D01*
X10073886Y-10480201D01*
X9959309Y-10449500D01*
X9840691Y-10449500D01*
X9726114Y-10480201D01*
X9726112Y-10480201D01*
X9726112Y-10480202D01*
X9623387Y-10539511D01*
X9623384Y-10539513D01*
X9539513Y-10623384D01*
X9539511Y-10623387D01*
X9480201Y-10726114D01*
X9449500Y-10840691D01*
X-299500Y-10840691D01*
X-299500Y-9640691D01*
X8249500Y-9640691D01*
X8249500Y-9759309D01*
X8280201Y-9873886D01*
X8339511Y-9976613D01*
X8423387Y-10060489D01*
X8526114Y-10119799D01*
X8640691Y-10150500D01*
X8640694Y-10150500D01*
X8759306Y-10150500D01*
X8759309Y-10150500D01*
X8873886Y-10119799D01*
X8976613Y-10060489D01*
X9060489Y-9976613D01*
X9119799Y-9873886D01*
X9150500Y-9759309D01*
X9150500Y-9640691D01*
X9119799Y-9526114D01*
X9060489Y-9423387D01*
X8976613Y-9339511D01*
X8873886Y-9280201D01*
X8759309Y-9249500D01*
X8640691Y-9249500D01*
X8526114Y-9280201D01*
X8526112Y-9280201D01*
X8526112Y-9280202D01*
X8423387Y-9339511D01*
X8423384Y-9339513D01*
X8339513Y-9423384D01*
X8339511Y-9423387D01*
X8280201Y-9526114D01*
X8249500Y-9640691D01*
X-299500Y-9640691D01*
X-299500Y-7930605D01*
X21539414Y-7930605D01*
X21539414Y-8049223D01*
X21570115Y-8163800D01*
X21629425Y-8266527D01*
X21713301Y-8350403D01*
X21816028Y-8409713D01*
X21930605Y-8440414D01*
X21930608Y-8440414D01*
X22049220Y-8440414D01*
X22049223Y-8440414D01*
X22163800Y-8409713D01*
X22266527Y-8350403D01*
X22350403Y-8266527D01*
X22365320Y-8240691D01*
X30249500Y-8240691D01*
X30249500Y-8359309D01*
X30280201Y-8473886D01*
X30339511Y-8576613D01*
X30423387Y-8660489D01*
X30526114Y-8719799D01*
X30640691Y-8750500D01*
X30640694Y-8750500D01*
X30759306Y-8750500D01*
X30759309Y-8750500D01*
X30873886Y-8719799D01*
X30976613Y-8660489D01*
X30996411Y-8640691D01*
X32349500Y-8640691D01*
X32349500Y-8759309D01*
X32380201Y-8873886D01*
X32439511Y-8976613D01*
X32523387Y-9060489D01*
X32626114Y-9119799D01*
X32740691Y-9150500D01*
X32740694Y-9150500D01*
X32859306Y-9150500D01*
X32859309Y-9150500D01*
X32973886Y-9119799D01*
X33076613Y-9060489D01*
X33160489Y-8976613D01*
X33219799Y-8873886D01*
X33250500Y-8759309D01*
X33250500Y-8640691D01*
X33219799Y-8526114D01*
X33160489Y-8423387D01*
X33076613Y-8339511D01*
X32973886Y-8280201D01*
X32859309Y-8249500D01*
X32740691Y-8249500D01*
X32626114Y-8280201D01*
X32626112Y-8280201D01*
X32626112Y-8280202D01*
X32523387Y-8339511D01*
X32523384Y-8339513D01*
X32439513Y-8423384D01*
X32439511Y-8423387D01*
X32410355Y-8473887D01*
X32380201Y-8526114D01*
X32349500Y-8640691D01*
X30996411Y-8640691D01*
X31060489Y-8576613D01*
X31119799Y-8473886D01*
X31150500Y-8359309D01*
X31150500Y-8240691D01*
X31119799Y-8126114D01*
X31060489Y-8023387D01*
X30976613Y-7939511D01*
X30873886Y-7880201D01*
X30759309Y-7849500D01*
X30640691Y-7849500D01*
X30526114Y-7880201D01*
X30526112Y-7880201D01*
X30526112Y-7880202D01*
X30423387Y-7939511D01*
X30423384Y-7939513D01*
X30339513Y-8023384D01*
X30339511Y-8023387D01*
X30280201Y-8126114D01*
X30249500Y-8240691D01*
X22365320Y-8240691D01*
X22409713Y-8163800D01*
X22440414Y-8049223D01*
X22440414Y-7930605D01*
X22409713Y-7816028D01*
X22350403Y-7713301D01*
X22266527Y-7629425D01*
X22163800Y-7570115D01*
X22049223Y-7539414D01*
X21930605Y-7539414D01*
X21816028Y-7570115D01*
X21816026Y-7570115D01*
X21816026Y-7570116D01*
X21713301Y-7629425D01*
X21713298Y-7629427D01*
X21629427Y-7713298D01*
X21629425Y-7713301D01*
X21570115Y-7816028D01*
X21539414Y-7930605D01*
X-299500Y-7930605D01*
X-299500Y-6050691D01*
X21749500Y-6050691D01*
X21749500Y-6169309D01*
X21780201Y-6283886D01*
X21839511Y-6386613D01*
X21923387Y-6470489D01*
X22026114Y-6529799D01*
X22140691Y-6560500D01*
X22140694Y-6560500D01*
X22259306Y-6560500D01*
X22259309Y-6560500D01*
X22373886Y-6529799D01*
X22476613Y-6470489D01*
X22560489Y-6386613D01*
X22619799Y-6283886D01*
X22635849Y-6223984D01*
X22672212Y-6164327D01*
X22735059Y-6133797D01*
X22787714Y-6136304D01*
X22840691Y-6150500D01*
X22840693Y-6150500D01*
X22959306Y-6150500D01*
X22959309Y-6150500D01*
X23073886Y-6119799D01*
X23176613Y-6060489D01*
X23260489Y-5976613D01*
X23263742Y-5970977D01*
X23314303Y-5922762D01*
X23382909Y-5909534D01*
X23447776Y-5935497D01*
X23478517Y-5970972D01*
X23529520Y-6059309D01*
X23539511Y-6076613D01*
X23623387Y-6160489D01*
X23726114Y-6219799D01*
X23840691Y-6250500D01*
X23840694Y-6250500D01*
X23959306Y-6250500D01*
X23959309Y-6250500D01*
X24073886Y-6219799D01*
X24176613Y-6160489D01*
X24260489Y-6076613D01*
X24292613Y-6020972D01*
X24343180Y-5972757D01*
X24411787Y-5959535D01*
X24476652Y-5985503D01*
X24507386Y-6020972D01*
X24539511Y-6076613D01*
X24623387Y-6160489D01*
X24726114Y-6219799D01*
X24840691Y-6250500D01*
X24840694Y-6250500D01*
X24959306Y-6250500D01*
X24959309Y-6250500D01*
X25073886Y-6219799D01*
X25176613Y-6160489D01*
X25260489Y-6076613D01*
X25292613Y-6020972D01*
X25343180Y-5972757D01*
X25411787Y-5959535D01*
X25476652Y-5985503D01*
X25507386Y-6020972D01*
X25539511Y-6076613D01*
X25623387Y-6160489D01*
X25726114Y-6219799D01*
X25840691Y-6250500D01*
X25840694Y-6250500D01*
X25959306Y-6250500D01*
X25959309Y-6250500D01*
X26073886Y-6219799D01*
X26176613Y-6160489D01*
X26260489Y-6076613D01*
X26260491Y-6076608D01*
X26261345Y-6075755D01*
X26322668Y-6042270D01*
X26392360Y-6047254D01*
X26448294Y-6089125D01*
X26468801Y-6131341D01*
X26480201Y-6173886D01*
X26539511Y-6276613D01*
X26623387Y-6360489D01*
X26726114Y-6419799D01*
X26840691Y-6450500D01*
X26840694Y-6450500D01*
X26959306Y-6450500D01*
X26959309Y-6450500D01*
X27073886Y-6419799D01*
X27176613Y-6360489D01*
X27260489Y-6276613D01*
X27319799Y-6173886D01*
X27350500Y-6059309D01*
X27350500Y-5940691D01*
X30449500Y-5940691D01*
X30449500Y-6059309D01*
X30480201Y-6173886D01*
X30539511Y-6276613D01*
X30623387Y-6360489D01*
X30726114Y-6419799D01*
X30840691Y-6450500D01*
X30840694Y-6450500D01*
X30959306Y-6450500D01*
X30959309Y-6450500D01*
X31073886Y-6419799D01*
X31176613Y-6360489D01*
X31260489Y-6276613D01*
X31319799Y-6173886D01*
X31350500Y-6059309D01*
X31350500Y-5940691D01*
X31319799Y-5826114D01*
X31260489Y-5723387D01*
X31176613Y-5639511D01*
X31073886Y-5580201D01*
X30959309Y-5549500D01*
X30840691Y-5549500D01*
X30726114Y-5580201D01*
X30726112Y-5580201D01*
X30726112Y-5580202D01*
X30623387Y-5639511D01*
X30623384Y-5639513D01*
X30539513Y-5723384D01*
X30539511Y-5723387D01*
X30480201Y-5826114D01*
X30449500Y-5940691D01*
X27350500Y-5940691D01*
X27319799Y-5826114D01*
X27260489Y-5723387D01*
X27176613Y-5639511D01*
X27073886Y-5580201D01*
X26959309Y-5549500D01*
X26840691Y-5549500D01*
X26726114Y-5580201D01*
X26726112Y-5580201D01*
X26726112Y-5580202D01*
X26623387Y-5639510D01*
X26538653Y-5724245D01*
X26477329Y-5757729D01*
X26407638Y-5752745D01*
X26351704Y-5710873D01*
X26331198Y-5668659D01*
X26319799Y-5626114D01*
X26260489Y-5523387D01*
X26176613Y-5439511D01*
X26073886Y-5380201D01*
X25959309Y-5349500D01*
X25840691Y-5349500D01*
X25726114Y-5380201D01*
X25726112Y-5380201D01*
X25726112Y-5380202D01*
X25623387Y-5439511D01*
X25623384Y-5439513D01*
X25539513Y-5523384D01*
X25539511Y-5523387D01*
X25507387Y-5579027D01*
X25456819Y-5627242D01*
X25388212Y-5640464D01*
X25323347Y-5614496D01*
X25292613Y-5579027D01*
X25275565Y-5549500D01*
X25260489Y-5523387D01*
X25176613Y-5439511D01*
X25073886Y-5380201D01*
X24959309Y-5349500D01*
X24840691Y-5349500D01*
X24726114Y-5380201D01*
X24726112Y-5380201D01*
X24726112Y-5380202D01*
X24623387Y-5439511D01*
X24623384Y-5439513D01*
X24539513Y-5523384D01*
X24539511Y-5523387D01*
X24507387Y-5579027D01*
X24456819Y-5627242D01*
X24388212Y-5640464D01*
X24323347Y-5614496D01*
X24292613Y-5579027D01*
X24275565Y-5549500D01*
X24260489Y-5523387D01*
X24176613Y-5439511D01*
X24073886Y-5380201D01*
X23959309Y-5349500D01*
X23840691Y-5349500D01*
X23726114Y-5380201D01*
X23726112Y-5380201D01*
X23726112Y-5380202D01*
X23623387Y-5439511D01*
X23623384Y-5439513D01*
X23539513Y-5523384D01*
X23539508Y-5523390D01*
X23536254Y-5529028D01*
X23485686Y-5577243D01*
X23417078Y-5590464D01*
X23352214Y-5564495D01*
X23321481Y-5529027D01*
X23289645Y-5473887D01*
X23260489Y-5423387D01*
X23176613Y-5339511D01*
X23073886Y-5280201D01*
X22959309Y-5249500D01*
X22840691Y-5249500D01*
X22726114Y-5280201D01*
X22726112Y-5280201D01*
X22726112Y-5280202D01*
X22623387Y-5339511D01*
X22623384Y-5339513D01*
X22539513Y-5423384D01*
X22539511Y-5423387D01*
X22480200Y-5526114D01*
X22464150Y-5586014D01*
X22427785Y-5645674D01*
X22364938Y-5676202D01*
X22312284Y-5673694D01*
X22259310Y-5659500D01*
X22259309Y-5659500D01*
X22140691Y-5659500D01*
X22026114Y-5690201D01*
X22026112Y-5690201D01*
X22026112Y-5690202D01*
X21923387Y-5749511D01*
X21923384Y-5749513D01*
X21839513Y-5833384D01*
X21839511Y-5833387D01*
X21780201Y-5936114D01*
X21749500Y-6050691D01*
X-299500Y-6050691D01*
X-299500Y-4940691D01*
X3049500Y-4940691D01*
X3049500Y-5059309D01*
X3080201Y-5173886D01*
X3139511Y-5276613D01*
X3223387Y-5360489D01*
X3326114Y-5419799D01*
X3440691Y-5450500D01*
X3440694Y-5450500D01*
X3559306Y-5450500D01*
X3559309Y-5450500D01*
X3673886Y-5419799D01*
X3776613Y-5360489D01*
X3860489Y-5276613D01*
X3881228Y-5240691D01*
X6849500Y-5240691D01*
X6849500Y-5359309D01*
X6880201Y-5473886D01*
X6939511Y-5576613D01*
X7023387Y-5660489D01*
X7126114Y-5719799D01*
X7240691Y-5750500D01*
X7240694Y-5750500D01*
X7359306Y-5750500D01*
X7359309Y-5750500D01*
X7473886Y-5719799D01*
X7576613Y-5660489D01*
X7660489Y-5576613D01*
X7719799Y-5473886D01*
X7750500Y-5359309D01*
X7750500Y-5240691D01*
X9149500Y-5240691D01*
X9149500Y-5359309D01*
X9180201Y-5473886D01*
X9239511Y-5576613D01*
X9323387Y-5660489D01*
X9426114Y-5719799D01*
X9540691Y-5750500D01*
X9540694Y-5750500D01*
X9659306Y-5750500D01*
X9659309Y-5750500D01*
X9773886Y-5719799D01*
X9876613Y-5660489D01*
X9960489Y-5576613D01*
X10019799Y-5473886D01*
X10050500Y-5359309D01*
X10050500Y-5240691D01*
X10019799Y-5126114D01*
X9960489Y-5023387D01*
X9876613Y-4939511D01*
X9773886Y-4880201D01*
X9659309Y-4849500D01*
X9540691Y-4849500D01*
X9426114Y-4880201D01*
X9426112Y-4880201D01*
X9426112Y-4880202D01*
X9323387Y-4939511D01*
X9323384Y-4939513D01*
X9239513Y-5023384D01*
X9239511Y-5023387D01*
X9210355Y-5073887D01*
X9180201Y-5126114D01*
X9149500Y-5240691D01*
X7750500Y-5240691D01*
X7719799Y-5126114D01*
X7660489Y-5023387D01*
X7576613Y-4939511D01*
X7473886Y-4880201D01*
X7359309Y-4849500D01*
X7240691Y-4849500D01*
X7126114Y-4880201D01*
X7126112Y-4880201D01*
X7126112Y-4880202D01*
X7023387Y-4939511D01*
X7023384Y-4939513D01*
X6939513Y-5023384D01*
X6939511Y-5023387D01*
X6910355Y-5073887D01*
X6880201Y-5126114D01*
X6849500Y-5240691D01*
X3881228Y-5240691D01*
X3897691Y-5212177D01*
X3919795Y-5173894D01*
X3919797Y-5173890D01*
X3919798Y-5173887D01*
X3919799Y-5173886D01*
X3950500Y-5059309D01*
X3950500Y-4940691D01*
X3923705Y-4840691D01*
X27949500Y-4840691D01*
X27949500Y-4959309D01*
X27980201Y-5073886D01*
X28039511Y-5176613D01*
X28123387Y-5260489D01*
X28226114Y-5319799D01*
X28340691Y-5350500D01*
X28340694Y-5350500D01*
X28459306Y-5350500D01*
X28459309Y-5350500D01*
X28573886Y-5319799D01*
X28676613Y-5260489D01*
X28760489Y-5176613D01*
X28819799Y-5073886D01*
X28850500Y-4959309D01*
X28850500Y-4840691D01*
X28819799Y-4726114D01*
X28760489Y-4623387D01*
X28676613Y-4539511D01*
X28573886Y-4480201D01*
X28459309Y-4449500D01*
X28340691Y-4449500D01*
X28226114Y-4480201D01*
X28226112Y-4480201D01*
X28226112Y-4480202D01*
X28123387Y-4539511D01*
X28123384Y-4539513D01*
X28039513Y-4623384D01*
X28039511Y-4623387D01*
X27980201Y-4726114D01*
X27949500Y-4840691D01*
X3923705Y-4840691D01*
X3919799Y-4826114D01*
X3860489Y-4723387D01*
X3776613Y-4639511D01*
X3673886Y-4580201D01*
X3559309Y-4549500D01*
X3440691Y-4549500D01*
X3326114Y-4580201D01*
X3326112Y-4580201D01*
X3326112Y-4580202D01*
X3223387Y-4639511D01*
X3223384Y-4639513D01*
X3139513Y-4723384D01*
X3139511Y-4723387D01*
X3080201Y-4826114D01*
X3049500Y-4940691D01*
X-299500Y-4940691D01*
X-299500Y-4040691D01*
X11749500Y-4040691D01*
X11749500Y-4159309D01*
X11780201Y-4273886D01*
X11839511Y-4376613D01*
X11923387Y-4460489D01*
X12026114Y-4519799D01*
X12140691Y-4550500D01*
X12140694Y-4550500D01*
X12259306Y-4550500D01*
X12259309Y-4550500D01*
X12373886Y-4519799D01*
X12476613Y-4460489D01*
X12560489Y-4376613D01*
X12619799Y-4273886D01*
X12650500Y-4159309D01*
X12650500Y-4040691D01*
X12619799Y-3926114D01*
X12560489Y-3823387D01*
X12476613Y-3739511D01*
X12373886Y-3680201D01*
X12259309Y-3649500D01*
X12140691Y-3649500D01*
X12026114Y-3680201D01*
X12026112Y-3680201D01*
X12026112Y-3680202D01*
X11923387Y-3739511D01*
X11923384Y-3739513D01*
X11839513Y-3823384D01*
X11839511Y-3823387D01*
X11780201Y-3926114D01*
X11749500Y-4040691D01*
X-299500Y-4040691D01*
X-299500Y-2192818D01*
X-279815Y-2125779D01*
X-227011Y-2080024D01*
X-157853Y-2070080D01*
X-94297Y-2099105D01*
X-56523Y-2157883D01*
X-55742Y-2160662D01*
X-6054Y-2346100D01*
X86776Y-2570212D01*
X208064Y-2780289D01*
X208066Y-2780292D01*
X208067Y-2780293D01*
X355733Y-2972736D01*
X355739Y-2972743D01*
X527256Y-3144260D01*
X527262Y-3144265D01*
X719711Y-3291936D01*
X929788Y-3413224D01*
X1153900Y-3506054D01*
X1388211Y-3568838D01*
X1568586Y-3592584D01*
X1628711Y-3600500D01*
X1628712Y-3600500D01*
X1871289Y-3600500D01*
X1919388Y-3594167D01*
X2111789Y-3568838D01*
X2346100Y-3506054D01*
X2570212Y-3413224D01*
X2780289Y-3291936D01*
X2972738Y-3144265D01*
X3076312Y-3040691D01*
X7149500Y-3040691D01*
X7149500Y-3159309D01*
X7180201Y-3273886D01*
X7239511Y-3376613D01*
X7323387Y-3460489D01*
X7426114Y-3519799D01*
X7540691Y-3550500D01*
X7540694Y-3550500D01*
X7659306Y-3550500D01*
X7659309Y-3550500D01*
X7773886Y-3519799D01*
X7876613Y-3460489D01*
X7960489Y-3376613D01*
X8019799Y-3273886D01*
X8050500Y-3159309D01*
X8050500Y-3040691D01*
X8047797Y-3030605D01*
X8939414Y-3030605D01*
X8939414Y-3149223D01*
X8970115Y-3263800D01*
X9029425Y-3366527D01*
X9113301Y-3450403D01*
X9216028Y-3509713D01*
X9330605Y-3540414D01*
X9330608Y-3540414D01*
X9449220Y-3540414D01*
X9449223Y-3540414D01*
X9563800Y-3509713D01*
X9666527Y-3450403D01*
X9750403Y-3366527D01*
X9809713Y-3263800D01*
X9840414Y-3149223D01*
X9840414Y-3140691D01*
X19449500Y-3140691D01*
X19449500Y-3259309D01*
X19480201Y-3373886D01*
X19539511Y-3476613D01*
X19623387Y-3560489D01*
X19726114Y-3619799D01*
X19840691Y-3650500D01*
X19840694Y-3650500D01*
X19959306Y-3650500D01*
X19959309Y-3650500D01*
X20073886Y-3619799D01*
X20176613Y-3560489D01*
X20260489Y-3476613D01*
X20319799Y-3373886D01*
X20350500Y-3259309D01*
X20350500Y-3140691D01*
X20319799Y-3026114D01*
X20260489Y-2923387D01*
X20176613Y-2839511D01*
X20073886Y-2780201D01*
X19959309Y-2749500D01*
X19840691Y-2749500D01*
X19726114Y-2780201D01*
X19726112Y-2780201D01*
X19726112Y-2780202D01*
X19623387Y-2839511D01*
X19623384Y-2839513D01*
X19539513Y-2923384D01*
X19539511Y-2923387D01*
X19480201Y-3026114D01*
X19449500Y-3140691D01*
X9840414Y-3140691D01*
X9840414Y-3030605D01*
X9809713Y-2916028D01*
X9750403Y-2813301D01*
X9666527Y-2729425D01*
X9563800Y-2670115D01*
X9449223Y-2639414D01*
X9330605Y-2639414D01*
X9216028Y-2670115D01*
X9216026Y-2670115D01*
X9216026Y-2670116D01*
X9113301Y-2729425D01*
X9113298Y-2729427D01*
X9029427Y-2813298D01*
X9029425Y-2813301D01*
X9014293Y-2839511D01*
X8970115Y-2916028D01*
X8939414Y-3030605D01*
X8047797Y-3030605D01*
X8019799Y-2926114D01*
X7960489Y-2823387D01*
X7876613Y-2739511D01*
X7773886Y-2680201D01*
X7659309Y-2649500D01*
X7540691Y-2649500D01*
X7426114Y-2680201D01*
X7426112Y-2680201D01*
X7426112Y-2680202D01*
X7323387Y-2739511D01*
X7323384Y-2739513D01*
X7239513Y-2823384D01*
X7239511Y-2823387D01*
X7180201Y-2926114D01*
X7149500Y-3040691D01*
X3076312Y-3040691D01*
X3144265Y-2972738D01*
X3291936Y-2780289D01*
X3413224Y-2570212D01*
X3506054Y-2346100D01*
X3518970Y-2297896D01*
X12092546Y-2297896D01*
X12092546Y-2416514D01*
X12123247Y-2531091D01*
X12182557Y-2633818D01*
X12266433Y-2717694D01*
X12369160Y-2777004D01*
X12483737Y-2807705D01*
X12483740Y-2807705D01*
X12602352Y-2807705D01*
X12602355Y-2807705D01*
X12716932Y-2777004D01*
X12819659Y-2717694D01*
X12903535Y-2633818D01*
X12962845Y-2531091D01*
X12993546Y-2416514D01*
X12993546Y-2297896D01*
X12962845Y-2183319D01*
X12903535Y-2080592D01*
X12819659Y-1996716D01*
X12739942Y-1950691D01*
X14249500Y-1950691D01*
X14249500Y-2069309D01*
X14280201Y-2183886D01*
X14339511Y-2286613D01*
X14423387Y-2370489D01*
X14526114Y-2429799D01*
X14640691Y-2460500D01*
X14640694Y-2460500D01*
X14759306Y-2460500D01*
X14759309Y-2460500D01*
X14873886Y-2429799D01*
X14976613Y-2370489D01*
X15060489Y-2286613D01*
X15119799Y-2183886D01*
X15150500Y-2069309D01*
X15150500Y-1950691D01*
X15150232Y-1949691D01*
X15749500Y-1949691D01*
X15749500Y-2068309D01*
X15780201Y-2182886D01*
X15839511Y-2285613D01*
X15923387Y-2369489D01*
X16026114Y-2428799D01*
X16140691Y-2459500D01*
X16140694Y-2459500D01*
X16259306Y-2459500D01*
X16259309Y-2459500D01*
X16373886Y-2428799D01*
X16476613Y-2369489D01*
X16560489Y-2285613D01*
X16619799Y-2182886D01*
X16650500Y-2068309D01*
X16650500Y-1949691D01*
X16619799Y-1835114D01*
X16560489Y-1732387D01*
X16476613Y-1648511D01*
X16373886Y-1589201D01*
X16259309Y-1558500D01*
X16140691Y-1558500D01*
X16026114Y-1589201D01*
X16026112Y-1589201D01*
X16026112Y-1589202D01*
X15923387Y-1648511D01*
X15923384Y-1648513D01*
X15839513Y-1732384D01*
X15839511Y-1732387D01*
X15780201Y-1835114D01*
X15749500Y-1949691D01*
X15150232Y-1949691D01*
X15119799Y-1836114D01*
X15060489Y-1733387D01*
X14976613Y-1649511D01*
X14873886Y-1590201D01*
X14759309Y-1559500D01*
X14640691Y-1559500D01*
X14526114Y-1590201D01*
X14526112Y-1590201D01*
X14526112Y-1590202D01*
X14423387Y-1649511D01*
X14423384Y-1649513D01*
X14339513Y-1733384D01*
X14339511Y-1733387D01*
X14280780Y-1835112D01*
X14280201Y-1836114D01*
X14249500Y-1950691D01*
X12739942Y-1950691D01*
X12716932Y-1937406D01*
X12602355Y-1906705D01*
X12483737Y-1906705D01*
X12369160Y-1937406D01*
X12369158Y-1937406D01*
X12369158Y-1937407D01*
X12266433Y-1996716D01*
X12266430Y-1996718D01*
X12182559Y-2080589D01*
X12182557Y-2080592D01*
X12137933Y-2157883D01*
X12123247Y-2183319D01*
X12092546Y-2297896D01*
X3518970Y-2297896D01*
X3568838Y-2111789D01*
X3600500Y-1871288D01*
X3600500Y-1628712D01*
X3568838Y-1388211D01*
X3506054Y-1153900D01*
X3413224Y-929788D01*
X3361784Y-840691D01*
X8649500Y-840691D01*
X8649500Y-959309D01*
X8680201Y-1073886D01*
X8739511Y-1176613D01*
X8823387Y-1260489D01*
X8926114Y-1319799D01*
X9040691Y-1350500D01*
X9040694Y-1350500D01*
X9159306Y-1350500D01*
X9159309Y-1350500D01*
X9273886Y-1319799D01*
X9376613Y-1260489D01*
X9460489Y-1176613D01*
X9519799Y-1073886D01*
X9550500Y-959309D01*
X9550500Y-840691D01*
X9519799Y-726114D01*
X9460489Y-623387D01*
X9376613Y-539511D01*
X9273886Y-480201D01*
X9159309Y-449500D01*
X9040691Y-449500D01*
X8926114Y-480201D01*
X8926112Y-480201D01*
X8926112Y-480202D01*
X8823387Y-539511D01*
X8823384Y-539513D01*
X8739513Y-623384D01*
X8739511Y-623387D01*
X8680201Y-726114D01*
X8649500Y-840691D01*
X3361784Y-840691D01*
X3291936Y-719711D01*
X3144265Y-527262D01*
X3144260Y-527256D01*
X2972743Y-355739D01*
X2972736Y-355733D01*
X2780293Y-208067D01*
X2780292Y-208066D01*
X2780289Y-208064D01*
X2570212Y-86776D01*
X2548346Y-77719D01*
X2519434Y-65743D01*
X2346100Y6054D01*
X2160723Y55725D01*
X2101065Y92090D01*
X2070536Y154937D01*
X2078831Y224313D01*
X2123316Y278191D01*
X2189868Y299465D01*
X2192819Y299500D01*
X31807181Y299500D01*
X31874220Y279815D01*
G37*
%TD.AperFunction*%
%TD*%
M02*
