%TF.GenerationSoftware,KiCad,Pcbnew,9.0.6*%
%TF.CreationDate,2026-02-22T15:47:39+01:00*%
%TF.ProjectId,fcg4,66636734-2e6b-4696-9361-645f70636258,rev?*%
%TF.SameCoordinates,Original*%
%TF.FileFunction,Copper,L3,Inr*%
%TF.FilePolarity,Positive*%
%FSLAX46Y46*%
G04 Gerber Fmt 4.6, Leading zero omitted, Abs format (unit mm)*
G04 Created by KiCad (PCBNEW 9.0.6) date 2026-02-22 15:47:39*
%MOMM*%
%LPD*%
G01*
G04 APERTURE LIST*
%TA.AperFunction,ComponentPad*%
%ADD10O,2.100000X1.000000*%
%TD*%
%TA.AperFunction,ComponentPad*%
%ADD11O,1.800000X1.000000*%
%TD*%
%TA.AperFunction,ViaPad*%
%ADD12C,0.500000*%
%TD*%
%TA.AperFunction,Conductor*%
%ADD13C,0.120000*%
%TD*%
G04 APERTURE END LIST*
D10*
%TO.N,GND*%
%TO.C,J1*%
X26920000Y-25900000D03*
%TO.N,N/C*%
X26920000Y-17260000D03*
D11*
X31100000Y-25900000D03*
X31100000Y-17260000D03*
%TD*%
D12*
%TO.N,TX4*%
X13400000Y-32600000D03*
%TO.N,GND*%
X17800000Y-32600000D03*
X9000000Y-32600000D03*
%TO.N,I2C1_SCL*%
X15556124Y-29356124D03*
%TO.N,I2C1_SDA*%
X13400000Y-29400000D03*
%TO.N,RX4*%
X11200000Y-32600000D03*
%TO.N,RX1*%
X9000000Y-29400000D03*
%TO.N,TX1*%
X6800000Y-29400000D03*
%TO.N,RX3*%
X6800000Y-32600000D03*
%TO.N,9V_BEC*%
X15639914Y-32639914D03*
%TO.N,VDD_MCU*%
X23700000Y-16900000D03*
X6100000Y-15800000D03*
X25500000Y-30400000D03*
X15700000Y-13400000D03*
X5800000Y-9600000D03*
X31500000Y-5900000D03*
X23199480Y-24599340D03*
%TO.N,/Power/LC_5V5*%
X16900000Y-9900000D03*
X20348754Y-7748753D03*
%TO.N,GND*%
X6800000Y-16700000D03*
X12800000Y-25900000D03*
X21900000Y-9500000D03*
X21689914Y-27389914D03*
X9100000Y-1400000D03*
X1600000Y-29100000D03*
X20400000Y-21600000D03*
X8824730Y-24925269D03*
X18800000Y-20150000D03*
X16607864Y-25839322D03*
X18800000Y-21600000D03*
X17300000Y-18300000D03*
X4300000Y-16600000D03*
X22500000Y-23700000D03*
X4100000Y-7300000D03*
X1400000Y-13600000D03*
X18800000Y-18300000D03*
X20400000Y-20100000D03*
X9600000Y-11400000D03*
X28800000Y-5900000D03*
X24900000Y-29000000D03*
X14900000Y-13388385D03*
X19200000Y-5800000D03*
X11775270Y-12924730D03*
X13110000Y-21100000D03*
X17810625Y-9710625D03*
X26100000Y-12500000D03*
X17300000Y-20100000D03*
X4400000Y-21600000D03*
X17300000Y-14400000D03*
X20400000Y-18300000D03*
X6100000Y-13700000D03*
X17300000Y-21600000D03*
X10625180Y-15878377D03*
X7600000Y-21920000D03*
X31200000Y-15900000D03*
X24400000Y-17200000D03*
X14592258Y-17007356D03*
%TO.N,/Power/PG_5V5*%
X18698754Y-9398753D03*
X17457674Y-13457674D03*
%TO.N,/Power/FB_5V5*%
X13400000Y-13400000D03*
X18078385Y-12978385D03*
%TO.N,/Power/EN{slash}SYNC_9V*%
X26719396Y-13942241D03*
X28100000Y-10800000D03*
%TO.N,/Power/BIAS_SUPPLY_9V*%
X26300000Y-15990000D03*
X28294276Y-12995249D03*
%TO.N,MOTOR2*%
X18507376Y-24290795D03*
X25170500Y-9700000D03*
%TO.N,MOTOR1*%
X26200000Y-9700000D03*
X17277466Y-15500185D03*
X30210000Y-6000000D03*
%TO.N,RX2*%
X14525440Y-21837402D03*
X22200000Y-7200000D03*
%TO.N,CURRENT_SENSOR*%
X22900000Y-6800000D03*
X14414056Y-20835405D03*
%TO.N,MOTOR3*%
X24400000Y-9600000D03*
X18600000Y-15900000D03*
%TO.N,MOTOR4*%
X18238754Y-12100000D03*
X23700000Y-9600000D03*
%TO.N,TX3*%
X14700000Y-2510000D03*
X20100000Y-24395040D03*
%TO.N,/MCU/NRST*%
X11700000Y-18340000D03*
X6000000Y-20500000D03*
%TO.N,TX1*%
X23329232Y-20378025D03*
%TO.N,/MCU/OSC_OUT*%
X14496277Y-20001000D03*
X12800000Y-18100000D03*
%TO.N,SWDIO-JTMS*%
X23200000Y-16400000D03*
X24800000Y-23300000D03*
%TO.N,RX3*%
X16600000Y-25100000D03*
X21840000Y-24300000D03*
X12400000Y-3000000D03*
%TO.N,TX4*%
X23570711Y-25070711D03*
X20800000Y-15800000D03*
%TO.N,SPI1_SDI*%
X13300000Y-22900000D03*
X15500000Y-24298383D03*
%TO.N,SWCLK-JTCK*%
X22700000Y-15900000D03*
X25100000Y-22700000D03*
%TO.N,RX1*%
X23329232Y-19778022D03*
%TO.N,/MCU/OSC_IN*%
X14582980Y-19271421D03*
X14500000Y-16300000D03*
%TO.N,BZ*%
X23024998Y-20895173D03*
X10600000Y-22600000D03*
X1600000Y-22800000D03*
%TO.N,GYRO_1_EXTI*%
X11300000Y-22100000D03*
X14497685Y-18677514D03*
%TO.N,SPI1_SD0*%
X16685945Y-24385945D03*
X13600000Y-23555001D03*
%TO.N,GYRO_1_CS*%
X13700000Y-24500000D03*
X13490000Y-18189000D03*
%TO.N,I2C1_SDA*%
X17851988Y-15673172D03*
X9222856Y-18477145D03*
%TO.N,I2C1_SCL*%
X8404559Y-18426145D03*
X21472090Y-15890000D03*
%TO.N,RX4*%
X20050000Y-16000000D03*
X23409878Y-25740662D03*
%TO.N,VOLTAGE_SENSOR*%
X11600000Y-11500000D03*
X9500000Y-16900000D03*
%TO.N,9V_BEC*%
X32276993Y-14251694D03*
%TO.N,/Connectors/MOTOR_2*%
X25900000Y-4700000D03*
X8600000Y-5600000D03*
%TO.N,/Connectors/MOTOR_1*%
X8800000Y-3500000D03*
X26900000Y-4700000D03*
%TO.N,/Connectors/MOTOR_3*%
X10589914Y-3489914D03*
X24900000Y-4700000D03*
%TO.N,/Connectors/MOTOR_4*%
X10800000Y-5700000D03*
X23900000Y-4700000D03*
%TD*%
D13*
%TO.N,BZ*%
X21520171Y-22400000D02*
X23024998Y-20895173D01*
X12820000Y-22400000D02*
X21520171Y-22400000D01*
X10600000Y-22600000D02*
X12620000Y-22600000D01*
X12620000Y-22600000D02*
X12820000Y-22400000D01*
%TO.N,TX4*%
X23960232Y-24681190D02*
X23570711Y-25070711D01*
X22007955Y-16300000D02*
X23960232Y-18252277D01*
X21242585Y-16300000D02*
X22007955Y-16300000D01*
X20800000Y-15857415D02*
X21242585Y-16300000D01*
X20800000Y-15800000D02*
X20800000Y-15857415D01*
X23960232Y-18252277D02*
X23960232Y-24681190D01*
%TO.N,RX3*%
X16800000Y-25300000D02*
X16600000Y-25100000D01*
X21052612Y-25300000D02*
X16800000Y-25300000D01*
X21840000Y-24512612D02*
X21052612Y-25300000D01*
X21840000Y-24300000D02*
X21840000Y-24512612D01*
%TO.N,/Power/PG_5V5*%
X18698754Y-13009969D02*
X18698754Y-9398753D01*
X18251049Y-13457674D02*
X18698754Y-13009969D01*
X17457674Y-13457674D02*
X18251049Y-13457674D01*
%TO.N,/Power/FB_5V5*%
X13821615Y-12978385D02*
X18078385Y-12978385D01*
X13400000Y-13400000D02*
X13821615Y-12978385D01*
%TO.N,MOTOR2*%
X19576662Y-15804580D02*
X19576662Y-16276662D01*
X18507376Y-24267083D02*
X18507376Y-24290795D01*
X19576662Y-16276662D02*
X19921000Y-16621000D01*
X23739232Y-18343819D02*
X23739232Y-20760768D01*
X18938770Y-23835689D02*
X18507376Y-24267083D01*
X25170500Y-10210742D02*
X19576662Y-15804580D01*
X19921000Y-16621000D02*
X22016413Y-16621000D01*
X23739232Y-20760768D02*
X20664311Y-23835689D01*
X20664311Y-23835689D02*
X18938770Y-23835689D01*
X25170500Y-9700000D02*
X25170500Y-10210742D01*
X22016413Y-16621000D02*
X23739232Y-18343819D01*
%TO.N,/MCU/OSC_OUT*%
X14759905Y-19691215D02*
X14871799Y-19691215D01*
X14496277Y-19954843D02*
X14759905Y-19691215D01*
X13190691Y-17779000D02*
X12869691Y-18100000D01*
X15141846Y-19421168D02*
X15141846Y-19039262D01*
X15100000Y-18997416D02*
X15100000Y-18500000D01*
X14496277Y-20001000D02*
X14496277Y-19954843D01*
X15100000Y-18500000D02*
X14379000Y-17779000D01*
X14871799Y-19691215D02*
X15141846Y-19421168D01*
X15141846Y-19039262D02*
X15100000Y-18997416D01*
X12869691Y-18100000D02*
X12800000Y-18100000D01*
X14379000Y-17779000D02*
X13190691Y-17779000D01*
%TO.N,GYRO_1_EXTI*%
X14400000Y-18800000D02*
X14400000Y-18775199D01*
X14400000Y-18775199D02*
X14497685Y-18677514D01*
X11300000Y-21875199D02*
X14497685Y-18677514D01*
X11300000Y-22100000D02*
X11300000Y-21875199D01*
%TO.N,I2C1_SDA*%
X11900001Y-15800000D02*
X9222856Y-18477145D01*
X15000000Y-16100000D02*
X14700000Y-15800000D01*
X17851988Y-15673172D02*
X17851290Y-15673172D01*
X17851290Y-15673172D02*
X17424462Y-16100000D01*
X17424462Y-16100000D02*
X15000000Y-16100000D01*
X14700000Y-15800000D02*
X11900001Y-15800000D01*
%TO.N,RX4*%
X24281232Y-24941432D02*
X23482002Y-25740662D01*
X24281232Y-18119315D02*
X24281232Y-24941432D01*
X21472915Y-15310998D02*
X24281232Y-18119315D01*
X23482002Y-25740662D02*
X23409878Y-25740662D01*
X20474761Y-15310998D02*
X21472915Y-15310998D01*
X20050000Y-16000000D02*
X20050000Y-15735759D01*
X20050000Y-15735759D02*
X20474761Y-15310998D01*
%TD*%
%TA.AperFunction,Conductor*%
%TO.N,VDD_MCU*%
G36*
X31095585Y-220185D02*
G01*
X31141340Y-272989D01*
X31151284Y-342147D01*
X31122259Y-405703D01*
X31104034Y-422874D01*
X31093341Y-431079D01*
X31093330Y-431089D01*
X30931081Y-593338D01*
X30791392Y-775382D01*
X30676657Y-974109D01*
X30676650Y-974123D01*
X30588842Y-1186112D01*
X30529453Y-1407759D01*
X30529451Y-1407770D01*
X30499500Y-1635258D01*
X30499500Y-1864741D01*
X30524446Y-2054215D01*
X30529452Y-2092238D01*
X30588842Y-2313887D01*
X30676650Y-2525876D01*
X30676657Y-2525890D01*
X30708014Y-2580202D01*
X30767876Y-2683887D01*
X30791392Y-2724617D01*
X30931081Y-2906661D01*
X30931089Y-2906670D01*
X31093330Y-3068911D01*
X31093338Y-3068918D01*
X31275382Y-3208607D01*
X31275385Y-3208608D01*
X31275388Y-3208611D01*
X31474112Y-3323344D01*
X31474117Y-3323346D01*
X31474123Y-3323349D01*
X31563780Y-3360486D01*
X31686113Y-3411158D01*
X31907762Y-3470548D01*
X32135266Y-3500500D01*
X32135273Y-3500500D01*
X32364727Y-3500500D01*
X32364734Y-3500500D01*
X32592238Y-3470548D01*
X32813887Y-3411158D01*
X33025888Y-3323344D01*
X33224612Y-3208611D01*
X33406661Y-3068919D01*
X33406665Y-3068914D01*
X33406670Y-3068911D01*
X33568911Y-2906670D01*
X33568912Y-2906668D01*
X33568919Y-2906661D01*
X33577125Y-2895966D01*
X33633550Y-2854764D01*
X33703296Y-2850609D01*
X33764217Y-2884820D01*
X33796971Y-2946537D01*
X33799500Y-2971453D01*
X33799500Y-31028546D01*
X33779815Y-31095585D01*
X33727011Y-31141340D01*
X33657853Y-31151284D01*
X33594297Y-31122259D01*
X33577126Y-31104034D01*
X33570642Y-31095585D01*
X33568919Y-31093339D01*
X33568915Y-31093335D01*
X33568911Y-31093330D01*
X33406670Y-30931089D01*
X33406661Y-30931081D01*
X33224617Y-30791392D01*
X33025890Y-30676657D01*
X33025876Y-30676650D01*
X32813887Y-30588842D01*
X32592238Y-30529452D01*
X32554215Y-30524446D01*
X32364741Y-30499500D01*
X32364734Y-30499500D01*
X32135266Y-30499500D01*
X32135258Y-30499500D01*
X31918715Y-30528009D01*
X31907762Y-30529452D01*
X31814076Y-30554554D01*
X31686112Y-30588842D01*
X31474123Y-30676650D01*
X31474109Y-30676657D01*
X31275382Y-30791392D01*
X31093338Y-30931081D01*
X30931081Y-31093338D01*
X30791392Y-31275382D01*
X30676657Y-31474109D01*
X30676650Y-31474123D01*
X30588842Y-31686112D01*
X30529453Y-31907759D01*
X30529451Y-31907770D01*
X30499500Y-32135258D01*
X30499500Y-32364741D01*
X30519465Y-32516379D01*
X30529452Y-32592238D01*
X30558118Y-32699223D01*
X30588842Y-32813887D01*
X30676650Y-33025876D01*
X30676657Y-33025890D01*
X30791392Y-33224617D01*
X30931081Y-33406661D01*
X30931089Y-33406670D01*
X31093330Y-33568911D01*
X31093335Y-33568915D01*
X31093339Y-33568919D01*
X31099553Y-33573687D01*
X31104034Y-33577126D01*
X31145236Y-33633554D01*
X31149389Y-33703300D01*
X31115176Y-33764220D01*
X31053458Y-33796972D01*
X31028546Y-33799500D01*
X2971454Y-33799500D01*
X2904415Y-33779815D01*
X2858660Y-33727011D01*
X2848716Y-33657853D01*
X2877741Y-33594297D01*
X2895966Y-33577126D01*
X2898409Y-33575250D01*
X2906661Y-33568919D01*
X2906666Y-33568914D01*
X2906670Y-33568911D01*
X3068911Y-33406670D01*
X3068914Y-33406665D01*
X3068919Y-33406661D01*
X3208611Y-33224612D01*
X3323344Y-33025888D01*
X3411158Y-32813887D01*
X3470548Y-32592238D01*
X3477334Y-32540691D01*
X6349500Y-32540691D01*
X6349500Y-32659309D01*
X6380201Y-32773886D01*
X6439511Y-32876613D01*
X6523387Y-32960489D01*
X6626114Y-33019799D01*
X6740691Y-33050500D01*
X6740694Y-33050500D01*
X6859306Y-33050500D01*
X6859309Y-33050500D01*
X6973886Y-33019799D01*
X7076613Y-32960489D01*
X7160489Y-32876613D01*
X7219799Y-32773886D01*
X7250500Y-32659309D01*
X7250500Y-32540691D01*
X8549500Y-32540691D01*
X8549500Y-32659309D01*
X8580201Y-32773886D01*
X8639511Y-32876613D01*
X8723387Y-32960489D01*
X8826114Y-33019799D01*
X8940691Y-33050500D01*
X8940694Y-33050500D01*
X9059306Y-33050500D01*
X9059309Y-33050500D01*
X9173886Y-33019799D01*
X9276613Y-32960489D01*
X9360489Y-32876613D01*
X9419799Y-32773886D01*
X9450500Y-32659309D01*
X9450500Y-32540691D01*
X10749500Y-32540691D01*
X10749500Y-32659309D01*
X10780201Y-32773886D01*
X10839511Y-32876613D01*
X10923387Y-32960489D01*
X11026114Y-33019799D01*
X11140691Y-33050500D01*
X11140694Y-33050500D01*
X11259306Y-33050500D01*
X11259309Y-33050500D01*
X11373886Y-33019799D01*
X11476613Y-32960489D01*
X11560489Y-32876613D01*
X11619799Y-32773886D01*
X11650500Y-32659309D01*
X11650500Y-32540691D01*
X12949500Y-32540691D01*
X12949500Y-32659309D01*
X12980201Y-32773886D01*
X13039511Y-32876613D01*
X13123387Y-32960489D01*
X13226114Y-33019799D01*
X13340691Y-33050500D01*
X13340694Y-33050500D01*
X13459306Y-33050500D01*
X13459309Y-33050500D01*
X13573886Y-33019799D01*
X13676613Y-32960489D01*
X13760489Y-32876613D01*
X13819799Y-32773886D01*
X13850500Y-32659309D01*
X13850500Y-32580605D01*
X15189414Y-32580605D01*
X15189414Y-32699223D01*
X15220115Y-32813800D01*
X15279425Y-32916527D01*
X15363301Y-33000403D01*
X15466028Y-33059713D01*
X15580605Y-33090414D01*
X15580608Y-33090414D01*
X15699220Y-33090414D01*
X15699223Y-33090414D01*
X15813800Y-33059713D01*
X15916527Y-33000403D01*
X16000403Y-32916527D01*
X16059713Y-32813800D01*
X16090414Y-32699223D01*
X16090414Y-32580605D01*
X16079719Y-32540691D01*
X17349500Y-32540691D01*
X17349500Y-32659309D01*
X17380201Y-32773886D01*
X17439511Y-32876613D01*
X17523387Y-32960489D01*
X17626114Y-33019799D01*
X17740691Y-33050500D01*
X17740694Y-33050500D01*
X17859306Y-33050500D01*
X17859309Y-33050500D01*
X17973886Y-33019799D01*
X18076613Y-32960489D01*
X18160489Y-32876613D01*
X18219799Y-32773886D01*
X18250500Y-32659309D01*
X18250500Y-32540691D01*
X18219799Y-32426114D01*
X18160489Y-32323387D01*
X18076613Y-32239511D01*
X17973886Y-32180201D01*
X17859309Y-32149500D01*
X17740691Y-32149500D01*
X17626114Y-32180201D01*
X17626112Y-32180201D01*
X17626112Y-32180202D01*
X17523387Y-32239511D01*
X17523384Y-32239513D01*
X17439513Y-32323384D01*
X17439511Y-32323387D01*
X17380201Y-32426114D01*
X17349500Y-32540691D01*
X16079719Y-32540691D01*
X16059713Y-32466028D01*
X16000403Y-32363301D01*
X15916527Y-32279425D01*
X15813800Y-32220115D01*
X15699223Y-32189414D01*
X15580605Y-32189414D01*
X15466028Y-32220115D01*
X15466026Y-32220115D01*
X15466026Y-32220116D01*
X15363301Y-32279425D01*
X15363298Y-32279427D01*
X15279427Y-32363298D01*
X15279425Y-32363301D01*
X15243160Y-32426114D01*
X15220115Y-32466028D01*
X15189414Y-32580605D01*
X13850500Y-32580605D01*
X13850500Y-32540691D01*
X13819799Y-32426114D01*
X13760489Y-32323387D01*
X13676613Y-32239511D01*
X13573886Y-32180201D01*
X13459309Y-32149500D01*
X13340691Y-32149500D01*
X13226114Y-32180201D01*
X13226112Y-32180201D01*
X13226112Y-32180202D01*
X13123387Y-32239511D01*
X13123384Y-32239513D01*
X13039513Y-32323384D01*
X13039511Y-32323387D01*
X12980201Y-32426114D01*
X12949500Y-32540691D01*
X11650500Y-32540691D01*
X11619799Y-32426114D01*
X11560489Y-32323387D01*
X11476613Y-32239511D01*
X11373886Y-32180201D01*
X11259309Y-32149500D01*
X11140691Y-32149500D01*
X11026114Y-32180201D01*
X11026112Y-32180201D01*
X11026112Y-32180202D01*
X10923387Y-32239511D01*
X10923384Y-32239513D01*
X10839513Y-32323384D01*
X10839511Y-32323387D01*
X10780201Y-32426114D01*
X10749500Y-32540691D01*
X9450500Y-32540691D01*
X9419799Y-32426114D01*
X9360489Y-32323387D01*
X9276613Y-32239511D01*
X9173886Y-32180201D01*
X9059309Y-32149500D01*
X8940691Y-32149500D01*
X8826114Y-32180201D01*
X8826112Y-32180201D01*
X8826112Y-32180202D01*
X8723387Y-32239511D01*
X8723384Y-32239513D01*
X8639513Y-32323384D01*
X8639511Y-32323387D01*
X8580201Y-32426114D01*
X8549500Y-32540691D01*
X7250500Y-32540691D01*
X7219799Y-32426114D01*
X7160489Y-32323387D01*
X7076613Y-32239511D01*
X6973886Y-32180201D01*
X6859309Y-32149500D01*
X6740691Y-32149500D01*
X6626114Y-32180201D01*
X6626112Y-32180201D01*
X6626112Y-32180202D01*
X6523387Y-32239511D01*
X6523384Y-32239513D01*
X6439513Y-32323384D01*
X6439511Y-32323387D01*
X6380201Y-32426114D01*
X6349500Y-32540691D01*
X3477334Y-32540691D01*
X3500500Y-32364734D01*
X3500500Y-32135266D01*
X3470548Y-31907762D01*
X3411158Y-31686113D01*
X3323344Y-31474112D01*
X3208611Y-31275388D01*
X3208608Y-31275385D01*
X3208607Y-31275382D01*
X3085675Y-31115176D01*
X3068919Y-31093339D01*
X3068918Y-31093338D01*
X3068911Y-31093330D01*
X2906670Y-30931089D01*
X2906661Y-30931081D01*
X2724617Y-30791392D01*
X2525890Y-30676657D01*
X2525876Y-30676650D01*
X2313887Y-30588842D01*
X2092238Y-30529452D01*
X2054215Y-30524446D01*
X1864741Y-30499500D01*
X1864734Y-30499500D01*
X1635266Y-30499500D01*
X1635258Y-30499500D01*
X1418715Y-30528009D01*
X1407762Y-30529452D01*
X1314076Y-30554554D01*
X1186112Y-30588842D01*
X974123Y-30676650D01*
X974109Y-30676657D01*
X775382Y-30791392D01*
X593338Y-30931081D01*
X431089Y-31093330D01*
X431079Y-31093341D01*
X422874Y-31104034D01*
X366446Y-31145236D01*
X296700Y-31149389D01*
X235780Y-31115176D01*
X203028Y-31053458D01*
X200500Y-31028546D01*
X200500Y-29040691D01*
X1149500Y-29040691D01*
X1149500Y-29159309D01*
X1180201Y-29273886D01*
X1239511Y-29376613D01*
X1323387Y-29460489D01*
X1426114Y-29519799D01*
X1540691Y-29550500D01*
X1540694Y-29550500D01*
X1659306Y-29550500D01*
X1659309Y-29550500D01*
X1773886Y-29519799D01*
X1876613Y-29460489D01*
X1960489Y-29376613D01*
X1981229Y-29340691D01*
X6349500Y-29340691D01*
X6349500Y-29459309D01*
X6380201Y-29573886D01*
X6439511Y-29676613D01*
X6523387Y-29760489D01*
X6626114Y-29819799D01*
X6740691Y-29850500D01*
X6740694Y-29850500D01*
X6859306Y-29850500D01*
X6859309Y-29850500D01*
X6973886Y-29819799D01*
X7076613Y-29760489D01*
X7160489Y-29676613D01*
X7219799Y-29573886D01*
X7250500Y-29459309D01*
X7250500Y-29340691D01*
X8549500Y-29340691D01*
X8549500Y-29459309D01*
X8580201Y-29573886D01*
X8639511Y-29676613D01*
X8723387Y-29760489D01*
X8826114Y-29819799D01*
X8940691Y-29850500D01*
X8940694Y-29850500D01*
X9059306Y-29850500D01*
X9059309Y-29850500D01*
X9173886Y-29819799D01*
X9276613Y-29760489D01*
X9360489Y-29676613D01*
X9419799Y-29573886D01*
X9450500Y-29459309D01*
X9450500Y-29340691D01*
X12949500Y-29340691D01*
X12949500Y-29459309D01*
X12980201Y-29573886D01*
X13039511Y-29676613D01*
X13123387Y-29760489D01*
X13226114Y-29819799D01*
X13340691Y-29850500D01*
X13340694Y-29850500D01*
X13459306Y-29850500D01*
X13459309Y-29850500D01*
X13573886Y-29819799D01*
X13676613Y-29760489D01*
X13760489Y-29676613D01*
X13819799Y-29573886D01*
X13850500Y-29459309D01*
X13850500Y-29340691D01*
X13838743Y-29296815D01*
X15105624Y-29296815D01*
X15105624Y-29415433D01*
X15136325Y-29530010D01*
X15195635Y-29632737D01*
X15279511Y-29716613D01*
X15382238Y-29775923D01*
X15496815Y-29806624D01*
X15496818Y-29806624D01*
X15615430Y-29806624D01*
X15615433Y-29806624D01*
X15730010Y-29775923D01*
X15832737Y-29716613D01*
X15916613Y-29632737D01*
X15975923Y-29530010D01*
X16006624Y-29415433D01*
X16006624Y-29296815D01*
X15975923Y-29182238D01*
X15916613Y-29079511D01*
X15832737Y-28995635D01*
X15737572Y-28940691D01*
X24449500Y-28940691D01*
X24449500Y-29059309D01*
X24480201Y-29173886D01*
X24539511Y-29276613D01*
X24623387Y-29360489D01*
X24726114Y-29419799D01*
X24840691Y-29450500D01*
X24840694Y-29450500D01*
X24959306Y-29450500D01*
X24959309Y-29450500D01*
X25073886Y-29419799D01*
X25176613Y-29360489D01*
X25260489Y-29276613D01*
X25319799Y-29173886D01*
X25350500Y-29059309D01*
X25350500Y-28940691D01*
X25319799Y-28826114D01*
X25260489Y-28723387D01*
X25176613Y-28639511D01*
X25073886Y-28580201D01*
X24959309Y-28549500D01*
X24840691Y-28549500D01*
X24726114Y-28580201D01*
X24726112Y-28580201D01*
X24726112Y-28580202D01*
X24623387Y-28639511D01*
X24623384Y-28639513D01*
X24539513Y-28723384D01*
X24539511Y-28723387D01*
X24480201Y-28826114D01*
X24449500Y-28940691D01*
X15737572Y-28940691D01*
X15730010Y-28936325D01*
X15615433Y-28905624D01*
X15496815Y-28905624D01*
X15382238Y-28936325D01*
X15382236Y-28936325D01*
X15382236Y-28936326D01*
X15279511Y-28995635D01*
X15279508Y-28995637D01*
X15195637Y-29079508D01*
X15195635Y-29079511D01*
X15136325Y-29182238D01*
X15105624Y-29296815D01*
X13838743Y-29296815D01*
X13819799Y-29226114D01*
X13760489Y-29123387D01*
X13676613Y-29039511D01*
X13573886Y-28980201D01*
X13459309Y-28949500D01*
X13340691Y-28949500D01*
X13226114Y-28980201D01*
X13226112Y-28980201D01*
X13226112Y-28980202D01*
X13123387Y-29039511D01*
X13123384Y-29039513D01*
X13039513Y-29123384D01*
X13039511Y-29123387D01*
X13010355Y-29173887D01*
X12980201Y-29226114D01*
X12949500Y-29340691D01*
X9450500Y-29340691D01*
X9419799Y-29226114D01*
X9360489Y-29123387D01*
X9276613Y-29039511D01*
X9173886Y-28980201D01*
X9059309Y-28949500D01*
X8940691Y-28949500D01*
X8826114Y-28980201D01*
X8826112Y-28980201D01*
X8826112Y-28980202D01*
X8723387Y-29039511D01*
X8723384Y-29039513D01*
X8639513Y-29123384D01*
X8639511Y-29123387D01*
X8610355Y-29173887D01*
X8580201Y-29226114D01*
X8549500Y-29340691D01*
X7250500Y-29340691D01*
X7219799Y-29226114D01*
X7160489Y-29123387D01*
X7076613Y-29039511D01*
X6973886Y-28980201D01*
X6859309Y-28949500D01*
X6740691Y-28949500D01*
X6626114Y-28980201D01*
X6626112Y-28980201D01*
X6626112Y-28980202D01*
X6523387Y-29039511D01*
X6523384Y-29039513D01*
X6439513Y-29123384D01*
X6439511Y-29123387D01*
X6410355Y-29173887D01*
X6380201Y-29226114D01*
X6349500Y-29340691D01*
X1981229Y-29340691D01*
X2006561Y-29296815D01*
X2019795Y-29273894D01*
X2019797Y-29273890D01*
X2019798Y-29273887D01*
X2019799Y-29273886D01*
X2050500Y-29159309D01*
X2050500Y-29040691D01*
X2019799Y-28926114D01*
X1960489Y-28823387D01*
X1876613Y-28739511D01*
X1773886Y-28680201D01*
X1659309Y-28649500D01*
X1540691Y-28649500D01*
X1426114Y-28680201D01*
X1426112Y-28680201D01*
X1426112Y-28680202D01*
X1323387Y-28739511D01*
X1323384Y-28739513D01*
X1239513Y-28823384D01*
X1239511Y-28823387D01*
X1180201Y-28926114D01*
X1149500Y-29040691D01*
X200500Y-29040691D01*
X200500Y-27330605D01*
X21239414Y-27330605D01*
X21239414Y-27449223D01*
X21270115Y-27563800D01*
X21329425Y-27666527D01*
X21413301Y-27750403D01*
X21516028Y-27809713D01*
X21630605Y-27840414D01*
X21630608Y-27840414D01*
X21749220Y-27840414D01*
X21749223Y-27840414D01*
X21863800Y-27809713D01*
X21966527Y-27750403D01*
X22050403Y-27666527D01*
X22109713Y-27563800D01*
X22140414Y-27449223D01*
X22140414Y-27330605D01*
X22109713Y-27216028D01*
X22050403Y-27113301D01*
X21966527Y-27029425D01*
X21863800Y-26970115D01*
X21749223Y-26939414D01*
X21630605Y-26939414D01*
X21516028Y-26970115D01*
X21516026Y-26970115D01*
X21516026Y-26970116D01*
X21413301Y-27029425D01*
X21413298Y-27029427D01*
X21329427Y-27113298D01*
X21329425Y-27113301D01*
X21270115Y-27216028D01*
X21239414Y-27330605D01*
X200500Y-27330605D01*
X200500Y-25840691D01*
X12349500Y-25840691D01*
X12349500Y-25959309D01*
X12380201Y-26073886D01*
X12439511Y-26176613D01*
X12523387Y-26260489D01*
X12626114Y-26319799D01*
X12740691Y-26350500D01*
X12740694Y-26350500D01*
X12859306Y-26350500D01*
X12859309Y-26350500D01*
X12973886Y-26319799D01*
X13076613Y-26260489D01*
X13160489Y-26176613D01*
X13219799Y-26073886D01*
X13250500Y-25959309D01*
X13250500Y-25840691D01*
X13219799Y-25726114D01*
X13160489Y-25623387D01*
X13076613Y-25539511D01*
X12973886Y-25480201D01*
X12859309Y-25449500D01*
X12740691Y-25449500D01*
X12626114Y-25480201D01*
X12626112Y-25480201D01*
X12626112Y-25480202D01*
X12523387Y-25539511D01*
X12523384Y-25539513D01*
X12439513Y-25623384D01*
X12439511Y-25623387D01*
X12390621Y-25708067D01*
X12380201Y-25726114D01*
X12349500Y-25840691D01*
X200500Y-25840691D01*
X200500Y-24865960D01*
X8374230Y-24865960D01*
X8374230Y-24984578D01*
X8404931Y-25099155D01*
X8464241Y-25201882D01*
X8548117Y-25285758D01*
X8650844Y-25345068D01*
X8765421Y-25375769D01*
X8765424Y-25375769D01*
X8884036Y-25375769D01*
X8884039Y-25375769D01*
X8998616Y-25345068D01*
X9101343Y-25285758D01*
X9185219Y-25201882D01*
X9244529Y-25099155D01*
X9275230Y-24984578D01*
X9275230Y-24865960D01*
X9244529Y-24751383D01*
X9185219Y-24648656D01*
X9101343Y-24564780D01*
X8998616Y-24505470D01*
X8884039Y-24474769D01*
X8765421Y-24474769D01*
X8650844Y-24505470D01*
X8650842Y-24505470D01*
X8650842Y-24505471D01*
X8548117Y-24564780D01*
X8548114Y-24564782D01*
X8464243Y-24648653D01*
X8464241Y-24648656D01*
X8424020Y-24718321D01*
X8404931Y-24751383D01*
X8374230Y-24865960D01*
X200500Y-24865960D01*
X200500Y-22740691D01*
X1149500Y-22740691D01*
X1149500Y-22859309D01*
X1180201Y-22973886D01*
X1239511Y-23076613D01*
X1323387Y-23160489D01*
X1426114Y-23219799D01*
X1540691Y-23250500D01*
X1540694Y-23250500D01*
X1659306Y-23250500D01*
X1659309Y-23250500D01*
X1773886Y-23219799D01*
X1876613Y-23160489D01*
X1960489Y-23076613D01*
X2019799Y-22973886D01*
X2050500Y-22859309D01*
X2050500Y-22740691D01*
X2019799Y-22626114D01*
X1960489Y-22523387D01*
X1876613Y-22439511D01*
X1773886Y-22380201D01*
X1659309Y-22349500D01*
X1540691Y-22349500D01*
X1426114Y-22380201D01*
X1426112Y-22380201D01*
X1426112Y-22380202D01*
X1323387Y-22439511D01*
X1323384Y-22439513D01*
X1239513Y-22523384D01*
X1239511Y-22523387D01*
X1180201Y-22626114D01*
X1149500Y-22740691D01*
X200500Y-22740691D01*
X200500Y-21540691D01*
X3949500Y-21540691D01*
X3949500Y-21659309D01*
X3980201Y-21773886D01*
X4039511Y-21876613D01*
X4123387Y-21960489D01*
X4226114Y-22019799D01*
X4340691Y-22050500D01*
X4340694Y-22050500D01*
X4459306Y-22050500D01*
X4459309Y-22050500D01*
X4573886Y-22019799D01*
X4676613Y-21960489D01*
X4760489Y-21876613D01*
X4769682Y-21860691D01*
X7149500Y-21860691D01*
X7149500Y-21979309D01*
X7180201Y-22093886D01*
X7239511Y-22196613D01*
X7323387Y-22280489D01*
X7426114Y-22339799D01*
X7540691Y-22370500D01*
X7540694Y-22370500D01*
X7659306Y-22370500D01*
X7659309Y-22370500D01*
X7773886Y-22339799D01*
X7876613Y-22280489D01*
X7960489Y-22196613D01*
X8019799Y-22093886D01*
X8050500Y-21979309D01*
X8050500Y-21860691D01*
X8019799Y-21746114D01*
X7960489Y-21643387D01*
X7876613Y-21559511D01*
X7773886Y-21500201D01*
X7659309Y-21469500D01*
X7540691Y-21469500D01*
X7426114Y-21500201D01*
X7426112Y-21500201D01*
X7426112Y-21500202D01*
X7323387Y-21559511D01*
X7323384Y-21559513D01*
X7239513Y-21643384D01*
X7239511Y-21643387D01*
X7180201Y-21746114D01*
X7149500Y-21860691D01*
X4769682Y-21860691D01*
X4819799Y-21773886D01*
X4850500Y-21659309D01*
X4850500Y-21540691D01*
X4819799Y-21426114D01*
X4760489Y-21323387D01*
X4676613Y-21239511D01*
X4573886Y-21180201D01*
X4459309Y-21149500D01*
X4340691Y-21149500D01*
X4226114Y-21180201D01*
X4226112Y-21180201D01*
X4226112Y-21180202D01*
X4123387Y-21239511D01*
X4123384Y-21239513D01*
X4039513Y-21323384D01*
X4039511Y-21323387D01*
X4006623Y-21380351D01*
X3980201Y-21426114D01*
X3949500Y-21540691D01*
X200500Y-21540691D01*
X200500Y-20440691D01*
X5549500Y-20440691D01*
X5549500Y-20559309D01*
X5580201Y-20673886D01*
X5639511Y-20776613D01*
X5723387Y-20860489D01*
X5826114Y-20919799D01*
X5940691Y-20950500D01*
X5940694Y-20950500D01*
X6059306Y-20950500D01*
X6059309Y-20950500D01*
X6173886Y-20919799D01*
X6276613Y-20860489D01*
X6360489Y-20776613D01*
X6419799Y-20673886D01*
X6450500Y-20559309D01*
X6450500Y-20440691D01*
X6419799Y-20326114D01*
X6360489Y-20223387D01*
X6276613Y-20139511D01*
X6173886Y-20080201D01*
X6059309Y-20049500D01*
X5940691Y-20049500D01*
X5826114Y-20080201D01*
X5826112Y-20080201D01*
X5826112Y-20080202D01*
X5723387Y-20139511D01*
X5723384Y-20139513D01*
X5639513Y-20223384D01*
X5639511Y-20223387D01*
X5610355Y-20273887D01*
X5580201Y-20326114D01*
X5549500Y-20440691D01*
X200500Y-20440691D01*
X200500Y-18366836D01*
X7954059Y-18366836D01*
X7954059Y-18485454D01*
X7984760Y-18600031D01*
X8044070Y-18702758D01*
X8127946Y-18786634D01*
X8230673Y-18845944D01*
X8345250Y-18876645D01*
X8345253Y-18876645D01*
X8463865Y-18876645D01*
X8463868Y-18876645D01*
X8578445Y-18845944D01*
X8681172Y-18786634D01*
X8700526Y-18767279D01*
X8761846Y-18733794D01*
X8831538Y-18738777D01*
X8875888Y-18767279D01*
X8946243Y-18837634D01*
X9048970Y-18896944D01*
X9163547Y-18927645D01*
X9163550Y-18927645D01*
X9282162Y-18927645D01*
X9282165Y-18927645D01*
X9396742Y-18896944D01*
X9499469Y-18837634D01*
X9583345Y-18753758D01*
X9642655Y-18651031D01*
X9673356Y-18536454D01*
X9673356Y-18446408D01*
X9693041Y-18379369D01*
X9709675Y-18358727D01*
X9787711Y-18280691D01*
X11249500Y-18280691D01*
X11249500Y-18399309D01*
X11280201Y-18513886D01*
X11339511Y-18616613D01*
X11423387Y-18700489D01*
X11526114Y-18759799D01*
X11640691Y-18790500D01*
X11640694Y-18790500D01*
X11759306Y-18790500D01*
X11759309Y-18790500D01*
X11873886Y-18759799D01*
X11976613Y-18700489D01*
X12060489Y-18616613D01*
X12119799Y-18513886D01*
X12150500Y-18399309D01*
X12150500Y-18280691D01*
X12119799Y-18166114D01*
X12108099Y-18145850D01*
X12108099Y-18145847D01*
X12062863Y-18067499D01*
X12060489Y-18063387D01*
X11976613Y-17979511D01*
X11873886Y-17920201D01*
X11759309Y-17889500D01*
X11640691Y-17889500D01*
X11526114Y-17920201D01*
X11526112Y-17920201D01*
X11526112Y-17920202D01*
X11423387Y-17979511D01*
X11423384Y-17979513D01*
X11339513Y-18063384D01*
X11339511Y-18063387D01*
X11297581Y-18136012D01*
X11280201Y-18166114D01*
X11249500Y-18280691D01*
X9787711Y-18280691D01*
X10264289Y-17804114D01*
X11405448Y-16662955D01*
X11971585Y-16096819D01*
X12032908Y-16063334D01*
X12059266Y-16060500D01*
X13936182Y-16060500D01*
X14003221Y-16080185D01*
X14048976Y-16132989D01*
X14058920Y-16202147D01*
X14055957Y-16216592D01*
X14049500Y-16240689D01*
X14049500Y-16240691D01*
X14049500Y-16359309D01*
X14080201Y-16473886D01*
X14139511Y-16576613D01*
X14139513Y-16576615D01*
X14187135Y-16624237D01*
X14220620Y-16685560D01*
X14215636Y-16755252D01*
X14206841Y-16773918D01*
X14172460Y-16833466D01*
X14170216Y-16841841D01*
X14141758Y-16948047D01*
X14141758Y-17066665D01*
X14172459Y-17181242D01*
X14231769Y-17283969D01*
X14231771Y-17283971D01*
X14254619Y-17306819D01*
X14288104Y-17368142D01*
X14283120Y-17437834D01*
X14241248Y-17493767D01*
X14175784Y-17518184D01*
X14166938Y-17518500D01*
X13138873Y-17518500D01*
X13110826Y-17530116D01*
X13043132Y-17558156D01*
X12982867Y-17618421D01*
X12921543Y-17651905D01*
X12863097Y-17650515D01*
X12859309Y-17649500D01*
X12740691Y-17649500D01*
X12626114Y-17680201D01*
X12626112Y-17680201D01*
X12626112Y-17680202D01*
X12523387Y-17739511D01*
X12523384Y-17739513D01*
X12439513Y-17823384D01*
X12439511Y-17823387D01*
X12406709Y-17880202D01*
X12380201Y-17926114D01*
X12349500Y-18040691D01*
X12349500Y-18159309D01*
X12380201Y-18273886D01*
X12439511Y-18376613D01*
X12523387Y-18460489D01*
X12626114Y-18519799D01*
X12740691Y-18550500D01*
X12740694Y-18550500D01*
X12859306Y-18550500D01*
X12859309Y-18550500D01*
X12973886Y-18519799D01*
X13024499Y-18490576D01*
X13092399Y-18474104D01*
X13158426Y-18496956D01*
X13174181Y-18510283D01*
X13213387Y-18549489D01*
X13316114Y-18608799D01*
X13430691Y-18639500D01*
X13430694Y-18639500D01*
X13549306Y-18639500D01*
X13549309Y-18639500D01*
X13663886Y-18608799D01*
X13766613Y-18549489D01*
X13847806Y-18468295D01*
X13909125Y-18434813D01*
X13978817Y-18439797D01*
X14034751Y-18481668D01*
X14059168Y-18547132D01*
X14059081Y-18565962D01*
X14058173Y-18577194D01*
X14047185Y-18618205D01*
X14047185Y-18713241D01*
X14046782Y-18718231D01*
X14035990Y-18746372D01*
X14027500Y-18775287D01*
X14022543Y-18781437D01*
X14021765Y-18783468D01*
X14019664Y-18785010D01*
X14010866Y-18795929D01*
X11152440Y-21654356D01*
X11152434Y-21654363D01*
X11138787Y-21668008D01*
X11113113Y-21687707D01*
X11023387Y-21739511D01*
X11023384Y-21739513D01*
X10939513Y-21823384D01*
X10939511Y-21823387D01*
X10885117Y-21917600D01*
X10880201Y-21926114D01*
X10858620Y-22006653D01*
X10849499Y-22040694D01*
X10848439Y-22048751D01*
X10846664Y-22048517D01*
X10829815Y-22105900D01*
X10777011Y-22151655D01*
X10707853Y-22161599D01*
X10693409Y-22158636D01*
X10659313Y-22149500D01*
X10659309Y-22149500D01*
X10540691Y-22149500D01*
X10426114Y-22180201D01*
X10426112Y-22180201D01*
X10426112Y-22180202D01*
X10323387Y-22239511D01*
X10323384Y-22239513D01*
X10239513Y-22323384D01*
X10239511Y-22323387D01*
X10206709Y-22380202D01*
X10180201Y-22426114D01*
X10149500Y-22540691D01*
X10149500Y-22659309D01*
X10180201Y-22773886D01*
X10239511Y-22876613D01*
X10323387Y-22960489D01*
X10426114Y-23019799D01*
X10540691Y-23050500D01*
X10540694Y-23050500D01*
X10659306Y-23050500D01*
X10659309Y-23050500D01*
X10773886Y-23019799D01*
X10876613Y-22960489D01*
X10940283Y-22896819D01*
X11001606Y-22863334D01*
X11027964Y-22860500D01*
X12671816Y-22860500D01*
X12671817Y-22860500D01*
X12678671Y-22857660D01*
X12748138Y-22850188D01*
X12810619Y-22881459D01*
X12846275Y-22941545D01*
X12849067Y-22956023D01*
X12849499Y-22959303D01*
X12849500Y-22959306D01*
X12849500Y-22959309D01*
X12880201Y-23073886D01*
X12939511Y-23176613D01*
X13023387Y-23260489D01*
X13104783Y-23307483D01*
X13152998Y-23358050D01*
X13166220Y-23426658D01*
X13162557Y-23446962D01*
X13149500Y-23495692D01*
X13149500Y-23614310D01*
X13180201Y-23728887D01*
X13239511Y-23831614D01*
X13323387Y-23915490D01*
X13388858Y-23953290D01*
X13437074Y-24003857D01*
X13450296Y-24072464D01*
X13424328Y-24137329D01*
X13414540Y-24148358D01*
X13339511Y-24223387D01*
X13299350Y-24292948D01*
X13280201Y-24326114D01*
X13249500Y-24440691D01*
X13249500Y-24559309D01*
X13280201Y-24673886D01*
X13339511Y-24776613D01*
X13423387Y-24860489D01*
X13526114Y-24919799D01*
X13640691Y-24950500D01*
X13640694Y-24950500D01*
X13759306Y-24950500D01*
X13759309Y-24950500D01*
X13873886Y-24919799D01*
X13976613Y-24860489D01*
X14060489Y-24776613D01*
X14119799Y-24673886D01*
X14150500Y-24559309D01*
X14150500Y-24440691D01*
X14119799Y-24326114D01*
X14119797Y-24326111D01*
X14119797Y-24326109D01*
X14119796Y-24326108D01*
X14100652Y-24292950D01*
X14100650Y-24292948D01*
X14069546Y-24239074D01*
X15049500Y-24239074D01*
X15049500Y-24357692D01*
X15080201Y-24472269D01*
X15139511Y-24574996D01*
X15223387Y-24658872D01*
X15326114Y-24718182D01*
X15440691Y-24748883D01*
X15440694Y-24748883D01*
X15559306Y-24748883D01*
X15559309Y-24748883D01*
X15673886Y-24718182D01*
X15776613Y-24658872D01*
X15860489Y-24574996D01*
X15919799Y-24472269D01*
X15950500Y-24357692D01*
X15950500Y-24239074D01*
X15919799Y-24124497D01*
X15860489Y-24021770D01*
X15776613Y-23937894D01*
X15673886Y-23878584D01*
X15559309Y-23847883D01*
X15440691Y-23847883D01*
X15326114Y-23878584D01*
X15326112Y-23878584D01*
X15326112Y-23878585D01*
X15223387Y-23937894D01*
X15223384Y-23937896D01*
X15139513Y-24021767D01*
X15139511Y-24021770D01*
X15082915Y-24119797D01*
X15080201Y-24124497D01*
X15049500Y-24239074D01*
X14069546Y-24239074D01*
X14060489Y-24223387D01*
X13976613Y-24139511D01*
X13911139Y-24101709D01*
X13862925Y-24051142D01*
X13849703Y-23982535D01*
X13875671Y-23917671D01*
X13885444Y-23906658D01*
X13960489Y-23831614D01*
X14019799Y-23728887D01*
X14050500Y-23614310D01*
X14050500Y-23495692D01*
X14019799Y-23381115D01*
X13960489Y-23278388D01*
X13876613Y-23194512D01*
X13795215Y-23147516D01*
X13747001Y-23096949D01*
X13733779Y-23028342D01*
X13737441Y-23008044D01*
X13750500Y-22959309D01*
X13750500Y-22840691D01*
X13744043Y-22816592D01*
X13745706Y-22746742D01*
X13784870Y-22688880D01*
X13849098Y-22661377D01*
X13863818Y-22660500D01*
X21171736Y-22660500D01*
X21238775Y-22680185D01*
X21284530Y-22732989D01*
X21294474Y-22802147D01*
X21265449Y-22865703D01*
X21259417Y-22872181D01*
X20592728Y-23538870D01*
X20531405Y-23572355D01*
X20505047Y-23575189D01*
X18886950Y-23575189D01*
X18824290Y-23601145D01*
X18791210Y-23614847D01*
X18791207Y-23614849D01*
X18602081Y-23803976D01*
X18540758Y-23837461D01*
X18514400Y-23840295D01*
X18448067Y-23840295D01*
X18333490Y-23870996D01*
X18333488Y-23870996D01*
X18333488Y-23870997D01*
X18230763Y-23930306D01*
X18230760Y-23930308D01*
X18146889Y-24014179D01*
X18146887Y-24014182D01*
X18088175Y-24115874D01*
X18087577Y-24116909D01*
X18056876Y-24231486D01*
X18056876Y-24350104D01*
X18087577Y-24464681D01*
X18146887Y-24567408D01*
X18230763Y-24651284D01*
X18333490Y-24710594D01*
X18448067Y-24741295D01*
X18448070Y-24741295D01*
X18566682Y-24741295D01*
X18566685Y-24741295D01*
X18681262Y-24710594D01*
X18783989Y-24651284D01*
X18867865Y-24567408D01*
X18927175Y-24464681D01*
X18957876Y-24350104D01*
X18957876Y-24236347D01*
X18966522Y-24206901D01*
X18973046Y-24176917D01*
X18976798Y-24171904D01*
X18977561Y-24169308D01*
X18994197Y-24148663D01*
X19010356Y-24132505D01*
X19071681Y-24099022D01*
X19098035Y-24096189D01*
X19552086Y-24096189D01*
X19619125Y-24115874D01*
X19664880Y-24168678D01*
X19674824Y-24237836D01*
X19671864Y-24252266D01*
X19649500Y-24335731D01*
X19649500Y-24454349D01*
X19680201Y-24568926D01*
X19739511Y-24671653D01*
X19823387Y-24755529D01*
X19867646Y-24781082D01*
X19914464Y-24808113D01*
X19962679Y-24858681D01*
X19975901Y-24927288D01*
X19949933Y-24992153D01*
X19893018Y-25032680D01*
X19852463Y-25039500D01*
X17145329Y-25039500D01*
X17078290Y-25019815D01*
X17033569Y-24969219D01*
X17028552Y-24958782D01*
X17019799Y-24926114D01*
X16978305Y-24854245D01*
X16976280Y-24850032D01*
X16971357Y-24819996D01*
X16964180Y-24790415D01*
X16965760Y-24785848D01*
X16964979Y-24781082D01*
X16977075Y-24753155D01*
X16987031Y-24724388D01*
X16992162Y-24718321D01*
X16992749Y-24716968D01*
X16994040Y-24716101D01*
X17000354Y-24708637D01*
X17046434Y-24662558D01*
X17105744Y-24559831D01*
X17136445Y-24445254D01*
X17136445Y-24326636D01*
X17105744Y-24212059D01*
X17046434Y-24109332D01*
X16962558Y-24025456D01*
X16859831Y-23966146D01*
X16745254Y-23935445D01*
X16626636Y-23935445D01*
X16512059Y-23966146D01*
X16512057Y-23966146D01*
X16512057Y-23966147D01*
X16409332Y-24025456D01*
X16409329Y-24025458D01*
X16325458Y-24109329D01*
X16325456Y-24109332D01*
X16290829Y-24169308D01*
X16266146Y-24212059D01*
X16235445Y-24326636D01*
X16235445Y-24445254D01*
X16266006Y-24559309D01*
X16266147Y-24559834D01*
X16305290Y-24627631D01*
X16321763Y-24695531D01*
X16298911Y-24761558D01*
X16285586Y-24777311D01*
X16239511Y-24823387D01*
X16218091Y-24860488D01*
X16180201Y-24926114D01*
X16149500Y-25040691D01*
X16149500Y-25159309D01*
X16180201Y-25273886D01*
X16239511Y-25376613D01*
X16239513Y-25376615D01*
X16248809Y-25385911D01*
X16282294Y-25447234D01*
X16277310Y-25516926D01*
X16252128Y-25556114D01*
X16252322Y-25556263D01*
X16250542Y-25558582D01*
X16248821Y-25561261D01*
X16247383Y-25562699D01*
X16247375Y-25562709D01*
X16188065Y-25665436D01*
X16157364Y-25780013D01*
X16157364Y-25898631D01*
X16188065Y-26013208D01*
X16247375Y-26115935D01*
X16331251Y-26199811D01*
X16433978Y-26259121D01*
X16548555Y-26289822D01*
X16548558Y-26289822D01*
X16667170Y-26289822D01*
X16667173Y-26289822D01*
X16781750Y-26259121D01*
X16884477Y-26199811D01*
X16968353Y-26115935D01*
X17027663Y-26013208D01*
X17058364Y-25898631D01*
X17058364Y-25780013D01*
X17041370Y-25716591D01*
X17043033Y-25646744D01*
X17082195Y-25588881D01*
X17146423Y-25561377D01*
X17161145Y-25560500D01*
X21104428Y-25560500D01*
X21104429Y-25560500D01*
X21200173Y-25520841D01*
X21974817Y-24746196D01*
X22007236Y-24724537D01*
X22006847Y-24723863D01*
X22016446Y-24718321D01*
X22116613Y-24660489D01*
X22200489Y-24576613D01*
X22259799Y-24473886D01*
X22290500Y-24359309D01*
X22290500Y-24271856D01*
X22310185Y-24204817D01*
X22362989Y-24159062D01*
X22432147Y-24149118D01*
X22435641Y-24149834D01*
X22440689Y-24150499D01*
X22440691Y-24150500D01*
X22440693Y-24150500D01*
X22559306Y-24150500D01*
X22559309Y-24150500D01*
X22673886Y-24119799D01*
X22776613Y-24060489D01*
X22860489Y-23976613D01*
X22919799Y-23873886D01*
X22950500Y-23759309D01*
X22950500Y-23640691D01*
X22919799Y-23526114D01*
X22860489Y-23423387D01*
X22776613Y-23339511D01*
X22673886Y-23280201D01*
X22559309Y-23249500D01*
X22440691Y-23249500D01*
X22326114Y-23280201D01*
X22326112Y-23280201D01*
X22326112Y-23280202D01*
X22223387Y-23339511D01*
X22223384Y-23339513D01*
X22139513Y-23423384D01*
X22139511Y-23423387D01*
X22110355Y-23473887D01*
X22080201Y-23526114D01*
X22049500Y-23640691D01*
X22049500Y-23640693D01*
X22049500Y-23728143D01*
X22029815Y-23795182D01*
X21977011Y-23840937D01*
X21907853Y-23850881D01*
X21904358Y-23850165D01*
X21899310Y-23849500D01*
X21899309Y-23849500D01*
X21780691Y-23849500D01*
X21666114Y-23880201D01*
X21666112Y-23880201D01*
X21666112Y-23880202D01*
X21563387Y-23939511D01*
X21563384Y-23939513D01*
X21479513Y-24023384D01*
X21479511Y-24023387D01*
X21421135Y-24124497D01*
X21420201Y-24126114D01*
X21389500Y-24240691D01*
X21389500Y-24359309D01*
X21417735Y-24464681D01*
X21420717Y-24475810D01*
X21419054Y-24545660D01*
X21388623Y-24595585D01*
X20981029Y-25003181D01*
X20919706Y-25036666D01*
X20893348Y-25039500D01*
X20347537Y-25039500D01*
X20280498Y-25019815D01*
X20234743Y-24967011D01*
X20224799Y-24897853D01*
X20253824Y-24834297D01*
X20285536Y-24808113D01*
X20316189Y-24790415D01*
X20376613Y-24755529D01*
X20460489Y-24671653D01*
X20519799Y-24568926D01*
X20550500Y-24454349D01*
X20550500Y-24335731D01*
X20528139Y-24252279D01*
X20529802Y-24182433D01*
X20568964Y-24124571D01*
X20633192Y-24097066D01*
X20647914Y-24096189D01*
X20716127Y-24096189D01*
X20716128Y-24096189D01*
X20811872Y-24056530D01*
X23488051Y-21380351D01*
X23549374Y-21346866D01*
X23619066Y-21351850D01*
X23674999Y-21393722D01*
X23699416Y-21459186D01*
X23699732Y-21468032D01*
X23699732Y-24496211D01*
X23680047Y-24563250D01*
X23627243Y-24609005D01*
X23575732Y-24620211D01*
X23511402Y-24620211D01*
X23396825Y-24650912D01*
X23396823Y-24650912D01*
X23396823Y-24650913D01*
X23294098Y-24710222D01*
X23294095Y-24710224D01*
X23210224Y-24794095D01*
X23210222Y-24794098D01*
X23171893Y-24860486D01*
X23150912Y-24896825D01*
X23120211Y-25011402D01*
X23120211Y-25130020D01*
X23139467Y-25201884D01*
X23150912Y-25244598D01*
X23153747Y-25251441D01*
X23161213Y-25320911D01*
X23129936Y-25383389D01*
X23126866Y-25386570D01*
X23049392Y-25464045D01*
X23049389Y-25464049D01*
X23005821Y-25539511D01*
X22990079Y-25566776D01*
X22959378Y-25681353D01*
X22959378Y-25799971D01*
X22990079Y-25914548D01*
X23049389Y-26017275D01*
X23133265Y-26101151D01*
X23235992Y-26160461D01*
X23350569Y-26191162D01*
X23350572Y-26191162D01*
X23469184Y-26191162D01*
X23469187Y-26191162D01*
X23583764Y-26160461D01*
X23686491Y-26101151D01*
X23770367Y-26017275D01*
X23798242Y-25968995D01*
X25669499Y-25968995D01*
X25696418Y-26104322D01*
X25696421Y-26104332D01*
X25749221Y-26231804D01*
X25749228Y-26231817D01*
X25825885Y-26346541D01*
X25825888Y-26346545D01*
X25923454Y-26444111D01*
X25923458Y-26444114D01*
X26038182Y-26520771D01*
X26038195Y-26520778D01*
X26165667Y-26573578D01*
X26165672Y-26573580D01*
X26165676Y-26573580D01*
X26165677Y-26573581D01*
X26301004Y-26600500D01*
X26301007Y-26600500D01*
X27538995Y-26600500D01*
X27630041Y-26582389D01*
X27674328Y-26573580D01*
X27801811Y-26520775D01*
X27916542Y-26444114D01*
X28014114Y-26346542D01*
X28090775Y-26231811D01*
X28143580Y-26104328D01*
X28170500Y-25968995D01*
X29999499Y-25968995D01*
X30026418Y-26104322D01*
X30026421Y-26104332D01*
X30079221Y-26231804D01*
X30079228Y-26231817D01*
X30155885Y-26346541D01*
X30155888Y-26346545D01*
X30253454Y-26444111D01*
X30253458Y-26444114D01*
X30368182Y-26520771D01*
X30368195Y-26520778D01*
X30495667Y-26573578D01*
X30495672Y-26573580D01*
X30495676Y-26573580D01*
X30495677Y-26573581D01*
X30631004Y-26600500D01*
X30631007Y-26600500D01*
X31568995Y-26600500D01*
X31660041Y-26582389D01*
X31704328Y-26573580D01*
X31831811Y-26520775D01*
X31946542Y-26444114D01*
X32044114Y-26346542D01*
X32120775Y-26231811D01*
X32173580Y-26104328D01*
X32200500Y-25968993D01*
X32200500Y-25831007D01*
X32200500Y-25831004D01*
X32173581Y-25695677D01*
X32173580Y-25695676D01*
X32173580Y-25695672D01*
X32161055Y-25665434D01*
X32120778Y-25568195D01*
X32120771Y-25568182D01*
X32044114Y-25453458D01*
X32044111Y-25453454D01*
X31946545Y-25355888D01*
X31946541Y-25355885D01*
X31831817Y-25279228D01*
X31831804Y-25279221D01*
X31704332Y-25226421D01*
X31704322Y-25226418D01*
X31568995Y-25199500D01*
X31568993Y-25199500D01*
X30631007Y-25199500D01*
X30631005Y-25199500D01*
X30495677Y-25226418D01*
X30495667Y-25226421D01*
X30368195Y-25279221D01*
X30368182Y-25279228D01*
X30253458Y-25355885D01*
X30253454Y-25355888D01*
X30155888Y-25453454D01*
X30155885Y-25453458D01*
X30079228Y-25568182D01*
X30079221Y-25568195D01*
X30026421Y-25695667D01*
X30026418Y-25695677D01*
X29999500Y-25831004D01*
X29999500Y-25831007D01*
X29999500Y-25968993D01*
X29999500Y-25968995D01*
X29999499Y-25968995D01*
X28170500Y-25968995D01*
X28170500Y-25968993D01*
X28170500Y-25831007D01*
X28170500Y-25831004D01*
X28143581Y-25695677D01*
X28143580Y-25695676D01*
X28143580Y-25695672D01*
X28131055Y-25665434D01*
X28090778Y-25568195D01*
X28090771Y-25568182D01*
X28014114Y-25453458D01*
X28014111Y-25453454D01*
X27916545Y-25355888D01*
X27916541Y-25355885D01*
X27801817Y-25279228D01*
X27801804Y-25279221D01*
X27674332Y-25226421D01*
X27674322Y-25226418D01*
X27595032Y-25210646D01*
X27533121Y-25178261D01*
X27498547Y-25117545D01*
X27502288Y-25047775D01*
X27543154Y-24991103D01*
X27587128Y-24969255D01*
X27622836Y-24959688D01*
X27742665Y-24890505D01*
X27840505Y-24792665D01*
X27909688Y-24672836D01*
X27945500Y-24539183D01*
X27945500Y-24400817D01*
X27909688Y-24267164D01*
X27853191Y-24169308D01*
X27840507Y-24147338D01*
X27840503Y-24147333D01*
X27742666Y-24049496D01*
X27742661Y-24049492D01*
X27622838Y-23980313D01*
X27622837Y-23980312D01*
X27622836Y-23980312D01*
X27489183Y-23944500D01*
X27350817Y-23944500D01*
X27217164Y-23980312D01*
X27217161Y-23980313D01*
X27097338Y-24049492D01*
X27097333Y-24049496D01*
X26999496Y-24147333D01*
X26999492Y-24147338D01*
X26930313Y-24267161D01*
X26930312Y-24267164D01*
X26894500Y-24400817D01*
X26894500Y-24539183D01*
X26926571Y-24658872D01*
X26930312Y-24672835D01*
X26930313Y-24672838D01*
X26999492Y-24792661D01*
X26999494Y-24792664D01*
X26999495Y-24792665D01*
X27097335Y-24890505D01*
X27097336Y-24890506D01*
X27097338Y-24890507D01*
X27110062Y-24897853D01*
X27217164Y-24959688D01*
X27217167Y-24959689D01*
X27220182Y-24960938D01*
X27222337Y-24962675D01*
X27224203Y-24963752D01*
X27224035Y-24964042D01*
X27274587Y-25004778D01*
X27296653Y-25071072D01*
X27279375Y-25138771D01*
X27228239Y-25186383D01*
X27172732Y-25199500D01*
X26301005Y-25199500D01*
X26165677Y-25226418D01*
X26165667Y-25226421D01*
X26038195Y-25279221D01*
X26038182Y-25279228D01*
X25923458Y-25355885D01*
X25923454Y-25355888D01*
X25825888Y-25453454D01*
X25825885Y-25453458D01*
X25749228Y-25568182D01*
X25749221Y-25568195D01*
X25696421Y-25695667D01*
X25696418Y-25695677D01*
X25669500Y-25831004D01*
X25669500Y-25831007D01*
X25669500Y-25968993D01*
X25669500Y-25968995D01*
X25669499Y-25968995D01*
X23798242Y-25968995D01*
X23829677Y-25914548D01*
X23860378Y-25799971D01*
X23860378Y-25778716D01*
X23860558Y-25775377D01*
X23871124Y-25745450D01*
X23880063Y-25715011D01*
X23883284Y-25711013D01*
X23883821Y-25709494D01*
X23885658Y-25708067D01*
X23896697Y-25694369D01*
X24143832Y-25447234D01*
X24502074Y-25088993D01*
X24502074Y-25088991D01*
X24502076Y-25088990D01*
X24534212Y-25011404D01*
X24541732Y-24993249D01*
X24541732Y-24889615D01*
X24541732Y-23858788D01*
X24561417Y-23791749D01*
X24614221Y-23745994D01*
X24683379Y-23736050D01*
X24697818Y-23739012D01*
X24740691Y-23750500D01*
X24740693Y-23750500D01*
X24859306Y-23750500D01*
X24859309Y-23750500D01*
X24973886Y-23719799D01*
X25076613Y-23660489D01*
X25160489Y-23576613D01*
X25219799Y-23473886D01*
X25250500Y-23359309D01*
X25250500Y-23240691D01*
X25250207Y-23239597D01*
X25250229Y-23238641D01*
X25249439Y-23232635D01*
X25250375Y-23232511D01*
X25251865Y-23169753D01*
X25291024Y-23111888D01*
X25307974Y-23100117D01*
X25376613Y-23060489D01*
X25460489Y-22976613D01*
X25519799Y-22873886D01*
X25550500Y-22759309D01*
X25550500Y-22640691D01*
X25519799Y-22526114D01*
X25460489Y-22423387D01*
X25376613Y-22339511D01*
X25273886Y-22280201D01*
X25159309Y-22249500D01*
X25040691Y-22249500D01*
X24926114Y-22280201D01*
X24926112Y-22280201D01*
X24926112Y-22280202D01*
X24823387Y-22339511D01*
X24823384Y-22339513D01*
X24753413Y-22409485D01*
X24692090Y-22442970D01*
X24622398Y-22437986D01*
X24566465Y-22396114D01*
X24542048Y-22330650D01*
X24541732Y-22321804D01*
X24541732Y-18067499D01*
X24541732Y-18067498D01*
X24502073Y-17971754D01*
X24428793Y-17898474D01*
X24391017Y-17860698D01*
X24357532Y-17799375D01*
X24362516Y-17729683D01*
X24404388Y-17673750D01*
X24451935Y-17654386D01*
X24451458Y-17652603D01*
X24459306Y-17650500D01*
X24459309Y-17650500D01*
X24573886Y-17619799D01*
X24676613Y-17560489D01*
X24760489Y-17476613D01*
X24819799Y-17373886D01*
X24831828Y-17328995D01*
X25669499Y-17328995D01*
X25696418Y-17464322D01*
X25696421Y-17464332D01*
X25749221Y-17591804D01*
X25749228Y-17591817D01*
X25825885Y-17706541D01*
X25825888Y-17706545D01*
X25923454Y-17804111D01*
X25923458Y-17804114D01*
X26038182Y-17880771D01*
X26038195Y-17880778D01*
X26147647Y-17926114D01*
X26165672Y-17933580D01*
X26165676Y-17933580D01*
X26165677Y-17933581D01*
X26301004Y-17960500D01*
X27172732Y-17960500D01*
X27239771Y-17980185D01*
X27285526Y-18032989D01*
X27295470Y-18102147D01*
X27266445Y-18165703D01*
X27224168Y-18196187D01*
X27224203Y-18196248D01*
X27223608Y-18196591D01*
X27220182Y-18199062D01*
X27217163Y-18200312D01*
X27097338Y-18269492D01*
X27097333Y-18269496D01*
X26999496Y-18367333D01*
X26999492Y-18367338D01*
X26930313Y-18487161D01*
X26930312Y-18487164D01*
X26894500Y-18620817D01*
X26894500Y-18759183D01*
X26917748Y-18845944D01*
X26930312Y-18892835D01*
X26930313Y-18892838D01*
X26999492Y-19012661D01*
X26999494Y-19012664D01*
X26999495Y-19012665D01*
X27097335Y-19110505D01*
X27217164Y-19179688D01*
X27350817Y-19215500D01*
X27350819Y-19215500D01*
X27489181Y-19215500D01*
X27489183Y-19215500D01*
X27622836Y-19179688D01*
X27742665Y-19110505D01*
X27840505Y-19012665D01*
X27909688Y-18892836D01*
X27945500Y-18759183D01*
X27945500Y-18620817D01*
X27909688Y-18487164D01*
X27859884Y-18400901D01*
X27840507Y-18367338D01*
X27840503Y-18367333D01*
X27742666Y-18269496D01*
X27742661Y-18269492D01*
X27622838Y-18200313D01*
X27622837Y-18200312D01*
X27607017Y-18196073D01*
X27587129Y-18190744D01*
X27527470Y-18154379D01*
X27496941Y-18091532D01*
X27505236Y-18022157D01*
X27549722Y-17968279D01*
X27595033Y-17949353D01*
X27609297Y-17946515D01*
X27674328Y-17933580D01*
X27801811Y-17880775D01*
X27916542Y-17804114D01*
X28014114Y-17706542D01*
X28090775Y-17591811D01*
X28143580Y-17464328D01*
X28162772Y-17367844D01*
X28170500Y-17328995D01*
X29999499Y-17328995D01*
X30026418Y-17464322D01*
X30026421Y-17464332D01*
X30079221Y-17591804D01*
X30079228Y-17591817D01*
X30155885Y-17706541D01*
X30155888Y-17706545D01*
X30253454Y-17804111D01*
X30253458Y-17804114D01*
X30368182Y-17880771D01*
X30368195Y-17880778D01*
X30477647Y-17926114D01*
X30495672Y-17933580D01*
X30495676Y-17933580D01*
X30495677Y-17933581D01*
X30631004Y-17960500D01*
X30631007Y-17960500D01*
X31568995Y-17960500D01*
X31674511Y-17939511D01*
X31704328Y-17933580D01*
X31831811Y-17880775D01*
X31946542Y-17804114D01*
X32044114Y-17706542D01*
X32120775Y-17591811D01*
X32173580Y-17464328D01*
X32192772Y-17367844D01*
X32200500Y-17328995D01*
X32200500Y-17191004D01*
X32173581Y-17055677D01*
X32173580Y-17055676D01*
X32173580Y-17055672D01*
X32140833Y-16976613D01*
X32120778Y-16928195D01*
X32120771Y-16928182D01*
X32044114Y-16813458D01*
X32044111Y-16813454D01*
X31946545Y-16715888D01*
X31946541Y-16715885D01*
X31831817Y-16639228D01*
X31831804Y-16639221D01*
X31704332Y-16586421D01*
X31704322Y-16586418D01*
X31568995Y-16559500D01*
X31568993Y-16559500D01*
X31418587Y-16559500D01*
X31351548Y-16539815D01*
X31305793Y-16487011D01*
X31295849Y-16417853D01*
X31324874Y-16354297D01*
X31366915Y-16323981D01*
X31366847Y-16323863D01*
X31368018Y-16323186D01*
X31371137Y-16320938D01*
X31373883Y-16319800D01*
X31373883Y-16319799D01*
X31373886Y-16319799D01*
X31476613Y-16260489D01*
X31560489Y-16176613D01*
X31619799Y-16073886D01*
X31650500Y-15959309D01*
X31650500Y-15840691D01*
X31619799Y-15726114D01*
X31560489Y-15623387D01*
X31476613Y-15539511D01*
X31373886Y-15480201D01*
X31259309Y-15449500D01*
X31140691Y-15449500D01*
X31026114Y-15480201D01*
X31026112Y-15480201D01*
X31026112Y-15480202D01*
X30923387Y-15539511D01*
X30923384Y-15539513D01*
X30839513Y-15623384D01*
X30839511Y-15623387D01*
X30805250Y-15682729D01*
X30780201Y-15726114D01*
X30749500Y-15840691D01*
X30749500Y-15959309D01*
X30780201Y-16073886D01*
X30839511Y-16176613D01*
X30923387Y-16260489D01*
X31026111Y-16319797D01*
X31026116Y-16319800D01*
X31028863Y-16320938D01*
X31030824Y-16322518D01*
X31033153Y-16323863D01*
X31032943Y-16324226D01*
X31083268Y-16364778D01*
X31105334Y-16431072D01*
X31088056Y-16498771D01*
X31036920Y-16546383D01*
X30981413Y-16559500D01*
X30631005Y-16559500D01*
X30495677Y-16586418D01*
X30495667Y-16586421D01*
X30368195Y-16639221D01*
X30368182Y-16639228D01*
X30253458Y-16715885D01*
X30253454Y-16715888D01*
X30155888Y-16813454D01*
X30155885Y-16813458D01*
X30079228Y-16928182D01*
X30079221Y-16928195D01*
X30026421Y-17055667D01*
X30026418Y-17055677D01*
X29999500Y-17191004D01*
X29999500Y-17191007D01*
X29999500Y-17328993D01*
X29999500Y-17328995D01*
X29999499Y-17328995D01*
X28170500Y-17328995D01*
X28170500Y-17191004D01*
X28143581Y-17055677D01*
X28143580Y-17055676D01*
X28143580Y-17055672D01*
X28110833Y-16976613D01*
X28090778Y-16928195D01*
X28090771Y-16928182D01*
X28014114Y-16813458D01*
X28014111Y-16813454D01*
X27916545Y-16715888D01*
X27916541Y-16715885D01*
X27801817Y-16639228D01*
X27801804Y-16639221D01*
X27674332Y-16586421D01*
X27674322Y-16586418D01*
X27538995Y-16559500D01*
X27538993Y-16559500D01*
X26666964Y-16559500D01*
X26599925Y-16539815D01*
X26554170Y-16487011D01*
X26544226Y-16417853D01*
X26573251Y-16354297D01*
X26579283Y-16347819D01*
X26607305Y-16319797D01*
X26660489Y-16266613D01*
X26719799Y-16163886D01*
X26750500Y-16049309D01*
X26750500Y-15930691D01*
X26719799Y-15816114D01*
X26660489Y-15713387D01*
X26576613Y-15629511D01*
X26473886Y-15570201D01*
X26359309Y-15539500D01*
X26240691Y-15539500D01*
X26126114Y-15570201D01*
X26126112Y-15570201D01*
X26126112Y-15570202D01*
X26023387Y-15629511D01*
X26023384Y-15629513D01*
X25939513Y-15713384D01*
X25939511Y-15713387D01*
X25880201Y-15816114D01*
X25849500Y-15930691D01*
X25849500Y-16049309D01*
X25880201Y-16163886D01*
X25939511Y-16266613D01*
X26023387Y-16350489D01*
X26087959Y-16387770D01*
X26103002Y-16396455D01*
X26151218Y-16447022D01*
X26164440Y-16515629D01*
X26138472Y-16580494D01*
X26088456Y-16618402D01*
X26038197Y-16639220D01*
X26038182Y-16639228D01*
X25923458Y-16715885D01*
X25923454Y-16715888D01*
X25825888Y-16813454D01*
X25825885Y-16813458D01*
X25749228Y-16928182D01*
X25749221Y-16928195D01*
X25696421Y-17055667D01*
X25696418Y-17055677D01*
X25669500Y-17191004D01*
X25669500Y-17191007D01*
X25669500Y-17328993D01*
X25669500Y-17328995D01*
X25669499Y-17328995D01*
X24831828Y-17328995D01*
X24850500Y-17259309D01*
X24850500Y-17140691D01*
X24819799Y-17026114D01*
X24760489Y-16923387D01*
X24676613Y-16839511D01*
X24573886Y-16780201D01*
X24459309Y-16749500D01*
X24340691Y-16749500D01*
X24226114Y-16780201D01*
X24226112Y-16780201D01*
X24226112Y-16780202D01*
X24123387Y-16839511D01*
X24123384Y-16839513D01*
X24039513Y-16923384D01*
X24039511Y-16923387D01*
X24008780Y-16976615D01*
X23980201Y-17026114D01*
X23949500Y-17140691D01*
X23949500Y-17140693D01*
X23947397Y-17148542D01*
X23945286Y-17147976D01*
X23921637Y-17201404D01*
X23863304Y-17239862D01*
X23793439Y-17240678D01*
X23739301Y-17208982D01*
X23471391Y-16941072D01*
X23437906Y-16879749D01*
X23442890Y-16810057D01*
X23471391Y-16765709D01*
X23476608Y-16760491D01*
X23476613Y-16760489D01*
X23560489Y-16676613D01*
X23619799Y-16573886D01*
X23650500Y-16459309D01*
X23650500Y-16340691D01*
X23619799Y-16226114D01*
X23560489Y-16123387D01*
X23476613Y-16039511D01*
X23373886Y-15980201D01*
X23259309Y-15949500D01*
X23259307Y-15949500D01*
X23259296Y-15949497D01*
X23257480Y-15949258D01*
X23256062Y-15948630D01*
X23251458Y-15947397D01*
X23251650Y-15946678D01*
X23193586Y-15920985D01*
X23155121Y-15862657D01*
X23150739Y-15842509D01*
X23150500Y-15840700D01*
X23150500Y-15840691D01*
X23119799Y-15726114D01*
X23060489Y-15623387D01*
X22976613Y-15539511D01*
X22873886Y-15480201D01*
X22759309Y-15449500D01*
X22640691Y-15449500D01*
X22526114Y-15480201D01*
X22526112Y-15480201D01*
X22526112Y-15480202D01*
X22423387Y-15539510D01*
X22334289Y-15628609D01*
X22272965Y-15662093D01*
X22203274Y-15657109D01*
X22158927Y-15628608D01*
X21620477Y-15090158D01*
X21620476Y-15090157D01*
X21524732Y-15050498D01*
X20998508Y-15050498D01*
X20931469Y-15030813D01*
X20885714Y-14978009D01*
X20875770Y-14908851D01*
X20904795Y-14845295D01*
X20910827Y-14838817D01*
X21866712Y-13882932D01*
X26268896Y-13882932D01*
X26268896Y-14001550D01*
X26299597Y-14116127D01*
X26358907Y-14218854D01*
X26442783Y-14302730D01*
X26545510Y-14362040D01*
X26660087Y-14392741D01*
X26660090Y-14392741D01*
X26778702Y-14392741D01*
X26778705Y-14392741D01*
X26893282Y-14362040D01*
X26996009Y-14302730D01*
X27079885Y-14218854D01*
X27095167Y-14192385D01*
X31826493Y-14192385D01*
X31826493Y-14311003D01*
X31857194Y-14425580D01*
X31916504Y-14528307D01*
X32000380Y-14612183D01*
X32103107Y-14671493D01*
X32217684Y-14702194D01*
X32217687Y-14702194D01*
X32336299Y-14702194D01*
X32336302Y-14702194D01*
X32450879Y-14671493D01*
X32553606Y-14612183D01*
X32637482Y-14528307D01*
X32696792Y-14425580D01*
X32727493Y-14311003D01*
X32727493Y-14192385D01*
X32696792Y-14077808D01*
X32637482Y-13975081D01*
X32553606Y-13891205D01*
X32450879Y-13831895D01*
X32336302Y-13801194D01*
X32217684Y-13801194D01*
X32103107Y-13831895D01*
X32103105Y-13831895D01*
X32103105Y-13831896D01*
X32000380Y-13891205D01*
X32000377Y-13891207D01*
X31916506Y-13975078D01*
X31916504Y-13975081D01*
X31861031Y-14071163D01*
X31857194Y-14077808D01*
X31826493Y-14192385D01*
X27095167Y-14192385D01*
X27129679Y-14132607D01*
X27135656Y-14122257D01*
X27135656Y-14122256D01*
X27139195Y-14116127D01*
X27169896Y-14001550D01*
X27169896Y-13882932D01*
X27139195Y-13768355D01*
X27079885Y-13665628D01*
X26996009Y-13581752D01*
X26893282Y-13522442D01*
X26778705Y-13491741D01*
X26660087Y-13491741D01*
X26545510Y-13522442D01*
X26545508Y-13522442D01*
X26545508Y-13522443D01*
X26442783Y-13581752D01*
X26442780Y-13581754D01*
X26358909Y-13665625D01*
X26358907Y-13665628D01*
X26299597Y-13768355D01*
X26268896Y-13882932D01*
X21866712Y-13882932D01*
X21962520Y-13787124D01*
X23308954Y-12440691D01*
X25649500Y-12440691D01*
X25649500Y-12559309D01*
X25680201Y-12673886D01*
X25739511Y-12776613D01*
X25823387Y-12860489D01*
X25926114Y-12919799D01*
X26040691Y-12950500D01*
X26040694Y-12950500D01*
X26159306Y-12950500D01*
X26159309Y-12950500D01*
X26213647Y-12935940D01*
X27843776Y-12935940D01*
X27843776Y-13054558D01*
X27874477Y-13169135D01*
X27933787Y-13271862D01*
X28017663Y-13355738D01*
X28120390Y-13415048D01*
X28234967Y-13445749D01*
X28234970Y-13445749D01*
X28353582Y-13445749D01*
X28353585Y-13445749D01*
X28468162Y-13415048D01*
X28570889Y-13355738D01*
X28654765Y-13271862D01*
X28714075Y-13169135D01*
X28744776Y-13054558D01*
X28744776Y-12935940D01*
X28714075Y-12821363D01*
X28654765Y-12718636D01*
X28570889Y-12634760D01*
X28468162Y-12575450D01*
X28353585Y-12544749D01*
X28234967Y-12544749D01*
X28120390Y-12575450D01*
X28120388Y-12575450D01*
X28120388Y-12575451D01*
X28017663Y-12634760D01*
X28017660Y-12634762D01*
X27933789Y-12718633D01*
X27933787Y-12718636D01*
X27900313Y-12776615D01*
X27874477Y-12821363D01*
X27843776Y-12935940D01*
X26213647Y-12935940D01*
X26273886Y-12919799D01*
X26376613Y-12860489D01*
X26460489Y-12776613D01*
X26519799Y-12673886D01*
X26550500Y-12559309D01*
X26550500Y-12440691D01*
X26519799Y-12326114D01*
X26460489Y-12223387D01*
X26376613Y-12139511D01*
X26273886Y-12080201D01*
X26159309Y-12049500D01*
X26040691Y-12049500D01*
X25926114Y-12080201D01*
X25926112Y-12080201D01*
X25926112Y-12080202D01*
X25823387Y-12139511D01*
X25823384Y-12139513D01*
X25739513Y-12223384D01*
X25739511Y-12223387D01*
X25710355Y-12273887D01*
X25680201Y-12326114D01*
X25649500Y-12440691D01*
X23308954Y-12440691D01*
X23404762Y-12344883D01*
X25008954Y-10740691D01*
X27649500Y-10740691D01*
X27649500Y-10859309D01*
X27680201Y-10973886D01*
X27739511Y-11076613D01*
X27823387Y-11160489D01*
X27926114Y-11219799D01*
X28040691Y-11250500D01*
X28040694Y-11250500D01*
X28159306Y-11250500D01*
X28159309Y-11250500D01*
X28273886Y-11219799D01*
X28376613Y-11160489D01*
X28460489Y-11076613D01*
X28519799Y-10973886D01*
X28550500Y-10859309D01*
X28550500Y-10740691D01*
X28519799Y-10626114D01*
X28460489Y-10523387D01*
X28376613Y-10439511D01*
X28273886Y-10380201D01*
X28159309Y-10349500D01*
X28040691Y-10349500D01*
X27926114Y-10380201D01*
X27926112Y-10380201D01*
X27926112Y-10380202D01*
X27823387Y-10439511D01*
X27823384Y-10439513D01*
X27739513Y-10523384D01*
X27739511Y-10523387D01*
X27680201Y-10626114D01*
X27649500Y-10740691D01*
X25008954Y-10740691D01*
X25104762Y-10644883D01*
X25226261Y-10523384D01*
X25391342Y-10358303D01*
X25431000Y-10262558D01*
X25431000Y-10158925D01*
X25431000Y-10127964D01*
X25437402Y-10106161D01*
X25439242Y-10083511D01*
X25448022Y-10069992D01*
X25450685Y-10060925D01*
X25456455Y-10052699D01*
X25461472Y-10046129D01*
X25530989Y-9976613D01*
X25581855Y-9888510D01*
X25586705Y-9882161D01*
X25608692Y-9866029D01*
X25628431Y-9847210D01*
X25636452Y-9845664D01*
X25643040Y-9840831D01*
X25670262Y-9839148D01*
X25697038Y-9833988D01*
X25704621Y-9837024D01*
X25712776Y-9836520D01*
X25736584Y-9849820D01*
X25761902Y-9859956D01*
X25768632Y-9867723D01*
X25773773Y-9870595D01*
X25778023Y-9878560D01*
X25792635Y-9895423D01*
X25839511Y-9976613D01*
X25923387Y-10060489D01*
X26026114Y-10119799D01*
X26140691Y-10150500D01*
X26140694Y-10150500D01*
X26259306Y-10150500D01*
X26259309Y-10150500D01*
X26373886Y-10119799D01*
X26476613Y-10060489D01*
X26560489Y-9976613D01*
X26619799Y-9873886D01*
X26650500Y-9759309D01*
X26650500Y-9640691D01*
X26619799Y-9526114D01*
X26560489Y-9423387D01*
X26476613Y-9339511D01*
X26373886Y-9280201D01*
X26259309Y-9249500D01*
X26140691Y-9249500D01*
X26026114Y-9280201D01*
X26026112Y-9280201D01*
X26026112Y-9280202D01*
X25923387Y-9339511D01*
X25923384Y-9339513D01*
X25839513Y-9423384D01*
X25839507Y-9423393D01*
X25792636Y-9504574D01*
X25742069Y-9552789D01*
X25673462Y-9566011D01*
X25608597Y-9540043D01*
X25577864Y-9504574D01*
X25540981Y-9440693D01*
X25530989Y-9423387D01*
X25447113Y-9339511D01*
X25344386Y-9280201D01*
X25229809Y-9249500D01*
X25111191Y-9249500D01*
X24996614Y-9280201D01*
X24901938Y-9334862D01*
X24834040Y-9351335D01*
X24768013Y-9328483D01*
X24752258Y-9315156D01*
X24676615Y-9239513D01*
X24676613Y-9239511D01*
X24573886Y-9180201D01*
X24459309Y-9149500D01*
X24340691Y-9149500D01*
X24226114Y-9180201D01*
X24123387Y-9239511D01*
X24123385Y-9239512D01*
X24116349Y-9243575D01*
X24115338Y-9241824D01*
X24060311Y-9263095D01*
X23991867Y-9249053D01*
X23980615Y-9241822D01*
X23976614Y-9239512D01*
X23976613Y-9239511D01*
X23873886Y-9180201D01*
X23759309Y-9149500D01*
X23640691Y-9149500D01*
X23526114Y-9180201D01*
X23526112Y-9180201D01*
X23526112Y-9180202D01*
X23423387Y-9239511D01*
X23423384Y-9239513D01*
X23339513Y-9323384D01*
X23339511Y-9323387D01*
X23280201Y-9426114D01*
X23249500Y-9540691D01*
X23249500Y-9659309D01*
X23280201Y-9773886D01*
X23339511Y-9876613D01*
X23423387Y-9960489D01*
X23526114Y-10019799D01*
X23640691Y-10050500D01*
X23640694Y-10050500D01*
X23759306Y-10050500D01*
X23759309Y-10050500D01*
X23873886Y-10019799D01*
X23976613Y-9960489D01*
X23976614Y-9960487D01*
X23983651Y-9956425D01*
X23984662Y-9958177D01*
X24039671Y-9936906D01*
X24108117Y-9950938D01*
X24119367Y-9958167D01*
X24123384Y-9960486D01*
X24123387Y-9960489D01*
X24226114Y-10019799D01*
X24340691Y-10050500D01*
X24340694Y-10050500D01*
X24459306Y-10050500D01*
X24459309Y-10050500D01*
X24573886Y-10019799D01*
X24573888Y-10019797D01*
X24573890Y-10019797D01*
X24573891Y-10019796D01*
X24630285Y-9987237D01*
X24668559Y-9965138D01*
X24695617Y-9958574D01*
X24721710Y-9948841D01*
X24729104Y-9950449D01*
X24736459Y-9948665D01*
X24762774Y-9957772D01*
X24789984Y-9963691D01*
X24798678Y-9970199D01*
X24802486Y-9971517D01*
X24818239Y-9984841D01*
X24835436Y-10002038D01*
X24868921Y-10063358D01*
X24863939Y-10133050D01*
X24835437Y-10177401D01*
X19429101Y-15583739D01*
X19355822Y-15657017D01*
X19327201Y-15726114D01*
X19316162Y-15752763D01*
X19316162Y-16224845D01*
X19316162Y-16328479D01*
X19355821Y-16424223D01*
X19700159Y-16768561D01*
X19773439Y-16841841D01*
X19869183Y-16881500D01*
X21857149Y-16881500D01*
X21924188Y-16901185D01*
X21944830Y-16917819D01*
X23442413Y-18415402D01*
X23475898Y-18476725D01*
X23478732Y-18503083D01*
X23478732Y-19203522D01*
X23459047Y-19270561D01*
X23406243Y-19316316D01*
X23354732Y-19327522D01*
X23269923Y-19327522D01*
X23155346Y-19358223D01*
X23155344Y-19358223D01*
X23155344Y-19358224D01*
X23052619Y-19417533D01*
X23052616Y-19417535D01*
X22968745Y-19501406D01*
X22968743Y-19501409D01*
X22929877Y-19568727D01*
X22909433Y-19604136D01*
X22878732Y-19718713D01*
X22878732Y-19837331D01*
X22909433Y-19951908D01*
X22923408Y-19976114D01*
X22946450Y-20016022D01*
X22962923Y-20083922D01*
X22946450Y-20140023D01*
X22909434Y-20204135D01*
X22909433Y-20204139D01*
X22878732Y-20318716D01*
X22878732Y-20318718D01*
X22878732Y-20387836D01*
X22859047Y-20454875D01*
X22816733Y-20495223D01*
X22748385Y-20534684D01*
X22748382Y-20534686D01*
X22664511Y-20618557D01*
X22664509Y-20618560D01*
X22639708Y-20661517D01*
X22605199Y-20721287D01*
X22574498Y-20835864D01*
X22574498Y-20835866D01*
X22574498Y-20925907D01*
X22554813Y-20992946D01*
X22538179Y-21013588D01*
X21448588Y-22103181D01*
X21387265Y-22136666D01*
X21360907Y-22139500D01*
X20796964Y-22139500D01*
X20729925Y-22119815D01*
X20684170Y-22067011D01*
X20674226Y-21997853D01*
X20703251Y-21934297D01*
X20709283Y-21927819D01*
X20719502Y-21917600D01*
X20760489Y-21876613D01*
X20819799Y-21773886D01*
X20850500Y-21659309D01*
X20850500Y-21540691D01*
X20819799Y-21426114D01*
X20760489Y-21323387D01*
X20676613Y-21239511D01*
X20573886Y-21180201D01*
X20459309Y-21149500D01*
X20340691Y-21149500D01*
X20226114Y-21180201D01*
X20226112Y-21180201D01*
X20226112Y-21180202D01*
X20123387Y-21239511D01*
X20123384Y-21239513D01*
X20039513Y-21323384D01*
X20039511Y-21323387D01*
X20006623Y-21380351D01*
X19980201Y-21426114D01*
X19949500Y-21540691D01*
X19949500Y-21659309D01*
X19980201Y-21773886D01*
X20039511Y-21876613D01*
X20039513Y-21876615D01*
X20090717Y-21927819D01*
X20124202Y-21989142D01*
X20119218Y-22058834D01*
X20077346Y-22114767D01*
X20011882Y-22139184D01*
X20003036Y-22139500D01*
X19196964Y-22139500D01*
X19129925Y-22119815D01*
X19084170Y-22067011D01*
X19074226Y-21997853D01*
X19103251Y-21934297D01*
X19109283Y-21927819D01*
X19119502Y-21917600D01*
X19160489Y-21876613D01*
X19219799Y-21773886D01*
X19250500Y-21659309D01*
X19250500Y-21540691D01*
X19219799Y-21426114D01*
X19160489Y-21323387D01*
X19076613Y-21239511D01*
X18973886Y-21180201D01*
X18859309Y-21149500D01*
X18740691Y-21149500D01*
X18626114Y-21180201D01*
X18626112Y-21180201D01*
X18626112Y-21180202D01*
X18523387Y-21239511D01*
X18523384Y-21239513D01*
X18439513Y-21323384D01*
X18439511Y-21323387D01*
X18406623Y-21380351D01*
X18380201Y-21426114D01*
X18349500Y-21540691D01*
X18349500Y-21659309D01*
X18380201Y-21773886D01*
X18439511Y-21876613D01*
X18439513Y-21876615D01*
X18490717Y-21927819D01*
X18524202Y-21989142D01*
X18519218Y-22058834D01*
X18477346Y-22114767D01*
X18411882Y-22139184D01*
X18403036Y-22139500D01*
X17696964Y-22139500D01*
X17629925Y-22119815D01*
X17584170Y-22067011D01*
X17574226Y-21997853D01*
X17603251Y-21934297D01*
X17609283Y-21927819D01*
X17619502Y-21917600D01*
X17660489Y-21876613D01*
X17719799Y-21773886D01*
X17750500Y-21659309D01*
X17750500Y-21540691D01*
X17719799Y-21426114D01*
X17660489Y-21323387D01*
X17576613Y-21239511D01*
X17473886Y-21180201D01*
X17359309Y-21149500D01*
X17240691Y-21149500D01*
X17126114Y-21180201D01*
X17126112Y-21180201D01*
X17126112Y-21180202D01*
X17023387Y-21239511D01*
X17023384Y-21239513D01*
X16939513Y-21323384D01*
X16939511Y-21323387D01*
X16906623Y-21380351D01*
X16880201Y-21426114D01*
X16849500Y-21540691D01*
X16849500Y-21659309D01*
X16880201Y-21773886D01*
X16939511Y-21876613D01*
X16939513Y-21876615D01*
X16990717Y-21927819D01*
X17024202Y-21989142D01*
X17019218Y-22058834D01*
X16977346Y-22114767D01*
X16911882Y-22139184D01*
X16903036Y-22139500D01*
X15072484Y-22139500D01*
X15005445Y-22119815D01*
X14959690Y-22067011D01*
X14949746Y-21997853D01*
X14952705Y-21983421D01*
X14975940Y-21896711D01*
X14975940Y-21778093D01*
X14945239Y-21663516D01*
X14885929Y-21560789D01*
X14802053Y-21476913D01*
X14699326Y-21417603D01*
X14699325Y-21417602D01*
X14692287Y-21413539D01*
X14693487Y-21411459D01*
X14648595Y-21375286D01*
X14626528Y-21308992D01*
X14643805Y-21241292D01*
X14684444Y-21201134D01*
X14684220Y-21200842D01*
X14686547Y-21199056D01*
X14688451Y-21197174D01*
X14690669Y-21195894D01*
X14774545Y-21112018D01*
X14833855Y-21009291D01*
X14864556Y-20894714D01*
X14864556Y-20776096D01*
X14833855Y-20661519D01*
X14774545Y-20558792D01*
X14762168Y-20546415D01*
X14728683Y-20485092D01*
X14733667Y-20415400D01*
X14768371Y-20368464D01*
X14767143Y-20367236D01*
X14810493Y-20323886D01*
X14856766Y-20277613D01*
X14916076Y-20174886D01*
X14946777Y-20060309D01*
X14946777Y-20040691D01*
X16849500Y-20040691D01*
X16849500Y-20159309D01*
X16880201Y-20273886D01*
X16939511Y-20376613D01*
X17023387Y-20460489D01*
X17126114Y-20519799D01*
X17240691Y-20550500D01*
X17240694Y-20550500D01*
X17359306Y-20550500D01*
X17359309Y-20550500D01*
X17473886Y-20519799D01*
X17576613Y-20460489D01*
X17660489Y-20376613D01*
X17719799Y-20273886D01*
X17750500Y-20159309D01*
X17750500Y-20090691D01*
X18349500Y-20090691D01*
X18349500Y-20209309D01*
X18380201Y-20323886D01*
X18439511Y-20426613D01*
X18523387Y-20510489D01*
X18626114Y-20569799D01*
X18740691Y-20600500D01*
X18740694Y-20600500D01*
X18859306Y-20600500D01*
X18859309Y-20600500D01*
X18973886Y-20569799D01*
X19076613Y-20510489D01*
X19160489Y-20426613D01*
X19219799Y-20323886D01*
X19250500Y-20209309D01*
X19250500Y-20090691D01*
X19237102Y-20040691D01*
X19949500Y-20040691D01*
X19949500Y-20159309D01*
X19980201Y-20273886D01*
X20039511Y-20376613D01*
X20123387Y-20460489D01*
X20226114Y-20519799D01*
X20340691Y-20550500D01*
X20340694Y-20550500D01*
X20459306Y-20550500D01*
X20459309Y-20550500D01*
X20573886Y-20519799D01*
X20676613Y-20460489D01*
X20760489Y-20376613D01*
X20819799Y-20273886D01*
X20850500Y-20159309D01*
X20850500Y-20040691D01*
X20819799Y-19926114D01*
X20760489Y-19823387D01*
X20676613Y-19739511D01*
X20573886Y-19680201D01*
X20459309Y-19649500D01*
X20340691Y-19649500D01*
X20226114Y-19680201D01*
X20226112Y-19680201D01*
X20226112Y-19680202D01*
X20123387Y-19739511D01*
X20123384Y-19739513D01*
X20039513Y-19823384D01*
X20039511Y-19823387D01*
X19988319Y-19912054D01*
X19980201Y-19926114D01*
X19949500Y-20040691D01*
X19237102Y-20040691D01*
X19219799Y-19976114D01*
X19160489Y-19873387D01*
X19076613Y-19789511D01*
X18973886Y-19730201D01*
X18859309Y-19699500D01*
X18740691Y-19699500D01*
X18626114Y-19730201D01*
X18626112Y-19730201D01*
X18626112Y-19730202D01*
X18523387Y-19789511D01*
X18523384Y-19789513D01*
X18439513Y-19873384D01*
X18439511Y-19873387D01*
X18380201Y-19976114D01*
X18349500Y-20090691D01*
X17750500Y-20090691D01*
X17750500Y-20040691D01*
X17719799Y-19926114D01*
X17660489Y-19823387D01*
X17576613Y-19739511D01*
X17473886Y-19680201D01*
X17359309Y-19649500D01*
X17240691Y-19649500D01*
X17126114Y-19680201D01*
X17126112Y-19680201D01*
X17126112Y-19680202D01*
X17023387Y-19739511D01*
X17023384Y-19739513D01*
X16939513Y-19823384D01*
X16939511Y-19823387D01*
X16888319Y-19912054D01*
X16880201Y-19926114D01*
X16849500Y-20040691D01*
X14946777Y-20040691D01*
X14946777Y-20024974D01*
X14966462Y-19957935D01*
X15010075Y-19920143D01*
X15009205Y-19918841D01*
X15019354Y-19912058D01*
X15019360Y-19912056D01*
X15362687Y-19568729D01*
X15371257Y-19548037D01*
X15371260Y-19548034D01*
X15371259Y-19548034D01*
X15402346Y-19472985D01*
X15402346Y-18987445D01*
X15369938Y-18909207D01*
X15360500Y-18861756D01*
X15360500Y-18448184D01*
X15360500Y-18448183D01*
X15320841Y-18352439D01*
X15247561Y-18279159D01*
X15209093Y-18240691D01*
X16849500Y-18240691D01*
X16849500Y-18359309D01*
X16880201Y-18473886D01*
X16939511Y-18576613D01*
X17023387Y-18660489D01*
X17126114Y-18719799D01*
X17240691Y-18750500D01*
X17240694Y-18750500D01*
X17359306Y-18750500D01*
X17359309Y-18750500D01*
X17473886Y-18719799D01*
X17576613Y-18660489D01*
X17660489Y-18576613D01*
X17719799Y-18473886D01*
X17750500Y-18359309D01*
X17750500Y-18240691D01*
X18349500Y-18240691D01*
X18349500Y-18359309D01*
X18380201Y-18473886D01*
X18439511Y-18576613D01*
X18523387Y-18660489D01*
X18626114Y-18719799D01*
X18740691Y-18750500D01*
X18740694Y-18750500D01*
X18859306Y-18750500D01*
X18859309Y-18750500D01*
X18973886Y-18719799D01*
X19076613Y-18660489D01*
X19160489Y-18576613D01*
X19219799Y-18473886D01*
X19250500Y-18359309D01*
X19250500Y-18240691D01*
X19949500Y-18240691D01*
X19949500Y-18359309D01*
X19980201Y-18473886D01*
X20039511Y-18576613D01*
X20123387Y-18660489D01*
X20226114Y-18719799D01*
X20340691Y-18750500D01*
X20340694Y-18750500D01*
X20459306Y-18750500D01*
X20459309Y-18750500D01*
X20573886Y-18719799D01*
X20676613Y-18660489D01*
X20760489Y-18576613D01*
X20819799Y-18473886D01*
X20850500Y-18359309D01*
X20850500Y-18240691D01*
X20819799Y-18126114D01*
X20760489Y-18023387D01*
X20676613Y-17939511D01*
X20573886Y-17880201D01*
X20459309Y-17849500D01*
X20340691Y-17849500D01*
X20226114Y-17880201D01*
X20226112Y-17880201D01*
X20226112Y-17880202D01*
X20123387Y-17939511D01*
X20123384Y-17939513D01*
X20039513Y-18023384D01*
X20039511Y-18023387D01*
X19985662Y-18116656D01*
X19980201Y-18126114D01*
X19949500Y-18240691D01*
X19250500Y-18240691D01*
X19219799Y-18126114D01*
X19160489Y-18023387D01*
X19076613Y-17939511D01*
X18973886Y-17880201D01*
X18859309Y-17849500D01*
X18740691Y-17849500D01*
X18626114Y-17880201D01*
X18626112Y-17880201D01*
X18626112Y-17880202D01*
X18523387Y-17939511D01*
X18523384Y-17939513D01*
X18439513Y-18023384D01*
X18439511Y-18023387D01*
X18385662Y-18116656D01*
X18380201Y-18126114D01*
X18349500Y-18240691D01*
X17750500Y-18240691D01*
X17719799Y-18126114D01*
X17660489Y-18023387D01*
X17576613Y-17939511D01*
X17473886Y-17880201D01*
X17359309Y-17849500D01*
X17240691Y-17849500D01*
X17126114Y-17880201D01*
X17126112Y-17880201D01*
X17126112Y-17880202D01*
X17023387Y-17939511D01*
X17023384Y-17939513D01*
X16939513Y-18023384D01*
X16939511Y-18023387D01*
X16885662Y-18116656D01*
X16880201Y-18126114D01*
X16849500Y-18240691D01*
X15209093Y-18240691D01*
X14625739Y-17657337D01*
X14592254Y-17596014D01*
X14597238Y-17526322D01*
X14639110Y-17470389D01*
X14681323Y-17449882D01*
X14766144Y-17427155D01*
X14868871Y-17367845D01*
X14952747Y-17283969D01*
X15012057Y-17181242D01*
X15042758Y-17066665D01*
X15042758Y-16948047D01*
X15012057Y-16833470D01*
X14952747Y-16730743D01*
X14905122Y-16683118D01*
X14894112Y-16662955D01*
X14879308Y-16645386D01*
X14877684Y-16632870D01*
X14871637Y-16621795D01*
X14873275Y-16598882D01*
X14870320Y-16576097D01*
X14876066Y-16559858D01*
X14876621Y-16552103D01*
X14880730Y-16542373D01*
X14882882Y-16537825D01*
X14919799Y-16473886D01*
X14928458Y-16441568D01*
X14933256Y-16431436D01*
X14949337Y-16413386D01*
X14961919Y-16392746D01*
X14972161Y-16387770D01*
X14979736Y-16379269D01*
X15003022Y-16372779D01*
X15024766Y-16362217D01*
X15045329Y-16360500D01*
X17476278Y-16360500D01*
X17476279Y-16360500D01*
X17572023Y-16320841D01*
X17732873Y-16159989D01*
X17794194Y-16126506D01*
X17820553Y-16123672D01*
X17911294Y-16123672D01*
X17911297Y-16123672D01*
X18025874Y-16092971D01*
X18042493Y-16083376D01*
X18110393Y-16066901D01*
X18176420Y-16089752D01*
X18211882Y-16128759D01*
X18239511Y-16176613D01*
X18323387Y-16260489D01*
X18426114Y-16319799D01*
X18540691Y-16350500D01*
X18540694Y-16350500D01*
X18659306Y-16350500D01*
X18659309Y-16350500D01*
X18773886Y-16319799D01*
X18876613Y-16260489D01*
X18960489Y-16176613D01*
X19019799Y-16073886D01*
X19050500Y-15959309D01*
X19050500Y-15840691D01*
X19019799Y-15726114D01*
X18960489Y-15623387D01*
X18876613Y-15539511D01*
X18773886Y-15480201D01*
X18659309Y-15449500D01*
X18540691Y-15449500D01*
X18460151Y-15471080D01*
X18426109Y-15480202D01*
X18426108Y-15480203D01*
X18409489Y-15489798D01*
X18341588Y-15506269D01*
X18275562Y-15483416D01*
X18240104Y-15444410D01*
X18238064Y-15440876D01*
X18212477Y-15396559D01*
X18128601Y-15312683D01*
X18025874Y-15253373D01*
X17911297Y-15222672D01*
X17792679Y-15222672D01*
X17792677Y-15222672D01*
X17739092Y-15237030D01*
X17669242Y-15235367D01*
X17619319Y-15204936D01*
X17554081Y-15139698D01*
X17554079Y-15139696D01*
X17494768Y-15105452D01*
X17451351Y-15080385D01*
X17423360Y-15072885D01*
X17363700Y-15036520D01*
X17333172Y-14973673D01*
X17341467Y-14904297D01*
X17385953Y-14850420D01*
X17423356Y-14833338D01*
X17473886Y-14819799D01*
X17576613Y-14760489D01*
X17660489Y-14676613D01*
X17719799Y-14573886D01*
X17750500Y-14459309D01*
X17750500Y-14340691D01*
X17719799Y-14226114D01*
X17660489Y-14123387D01*
X17608265Y-14071163D01*
X17599652Y-14055389D01*
X17586975Y-14042653D01*
X17583256Y-14025362D01*
X17574780Y-14009840D01*
X17576061Y-13991915D01*
X17572283Y-13974346D01*
X17578502Y-13957790D01*
X17579764Y-13940148D01*
X17590534Y-13925760D01*
X17596854Y-13908939D01*
X17615462Y-13892461D01*
X17621636Y-13884215D01*
X17621869Y-13884041D01*
X17630194Y-13877838D01*
X17631560Y-13877473D01*
X17734287Y-13818163D01*
X17804331Y-13748118D01*
X17811561Y-13742733D01*
X17836209Y-13733605D01*
X17859280Y-13721008D01*
X17874707Y-13719349D01*
X17877082Y-13718470D01*
X17878987Y-13718889D01*
X17885638Y-13718174D01*
X18302865Y-13718174D01*
X18302866Y-13718174D01*
X18398610Y-13678515D01*
X18919595Y-13157531D01*
X18944591Y-13097185D01*
X18944592Y-13097184D01*
X18959252Y-13061790D01*
X18959254Y-13061786D01*
X18959254Y-9826717D01*
X18978939Y-9759678D01*
X18995573Y-9739036D01*
X19008497Y-9726112D01*
X19059243Y-9675366D01*
X19118553Y-9572639D01*
X19149254Y-9458062D01*
X19149254Y-9440691D01*
X21449500Y-9440691D01*
X21449500Y-9559309D01*
X21480201Y-9673886D01*
X21539511Y-9776613D01*
X21623387Y-9860489D01*
X21726114Y-9919799D01*
X21840691Y-9950500D01*
X21840694Y-9950500D01*
X21959306Y-9950500D01*
X21959309Y-9950500D01*
X22073886Y-9919799D01*
X22176613Y-9860489D01*
X22260489Y-9776613D01*
X22319799Y-9673886D01*
X22350500Y-9559309D01*
X22350500Y-9440691D01*
X22319799Y-9326114D01*
X22260489Y-9223387D01*
X22176613Y-9139511D01*
X22073886Y-9080201D01*
X21959309Y-9049500D01*
X21840691Y-9049500D01*
X21726114Y-9080201D01*
X21726112Y-9080201D01*
X21726112Y-9080202D01*
X21623387Y-9139511D01*
X21623384Y-9139513D01*
X21539513Y-9223384D01*
X21539511Y-9223387D01*
X21506709Y-9280202D01*
X21480201Y-9326114D01*
X21449500Y-9440691D01*
X19149254Y-9440691D01*
X19149254Y-9339444D01*
X19118553Y-9224867D01*
X19059243Y-9122140D01*
X18975367Y-9038264D01*
X18872640Y-8978954D01*
X18758063Y-8948253D01*
X18639445Y-8948253D01*
X18524868Y-8978954D01*
X18524866Y-8978954D01*
X18524866Y-8978955D01*
X18422141Y-9038264D01*
X18422138Y-9038266D01*
X18338267Y-9122137D01*
X18338265Y-9122140D01*
X18278954Y-9224867D01*
X18278954Y-9224868D01*
X18266025Y-9273119D01*
X18229660Y-9332779D01*
X18166812Y-9363307D01*
X18097437Y-9355012D01*
X18084250Y-9348411D01*
X17984511Y-9290826D01*
X17869934Y-9260125D01*
X17751316Y-9260125D01*
X17636739Y-9290826D01*
X17636737Y-9290826D01*
X17636737Y-9290827D01*
X17534012Y-9350136D01*
X17534009Y-9350138D01*
X17450138Y-9434009D01*
X17450131Y-9434018D01*
X17392202Y-9534353D01*
X17341635Y-9582568D01*
X17273028Y-9595790D01*
X17208163Y-9569822D01*
X17197135Y-9560033D01*
X17176615Y-9539513D01*
X17176613Y-9539511D01*
X17073886Y-9480201D01*
X16959309Y-9449500D01*
X16840691Y-9449500D01*
X16726114Y-9480201D01*
X16726112Y-9480201D01*
X16726112Y-9480202D01*
X16623387Y-9539511D01*
X16623384Y-9539513D01*
X16539513Y-9623384D01*
X16539511Y-9623387D01*
X16510355Y-9673887D01*
X16480201Y-9726114D01*
X16449500Y-9840691D01*
X16449500Y-9959309D01*
X16480201Y-10073886D01*
X16539511Y-10176613D01*
X16623387Y-10260489D01*
X16726114Y-10319799D01*
X16840691Y-10350500D01*
X16840694Y-10350500D01*
X16959306Y-10350500D01*
X16959309Y-10350500D01*
X17073886Y-10319799D01*
X17176613Y-10260489D01*
X17260489Y-10176613D01*
X17318421Y-10076271D01*
X17368988Y-10028056D01*
X17437595Y-10014833D01*
X17502460Y-10040801D01*
X17513489Y-10050591D01*
X17534012Y-10071114D01*
X17636739Y-10130424D01*
X17751316Y-10161125D01*
X17751319Y-10161125D01*
X17869931Y-10161125D01*
X17869934Y-10161125D01*
X17984511Y-10130424D01*
X18087238Y-10071114D01*
X18171114Y-9987238D01*
X18206867Y-9925311D01*
X18257435Y-9877097D01*
X18326042Y-9863875D01*
X18390906Y-9889843D01*
X18431434Y-9946757D01*
X18438254Y-9987313D01*
X18438254Y-11526561D01*
X18418569Y-11593600D01*
X18365765Y-11639355D01*
X18306190Y-11648285D01*
X18306190Y-11649500D01*
X18298085Y-11649500D01*
X18298078Y-11649501D01*
X18298070Y-11649500D01*
X18298063Y-11649500D01*
X18179445Y-11649500D01*
X18064868Y-11680201D01*
X18064866Y-11680201D01*
X18064866Y-11680202D01*
X17962141Y-11739511D01*
X17962138Y-11739513D01*
X17878267Y-11823384D01*
X17878265Y-11823387D01*
X17856845Y-11860488D01*
X17818955Y-11926114D01*
X17788254Y-12040691D01*
X17788254Y-12159309D01*
X17818955Y-12273886D01*
X17878265Y-12376613D01*
X17878267Y-12376615D01*
X17888965Y-12387313D01*
X17922450Y-12448636D01*
X17917466Y-12518328D01*
X17878036Y-12572386D01*
X17871019Y-12577915D01*
X17801772Y-12617896D01*
X17732920Y-12686747D01*
X17727173Y-12691277D01*
X17701271Y-12701677D01*
X17676779Y-12715051D01*
X17664739Y-12716345D01*
X17662335Y-12717311D01*
X17659971Y-12716858D01*
X17650421Y-12717885D01*
X13873432Y-12717885D01*
X13769798Y-12717885D01*
X13769796Y-12717885D01*
X13769794Y-12717886D01*
X13674057Y-12757540D01*
X13674054Y-12757543D01*
X13518413Y-12913182D01*
X13457092Y-12946666D01*
X13430734Y-12949500D01*
X13340691Y-12949500D01*
X13226114Y-12980201D01*
X13226112Y-12980201D01*
X13226112Y-12980202D01*
X13123387Y-13039511D01*
X13123384Y-13039513D01*
X13039513Y-13123384D01*
X13039511Y-13123387D01*
X12994502Y-13201345D01*
X12980201Y-13226114D01*
X12949500Y-13340691D01*
X12949500Y-13459309D01*
X12980201Y-13573886D01*
X13039511Y-13676613D01*
X13123387Y-13760489D01*
X13226114Y-13819799D01*
X13340691Y-13850500D01*
X13340694Y-13850500D01*
X13459306Y-13850500D01*
X13459309Y-13850500D01*
X13573886Y-13819799D01*
X13676613Y-13760489D01*
X13760489Y-13676613D01*
X13819799Y-13573886D01*
X13850500Y-13459309D01*
X13850500Y-13369265D01*
X13859144Y-13339825D01*
X13865672Y-13309830D01*
X13869423Y-13304819D01*
X13870185Y-13302226D01*
X13886826Y-13281577D01*
X13893207Y-13275197D01*
X13954532Y-13241717D01*
X13980881Y-13238885D01*
X14325500Y-13238885D01*
X14392539Y-13258570D01*
X14438294Y-13311374D01*
X14449500Y-13362885D01*
X14449500Y-13447694D01*
X14480201Y-13562271D01*
X14539511Y-13664998D01*
X14623387Y-13748874D01*
X14726114Y-13808184D01*
X14840691Y-13838885D01*
X14840694Y-13838885D01*
X14959306Y-13838885D01*
X14959309Y-13838885D01*
X15073886Y-13808184D01*
X15176613Y-13748874D01*
X15260489Y-13664998D01*
X15319799Y-13562271D01*
X15350500Y-13447694D01*
X15350500Y-13362885D01*
X15370185Y-13295846D01*
X15422989Y-13250091D01*
X15474500Y-13238885D01*
X16888307Y-13238885D01*
X16955346Y-13258570D01*
X17001101Y-13311374D01*
X17011045Y-13380532D01*
X17008084Y-13394967D01*
X17007174Y-13398365D01*
X17007174Y-13516983D01*
X17037875Y-13631560D01*
X17097185Y-13734287D01*
X17097187Y-13734289D01*
X17149408Y-13786510D01*
X17182893Y-13847833D01*
X17177909Y-13917525D01*
X17136037Y-13973458D01*
X17123728Y-13981577D01*
X17023393Y-14039506D01*
X17023384Y-14039513D01*
X16939513Y-14123384D01*
X16939511Y-14123387D01*
X16884393Y-14218854D01*
X16880201Y-14226114D01*
X16849500Y-14340691D01*
X16849500Y-14459309D01*
X16880201Y-14573886D01*
X16939511Y-14676613D01*
X17023387Y-14760489D01*
X17126114Y-14819799D01*
X17154104Y-14827299D01*
X17213763Y-14863662D01*
X17244293Y-14926509D01*
X17235999Y-14995885D01*
X17191514Y-15049763D01*
X17154105Y-15066847D01*
X17103581Y-15080385D01*
X17103580Y-15080385D01*
X17000853Y-15139696D01*
X17000850Y-15139698D01*
X16916979Y-15223569D01*
X16916977Y-15223572D01*
X16857667Y-15326299D01*
X16826966Y-15440876D01*
X16826966Y-15559494D01*
X16857667Y-15674071D01*
X16857668Y-15674072D01*
X16859771Y-15681921D01*
X16856751Y-15682729D01*
X16862639Y-15737524D01*
X16831361Y-15800001D01*
X16771270Y-15835650D01*
X16740611Y-15839500D01*
X15159264Y-15839500D01*
X15092225Y-15819815D01*
X15071583Y-15803181D01*
X14847562Y-15579160D01*
X14847561Y-15579159D01*
X14751817Y-15539500D01*
X11951818Y-15539500D01*
X11848184Y-15539500D01*
X11848182Y-15539500D01*
X11848180Y-15539501D01*
X11752442Y-15579155D01*
X11285731Y-16045866D01*
X11224408Y-16079351D01*
X11154716Y-16074367D01*
X11098783Y-16032495D01*
X11074366Y-15967031D01*
X11075112Y-15941988D01*
X11075677Y-15937695D01*
X11075680Y-15937686D01*
X11075680Y-15819068D01*
X11044979Y-15704491D01*
X10985669Y-15601764D01*
X10901793Y-15517888D01*
X10799066Y-15458578D01*
X10684489Y-15427877D01*
X10565871Y-15427877D01*
X10451294Y-15458578D01*
X10451292Y-15458578D01*
X10451292Y-15458579D01*
X10348567Y-15517888D01*
X10348564Y-15517890D01*
X10264693Y-15601761D01*
X10264691Y-15601764D01*
X10205381Y-15704491D01*
X10174680Y-15819068D01*
X10174680Y-15937686D01*
X10205381Y-16052263D01*
X10264691Y-16154990D01*
X10348567Y-16238866D01*
X10451294Y-16298176D01*
X10565871Y-16328877D01*
X10565874Y-16328877D01*
X10684480Y-16328877D01*
X10684489Y-16328877D01*
X10684497Y-16328874D01*
X10688791Y-16328309D01*
X10692435Y-16328877D01*
X10692616Y-16328877D01*
X10692616Y-16328905D01*
X10757827Y-16339069D01*
X10810088Y-16385444D01*
X10828979Y-16452711D01*
X10808505Y-16519513D01*
X10792669Y-16538928D01*
X10121661Y-17209936D01*
X10060338Y-17243421D01*
X9990646Y-17238437D01*
X9934713Y-17196565D01*
X9910296Y-17131101D01*
X9918270Y-17081890D01*
X9917695Y-17081736D01*
X9919215Y-17076062D01*
X9919420Y-17074799D01*
X9919792Y-17073897D01*
X9919799Y-17073886D01*
X9950500Y-16959309D01*
X9950500Y-16840691D01*
X9919799Y-16726114D01*
X9860489Y-16623387D01*
X9776613Y-16539511D01*
X9673886Y-16480201D01*
X9559309Y-16449500D01*
X9440691Y-16449500D01*
X9326114Y-16480201D01*
X9326112Y-16480201D01*
X9326112Y-16480202D01*
X9223387Y-16539511D01*
X9223384Y-16539513D01*
X9139513Y-16623384D01*
X9139511Y-16623387D01*
X9101473Y-16689271D01*
X9080201Y-16726114D01*
X9049500Y-16840691D01*
X9049500Y-16959309D01*
X9080201Y-17073886D01*
X9139511Y-17176613D01*
X9223387Y-17260489D01*
X9326114Y-17319799D01*
X9440691Y-17350500D01*
X9440694Y-17350500D01*
X9559306Y-17350500D01*
X9559309Y-17350500D01*
X9673886Y-17319799D01*
X9673897Y-17319792D01*
X9674799Y-17319420D01*
X9675632Y-17319330D01*
X9681736Y-17317695D01*
X9681990Y-17318646D01*
X9744268Y-17311950D01*
X9806749Y-17343223D01*
X9842402Y-17403311D01*
X9839910Y-17473136D01*
X9809936Y-17521661D01*
X9341272Y-17990326D01*
X9279949Y-18023811D01*
X9253591Y-18026645D01*
X9163547Y-18026645D01*
X9048970Y-18057346D01*
X9048968Y-18057346D01*
X9048968Y-18057347D01*
X8946243Y-18116656D01*
X8946239Y-18116659D01*
X8926886Y-18136012D01*
X8865563Y-18169496D01*
X8795871Y-18164510D01*
X8751526Y-18136010D01*
X8681174Y-18065658D01*
X8681172Y-18065656D01*
X8578445Y-18006346D01*
X8463868Y-17975645D01*
X8345250Y-17975645D01*
X8230673Y-18006346D01*
X8230671Y-18006346D01*
X8230671Y-18006347D01*
X8127946Y-18065656D01*
X8127943Y-18065658D01*
X8044072Y-18149529D01*
X8044070Y-18149532D01*
X7987041Y-18248309D01*
X7984760Y-18252259D01*
X7954059Y-18366836D01*
X200500Y-18366836D01*
X200500Y-16540691D01*
X3849500Y-16540691D01*
X3849500Y-16659309D01*
X3880201Y-16773886D01*
X3939511Y-16876613D01*
X4023387Y-16960489D01*
X4126114Y-17019799D01*
X4240691Y-17050500D01*
X4240694Y-17050500D01*
X4359306Y-17050500D01*
X4359309Y-17050500D01*
X4473886Y-17019799D01*
X4576613Y-16960489D01*
X4660489Y-16876613D01*
X4719799Y-16773886D01*
X4750500Y-16659309D01*
X4750500Y-16640691D01*
X6349500Y-16640691D01*
X6349500Y-16759309D01*
X6380201Y-16873886D01*
X6439511Y-16976613D01*
X6523387Y-17060489D01*
X6626114Y-17119799D01*
X6740691Y-17150500D01*
X6740694Y-17150500D01*
X6859306Y-17150500D01*
X6859309Y-17150500D01*
X6973886Y-17119799D01*
X7076613Y-17060489D01*
X7160489Y-16976613D01*
X7219799Y-16873886D01*
X7250500Y-16759309D01*
X7250500Y-16640691D01*
X7219799Y-16526114D01*
X7160489Y-16423387D01*
X7076613Y-16339511D01*
X6973886Y-16280201D01*
X6859309Y-16249500D01*
X6740691Y-16249500D01*
X6626114Y-16280201D01*
X6626112Y-16280201D01*
X6626112Y-16280202D01*
X6523387Y-16339511D01*
X6523384Y-16339513D01*
X6439513Y-16423384D01*
X6439511Y-16423387D01*
X6386255Y-16515629D01*
X6380201Y-16526114D01*
X6349500Y-16640691D01*
X4750500Y-16640691D01*
X4750500Y-16540691D01*
X4719799Y-16426114D01*
X4660489Y-16323387D01*
X4576613Y-16239511D01*
X4473886Y-16180201D01*
X4359309Y-16149500D01*
X4240691Y-16149500D01*
X4126114Y-16180201D01*
X4126112Y-16180201D01*
X4126112Y-16180202D01*
X4023387Y-16239511D01*
X4023384Y-16239513D01*
X3939513Y-16323384D01*
X3939511Y-16323387D01*
X3884971Y-16417853D01*
X3880201Y-16426114D01*
X3849500Y-16540691D01*
X200500Y-16540691D01*
X200500Y-13540691D01*
X949500Y-13540691D01*
X949500Y-13659309D01*
X980201Y-13773886D01*
X1039511Y-13876613D01*
X1123387Y-13960489D01*
X1226114Y-14019799D01*
X1340691Y-14050500D01*
X1340694Y-14050500D01*
X1459306Y-14050500D01*
X1459309Y-14050500D01*
X1573886Y-14019799D01*
X1676613Y-13960489D01*
X1760489Y-13876613D01*
X1819799Y-13773886D01*
X1850500Y-13659309D01*
X1850500Y-13640691D01*
X5649500Y-13640691D01*
X5649500Y-13759309D01*
X5680201Y-13873886D01*
X5739511Y-13976613D01*
X5823387Y-14060489D01*
X5926114Y-14119799D01*
X6040691Y-14150500D01*
X6040694Y-14150500D01*
X6159306Y-14150500D01*
X6159309Y-14150500D01*
X6273886Y-14119799D01*
X6376613Y-14060489D01*
X6460489Y-13976613D01*
X6519799Y-13873886D01*
X6550500Y-13759309D01*
X6550500Y-13640691D01*
X6519799Y-13526114D01*
X6460489Y-13423387D01*
X6376613Y-13339511D01*
X6273886Y-13280201D01*
X6159309Y-13249500D01*
X6040691Y-13249500D01*
X5926114Y-13280201D01*
X5926112Y-13280201D01*
X5926112Y-13280202D01*
X5823387Y-13339511D01*
X5823384Y-13339513D01*
X5739513Y-13423384D01*
X5739511Y-13423387D01*
X5685475Y-13516980D01*
X5680201Y-13526114D01*
X5649500Y-13640691D01*
X1850500Y-13640691D01*
X1850500Y-13540691D01*
X1819799Y-13426114D01*
X1760489Y-13323387D01*
X1676613Y-13239511D01*
X1573886Y-13180201D01*
X1459309Y-13149500D01*
X1340691Y-13149500D01*
X1226114Y-13180201D01*
X1226112Y-13180201D01*
X1226112Y-13180202D01*
X1123387Y-13239511D01*
X1123384Y-13239513D01*
X1039513Y-13323384D01*
X1039511Y-13323387D01*
X980201Y-13426114D01*
X949500Y-13540691D01*
X200500Y-13540691D01*
X200500Y-12865421D01*
X11324770Y-12865421D01*
X11324770Y-12984039D01*
X11355471Y-13098616D01*
X11414781Y-13201343D01*
X11498657Y-13285219D01*
X11601384Y-13344529D01*
X11715961Y-13375230D01*
X11715964Y-13375230D01*
X11834576Y-13375230D01*
X11834579Y-13375230D01*
X11949156Y-13344529D01*
X12051883Y-13285219D01*
X12135759Y-13201343D01*
X12195069Y-13098616D01*
X12225770Y-12984039D01*
X12225770Y-12865421D01*
X12195069Y-12750844D01*
X12135759Y-12648117D01*
X12051883Y-12564241D01*
X11949156Y-12504931D01*
X11834579Y-12474230D01*
X11715961Y-12474230D01*
X11601384Y-12504931D01*
X11601382Y-12504931D01*
X11601382Y-12504932D01*
X11498657Y-12564241D01*
X11498654Y-12564243D01*
X11414783Y-12648114D01*
X11414781Y-12648117D01*
X11355471Y-12750844D01*
X11324770Y-12865421D01*
X200500Y-12865421D01*
X200500Y-11340691D01*
X9149500Y-11340691D01*
X9149500Y-11459309D01*
X9180201Y-11573886D01*
X9239511Y-11676613D01*
X9323387Y-11760489D01*
X9426114Y-11819799D01*
X9540691Y-11850500D01*
X9540694Y-11850500D01*
X9659306Y-11850500D01*
X9659309Y-11850500D01*
X9773886Y-11819799D01*
X9876613Y-11760489D01*
X9960489Y-11676613D01*
X10019799Y-11573886D01*
X10050500Y-11459309D01*
X10050500Y-11440691D01*
X11149500Y-11440691D01*
X11149500Y-11559309D01*
X11180201Y-11673886D01*
X11239511Y-11776613D01*
X11323387Y-11860489D01*
X11426114Y-11919799D01*
X11540691Y-11950500D01*
X11540694Y-11950500D01*
X11659306Y-11950500D01*
X11659309Y-11950500D01*
X11773886Y-11919799D01*
X11876613Y-11860489D01*
X11960489Y-11776613D01*
X12019799Y-11673886D01*
X12050500Y-11559309D01*
X12050500Y-11440691D01*
X12019799Y-11326114D01*
X11960489Y-11223387D01*
X11876613Y-11139511D01*
X11773886Y-11080201D01*
X11659309Y-11049500D01*
X11540691Y-11049500D01*
X11426114Y-11080201D01*
X11426112Y-11080201D01*
X11426112Y-11080202D01*
X11323387Y-11139511D01*
X11323384Y-11139513D01*
X11239513Y-11223384D01*
X11239511Y-11223387D01*
X11180201Y-11326114D01*
X11149500Y-11440691D01*
X10050500Y-11440691D01*
X10050500Y-11340691D01*
X10019799Y-11226114D01*
X9960489Y-11123387D01*
X9876613Y-11039511D01*
X9773886Y-10980201D01*
X9659309Y-10949500D01*
X9540691Y-10949500D01*
X9426114Y-10980201D01*
X9426112Y-10980201D01*
X9426112Y-10980202D01*
X9323387Y-11039511D01*
X9323384Y-11039513D01*
X9239513Y-11123384D01*
X9239511Y-11123387D01*
X9218091Y-11160488D01*
X9180201Y-11226114D01*
X9149500Y-11340691D01*
X200500Y-11340691D01*
X200500Y-7240691D01*
X3649500Y-7240691D01*
X3649500Y-7359309D01*
X3680201Y-7473886D01*
X3739511Y-7576613D01*
X3823387Y-7660489D01*
X3926114Y-7719799D01*
X4040691Y-7750500D01*
X4040694Y-7750500D01*
X4159306Y-7750500D01*
X4159309Y-7750500D01*
X4273886Y-7719799D01*
X4326462Y-7689444D01*
X19898254Y-7689444D01*
X19898254Y-7808062D01*
X19928955Y-7922639D01*
X19988265Y-8025366D01*
X20072141Y-8109242D01*
X20174868Y-8168552D01*
X20289445Y-8199253D01*
X20289448Y-8199253D01*
X20408060Y-8199253D01*
X20408063Y-8199253D01*
X20522640Y-8168552D01*
X20625367Y-8109242D01*
X20709243Y-8025366D01*
X20768553Y-7922639D01*
X20799254Y-7808062D01*
X20799254Y-7689444D01*
X20768553Y-7574867D01*
X20709243Y-7472140D01*
X20625367Y-7388264D01*
X20522640Y-7328954D01*
X20408063Y-7298253D01*
X20289445Y-7298253D01*
X20174868Y-7328954D01*
X20174866Y-7328954D01*
X20174866Y-7328955D01*
X20072141Y-7388264D01*
X20072138Y-7388266D01*
X19988267Y-7472137D01*
X19988265Y-7472140D01*
X19928955Y-7574867D01*
X19898254Y-7689444D01*
X4326462Y-7689444D01*
X4376613Y-7660489D01*
X4460489Y-7576613D01*
X4519799Y-7473886D01*
X4550500Y-7359309D01*
X4550500Y-7240691D01*
X4523705Y-7140691D01*
X21749500Y-7140691D01*
X21749500Y-7259309D01*
X21780201Y-7373886D01*
X21839511Y-7476613D01*
X21923387Y-7560489D01*
X22026114Y-7619799D01*
X22140691Y-7650500D01*
X22140694Y-7650500D01*
X22259306Y-7650500D01*
X22259309Y-7650500D01*
X22373886Y-7619799D01*
X22476613Y-7560489D01*
X22560489Y-7476613D01*
X22619799Y-7373886D01*
X22633349Y-7323315D01*
X22669712Y-7263657D01*
X22732559Y-7233127D01*
X22785213Y-7235634D01*
X22840691Y-7250500D01*
X22840694Y-7250500D01*
X22959306Y-7250500D01*
X22959309Y-7250500D01*
X23073886Y-7219799D01*
X23176613Y-7160489D01*
X23260489Y-7076613D01*
X23319799Y-6973886D01*
X23350500Y-6859309D01*
X23350500Y-6740691D01*
X23319799Y-6626114D01*
X23260489Y-6523387D01*
X23176613Y-6439511D01*
X23073886Y-6380201D01*
X22959309Y-6349500D01*
X22840691Y-6349500D01*
X22726114Y-6380201D01*
X22726112Y-6380201D01*
X22726112Y-6380202D01*
X22623387Y-6439511D01*
X22623384Y-6439513D01*
X22539513Y-6523384D01*
X22539511Y-6523387D01*
X22480200Y-6626114D01*
X22480200Y-6626115D01*
X22466650Y-6676684D01*
X22430285Y-6736344D01*
X22367438Y-6766872D01*
X22314784Y-6764364D01*
X22259310Y-6749500D01*
X22259309Y-6749500D01*
X22140691Y-6749500D01*
X22026114Y-6780201D01*
X22026112Y-6780201D01*
X22026112Y-6780202D01*
X21923387Y-6839511D01*
X21923384Y-6839513D01*
X21839513Y-6923384D01*
X21839511Y-6923387D01*
X21810355Y-6973887D01*
X21780201Y-7026114D01*
X21749500Y-7140691D01*
X4523705Y-7140691D01*
X4519799Y-7126114D01*
X4460489Y-7023387D01*
X4376613Y-6939511D01*
X4273886Y-6880201D01*
X4159309Y-6849500D01*
X4040691Y-6849500D01*
X3926114Y-6880201D01*
X3926112Y-6880201D01*
X3926112Y-6880202D01*
X3823387Y-6939511D01*
X3823384Y-6939513D01*
X3739513Y-7023384D01*
X3739511Y-7023387D01*
X3708780Y-7076615D01*
X3680201Y-7126114D01*
X3649500Y-7240691D01*
X200500Y-7240691D01*
X200500Y-5540691D01*
X8149500Y-5540691D01*
X8149500Y-5659309D01*
X8180201Y-5773886D01*
X8239511Y-5876613D01*
X8323387Y-5960489D01*
X8426114Y-6019799D01*
X8540691Y-6050500D01*
X8540694Y-6050500D01*
X8659306Y-6050500D01*
X8659309Y-6050500D01*
X8773886Y-6019799D01*
X8876613Y-5960489D01*
X8960489Y-5876613D01*
X9019799Y-5773886D01*
X9050500Y-5659309D01*
X9050500Y-5640691D01*
X10349500Y-5640691D01*
X10349500Y-5759309D01*
X10380201Y-5873886D01*
X10439511Y-5976613D01*
X10523387Y-6060489D01*
X10626114Y-6119799D01*
X10740691Y-6150500D01*
X10740694Y-6150500D01*
X10859306Y-6150500D01*
X10859309Y-6150500D01*
X10973886Y-6119799D01*
X11076613Y-6060489D01*
X11160489Y-5976613D01*
X11219799Y-5873886D01*
X11250500Y-5759309D01*
X11250500Y-5740691D01*
X18749500Y-5740691D01*
X18749500Y-5859309D01*
X18780201Y-5973886D01*
X18839511Y-6076613D01*
X18923387Y-6160489D01*
X19026114Y-6219799D01*
X19140691Y-6250500D01*
X19140694Y-6250500D01*
X19259306Y-6250500D01*
X19259309Y-6250500D01*
X19373886Y-6219799D01*
X19476613Y-6160489D01*
X19560489Y-6076613D01*
X19619799Y-5973886D01*
X19650500Y-5859309D01*
X19650500Y-5840691D01*
X28349500Y-5840691D01*
X28349500Y-5959309D01*
X28380201Y-6073886D01*
X28439511Y-6176613D01*
X28523387Y-6260489D01*
X28626114Y-6319799D01*
X28740691Y-6350500D01*
X28740694Y-6350500D01*
X28859306Y-6350500D01*
X28859309Y-6350500D01*
X28973886Y-6319799D01*
X29076613Y-6260489D01*
X29160489Y-6176613D01*
X29219799Y-6073886D01*
X29250500Y-5959309D01*
X29250500Y-5940691D01*
X29759500Y-5940691D01*
X29759500Y-6059309D01*
X29790201Y-6173886D01*
X29849511Y-6276613D01*
X29933387Y-6360489D01*
X30036114Y-6419799D01*
X30150691Y-6450500D01*
X30150694Y-6450500D01*
X30269306Y-6450500D01*
X30269309Y-6450500D01*
X30383886Y-6419799D01*
X30486613Y-6360489D01*
X30570489Y-6276613D01*
X30629799Y-6173886D01*
X30660500Y-6059309D01*
X30660500Y-5940691D01*
X30629799Y-5826114D01*
X30570489Y-5723387D01*
X30486613Y-5639511D01*
X30383886Y-5580201D01*
X30269309Y-5549500D01*
X30150691Y-5549500D01*
X30036114Y-5580201D01*
X30036112Y-5580201D01*
X30036112Y-5580202D01*
X29933387Y-5639511D01*
X29933384Y-5639513D01*
X29849513Y-5723384D01*
X29849511Y-5723387D01*
X29820355Y-5773887D01*
X29790201Y-5826114D01*
X29759500Y-5940691D01*
X29250500Y-5940691D01*
X29250500Y-5840691D01*
X29219799Y-5726114D01*
X29160489Y-5623387D01*
X29076613Y-5539511D01*
X28973886Y-5480201D01*
X28859309Y-5449500D01*
X28740691Y-5449500D01*
X28626114Y-5480201D01*
X28626112Y-5480201D01*
X28626112Y-5480202D01*
X28523387Y-5539511D01*
X28523384Y-5539513D01*
X28439513Y-5623384D01*
X28439511Y-5623387D01*
X28380201Y-5726114D01*
X28349500Y-5840691D01*
X19650500Y-5840691D01*
X19650500Y-5740691D01*
X19619799Y-5626114D01*
X19560489Y-5523387D01*
X19476613Y-5439511D01*
X19373886Y-5380201D01*
X19259309Y-5349500D01*
X19140691Y-5349500D01*
X19026114Y-5380201D01*
X19026112Y-5380201D01*
X19026112Y-5380202D01*
X18923387Y-5439511D01*
X18923384Y-5439513D01*
X18839513Y-5523384D01*
X18839511Y-5523387D01*
X18806709Y-5580202D01*
X18780201Y-5626114D01*
X18749500Y-5740691D01*
X11250500Y-5740691D01*
X11250500Y-5640691D01*
X11219799Y-5526114D01*
X11160489Y-5423387D01*
X11076613Y-5339511D01*
X10973886Y-5280201D01*
X10859309Y-5249500D01*
X10740691Y-5249500D01*
X10626114Y-5280201D01*
X10626112Y-5280201D01*
X10626112Y-5280202D01*
X10523387Y-5339511D01*
X10523384Y-5339513D01*
X10439513Y-5423384D01*
X10439511Y-5423387D01*
X10406709Y-5480202D01*
X10380201Y-5526114D01*
X10349500Y-5640691D01*
X9050500Y-5640691D01*
X9050500Y-5540691D01*
X9019799Y-5426114D01*
X8960489Y-5323387D01*
X8876613Y-5239511D01*
X8773886Y-5180201D01*
X8659309Y-5149500D01*
X8540691Y-5149500D01*
X8426114Y-5180201D01*
X8426112Y-5180201D01*
X8426112Y-5180202D01*
X8323387Y-5239511D01*
X8323384Y-5239513D01*
X8239513Y-5323384D01*
X8239511Y-5323387D01*
X8206709Y-5380202D01*
X8180201Y-5426114D01*
X8149500Y-5540691D01*
X200500Y-5540691D01*
X200500Y-4640691D01*
X23449500Y-4640691D01*
X23449500Y-4759309D01*
X23480201Y-4873886D01*
X23539511Y-4976613D01*
X23623387Y-5060489D01*
X23726114Y-5119799D01*
X23840691Y-5150500D01*
X23840694Y-5150500D01*
X23959306Y-5150500D01*
X23959309Y-5150500D01*
X24073886Y-5119799D01*
X24176613Y-5060489D01*
X24260489Y-4976613D01*
X24292613Y-4920972D01*
X24343180Y-4872757D01*
X24411787Y-4859535D01*
X24476652Y-4885503D01*
X24507386Y-4920972D01*
X24539511Y-4976613D01*
X24623387Y-5060489D01*
X24726114Y-5119799D01*
X24840691Y-5150500D01*
X24840694Y-5150500D01*
X24959306Y-5150500D01*
X24959309Y-5150500D01*
X25073886Y-5119799D01*
X25176613Y-5060489D01*
X25260489Y-4976613D01*
X25292613Y-4920972D01*
X25343180Y-4872757D01*
X25411787Y-4859535D01*
X25476652Y-4885503D01*
X25507386Y-4920972D01*
X25539511Y-4976613D01*
X25623387Y-5060489D01*
X25726114Y-5119799D01*
X25840691Y-5150500D01*
X25840694Y-5150500D01*
X25959306Y-5150500D01*
X25959309Y-5150500D01*
X26073886Y-5119799D01*
X26176613Y-5060489D01*
X26260489Y-4976613D01*
X26292613Y-4920972D01*
X26343180Y-4872757D01*
X26411787Y-4859535D01*
X26476652Y-4885503D01*
X26507386Y-4920972D01*
X26539511Y-4976613D01*
X26623387Y-5060489D01*
X26726114Y-5119799D01*
X26840691Y-5150500D01*
X26840694Y-5150500D01*
X26959306Y-5150500D01*
X26959309Y-5150500D01*
X27073886Y-5119799D01*
X27176613Y-5060489D01*
X27260489Y-4976613D01*
X27319799Y-4873886D01*
X27350500Y-4759309D01*
X27350500Y-4640691D01*
X27319799Y-4526114D01*
X27260489Y-4423387D01*
X27176613Y-4339511D01*
X27073886Y-4280201D01*
X26959309Y-4249500D01*
X26840691Y-4249500D01*
X26726114Y-4280201D01*
X26726112Y-4280201D01*
X26726112Y-4280202D01*
X26623387Y-4339511D01*
X26623384Y-4339513D01*
X26539513Y-4423384D01*
X26539511Y-4423387D01*
X26507387Y-4479027D01*
X26456819Y-4527242D01*
X26388212Y-4540464D01*
X26323347Y-4514496D01*
X26292613Y-4479027D01*
X26260489Y-4423387D01*
X26176613Y-4339511D01*
X26073886Y-4280201D01*
X25959309Y-4249500D01*
X25840691Y-4249500D01*
X25726114Y-4280201D01*
X25726112Y-4280201D01*
X25726112Y-4280202D01*
X25623387Y-4339511D01*
X25623384Y-4339513D01*
X25539513Y-4423384D01*
X25539511Y-4423387D01*
X25507387Y-4479027D01*
X25456819Y-4527242D01*
X25388212Y-4540464D01*
X25323347Y-4514496D01*
X25292613Y-4479027D01*
X25260489Y-4423387D01*
X25176613Y-4339511D01*
X25073886Y-4280201D01*
X24959309Y-4249500D01*
X24840691Y-4249500D01*
X24726114Y-4280201D01*
X24726112Y-4280201D01*
X24726112Y-4280202D01*
X24623387Y-4339511D01*
X24623384Y-4339513D01*
X24539513Y-4423384D01*
X24539511Y-4423387D01*
X24507387Y-4479027D01*
X24456819Y-4527242D01*
X24388212Y-4540464D01*
X24323347Y-4514496D01*
X24292613Y-4479027D01*
X24260489Y-4423387D01*
X24176613Y-4339511D01*
X24073886Y-4280201D01*
X23959309Y-4249500D01*
X23840691Y-4249500D01*
X23726114Y-4280201D01*
X23726112Y-4280201D01*
X23726112Y-4280202D01*
X23623387Y-4339511D01*
X23623384Y-4339513D01*
X23539513Y-4423384D01*
X23539511Y-4423387D01*
X23480201Y-4526114D01*
X23449500Y-4640691D01*
X200500Y-4640691D01*
X200500Y-2971453D01*
X220185Y-2904414D01*
X272989Y-2858659D01*
X342147Y-2848715D01*
X405703Y-2877740D01*
X422871Y-2895961D01*
X431081Y-2906661D01*
X431086Y-2906666D01*
X431089Y-2906670D01*
X593330Y-3068911D01*
X593338Y-3068918D01*
X775382Y-3208607D01*
X775385Y-3208608D01*
X775388Y-3208611D01*
X974112Y-3323344D01*
X974117Y-3323346D01*
X974123Y-3323349D01*
X1063780Y-3360486D01*
X1186113Y-3411158D01*
X1407762Y-3470548D01*
X1635266Y-3500500D01*
X1635273Y-3500500D01*
X1864727Y-3500500D01*
X1864734Y-3500500D01*
X2092238Y-3470548D01*
X2203667Y-3440691D01*
X8349500Y-3440691D01*
X8349500Y-3559309D01*
X8380201Y-3673886D01*
X8439511Y-3776613D01*
X8523387Y-3860489D01*
X8626114Y-3919799D01*
X8740691Y-3950500D01*
X8740694Y-3950500D01*
X8859306Y-3950500D01*
X8859309Y-3950500D01*
X8973886Y-3919799D01*
X9076613Y-3860489D01*
X9160489Y-3776613D01*
X9219799Y-3673886D01*
X9250500Y-3559309D01*
X9250500Y-3440691D01*
X9247797Y-3430605D01*
X10139414Y-3430605D01*
X10139414Y-3549223D01*
X10170115Y-3663800D01*
X10229425Y-3766527D01*
X10313301Y-3850403D01*
X10416028Y-3909713D01*
X10530605Y-3940414D01*
X10530608Y-3940414D01*
X10649220Y-3940414D01*
X10649223Y-3940414D01*
X10763800Y-3909713D01*
X10866527Y-3850403D01*
X10950403Y-3766527D01*
X11009713Y-3663800D01*
X11040414Y-3549223D01*
X11040414Y-3430605D01*
X11009713Y-3316028D01*
X10950403Y-3213301D01*
X10866527Y-3129425D01*
X10763800Y-3070115D01*
X10649223Y-3039414D01*
X10530605Y-3039414D01*
X10416028Y-3070115D01*
X10416026Y-3070115D01*
X10416026Y-3070116D01*
X10313301Y-3129425D01*
X10313298Y-3129427D01*
X10229427Y-3213298D01*
X10229425Y-3213301D01*
X10170115Y-3316028D01*
X10139414Y-3430605D01*
X9247797Y-3430605D01*
X9219799Y-3326114D01*
X9160489Y-3223387D01*
X9076613Y-3139511D01*
X8973886Y-3080201D01*
X8859309Y-3049500D01*
X8740691Y-3049500D01*
X8626114Y-3080201D01*
X8626112Y-3080201D01*
X8626112Y-3080202D01*
X8523387Y-3139511D01*
X8523384Y-3139513D01*
X8439513Y-3223384D01*
X8439511Y-3223387D01*
X8408780Y-3276615D01*
X8380201Y-3326114D01*
X8349500Y-3440691D01*
X2203667Y-3440691D01*
X2313887Y-3411158D01*
X2525888Y-3323344D01*
X2724612Y-3208611D01*
X2906661Y-3068919D01*
X2906665Y-3068914D01*
X2906670Y-3068911D01*
X3034890Y-2940691D01*
X11949500Y-2940691D01*
X11949500Y-3059309D01*
X11980201Y-3173886D01*
X12039511Y-3276613D01*
X12123387Y-3360489D01*
X12226114Y-3419799D01*
X12340691Y-3450500D01*
X12340694Y-3450500D01*
X12459306Y-3450500D01*
X12459309Y-3450500D01*
X12573886Y-3419799D01*
X12676613Y-3360489D01*
X12760489Y-3276613D01*
X12819799Y-3173886D01*
X12850500Y-3059309D01*
X12850500Y-2940691D01*
X12819799Y-2826114D01*
X12760489Y-2723387D01*
X12676613Y-2639511D01*
X12573886Y-2580201D01*
X12459309Y-2549500D01*
X12340691Y-2549500D01*
X12226114Y-2580201D01*
X12226112Y-2580201D01*
X12226112Y-2580202D01*
X12123387Y-2639511D01*
X12123384Y-2639513D01*
X12039513Y-2723384D01*
X12039511Y-2723387D01*
X11980201Y-2826114D01*
X11949500Y-2940691D01*
X3034890Y-2940691D01*
X3068911Y-2906670D01*
X3068914Y-2906665D01*
X3068919Y-2906661D01*
X3208611Y-2724612D01*
X3323344Y-2525888D01*
X3354492Y-2450691D01*
X14249500Y-2450691D01*
X14249500Y-2569309D01*
X14280201Y-2683886D01*
X14339511Y-2786613D01*
X14423387Y-2870489D01*
X14526114Y-2929799D01*
X14640691Y-2960500D01*
X14640694Y-2960500D01*
X14759306Y-2960500D01*
X14759309Y-2960500D01*
X14873886Y-2929799D01*
X14976613Y-2870489D01*
X15060489Y-2786613D01*
X15119799Y-2683886D01*
X15150500Y-2569309D01*
X15150500Y-2450691D01*
X15119799Y-2336114D01*
X15060489Y-2233387D01*
X14976613Y-2149511D01*
X14873886Y-2090201D01*
X14759309Y-2059500D01*
X14640691Y-2059500D01*
X14526114Y-2090201D01*
X14526112Y-2090201D01*
X14526112Y-2090202D01*
X14423387Y-2149511D01*
X14423384Y-2149513D01*
X14339513Y-2233384D01*
X14339511Y-2233387D01*
X14280201Y-2336114D01*
X14249500Y-2450691D01*
X3354492Y-2450691D01*
X3411158Y-2313887D01*
X3470548Y-2092238D01*
X3500500Y-1864734D01*
X3500500Y-1635266D01*
X3470548Y-1407762D01*
X3452577Y-1340691D01*
X8649500Y-1340691D01*
X8649500Y-1459309D01*
X8680201Y-1573886D01*
X8739511Y-1676613D01*
X8823387Y-1760489D01*
X8926114Y-1819799D01*
X9040691Y-1850500D01*
X9040694Y-1850500D01*
X9159306Y-1850500D01*
X9159309Y-1850500D01*
X9273886Y-1819799D01*
X9376613Y-1760489D01*
X9460489Y-1676613D01*
X9519799Y-1573886D01*
X9550500Y-1459309D01*
X9550500Y-1340691D01*
X9519799Y-1226114D01*
X9460489Y-1123387D01*
X9376613Y-1039511D01*
X9273886Y-980201D01*
X9159309Y-949500D01*
X9040691Y-949500D01*
X8926114Y-980201D01*
X8926112Y-980201D01*
X8926112Y-980202D01*
X8823387Y-1039511D01*
X8823384Y-1039513D01*
X8739513Y-1123384D01*
X8739511Y-1123387D01*
X8680201Y-1226114D01*
X8649500Y-1340691D01*
X3452577Y-1340691D01*
X3411158Y-1186113D01*
X3325867Y-980202D01*
X3323349Y-974123D01*
X3323346Y-974117D01*
X3323344Y-974112D01*
X3208611Y-775388D01*
X3208608Y-775385D01*
X3208607Y-775382D01*
X3068918Y-593338D01*
X3068911Y-593330D01*
X2906670Y-431089D01*
X2906664Y-431084D01*
X2906661Y-431081D01*
X2901962Y-427475D01*
X2895966Y-422874D01*
X2854764Y-366446D01*
X2850611Y-296700D01*
X2884824Y-235780D01*
X2946542Y-203028D01*
X2971454Y-200500D01*
X31028546Y-200500D01*
X31095585Y-220185D01*
G37*
%TD.AperFunction*%
%TD*%
M02*
