M48
; DRILL file {KiCad 9.0.8-9.0.8~ubuntu24.04.1} date 2026-04-12T15:29:52+0200
; FORMAT={-:-/ absolute / metric / decimal}
; #@! TF.CreationDate,2026-04-12T15:29:52+02:00
; #@! TF.GenerationSoftware,Kicad,Pcbnew,9.0.8-9.0.8~ubuntu24.04.1
; #@! TF.FileFunction,Plated,1,4,PTH
FMAT,2
METRIC
; #@! TA.AperFunction,Plated,PTH,ViaDrill
T1C0.300
; #@! TA.AperFunction,Plated,PTH,ComponentDrill
T2C0.600
%
G90
G05
T1
X-0.9Y-8.2
X-0.6Y-27.8
X-0.5Y-22.7
X-0.35Y-19.5
X-0.3Y-14.1
X0.6Y-25.8
X0.9Y-12.3
X1.2Y-15.8
X1.4Y-10.6
X2.1Y-29.2
X2.2Y-7.8
X2.7Y-16.2
X2.725Y-24.5
X2.75Y-22.075
X2.8Y-19.5
X3.0Y-17.1
X3.1Y-10.2
X3.3Y-14.6
X3.8Y-18.2
X4.4Y-13.9
X4.42Y-15.23
X4.9Y-12.6
X5.2Y-6.0
X5.3Y-18.1
X5.3Y-20.7
X5.6Y-14.6
X5.8Y-31.1
X5.8Y-34.5
X6.2Y-20.7
X6.3Y-24.6
X6.6Y-5.7
X6.6Y-27.0
X7.2Y-12.4
X7.8Y-31.5
X7.883Y-20.215
X7.9Y-34.5
X8.1Y-27.5
X8.2Y-2.3
X8.3Y-15.2
X8.485Y-21.685
X8.5Y-12.5
X9.2Y-18.8
X9.3Y-19.6
X9.6Y-30.0
X10.0Y-2.3
X10.0Y-13.8
X10.0Y-34.5
X10.2Y-12.4
X10.312Y-6.818
X10.9Y-6.548
X11.5Y-6.4
X11.6Y-18.6
X11.6Y-26.1
X11.7Y-20.6
X11.7Y-24.1
X11.8Y-25.5
X12.0Y-28.2
X12.009Y-20.086
X12.149Y-31.049
X12.2Y-34.5
X12.5Y-26.05
X12.7Y-15.099
X13.0Y-29.6
X13.1Y-8.7
X13.1Y-11.7
X13.2Y0.3
X13.2Y-5.5
X13.35Y-30.45
X13.452Y-17.727
X13.8Y-14.39
X14.0Y-8.6
X14.3Y-18.189
X14.4Y-2.7
X14.4Y-34.5
X14.6Y-11.1
X14.7Y-15.21
X15.154Y-18.0
X15.5Y0.3
X15.5Y-5.5
X15.92Y-19.2
X16.2Y-8.7
X16.2Y-14.7
X16.249Y-30.849
X16.4Y-17.9
X17.6Y-34.5
X17.9Y-10.2
X17.975Y-26.124
X18.0Y-3.0
X18.0Y-17.8
X18.351Y-6.65
X18.399Y-25.699
X18.501Y-13.201
X18.6Y-18.7
X18.9Y-14.785
X19.5Y-14.025
X19.5Y-29.4
X19.6Y-18.3
X19.6Y-21.6
X19.601Y-26.901
X19.8Y-1.6
X20.0Y-14.4
X20.192Y-6.442
X20.2Y-20.7
X20.422Y-11.749
X20.578Y-28.278
X20.7Y-26.1
X20.8Y-4.9
X20.9Y-21.1
X21.6Y-10.4
X21.7Y-4.3
X22.5Y-33.2
X23.001Y-8.701
X23.196Y-19.14
X23.2Y-10.5
X23.272Y-18.545
X23.5Y-27.6
X23.6Y-6.7
X23.7Y-31.8
X24.3Y-6.8
X25.2Y-7.0
X25.675Y-8.8
X25.7Y-17.7
X26.1Y-6.7
X27.1Y-31.4
X28.3Y-3.3
X28.5Y-10.1
X28.5Y-14.1
X29.4Y-12.8
X29.5Y-6.7
X29.599Y-9.899
X30.2Y-14.7
X34.3Y-7.6
X34.3Y-12.8
X34.3Y-15.1
X34.4Y-6.1
X34.65Y-12.098
X35.2Y-9.1
T2
G00X28.47Y-18.18
M15
G01X29.57Y-18.18
M16
G05
G00X28.47Y-26.82
M15
G01X29.57Y-26.82
M16
G05
G00X32.8Y-18.18
M15
G01X33.6Y-18.18
M16
G05
G00X32.8Y-26.82
M15
G01X33.6Y-26.82
M16
G05
M30
