%TF.GenerationSoftware,KiCad,Pcbnew,9.0.7-9.0.7~ubuntu24.04.1*%
%TF.CreationDate,2026-02-24T22:00:52+01:00*%
%TF.ProjectId,fcg4,66636734-2e6b-4696-9361-645f70636258,rev?*%
%TF.SameCoordinates,Original*%
%TF.FileFunction,Copper,L4,Bot*%
%TF.FilePolarity,Positive*%
%FSLAX46Y46*%
G04 Gerber Fmt 4.6, Leading zero omitted, Abs format (unit mm)*
G04 Created by KiCad (PCBNEW 9.0.7-9.0.7~ubuntu24.04.1) date 2026-02-24 22:00:52*
%MOMM*%
%LPD*%
G01*
G04 APERTURE LIST*
%TA.AperFunction,ComponentPad*%
%ADD10O,2.100000X1.000000*%
%TD*%
%TA.AperFunction,ComponentPad*%
%ADD11O,1.800000X1.000000*%
%TD*%
%TA.AperFunction,ViaPad*%
%ADD12C,0.500000*%
%TD*%
%TA.AperFunction,Conductor*%
%ADD13C,0.120000*%
%TD*%
%TA.AperFunction,Conductor*%
%ADD14C,0.100000*%
%TD*%
%TA.AperFunction,Conductor*%
%ADD15C,0.300000*%
%TD*%
G04 APERTURE END LIST*
D10*
%TO.P,J1,SH1,SHELL_GND*%
%TO.N,GND*%
X27520000Y-25900000D03*
%TO.P,J1,SH2*%
%TO.N,N/C*%
X27520000Y-17260000D03*
D11*
%TO.P,J1,SH3*%
X31700000Y-25900000D03*
%TO.P,J1,SH4*%
X31700000Y-17260000D03*
%TD*%
D12*
%TO.N,VDD_MCU*%
X15400000Y-16100000D03*
%TO.N,GND*%
X14356864Y-14617211D03*
X14310000Y-11500000D03*
%TO.N,VDD_MCU*%
X3800000Y-13000000D03*
%TO.N,GND*%
X13490000Y-3219623D03*
X9900000Y-9100000D03*
X15200000Y-300000D03*
%TO.N,MOTOR1*%
X25800000Y-8800000D03*
%TO.N,MOTOR2*%
X25000003Y-8800000D03*
%TO.N,MOTOR3*%
X24400000Y-8800000D03*
%TO.N,MOTOR4*%
X23700000Y-8800000D03*
%TO.N,GND*%
X32800000Y-8700000D03*
X7600000Y-10200000D03*
%TO.N,VDD_MCU*%
X23700000Y-16900000D03*
X6100000Y-15800000D03*
X25500000Y-30400000D03*
X4200000Y-7430000D03*
X32190000Y-5900000D03*
X23199480Y-24599340D03*
%TO.N,/Power/LC_5V5*%
X17500000Y-10000000D03*
X20348754Y-7748753D03*
%TO.N,GND*%
X6800000Y-16700000D03*
X12800000Y-25900000D03*
X21900000Y-9500000D03*
X21689914Y-27389914D03*
X9100000Y-900000D03*
X19900000Y-3200000D03*
X17700000Y-33100000D03*
X900000Y-28900000D03*
X20400000Y-21600000D03*
X8824730Y-24925269D03*
X18800000Y-20150000D03*
X16607864Y-25839322D03*
X18800000Y-21600000D03*
X17300000Y-18300000D03*
X4300000Y-16600000D03*
X22500000Y-23700000D03*
X2500000Y-5130000D03*
X900000Y-12500000D03*
X18800000Y-18300000D03*
X20400000Y-20100000D03*
X29075000Y-6600000D03*
X24900000Y-29000000D03*
X13110000Y-21100000D03*
X26100000Y-12500000D03*
X17300000Y-20100000D03*
X4400000Y-21600000D03*
X19166662Y-15928309D03*
X20400000Y-18300000D03*
X4500000Y-11530000D03*
X17300000Y-21600000D03*
X17700000Y-29900000D03*
X10625180Y-15878377D03*
X7600000Y-21920000D03*
X30500000Y-16600000D03*
X24400000Y-17200000D03*
X8900000Y-33100000D03*
X14500000Y-16900003D03*
%TO.N,/Power/PG_5V5*%
X19500000Y-8400000D03*
X18197936Y-12941549D03*
%TO.N,/Power/FB_5V5*%
X13400000Y-13400000D03*
X18221862Y-12337794D03*
%TO.N,MOTOR2*%
X18507376Y-24290795D03*
%TO.N,MOTOR1*%
X17277466Y-15500185D03*
X30900000Y-6000000D03*
%TO.N,RX2*%
X14525440Y-21837402D03*
X22200000Y-6110000D03*
%TO.N,CURRENT_SENSOR*%
X22900000Y-5700000D03*
X14414056Y-20835405D03*
%TO.N,MOTOR3*%
X18391328Y-15936067D03*
%TO.N,MOTOR4*%
X18288755Y-11691073D03*
%TO.N,TX3*%
X14700000Y-2010000D03*
X20100000Y-24395040D03*
%TO.N,/MCU/NRST*%
X11700000Y-18340000D03*
X6000000Y-20500000D03*
%TO.N,TX1*%
X23329232Y-20378025D03*
X6700000Y-29900000D03*
%TO.N,/MCU/OSC_OUT*%
X14496277Y-20001000D03*
X12800000Y-18100000D03*
%TO.N,SWDIO-JTMS*%
X23200000Y-16400000D03*
X24800000Y-23300000D03*
%TO.N,RX3*%
X16600000Y-25100000D03*
X21840000Y-24300000D03*
X12543046Y-2357205D03*
X6700000Y-33100000D03*
%TO.N,TX4*%
X23570711Y-25070711D03*
X20800000Y-15800000D03*
X13300000Y-33100000D03*
%TO.N,SPI1_SDI*%
X13300000Y-22900000D03*
X15500000Y-24298383D03*
%TO.N,SWCLK-JTCK*%
X22700000Y-15900000D03*
X25100000Y-22700000D03*
%TO.N,RX1*%
X23329232Y-19778022D03*
X8900000Y-29900000D03*
%TO.N,/MCU/OSC_IN*%
X14582980Y-19271421D03*
X14500000Y-16300000D03*
%TO.N,BZ*%
X23024998Y-20895173D03*
X10600000Y-22600000D03*
X900000Y-22600000D03*
%TO.N,GYRO_1_EXTI*%
X11300000Y-22100000D03*
X14497685Y-18677514D03*
%TO.N,SPI1_SD0*%
X16685945Y-24385945D03*
X13600000Y-23555001D03*
%TO.N,GYRO_1_CS*%
X13700000Y-24500000D03*
X13490000Y-18189000D03*
%TO.N,I2C1_SDA*%
X17851988Y-15673172D03*
X9222856Y-18477145D03*
X13300000Y-29900000D03*
%TO.N,I2C1_SCL*%
X15456124Y-29856124D03*
X8404559Y-18426145D03*
X21472090Y-15890000D03*
%TO.N,RX4*%
X20050000Y-16000000D03*
X23409878Y-25740662D03*
X11100000Y-33100000D03*
%TO.N,VOLTAGE_SENSOR*%
X8900000Y-10500000D03*
X9500000Y-16900000D03*
%TO.N,9V_BEC*%
X31976993Y-14251694D03*
X15539914Y-33139914D03*
%TO.N,/Connectors/MOTOR_2*%
X7400000Y-5200000D03*
X25900000Y-5800000D03*
%TO.N,/Connectors/MOTOR_1*%
X26900000Y-6000000D03*
X7600000Y-3100000D03*
%TO.N,/Connectors/MOTOR_3*%
X9389914Y-3089914D03*
X24900000Y-5800000D03*
%TO.N,/Connectors/MOTOR_4*%
X9600000Y-5300000D03*
X23900000Y-5800000D03*
%TD*%
D13*
%TO.N,VOLTAGE_SENSOR*%
X9500000Y-16900000D02*
X9300000Y-16700000D01*
X9300000Y-16700000D02*
X9300000Y-11600000D01*
X9300000Y-11600000D02*
X8900000Y-11200000D01*
X8900000Y-11200000D02*
X8900000Y-10500000D01*
%TO.N,MOTOR3*%
X16866466Y-15724466D02*
X16866466Y-15329943D01*
X18093431Y-16083172D02*
X17225172Y-16083172D01*
X17225172Y-16083172D02*
X16866466Y-15724466D01*
X16866466Y-15329943D02*
X17107224Y-15089185D01*
X18276603Y-15900000D02*
X18093431Y-16083172D01*
X18355261Y-15900000D02*
X18276603Y-15900000D01*
X18391328Y-15936067D02*
X18355261Y-15900000D01*
X17107224Y-15089185D02*
X17305214Y-15089185D01*
X17305214Y-15089185D02*
X21465399Y-10929000D01*
X21465399Y-10929000D02*
X23071000Y-10929000D01*
X23071000Y-10929000D02*
X24400000Y-9600000D01*
X24400000Y-9600000D02*
X24400000Y-8800000D01*
%TO.N,RX2*%
X21989914Y-7410086D02*
X16471000Y-12929000D01*
X22200000Y-6110000D02*
X21989914Y-6320086D01*
X21989914Y-6320086D02*
X21989914Y-7410086D01*
X16471000Y-12929000D02*
X16471000Y-19891842D01*
X16471000Y-19891842D02*
X14525440Y-21837402D01*
%TO.N,/Power/LC_5V5*%
X17644043Y-9855957D02*
X17644043Y-9155957D01*
X17500000Y-10000000D02*
X17644043Y-9855957D01*
X17644043Y-9155957D02*
X19051247Y-7748753D01*
X19051247Y-7748753D02*
X20348754Y-7748753D01*
%TO.N,RX3*%
X12543046Y-2357205D02*
X12373890Y-2526361D01*
X12373890Y-2526361D02*
X12373890Y-23773890D01*
%TO.N,/Connectors/MOTOR_4*%
X23900000Y-5800000D02*
X23900000Y-4012542D01*
X23900000Y-4012542D02*
X21486458Y-1599000D01*
X21486458Y-1599000D02*
X11501000Y-1599000D01*
X11501000Y-1599000D02*
X9700000Y-3400000D01*
X9700000Y-3400000D02*
X9700000Y-5200000D01*
X9700000Y-5200000D02*
X9600000Y-5300000D01*
D14*
%TO.N,/Connectors/MOTOR_3*%
X24900000Y-5800000D02*
X24900000Y-4714142D01*
X24900000Y-4714142D02*
X21573858Y-1388000D01*
X21573858Y-1388000D02*
X11091828Y-1388000D01*
X11091828Y-1388000D02*
X9389914Y-3089914D01*
D13*
%TO.N,/Connectors/MOTOR_2*%
X25900000Y-5800000D02*
X25900000Y-5300000D01*
X25900000Y-5300000D02*
X21700000Y-1100000D01*
X21700000Y-1100000D02*
X9912542Y-1100000D01*
X9912542Y-1100000D02*
X8656271Y-2356271D01*
X8656271Y-2356271D02*
X8656271Y-3943729D01*
X8656271Y-3943729D02*
X7400000Y-5200000D01*
%TO.N,/Connectors/MOTOR_1*%
X26900000Y-5987459D02*
X21791541Y-879000D01*
X21791541Y-879000D02*
X9821000Y-879000D01*
X9821000Y-879000D02*
X7600000Y-3100000D01*
%TO.N,RX3*%
X12543046Y-2357205D02*
X12542795Y-2357205D01*
D15*
%TO.N,9V_BEC*%
X15539914Y-33139914D02*
X16001000Y-33601000D01*
X16001000Y-33601000D02*
X23399000Y-33601000D01*
X23399000Y-33601000D02*
X29100000Y-27900000D01*
X29100000Y-27900000D02*
X29100000Y-16000000D01*
X29100000Y-16000000D02*
X30848306Y-14251694D01*
X30848306Y-14251694D02*
X31976993Y-14251694D01*
D13*
%TO.N,MOTOR1*%
X17277466Y-15500185D02*
X21577651Y-11200000D01*
X21577651Y-11200000D02*
X23300000Y-11200000D01*
X23300000Y-11200000D02*
X25700000Y-8800000D01*
X25700000Y-8800000D02*
X25800000Y-8800000D01*
X25800000Y-8800000D02*
X28100000Y-8800000D01*
X28100000Y-8800000D02*
X30900000Y-6000000D01*
%TO.N,MOTOR4*%
X23700000Y-9600000D02*
X23700000Y-8800000D01*
X18288755Y-11691073D02*
X18647681Y-11691073D01*
X18647681Y-11691073D02*
X19700024Y-10638730D01*
X19700024Y-10638730D02*
X22661270Y-10638730D01*
X22661270Y-10638730D02*
X23700000Y-9600000D01*
%TO.N,CURRENT_SENSOR*%
X22900000Y-5700000D02*
X21900000Y-5700000D01*
X16200000Y-19049461D02*
X14414056Y-20835405D01*
X21900000Y-5700000D02*
X20800000Y-6800000D01*
X20800000Y-6800000D02*
X20800000Y-7948047D01*
X20800000Y-7948047D02*
X16200000Y-12548047D01*
X16200000Y-12548047D02*
X16200000Y-19049461D01*
%TO.N,/Power/EN{slash}SYNC_9V*%
X26719396Y-12180604D02*
X26719396Y-13942241D01*
%TO.N,TX3*%
X13900000Y-2810000D02*
X14700000Y-2010000D01*
X20100000Y-24395040D02*
X19195040Y-24395040D01*
X18400000Y-23600000D02*
X15600000Y-23600000D01*
X13900000Y-21900000D02*
X13900000Y-2810000D01*
X19195040Y-24395040D02*
X18400000Y-23600000D01*
X15600000Y-23600000D02*
X13900000Y-21900000D01*
%TO.N,/MCU/NRST*%
X11700000Y-18340000D02*
X11376145Y-18016145D01*
X6000000Y-20100000D02*
X6000000Y-20500000D01*
X11376145Y-18016145D02*
X8083855Y-18016145D01*
X8083855Y-18016145D02*
X6000000Y-20100000D01*
%TO.N,TX1*%
X22921975Y-20378025D02*
X21189000Y-22111000D01*
X7800000Y-31000000D02*
X6700000Y-29900000D01*
X23329232Y-20378025D02*
X22921975Y-20378025D01*
X21189000Y-22111000D02*
X21189000Y-25111000D01*
X21189000Y-25111000D02*
X15300000Y-31000000D01*
X15300000Y-31000000D02*
X7800000Y-31000000D01*
%TO.N,SWDIO-JTMS*%
X23200000Y-17100000D02*
X23200000Y-16400000D01*
X24641232Y-18541232D02*
X23200000Y-17100000D01*
X24800000Y-23300000D02*
X24641232Y-23141232D01*
X24641232Y-23141232D02*
X24641232Y-18541232D01*
%TO.N,RX3*%
X16579000Y-25121000D02*
X16600000Y-25100000D01*
X15479000Y-31221000D02*
X21840000Y-24860000D01*
X8579000Y-31221000D02*
X15479000Y-31221000D01*
X6700000Y-33100000D02*
X8579000Y-31221000D01*
X13721000Y-25121000D02*
X16579000Y-25121000D01*
X21840000Y-24860000D02*
X21840000Y-24300000D01*
X12373890Y-23773890D02*
X13721000Y-25121000D01*
%TO.N,TX4*%
X23129289Y-25070711D02*
X16221000Y-31979000D01*
X14199999Y-33100000D02*
X13300000Y-33100000D01*
X16221000Y-31979000D02*
X15320999Y-31979000D01*
X23570711Y-25070711D02*
X23129289Y-25070711D01*
X15320999Y-31979000D02*
X14199999Y-33100000D01*
%TO.N,SPI1_SDI*%
X15098383Y-24298383D02*
X15500000Y-24298383D01*
X13300000Y-22900000D02*
X13700000Y-22900000D01*
X13700000Y-22900000D02*
X15098383Y-24298383D01*
%TO.N,SWCLK-JTCK*%
X23681242Y-15900000D02*
X22700000Y-15900000D01*
X25100000Y-22700000D02*
X25100000Y-17318758D01*
X25100000Y-17318758D02*
X23681242Y-15900000D01*
%TO.N,RX1*%
X15200000Y-30700000D02*
X20968000Y-24932000D01*
X9700000Y-30700000D02*
X15200000Y-30700000D01*
X8900000Y-29900000D02*
X9700000Y-30700000D01*
X20968000Y-24932000D02*
X20968000Y-21932000D01*
X20968000Y-21932000D02*
X23121978Y-19778022D01*
X23121978Y-19778022D02*
X23329232Y-19778022D01*
%TO.N,/MCU/OSC_IN*%
X15100000Y-16900000D02*
X15100000Y-18754401D01*
X15100000Y-18754401D02*
X14582980Y-19271421D01*
X14500000Y-16300000D02*
X15100000Y-16900000D01*
%TO.N,BZ*%
X10600000Y-22600000D02*
X900000Y-22600000D01*
%TO.N,SPI1_SD0*%
X16271890Y-24800000D02*
X14844999Y-24800000D01*
X14844999Y-24800000D02*
X13600000Y-23555001D01*
X16685945Y-24385945D02*
X16271890Y-24800000D01*
%TO.N,GYRO_1_CS*%
X13490000Y-18189000D02*
X13439000Y-18240000D01*
X12700000Y-23500000D02*
X12700000Y-18979000D01*
X13439000Y-18240000D02*
X13360000Y-18240000D01*
X12700000Y-23500000D02*
X13700000Y-24500000D01*
X12700000Y-18979000D02*
X13490000Y-18189000D01*
%TO.N,I2C1_SDA*%
X9222856Y-18477145D02*
X12100000Y-21354289D01*
X13400000Y-29800000D02*
X13300000Y-29900000D01*
X13400000Y-25400000D02*
X13400000Y-29800000D01*
X12100000Y-21354289D02*
X12100000Y-24100000D01*
X12100000Y-24100000D02*
X13400000Y-25400000D01*
%TO.N,I2C1_SCL*%
X21472090Y-21109152D02*
X20747000Y-21834242D01*
X11879000Y-21445831D02*
X11879000Y-29100000D01*
X20747000Y-21834242D02*
X20747000Y-24353000D01*
X20747000Y-24353000D02*
X15456124Y-29643876D01*
X8404559Y-18426145D02*
X8404559Y-18604559D01*
X13179000Y-30400000D02*
X11879000Y-29100000D01*
X21472090Y-15890000D02*
X21472090Y-21109152D01*
X9366585Y-18933416D02*
X11879000Y-21445831D01*
X8733416Y-18933416D02*
X9366585Y-18933416D01*
X14912248Y-30400000D02*
X13179000Y-30400000D01*
X8404559Y-18604559D02*
X8733416Y-18933416D01*
X15456124Y-29643876D02*
X15456124Y-29856124D01*
X15456124Y-29856124D02*
X14912248Y-30400000D01*
%TO.N,RX4*%
X18761070Y-30900000D02*
X23409878Y-26251192D01*
X23400000Y-25750540D02*
X23409878Y-25740662D01*
X23409878Y-26251192D02*
X23409878Y-25740662D01*
X13812541Y-33800000D02*
X15412541Y-32200000D01*
X15412541Y-32200000D02*
X16400000Y-32200000D01*
X17700000Y-30900000D02*
X18761070Y-30900000D01*
X11100000Y-33100000D02*
X11800000Y-33800000D01*
X11800000Y-33800000D02*
X13812541Y-33800000D01*
X16400000Y-32200000D02*
X17700000Y-30900000D01*
D14*
%TO.N,/Connectors/MOTOR_3*%
X9389914Y-3089914D02*
X9389914Y-3010086D01*
%TD*%
M02*
