%TF.GenerationSoftware,KiCad,Pcbnew,9.0.7-9.0.7~ubuntu24.04.1*%
%TF.CreationDate,2026-02-28T20:49:21+01:00*%
%TF.ProjectId,fcg4,66636734-2e6b-4696-9361-645f70636258,rev?*%
%TF.SameCoordinates,Original*%
%TF.FileFunction,Paste,Top*%
%TF.FilePolarity,Positive*%
%FSLAX46Y46*%
G04 Gerber Fmt 4.6, Leading zero omitted, Abs format (unit mm)*
G04 Created by KiCad (PCBNEW 9.0.7-9.0.7~ubuntu24.04.1) date 2026-02-28 20:49:21*
%MOMM*%
%LPD*%
G01*
G04 APERTURE LIST*
G04 Aperture macros list*
%AMRoundRect*
0 Rectangle with rounded corners*
0 $1 Rounding radius*
0 $2 $3 $4 $5 $6 $7 $8 $9 X,Y pos of 4 corners*
0 Add a 4 corners polygon primitive as box body*
4,1,4,$2,$3,$4,$5,$6,$7,$8,$9,$2,$3,0*
0 Add four circle primitives for the rounded corners*
1,1,$1+$1,$2,$3*
1,1,$1+$1,$4,$5*
1,1,$1+$1,$6,$7*
1,1,$1+$1,$8,$9*
0 Add four rect primitives between the rounded corners*
20,1,$1+$1,$2,$3,$4,$5,0*
20,1,$1+$1,$4,$5,$6,$7,0*
20,1,$1+$1,$6,$7,$8,$9,0*
20,1,$1+$1,$8,$9,$2,$3,0*%
G04 Aperture macros list end*
%ADD10RoundRect,0.135000X-0.185000X0.135000X-0.185000X-0.135000X0.185000X-0.135000X0.185000X0.135000X0*%
%ADD11RoundRect,0.135000X0.135000X0.185000X-0.135000X0.185000X-0.135000X-0.185000X0.135000X-0.185000X0*%
%ADD12R,0.650000X1.550000*%
%ADD13RoundRect,0.270000X0.630000X-0.930000X0.630000X0.930000X-0.630000X0.930000X-0.630000X-0.930000X0*%
%ADD14RoundRect,0.270000X0.930000X0.630000X-0.930000X0.630000X-0.930000X-0.630000X0.930000X-0.630000X0*%
%ADD15RoundRect,0.140000X-0.140000X-0.170000X0.140000X-0.170000X0.140000X0.170000X-0.140000X0.170000X0*%
%ADD16RoundRect,0.140000X0.170000X-0.140000X0.170000X0.140000X-0.170000X0.140000X-0.170000X-0.140000X0*%
%ADD17RoundRect,0.140000X-0.170000X0.140000X-0.170000X-0.140000X0.170000X-0.140000X0.170000X0.140000X0*%
%ADD18RoundRect,0.250000X-0.650000X0.325000X-0.650000X-0.325000X0.650000X-0.325000X0.650000X0.325000X0*%
%ADD19R,1.004699X0.558800*%
%ADD20RoundRect,0.250000X0.650000X-0.325000X0.650000X0.325000X-0.650000X0.325000X-0.650000X-0.325000X0*%
%ADD21RoundRect,0.270000X-0.930000X-0.630000X0.930000X-0.630000X0.930000X0.630000X-0.930000X0.630000X0*%
%ADD22RoundRect,0.135000X0.185000X-0.135000X0.185000X0.135000X-0.185000X0.135000X-0.185000X-0.135000X0*%
%ADD23RoundRect,0.045000X0.255000X-0.630000X0.255000X0.630000X-0.255000X0.630000X-0.255000X-0.630000X0*%
%ADD24R,0.965200X0.736600*%
%ADD25R,0.355600X0.736600*%
%ADD26R,0.600000X1.550000*%
%ADD27R,1.200000X1.800000*%
%ADD28RoundRect,0.140000X0.140000X0.170000X-0.140000X0.170000X-0.140000X-0.170000X0.140000X-0.170000X0*%
%ADD29R,1.300000X0.700000*%
%ADD30RoundRect,0.250000X1.075000X-0.375000X1.075000X0.375000X-1.075000X0.375000X-1.075000X-0.375000X0*%
%ADD31R,0.450000X0.450000*%
%ADD32RoundRect,0.225000X-0.225000X-0.250000X0.225000X-0.250000X0.225000X0.250000X-0.225000X0.250000X0*%
%ADD33RoundRect,0.087500X-0.087500X0.207500X-0.087500X-0.207500X0.087500X-0.207500X0.087500X0.207500X0*%
%ADD34RoundRect,0.087500X-0.207500X0.087500X-0.207500X-0.087500X0.207500X-0.087500X0.207500X0.087500X0*%
%ADD35RoundRect,0.225000X0.225000X0.250000X-0.225000X0.250000X-0.225000X-0.250000X0.225000X-0.250000X0*%
%ADD36R,1.500000X2.400000*%
%ADD37R,1.500000X1.050000*%
%ADD38R,0.700000X1.300000*%
%ADD39RoundRect,0.250000X-1.075000X0.375000X-1.075000X-0.375000X1.075000X-0.375000X1.075000X0.375000X0*%
%ADD40RoundRect,0.135000X-0.135000X-0.185000X0.135000X-0.185000X0.135000X0.185000X-0.135000X0.185000X0*%
%ADD41RoundRect,0.250000X0.325000X0.650000X-0.325000X0.650000X-0.325000X-0.650000X0.325000X-0.650000X0*%
%ADD42RoundRect,0.250000X-0.315000X-0.315000X0.315000X-0.315000X0.315000X0.315000X-0.315000X0.315000X0*%
%ADD43RoundRect,0.062500X-0.375000X-0.062500X0.375000X-0.062500X0.375000X0.062500X-0.375000X0.062500X0*%
%ADD44RoundRect,0.062500X-0.062500X-0.375000X0.062500X-0.375000X0.062500X0.375000X-0.062500X0.375000X0*%
%ADD45R,1.000000X0.970000*%
%ADD46R,1.150000X0.600000*%
%ADD47R,1.150000X0.300000*%
%ADD48R,0.850000X0.750000*%
G04 APERTURE END LIST*
D10*
%TO.C,R8*%
X10600000Y-11452500D03*
X10600000Y-12472500D03*
%TD*%
D11*
%TO.C,R3*%
X33110000Y-11800000D03*
X32090000Y-11800000D03*
%TD*%
D12*
%TO.C,D2*%
X24900000Y-28300000D03*
X23950000Y-28300000D03*
X23000000Y-28300000D03*
X23000000Y-30900000D03*
X24900000Y-30900000D03*
%TD*%
D13*
%TO.C,U6*%
X6700000Y-29900000D03*
%TD*%
%TO.C,U8*%
X11100000Y-29900000D03*
%TD*%
D14*
%TO.C,U19*%
X900000Y-12500000D03*
%TD*%
D15*
%TO.C,C5*%
X10120000Y-16400000D03*
X11080000Y-16400000D03*
%TD*%
D16*
%TO.C,C1*%
X3500000Y-6680000D03*
X3500000Y-5720000D03*
%TD*%
D17*
%TO.C,C20*%
X7600000Y-20420000D03*
X7600000Y-21380000D03*
%TD*%
D18*
%TO.C,C17*%
X16200000Y-5200000D03*
X16200000Y-8150000D03*
%TD*%
D13*
%TO.C,U15*%
X11300000Y-900000D03*
%TD*%
D19*
%TO.C,U5*%
X8993504Y-19400000D03*
X8993504Y-20350001D03*
X8993504Y-21300002D03*
X11700000Y-21300002D03*
X11700000Y-19400000D03*
%TD*%
D20*
%TO.C,C19*%
X16200000Y-3450000D03*
X16200000Y-500000D03*
%TD*%
D11*
%TO.C,R11*%
X33110000Y-15900000D03*
X32090000Y-15900000D03*
%TD*%
D15*
%TO.C,C15*%
X27920000Y-15900000D03*
X28880000Y-15900000D03*
%TD*%
D11*
%TO.C,R13*%
X24920000Y-16900000D03*
X23900000Y-16900000D03*
%TD*%
D12*
%TO.C,D1*%
X7000000Y-11000000D03*
X7950000Y-11000000D03*
X8900000Y-11000000D03*
X8900000Y-8400000D03*
X7000000Y-8400000D03*
%TD*%
D21*
%TO.C,U24*%
X900000Y-25800000D03*
%TD*%
D16*
%TO.C,C24*%
X19900000Y-27480000D03*
X19900000Y-26520000D03*
%TD*%
D13*
%TO.C,U7*%
X8900000Y-29900000D03*
%TD*%
D10*
%TO.C,R7*%
X10600000Y-9500000D03*
X10600000Y-10520000D03*
%TD*%
D16*
%TO.C,C34*%
X18000000Y-9160000D03*
X18000000Y-8200000D03*
%TD*%
D22*
%TO.C,R22*%
X8700000Y-17120000D03*
X8700000Y-16100000D03*
%TD*%
D15*
%TO.C,C29*%
X4020000Y-17300000D03*
X4980000Y-17300000D03*
%TD*%
D11*
%TO.C,R23*%
X7700000Y-19400000D03*
X6680000Y-19400000D03*
%TD*%
D16*
%TO.C,C10*%
X22500000Y-25360000D03*
X22500000Y-24400000D03*
%TD*%
D13*
%TO.C,U28*%
X17700000Y-33100000D03*
%TD*%
D22*
%TO.C,R2*%
X11800000Y-15110000D03*
X11800000Y-14090000D03*
%TD*%
D23*
%TO.C,U4*%
X3000000Y-10500000D03*
X3950000Y-10500000D03*
X4900000Y-10500000D03*
X4900000Y-8130000D03*
X3000000Y-8130000D03*
%TD*%
D13*
%TO.C,U31*%
X15500000Y-33100000D03*
%TD*%
D17*
%TO.C,C12*%
X18000000Y-10100000D03*
X18000000Y-11060000D03*
%TD*%
D24*
%TO.C,R12*%
X25759000Y-6800000D03*
D25*
X24929500Y-6800000D03*
X24429500Y-6800000D03*
D24*
X23600000Y-6800000D03*
X23600000Y-8070000D03*
D25*
X24429500Y-8070000D03*
X24929500Y-8070000D03*
D24*
X25759000Y-8070000D03*
%TD*%
D13*
%TO.C,U29*%
X11100000Y-33100000D03*
%TD*%
D17*
%TO.C,C21*%
X13100000Y-19500000D03*
X13100000Y-20460000D03*
%TD*%
D26*
%TO.C,J2*%
X26900000Y-4475000D03*
X25900000Y-4475000D03*
X24900000Y-4475000D03*
X23900000Y-4475000D03*
X22900000Y-4475000D03*
X21900000Y-4475000D03*
X20900000Y-4475000D03*
X19900000Y-4475000D03*
D27*
X28200000Y-600000D03*
X18600000Y-600000D03*
%TD*%
D16*
%TO.C,C3*%
X18500000Y-25880000D03*
X18500000Y-24920000D03*
%TD*%
D15*
%TO.C,C14*%
X29820000Y-15900000D03*
X30780000Y-15900000D03*
%TD*%
D16*
%TO.C,C22*%
X23000000Y-11260000D03*
X23000000Y-10300000D03*
%TD*%
D28*
%TO.C,C28*%
X9980000Y-23000000D03*
X9020000Y-23000000D03*
%TD*%
D13*
%TO.C,U30*%
X13300000Y-33100000D03*
%TD*%
D29*
%TO.C,IC1*%
X19400000Y-12900000D03*
X19400000Y-13850000D03*
X19400000Y-14800000D03*
X22300000Y-14800000D03*
X22300000Y-13850000D03*
X22300000Y-12900000D03*
%TD*%
D15*
%TO.C,C11*%
X23900000Y-17900000D03*
X24860000Y-17900000D03*
%TD*%
D17*
%TO.C,C6*%
X13800000Y-14120000D03*
X13800000Y-15080000D03*
%TD*%
D16*
%TO.C,C25*%
X20900000Y-27480000D03*
X20900000Y-26520000D03*
%TD*%
D30*
%TO.C,L2*%
X28800000Y-9200000D03*
X28800000Y-6400000D03*
%TD*%
D16*
%TO.C,C2*%
X2500000Y-6680000D03*
X2500000Y-5720000D03*
%TD*%
D31*
%TO.C,U3*%
X7550000Y-16300000D03*
X7550000Y-16950000D03*
X7550000Y-17600000D03*
X7550000Y-18250000D03*
X6100000Y-18250000D03*
X6100000Y-17600000D03*
X6100000Y-16950000D03*
X6100000Y-16300000D03*
%TD*%
D11*
%TO.C,R14*%
X5010000Y-18300000D03*
X3990000Y-18300000D03*
%TD*%
D32*
%TO.C,C32*%
X11925000Y-12300000D03*
X13475000Y-12300000D03*
%TD*%
D33*
%TO.C,U2*%
X12780000Y-22850001D03*
X12280000Y-22850001D03*
X11780000Y-22850001D03*
X11280000Y-22850001D03*
D34*
X11115000Y-23515001D03*
X11115000Y-24015001D03*
X11115000Y-24515001D03*
D33*
X11280000Y-25180001D03*
X11780000Y-25180001D03*
X12280000Y-25180001D03*
X12780000Y-25180001D03*
D34*
X12945000Y-24515001D03*
X12945000Y-24015001D03*
X12945000Y-23515001D03*
%TD*%
D17*
%TO.C,C13*%
X12800000Y-14120000D03*
X12800000Y-15080000D03*
%TD*%
D13*
%TO.C,U23*%
X13300000Y-29900000D03*
%TD*%
D28*
%TO.C,C8*%
X15980000Y-15500000D03*
X15020000Y-15500000D03*
%TD*%
D17*
%TO.C,C30*%
X4500000Y-12050000D03*
X4500000Y-13010000D03*
%TD*%
D13*
%TO.C,U9*%
X17700000Y-29900000D03*
%TD*%
D35*
%TO.C,C33*%
X32750000Y-9300000D03*
X31200000Y-9300000D03*
%TD*%
D36*
%TO.C,D3*%
X20500000Y-9550000D03*
D37*
X20500000Y-7175000D03*
%TD*%
D38*
%TO.C,IC2*%
X28574153Y-14225847D03*
X29524153Y-14225847D03*
X30474153Y-14225847D03*
X30474153Y-11325847D03*
X29524153Y-11325847D03*
X28574153Y-11325847D03*
%TD*%
D13*
%TO.C,U17*%
X9100000Y-900000D03*
%TD*%
D15*
%TO.C,C31*%
X32120000Y-10800000D03*
X33080000Y-10800000D03*
%TD*%
D11*
%TO.C,R6*%
X33110000Y-13900000D03*
X32090000Y-13900000D03*
%TD*%
%TO.C,R5*%
X33110000Y-14900000D03*
X32090000Y-14900000D03*
%TD*%
D13*
%TO.C,U26*%
X15500000Y-29900000D03*
%TD*%
D39*
%TO.C,L1*%
X15900000Y-10212500D03*
X15900000Y-13012500D03*
%TD*%
D21*
%TO.C,U22*%
X900000Y-23800000D03*
%TD*%
D40*
%TO.C,R15*%
X29200000Y-4900000D03*
X30220000Y-4900000D03*
%TD*%
D16*
%TO.C,C4*%
X17500000Y-25880000D03*
X17500000Y-24920000D03*
%TD*%
D13*
%TO.C,U16*%
X6900000Y-900000D03*
%TD*%
D41*
%TO.C,C16*%
X14075000Y-4100000D03*
X11125000Y-4100000D03*
%TD*%
D42*
%TO.C,U1*%
X16700000Y-18050000D03*
X16700000Y-19450000D03*
X16700000Y-20850000D03*
X16700000Y-22250000D03*
X18100000Y-18050000D03*
X18100000Y-19450000D03*
X18100000Y-20850000D03*
X18100000Y-22250000D03*
X19500000Y-18050000D03*
X19500000Y-19450000D03*
X19500000Y-20850000D03*
X19500000Y-22250000D03*
X20900000Y-18050000D03*
X20900000Y-19450000D03*
X20900000Y-20850000D03*
X20900000Y-22250000D03*
D43*
X15362500Y-17400000D03*
X15362500Y-17900000D03*
X15362500Y-18400000D03*
X15362500Y-18900000D03*
X15362500Y-19400000D03*
X15362500Y-19900000D03*
X15362500Y-20400000D03*
X15362500Y-20900000D03*
X15362500Y-21400000D03*
X15362500Y-21900000D03*
X15362500Y-22400000D03*
X15362500Y-22900000D03*
D44*
X16050000Y-23587500D03*
X16550000Y-23587500D03*
X17050000Y-23587500D03*
X17550000Y-23587500D03*
X18050000Y-23587500D03*
X18550000Y-23587500D03*
X19050000Y-23587500D03*
X19550000Y-23587500D03*
X20050000Y-23587500D03*
X20550000Y-23587500D03*
X21050000Y-23587500D03*
X21550000Y-23587500D03*
D43*
X22237500Y-22900000D03*
X22237500Y-22400000D03*
X22237500Y-21900000D03*
X22237500Y-21400000D03*
X22237500Y-20900000D03*
X22237500Y-20400000D03*
X22237500Y-19900000D03*
X22237500Y-19400000D03*
X22237500Y-18900000D03*
X22237500Y-18400000D03*
X22237500Y-17900000D03*
X22237500Y-17400000D03*
D44*
X21550000Y-16712500D03*
X21050000Y-16712500D03*
X20550000Y-16712500D03*
X20050000Y-16712500D03*
X19550000Y-16712500D03*
X19050000Y-16712500D03*
X18550000Y-16712500D03*
X18050000Y-16712500D03*
X17550000Y-16712500D03*
X17050000Y-16712500D03*
X16550000Y-16712500D03*
X16050000Y-16712500D03*
%TD*%
D21*
%TO.C,U25*%
X900000Y-27800000D03*
%TD*%
D15*
%TO.C,C27*%
X11240000Y-26300000D03*
X12200000Y-26300000D03*
%TD*%
D16*
%TO.C,C7*%
X5100000Y-21480000D03*
X5100000Y-20520000D03*
%TD*%
D36*
%TO.C,D4*%
X25500000Y-12400000D03*
D37*
X25500000Y-14775000D03*
%TD*%
D40*
%TO.C,R9*%
X10090000Y-17400000D03*
X11110000Y-17400000D03*
%TD*%
D45*
%TO.C,FL1*%
X21235000Y-25300000D03*
X19765000Y-25300000D03*
%TD*%
D13*
%TO.C,U32*%
X8900000Y-33100000D03*
%TD*%
D28*
%TO.C,C23*%
X33080000Y-12800000D03*
X32120000Y-12800000D03*
%TD*%
D46*
%TO.C,J1*%
X26945000Y-24780000D03*
X26945000Y-23980000D03*
D47*
X26945000Y-22830000D03*
X26945000Y-21830000D03*
X26945000Y-21330000D03*
X26945000Y-20330000D03*
D46*
X26945000Y-18380000D03*
X26945000Y-19180000D03*
D47*
X26945000Y-19830000D03*
X26945000Y-20830000D03*
X26945000Y-22330000D03*
X26945000Y-23330000D03*
%TD*%
D28*
%TO.C,C9*%
X15980000Y-14500000D03*
X15020000Y-14500000D03*
%TD*%
D13*
%TO.C,U14*%
X13500000Y-900000D03*
%TD*%
D40*
%TO.C,R10*%
X27500000Y-27200000D03*
X28520000Y-27200000D03*
%TD*%
D22*
%TO.C,R1*%
X10800000Y-15110000D03*
X10800000Y-14090000D03*
%TD*%
D28*
%TO.C,C26*%
X9980000Y-24000000D03*
X9020000Y-24000000D03*
%TD*%
D14*
%TO.C,U18*%
X900000Y-14700000D03*
%TD*%
D48*
%TO.C,Y1*%
X12400000Y-17350000D03*
X13750000Y-17350000D03*
X13750000Y-16300000D03*
X12400000Y-16300000D03*
%TD*%
D41*
%TO.C,C18*%
X14075000Y-6500000D03*
X11125000Y-6500000D03*
%TD*%
D13*
%TO.C,U27*%
X6700000Y-33100000D03*
%TD*%
M02*
