%TF.GenerationSoftware,KiCad,Pcbnew,9.0.6*%
%TF.CreationDate,2026-02-22T15:47:39+01:00*%
%TF.ProjectId,fcg4,66636734-2e6b-4696-9361-645f70636258,rev?*%
%TF.SameCoordinates,Original*%
%TF.FileFunction,Copper,L2,Inr*%
%TF.FilePolarity,Positive*%
%FSLAX46Y46*%
G04 Gerber Fmt 4.6, Leading zero omitted, Abs format (unit mm)*
G04 Created by KiCad (PCBNEW 9.0.6) date 2026-02-22 15:47:39*
%MOMM*%
%LPD*%
G01*
G04 APERTURE LIST*
%TA.AperFunction,ComponentPad*%
%ADD10O,2.100000X1.000000*%
%TD*%
%TA.AperFunction,ComponentPad*%
%ADD11O,1.800000X1.000000*%
%TD*%
%TA.AperFunction,ViaPad*%
%ADD12C,0.500000*%
%TD*%
G04 APERTURE END LIST*
D10*
%TO.N,GND*%
%TO.C,J1*%
X26920000Y-25900000D03*
%TO.N,N/C*%
X26920000Y-17260000D03*
D11*
X31100000Y-25900000D03*
X31100000Y-17260000D03*
%TD*%
D12*
%TO.N,TX4*%
X13400000Y-32600000D03*
%TO.N,GND*%
X17800000Y-32600000D03*
X9000000Y-32600000D03*
%TO.N,I2C1_SCL*%
X15556124Y-29356124D03*
%TO.N,I2C1_SDA*%
X13400000Y-29400000D03*
%TO.N,RX4*%
X11200000Y-32600000D03*
%TO.N,RX1*%
X9000000Y-29400000D03*
%TO.N,TX1*%
X6800000Y-29400000D03*
%TO.N,RX3*%
X6800000Y-32600000D03*
%TO.N,9V_BEC*%
X15639914Y-32639914D03*
%TO.N,VDD_MCU*%
X23700000Y-16900000D03*
X6100000Y-15800000D03*
X25500000Y-30400000D03*
X15700000Y-13400000D03*
X5800000Y-9600000D03*
X31500000Y-5900000D03*
X23199480Y-24599340D03*
%TO.N,/Power/LC_5V5*%
X16900000Y-9900000D03*
X20348754Y-7748753D03*
%TO.N,GND*%
X6800000Y-16700000D03*
X12800000Y-25900000D03*
X21900000Y-9500000D03*
X21689914Y-27389914D03*
X9100000Y-1400000D03*
X1600000Y-29100000D03*
X20400000Y-21600000D03*
X8824730Y-24925269D03*
X18800000Y-20150000D03*
X16607864Y-25839322D03*
X18800000Y-21600000D03*
X17300000Y-18300000D03*
X4300000Y-16600000D03*
X22500000Y-23700000D03*
X4100000Y-7300000D03*
X1400000Y-13600000D03*
X18800000Y-18300000D03*
X20400000Y-20100000D03*
X9600000Y-11400000D03*
X28800000Y-5900000D03*
X24900000Y-29000000D03*
X14900000Y-13388385D03*
X19200000Y-5800000D03*
X11775270Y-12924730D03*
X13110000Y-21100000D03*
X17810625Y-9710625D03*
X26100000Y-12500000D03*
X17300000Y-20100000D03*
X4400000Y-21600000D03*
X17300000Y-14400000D03*
X20400000Y-18300000D03*
X6100000Y-13700000D03*
X17300000Y-21600000D03*
X10625180Y-15878377D03*
X7600000Y-21920000D03*
X31200000Y-15900000D03*
X24400000Y-17200000D03*
X14592258Y-17007356D03*
%TO.N,/Power/PG_5V5*%
X18698754Y-9398753D03*
X17457674Y-13457674D03*
%TO.N,/Power/FB_5V5*%
X13400000Y-13400000D03*
X18078385Y-12978385D03*
%TO.N,/Power/EN{slash}SYNC_9V*%
X26719396Y-13942241D03*
X28100000Y-10800000D03*
%TO.N,/Power/BIAS_SUPPLY_9V*%
X26300000Y-15990000D03*
X28294276Y-12995249D03*
%TO.N,MOTOR2*%
X18507376Y-24290795D03*
X25170500Y-9700000D03*
%TO.N,MOTOR1*%
X26200000Y-9700000D03*
X17277466Y-15500185D03*
X30210000Y-6000000D03*
%TO.N,RX2*%
X14525440Y-21837402D03*
X22200000Y-7200000D03*
%TO.N,CURRENT_SENSOR*%
X22900000Y-6800000D03*
X14414056Y-20835405D03*
%TO.N,MOTOR3*%
X24400000Y-9600000D03*
X18600000Y-15900000D03*
%TO.N,MOTOR4*%
X18238754Y-12100000D03*
X23700000Y-9600000D03*
%TO.N,TX3*%
X14700000Y-2510000D03*
X20100000Y-24395040D03*
%TO.N,/MCU/NRST*%
X11700000Y-18340000D03*
X6000000Y-20500000D03*
%TO.N,TX1*%
X23329232Y-20378025D03*
%TO.N,/MCU/OSC_OUT*%
X14496277Y-20001000D03*
X12800000Y-18100000D03*
%TO.N,SWDIO-JTMS*%
X23200000Y-16400000D03*
X24800000Y-23300000D03*
%TO.N,RX3*%
X16600000Y-25100000D03*
X21840000Y-24300000D03*
X12400000Y-3000000D03*
%TO.N,TX4*%
X23570711Y-25070711D03*
X20800000Y-15800000D03*
%TO.N,SPI1_SDI*%
X13300000Y-22900000D03*
X15500000Y-24298383D03*
%TO.N,SWCLK-JTCK*%
X22700000Y-15900000D03*
X25100000Y-22700000D03*
%TO.N,RX1*%
X23329232Y-19778022D03*
%TO.N,/MCU/OSC_IN*%
X14582980Y-19271421D03*
X14500000Y-16300000D03*
%TO.N,BZ*%
X23024998Y-20895173D03*
X10600000Y-22600000D03*
X1600000Y-22800000D03*
%TO.N,GYRO_1_EXTI*%
X11300000Y-22100000D03*
X14497685Y-18677514D03*
%TO.N,SPI1_SD0*%
X16685945Y-24385945D03*
X13600000Y-23555001D03*
%TO.N,GYRO_1_CS*%
X13700000Y-24500000D03*
X13490000Y-18189000D03*
%TO.N,I2C1_SDA*%
X17851988Y-15673172D03*
X9222856Y-18477145D03*
%TO.N,I2C1_SCL*%
X8404559Y-18426145D03*
X21472090Y-15890000D03*
%TO.N,RX4*%
X20050000Y-16000000D03*
X23409878Y-25740662D03*
%TO.N,VOLTAGE_SENSOR*%
X11600000Y-11500000D03*
X9500000Y-16900000D03*
%TO.N,9V_BEC*%
X32276993Y-14251694D03*
%TO.N,/Connectors/MOTOR_2*%
X25900000Y-4700000D03*
X8600000Y-5600000D03*
%TO.N,/Connectors/MOTOR_1*%
X8800000Y-3500000D03*
X26900000Y-4700000D03*
%TO.N,/Connectors/MOTOR_3*%
X10589914Y-3489914D03*
X24900000Y-4700000D03*
%TO.N,/Connectors/MOTOR_4*%
X10800000Y-5700000D03*
X23900000Y-4700000D03*
%TD*%
%TA.AperFunction,Conductor*%
%TO.N,GND*%
G36*
X31160384Y-219407D02*
G01*
X31196348Y-268907D01*
X31196348Y-330093D01*
X31162460Y-378042D01*
X31093345Y-431075D01*
X30931078Y-593342D01*
X30791388Y-775388D01*
X30676653Y-974116D01*
X30588841Y-1186114D01*
X30529452Y-1407761D01*
X30499500Y-1635265D01*
X30499500Y-1864734D01*
X30529452Y-2092238D01*
X30588841Y-2313885D01*
X30676653Y-2525883D01*
X30791388Y-2724611D01*
X30852039Y-2803652D01*
X30931081Y-2906661D01*
X31093339Y-3068919D01*
X31275388Y-3208611D01*
X31474112Y-3323344D01*
X31474113Y-3323344D01*
X31474116Y-3323346D01*
X31563788Y-3360489D01*
X31686113Y-3411158D01*
X31907762Y-3470548D01*
X32135266Y-3500500D01*
X32135267Y-3500500D01*
X32364733Y-3500500D01*
X32364734Y-3500500D01*
X32592238Y-3470548D01*
X32813887Y-3411158D01*
X33025888Y-3323344D01*
X33224612Y-3208611D01*
X33406661Y-3068919D01*
X33568919Y-2906661D01*
X33600433Y-2865591D01*
X33621958Y-2837540D01*
X33672383Y-2802884D01*
X33733547Y-2804485D01*
X33782089Y-2841733D01*
X33799500Y-2897807D01*
X33799500Y-31102192D01*
X33780593Y-31160383D01*
X33731093Y-31196347D01*
X33669907Y-31196347D01*
X33621958Y-31162460D01*
X33568921Y-31093342D01*
X33568919Y-31093339D01*
X33406661Y-30931081D01*
X33364865Y-30899010D01*
X33224611Y-30791388D01*
X33025883Y-30676653D01*
X32813885Y-30588841D01*
X32592238Y-30529452D01*
X32364734Y-30499500D01*
X32135266Y-30499500D01*
X32135265Y-30499500D01*
X31907761Y-30529452D01*
X31686114Y-30588841D01*
X31474116Y-30676653D01*
X31275388Y-30791388D01*
X31093342Y-30931078D01*
X30931078Y-31093342D01*
X30791388Y-31275388D01*
X30676653Y-31474116D01*
X30588841Y-31686114D01*
X30529452Y-31907761D01*
X30499500Y-32135265D01*
X30499500Y-32364734D01*
X30529452Y-32592238D01*
X30588841Y-32813885D01*
X30676653Y-33025883D01*
X30696183Y-33059711D01*
X30791389Y-33224612D01*
X30931081Y-33406661D01*
X31093339Y-33568919D01*
X31093343Y-33568922D01*
X31093345Y-33568924D01*
X31162460Y-33621958D01*
X31197116Y-33672383D01*
X31195515Y-33733547D01*
X31158267Y-33782089D01*
X31102193Y-33799500D01*
X2897807Y-33799500D01*
X2839616Y-33780593D01*
X2803652Y-33731093D01*
X2803652Y-33669907D01*
X2837540Y-33621958D01*
X2906654Y-33568924D01*
X2906661Y-33568919D01*
X3068919Y-33406661D01*
X3208611Y-33224612D01*
X3323344Y-33025888D01*
X3411158Y-32813887D01*
X3470548Y-32592238D01*
X3477334Y-32540691D01*
X6349500Y-32540691D01*
X6349500Y-32659309D01*
X6360195Y-32699223D01*
X6380202Y-32773890D01*
X6439507Y-32876608D01*
X6439509Y-32876610D01*
X6439511Y-32876613D01*
X6523387Y-32960489D01*
X6523389Y-32960490D01*
X6523391Y-32960492D01*
X6626110Y-33019797D01*
X6626111Y-33019797D01*
X6626114Y-33019799D01*
X6740691Y-33050500D01*
X6740693Y-33050500D01*
X6859307Y-33050500D01*
X6859309Y-33050500D01*
X6973886Y-33019799D01*
X6973888Y-33019797D01*
X6973890Y-33019797D01*
X7076608Y-32960492D01*
X7076608Y-32960491D01*
X7076613Y-32960489D01*
X7160489Y-32876613D01*
X7196704Y-32813887D01*
X7219797Y-32773890D01*
X7219797Y-32773888D01*
X7219799Y-32773886D01*
X7250500Y-32659309D01*
X7250500Y-32540691D01*
X10749500Y-32540691D01*
X10749500Y-32659309D01*
X10760195Y-32699223D01*
X10780202Y-32773890D01*
X10839507Y-32876608D01*
X10839509Y-32876610D01*
X10839511Y-32876613D01*
X10923387Y-32960489D01*
X10923389Y-32960490D01*
X10923391Y-32960492D01*
X11026110Y-33019797D01*
X11026111Y-33019797D01*
X11026114Y-33019799D01*
X11140691Y-33050500D01*
X11140693Y-33050500D01*
X11259307Y-33050500D01*
X11259309Y-33050500D01*
X11373886Y-33019799D01*
X11373888Y-33019797D01*
X11373890Y-33019797D01*
X11476608Y-32960492D01*
X11476608Y-32960491D01*
X11476613Y-32960489D01*
X11560489Y-32876613D01*
X11596704Y-32813887D01*
X11619797Y-32773890D01*
X11619797Y-32773888D01*
X11619799Y-32773886D01*
X11650500Y-32659309D01*
X11650500Y-32540691D01*
X12949500Y-32540691D01*
X12949500Y-32659309D01*
X12960195Y-32699223D01*
X12980202Y-32773890D01*
X13039507Y-32876608D01*
X13039509Y-32876610D01*
X13039511Y-32876613D01*
X13123387Y-32960489D01*
X13123389Y-32960490D01*
X13123391Y-32960492D01*
X13226110Y-33019797D01*
X13226111Y-33019797D01*
X13226114Y-33019799D01*
X13340691Y-33050500D01*
X13340693Y-33050500D01*
X13459307Y-33050500D01*
X13459309Y-33050500D01*
X13573886Y-33019799D01*
X13573888Y-33019797D01*
X13573890Y-33019797D01*
X13676608Y-32960492D01*
X13676608Y-32960491D01*
X13676613Y-32960489D01*
X13760489Y-32876613D01*
X13796704Y-32813887D01*
X13819797Y-32773890D01*
X13819797Y-32773888D01*
X13819799Y-32773886D01*
X13850500Y-32659309D01*
X13850500Y-32580605D01*
X15189414Y-32580605D01*
X15189414Y-32699223D01*
X15209420Y-32773886D01*
X15220116Y-32813804D01*
X15279421Y-32916522D01*
X15279423Y-32916524D01*
X15279425Y-32916527D01*
X15363301Y-33000403D01*
X15363303Y-33000404D01*
X15363305Y-33000406D01*
X15466024Y-33059711D01*
X15466025Y-33059711D01*
X15466028Y-33059713D01*
X15580605Y-33090414D01*
X15580607Y-33090414D01*
X15699221Y-33090414D01*
X15699223Y-33090414D01*
X15813800Y-33059713D01*
X15813802Y-33059711D01*
X15813804Y-33059711D01*
X15916522Y-33000406D01*
X15916522Y-33000405D01*
X15916527Y-33000403D01*
X16000403Y-32916527D01*
X16023448Y-32876613D01*
X16059711Y-32813804D01*
X16059711Y-32813802D01*
X16059713Y-32813800D01*
X16090414Y-32699223D01*
X16090414Y-32580605D01*
X16059713Y-32466028D01*
X16059711Y-32466025D01*
X16059711Y-32466023D01*
X16000406Y-32363305D01*
X16000404Y-32363303D01*
X16000403Y-32363301D01*
X15916527Y-32279425D01*
X15916524Y-32279423D01*
X15916522Y-32279421D01*
X15813803Y-32220116D01*
X15813804Y-32220116D01*
X15800265Y-32216488D01*
X15699223Y-32189414D01*
X15580605Y-32189414D01*
X15510481Y-32208203D01*
X15466023Y-32220116D01*
X15363305Y-32279421D01*
X15279421Y-32363305D01*
X15220116Y-32466023D01*
X15220115Y-32466028D01*
X15189414Y-32580605D01*
X13850500Y-32580605D01*
X13850500Y-32540691D01*
X13819799Y-32426114D01*
X13819797Y-32426111D01*
X13819797Y-32426109D01*
X13760492Y-32323391D01*
X13760490Y-32323389D01*
X13760489Y-32323387D01*
X13676613Y-32239511D01*
X13676610Y-32239509D01*
X13676608Y-32239507D01*
X13573889Y-32180202D01*
X13573890Y-32180202D01*
X13560351Y-32176574D01*
X13459309Y-32149500D01*
X13340691Y-32149500D01*
X13270567Y-32168289D01*
X13226109Y-32180202D01*
X13123391Y-32239507D01*
X13039507Y-32323391D01*
X12980202Y-32426109D01*
X12969507Y-32466023D01*
X12949500Y-32540691D01*
X11650500Y-32540691D01*
X11619799Y-32426114D01*
X11619797Y-32426111D01*
X11619797Y-32426109D01*
X11560492Y-32323391D01*
X11560490Y-32323389D01*
X11560489Y-32323387D01*
X11476613Y-32239511D01*
X11476610Y-32239509D01*
X11476608Y-32239507D01*
X11373889Y-32180202D01*
X11373890Y-32180202D01*
X11360351Y-32176574D01*
X11259309Y-32149500D01*
X11140691Y-32149500D01*
X11070567Y-32168289D01*
X11026109Y-32180202D01*
X10923391Y-32239507D01*
X10839507Y-32323391D01*
X10780202Y-32426109D01*
X10769507Y-32466023D01*
X10749500Y-32540691D01*
X7250500Y-32540691D01*
X7219799Y-32426114D01*
X7219797Y-32426111D01*
X7219797Y-32426109D01*
X7160492Y-32323391D01*
X7160490Y-32323389D01*
X7160489Y-32323387D01*
X7076613Y-32239511D01*
X7076610Y-32239509D01*
X7076608Y-32239507D01*
X6973889Y-32180202D01*
X6973890Y-32180202D01*
X6960351Y-32176574D01*
X6859309Y-32149500D01*
X6740691Y-32149500D01*
X6670567Y-32168289D01*
X6626109Y-32180202D01*
X6523391Y-32239507D01*
X6439507Y-32323391D01*
X6380202Y-32426109D01*
X6369507Y-32466023D01*
X6349500Y-32540691D01*
X3477334Y-32540691D01*
X3500500Y-32364734D01*
X3500500Y-32135266D01*
X3470548Y-31907762D01*
X3411158Y-31686113D01*
X3323344Y-31474112D01*
X3208611Y-31275388D01*
X3068919Y-31093339D01*
X2906661Y-30931081D01*
X2864865Y-30899010D01*
X2724611Y-30791388D01*
X2525883Y-30676653D01*
X2313885Y-30588841D01*
X2092238Y-30529452D01*
X1864734Y-30499500D01*
X1635266Y-30499500D01*
X1635265Y-30499500D01*
X1407761Y-30529452D01*
X1186114Y-30588841D01*
X974116Y-30676653D01*
X775388Y-30791388D01*
X593342Y-30931078D01*
X431078Y-31093342D01*
X378042Y-31162460D01*
X327617Y-31197115D01*
X266452Y-31195513D01*
X217911Y-31158266D01*
X200500Y-31102192D01*
X200500Y-30340691D01*
X25049500Y-30340691D01*
X25049500Y-30459309D01*
X25068295Y-30529452D01*
X25080202Y-30573890D01*
X25139507Y-30676608D01*
X25139509Y-30676610D01*
X25139511Y-30676613D01*
X25223387Y-30760489D01*
X25223389Y-30760490D01*
X25223391Y-30760492D01*
X25326110Y-30819797D01*
X25326111Y-30819797D01*
X25326114Y-30819799D01*
X25440691Y-30850500D01*
X25440693Y-30850500D01*
X25559307Y-30850500D01*
X25559309Y-30850500D01*
X25673886Y-30819799D01*
X25673888Y-30819797D01*
X25673890Y-30819797D01*
X25776608Y-30760492D01*
X25776608Y-30760491D01*
X25776613Y-30760489D01*
X25860489Y-30676613D01*
X25919799Y-30573886D01*
X25950500Y-30459309D01*
X25950500Y-30340691D01*
X25919799Y-30226114D01*
X25919797Y-30226111D01*
X25919797Y-30226109D01*
X25860492Y-30123391D01*
X25860490Y-30123389D01*
X25860489Y-30123387D01*
X25776613Y-30039511D01*
X25776610Y-30039509D01*
X25776608Y-30039507D01*
X25673889Y-29980202D01*
X25673890Y-29980202D01*
X25660351Y-29976574D01*
X25559309Y-29949500D01*
X25440691Y-29949500D01*
X25370567Y-29968289D01*
X25326109Y-29980202D01*
X25223391Y-30039507D01*
X25139507Y-30123391D01*
X25080202Y-30226109D01*
X25080201Y-30226114D01*
X25049500Y-30340691D01*
X200500Y-30340691D01*
X200500Y-29340691D01*
X6349500Y-29340691D01*
X6349500Y-29459309D01*
X6376574Y-29560351D01*
X6380202Y-29573890D01*
X6439507Y-29676608D01*
X6439509Y-29676610D01*
X6439511Y-29676613D01*
X6523387Y-29760489D01*
X6523389Y-29760490D01*
X6523391Y-29760492D01*
X6626110Y-29819797D01*
X6626111Y-29819797D01*
X6626114Y-29819799D01*
X6740691Y-29850500D01*
X6740693Y-29850500D01*
X6859307Y-29850500D01*
X6859309Y-29850500D01*
X6973886Y-29819799D01*
X6973888Y-29819797D01*
X6973890Y-29819797D01*
X7076608Y-29760492D01*
X7076608Y-29760491D01*
X7076613Y-29760489D01*
X7160489Y-29676613D01*
X7219799Y-29573886D01*
X7250500Y-29459309D01*
X7250500Y-29340691D01*
X8549500Y-29340691D01*
X8549500Y-29459309D01*
X8576574Y-29560351D01*
X8580202Y-29573890D01*
X8639507Y-29676608D01*
X8639509Y-29676610D01*
X8639511Y-29676613D01*
X8723387Y-29760489D01*
X8723389Y-29760490D01*
X8723391Y-29760492D01*
X8826110Y-29819797D01*
X8826111Y-29819797D01*
X8826114Y-29819799D01*
X8940691Y-29850500D01*
X8940693Y-29850500D01*
X9059307Y-29850500D01*
X9059309Y-29850500D01*
X9173886Y-29819799D01*
X9173888Y-29819797D01*
X9173890Y-29819797D01*
X9276608Y-29760492D01*
X9276608Y-29760491D01*
X9276613Y-29760489D01*
X9360489Y-29676613D01*
X9419799Y-29573886D01*
X9450500Y-29459309D01*
X9450500Y-29340691D01*
X12949500Y-29340691D01*
X12949500Y-29459309D01*
X12976574Y-29560351D01*
X12980202Y-29573890D01*
X13039507Y-29676608D01*
X13039509Y-29676610D01*
X13039511Y-29676613D01*
X13123387Y-29760489D01*
X13123389Y-29760490D01*
X13123391Y-29760492D01*
X13226110Y-29819797D01*
X13226111Y-29819797D01*
X13226114Y-29819799D01*
X13340691Y-29850500D01*
X13340693Y-29850500D01*
X13459307Y-29850500D01*
X13459309Y-29850500D01*
X13573886Y-29819799D01*
X13573888Y-29819797D01*
X13573890Y-29819797D01*
X13676608Y-29760492D01*
X13676608Y-29760491D01*
X13676613Y-29760489D01*
X13760489Y-29676613D01*
X13819799Y-29573886D01*
X13850500Y-29459309D01*
X13850500Y-29340691D01*
X13838743Y-29296815D01*
X15105624Y-29296815D01*
X15105624Y-29415433D01*
X15117380Y-29459307D01*
X15136326Y-29530014D01*
X15195631Y-29632732D01*
X15195633Y-29632734D01*
X15195635Y-29632737D01*
X15279511Y-29716613D01*
X15279513Y-29716614D01*
X15279515Y-29716616D01*
X15382234Y-29775921D01*
X15382235Y-29775921D01*
X15382238Y-29775923D01*
X15496815Y-29806624D01*
X15496817Y-29806624D01*
X15615431Y-29806624D01*
X15615433Y-29806624D01*
X15730010Y-29775923D01*
X15730012Y-29775921D01*
X15730014Y-29775921D01*
X15832732Y-29716616D01*
X15832732Y-29716615D01*
X15832737Y-29716613D01*
X15916613Y-29632737D01*
X15975923Y-29530010D01*
X16006624Y-29415433D01*
X16006624Y-29296815D01*
X15975923Y-29182238D01*
X15975921Y-29182235D01*
X15975921Y-29182233D01*
X15916616Y-29079515D01*
X15916614Y-29079513D01*
X15916613Y-29079511D01*
X15832737Y-28995635D01*
X15832734Y-28995633D01*
X15832732Y-28995631D01*
X15730013Y-28936326D01*
X15730014Y-28936326D01*
X15716475Y-28932698D01*
X15615433Y-28905624D01*
X15496815Y-28905624D01*
X15426691Y-28924413D01*
X15382233Y-28936326D01*
X15279515Y-28995631D01*
X15195631Y-29079515D01*
X15136327Y-29182233D01*
X15136326Y-29182233D01*
X15136325Y-29182238D01*
X15105624Y-29296815D01*
X13838743Y-29296815D01*
X13819799Y-29226114D01*
X13819797Y-29226111D01*
X13819797Y-29226109D01*
X13760492Y-29123391D01*
X13760490Y-29123389D01*
X13760489Y-29123387D01*
X13676613Y-29039511D01*
X13676610Y-29039509D01*
X13676608Y-29039507D01*
X13573889Y-28980202D01*
X13573890Y-28980202D01*
X13560351Y-28976574D01*
X13459309Y-28949500D01*
X13340691Y-28949500D01*
X13270567Y-28968289D01*
X13226109Y-28980202D01*
X13123391Y-29039507D01*
X13039507Y-29123391D01*
X12980202Y-29226109D01*
X12980201Y-29226114D01*
X12949500Y-29340691D01*
X9450500Y-29340691D01*
X9419799Y-29226114D01*
X9419797Y-29226111D01*
X9419797Y-29226109D01*
X9360492Y-29123391D01*
X9360490Y-29123389D01*
X9360489Y-29123387D01*
X9276613Y-29039511D01*
X9276610Y-29039509D01*
X9276608Y-29039507D01*
X9173889Y-28980202D01*
X9173890Y-28980202D01*
X9160351Y-28976574D01*
X9059309Y-28949500D01*
X8940691Y-28949500D01*
X8870567Y-28968289D01*
X8826109Y-28980202D01*
X8723391Y-29039507D01*
X8639507Y-29123391D01*
X8580202Y-29226109D01*
X8580201Y-29226114D01*
X8549500Y-29340691D01*
X7250500Y-29340691D01*
X7219799Y-29226114D01*
X7219797Y-29226111D01*
X7219797Y-29226109D01*
X7160492Y-29123391D01*
X7160490Y-29123389D01*
X7160489Y-29123387D01*
X7076613Y-29039511D01*
X7076610Y-29039509D01*
X7076608Y-29039507D01*
X6973889Y-28980202D01*
X6973890Y-28980202D01*
X6960351Y-28976574D01*
X6859309Y-28949500D01*
X6740691Y-28949500D01*
X6670567Y-28968289D01*
X6626109Y-28980202D01*
X6523391Y-29039507D01*
X6439507Y-29123391D01*
X6380202Y-29226109D01*
X6380201Y-29226114D01*
X6349500Y-29340691D01*
X200500Y-29340691D01*
X200500Y-25040691D01*
X16149500Y-25040691D01*
X16149500Y-25159309D01*
X16172353Y-25244597D01*
X16180202Y-25273890D01*
X16239507Y-25376608D01*
X16239509Y-25376610D01*
X16239511Y-25376613D01*
X16323387Y-25460489D01*
X16323389Y-25460490D01*
X16323391Y-25460492D01*
X16426110Y-25519797D01*
X16426111Y-25519797D01*
X16426114Y-25519799D01*
X16540691Y-25550500D01*
X16540693Y-25550500D01*
X16659307Y-25550500D01*
X16659309Y-25550500D01*
X16773886Y-25519799D01*
X16773888Y-25519797D01*
X16773890Y-25519797D01*
X16876608Y-25460492D01*
X16876608Y-25460491D01*
X16876613Y-25460489D01*
X16960489Y-25376613D01*
X16972456Y-25355886D01*
X17019797Y-25273890D01*
X17019797Y-25273888D01*
X17019799Y-25273886D01*
X17050500Y-25159309D01*
X17050500Y-25040691D01*
X17019799Y-24926114D01*
X16971061Y-24841699D01*
X16958340Y-24781853D01*
X16983226Y-24725957D01*
X16986776Y-24722215D01*
X17046434Y-24662558D01*
X17047629Y-24660489D01*
X17105742Y-24559835D01*
X17105742Y-24559833D01*
X17105744Y-24559831D01*
X17136445Y-24445254D01*
X17136445Y-24326636D01*
X17110949Y-24231486D01*
X18056876Y-24231486D01*
X18056876Y-24350104D01*
X18077065Y-24425449D01*
X18087578Y-24464685D01*
X18146883Y-24567403D01*
X18146885Y-24567405D01*
X18146887Y-24567408D01*
X18230763Y-24651284D01*
X18230765Y-24651285D01*
X18230767Y-24651287D01*
X18333486Y-24710592D01*
X18333487Y-24710592D01*
X18333490Y-24710594D01*
X18448067Y-24741295D01*
X18448069Y-24741295D01*
X18566683Y-24741295D01*
X18566685Y-24741295D01*
X18681262Y-24710594D01*
X18681264Y-24710592D01*
X18681266Y-24710592D01*
X18783984Y-24651287D01*
X18783984Y-24651286D01*
X18783989Y-24651284D01*
X18867865Y-24567408D01*
X18872237Y-24559835D01*
X18927173Y-24464685D01*
X18927173Y-24464683D01*
X18927175Y-24464681D01*
X18957876Y-24350104D01*
X18957876Y-24335731D01*
X19649500Y-24335731D01*
X19649500Y-24454349D01*
X19672231Y-24539181D01*
X19680202Y-24568930D01*
X19739507Y-24671648D01*
X19739509Y-24671650D01*
X19739511Y-24671653D01*
X19823387Y-24755529D01*
X19823389Y-24755530D01*
X19823391Y-24755532D01*
X19926110Y-24814837D01*
X19926111Y-24814837D01*
X19926114Y-24814839D01*
X20040691Y-24845540D01*
X20040693Y-24845540D01*
X20159307Y-24845540D01*
X20159309Y-24845540D01*
X20273886Y-24814839D01*
X20273888Y-24814837D01*
X20273890Y-24814837D01*
X20376608Y-24755532D01*
X20376608Y-24755531D01*
X20376613Y-24755529D01*
X20460489Y-24671653D01*
X20466935Y-24660489D01*
X20519797Y-24568930D01*
X20519797Y-24568928D01*
X20519799Y-24568926D01*
X20550500Y-24454349D01*
X20550500Y-24335731D01*
X20525034Y-24240691D01*
X21389500Y-24240691D01*
X21389500Y-24359309D01*
X21412529Y-24445254D01*
X21420202Y-24473890D01*
X21479507Y-24576608D01*
X21479509Y-24576610D01*
X21479511Y-24576613D01*
X21563387Y-24660489D01*
X21563389Y-24660490D01*
X21563391Y-24660492D01*
X21666110Y-24719797D01*
X21666111Y-24719797D01*
X21666114Y-24719799D01*
X21780691Y-24750500D01*
X21780693Y-24750500D01*
X21899307Y-24750500D01*
X21899309Y-24750500D01*
X22013886Y-24719799D01*
X22013888Y-24719797D01*
X22013890Y-24719797D01*
X22116608Y-24660492D01*
X22116608Y-24660491D01*
X22116613Y-24660489D01*
X22200489Y-24576613D01*
X22201423Y-24574996D01*
X22221610Y-24540031D01*
X22748980Y-24540031D01*
X22748980Y-24658649D01*
X22767015Y-24725957D01*
X22779682Y-24773230D01*
X22838987Y-24875948D01*
X22838989Y-24875950D01*
X22838991Y-24875953D01*
X22922867Y-24959829D01*
X22922869Y-24959830D01*
X22922871Y-24959832D01*
X23025590Y-25019137D01*
X23025591Y-25019138D01*
X23025593Y-25019138D01*
X23025594Y-25019139D01*
X23046833Y-25024829D01*
X23098147Y-25058151D01*
X23116793Y-25094667D01*
X23120211Y-25107335D01*
X23120211Y-25130020D01*
X23150912Y-25244597D01*
X23162800Y-25265188D01*
X23166173Y-25277688D01*
X23165248Y-25295943D01*
X23169049Y-25313824D01*
X23163737Y-25325753D01*
X23163077Y-25338795D01*
X23151597Y-25353021D01*
X23144163Y-25369720D01*
X23137837Y-25375568D01*
X23137854Y-25375585D01*
X23133267Y-25380171D01*
X23133265Y-25380173D01*
X23082238Y-25431200D01*
X23049386Y-25464052D01*
X23049385Y-25464053D01*
X22990080Y-25566771D01*
X22975699Y-25620444D01*
X22959378Y-25681353D01*
X22959378Y-25799971D01*
X22975598Y-25860504D01*
X22990080Y-25914552D01*
X23049385Y-26017270D01*
X23049387Y-26017272D01*
X23049389Y-26017275D01*
X23133265Y-26101151D01*
X23133267Y-26101152D01*
X23133269Y-26101154D01*
X23235988Y-26160459D01*
X23235989Y-26160459D01*
X23235992Y-26160461D01*
X23350569Y-26191162D01*
X23350571Y-26191162D01*
X23469185Y-26191162D01*
X23469187Y-26191162D01*
X23583764Y-26160461D01*
X23583766Y-26160459D01*
X23583768Y-26160459D01*
X23686486Y-26101154D01*
X23686486Y-26101153D01*
X23686491Y-26101151D01*
X23770367Y-26017275D01*
X23829677Y-25914548D01*
X23860378Y-25799971D01*
X23860378Y-25681353D01*
X23851977Y-25650000D01*
X25607639Y-25650000D01*
X26203012Y-25650000D01*
X26185795Y-25659940D01*
X26129940Y-25715795D01*
X26090444Y-25784204D01*
X26070000Y-25860504D01*
X26070000Y-25939496D01*
X26090444Y-26015796D01*
X26129940Y-26084205D01*
X26185795Y-26140060D01*
X26203012Y-26150000D01*
X25607639Y-26150000D01*
X25661048Y-26278940D01*
X25661052Y-26278949D01*
X25748599Y-26409969D01*
X25748602Y-26409973D01*
X25860026Y-26521397D01*
X25860030Y-26521400D01*
X25991050Y-26608947D01*
X25991059Y-26608951D01*
X26136650Y-26669257D01*
X26291204Y-26699999D01*
X26291208Y-26700000D01*
X26669999Y-26700000D01*
X26670000Y-26699999D01*
X26670000Y-26200000D01*
X27170000Y-26200000D01*
X27170000Y-26699999D01*
X27170001Y-26700000D01*
X27548792Y-26700000D01*
X27548795Y-26699999D01*
X27703349Y-26669257D01*
X27848940Y-26608951D01*
X27848949Y-26608947D01*
X27979969Y-26521400D01*
X27979973Y-26521397D01*
X28091397Y-26409973D01*
X28091400Y-26409969D01*
X28178947Y-26278949D01*
X28178951Y-26278940D01*
X28232361Y-26150000D01*
X27636988Y-26150000D01*
X27654205Y-26140060D01*
X27710060Y-26084205D01*
X27749556Y-26015796D01*
X27770000Y-25939496D01*
X27770000Y-25860504D01*
X27762096Y-25831004D01*
X29999500Y-25831004D01*
X29999500Y-25831007D01*
X29999500Y-25968993D01*
X30025788Y-26101153D01*
X30026420Y-26104327D01*
X30026420Y-26104329D01*
X30079222Y-26231806D01*
X30079228Y-26231817D01*
X30155885Y-26346541D01*
X30253458Y-26444114D01*
X30368182Y-26520771D01*
X30368193Y-26520777D01*
X30415283Y-26540282D01*
X30495672Y-26573580D01*
X30631007Y-26600500D01*
X30631008Y-26600500D01*
X31568992Y-26600500D01*
X31568993Y-26600500D01*
X31704328Y-26573580D01*
X31831811Y-26520775D01*
X31946542Y-26444114D01*
X32044114Y-26346542D01*
X32120775Y-26231811D01*
X32173580Y-26104328D01*
X32200500Y-25968993D01*
X32200500Y-25831007D01*
X32173580Y-25695672D01*
X32120775Y-25568189D01*
X32120774Y-25568187D01*
X32120771Y-25568182D01*
X32044114Y-25453458D01*
X31946541Y-25355885D01*
X31831817Y-25279228D01*
X31831806Y-25279222D01*
X31704328Y-25226420D01*
X31568995Y-25199500D01*
X31568993Y-25199500D01*
X30631007Y-25199500D01*
X30631004Y-25199500D01*
X30495672Y-25226420D01*
X30495670Y-25226420D01*
X30368193Y-25279222D01*
X30368182Y-25279228D01*
X30253458Y-25355885D01*
X30155885Y-25453458D01*
X30079228Y-25568182D01*
X30079222Y-25568193D01*
X30026420Y-25695670D01*
X30026420Y-25695672D01*
X29999500Y-25831004D01*
X27762096Y-25831004D01*
X27749556Y-25784204D01*
X27710060Y-25715795D01*
X27654205Y-25659940D01*
X27636988Y-25650000D01*
X28232360Y-25650000D01*
X28178951Y-25521059D01*
X28178947Y-25521050D01*
X28091400Y-25390030D01*
X28091397Y-25390026D01*
X27979973Y-25278602D01*
X27979969Y-25278599D01*
X27848949Y-25191052D01*
X27848940Y-25191048D01*
X27703348Y-25130742D01*
X27703343Y-25130741D01*
X27681090Y-25126314D01*
X27627707Y-25096417D01*
X27602092Y-25040851D01*
X27614030Y-24980842D01*
X27650904Y-24943482D01*
X27742665Y-24890505D01*
X27840505Y-24792665D01*
X27909688Y-24672836D01*
X27945500Y-24539183D01*
X27945500Y-24400817D01*
X27909688Y-24267164D01*
X27840505Y-24147335D01*
X27742665Y-24049495D01*
X27622836Y-23980312D01*
X27489183Y-23944500D01*
X27350817Y-23944500D01*
X27217164Y-23980312D01*
X27097335Y-24049495D01*
X26999495Y-24147335D01*
X26930312Y-24267164D01*
X26894500Y-24400817D01*
X26894500Y-24539183D01*
X26930312Y-24672836D01*
X26999495Y-24792665D01*
X27097335Y-24890505D01*
X27164484Y-24929273D01*
X27205424Y-24974742D01*
X27211820Y-25035592D01*
X27184987Y-25085012D01*
X27170000Y-25099999D01*
X27170000Y-25600000D01*
X26670000Y-25600000D01*
X26670000Y-25100001D01*
X26669999Y-25100000D01*
X26291204Y-25100000D01*
X26136650Y-25130742D01*
X25991059Y-25191048D01*
X25991050Y-25191052D01*
X25860030Y-25278599D01*
X25860026Y-25278602D01*
X25748602Y-25390026D01*
X25748599Y-25390030D01*
X25661052Y-25521050D01*
X25661048Y-25521059D01*
X25607639Y-25650000D01*
X23851977Y-25650000D01*
X23829677Y-25566776D01*
X23818711Y-25547784D01*
X23815429Y-25537184D01*
X23815705Y-25517149D01*
X23811539Y-25497550D01*
X23816118Y-25487263D01*
X23816274Y-25476005D01*
X23828273Y-25459959D01*
X23836423Y-25441654D01*
X23842751Y-25435804D01*
X23842735Y-25435788D01*
X23847321Y-25431201D01*
X23847324Y-25431200D01*
X23931200Y-25347324D01*
X23936124Y-25338795D01*
X23990508Y-25244601D01*
X23990508Y-25244599D01*
X23990510Y-25244597D01*
X24021211Y-25130020D01*
X24021211Y-25011402D01*
X23990510Y-24896825D01*
X23990508Y-24896822D01*
X23990508Y-24896820D01*
X23931203Y-24794102D01*
X23931201Y-24794100D01*
X23931200Y-24794098D01*
X23847324Y-24710222D01*
X23847321Y-24710220D01*
X23847319Y-24710218D01*
X23744600Y-24650913D01*
X23744597Y-24650912D01*
X23739272Y-24649485D01*
X23723353Y-24645219D01*
X23672040Y-24611892D01*
X23652477Y-24571688D01*
X23649980Y-24560782D01*
X23649980Y-24540031D01*
X23619279Y-24425454D01*
X23618808Y-24424638D01*
X23559972Y-24322731D01*
X23559970Y-24322729D01*
X23559969Y-24322727D01*
X23476093Y-24238851D01*
X23476090Y-24238849D01*
X23476088Y-24238847D01*
X23373369Y-24179542D01*
X23373370Y-24179542D01*
X23359831Y-24175914D01*
X23258789Y-24148840D01*
X23140171Y-24148840D01*
X23070047Y-24167629D01*
X23025589Y-24179542D01*
X22922871Y-24238847D01*
X22838987Y-24322731D01*
X22779682Y-24425449D01*
X22763983Y-24484041D01*
X22748980Y-24540031D01*
X22221610Y-24540031D01*
X22253936Y-24484042D01*
X22253936Y-24484041D01*
X22254233Y-24483525D01*
X22259799Y-24473886D01*
X22290500Y-24359309D01*
X22290500Y-24240691D01*
X22259799Y-24126114D01*
X22259797Y-24126111D01*
X22259797Y-24126109D01*
X22200492Y-24023391D01*
X22200490Y-24023389D01*
X22200489Y-24023387D01*
X22116613Y-23939511D01*
X22116610Y-23939509D01*
X22116608Y-23939507D01*
X22013889Y-23880202D01*
X22013890Y-23880202D01*
X21979536Y-23870997D01*
X21899309Y-23849500D01*
X21780691Y-23849500D01*
X21710567Y-23868289D01*
X21666109Y-23880202D01*
X21563391Y-23939507D01*
X21479507Y-24023391D01*
X21420202Y-24126109D01*
X21405885Y-24179541D01*
X21389500Y-24240691D01*
X20525034Y-24240691D01*
X20519799Y-24221154D01*
X20514545Y-24212054D01*
X20460492Y-24118431D01*
X20460490Y-24118429D01*
X20460489Y-24118427D01*
X20376613Y-24034551D01*
X20376610Y-24034549D01*
X20376608Y-24034547D01*
X20273889Y-23975242D01*
X20273890Y-23975242D01*
X20239943Y-23966146D01*
X20159309Y-23944540D01*
X20040691Y-23944540D01*
X19970567Y-23963329D01*
X19926109Y-23975242D01*
X19823391Y-24034547D01*
X19739507Y-24118431D01*
X19680202Y-24221149D01*
X19663874Y-24282085D01*
X19649500Y-24335731D01*
X18957876Y-24335731D01*
X18957876Y-24231486D01*
X18927175Y-24116909D01*
X18927173Y-24116906D01*
X18927173Y-24116904D01*
X18867868Y-24014186D01*
X18867866Y-24014184D01*
X18867865Y-24014182D01*
X18783989Y-23930306D01*
X18783986Y-23930304D01*
X18783984Y-23930302D01*
X18681265Y-23870997D01*
X18681266Y-23870997D01*
X18667727Y-23867369D01*
X18566685Y-23840295D01*
X18448067Y-23840295D01*
X18377943Y-23859084D01*
X18333485Y-23870997D01*
X18230767Y-23930302D01*
X18146883Y-24014186D01*
X18087578Y-24116904D01*
X18081521Y-24139509D01*
X18056876Y-24231486D01*
X17110949Y-24231486D01*
X17105744Y-24212059D01*
X17105742Y-24212056D01*
X17105742Y-24212054D01*
X17046437Y-24109336D01*
X17046435Y-24109334D01*
X17046434Y-24109332D01*
X16962558Y-24025456D01*
X16962555Y-24025454D01*
X16962553Y-24025452D01*
X16859834Y-23966147D01*
X16859835Y-23966147D01*
X16846296Y-23962519D01*
X16745254Y-23935445D01*
X16626636Y-23935445D01*
X16556512Y-23954234D01*
X16512054Y-23966147D01*
X16409336Y-24025452D01*
X16325452Y-24109336D01*
X16266147Y-24212054D01*
X16253347Y-24259824D01*
X16235445Y-24326636D01*
X16235445Y-24445254D01*
X16266146Y-24559831D01*
X16304094Y-24625559D01*
X16314882Y-24644243D01*
X16327604Y-24704091D01*
X16302718Y-24759987D01*
X16299150Y-24763747D01*
X16239511Y-24823386D01*
X16239507Y-24823391D01*
X16180202Y-24926109D01*
X16176862Y-24938575D01*
X16149500Y-25040691D01*
X200500Y-25040691D01*
X200500Y-22740691D01*
X1149500Y-22740691D01*
X1149500Y-22859309D01*
X1170990Y-22939509D01*
X1180202Y-22973890D01*
X1239507Y-23076608D01*
X1239509Y-23076610D01*
X1239511Y-23076613D01*
X1323387Y-23160489D01*
X1323389Y-23160490D01*
X1323391Y-23160492D01*
X1426110Y-23219797D01*
X1426111Y-23219797D01*
X1426114Y-23219799D01*
X1540691Y-23250500D01*
X1540693Y-23250500D01*
X1659307Y-23250500D01*
X1659309Y-23250500D01*
X1773886Y-23219799D01*
X1773888Y-23219797D01*
X1773890Y-23219797D01*
X1876608Y-23160492D01*
X1876608Y-23160491D01*
X1876613Y-23160489D01*
X1960489Y-23076613D01*
X1962061Y-23073890D01*
X2019797Y-22973890D01*
X2019797Y-22973888D01*
X2019799Y-22973886D01*
X2050500Y-22859309D01*
X2050500Y-22740691D01*
X2019799Y-22626114D01*
X2019797Y-22626111D01*
X2019797Y-22626109D01*
X1995313Y-22583702D01*
X1970480Y-22540691D01*
X10149500Y-22540691D01*
X10149500Y-22659309D01*
X10171306Y-22740691D01*
X10180202Y-22773890D01*
X10239507Y-22876608D01*
X10239509Y-22876610D01*
X10239511Y-22876613D01*
X10323387Y-22960489D01*
X10323389Y-22960490D01*
X10323391Y-22960492D01*
X10426110Y-23019797D01*
X10426111Y-23019797D01*
X10426114Y-23019799D01*
X10540691Y-23050500D01*
X10540693Y-23050500D01*
X10659307Y-23050500D01*
X10659309Y-23050500D01*
X10773886Y-23019799D01*
X10773888Y-23019797D01*
X10773890Y-23019797D01*
X10876608Y-22960492D01*
X10876608Y-22960491D01*
X10876613Y-22960489D01*
X10960489Y-22876613D01*
X10962061Y-22873890D01*
X10981229Y-22840691D01*
X12849500Y-22840691D01*
X12849500Y-22959309D01*
X12866670Y-23023387D01*
X12880202Y-23073890D01*
X12939507Y-23176608D01*
X12939509Y-23176610D01*
X12939511Y-23176613D01*
X13023387Y-23260489D01*
X13023389Y-23260490D01*
X13023391Y-23260492D01*
X13121395Y-23317075D01*
X13162336Y-23362544D01*
X13168732Y-23423395D01*
X13167523Y-23428428D01*
X13149500Y-23495692D01*
X13149500Y-23614310D01*
X13161874Y-23660489D01*
X13180202Y-23728891D01*
X13239507Y-23831609D01*
X13239509Y-23831611D01*
X13239511Y-23831614D01*
X13323387Y-23915490D01*
X13330230Y-23919441D01*
X13418894Y-23970632D01*
X13459834Y-24016102D01*
X13466229Y-24076952D01*
X13435636Y-24129940D01*
X13428310Y-24135265D01*
X13428536Y-24135560D01*
X13423390Y-24139508D01*
X13339507Y-24223391D01*
X13280202Y-24326109D01*
X13271307Y-24359307D01*
X13249500Y-24440691D01*
X13249500Y-24559309D01*
X13254137Y-24576613D01*
X13280202Y-24673890D01*
X13339507Y-24776608D01*
X13339509Y-24776610D01*
X13339511Y-24776613D01*
X13423387Y-24860489D01*
X13423389Y-24860490D01*
X13423391Y-24860492D01*
X13526110Y-24919797D01*
X13526111Y-24919797D01*
X13526114Y-24919799D01*
X13640691Y-24950500D01*
X13640693Y-24950500D01*
X13759307Y-24950500D01*
X13759309Y-24950500D01*
X13873886Y-24919799D01*
X13873888Y-24919797D01*
X13873890Y-24919797D01*
X13976608Y-24860492D01*
X13976608Y-24860491D01*
X13976613Y-24860489D01*
X14060489Y-24776613D01*
X14072662Y-24755529D01*
X14119797Y-24673890D01*
X14119797Y-24673888D01*
X14119799Y-24673886D01*
X14150500Y-24559309D01*
X14150500Y-24440691D01*
X14119799Y-24326114D01*
X14069546Y-24239074D01*
X15049500Y-24239074D01*
X15049500Y-24357692D01*
X15061056Y-24400818D01*
X15080202Y-24472273D01*
X15139507Y-24574991D01*
X15139509Y-24574993D01*
X15139511Y-24574996D01*
X15223387Y-24658872D01*
X15223389Y-24658873D01*
X15223391Y-24658875D01*
X15326110Y-24718180D01*
X15326111Y-24718180D01*
X15326114Y-24718182D01*
X15440691Y-24748883D01*
X15440693Y-24748883D01*
X15559307Y-24748883D01*
X15559309Y-24748883D01*
X15673886Y-24718182D01*
X15673888Y-24718180D01*
X15673890Y-24718180D01*
X15776608Y-24658875D01*
X15776608Y-24658874D01*
X15776613Y-24658872D01*
X15860489Y-24574996D01*
X15869242Y-24559835D01*
X15919797Y-24472273D01*
X15919797Y-24472271D01*
X15919799Y-24472269D01*
X15950500Y-24357692D01*
X15950500Y-24239074D01*
X15919799Y-24124497D01*
X15919797Y-24124494D01*
X15919797Y-24124492D01*
X15860492Y-24021774D01*
X15860490Y-24021772D01*
X15860489Y-24021770D01*
X15776613Y-23937894D01*
X15776610Y-23937892D01*
X15776608Y-23937890D01*
X15673889Y-23878585D01*
X15673890Y-23878585D01*
X15645567Y-23870996D01*
X15559309Y-23847883D01*
X15440691Y-23847883D01*
X15370567Y-23866672D01*
X15326109Y-23878585D01*
X15223391Y-23937890D01*
X15139507Y-24021774D01*
X15080202Y-24124492D01*
X15073678Y-24148840D01*
X15049500Y-24239074D01*
X14069546Y-24239074D01*
X14060489Y-24223387D01*
X13976613Y-24139511D01*
X13960036Y-24129940D01*
X13881105Y-24084368D01*
X13840165Y-24038898D01*
X13833770Y-23978048D01*
X13864363Y-23925060D01*
X13871691Y-23919737D01*
X13871464Y-23919441D01*
X13876607Y-23915493D01*
X13876613Y-23915490D01*
X13960489Y-23831614D01*
X14019799Y-23728887D01*
X14050500Y-23614310D01*
X14050500Y-23495692D01*
X14019799Y-23381115D01*
X14019797Y-23381112D01*
X14019797Y-23381110D01*
X13963559Y-23283704D01*
X13963558Y-23283703D01*
X13960490Y-23278390D01*
X13960489Y-23278388D01*
X13922792Y-23240691D01*
X24349500Y-23240691D01*
X24349500Y-23359309D01*
X24350367Y-23362544D01*
X24380202Y-23473890D01*
X24439507Y-23576608D01*
X24439509Y-23576610D01*
X24439511Y-23576613D01*
X24523387Y-23660489D01*
X24523389Y-23660490D01*
X24523391Y-23660492D01*
X24626110Y-23719797D01*
X24626111Y-23719797D01*
X24626114Y-23719799D01*
X24740691Y-23750500D01*
X24740693Y-23750500D01*
X24859307Y-23750500D01*
X24859309Y-23750500D01*
X24973886Y-23719799D01*
X24973888Y-23719797D01*
X24973890Y-23719797D01*
X25076608Y-23660492D01*
X25076608Y-23660491D01*
X25076613Y-23660489D01*
X25160489Y-23576613D01*
X25219799Y-23473886D01*
X25250500Y-23359309D01*
X25250500Y-23240691D01*
X25245241Y-23221065D01*
X25248441Y-23159967D01*
X25286945Y-23112416D01*
X25291332Y-23109726D01*
X25376613Y-23060489D01*
X25460489Y-22976613D01*
X25462061Y-22973890D01*
X25519797Y-22873890D01*
X25519797Y-22873888D01*
X25519799Y-22873886D01*
X25550500Y-22759309D01*
X25550500Y-22640691D01*
X25519799Y-22526114D01*
X25519797Y-22526111D01*
X25519797Y-22526109D01*
X25460492Y-22423391D01*
X25460490Y-22423389D01*
X25460489Y-22423387D01*
X25376613Y-22339511D01*
X25376610Y-22339509D01*
X25376608Y-22339507D01*
X25273889Y-22280202D01*
X25273890Y-22280202D01*
X25250318Y-22273886D01*
X25159309Y-22249500D01*
X25040691Y-22249500D01*
X24970567Y-22268289D01*
X24926109Y-22280202D01*
X24823391Y-22339507D01*
X24739507Y-22423391D01*
X24680202Y-22526109D01*
X24680201Y-22526114D01*
X24649500Y-22640691D01*
X24649500Y-22759309D01*
X24653131Y-22772860D01*
X24654759Y-22778937D01*
X24651554Y-22840039D01*
X24613047Y-22887587D01*
X24608632Y-22890293D01*
X24523389Y-22939509D01*
X24439507Y-23023391D01*
X24380202Y-23126109D01*
X24380201Y-23126114D01*
X24349500Y-23240691D01*
X13922792Y-23240691D01*
X13876613Y-23194512D01*
X13876610Y-23194510D01*
X13876608Y-23194508D01*
X13778604Y-23137925D01*
X13737663Y-23092455D01*
X13731268Y-23031605D01*
X13732471Y-23026590D01*
X13750500Y-22959309D01*
X13750500Y-22840691D01*
X13719799Y-22726114D01*
X13719797Y-22726111D01*
X13719797Y-22726109D01*
X13660492Y-22623391D01*
X13660490Y-22623389D01*
X13660489Y-22623387D01*
X13576613Y-22539511D01*
X13576610Y-22539509D01*
X13576608Y-22539507D01*
X13473889Y-22480202D01*
X13473890Y-22480202D01*
X13460351Y-22476574D01*
X13359309Y-22449500D01*
X13240691Y-22449500D01*
X13199669Y-22460492D01*
X13126109Y-22480202D01*
X13023391Y-22539507D01*
X12939507Y-22623391D01*
X12880202Y-22726109D01*
X12880201Y-22726114D01*
X12849500Y-22840691D01*
X10981229Y-22840691D01*
X11013555Y-22784702D01*
X11013555Y-22784701D01*
X11014214Y-22783558D01*
X11019799Y-22773886D01*
X11050500Y-22659309D01*
X11050500Y-22628557D01*
X11069407Y-22570366D01*
X11118907Y-22534402D01*
X11175123Y-22532931D01*
X11240691Y-22550500D01*
X11240692Y-22550500D01*
X11359307Y-22550500D01*
X11359309Y-22550500D01*
X11473886Y-22519799D01*
X11473888Y-22519797D01*
X11473890Y-22519797D01*
X11576608Y-22460492D01*
X11576608Y-22460491D01*
X11576613Y-22460489D01*
X11660489Y-22376613D01*
X11681910Y-22339511D01*
X11719797Y-22273890D01*
X11719797Y-22273888D01*
X11719799Y-22273886D01*
X11750500Y-22159309D01*
X11750500Y-22040691D01*
X11719799Y-21926114D01*
X11719797Y-21926111D01*
X11719797Y-21926109D01*
X11660492Y-21823391D01*
X11660490Y-21823389D01*
X11660489Y-21823387D01*
X11576613Y-21739511D01*
X11576610Y-21739509D01*
X11576608Y-21739507D01*
X11473889Y-21680202D01*
X11473890Y-21680202D01*
X11460351Y-21676574D01*
X11359309Y-21649500D01*
X11240691Y-21649500D01*
X11188402Y-21663511D01*
X11126109Y-21680202D01*
X11023391Y-21739507D01*
X10939507Y-21823391D01*
X10880202Y-21926109D01*
X10880201Y-21926114D01*
X10857378Y-22011292D01*
X10849500Y-22040692D01*
X10849500Y-22071442D01*
X10830593Y-22129633D01*
X10781093Y-22165597D01*
X10724877Y-22167069D01*
X10659309Y-22149500D01*
X10540691Y-22149500D01*
X10504084Y-22159309D01*
X10426109Y-22180202D01*
X10323391Y-22239507D01*
X10239507Y-22323391D01*
X10180202Y-22426109D01*
X10170990Y-22460489D01*
X10149500Y-22540691D01*
X1970480Y-22540691D01*
X1960492Y-22523391D01*
X1960490Y-22523389D01*
X1960489Y-22523387D01*
X1876613Y-22439511D01*
X1876610Y-22439509D01*
X1876608Y-22439507D01*
X1773889Y-22380202D01*
X1773890Y-22380202D01*
X1760351Y-22376574D01*
X1659309Y-22349500D01*
X1540691Y-22349500D01*
X1470567Y-22368289D01*
X1426109Y-22380202D01*
X1323391Y-22439507D01*
X1239507Y-22523391D01*
X1180202Y-22626109D01*
X1180201Y-22626114D01*
X1149500Y-22740691D01*
X200500Y-22740691D01*
X200500Y-20440691D01*
X5549500Y-20440691D01*
X5549500Y-20559309D01*
X5576574Y-20660351D01*
X5580202Y-20673890D01*
X5639507Y-20776608D01*
X5639509Y-20776610D01*
X5639511Y-20776613D01*
X5723387Y-20860489D01*
X5723389Y-20860490D01*
X5723391Y-20860492D01*
X5826110Y-20919797D01*
X5826111Y-20919797D01*
X5826114Y-20919799D01*
X5940691Y-20950500D01*
X5940693Y-20950500D01*
X6059307Y-20950500D01*
X6059309Y-20950500D01*
X6173886Y-20919799D01*
X6173888Y-20919797D01*
X6173890Y-20919797D01*
X6276608Y-20860492D01*
X6276608Y-20860491D01*
X6276613Y-20860489D01*
X6360489Y-20776613D01*
X6360787Y-20776096D01*
X13963556Y-20776096D01*
X13963556Y-20894714D01*
X13979571Y-20954482D01*
X13994258Y-21009295D01*
X14053563Y-21112013D01*
X14053565Y-21112015D01*
X14053567Y-21112018D01*
X14137443Y-21195894D01*
X14137445Y-21195895D01*
X14137447Y-21195897D01*
X14240166Y-21255202D01*
X14240167Y-21255202D01*
X14240170Y-21255204D01*
X14277504Y-21265207D01*
X14328818Y-21298532D01*
X14350744Y-21355653D01*
X14334908Y-21414754D01*
X14301381Y-21446570D01*
X14248829Y-21476911D01*
X14164947Y-21560793D01*
X14105642Y-21663511D01*
X14105641Y-21663516D01*
X14074940Y-21778093D01*
X14074940Y-21896711D01*
X14082819Y-21926114D01*
X14105642Y-22011292D01*
X14164947Y-22114010D01*
X14164949Y-22114012D01*
X14164951Y-22114015D01*
X14248827Y-22197891D01*
X14248829Y-22197892D01*
X14248831Y-22197894D01*
X14351550Y-22257199D01*
X14351551Y-22257199D01*
X14351554Y-22257201D01*
X14466131Y-22287902D01*
X14466133Y-22287902D01*
X14584747Y-22287902D01*
X14584749Y-22287902D01*
X14699326Y-22257201D01*
X14699328Y-22257199D01*
X14699330Y-22257199D01*
X14802048Y-22197894D01*
X14802048Y-22197893D01*
X14802053Y-22197891D01*
X14885929Y-22114015D01*
X14910509Y-22071442D01*
X14945237Y-22011292D01*
X14945237Y-22011290D01*
X14945239Y-22011288D01*
X14975940Y-21896711D01*
X14975940Y-21778093D01*
X14945239Y-21663516D01*
X14945237Y-21663513D01*
X14945237Y-21663511D01*
X14885932Y-21560793D01*
X14885930Y-21560791D01*
X14885929Y-21560789D01*
X14802053Y-21476913D01*
X14802050Y-21476911D01*
X14802048Y-21476909D01*
X14699329Y-21417604D01*
X14699327Y-21417603D01*
X14661990Y-21407598D01*
X14610676Y-21374273D01*
X14588751Y-21317151D01*
X14604588Y-21258051D01*
X14638113Y-21226236D01*
X14690669Y-21195894D01*
X14774545Y-21112018D01*
X14774548Y-21112013D01*
X14833853Y-21009295D01*
X14833853Y-21009293D01*
X14833855Y-21009291D01*
X14864556Y-20894714D01*
X14864556Y-20835864D01*
X22574498Y-20835864D01*
X22574498Y-20954482D01*
X22589184Y-21009291D01*
X22605200Y-21069063D01*
X22664505Y-21171781D01*
X22664507Y-21171783D01*
X22664509Y-21171786D01*
X22748385Y-21255662D01*
X22748387Y-21255663D01*
X22748389Y-21255665D01*
X22851108Y-21314970D01*
X22851109Y-21314970D01*
X22851112Y-21314972D01*
X22965689Y-21345673D01*
X22965691Y-21345673D01*
X23084305Y-21345673D01*
X23084307Y-21345673D01*
X23198884Y-21314972D01*
X23198886Y-21314970D01*
X23198888Y-21314970D01*
X23301606Y-21255665D01*
X23301606Y-21255664D01*
X23301611Y-21255662D01*
X23385487Y-21171786D01*
X23385490Y-21171781D01*
X23444795Y-21069063D01*
X23444795Y-21069061D01*
X23444797Y-21069059D01*
X23475498Y-20954482D01*
X23475498Y-20870928D01*
X23494405Y-20812737D01*
X23524998Y-20785192D01*
X23605840Y-20738517D01*
X23605840Y-20738516D01*
X23605845Y-20738514D01*
X23689721Y-20654638D01*
X23745056Y-20558796D01*
X23749029Y-20551915D01*
X23749029Y-20551913D01*
X23749031Y-20551911D01*
X23779732Y-20437334D01*
X23779732Y-20318716D01*
X23749031Y-20204139D01*
X23749029Y-20204136D01*
X23749029Y-20204134D01*
X23704797Y-20127523D01*
X23692075Y-20067675D01*
X23704797Y-20028522D01*
X23749031Y-19951908D01*
X23779732Y-19837331D01*
X23779732Y-19718713D01*
X23749031Y-19604136D01*
X23749029Y-19604133D01*
X23749029Y-19604131D01*
X23689724Y-19501413D01*
X23689722Y-19501411D01*
X23689721Y-19501409D01*
X23605845Y-19417533D01*
X23605842Y-19417531D01*
X23605840Y-19417529D01*
X23503121Y-19358224D01*
X23503122Y-19358224D01*
X23489583Y-19354596D01*
X23388541Y-19327522D01*
X23269923Y-19327522D01*
X23199799Y-19346311D01*
X23155341Y-19358224D01*
X23052623Y-19417529D01*
X22968739Y-19501413D01*
X22909434Y-19604131D01*
X22909433Y-19604136D01*
X22878732Y-19718713D01*
X22878732Y-19837331D01*
X22905806Y-19938373D01*
X22909434Y-19951912D01*
X22953666Y-20028523D01*
X22966388Y-20088371D01*
X22953667Y-20127523D01*
X22909433Y-20204137D01*
X22878732Y-20318717D01*
X22878732Y-20402270D01*
X22859825Y-20460461D01*
X22829232Y-20488006D01*
X22748389Y-20534680D01*
X22664505Y-20618564D01*
X22605200Y-20721282D01*
X22605199Y-20721287D01*
X22574498Y-20835864D01*
X14864556Y-20835864D01*
X14864556Y-20776096D01*
X14833855Y-20661519D01*
X14833853Y-20661516D01*
X14833853Y-20661514D01*
X14774548Y-20558796D01*
X14774546Y-20558794D01*
X14774545Y-20558792D01*
X14740082Y-20524329D01*
X14712307Y-20469815D01*
X14721878Y-20409383D01*
X14760589Y-20368591D01*
X14772890Y-20361489D01*
X14856766Y-20277613D01*
X14856769Y-20277608D01*
X14916074Y-20174890D01*
X14916074Y-20174888D01*
X14916076Y-20174886D01*
X14946777Y-20060309D01*
X14946777Y-19941691D01*
X14916076Y-19827114D01*
X14916074Y-19827111D01*
X14916074Y-19827109D01*
X14861935Y-19733338D01*
X14849213Y-19673490D01*
X14874100Y-19617594D01*
X14877649Y-19613853D01*
X14943469Y-19548034D01*
X14943472Y-19548029D01*
X15002777Y-19445311D01*
X15002778Y-19445308D01*
X15002779Y-19445307D01*
X15033480Y-19330730D01*
X15033480Y-19212112D01*
X15002779Y-19097535D01*
X15002777Y-19097532D01*
X15002777Y-19097530D01*
X14943472Y-18994812D01*
X14943467Y-18994806D01*
X14928218Y-18979556D01*
X14900441Y-18925039D01*
X14910014Y-18864607D01*
X14912468Y-18860086D01*
X14917484Y-18851400D01*
X14948185Y-18736823D01*
X14948185Y-18620817D01*
X26894500Y-18620817D01*
X26894500Y-18759183D01*
X26930312Y-18892836D01*
X26999495Y-19012665D01*
X27097335Y-19110505D01*
X27217164Y-19179688D01*
X27350817Y-19215500D01*
X27350819Y-19215500D01*
X27489181Y-19215500D01*
X27489183Y-19215500D01*
X27622836Y-19179688D01*
X27742665Y-19110505D01*
X27840505Y-19012665D01*
X27909688Y-18892836D01*
X27945500Y-18759183D01*
X27945500Y-18620817D01*
X27909688Y-18487164D01*
X27840505Y-18367335D01*
X27742665Y-18269495D01*
X27622836Y-18200312D01*
X27489183Y-18164500D01*
X27350817Y-18164500D01*
X27217164Y-18200312D01*
X27097335Y-18269495D01*
X26999495Y-18367335D01*
X26930312Y-18487164D01*
X26894500Y-18620817D01*
X14948185Y-18620817D01*
X14948185Y-18618205D01*
X14917484Y-18503628D01*
X14917482Y-18503625D01*
X14917482Y-18503623D01*
X14858177Y-18400905D01*
X14858175Y-18400903D01*
X14858174Y-18400901D01*
X14774298Y-18317025D01*
X14774295Y-18317023D01*
X14774293Y-18317021D01*
X14671574Y-18257716D01*
X14671575Y-18257716D01*
X14651190Y-18252254D01*
X14556994Y-18227014D01*
X14438376Y-18227014D01*
X14368252Y-18245803D01*
X14323794Y-18257716D01*
X14221076Y-18317021D01*
X14137192Y-18400905D01*
X14077887Y-18503623D01*
X14065597Y-18549492D01*
X14047185Y-18618205D01*
X14047185Y-18736823D01*
X14060532Y-18786633D01*
X14077887Y-18851404D01*
X14137192Y-18954122D01*
X14137194Y-18954124D01*
X14137196Y-18954127D01*
X14152446Y-18969377D01*
X14180222Y-19023892D01*
X14170651Y-19084324D01*
X14168179Y-19088876D01*
X14163182Y-19097530D01*
X14146017Y-19161590D01*
X14132480Y-19212112D01*
X14132480Y-19330730D01*
X14139847Y-19358223D01*
X14163181Y-19445308D01*
X14217322Y-19539082D01*
X14230043Y-19598930D01*
X14205156Y-19654826D01*
X14201589Y-19658585D01*
X14135788Y-19724386D01*
X14135784Y-19724391D01*
X14076479Y-19827109D01*
X14076478Y-19827114D01*
X14045777Y-19941691D01*
X14045777Y-20060309D01*
X14056791Y-20101412D01*
X14076479Y-20174890D01*
X14135784Y-20277608D01*
X14135786Y-20277610D01*
X14135788Y-20277613D01*
X14170249Y-20312074D01*
X14198025Y-20366589D01*
X14188454Y-20427021D01*
X14149749Y-20467810D01*
X14137445Y-20474914D01*
X14053563Y-20558796D01*
X13994258Y-20661514D01*
X13994257Y-20661519D01*
X13963556Y-20776096D01*
X6360787Y-20776096D01*
X6419799Y-20673886D01*
X6450500Y-20559309D01*
X6450500Y-20440691D01*
X6419799Y-20326114D01*
X6419797Y-20326111D01*
X6419797Y-20326109D01*
X6360492Y-20223391D01*
X6360490Y-20223389D01*
X6360489Y-20223387D01*
X6276613Y-20139511D01*
X6276610Y-20139509D01*
X6276608Y-20139507D01*
X6173889Y-20080202D01*
X6173890Y-20080202D01*
X6160351Y-20076574D01*
X6059309Y-20049500D01*
X5940691Y-20049500D01*
X5900352Y-20060309D01*
X5826109Y-20080202D01*
X5723391Y-20139507D01*
X5639507Y-20223391D01*
X5580202Y-20326109D01*
X5580201Y-20326114D01*
X5549500Y-20440691D01*
X200500Y-20440691D01*
X200500Y-18366836D01*
X7954059Y-18366836D01*
X7954059Y-18485454D01*
X7971217Y-18549489D01*
X7984761Y-18600035D01*
X8044066Y-18702753D01*
X8044068Y-18702755D01*
X8044070Y-18702758D01*
X8127946Y-18786634D01*
X8127948Y-18786635D01*
X8127950Y-18786637D01*
X8230669Y-18845942D01*
X8230670Y-18845942D01*
X8230673Y-18845944D01*
X8345250Y-18876645D01*
X8345252Y-18876645D01*
X8463866Y-18876645D01*
X8463868Y-18876645D01*
X8578445Y-18845944D01*
X8578447Y-18845942D01*
X8578449Y-18845942D01*
X8681167Y-18786637D01*
X8681167Y-18786636D01*
X8681172Y-18786634D01*
X8718205Y-18749600D01*
X8772719Y-18721824D01*
X8833151Y-18731395D01*
X8858211Y-18749601D01*
X8862365Y-18753755D01*
X8862367Y-18753758D01*
X8946243Y-18837634D01*
X8946245Y-18837635D01*
X8946247Y-18837637D01*
X9048966Y-18896942D01*
X9048967Y-18896942D01*
X9048970Y-18896944D01*
X9163547Y-18927645D01*
X9163549Y-18927645D01*
X9282163Y-18927645D01*
X9282165Y-18927645D01*
X9396742Y-18896944D01*
X9396744Y-18896942D01*
X9396746Y-18896942D01*
X9499464Y-18837637D01*
X9499464Y-18837636D01*
X9499469Y-18837634D01*
X9583345Y-18753758D01*
X9583348Y-18753753D01*
X9642653Y-18651035D01*
X9642653Y-18651033D01*
X9642655Y-18651031D01*
X9673356Y-18536454D01*
X9673356Y-18417836D01*
X9642655Y-18303259D01*
X9629626Y-18280692D01*
X9629625Y-18280691D01*
X11249500Y-18280691D01*
X11249500Y-18399309D01*
X11254465Y-18417837D01*
X11280202Y-18513890D01*
X11339507Y-18616608D01*
X11339509Y-18616610D01*
X11339511Y-18616613D01*
X11423387Y-18700489D01*
X11423389Y-18700490D01*
X11423391Y-18700492D01*
X11526110Y-18759797D01*
X11526111Y-18759797D01*
X11526114Y-18759799D01*
X11640691Y-18790500D01*
X11640693Y-18790500D01*
X11759307Y-18790500D01*
X11759309Y-18790500D01*
X11873886Y-18759799D01*
X11873888Y-18759797D01*
X11873890Y-18759797D01*
X11976608Y-18700492D01*
X11976608Y-18700491D01*
X11976613Y-18700489D01*
X12060489Y-18616613D01*
X12060492Y-18616608D01*
X12119797Y-18513890D01*
X12119797Y-18513888D01*
X12119799Y-18513886D01*
X12150500Y-18399309D01*
X12150500Y-18280691D01*
X12119799Y-18166114D01*
X12119797Y-18166111D01*
X12119797Y-18166109D01*
X12072220Y-18083704D01*
X12072219Y-18083703D01*
X12060490Y-18063389D01*
X12060489Y-18063387D01*
X12037793Y-18040691D01*
X12349500Y-18040691D01*
X12349500Y-18159309D01*
X12352872Y-18171893D01*
X12380202Y-18273890D01*
X12439507Y-18376608D01*
X12439509Y-18376610D01*
X12439511Y-18376613D01*
X12523387Y-18460489D01*
X12523389Y-18460490D01*
X12523391Y-18460492D01*
X12626110Y-18519797D01*
X12626111Y-18519797D01*
X12626114Y-18519799D01*
X12740691Y-18550500D01*
X12740693Y-18550500D01*
X12859307Y-18550500D01*
X12859309Y-18550500D01*
X12973886Y-18519799D01*
X13041115Y-18480983D01*
X13100958Y-18468263D01*
X13156854Y-18493148D01*
X13160596Y-18496698D01*
X13213387Y-18549489D01*
X13213389Y-18549490D01*
X13213391Y-18549492D01*
X13316110Y-18608797D01*
X13316111Y-18608797D01*
X13316114Y-18608799D01*
X13430691Y-18639500D01*
X13430693Y-18639500D01*
X13549307Y-18639500D01*
X13549309Y-18639500D01*
X13663886Y-18608799D01*
X13663888Y-18608797D01*
X13663890Y-18608797D01*
X13766608Y-18549492D01*
X13766608Y-18549491D01*
X13766613Y-18549489D01*
X13850489Y-18465613D01*
X13878073Y-18417837D01*
X13909797Y-18362890D01*
X13909797Y-18362888D01*
X13909799Y-18362886D01*
X13940500Y-18248309D01*
X13940500Y-18129691D01*
X13909799Y-18015114D01*
X13909797Y-18015111D01*
X13909797Y-18015109D01*
X13850492Y-17912391D01*
X13850490Y-17912389D01*
X13850489Y-17912387D01*
X13766613Y-17828511D01*
X13766610Y-17828509D01*
X13766608Y-17828507D01*
X13663889Y-17769202D01*
X13663890Y-17769202D01*
X13650351Y-17765574D01*
X13549309Y-17738500D01*
X13430691Y-17738500D01*
X13360567Y-17757289D01*
X13316109Y-17769202D01*
X13248887Y-17808014D01*
X13189039Y-17820736D01*
X13133143Y-17795850D01*
X13129402Y-17792300D01*
X13076613Y-17739511D01*
X13076610Y-17739509D01*
X13076608Y-17739507D01*
X12973889Y-17680202D01*
X12973890Y-17680202D01*
X12960351Y-17676574D01*
X12859309Y-17649500D01*
X12740691Y-17649500D01*
X12670567Y-17668289D01*
X12626109Y-17680202D01*
X12523391Y-17739507D01*
X12439507Y-17823391D01*
X12380202Y-17926109D01*
X12370987Y-17960500D01*
X12349500Y-18040691D01*
X12037793Y-18040691D01*
X11976613Y-17979511D01*
X11976610Y-17979509D01*
X11976608Y-17979507D01*
X11873889Y-17920202D01*
X11873890Y-17920202D01*
X11844724Y-17912387D01*
X11759309Y-17889500D01*
X11640691Y-17889500D01*
X11570567Y-17908289D01*
X11526109Y-17920202D01*
X11423391Y-17979507D01*
X11339507Y-18063391D01*
X11280202Y-18166109D01*
X11263883Y-18227014D01*
X11249500Y-18280691D01*
X9629625Y-18280691D01*
X9583348Y-18200536D01*
X9583346Y-18200534D01*
X9583345Y-18200532D01*
X9499469Y-18116656D01*
X9499466Y-18116654D01*
X9499464Y-18116652D01*
X9396745Y-18057347D01*
X9396746Y-18057347D01*
X9383207Y-18053719D01*
X9282165Y-18026645D01*
X9163547Y-18026645D01*
X9093423Y-18045434D01*
X9048965Y-18057347D01*
X8946247Y-18116652D01*
X8946241Y-18116657D01*
X8909210Y-18153688D01*
X8854693Y-18181465D01*
X8794261Y-18171893D01*
X8769203Y-18153688D01*
X8765049Y-18149534D01*
X8765048Y-18149532D01*
X8681172Y-18065656D01*
X8681169Y-18065654D01*
X8681167Y-18065652D01*
X8578448Y-18006347D01*
X8578449Y-18006347D01*
X8564910Y-18002719D01*
X8463868Y-17975645D01*
X8345250Y-17975645D01*
X8275126Y-17994434D01*
X8230668Y-18006347D01*
X8127950Y-18065652D01*
X8044066Y-18149536D01*
X7984761Y-18252254D01*
X7967596Y-18316314D01*
X7954059Y-18366836D01*
X200500Y-18366836D01*
X200500Y-16840691D01*
X9049500Y-16840691D01*
X9049500Y-16959309D01*
X9075320Y-17055670D01*
X9080202Y-17073890D01*
X9139507Y-17176608D01*
X9139509Y-17176610D01*
X9139511Y-17176613D01*
X9223387Y-17260489D01*
X9223389Y-17260490D01*
X9223391Y-17260492D01*
X9326110Y-17319797D01*
X9326111Y-17319797D01*
X9326114Y-17319799D01*
X9440691Y-17350500D01*
X9440693Y-17350500D01*
X9559307Y-17350500D01*
X9559309Y-17350500D01*
X9673886Y-17319799D01*
X9673888Y-17319797D01*
X9673890Y-17319797D01*
X9776608Y-17260492D01*
X9776608Y-17260491D01*
X9776613Y-17260489D01*
X9860489Y-17176613D01*
X9860492Y-17176608D01*
X9919797Y-17073890D01*
X9919797Y-17073888D01*
X9919799Y-17073886D01*
X9950500Y-16959309D01*
X9950500Y-16840691D01*
X9919799Y-16726114D01*
X9919797Y-16726111D01*
X9919797Y-16726109D01*
X9860492Y-16623391D01*
X9860490Y-16623389D01*
X9860489Y-16623387D01*
X9776613Y-16539511D01*
X9776610Y-16539509D01*
X9776608Y-16539507D01*
X9673889Y-16480202D01*
X9673890Y-16480202D01*
X9650318Y-16473886D01*
X9559309Y-16449500D01*
X9440691Y-16449500D01*
X9404084Y-16459309D01*
X9326109Y-16480202D01*
X9223391Y-16539507D01*
X9139507Y-16623391D01*
X9080202Y-16726109D01*
X9080201Y-16726114D01*
X9049500Y-16840691D01*
X200500Y-16840691D01*
X200500Y-15740691D01*
X5649500Y-15740691D01*
X5649500Y-15859309D01*
X5665758Y-15919984D01*
X5680202Y-15973890D01*
X5739507Y-16076608D01*
X5739509Y-16076610D01*
X5739511Y-16076613D01*
X5823387Y-16160489D01*
X5823389Y-16160490D01*
X5823391Y-16160492D01*
X5926110Y-16219797D01*
X5926111Y-16219797D01*
X5926114Y-16219799D01*
X6040691Y-16250500D01*
X6040693Y-16250500D01*
X6159307Y-16250500D01*
X6159309Y-16250500D01*
X6195916Y-16240691D01*
X14049500Y-16240691D01*
X14049500Y-16359309D01*
X14068417Y-16429907D01*
X14080202Y-16473890D01*
X14139507Y-16576608D01*
X14139509Y-16576610D01*
X14139511Y-16576613D01*
X14223387Y-16660489D01*
X14223389Y-16660490D01*
X14223391Y-16660492D01*
X14326110Y-16719797D01*
X14326111Y-16719797D01*
X14326114Y-16719799D01*
X14440691Y-16750500D01*
X14440693Y-16750500D01*
X14559307Y-16750500D01*
X14559309Y-16750500D01*
X14673886Y-16719799D01*
X14673888Y-16719797D01*
X14673890Y-16719797D01*
X14776608Y-16660492D01*
X14776608Y-16660491D01*
X14776613Y-16660489D01*
X14860489Y-16576613D01*
X14862061Y-16573890D01*
X14919797Y-16473890D01*
X14919797Y-16473888D01*
X14919799Y-16473886D01*
X14950500Y-16359309D01*
X14950500Y-16240691D01*
X14919799Y-16126114D01*
X14919797Y-16126111D01*
X14919797Y-16126109D01*
X14860492Y-16023391D01*
X14860490Y-16023389D01*
X14860489Y-16023387D01*
X14776613Y-15939511D01*
X14776610Y-15939509D01*
X14776608Y-15939507D01*
X14673889Y-15880202D01*
X14673890Y-15880202D01*
X14660351Y-15876574D01*
X14559309Y-15849500D01*
X14440691Y-15849500D01*
X14370567Y-15868289D01*
X14326109Y-15880202D01*
X14223391Y-15939507D01*
X14139507Y-16023391D01*
X14080202Y-16126109D01*
X14066670Y-16176613D01*
X14049500Y-16240691D01*
X6195916Y-16240691D01*
X6273886Y-16219799D01*
X6273888Y-16219797D01*
X6273890Y-16219797D01*
X6376608Y-16160492D01*
X6376608Y-16160491D01*
X6376613Y-16160489D01*
X6460489Y-16076613D01*
X6462061Y-16073890D01*
X6519797Y-15973890D01*
X6519797Y-15973888D01*
X6519799Y-15973886D01*
X6550500Y-15859309D01*
X6550500Y-15740691D01*
X6519799Y-15626114D01*
X6519797Y-15626111D01*
X6519797Y-15626109D01*
X6460492Y-15523391D01*
X6460490Y-15523389D01*
X6460489Y-15523387D01*
X6377978Y-15440876D01*
X16826966Y-15440876D01*
X16826966Y-15559494D01*
X16832515Y-15580202D01*
X16857668Y-15674075D01*
X16916973Y-15776793D01*
X16916975Y-15776795D01*
X16916977Y-15776798D01*
X17000853Y-15860674D01*
X17000855Y-15860675D01*
X17000857Y-15860677D01*
X17103576Y-15919982D01*
X17103577Y-15919982D01*
X17103580Y-15919984D01*
X17218157Y-15950685D01*
X17218159Y-15950685D01*
X17336774Y-15950685D01*
X17336775Y-15950685D01*
X17404301Y-15932591D01*
X17465401Y-15935792D01*
X17499925Y-15958211D01*
X17575375Y-16033661D01*
X17575377Y-16033662D01*
X17575379Y-16033664D01*
X17678098Y-16092969D01*
X17678099Y-16092969D01*
X17678102Y-16092971D01*
X17792679Y-16123672D01*
X17792681Y-16123672D01*
X17911295Y-16123672D01*
X17911297Y-16123672D01*
X18025874Y-16092971D01*
X18064145Y-16070874D01*
X18123992Y-16058152D01*
X18179888Y-16083037D01*
X18199382Y-16107109D01*
X18239508Y-16176608D01*
X18239511Y-16176613D01*
X18323387Y-16260489D01*
X18323389Y-16260490D01*
X18323391Y-16260492D01*
X18426110Y-16319797D01*
X18426111Y-16319797D01*
X18426114Y-16319799D01*
X18540691Y-16350500D01*
X18540693Y-16350500D01*
X18659307Y-16350500D01*
X18659309Y-16350500D01*
X18773886Y-16319799D01*
X18773888Y-16319797D01*
X18773890Y-16319797D01*
X18876608Y-16260492D01*
X18876608Y-16260491D01*
X18876613Y-16260489D01*
X18960489Y-16176613D01*
X18960492Y-16176608D01*
X19019797Y-16073890D01*
X19019797Y-16073888D01*
X19019799Y-16073886D01*
X19050500Y-15959309D01*
X19050500Y-15940691D01*
X19599500Y-15940691D01*
X19599500Y-16059309D01*
X19621268Y-16140549D01*
X19630202Y-16173890D01*
X19689507Y-16276608D01*
X19689509Y-16276610D01*
X19689511Y-16276613D01*
X19773387Y-16360489D01*
X19773389Y-16360490D01*
X19773391Y-16360492D01*
X19876110Y-16419797D01*
X19876111Y-16419797D01*
X19876114Y-16419799D01*
X19990691Y-16450500D01*
X19990693Y-16450500D01*
X20109307Y-16450500D01*
X20109309Y-16450500D01*
X20223886Y-16419799D01*
X20223888Y-16419797D01*
X20223890Y-16419797D01*
X20326608Y-16360492D01*
X20326608Y-16360491D01*
X20326613Y-16360489D01*
X20410489Y-16276613D01*
X20439497Y-16226370D01*
X20484965Y-16185429D01*
X20545816Y-16179033D01*
X20574731Y-16190133D01*
X20626114Y-16219799D01*
X20740691Y-16250500D01*
X20740693Y-16250500D01*
X20859307Y-16250500D01*
X20859309Y-16250500D01*
X20973886Y-16219799D01*
X21029124Y-16187906D01*
X21088971Y-16175185D01*
X21144867Y-16200071D01*
X21148608Y-16203620D01*
X21195477Y-16250489D01*
X21195479Y-16250490D01*
X21195481Y-16250492D01*
X21298200Y-16309797D01*
X21298201Y-16309797D01*
X21298204Y-16309799D01*
X21412781Y-16340500D01*
X21412783Y-16340500D01*
X21531397Y-16340500D01*
X21531399Y-16340500D01*
X21645976Y-16309799D01*
X21645978Y-16309797D01*
X21645980Y-16309797D01*
X21748698Y-16250492D01*
X21748698Y-16250491D01*
X21748703Y-16250489D01*
X21832579Y-16166613D01*
X21834151Y-16163890D01*
X21891887Y-16063890D01*
X21891887Y-16063888D01*
X21891889Y-16063886D01*
X21922590Y-15949309D01*
X21922590Y-15840691D01*
X22249500Y-15840691D01*
X22249500Y-15959309D01*
X22270989Y-16039507D01*
X22280202Y-16073890D01*
X22339507Y-16176608D01*
X22339509Y-16176610D01*
X22339511Y-16176613D01*
X22423387Y-16260489D01*
X22423389Y-16260490D01*
X22423391Y-16260492D01*
X22526110Y-16319797D01*
X22526111Y-16319797D01*
X22526114Y-16319799D01*
X22640691Y-16350500D01*
X22650500Y-16350500D01*
X22708691Y-16369407D01*
X22744655Y-16418907D01*
X22749500Y-16449500D01*
X22749500Y-16459309D01*
X22758017Y-16491093D01*
X22780202Y-16573890D01*
X22839507Y-16676608D01*
X22839509Y-16676610D01*
X22839511Y-16676613D01*
X22923387Y-16760489D01*
X22923389Y-16760490D01*
X22923391Y-16760492D01*
X23026110Y-16819797D01*
X23026111Y-16819797D01*
X23026114Y-16819799D01*
X23140691Y-16850500D01*
X23150500Y-16850500D01*
X23208691Y-16869407D01*
X23244655Y-16918907D01*
X23249500Y-16949500D01*
X23249500Y-16959309D01*
X23275320Y-17055670D01*
X23280202Y-17073890D01*
X23339507Y-17176608D01*
X23339509Y-17176610D01*
X23339511Y-17176613D01*
X23423387Y-17260489D01*
X23423389Y-17260490D01*
X23423391Y-17260492D01*
X23526110Y-17319797D01*
X23526111Y-17319797D01*
X23526114Y-17319799D01*
X23640691Y-17350500D01*
X23640693Y-17350500D01*
X23759307Y-17350500D01*
X23759309Y-17350500D01*
X23873886Y-17319799D01*
X23873888Y-17319797D01*
X23873890Y-17319797D01*
X23976608Y-17260492D01*
X23976608Y-17260491D01*
X23976613Y-17260489D01*
X24046098Y-17191004D01*
X25669500Y-17191004D01*
X25669500Y-17328995D01*
X25696420Y-17464327D01*
X25696420Y-17464329D01*
X25749222Y-17591806D01*
X25749228Y-17591817D01*
X25825885Y-17706541D01*
X25923458Y-17804114D01*
X26038182Y-17880771D01*
X26038193Y-17880777D01*
X26059253Y-17889500D01*
X26165672Y-17933580D01*
X26301007Y-17960500D01*
X26301008Y-17960500D01*
X27538992Y-17960500D01*
X27538993Y-17960500D01*
X27674328Y-17933580D01*
X27801811Y-17880775D01*
X27916542Y-17804114D01*
X28014114Y-17706542D01*
X28090775Y-17591811D01*
X28143580Y-17464328D01*
X28170500Y-17328993D01*
X28170500Y-17191007D01*
X28170499Y-17191004D01*
X29999500Y-17191004D01*
X29999500Y-17328995D01*
X30026420Y-17464327D01*
X30026420Y-17464329D01*
X30079222Y-17591806D01*
X30079228Y-17591817D01*
X30155885Y-17706541D01*
X30253458Y-17804114D01*
X30368182Y-17880771D01*
X30368193Y-17880777D01*
X30389253Y-17889500D01*
X30495672Y-17933580D01*
X30631007Y-17960500D01*
X30631008Y-17960500D01*
X31568992Y-17960500D01*
X31568993Y-17960500D01*
X31704328Y-17933580D01*
X31831811Y-17880775D01*
X31946542Y-17804114D01*
X32044114Y-17706542D01*
X32120775Y-17591811D01*
X32173580Y-17464328D01*
X32200500Y-17328993D01*
X32200500Y-17191007D01*
X32173580Y-17055672D01*
X32133665Y-16959309D01*
X32120777Y-16928193D01*
X32120771Y-16928182D01*
X32044114Y-16813458D01*
X31946541Y-16715885D01*
X31831817Y-16639228D01*
X31831806Y-16639222D01*
X31704328Y-16586420D01*
X31568995Y-16559500D01*
X31568993Y-16559500D01*
X30631007Y-16559500D01*
X30631004Y-16559500D01*
X30495672Y-16586420D01*
X30495670Y-16586420D01*
X30368193Y-16639222D01*
X30368182Y-16639228D01*
X30253458Y-16715885D01*
X30155885Y-16813458D01*
X30079228Y-16928182D01*
X30079222Y-16928193D01*
X30026420Y-17055670D01*
X30026420Y-17055672D01*
X29999500Y-17191004D01*
X28170499Y-17191004D01*
X28143580Y-17055672D01*
X28103665Y-16959309D01*
X28090777Y-16928193D01*
X28090771Y-16928182D01*
X28014114Y-16813458D01*
X27916541Y-16715885D01*
X27801817Y-16639228D01*
X27801806Y-16639222D01*
X27674328Y-16586420D01*
X27538995Y-16559500D01*
X27538993Y-16559500D01*
X26584069Y-16559500D01*
X26525878Y-16540593D01*
X26489914Y-16491093D01*
X26489914Y-16429907D01*
X26525878Y-16380407D01*
X26534569Y-16374764D01*
X26576608Y-16350492D01*
X26576608Y-16350491D01*
X26576613Y-16350489D01*
X26660489Y-16266613D01*
X26683723Y-16226371D01*
X26719797Y-16163890D01*
X26719797Y-16163888D01*
X26719799Y-16163886D01*
X26750500Y-16049309D01*
X26750500Y-15930691D01*
X26719799Y-15816114D01*
X26719797Y-15816111D01*
X26719797Y-15816109D01*
X26660492Y-15713391D01*
X26660490Y-15713389D01*
X26660489Y-15713387D01*
X26576613Y-15629511D01*
X26576610Y-15629509D01*
X26576608Y-15629507D01*
X26473889Y-15570202D01*
X26473890Y-15570202D01*
X26433927Y-15559494D01*
X26359309Y-15539500D01*
X26240691Y-15539500D01*
X26170567Y-15558289D01*
X26126109Y-15570202D01*
X26023391Y-15629507D01*
X25939507Y-15713391D01*
X25880202Y-15816109D01*
X25873615Y-15840692D01*
X25849500Y-15930691D01*
X25849500Y-16049309D01*
X25864988Y-16107109D01*
X25880202Y-16163890D01*
X25939507Y-16266608D01*
X25939509Y-16266610D01*
X25939511Y-16266613D01*
X26023387Y-16350489D01*
X26023389Y-16350490D01*
X26023391Y-16350492D01*
X26126110Y-16409797D01*
X26126108Y-16409797D01*
X26126112Y-16409798D01*
X26126114Y-16409799D01*
X26127341Y-16410127D01*
X26128105Y-16410623D01*
X26132106Y-16412281D01*
X26131798Y-16413022D01*
X26178654Y-16443451D01*
X26200581Y-16500573D01*
X26184745Y-16559673D01*
X26139603Y-16597218D01*
X26038190Y-16639224D01*
X26038182Y-16639228D01*
X25923458Y-16715885D01*
X25825885Y-16813458D01*
X25749228Y-16928182D01*
X25749222Y-16928193D01*
X25696420Y-17055670D01*
X25696420Y-17055672D01*
X25669500Y-17191004D01*
X24046098Y-17191004D01*
X24060489Y-17176613D01*
X24073953Y-17153291D01*
X24083567Y-17136642D01*
X24083568Y-17136640D01*
X24119797Y-17073890D01*
X24119797Y-17073888D01*
X24119799Y-17073886D01*
X24150500Y-16959309D01*
X24150500Y-16840691D01*
X24119799Y-16726114D01*
X24119797Y-16726111D01*
X24119797Y-16726109D01*
X24060492Y-16623391D01*
X24060490Y-16623389D01*
X24060489Y-16623387D01*
X23976613Y-16539511D01*
X23976610Y-16539509D01*
X23976608Y-16539507D01*
X23873889Y-16480202D01*
X23873890Y-16480202D01*
X23850318Y-16473886D01*
X23759309Y-16449500D01*
X23759307Y-16449500D01*
X23749500Y-16449500D01*
X23691309Y-16430593D01*
X23655345Y-16381093D01*
X23650500Y-16350500D01*
X23650500Y-16340692D01*
X23633329Y-16276610D01*
X23619799Y-16226114D01*
X23619797Y-16226111D01*
X23619797Y-16226109D01*
X23560492Y-16123391D01*
X23560490Y-16123389D01*
X23560489Y-16123387D01*
X23476613Y-16039511D01*
X23476610Y-16039509D01*
X23476608Y-16039507D01*
X23373889Y-15980202D01*
X23373890Y-15980202D01*
X23350318Y-15973886D01*
X23259309Y-15949500D01*
X23259307Y-15949500D01*
X23249500Y-15949500D01*
X23191309Y-15930593D01*
X23155345Y-15881093D01*
X23150500Y-15850500D01*
X23150500Y-15840692D01*
X23150500Y-15840691D01*
X23119799Y-15726114D01*
X23119797Y-15726111D01*
X23119797Y-15726109D01*
X23060492Y-15623391D01*
X23060490Y-15623389D01*
X23060489Y-15623387D01*
X22976613Y-15539511D01*
X22976610Y-15539509D01*
X22976608Y-15539507D01*
X22873889Y-15480202D01*
X22873890Y-15480202D01*
X22836569Y-15470202D01*
X22759309Y-15449500D01*
X22640691Y-15449500D01*
X22578885Y-15466061D01*
X22526109Y-15480202D01*
X22423391Y-15539507D01*
X22339507Y-15623391D01*
X22280202Y-15726109D01*
X22266620Y-15776798D01*
X22249500Y-15840691D01*
X21922590Y-15840691D01*
X21922590Y-15830691D01*
X21891889Y-15716114D01*
X21891887Y-15716111D01*
X21891887Y-15716109D01*
X21832582Y-15613391D01*
X21832580Y-15613389D01*
X21832579Y-15613387D01*
X21748703Y-15529511D01*
X21748700Y-15529509D01*
X21748698Y-15529507D01*
X21645979Y-15470202D01*
X21645980Y-15470202D01*
X21630525Y-15466061D01*
X21531399Y-15439500D01*
X21412781Y-15439500D01*
X21342657Y-15458289D01*
X21298199Y-15470202D01*
X21242966Y-15502092D01*
X21183118Y-15514814D01*
X21127222Y-15489927D01*
X21123463Y-15486360D01*
X21076614Y-15439511D01*
X21076608Y-15439507D01*
X20973889Y-15380202D01*
X20973890Y-15380202D01*
X20960351Y-15376574D01*
X20859309Y-15349500D01*
X20740691Y-15349500D01*
X20670567Y-15368289D01*
X20626109Y-15380202D01*
X20523391Y-15439507D01*
X20439509Y-15523389D01*
X20410502Y-15573630D01*
X20365032Y-15614571D01*
X20304181Y-15620965D01*
X20275265Y-15609865D01*
X20223888Y-15580202D01*
X20223887Y-15580201D01*
X20223886Y-15580201D01*
X20109309Y-15549500D01*
X19990691Y-15549500D01*
X19920567Y-15568289D01*
X19876109Y-15580202D01*
X19773391Y-15639507D01*
X19689507Y-15723391D01*
X19630202Y-15826109D01*
X19620940Y-15860677D01*
X19599500Y-15940691D01*
X19050500Y-15940691D01*
X19050500Y-15840691D01*
X19019799Y-15726114D01*
X19019797Y-15726111D01*
X19019797Y-15726109D01*
X18960492Y-15623391D01*
X18960490Y-15623389D01*
X18960489Y-15623387D01*
X18876613Y-15539511D01*
X18876610Y-15539509D01*
X18876608Y-15539507D01*
X18773889Y-15480202D01*
X18773890Y-15480202D01*
X18736569Y-15470202D01*
X18659309Y-15449500D01*
X18540691Y-15449500D01*
X18483402Y-15464850D01*
X18426112Y-15480201D01*
X18387841Y-15502298D01*
X18327993Y-15515019D01*
X18272097Y-15490132D01*
X18252605Y-15466061D01*
X18212480Y-15396563D01*
X18212478Y-15396561D01*
X18212477Y-15396559D01*
X18128601Y-15312683D01*
X18128598Y-15312681D01*
X18128596Y-15312679D01*
X18025877Y-15253374D01*
X18025878Y-15253374D01*
X17978824Y-15240766D01*
X17911297Y-15222672D01*
X17792679Y-15222672D01*
X17725152Y-15240766D01*
X17664050Y-15237563D01*
X17629527Y-15215144D01*
X17554079Y-15139696D01*
X17554076Y-15139694D01*
X17554074Y-15139692D01*
X17451355Y-15080387D01*
X17451356Y-15080387D01*
X17437817Y-15076759D01*
X17336775Y-15049685D01*
X17218157Y-15049685D01*
X17148033Y-15068474D01*
X17103575Y-15080387D01*
X17000857Y-15139692D01*
X16916973Y-15223576D01*
X16857668Y-15326294D01*
X16857667Y-15326299D01*
X16826966Y-15440876D01*
X6377978Y-15440876D01*
X6376613Y-15439511D01*
X6376610Y-15439509D01*
X6376608Y-15439507D01*
X6273889Y-15380202D01*
X6273890Y-15380202D01*
X6260351Y-15376574D01*
X6159309Y-15349500D01*
X6040691Y-15349500D01*
X5970567Y-15368289D01*
X5926109Y-15380202D01*
X5823391Y-15439507D01*
X5739507Y-15523391D01*
X5680202Y-15626109D01*
X5676612Y-15639507D01*
X5649500Y-15740691D01*
X200500Y-15740691D01*
X200500Y-13340691D01*
X12949500Y-13340691D01*
X12949500Y-13459309D01*
X12964205Y-13514187D01*
X12980202Y-13573890D01*
X13039507Y-13676608D01*
X13039509Y-13676610D01*
X13039511Y-13676613D01*
X13123387Y-13760489D01*
X13123389Y-13760490D01*
X13123391Y-13760492D01*
X13226110Y-13819797D01*
X13226111Y-13819797D01*
X13226114Y-13819799D01*
X13340691Y-13850500D01*
X13340693Y-13850500D01*
X13459307Y-13850500D01*
X13459309Y-13850500D01*
X13573886Y-13819799D01*
X13573888Y-13819797D01*
X13573890Y-13819797D01*
X13676608Y-13760492D01*
X13676608Y-13760491D01*
X13676613Y-13760489D01*
X13760489Y-13676613D01*
X13819799Y-13573886D01*
X13850500Y-13459309D01*
X13850500Y-13340691D01*
X15249500Y-13340691D01*
X15249500Y-13459309D01*
X15264205Y-13514187D01*
X15280202Y-13573890D01*
X15339507Y-13676608D01*
X15339509Y-13676610D01*
X15339511Y-13676613D01*
X15423387Y-13760489D01*
X15423389Y-13760490D01*
X15423391Y-13760492D01*
X15526110Y-13819797D01*
X15526111Y-13819797D01*
X15526114Y-13819799D01*
X15640691Y-13850500D01*
X15640693Y-13850500D01*
X15759307Y-13850500D01*
X15759309Y-13850500D01*
X15873886Y-13819799D01*
X15873888Y-13819797D01*
X15873890Y-13819797D01*
X15976608Y-13760492D01*
X15976608Y-13760491D01*
X15976613Y-13760489D01*
X16060489Y-13676613D01*
X16119799Y-13573886D01*
X16150500Y-13459309D01*
X16150500Y-13398365D01*
X17007174Y-13398365D01*
X17007174Y-13516983D01*
X17024528Y-13581748D01*
X17037876Y-13631564D01*
X17097181Y-13734282D01*
X17097183Y-13734284D01*
X17097185Y-13734287D01*
X17181061Y-13818163D01*
X17181063Y-13818164D01*
X17181065Y-13818166D01*
X17283784Y-13877471D01*
X17283785Y-13877471D01*
X17283788Y-13877473D01*
X17398365Y-13908174D01*
X17398367Y-13908174D01*
X17516981Y-13908174D01*
X17516983Y-13908174D01*
X17611187Y-13882932D01*
X26268896Y-13882932D01*
X26268896Y-14001550D01*
X26295970Y-14102592D01*
X26299598Y-14116131D01*
X26358903Y-14218849D01*
X26358905Y-14218851D01*
X26358907Y-14218854D01*
X26442783Y-14302730D01*
X26442785Y-14302731D01*
X26442787Y-14302733D01*
X26545506Y-14362038D01*
X26545507Y-14362038D01*
X26545510Y-14362040D01*
X26660087Y-14392741D01*
X26660089Y-14392741D01*
X26778703Y-14392741D01*
X26778705Y-14392741D01*
X26893282Y-14362040D01*
X26893284Y-14362038D01*
X26893286Y-14362038D01*
X26996004Y-14302733D01*
X26996004Y-14302732D01*
X26996009Y-14302730D01*
X27079885Y-14218854D01*
X27079888Y-14218849D01*
X27095167Y-14192385D01*
X31826493Y-14192385D01*
X31826493Y-14311003D01*
X31848395Y-14392741D01*
X31857195Y-14425584D01*
X31916500Y-14528302D01*
X31916502Y-14528304D01*
X31916504Y-14528307D01*
X32000380Y-14612183D01*
X32000382Y-14612184D01*
X32000384Y-14612186D01*
X32103103Y-14671491D01*
X32103104Y-14671491D01*
X32103107Y-14671493D01*
X32217684Y-14702194D01*
X32217686Y-14702194D01*
X32336300Y-14702194D01*
X32336302Y-14702194D01*
X32450879Y-14671493D01*
X32450881Y-14671491D01*
X32450883Y-14671491D01*
X32553601Y-14612186D01*
X32553601Y-14612185D01*
X32553606Y-14612183D01*
X32637482Y-14528307D01*
X32696792Y-14425580D01*
X32727493Y-14311003D01*
X32727493Y-14192385D01*
X32696792Y-14077808D01*
X32696790Y-14077805D01*
X32696790Y-14077803D01*
X32637485Y-13975085D01*
X32637483Y-13975083D01*
X32637482Y-13975081D01*
X32553606Y-13891205D01*
X32553603Y-13891203D01*
X32553601Y-13891201D01*
X32450882Y-13831896D01*
X32450883Y-13831896D01*
X32405736Y-13819799D01*
X32336302Y-13801194D01*
X32217684Y-13801194D01*
X32154355Y-13818163D01*
X32103102Y-13831896D01*
X32000384Y-13891201D01*
X31916500Y-13975085D01*
X31857195Y-14077803D01*
X31857194Y-14077808D01*
X31826493Y-14192385D01*
X27095167Y-14192385D01*
X27127493Y-14136396D01*
X27127493Y-14136395D01*
X27139195Y-14116127D01*
X27169896Y-14001550D01*
X27169896Y-13882932D01*
X27139195Y-13768355D01*
X27139193Y-13768352D01*
X27139193Y-13768350D01*
X27079888Y-13665632D01*
X27079886Y-13665630D01*
X27079885Y-13665628D01*
X26996009Y-13581752D01*
X26996006Y-13581750D01*
X26996004Y-13581748D01*
X26893285Y-13522443D01*
X26893286Y-13522443D01*
X26855674Y-13512365D01*
X26778705Y-13491741D01*
X26660087Y-13491741D01*
X26589963Y-13510530D01*
X26545505Y-13522443D01*
X26442787Y-13581748D01*
X26358903Y-13665632D01*
X26299598Y-13768350D01*
X26282571Y-13831895D01*
X26268896Y-13882932D01*
X17611187Y-13882932D01*
X17631560Y-13877473D01*
X17631562Y-13877471D01*
X17631564Y-13877471D01*
X17734282Y-13818166D01*
X17734282Y-13818165D01*
X17734287Y-13818163D01*
X17818163Y-13734287D01*
X17818166Y-13734282D01*
X17877471Y-13631564D01*
X17877471Y-13631562D01*
X17877473Y-13631560D01*
X17908174Y-13516983D01*
X17908174Y-13516979D01*
X17908542Y-13514187D01*
X17909410Y-13512365D01*
X17909853Y-13510715D01*
X17910158Y-13510796D01*
X17934883Y-13458962D01*
X17988653Y-13429767D01*
X18012587Y-13429141D01*
X18012587Y-13428885D01*
X18137692Y-13428885D01*
X18137694Y-13428885D01*
X18252271Y-13398184D01*
X18252273Y-13398182D01*
X18252275Y-13398182D01*
X18354993Y-13338877D01*
X18354993Y-13338876D01*
X18354998Y-13338874D01*
X18438874Y-13254998D01*
X18438877Y-13254993D01*
X18498182Y-13152275D01*
X18498182Y-13152273D01*
X18498184Y-13152271D01*
X18528885Y-13037694D01*
X18528885Y-12935940D01*
X27843776Y-12935940D01*
X27843776Y-13054558D01*
X27855197Y-13097181D01*
X27874478Y-13169139D01*
X27933783Y-13271857D01*
X27933785Y-13271859D01*
X27933787Y-13271862D01*
X28017663Y-13355738D01*
X28017665Y-13355739D01*
X28017667Y-13355741D01*
X28120386Y-13415046D01*
X28120387Y-13415046D01*
X28120390Y-13415048D01*
X28234967Y-13445749D01*
X28234969Y-13445749D01*
X28353583Y-13445749D01*
X28353585Y-13445749D01*
X28468162Y-13415048D01*
X28468164Y-13415046D01*
X28468166Y-13415046D01*
X28570884Y-13355741D01*
X28570884Y-13355740D01*
X28570889Y-13355738D01*
X28654765Y-13271862D01*
X28664502Y-13254998D01*
X28714073Y-13169139D01*
X28714073Y-13169137D01*
X28714075Y-13169135D01*
X28744776Y-13054558D01*
X28744776Y-12935940D01*
X28714075Y-12821363D01*
X28714073Y-12821360D01*
X28714073Y-12821358D01*
X28654768Y-12718640D01*
X28654766Y-12718638D01*
X28654765Y-12718636D01*
X28570889Y-12634760D01*
X28570886Y-12634758D01*
X28570884Y-12634756D01*
X28468165Y-12575451D01*
X28468166Y-12575451D01*
X28433230Y-12566090D01*
X28353585Y-12544749D01*
X28234967Y-12544749D01*
X28183327Y-12558586D01*
X28120385Y-12575451D01*
X28017667Y-12634756D01*
X27933783Y-12718640D01*
X27874478Y-12821358D01*
X27874477Y-12821363D01*
X27843776Y-12935940D01*
X18528885Y-12935940D01*
X18528885Y-12919076D01*
X18498184Y-12804499D01*
X18498182Y-12804496D01*
X18498182Y-12804494D01*
X18438877Y-12701776D01*
X18438875Y-12701774D01*
X18438874Y-12701772D01*
X18405133Y-12668031D01*
X18377358Y-12613517D01*
X18386929Y-12553085D01*
X18425636Y-12512295D01*
X18515367Y-12460489D01*
X18599243Y-12376613D01*
X18658553Y-12273886D01*
X18689254Y-12159309D01*
X18689254Y-12040691D01*
X18658553Y-11926114D01*
X18658551Y-11926111D01*
X18658551Y-11926109D01*
X18599246Y-11823391D01*
X18599244Y-11823389D01*
X18599243Y-11823387D01*
X18515367Y-11739511D01*
X18515364Y-11739509D01*
X18515362Y-11739507D01*
X18412643Y-11680202D01*
X18412644Y-11680202D01*
X18389072Y-11673886D01*
X18298063Y-11649500D01*
X18179445Y-11649500D01*
X18109321Y-11668289D01*
X18064863Y-11680202D01*
X17962145Y-11739507D01*
X17878261Y-11823391D01*
X17818956Y-11926109D01*
X17818955Y-11926114D01*
X17788254Y-12040691D01*
X17788254Y-12159309D01*
X17815328Y-12260351D01*
X17818956Y-12273890D01*
X17878261Y-12376608D01*
X17878263Y-12376610D01*
X17878265Y-12376613D01*
X17912004Y-12410352D01*
X17939780Y-12464867D01*
X17930209Y-12525299D01*
X17891500Y-12566090D01*
X17801774Y-12617894D01*
X17717892Y-12701776D01*
X17658587Y-12804494D01*
X17627884Y-12919080D01*
X17627515Y-12921883D01*
X17626644Y-12923707D01*
X17626206Y-12925344D01*
X17625902Y-12925262D01*
X17601167Y-12977105D01*
X17547393Y-13006293D01*
X17523472Y-13006919D01*
X17523472Y-13007174D01*
X17516983Y-13007174D01*
X17398365Y-13007174D01*
X17328241Y-13025963D01*
X17283783Y-13037876D01*
X17181065Y-13097181D01*
X17097181Y-13181065D01*
X17037876Y-13283783D01*
X17020711Y-13347843D01*
X17007174Y-13398365D01*
X16150500Y-13398365D01*
X16150500Y-13340691D01*
X16119799Y-13226114D01*
X16119797Y-13226111D01*
X16119797Y-13226109D01*
X16060492Y-13123391D01*
X16060490Y-13123389D01*
X16060489Y-13123387D01*
X15976613Y-13039511D01*
X15976610Y-13039509D01*
X15976608Y-13039507D01*
X15873889Y-12980202D01*
X15873890Y-12980202D01*
X15860351Y-12976574D01*
X15759309Y-12949500D01*
X15640691Y-12949500D01*
X15570567Y-12968289D01*
X15526109Y-12980202D01*
X15423391Y-13039507D01*
X15339507Y-13123391D01*
X15280202Y-13226109D01*
X15267944Y-13271857D01*
X15249500Y-13340691D01*
X13850500Y-13340691D01*
X13819799Y-13226114D01*
X13819797Y-13226111D01*
X13819797Y-13226109D01*
X13760492Y-13123391D01*
X13760490Y-13123389D01*
X13760489Y-13123387D01*
X13676613Y-13039511D01*
X13676610Y-13039509D01*
X13676608Y-13039507D01*
X13573889Y-12980202D01*
X13573890Y-12980202D01*
X13560351Y-12976574D01*
X13459309Y-12949500D01*
X13340691Y-12949500D01*
X13270567Y-12968289D01*
X13226109Y-12980202D01*
X13123391Y-13039507D01*
X13039507Y-13123391D01*
X12980202Y-13226109D01*
X12967944Y-13271857D01*
X12949500Y-13340691D01*
X200500Y-13340691D01*
X200500Y-11440691D01*
X11149500Y-11440691D01*
X11149500Y-11559309D01*
X11173667Y-11649500D01*
X11180202Y-11673890D01*
X11239507Y-11776608D01*
X11239509Y-11776610D01*
X11239511Y-11776613D01*
X11323387Y-11860489D01*
X11323389Y-11860490D01*
X11323391Y-11860492D01*
X11426110Y-11919797D01*
X11426111Y-11919797D01*
X11426114Y-11919799D01*
X11540691Y-11950500D01*
X11540693Y-11950500D01*
X11659307Y-11950500D01*
X11659309Y-11950500D01*
X11773886Y-11919799D01*
X11773888Y-11919797D01*
X11773890Y-11919797D01*
X11876608Y-11860492D01*
X11876608Y-11860491D01*
X11876613Y-11860489D01*
X11960489Y-11776613D01*
X11981910Y-11739511D01*
X12019797Y-11673890D01*
X12019797Y-11673888D01*
X12019799Y-11673886D01*
X12050500Y-11559309D01*
X12050500Y-11440691D01*
X12019799Y-11326114D01*
X12019797Y-11326111D01*
X12019797Y-11326109D01*
X11960492Y-11223391D01*
X11960490Y-11223389D01*
X11960489Y-11223387D01*
X11876613Y-11139511D01*
X11876610Y-11139509D01*
X11876608Y-11139507D01*
X11773889Y-11080202D01*
X11773890Y-11080202D01*
X11760351Y-11076574D01*
X11659309Y-11049500D01*
X11540691Y-11049500D01*
X11470567Y-11068289D01*
X11426109Y-11080202D01*
X11323391Y-11139507D01*
X11239507Y-11223391D01*
X11180202Y-11326109D01*
X11180201Y-11326114D01*
X11149500Y-11440691D01*
X200500Y-11440691D01*
X200500Y-10740691D01*
X27649500Y-10740691D01*
X27649500Y-10859309D01*
X27676574Y-10960351D01*
X27680202Y-10973890D01*
X27739507Y-11076608D01*
X27739509Y-11076610D01*
X27739511Y-11076613D01*
X27823387Y-11160489D01*
X27823389Y-11160490D01*
X27823391Y-11160492D01*
X27926110Y-11219797D01*
X27926111Y-11219797D01*
X27926114Y-11219799D01*
X28040691Y-11250500D01*
X28040693Y-11250500D01*
X28159307Y-11250500D01*
X28159309Y-11250500D01*
X28273886Y-11219799D01*
X28273888Y-11219797D01*
X28273890Y-11219797D01*
X28376608Y-11160492D01*
X28376608Y-11160491D01*
X28376613Y-11160489D01*
X28460489Y-11076613D01*
X28519799Y-10973886D01*
X28550500Y-10859309D01*
X28550500Y-10740691D01*
X28519799Y-10626114D01*
X28519797Y-10626111D01*
X28519797Y-10626109D01*
X28460492Y-10523391D01*
X28460490Y-10523389D01*
X28460489Y-10523387D01*
X28376613Y-10439511D01*
X28376610Y-10439509D01*
X28376608Y-10439507D01*
X28273889Y-10380202D01*
X28273890Y-10380202D01*
X28260351Y-10376574D01*
X28159309Y-10349500D01*
X28040691Y-10349500D01*
X27970567Y-10368289D01*
X27926109Y-10380202D01*
X27823391Y-10439507D01*
X27739507Y-10523391D01*
X27680202Y-10626109D01*
X27680201Y-10626114D01*
X27649500Y-10740691D01*
X200500Y-10740691D01*
X200500Y-9540691D01*
X5349500Y-9540691D01*
X5349500Y-9659309D01*
X5376277Y-9759242D01*
X5380202Y-9773890D01*
X5439507Y-9876608D01*
X5439509Y-9876610D01*
X5439511Y-9876613D01*
X5523387Y-9960489D01*
X5523389Y-9960490D01*
X5523391Y-9960492D01*
X5626110Y-10019797D01*
X5626111Y-10019797D01*
X5626114Y-10019799D01*
X5740691Y-10050500D01*
X5740693Y-10050500D01*
X5859307Y-10050500D01*
X5859309Y-10050500D01*
X5973886Y-10019799D01*
X5973888Y-10019797D01*
X5973890Y-10019797D01*
X6076608Y-9960492D01*
X6076608Y-9960491D01*
X6076613Y-9960489D01*
X6160489Y-9876613D01*
X6162062Y-9873889D01*
X6181229Y-9840691D01*
X16449500Y-9840691D01*
X16449500Y-9959309D01*
X16473935Y-10050500D01*
X16480202Y-10073890D01*
X16539507Y-10176608D01*
X16539509Y-10176610D01*
X16539511Y-10176613D01*
X16623387Y-10260489D01*
X16623389Y-10260490D01*
X16623391Y-10260492D01*
X16726110Y-10319797D01*
X16726111Y-10319797D01*
X16726114Y-10319799D01*
X16840691Y-10350500D01*
X16840693Y-10350500D01*
X16959307Y-10350500D01*
X16959309Y-10350500D01*
X17073886Y-10319799D01*
X17073888Y-10319797D01*
X17073890Y-10319797D01*
X17176608Y-10260492D01*
X17176608Y-10260491D01*
X17176613Y-10260489D01*
X17260489Y-10176613D01*
X17260492Y-10176608D01*
X17319797Y-10073890D01*
X17319797Y-10073888D01*
X17319799Y-10073886D01*
X17350500Y-9959309D01*
X17350500Y-9840691D01*
X17319799Y-9726114D01*
X17319797Y-9726111D01*
X17319797Y-9726109D01*
X17260492Y-9623391D01*
X17260490Y-9623389D01*
X17260489Y-9623387D01*
X17176613Y-9539511D01*
X17176610Y-9539509D01*
X17176608Y-9539507D01*
X17073889Y-9480202D01*
X17073890Y-9480202D01*
X17060351Y-9476574D01*
X16959309Y-9449500D01*
X16840691Y-9449500D01*
X16770567Y-9468289D01*
X16726109Y-9480202D01*
X16623391Y-9539507D01*
X16539507Y-9623391D01*
X16480202Y-9726109D01*
X16471307Y-9759307D01*
X16449500Y-9840691D01*
X6181229Y-9840691D01*
X6213555Y-9784702D01*
X6213555Y-9784701D01*
X6214214Y-9783558D01*
X6219799Y-9773886D01*
X6250500Y-9659309D01*
X6250500Y-9540691D01*
X6219799Y-9426114D01*
X6219797Y-9426111D01*
X6219797Y-9426109D01*
X6194593Y-9382455D01*
X6169760Y-9339444D01*
X18248254Y-9339444D01*
X18248254Y-9458062D01*
X18267887Y-9531332D01*
X18278956Y-9572643D01*
X18338261Y-9675361D01*
X18338263Y-9675363D01*
X18338265Y-9675366D01*
X18422141Y-9759242D01*
X18422143Y-9759243D01*
X18422145Y-9759245D01*
X18524864Y-9818550D01*
X18524865Y-9818550D01*
X18524868Y-9818552D01*
X18639445Y-9849253D01*
X18639447Y-9849253D01*
X18758061Y-9849253D01*
X18758063Y-9849253D01*
X18872640Y-9818552D01*
X18872642Y-9818550D01*
X18872644Y-9818550D01*
X18975362Y-9759245D01*
X18975362Y-9759244D01*
X18975367Y-9759242D01*
X19059243Y-9675366D01*
X19089251Y-9623391D01*
X19118551Y-9572643D01*
X19118551Y-9572641D01*
X19118553Y-9572639D01*
X19127113Y-9540691D01*
X23249500Y-9540691D01*
X23249500Y-9659309D01*
X23276277Y-9759242D01*
X23280202Y-9773890D01*
X23339507Y-9876608D01*
X23339509Y-9876610D01*
X23339511Y-9876613D01*
X23423387Y-9960489D01*
X23423389Y-9960490D01*
X23423391Y-9960492D01*
X23526110Y-10019797D01*
X23526111Y-10019797D01*
X23526114Y-10019799D01*
X23640691Y-10050500D01*
X23640693Y-10050500D01*
X23759307Y-10050500D01*
X23759309Y-10050500D01*
X23873886Y-10019799D01*
X23873888Y-10019797D01*
X23873890Y-10019797D01*
X23976608Y-9960492D01*
X23976608Y-9960491D01*
X23976613Y-9960489D01*
X23979998Y-9957103D01*
X24034513Y-9929328D01*
X24094945Y-9938899D01*
X24120000Y-9957102D01*
X24123387Y-9960489D01*
X24123389Y-9960490D01*
X24123391Y-9960492D01*
X24226110Y-10019797D01*
X24226111Y-10019797D01*
X24226114Y-10019799D01*
X24340691Y-10050500D01*
X24340693Y-10050500D01*
X24459307Y-10050500D01*
X24459309Y-10050500D01*
X24573886Y-10019799D01*
X24573888Y-10019797D01*
X24573890Y-10019797D01*
X24682233Y-9957245D01*
X24683304Y-9959100D01*
X24731903Y-9941881D01*
X24790572Y-9959248D01*
X24804747Y-9972699D01*
X24805423Y-9972024D01*
X24810009Y-9976610D01*
X24810011Y-9976613D01*
X24893887Y-10060489D01*
X24893889Y-10060490D01*
X24893891Y-10060492D01*
X24996610Y-10119797D01*
X24996611Y-10119797D01*
X24996614Y-10119799D01*
X25111191Y-10150500D01*
X25111193Y-10150500D01*
X25229807Y-10150500D01*
X25229809Y-10150500D01*
X25344386Y-10119799D01*
X25344388Y-10119797D01*
X25344390Y-10119797D01*
X25447108Y-10060492D01*
X25447108Y-10060491D01*
X25447113Y-10060489D01*
X25530989Y-9976613D01*
X25533639Y-9972024D01*
X25558289Y-9929328D01*
X25590299Y-9873886D01*
X25590300Y-9873880D01*
X25592781Y-9867894D01*
X25594649Y-9868667D01*
X25622947Y-9825093D01*
X25680069Y-9803166D01*
X25739169Y-9819002D01*
X25777674Y-9866551D01*
X25779536Y-9872282D01*
X25780202Y-9873889D01*
X25839507Y-9976608D01*
X25839509Y-9976610D01*
X25839511Y-9976613D01*
X25923387Y-10060489D01*
X25923389Y-10060490D01*
X25923391Y-10060492D01*
X26026110Y-10119797D01*
X26026111Y-10119797D01*
X26026114Y-10119799D01*
X26140691Y-10150500D01*
X26140693Y-10150500D01*
X26259307Y-10150500D01*
X26259309Y-10150500D01*
X26373886Y-10119799D01*
X26373888Y-10119797D01*
X26373890Y-10119797D01*
X26476608Y-10060492D01*
X26476608Y-10060491D01*
X26476613Y-10060489D01*
X26560489Y-9976613D01*
X26562749Y-9972699D01*
X26619797Y-9873890D01*
X26619797Y-9873888D01*
X26619799Y-9873886D01*
X26650500Y-9759309D01*
X26650500Y-9640691D01*
X26619799Y-9526114D01*
X26619797Y-9526110D01*
X26619797Y-9526109D01*
X26560492Y-9423391D01*
X26560490Y-9423389D01*
X26560489Y-9423387D01*
X26476613Y-9339511D01*
X26476610Y-9339509D01*
X26476608Y-9339507D01*
X26373889Y-9280202D01*
X26373890Y-9280202D01*
X26360351Y-9276574D01*
X26259309Y-9249500D01*
X26140691Y-9249500D01*
X26097411Y-9261097D01*
X26026109Y-9280202D01*
X25923391Y-9339507D01*
X25839507Y-9423391D01*
X25780202Y-9526110D01*
X25777719Y-9532106D01*
X25775851Y-9531332D01*
X25747548Y-9574911D01*
X25690425Y-9596834D01*
X25631325Y-9580994D01*
X25592823Y-9533441D01*
X25590963Y-9527718D01*
X25590297Y-9526110D01*
X25530992Y-9423391D01*
X25530990Y-9423389D01*
X25530989Y-9423387D01*
X25447113Y-9339511D01*
X25447110Y-9339509D01*
X25447108Y-9339507D01*
X25344389Y-9280202D01*
X25344390Y-9280202D01*
X25330851Y-9276574D01*
X25229809Y-9249500D01*
X25111191Y-9249500D01*
X25067911Y-9261097D01*
X24996609Y-9280202D01*
X24888267Y-9342755D01*
X24887199Y-9340905D01*
X24838557Y-9358119D01*
X24779894Y-9340729D01*
X24765751Y-9327301D01*
X24765077Y-9327976D01*
X24760490Y-9323389D01*
X24760489Y-9323387D01*
X24676613Y-9239511D01*
X24676610Y-9239509D01*
X24676608Y-9239507D01*
X24573889Y-9180202D01*
X24573890Y-9180202D01*
X24560351Y-9176574D01*
X24459309Y-9149500D01*
X24340691Y-9149500D01*
X24270567Y-9168289D01*
X24226109Y-9180202D01*
X24123391Y-9239507D01*
X24123383Y-9239513D01*
X24119999Y-9242898D01*
X24065481Y-9270672D01*
X24005049Y-9261097D01*
X23980001Y-9242898D01*
X23976616Y-9239513D01*
X23976608Y-9239507D01*
X23873889Y-9180202D01*
X23873890Y-9180202D01*
X23860351Y-9176574D01*
X23759309Y-9149500D01*
X23640691Y-9149500D01*
X23570567Y-9168289D01*
X23526109Y-9180202D01*
X23423391Y-9239507D01*
X23339507Y-9323391D01*
X23280202Y-9426109D01*
X23271640Y-9458064D01*
X23249500Y-9540691D01*
X19127113Y-9540691D01*
X19149254Y-9458062D01*
X19149254Y-9339444D01*
X19118553Y-9224867D01*
X19118551Y-9224864D01*
X19118551Y-9224862D01*
X19059246Y-9122144D01*
X19059244Y-9122142D01*
X19059243Y-9122140D01*
X18975367Y-9038264D01*
X18975364Y-9038262D01*
X18975362Y-9038260D01*
X18872643Y-8978955D01*
X18872644Y-8978955D01*
X18859105Y-8975327D01*
X18758063Y-8948253D01*
X18639445Y-8948253D01*
X18569321Y-8967042D01*
X18524863Y-8978955D01*
X18422145Y-9038260D01*
X18338261Y-9122144D01*
X18278956Y-9224862D01*
X18264128Y-9280201D01*
X18248254Y-9339444D01*
X6169760Y-9339444D01*
X6160492Y-9323391D01*
X6160490Y-9323389D01*
X6160489Y-9323387D01*
X6076613Y-9239511D01*
X6076610Y-9239509D01*
X6076608Y-9239507D01*
X5973889Y-9180202D01*
X5973890Y-9180202D01*
X5960351Y-9176574D01*
X5859309Y-9149500D01*
X5740691Y-9149500D01*
X5670567Y-9168289D01*
X5626109Y-9180202D01*
X5523391Y-9239507D01*
X5439507Y-9323391D01*
X5380202Y-9426109D01*
X5371640Y-9458064D01*
X5349500Y-9540691D01*
X200500Y-9540691D01*
X200500Y-7689444D01*
X19898254Y-7689444D01*
X19898254Y-7808062D01*
X19925328Y-7909104D01*
X19928956Y-7922643D01*
X19988261Y-8025361D01*
X19988263Y-8025363D01*
X19988265Y-8025366D01*
X20072141Y-8109242D01*
X20072143Y-8109243D01*
X20072145Y-8109245D01*
X20174864Y-8168550D01*
X20174865Y-8168550D01*
X20174868Y-8168552D01*
X20289445Y-8199253D01*
X20289447Y-8199253D01*
X20408061Y-8199253D01*
X20408063Y-8199253D01*
X20522640Y-8168552D01*
X20522642Y-8168550D01*
X20522644Y-8168550D01*
X20625362Y-8109245D01*
X20625362Y-8109244D01*
X20625367Y-8109242D01*
X20709243Y-8025366D01*
X20768553Y-7922639D01*
X20799254Y-7808062D01*
X20799254Y-7689444D01*
X20768553Y-7574867D01*
X20768551Y-7574864D01*
X20768551Y-7574862D01*
X20709246Y-7472144D01*
X20709244Y-7472142D01*
X20709243Y-7472140D01*
X20625367Y-7388264D01*
X20625364Y-7388262D01*
X20625362Y-7388260D01*
X20522643Y-7328955D01*
X20522644Y-7328955D01*
X20509105Y-7325327D01*
X20408063Y-7298253D01*
X20289445Y-7298253D01*
X20219321Y-7317042D01*
X20174863Y-7328955D01*
X20072145Y-7388260D01*
X19988261Y-7472144D01*
X19928956Y-7574862D01*
X19928955Y-7574867D01*
X19898254Y-7689444D01*
X200500Y-7689444D01*
X200500Y-7140691D01*
X21749500Y-7140691D01*
X21749500Y-7259309D01*
X21768162Y-7328955D01*
X21780202Y-7373890D01*
X21839507Y-7476608D01*
X21839509Y-7476610D01*
X21839511Y-7476613D01*
X21923387Y-7560489D01*
X21923389Y-7560490D01*
X21923391Y-7560492D01*
X22026110Y-7619797D01*
X22026111Y-7619797D01*
X22026114Y-7619799D01*
X22140691Y-7650500D01*
X22140693Y-7650500D01*
X22259307Y-7650500D01*
X22259309Y-7650500D01*
X22373886Y-7619799D01*
X22373888Y-7619797D01*
X22373890Y-7619797D01*
X22476608Y-7560492D01*
X22476608Y-7560491D01*
X22476613Y-7560489D01*
X22560489Y-7476613D01*
X22619799Y-7373886D01*
X22639820Y-7299166D01*
X22673143Y-7247854D01*
X22730265Y-7225927D01*
X22761066Y-7229164D01*
X22840691Y-7250500D01*
X22840692Y-7250500D01*
X22959307Y-7250500D01*
X22959309Y-7250500D01*
X23073886Y-7219799D01*
X23073888Y-7219797D01*
X23073890Y-7219797D01*
X23176608Y-7160492D01*
X23176608Y-7160491D01*
X23176613Y-7160489D01*
X23260489Y-7076613D01*
X23319799Y-6973886D01*
X23350500Y-6859309D01*
X23350500Y-6740691D01*
X23319799Y-6626114D01*
X23319797Y-6626110D01*
X23319797Y-6626109D01*
X23260492Y-6523391D01*
X23260490Y-6523389D01*
X23260489Y-6523387D01*
X23176613Y-6439511D01*
X23176610Y-6439509D01*
X23176608Y-6439507D01*
X23073889Y-6380202D01*
X23073890Y-6380202D01*
X23060351Y-6376574D01*
X22959309Y-6349500D01*
X22840691Y-6349500D01*
X22799669Y-6360492D01*
X22726109Y-6380202D01*
X22623391Y-6439507D01*
X22539507Y-6523391D01*
X22480202Y-6626110D01*
X22480200Y-6626114D01*
X22460179Y-6700832D01*
X22426855Y-6752146D01*
X22369733Y-6774072D01*
X22338932Y-6770835D01*
X22259309Y-6749500D01*
X22140691Y-6749500D01*
X22070567Y-6768289D01*
X22026109Y-6780202D01*
X21923391Y-6839507D01*
X21839507Y-6923391D01*
X21780202Y-7026109D01*
X21780201Y-7026114D01*
X21749500Y-7140691D01*
X200500Y-7140691D01*
X200500Y-5540691D01*
X8149500Y-5540691D01*
X8149500Y-5659309D01*
X8176295Y-5759307D01*
X8180202Y-5773890D01*
X8239507Y-5876608D01*
X8239509Y-5876610D01*
X8239511Y-5876613D01*
X8323387Y-5960489D01*
X8323389Y-5960490D01*
X8323391Y-5960492D01*
X8426110Y-6019797D01*
X8426111Y-6019797D01*
X8426114Y-6019799D01*
X8540691Y-6050500D01*
X8540693Y-6050500D01*
X8659307Y-6050500D01*
X8659309Y-6050500D01*
X8773886Y-6019799D01*
X8773888Y-6019797D01*
X8773890Y-6019797D01*
X8876608Y-5960492D01*
X8876608Y-5960491D01*
X8876613Y-5960489D01*
X8960489Y-5876613D01*
X8962062Y-5873888D01*
X9019797Y-5773890D01*
X9019797Y-5773888D01*
X9019799Y-5773886D01*
X9050500Y-5659309D01*
X9050500Y-5640691D01*
X10349500Y-5640691D01*
X10349500Y-5759309D01*
X10371306Y-5840691D01*
X10380202Y-5873890D01*
X10439507Y-5976608D01*
X10439509Y-5976610D01*
X10439511Y-5976613D01*
X10523387Y-6060489D01*
X10523389Y-6060490D01*
X10523391Y-6060492D01*
X10626110Y-6119797D01*
X10626111Y-6119797D01*
X10626114Y-6119799D01*
X10740691Y-6150500D01*
X10740693Y-6150500D01*
X10859307Y-6150500D01*
X10859309Y-6150500D01*
X10973886Y-6119799D01*
X10973888Y-6119797D01*
X10973890Y-6119797D01*
X11076608Y-6060492D01*
X11076608Y-6060491D01*
X11076613Y-6060489D01*
X11160489Y-5976613D01*
X11181227Y-5940694D01*
X11181229Y-5940691D01*
X29759500Y-5940691D01*
X29759500Y-6059309D01*
X29783935Y-6150500D01*
X29790202Y-6173890D01*
X29849507Y-6276608D01*
X29849509Y-6276610D01*
X29849511Y-6276613D01*
X29933387Y-6360489D01*
X29933389Y-6360490D01*
X29933391Y-6360492D01*
X30036110Y-6419797D01*
X30036111Y-6419797D01*
X30036114Y-6419799D01*
X30150691Y-6450500D01*
X30150693Y-6450500D01*
X30269307Y-6450500D01*
X30269309Y-6450500D01*
X30383886Y-6419799D01*
X30383888Y-6419797D01*
X30383890Y-6419797D01*
X30486608Y-6360492D01*
X30486608Y-6360491D01*
X30486613Y-6360489D01*
X30570489Y-6276613D01*
X30628225Y-6176613D01*
X30629797Y-6173890D01*
X30629797Y-6173888D01*
X30629799Y-6173886D01*
X30660500Y-6059309D01*
X30660500Y-5940691D01*
X30633705Y-5840691D01*
X31049500Y-5840691D01*
X31049500Y-5959309D01*
X31073935Y-6050500D01*
X31080202Y-6073890D01*
X31139507Y-6176608D01*
X31139509Y-6176610D01*
X31139511Y-6176613D01*
X31223387Y-6260489D01*
X31223389Y-6260490D01*
X31223391Y-6260492D01*
X31326110Y-6319797D01*
X31326111Y-6319797D01*
X31326114Y-6319799D01*
X31440691Y-6350500D01*
X31440693Y-6350500D01*
X31559307Y-6350500D01*
X31559309Y-6350500D01*
X31673886Y-6319799D01*
X31673888Y-6319797D01*
X31673890Y-6319797D01*
X31776608Y-6260492D01*
X31776608Y-6260491D01*
X31776613Y-6260489D01*
X31860489Y-6176613D01*
X31862061Y-6173890D01*
X31919797Y-6073890D01*
X31919797Y-6073888D01*
X31919799Y-6073886D01*
X31950500Y-5959309D01*
X31950500Y-5840691D01*
X31919799Y-5726114D01*
X31919797Y-5726111D01*
X31919797Y-5726109D01*
X31860492Y-5623391D01*
X31860490Y-5623389D01*
X31860489Y-5623387D01*
X31776613Y-5539511D01*
X31776610Y-5539509D01*
X31776608Y-5539507D01*
X31673889Y-5480202D01*
X31673890Y-5480202D01*
X31660351Y-5476574D01*
X31559309Y-5449500D01*
X31440691Y-5449500D01*
X31370567Y-5468289D01*
X31326109Y-5480202D01*
X31223391Y-5539507D01*
X31139507Y-5623391D01*
X31080202Y-5726109D01*
X31080201Y-5726114D01*
X31049500Y-5840691D01*
X30633705Y-5840691D01*
X30629799Y-5826114D01*
X30629796Y-5826109D01*
X30570492Y-5723391D01*
X30570490Y-5723389D01*
X30570489Y-5723387D01*
X30486613Y-5639511D01*
X30486610Y-5639509D01*
X30486608Y-5639507D01*
X30383889Y-5580202D01*
X30383890Y-5580202D01*
X30370351Y-5576574D01*
X30269309Y-5549500D01*
X30150691Y-5549500D01*
X30080567Y-5568289D01*
X30036109Y-5580202D01*
X29933391Y-5639507D01*
X29849507Y-5723391D01*
X29790202Y-5826109D01*
X29790201Y-5826114D01*
X29759500Y-5940691D01*
X11181229Y-5940691D01*
X11213555Y-5884702D01*
X11213555Y-5884701D01*
X11214214Y-5883558D01*
X11219799Y-5873886D01*
X11250500Y-5759309D01*
X11250500Y-5640691D01*
X11219799Y-5526114D01*
X11219797Y-5526111D01*
X11219797Y-5526109D01*
X11160492Y-5423391D01*
X11160490Y-5423389D01*
X11160489Y-5423387D01*
X11076613Y-5339511D01*
X11076610Y-5339509D01*
X11076608Y-5339507D01*
X10973889Y-5280202D01*
X10973890Y-5280202D01*
X10960351Y-5276574D01*
X10859309Y-5249500D01*
X10740691Y-5249500D01*
X10670567Y-5268289D01*
X10626109Y-5280202D01*
X10523391Y-5339507D01*
X10439507Y-5423391D01*
X10380202Y-5526109D01*
X10365708Y-5580201D01*
X10349500Y-5640691D01*
X9050500Y-5640691D01*
X9050500Y-5540691D01*
X9019799Y-5426114D01*
X9019797Y-5426111D01*
X9019797Y-5426109D01*
X8960492Y-5323391D01*
X8960490Y-5323389D01*
X8960489Y-5323387D01*
X8876613Y-5239511D01*
X8876610Y-5239509D01*
X8876608Y-5239507D01*
X8773889Y-5180202D01*
X8773890Y-5180202D01*
X8760351Y-5176574D01*
X8659309Y-5149500D01*
X8540691Y-5149500D01*
X8470567Y-5168289D01*
X8426109Y-5180202D01*
X8323391Y-5239507D01*
X8239507Y-5323391D01*
X8180202Y-5426109D01*
X8165708Y-5480201D01*
X8149500Y-5540691D01*
X200500Y-5540691D01*
X200500Y-4640691D01*
X23449500Y-4640691D01*
X23449500Y-4759309D01*
X23470086Y-4836137D01*
X23480202Y-4873890D01*
X23539507Y-4976608D01*
X23539509Y-4976610D01*
X23539511Y-4976613D01*
X23623387Y-5060489D01*
X23623389Y-5060490D01*
X23623391Y-5060492D01*
X23726110Y-5119797D01*
X23726111Y-5119797D01*
X23726114Y-5119799D01*
X23840691Y-5150500D01*
X23840693Y-5150500D01*
X23959307Y-5150500D01*
X23959309Y-5150500D01*
X24073886Y-5119799D01*
X24073888Y-5119797D01*
X24073890Y-5119797D01*
X24176608Y-5060492D01*
X24176608Y-5060491D01*
X24176613Y-5060489D01*
X24260489Y-4976613D01*
X24260492Y-4976608D01*
X24314264Y-4883474D01*
X24359733Y-4842533D01*
X24420584Y-4836137D01*
X24473572Y-4866730D01*
X24485736Y-4883474D01*
X24539507Y-4976608D01*
X24539509Y-4976610D01*
X24539511Y-4976613D01*
X24623387Y-5060489D01*
X24623389Y-5060490D01*
X24623391Y-5060492D01*
X24726110Y-5119797D01*
X24726111Y-5119797D01*
X24726114Y-5119799D01*
X24840691Y-5150500D01*
X24840693Y-5150500D01*
X24959307Y-5150500D01*
X24959309Y-5150500D01*
X25073886Y-5119799D01*
X25073888Y-5119797D01*
X25073890Y-5119797D01*
X25176608Y-5060492D01*
X25176608Y-5060491D01*
X25176613Y-5060489D01*
X25260489Y-4976613D01*
X25260492Y-4976608D01*
X25314264Y-4883474D01*
X25359733Y-4842533D01*
X25420584Y-4836137D01*
X25473572Y-4866730D01*
X25485736Y-4883474D01*
X25539507Y-4976608D01*
X25539509Y-4976610D01*
X25539511Y-4976613D01*
X25623387Y-5060489D01*
X25623389Y-5060490D01*
X25623391Y-5060492D01*
X25726110Y-5119797D01*
X25726111Y-5119797D01*
X25726114Y-5119799D01*
X25840691Y-5150500D01*
X25840693Y-5150500D01*
X25959307Y-5150500D01*
X25959309Y-5150500D01*
X26073886Y-5119799D01*
X26073888Y-5119797D01*
X26073890Y-5119797D01*
X26176608Y-5060492D01*
X26176608Y-5060491D01*
X26176613Y-5060489D01*
X26260489Y-4976613D01*
X26260492Y-4976608D01*
X26314264Y-4883474D01*
X26359733Y-4842533D01*
X26420584Y-4836137D01*
X26473572Y-4866730D01*
X26485736Y-4883474D01*
X26539507Y-4976608D01*
X26539509Y-4976610D01*
X26539511Y-4976613D01*
X26623387Y-5060489D01*
X26623389Y-5060490D01*
X26623391Y-5060492D01*
X26726110Y-5119797D01*
X26726111Y-5119797D01*
X26726114Y-5119799D01*
X26840691Y-5150500D01*
X26840693Y-5150500D01*
X26959307Y-5150500D01*
X26959309Y-5150500D01*
X27073886Y-5119799D01*
X27073888Y-5119797D01*
X27073890Y-5119797D01*
X27176608Y-5060492D01*
X27176608Y-5060491D01*
X27176613Y-5060489D01*
X27260489Y-4976613D01*
X27260492Y-4976608D01*
X27319797Y-4873890D01*
X27319797Y-4873888D01*
X27319799Y-4873886D01*
X27350500Y-4759309D01*
X27350500Y-4640691D01*
X27319799Y-4526114D01*
X27319797Y-4526111D01*
X27319797Y-4526109D01*
X27260492Y-4423391D01*
X27260490Y-4423389D01*
X27260489Y-4423387D01*
X27176613Y-4339511D01*
X27176610Y-4339509D01*
X27176608Y-4339507D01*
X27073889Y-4280202D01*
X27073890Y-4280202D01*
X27060351Y-4276574D01*
X26959309Y-4249500D01*
X26840691Y-4249500D01*
X26770567Y-4268289D01*
X26726109Y-4280202D01*
X26623391Y-4339507D01*
X26539509Y-4423389D01*
X26485736Y-4516526D01*
X26440266Y-4557466D01*
X26379416Y-4563861D01*
X26326428Y-4533268D01*
X26314264Y-4516526D01*
X26260490Y-4423389D01*
X26260489Y-4423387D01*
X26176613Y-4339511D01*
X26176610Y-4339509D01*
X26176608Y-4339507D01*
X26073889Y-4280202D01*
X26073890Y-4280202D01*
X26060351Y-4276574D01*
X25959309Y-4249500D01*
X25840691Y-4249500D01*
X25770567Y-4268289D01*
X25726109Y-4280202D01*
X25623391Y-4339507D01*
X25539509Y-4423389D01*
X25485736Y-4516526D01*
X25440266Y-4557466D01*
X25379416Y-4563861D01*
X25326428Y-4533268D01*
X25314264Y-4516526D01*
X25260490Y-4423389D01*
X25260489Y-4423387D01*
X25176613Y-4339511D01*
X25176610Y-4339509D01*
X25176608Y-4339507D01*
X25073889Y-4280202D01*
X25073890Y-4280202D01*
X25060351Y-4276574D01*
X24959309Y-4249500D01*
X24840691Y-4249500D01*
X24770567Y-4268289D01*
X24726109Y-4280202D01*
X24623391Y-4339507D01*
X24539509Y-4423389D01*
X24485736Y-4516526D01*
X24440266Y-4557466D01*
X24379416Y-4563861D01*
X24326428Y-4533268D01*
X24314264Y-4516526D01*
X24260490Y-4423389D01*
X24260489Y-4423387D01*
X24176613Y-4339511D01*
X24176610Y-4339509D01*
X24176608Y-4339507D01*
X24073889Y-4280202D01*
X24073890Y-4280202D01*
X24060351Y-4276574D01*
X23959309Y-4249500D01*
X23840691Y-4249500D01*
X23770567Y-4268289D01*
X23726109Y-4280202D01*
X23623391Y-4339507D01*
X23539507Y-4423391D01*
X23480202Y-4526109D01*
X23480201Y-4526114D01*
X23449500Y-4640691D01*
X200500Y-4640691D01*
X200500Y-2897807D01*
X219407Y-2839616D01*
X268907Y-2803652D01*
X330093Y-2803652D01*
X378042Y-2837540D01*
X431075Y-2906654D01*
X431077Y-2906656D01*
X431081Y-2906661D01*
X593339Y-3068919D01*
X775388Y-3208611D01*
X974112Y-3323344D01*
X974113Y-3323344D01*
X974116Y-3323346D01*
X1063788Y-3360489D01*
X1186113Y-3411158D01*
X1407762Y-3470548D01*
X1635266Y-3500500D01*
X1635267Y-3500500D01*
X1864733Y-3500500D01*
X1864734Y-3500500D01*
X2092238Y-3470548D01*
X2203667Y-3440691D01*
X8349500Y-3440691D01*
X8349500Y-3559309D01*
X8376574Y-3660351D01*
X8380202Y-3673890D01*
X8439507Y-3776608D01*
X8439509Y-3776610D01*
X8439511Y-3776613D01*
X8523387Y-3860489D01*
X8523389Y-3860490D01*
X8523391Y-3860492D01*
X8626110Y-3919797D01*
X8626111Y-3919797D01*
X8626114Y-3919799D01*
X8740691Y-3950500D01*
X8740693Y-3950500D01*
X8859307Y-3950500D01*
X8859309Y-3950500D01*
X8973886Y-3919799D01*
X8973888Y-3919797D01*
X8973890Y-3919797D01*
X9076608Y-3860492D01*
X9076608Y-3860491D01*
X9076613Y-3860489D01*
X9160489Y-3776613D01*
X9219799Y-3673886D01*
X9250500Y-3559309D01*
X9250500Y-3440691D01*
X9247797Y-3430605D01*
X10139414Y-3430605D01*
X10139414Y-3549223D01*
X10142116Y-3559307D01*
X10170116Y-3663804D01*
X10229421Y-3766522D01*
X10229423Y-3766524D01*
X10229425Y-3766527D01*
X10313301Y-3850403D01*
X10313303Y-3850404D01*
X10313305Y-3850406D01*
X10416024Y-3909711D01*
X10416025Y-3909711D01*
X10416028Y-3909713D01*
X10530605Y-3940414D01*
X10530607Y-3940414D01*
X10649221Y-3940414D01*
X10649223Y-3940414D01*
X10763800Y-3909713D01*
X10763802Y-3909711D01*
X10763804Y-3909711D01*
X10866522Y-3850406D01*
X10866522Y-3850405D01*
X10866527Y-3850403D01*
X10950403Y-3766527D01*
X10950406Y-3766522D01*
X11009711Y-3663804D01*
X11009711Y-3663802D01*
X11009713Y-3663800D01*
X11040414Y-3549223D01*
X11040414Y-3430605D01*
X11009713Y-3316028D01*
X11009711Y-3316025D01*
X11009711Y-3316023D01*
X10950406Y-3213305D01*
X10950404Y-3213303D01*
X10950403Y-3213301D01*
X10866527Y-3129425D01*
X10866524Y-3129423D01*
X10866522Y-3129421D01*
X10763803Y-3070116D01*
X10763804Y-3070116D01*
X10750265Y-3066488D01*
X10649223Y-3039414D01*
X10530605Y-3039414D01*
X10460481Y-3058203D01*
X10416023Y-3070116D01*
X10313305Y-3129421D01*
X10229421Y-3213305D01*
X10170116Y-3316023D01*
X10168154Y-3323346D01*
X10139414Y-3430605D01*
X9247797Y-3430605D01*
X9219799Y-3326114D01*
X9219797Y-3326111D01*
X9219797Y-3326109D01*
X9160492Y-3223391D01*
X9160490Y-3223389D01*
X9160489Y-3223387D01*
X9076613Y-3139511D01*
X9076610Y-3139509D01*
X9076608Y-3139507D01*
X8973889Y-3080202D01*
X8973890Y-3080202D01*
X8936248Y-3070116D01*
X8859309Y-3049500D01*
X8740691Y-3049500D01*
X8704084Y-3059309D01*
X8626109Y-3080202D01*
X8523391Y-3139507D01*
X8439507Y-3223391D01*
X8380202Y-3326109D01*
X8375746Y-3342739D01*
X8349500Y-3440691D01*
X2203667Y-3440691D01*
X2313887Y-3411158D01*
X2525888Y-3323344D01*
X2724612Y-3208611D01*
X2906661Y-3068919D01*
X3034889Y-2940691D01*
X11949500Y-2940691D01*
X11949500Y-3059309D01*
X11968287Y-3129421D01*
X11980202Y-3173890D01*
X12039507Y-3276608D01*
X12039509Y-3276610D01*
X12039511Y-3276613D01*
X12123387Y-3360489D01*
X12123389Y-3360490D01*
X12123391Y-3360492D01*
X12226110Y-3419797D01*
X12226111Y-3419797D01*
X12226114Y-3419799D01*
X12340691Y-3450500D01*
X12340693Y-3450500D01*
X12459307Y-3450500D01*
X12459309Y-3450500D01*
X12573886Y-3419799D01*
X12573888Y-3419797D01*
X12573890Y-3419797D01*
X12676608Y-3360492D01*
X12676608Y-3360491D01*
X12676613Y-3360489D01*
X12760489Y-3276613D01*
X12791217Y-3223391D01*
X12819797Y-3173890D01*
X12819797Y-3173888D01*
X12819799Y-3173886D01*
X12850500Y-3059309D01*
X12850500Y-2940691D01*
X12819799Y-2826114D01*
X12819797Y-2826111D01*
X12819797Y-2826109D01*
X12760492Y-2723391D01*
X12760490Y-2723389D01*
X12760489Y-2723387D01*
X12676613Y-2639511D01*
X12676610Y-2639509D01*
X12676608Y-2639507D01*
X12573889Y-2580202D01*
X12573890Y-2580202D01*
X12560351Y-2576574D01*
X12459309Y-2549500D01*
X12340691Y-2549500D01*
X12274683Y-2567187D01*
X12226109Y-2580202D01*
X12123391Y-2639507D01*
X12039507Y-2723391D01*
X11980202Y-2826109D01*
X11980201Y-2826114D01*
X11949500Y-2940691D01*
X3034889Y-2940691D01*
X3068919Y-2906661D01*
X3208611Y-2724612D01*
X3323344Y-2525888D01*
X3354492Y-2450691D01*
X14249500Y-2450691D01*
X14249500Y-2569309D01*
X14252419Y-2580201D01*
X14280202Y-2683890D01*
X14339507Y-2786608D01*
X14339509Y-2786610D01*
X14339511Y-2786613D01*
X14423387Y-2870489D01*
X14423389Y-2870490D01*
X14423391Y-2870492D01*
X14526110Y-2929797D01*
X14526111Y-2929797D01*
X14526114Y-2929799D01*
X14640691Y-2960500D01*
X14640693Y-2960500D01*
X14759307Y-2960500D01*
X14759309Y-2960500D01*
X14873886Y-2929799D01*
X14873888Y-2929797D01*
X14873890Y-2929797D01*
X14976608Y-2870492D01*
X14976608Y-2870491D01*
X14976613Y-2870489D01*
X15060489Y-2786613D01*
X15119799Y-2683886D01*
X15150500Y-2569309D01*
X15150500Y-2450691D01*
X15119799Y-2336114D01*
X15119797Y-2336111D01*
X15119797Y-2336109D01*
X15060492Y-2233391D01*
X15060490Y-2233389D01*
X15060489Y-2233387D01*
X14976613Y-2149511D01*
X14976610Y-2149509D01*
X14976608Y-2149507D01*
X14873889Y-2090202D01*
X14873890Y-2090202D01*
X14860351Y-2086574D01*
X14759309Y-2059500D01*
X14640691Y-2059500D01*
X14570567Y-2078289D01*
X14526109Y-2090202D01*
X14423391Y-2149507D01*
X14339507Y-2233391D01*
X14280202Y-2336109D01*
X14280201Y-2336114D01*
X14249500Y-2450691D01*
X3354492Y-2450691D01*
X3411158Y-2313887D01*
X3470548Y-2092238D01*
X3500500Y-1864734D01*
X3500500Y-1635266D01*
X3470548Y-1407762D01*
X3411158Y-1186113D01*
X3323344Y-974112D01*
X3208611Y-775388D01*
X3068919Y-593339D01*
X2906661Y-431081D01*
X2906656Y-431077D01*
X2906654Y-431075D01*
X2837540Y-378042D01*
X2802884Y-327617D01*
X2804485Y-266453D01*
X2841733Y-217911D01*
X2897807Y-200500D01*
X31102193Y-200500D01*
X31160384Y-219407D01*
G37*
%TD.AperFunction*%
%TD*%
M02*
