%TF.GenerationSoftware,KiCad,Pcbnew,9.0.7-9.0.7~ubuntu24.04.1*%
%TF.CreationDate,2026-02-24T22:00:52+01:00*%
%TF.ProjectId,fcg4,66636734-2e6b-4696-9361-645f70636258,rev?*%
%TF.SameCoordinates,Original*%
%TF.FileFunction,Copper,L3,Inr*%
%TF.FilePolarity,Positive*%
%FSLAX46Y46*%
G04 Gerber Fmt 4.6, Leading zero omitted, Abs format (unit mm)*
G04 Created by KiCad (PCBNEW 9.0.7-9.0.7~ubuntu24.04.1) date 2026-02-24 22:00:52*
%MOMM*%
%LPD*%
G01*
G04 APERTURE LIST*
%TA.AperFunction,ComponentPad*%
%ADD10O,2.100000X1.000000*%
%TD*%
%TA.AperFunction,ComponentPad*%
%ADD11O,1.800000X1.000000*%
%TD*%
%TA.AperFunction,ViaPad*%
%ADD12C,0.500000*%
%TD*%
%TA.AperFunction,Conductor*%
%ADD13C,0.120000*%
%TD*%
G04 APERTURE END LIST*
D10*
%TO.N,GND*%
%TO.C,J1*%
X27520000Y-25900000D03*
%TO.N,N/C*%
X27520000Y-17260000D03*
D11*
X31700000Y-25900000D03*
X31700000Y-17260000D03*
%TD*%
D12*
%TO.N,VDD_MCU*%
X15400000Y-16100000D03*
%TO.N,GND*%
X14356864Y-14617211D03*
X14310000Y-11500000D03*
%TO.N,VDD_MCU*%
X3800000Y-13000000D03*
%TO.N,GND*%
X13490000Y-3219623D03*
X9900000Y-9100000D03*
X15200000Y-300000D03*
%TO.N,MOTOR1*%
X25800000Y-8800000D03*
%TO.N,MOTOR2*%
X25000003Y-8800000D03*
%TO.N,MOTOR3*%
X24400000Y-8800000D03*
%TO.N,MOTOR4*%
X23700000Y-8800000D03*
%TO.N,GND*%
X32800000Y-8700000D03*
X7600000Y-10200000D03*
%TO.N,VDD_MCU*%
X23700000Y-16900000D03*
X6100000Y-15800000D03*
X25500000Y-30400000D03*
X4200000Y-7430000D03*
X32190000Y-5900000D03*
X23199480Y-24599340D03*
%TO.N,/Power/LC_5V5*%
X17500000Y-10000000D03*
X20348754Y-7748753D03*
%TO.N,GND*%
X6800000Y-16700000D03*
X12800000Y-25900000D03*
X21900000Y-9500000D03*
X21689914Y-27389914D03*
X9100000Y-900000D03*
X19900000Y-3200000D03*
X17700000Y-33100000D03*
X900000Y-28900000D03*
X20400000Y-21600000D03*
X8824730Y-24925269D03*
X18800000Y-20150000D03*
X16607864Y-25839322D03*
X18800000Y-21600000D03*
X17300000Y-18300000D03*
X4300000Y-16600000D03*
X22500000Y-23700000D03*
X2500000Y-5130000D03*
X900000Y-12500000D03*
X18800000Y-18300000D03*
X20400000Y-20100000D03*
X29075000Y-6600000D03*
X24900000Y-29000000D03*
X13110000Y-21100000D03*
X26100000Y-12500000D03*
X17300000Y-20100000D03*
X4400000Y-21600000D03*
X19166662Y-15928309D03*
X20400000Y-18300000D03*
X4500000Y-11530000D03*
X17300000Y-21600000D03*
X17700000Y-29900000D03*
X10625180Y-15878377D03*
X7600000Y-21920000D03*
X30500000Y-16600000D03*
X24400000Y-17200000D03*
X8900000Y-33100000D03*
X14500000Y-16900003D03*
%TO.N,/Power/PG_5V5*%
X19500000Y-8400000D03*
X18197936Y-12941549D03*
%TO.N,/Power/FB_5V5*%
X13400000Y-13400000D03*
X18221862Y-12337794D03*
%TO.N,MOTOR2*%
X18507376Y-24290795D03*
%TO.N,MOTOR1*%
X17277466Y-15500185D03*
X30900000Y-6000000D03*
%TO.N,RX2*%
X14525440Y-21837402D03*
X22200000Y-6110000D03*
%TO.N,CURRENT_SENSOR*%
X22900000Y-5700000D03*
X14414056Y-20835405D03*
%TO.N,MOTOR3*%
X18391328Y-15936067D03*
%TO.N,MOTOR4*%
X18288755Y-11691073D03*
%TO.N,TX3*%
X14700000Y-2010000D03*
X20100000Y-24395040D03*
%TO.N,/MCU/NRST*%
X11700000Y-18340000D03*
X6000000Y-20500000D03*
%TO.N,TX1*%
X23329232Y-20378025D03*
X6700000Y-29900000D03*
%TO.N,/MCU/OSC_OUT*%
X14496277Y-20001000D03*
X12800000Y-18100000D03*
%TO.N,SWDIO-JTMS*%
X23200000Y-16400000D03*
X24800000Y-23300000D03*
%TO.N,RX3*%
X16600000Y-25100000D03*
X21840000Y-24300000D03*
X12543046Y-2357205D03*
X6700000Y-33100000D03*
%TO.N,TX4*%
X23570711Y-25070711D03*
X20800000Y-15800000D03*
X13300000Y-33100000D03*
%TO.N,SPI1_SDI*%
X13300000Y-22900000D03*
X15500000Y-24298383D03*
%TO.N,SWCLK-JTCK*%
X22700000Y-15900000D03*
X25100000Y-22700000D03*
%TO.N,RX1*%
X23329232Y-19778022D03*
X8900000Y-29900000D03*
%TO.N,/MCU/OSC_IN*%
X14582980Y-19271421D03*
X14500000Y-16300000D03*
%TO.N,BZ*%
X23024998Y-20895173D03*
X10600000Y-22600000D03*
X900000Y-22600000D03*
%TO.N,GYRO_1_EXTI*%
X11300000Y-22100000D03*
X14497685Y-18677514D03*
%TO.N,SPI1_SD0*%
X16685945Y-24385945D03*
X13600000Y-23555001D03*
%TO.N,GYRO_1_CS*%
X13700000Y-24500000D03*
X13490000Y-18189000D03*
%TO.N,I2C1_SDA*%
X17851988Y-15673172D03*
X9222856Y-18477145D03*
X13300000Y-29900000D03*
%TO.N,I2C1_SCL*%
X15456124Y-29856124D03*
X8404559Y-18426145D03*
X21472090Y-15890000D03*
%TO.N,RX4*%
X20050000Y-16000000D03*
X23409878Y-25740662D03*
X11100000Y-33100000D03*
%TO.N,VOLTAGE_SENSOR*%
X8900000Y-10500000D03*
X9500000Y-16900000D03*
%TO.N,9V_BEC*%
X31976993Y-14251694D03*
X15539914Y-33139914D03*
%TO.N,/Connectors/MOTOR_2*%
X7400000Y-5200000D03*
X25900000Y-5800000D03*
%TO.N,/Connectors/MOTOR_1*%
X26900000Y-6000000D03*
X7600000Y-3100000D03*
%TO.N,/Connectors/MOTOR_3*%
X9389914Y-3089914D03*
X24900000Y-5800000D03*
%TO.N,/Connectors/MOTOR_4*%
X9600000Y-5300000D03*
X23900000Y-5800000D03*
%TD*%
D13*
%TO.N,I2C1_SDA*%
X9222856Y-18477145D02*
X10142001Y-17558000D01*
X10142001Y-17558000D02*
X15967160Y-17558000D01*
X15967160Y-17558000D02*
X17851988Y-15673172D01*
%TO.N,MOTOR2*%
X25170500Y-8970497D02*
X25000003Y-8800000D01*
X25170500Y-10210742D02*
X25170500Y-8970497D01*
%TO.N,/Power/PG_5V5*%
X18197936Y-12941549D02*
X18698754Y-12440731D01*
X18698754Y-12440731D02*
X18698754Y-9201246D01*
X18698754Y-9201246D02*
X19500000Y-8400000D01*
%TO.N,/Power/FB_5V5*%
X13821615Y-12978385D02*
X13400000Y-13400000D01*
X18221862Y-12337794D02*
X17581271Y-12978385D01*
X17581271Y-12978385D02*
X13821615Y-12978385D01*
%TO.N,MOTOR2*%
X19576662Y-15804580D02*
X19576662Y-16276662D01*
X18507376Y-24267083D02*
X18507376Y-24290795D01*
X19576662Y-16276662D02*
X19921000Y-16621000D01*
X23739232Y-18343819D02*
X23739232Y-20760768D01*
X18938770Y-23835689D02*
X18507376Y-24267083D01*
X25170500Y-10210742D02*
X19576662Y-15804580D01*
X19921000Y-16621000D02*
X22016413Y-16621000D01*
X23739232Y-20760768D02*
X20664311Y-23835689D01*
X20664311Y-23835689D02*
X18938770Y-23835689D01*
X22016413Y-16621000D02*
X23739232Y-18343819D01*
%TO.N,/MCU/OSC_OUT*%
X14759905Y-19691215D02*
X14871799Y-19691215D01*
X14496277Y-19954843D02*
X14759905Y-19691215D01*
X13190691Y-17779000D02*
X12869691Y-18100000D01*
X15141846Y-19421168D02*
X15141846Y-19039262D01*
X15100000Y-18997416D02*
X15100000Y-18500000D01*
X14496277Y-20001000D02*
X14496277Y-19954843D01*
X15100000Y-18500000D02*
X14379000Y-17779000D01*
X14871799Y-19691215D02*
X15141846Y-19421168D01*
X15141846Y-19039262D02*
X15100000Y-18997416D01*
X12869691Y-18100000D02*
X12800000Y-18100000D01*
X14379000Y-17779000D02*
X13190691Y-17779000D01*
%TO.N,RX3*%
X16800000Y-25300000D02*
X16600000Y-25100000D01*
X21840000Y-24300000D02*
X21840000Y-24512612D01*
X21840000Y-24512612D02*
X21052612Y-25300000D01*
X21052612Y-25300000D02*
X16800000Y-25300000D01*
%TO.N,TX4*%
X20800000Y-15857415D02*
X21242585Y-16300000D01*
X22007955Y-16300000D02*
X23960232Y-18252277D01*
X21242585Y-16300000D02*
X22007955Y-16300000D01*
X23960232Y-18252277D02*
X23960232Y-24681190D01*
X20800000Y-15800000D02*
X20800000Y-15857415D01*
X23960232Y-24681190D02*
X23570711Y-25070711D01*
%TO.N,BZ*%
X10600000Y-22600000D02*
X12620000Y-22600000D01*
X12620000Y-22600000D02*
X12820000Y-22400000D01*
X12820000Y-22400000D02*
X21520171Y-22400000D01*
X21520171Y-22400000D02*
X23024998Y-20895173D01*
%TO.N,GYRO_1_EXTI*%
X14400000Y-18800000D02*
X14400000Y-18775199D01*
X14400000Y-18775199D02*
X14497685Y-18677514D01*
X11300000Y-21875199D02*
X14497685Y-18677514D01*
X11300000Y-22100000D02*
X11300000Y-21875199D01*
%TO.N,I2C1_SDA*%
X17851988Y-15673172D02*
X17851290Y-15673172D01*
%TO.N,RX4*%
X24281232Y-24941432D02*
X23482002Y-25740662D01*
X24281232Y-18119315D02*
X24281232Y-24941432D01*
X21472915Y-15310998D02*
X24281232Y-18119315D01*
X23482002Y-25740662D02*
X23409878Y-25740662D01*
X20474761Y-15310998D02*
X21472915Y-15310998D01*
X20050000Y-16000000D02*
X20050000Y-15735759D01*
X20050000Y-15735759D02*
X20474761Y-15310998D01*
%TD*%
%TA.AperFunction,Conductor*%
%TO.N,VDD_MCU*%
G36*
X14941631Y279815D02*
G01*
X14987386Y227011D01*
X14997330Y157853D01*
X14968305Y94297D01*
X14936592Y68113D01*
X14923387Y60489D01*
X14923384Y60486D01*
X14839513Y-23384D01*
X14839511Y-23387D01*
X14813844Y-67844D01*
X14780201Y-126114D01*
X14749500Y-240691D01*
X14749500Y-359309D01*
X14780201Y-473886D01*
X14839511Y-576613D01*
X14923387Y-660489D01*
X15026114Y-719799D01*
X15140691Y-750500D01*
X15140694Y-750500D01*
X15259306Y-750500D01*
X15259309Y-750500D01*
X15373886Y-719799D01*
X15476613Y-660489D01*
X15560489Y-576613D01*
X15619799Y-473886D01*
X15650500Y-359309D01*
X15650500Y-240691D01*
X15619799Y-126114D01*
X15560489Y-23387D01*
X15476613Y60489D01*
X15463408Y68113D01*
X15415192Y118680D01*
X15401970Y187288D01*
X15427938Y252152D01*
X15484852Y292680D01*
X15525408Y299500D01*
X32460118Y299500D01*
X32495933Y299500D01*
X32504043Y299235D01*
X32726778Y284636D01*
X32742859Y282518D01*
X32957771Y239769D01*
X32973438Y235571D01*
X33180942Y165133D01*
X33195927Y158926D01*
X33392459Y62008D01*
X33406507Y53898D01*
X33588712Y-67848D01*
X33601573Y-77716D01*
X33706495Y-169730D01*
X33766328Y-222202D01*
X33777797Y-233671D01*
X33783955Y-240693D01*
X33888160Y-359517D01*
X33922280Y-398423D01*
X33932154Y-411291D01*
X34053897Y-593492D01*
X34062007Y-607539D01*
X34158926Y-804071D01*
X34165133Y-819057D01*
X34235571Y-1026561D01*
X34239769Y-1042228D01*
X34282518Y-1257140D01*
X34284636Y-1273221D01*
X34299235Y-1495956D01*
X34299500Y-1504066D01*
X34299500Y-32495933D01*
X34299235Y-32504043D01*
X34284636Y-32726778D01*
X34282518Y-32742859D01*
X34239769Y-32957771D01*
X34235571Y-32973438D01*
X34165133Y-33180942D01*
X34158926Y-33195928D01*
X34062007Y-33392460D01*
X34053897Y-33406507D01*
X33932154Y-33588708D01*
X33922280Y-33601576D01*
X33777797Y-33766328D01*
X33766328Y-33777797D01*
X33601576Y-33922280D01*
X33588708Y-33932154D01*
X33406507Y-34053897D01*
X33392460Y-34062007D01*
X33195928Y-34158926D01*
X33180942Y-34165133D01*
X32973438Y-34235571D01*
X32957771Y-34239769D01*
X32742859Y-34282518D01*
X32726778Y-34284636D01*
X32504043Y-34299235D01*
X32495933Y-34299500D01*
X1504067Y-34299500D01*
X1495957Y-34299235D01*
X1273221Y-34284636D01*
X1257140Y-34282518D01*
X1042228Y-34239769D01*
X1026561Y-34235571D01*
X819057Y-34165133D01*
X804071Y-34158926D01*
X607539Y-34062007D01*
X593492Y-34053897D01*
X411291Y-33932154D01*
X398423Y-33922280D01*
X233671Y-33777797D01*
X222202Y-33766328D01*
X169730Y-33706495D01*
X77716Y-33601573D01*
X67845Y-33588708D01*
X54622Y-33568919D01*
X-53898Y-33406507D01*
X-62008Y-33392459D01*
X-158926Y-33195927D01*
X-165133Y-33180942D01*
X-235571Y-32973438D01*
X-239769Y-32957771D01*
X-282518Y-32742859D01*
X-284636Y-32726778D01*
X-299235Y-32504043D01*
X-299500Y-32495933D01*
X-299500Y-32135266D01*
X-500Y-32135266D01*
X-500Y-32364734D01*
X29452Y-32592238D01*
X67673Y-32734882D01*
X88842Y-32813887D01*
X176650Y-33025876D01*
X176657Y-33025890D01*
X291392Y-33224617D01*
X431081Y-33406661D01*
X431089Y-33406670D01*
X593330Y-33568911D01*
X593338Y-33568918D01*
X593339Y-33568919D01*
X621352Y-33590414D01*
X775382Y-33708607D01*
X775385Y-33708608D01*
X775388Y-33708611D01*
X974112Y-33823344D01*
X974117Y-33823346D01*
X974123Y-33823349D01*
X1061569Y-33859570D01*
X1186113Y-33911158D01*
X1407762Y-33970548D01*
X1635266Y-34000500D01*
X1635273Y-34000500D01*
X1864727Y-34000500D01*
X1864734Y-34000500D01*
X2092238Y-33970548D01*
X2313887Y-33911158D01*
X2525888Y-33823344D01*
X2724612Y-33708611D01*
X2906661Y-33568919D01*
X2906665Y-33568914D01*
X2906670Y-33568911D01*
X3068911Y-33406670D01*
X3068914Y-33406665D01*
X3068919Y-33406661D01*
X3208611Y-33224612D01*
X3314798Y-33040691D01*
X6249500Y-33040691D01*
X6249500Y-33159309D01*
X6280201Y-33273886D01*
X6339511Y-33376613D01*
X6423387Y-33460489D01*
X6526114Y-33519799D01*
X6640691Y-33550500D01*
X6640694Y-33550500D01*
X6759306Y-33550500D01*
X6759309Y-33550500D01*
X6873886Y-33519799D01*
X6976613Y-33460489D01*
X7060489Y-33376613D01*
X7119799Y-33273886D01*
X7150500Y-33159309D01*
X7150500Y-33040691D01*
X8449500Y-33040691D01*
X8449500Y-33159309D01*
X8480201Y-33273886D01*
X8539511Y-33376613D01*
X8623387Y-33460489D01*
X8726114Y-33519799D01*
X8840691Y-33550500D01*
X8840694Y-33550500D01*
X8959306Y-33550500D01*
X8959309Y-33550500D01*
X9073886Y-33519799D01*
X9176613Y-33460489D01*
X9260489Y-33376613D01*
X9319799Y-33273886D01*
X9350500Y-33159309D01*
X9350500Y-33040691D01*
X10649500Y-33040691D01*
X10649500Y-33159309D01*
X10680201Y-33273886D01*
X10739511Y-33376613D01*
X10823387Y-33460489D01*
X10926114Y-33519799D01*
X11040691Y-33550500D01*
X11040694Y-33550500D01*
X11159306Y-33550500D01*
X11159309Y-33550500D01*
X11273886Y-33519799D01*
X11376613Y-33460489D01*
X11460489Y-33376613D01*
X11519799Y-33273886D01*
X11550500Y-33159309D01*
X11550500Y-33040691D01*
X12849500Y-33040691D01*
X12849500Y-33159309D01*
X12880201Y-33273886D01*
X12939511Y-33376613D01*
X13023387Y-33460489D01*
X13126114Y-33519799D01*
X13240691Y-33550500D01*
X13240694Y-33550500D01*
X13359306Y-33550500D01*
X13359309Y-33550500D01*
X13473886Y-33519799D01*
X13576613Y-33460489D01*
X13660489Y-33376613D01*
X13719799Y-33273886D01*
X13750500Y-33159309D01*
X13750500Y-33080605D01*
X15089414Y-33080605D01*
X15089414Y-33199223D01*
X15120115Y-33313800D01*
X15179425Y-33416527D01*
X15263301Y-33500403D01*
X15366028Y-33559713D01*
X15480605Y-33590414D01*
X15480608Y-33590414D01*
X15599220Y-33590414D01*
X15599223Y-33590414D01*
X15713800Y-33559713D01*
X15816527Y-33500403D01*
X15900403Y-33416527D01*
X15959713Y-33313800D01*
X15990414Y-33199223D01*
X15990414Y-33080605D01*
X15979719Y-33040691D01*
X17249500Y-33040691D01*
X17249500Y-33159309D01*
X17280201Y-33273886D01*
X17339511Y-33376613D01*
X17423387Y-33460489D01*
X17526114Y-33519799D01*
X17640691Y-33550500D01*
X17640694Y-33550500D01*
X17759306Y-33550500D01*
X17759309Y-33550500D01*
X17873886Y-33519799D01*
X17976613Y-33460489D01*
X18060489Y-33376613D01*
X18119799Y-33273886D01*
X18150500Y-33159309D01*
X18150500Y-33040691D01*
X18119799Y-32926114D01*
X18060489Y-32823387D01*
X17976613Y-32739511D01*
X17873886Y-32680201D01*
X17759309Y-32649500D01*
X17640691Y-32649500D01*
X17526114Y-32680201D01*
X17526112Y-32680201D01*
X17526112Y-32680202D01*
X17423387Y-32739511D01*
X17423384Y-32739513D01*
X17339513Y-32823384D01*
X17339511Y-32823387D01*
X17280201Y-32926114D01*
X17249500Y-33040691D01*
X15979719Y-33040691D01*
X15959713Y-32966028D01*
X15900403Y-32863301D01*
X15816527Y-32779425D01*
X15713800Y-32720115D01*
X15599223Y-32689414D01*
X15480605Y-32689414D01*
X15366028Y-32720115D01*
X15366026Y-32720115D01*
X15366026Y-32720116D01*
X15263301Y-32779425D01*
X15263298Y-32779427D01*
X15179427Y-32863298D01*
X15179425Y-32863301D01*
X15143160Y-32926114D01*
X15120115Y-32966028D01*
X15089414Y-33080605D01*
X13750500Y-33080605D01*
X13750500Y-33040691D01*
X13719799Y-32926114D01*
X13660489Y-32823387D01*
X13576613Y-32739511D01*
X13473886Y-32680201D01*
X13359309Y-32649500D01*
X13240691Y-32649500D01*
X13126114Y-32680201D01*
X13126112Y-32680201D01*
X13126112Y-32680202D01*
X13023387Y-32739511D01*
X13023384Y-32739513D01*
X12939513Y-32823384D01*
X12939511Y-32823387D01*
X12880201Y-32926114D01*
X12849500Y-33040691D01*
X11550500Y-33040691D01*
X11519799Y-32926114D01*
X11460489Y-32823387D01*
X11376613Y-32739511D01*
X11273886Y-32680201D01*
X11159309Y-32649500D01*
X11040691Y-32649500D01*
X10926114Y-32680201D01*
X10926112Y-32680201D01*
X10926112Y-32680202D01*
X10823387Y-32739511D01*
X10823384Y-32739513D01*
X10739513Y-32823384D01*
X10739511Y-32823387D01*
X10680201Y-32926114D01*
X10649500Y-33040691D01*
X9350500Y-33040691D01*
X9319799Y-32926114D01*
X9260489Y-32823387D01*
X9176613Y-32739511D01*
X9073886Y-32680201D01*
X8959309Y-32649500D01*
X8840691Y-32649500D01*
X8726114Y-32680201D01*
X8726112Y-32680201D01*
X8726112Y-32680202D01*
X8623387Y-32739511D01*
X8623384Y-32739513D01*
X8539513Y-32823384D01*
X8539511Y-32823387D01*
X8480201Y-32926114D01*
X8449500Y-33040691D01*
X7150500Y-33040691D01*
X7119799Y-32926114D01*
X7060489Y-32823387D01*
X6976613Y-32739511D01*
X6873886Y-32680201D01*
X6759309Y-32649500D01*
X6640691Y-32649500D01*
X6526114Y-32680201D01*
X6526112Y-32680201D01*
X6526112Y-32680202D01*
X6423387Y-32739511D01*
X6423384Y-32739513D01*
X6339513Y-32823384D01*
X6339511Y-32823387D01*
X6280201Y-32926114D01*
X6249500Y-33040691D01*
X3314798Y-33040691D01*
X3323344Y-33025888D01*
X3323349Y-33025876D01*
X3340235Y-32985111D01*
X3340235Y-32985109D01*
X3411158Y-32813887D01*
X3470548Y-32592238D01*
X3500500Y-32364734D01*
X3500500Y-32135266D01*
X3500499Y-32135258D01*
X30499500Y-32135258D01*
X30499500Y-32364741D01*
X30524446Y-32554215D01*
X30529452Y-32592238D01*
X30567673Y-32734882D01*
X30588842Y-32813887D01*
X30676650Y-33025876D01*
X30676657Y-33025890D01*
X30791392Y-33224617D01*
X30931081Y-33406661D01*
X30931089Y-33406670D01*
X31093330Y-33568911D01*
X31093338Y-33568918D01*
X31093339Y-33568919D01*
X31121352Y-33590414D01*
X31275382Y-33708607D01*
X31275385Y-33708608D01*
X31275388Y-33708611D01*
X31474112Y-33823344D01*
X31474117Y-33823346D01*
X31474123Y-33823349D01*
X31561569Y-33859570D01*
X31686113Y-33911158D01*
X31907762Y-33970548D01*
X32135266Y-34000500D01*
X32135273Y-34000500D01*
X32364727Y-34000500D01*
X32364734Y-34000500D01*
X32592238Y-33970548D01*
X32813887Y-33911158D01*
X33025888Y-33823344D01*
X33224612Y-33708611D01*
X33406661Y-33568919D01*
X33406665Y-33568914D01*
X33406670Y-33568911D01*
X33568911Y-33406670D01*
X33568914Y-33406665D01*
X33568919Y-33406661D01*
X33708611Y-33224612D01*
X33823344Y-33025888D01*
X33911158Y-32813887D01*
X33970548Y-32592238D01*
X34000500Y-32364734D01*
X34000500Y-32135266D01*
X33970548Y-31907762D01*
X33911158Y-31686113D01*
X33823344Y-31474112D01*
X33708611Y-31275388D01*
X33708608Y-31275385D01*
X33708607Y-31275382D01*
X33568918Y-31093338D01*
X33568911Y-31093330D01*
X33406670Y-30931089D01*
X33406661Y-30931081D01*
X33224617Y-30791392D01*
X33025890Y-30676657D01*
X33025876Y-30676650D01*
X32813887Y-30588842D01*
X32592238Y-30529452D01*
X32554215Y-30524446D01*
X32364741Y-30499500D01*
X32364734Y-30499500D01*
X32135266Y-30499500D01*
X32135258Y-30499500D01*
X31918715Y-30528009D01*
X31907762Y-30529452D01*
X31814076Y-30554554D01*
X31686112Y-30588842D01*
X31474123Y-30676650D01*
X31474109Y-30676657D01*
X31275382Y-30791392D01*
X31093338Y-30931081D01*
X30931081Y-31093338D01*
X30791392Y-31275382D01*
X30676657Y-31474109D01*
X30676650Y-31474123D01*
X30588842Y-31686112D01*
X30529453Y-31907759D01*
X30529451Y-31907770D01*
X30499500Y-32135258D01*
X3500499Y-32135258D01*
X3470548Y-31907762D01*
X3411158Y-31686113D01*
X3323344Y-31474112D01*
X3208611Y-31275388D01*
X3208608Y-31275385D01*
X3208607Y-31275382D01*
X3068918Y-31093338D01*
X3068911Y-31093330D01*
X2906670Y-30931089D01*
X2906661Y-30931081D01*
X2724617Y-30791392D01*
X2525890Y-30676657D01*
X2525876Y-30676650D01*
X2313887Y-30588842D01*
X2092238Y-30529452D01*
X2054215Y-30524446D01*
X1864741Y-30499500D01*
X1864734Y-30499500D01*
X1635266Y-30499500D01*
X1635258Y-30499500D01*
X1418715Y-30528009D01*
X1407762Y-30529452D01*
X1314076Y-30554554D01*
X1186112Y-30588842D01*
X974123Y-30676650D01*
X974109Y-30676657D01*
X775382Y-30791392D01*
X593338Y-30931081D01*
X431081Y-31093338D01*
X291392Y-31275382D01*
X176657Y-31474109D01*
X176650Y-31474123D01*
X88842Y-31686112D01*
X88842Y-31686113D01*
X29452Y-31907762D01*
X-500Y-32135266D01*
X-299500Y-32135266D01*
X-299500Y-29840691D01*
X6249500Y-29840691D01*
X6249500Y-29959309D01*
X6280201Y-30073886D01*
X6339511Y-30176613D01*
X6423387Y-30260489D01*
X6526114Y-30319799D01*
X6640691Y-30350500D01*
X6640694Y-30350500D01*
X6759306Y-30350500D01*
X6759309Y-30350500D01*
X6873886Y-30319799D01*
X6976613Y-30260489D01*
X7060489Y-30176613D01*
X7119799Y-30073886D01*
X7150500Y-29959309D01*
X7150500Y-29840691D01*
X8449500Y-29840691D01*
X8449500Y-29959309D01*
X8480201Y-30073886D01*
X8539511Y-30176613D01*
X8623387Y-30260489D01*
X8726114Y-30319799D01*
X8840691Y-30350500D01*
X8840694Y-30350500D01*
X8959306Y-30350500D01*
X8959309Y-30350500D01*
X9073886Y-30319799D01*
X9176613Y-30260489D01*
X9260489Y-30176613D01*
X9319799Y-30073886D01*
X9350500Y-29959309D01*
X9350500Y-29840691D01*
X12849500Y-29840691D01*
X12849500Y-29959309D01*
X12880201Y-30073886D01*
X12939511Y-30176613D01*
X13023387Y-30260489D01*
X13126114Y-30319799D01*
X13240691Y-30350500D01*
X13240694Y-30350500D01*
X13359306Y-30350500D01*
X13359309Y-30350500D01*
X13473886Y-30319799D01*
X13576613Y-30260489D01*
X13660489Y-30176613D01*
X13719799Y-30073886D01*
X13750500Y-29959309D01*
X13750500Y-29840691D01*
X13738743Y-29796815D01*
X15005624Y-29796815D01*
X15005624Y-29915433D01*
X15036325Y-30030010D01*
X15095635Y-30132737D01*
X15179511Y-30216613D01*
X15282238Y-30275923D01*
X15396815Y-30306624D01*
X15396818Y-30306624D01*
X15515430Y-30306624D01*
X15515433Y-30306624D01*
X15630010Y-30275923D01*
X15732737Y-30216613D01*
X15816613Y-30132737D01*
X15875923Y-30030010D01*
X15906624Y-29915433D01*
X15906624Y-29840691D01*
X17249500Y-29840691D01*
X17249500Y-29959309D01*
X17280201Y-30073886D01*
X17339511Y-30176613D01*
X17423387Y-30260489D01*
X17526114Y-30319799D01*
X17640691Y-30350500D01*
X17640694Y-30350500D01*
X17759306Y-30350500D01*
X17759309Y-30350500D01*
X17873886Y-30319799D01*
X17976613Y-30260489D01*
X18060489Y-30176613D01*
X18119799Y-30073886D01*
X18150500Y-29959309D01*
X18150500Y-29840691D01*
X18119799Y-29726114D01*
X18060489Y-29623387D01*
X17976613Y-29539511D01*
X17873886Y-29480201D01*
X17759309Y-29449500D01*
X17640691Y-29449500D01*
X17526114Y-29480201D01*
X17526112Y-29480201D01*
X17526112Y-29480202D01*
X17423387Y-29539511D01*
X17423384Y-29539513D01*
X17339513Y-29623384D01*
X17339511Y-29623387D01*
X17280201Y-29726114D01*
X17249500Y-29840691D01*
X15906624Y-29840691D01*
X15906624Y-29796815D01*
X15875923Y-29682238D01*
X15816613Y-29579511D01*
X15732737Y-29495635D01*
X15630010Y-29436325D01*
X15515433Y-29405624D01*
X15396815Y-29405624D01*
X15282238Y-29436325D01*
X15282236Y-29436325D01*
X15282236Y-29436326D01*
X15179511Y-29495635D01*
X15179508Y-29495637D01*
X15095637Y-29579508D01*
X15095635Y-29579511D01*
X15036325Y-29682238D01*
X15005624Y-29796815D01*
X13738743Y-29796815D01*
X13719799Y-29726114D01*
X13660489Y-29623387D01*
X13576613Y-29539511D01*
X13473886Y-29480201D01*
X13359309Y-29449500D01*
X13240691Y-29449500D01*
X13126114Y-29480201D01*
X13126112Y-29480201D01*
X13126112Y-29480202D01*
X13023387Y-29539511D01*
X13023384Y-29539513D01*
X12939513Y-29623384D01*
X12939511Y-29623387D01*
X12880201Y-29726114D01*
X12849500Y-29840691D01*
X9350500Y-29840691D01*
X9319799Y-29726114D01*
X9260489Y-29623387D01*
X9176613Y-29539511D01*
X9073886Y-29480201D01*
X8959309Y-29449500D01*
X8840691Y-29449500D01*
X8726114Y-29480201D01*
X8726112Y-29480201D01*
X8726112Y-29480202D01*
X8623387Y-29539511D01*
X8623384Y-29539513D01*
X8539513Y-29623384D01*
X8539511Y-29623387D01*
X8480201Y-29726114D01*
X8449500Y-29840691D01*
X7150500Y-29840691D01*
X7119799Y-29726114D01*
X7060489Y-29623387D01*
X6976613Y-29539511D01*
X6873886Y-29480201D01*
X6759309Y-29449500D01*
X6640691Y-29449500D01*
X6526114Y-29480201D01*
X6526112Y-29480201D01*
X6526112Y-29480202D01*
X6423387Y-29539511D01*
X6423384Y-29539513D01*
X6339513Y-29623384D01*
X6339511Y-29623387D01*
X6280201Y-29726114D01*
X6249500Y-29840691D01*
X-299500Y-29840691D01*
X-299500Y-28840691D01*
X449500Y-28840691D01*
X449500Y-28959309D01*
X480201Y-29073886D01*
X539511Y-29176613D01*
X623387Y-29260489D01*
X726114Y-29319799D01*
X840691Y-29350500D01*
X840694Y-29350500D01*
X959306Y-29350500D01*
X959309Y-29350500D01*
X1073886Y-29319799D01*
X1176613Y-29260489D01*
X1260489Y-29176613D01*
X1319799Y-29073886D01*
X1350500Y-28959309D01*
X1350500Y-28940691D01*
X24449500Y-28940691D01*
X24449500Y-29059309D01*
X24480201Y-29173886D01*
X24539511Y-29276613D01*
X24623387Y-29360489D01*
X24726114Y-29419799D01*
X24840691Y-29450500D01*
X24840694Y-29450500D01*
X24959306Y-29450500D01*
X24959309Y-29450500D01*
X25073886Y-29419799D01*
X25176613Y-29360489D01*
X25260489Y-29276613D01*
X25319799Y-29173886D01*
X25350500Y-29059309D01*
X25350500Y-28940691D01*
X25319799Y-28826114D01*
X25260489Y-28723387D01*
X25176613Y-28639511D01*
X25073886Y-28580201D01*
X24959309Y-28549500D01*
X24840691Y-28549500D01*
X24726114Y-28580201D01*
X24726112Y-28580201D01*
X24726112Y-28580202D01*
X24623387Y-28639511D01*
X24623384Y-28639513D01*
X24539513Y-28723384D01*
X24539511Y-28723387D01*
X24480201Y-28826114D01*
X24449500Y-28940691D01*
X1350500Y-28940691D01*
X1350500Y-28840691D01*
X1319799Y-28726114D01*
X1260489Y-28623387D01*
X1176613Y-28539511D01*
X1073886Y-28480201D01*
X959309Y-28449500D01*
X840691Y-28449500D01*
X726114Y-28480201D01*
X726112Y-28480201D01*
X726112Y-28480202D01*
X623387Y-28539511D01*
X623384Y-28539513D01*
X539513Y-28623384D01*
X539511Y-28623387D01*
X480201Y-28726114D01*
X449500Y-28840691D01*
X-299500Y-28840691D01*
X-299500Y-27330605D01*
X21239414Y-27330605D01*
X21239414Y-27449223D01*
X21270115Y-27563800D01*
X21329425Y-27666527D01*
X21413301Y-27750403D01*
X21516028Y-27809713D01*
X21630605Y-27840414D01*
X21630608Y-27840414D01*
X21749220Y-27840414D01*
X21749223Y-27840414D01*
X21863800Y-27809713D01*
X21966527Y-27750403D01*
X22050403Y-27666527D01*
X22109713Y-27563800D01*
X22140414Y-27449223D01*
X22140414Y-27330605D01*
X22109713Y-27216028D01*
X22050403Y-27113301D01*
X21966527Y-27029425D01*
X21863800Y-26970115D01*
X21749223Y-26939414D01*
X21630605Y-26939414D01*
X21516028Y-26970115D01*
X21516026Y-26970115D01*
X21516026Y-26970116D01*
X21413301Y-27029425D01*
X21413298Y-27029427D01*
X21329427Y-27113298D01*
X21329425Y-27113301D01*
X21270115Y-27216028D01*
X21239414Y-27330605D01*
X-299500Y-27330605D01*
X-299500Y-25840691D01*
X12349500Y-25840691D01*
X12349500Y-25959309D01*
X12380201Y-26073886D01*
X12439511Y-26176613D01*
X12523387Y-26260489D01*
X12626114Y-26319799D01*
X12740691Y-26350500D01*
X12740694Y-26350500D01*
X12859306Y-26350500D01*
X12859309Y-26350500D01*
X12973886Y-26319799D01*
X13076613Y-26260489D01*
X13160489Y-26176613D01*
X13219799Y-26073886D01*
X13250500Y-25959309D01*
X13250500Y-25840691D01*
X13219799Y-25726114D01*
X13160489Y-25623387D01*
X13076613Y-25539511D01*
X12973886Y-25480201D01*
X12859309Y-25449500D01*
X12740691Y-25449500D01*
X12626114Y-25480201D01*
X12626112Y-25480201D01*
X12626112Y-25480202D01*
X12523387Y-25539511D01*
X12523384Y-25539513D01*
X12439513Y-25623384D01*
X12439511Y-25623387D01*
X12390621Y-25708067D01*
X12380201Y-25726114D01*
X12349500Y-25840691D01*
X-299500Y-25840691D01*
X-299500Y-24865960D01*
X8374230Y-24865960D01*
X8374230Y-24984578D01*
X8404931Y-25099155D01*
X8464241Y-25201882D01*
X8548117Y-25285758D01*
X8650844Y-25345068D01*
X8765421Y-25375769D01*
X8765424Y-25375769D01*
X8884036Y-25375769D01*
X8884039Y-25375769D01*
X8998616Y-25345068D01*
X9101343Y-25285758D01*
X9185219Y-25201882D01*
X9244529Y-25099155D01*
X9275230Y-24984578D01*
X9275230Y-24865960D01*
X9244529Y-24751383D01*
X9185219Y-24648656D01*
X9101343Y-24564780D01*
X8998616Y-24505470D01*
X8884039Y-24474769D01*
X8765421Y-24474769D01*
X8650844Y-24505470D01*
X8650842Y-24505470D01*
X8650842Y-24505471D01*
X8548117Y-24564780D01*
X8548114Y-24564782D01*
X8464243Y-24648653D01*
X8464241Y-24648656D01*
X8424020Y-24718321D01*
X8404931Y-24751383D01*
X8374230Y-24865960D01*
X-299500Y-24865960D01*
X-299500Y-22540691D01*
X449500Y-22540691D01*
X449500Y-22659309D01*
X480201Y-22773886D01*
X539511Y-22876613D01*
X623387Y-22960489D01*
X726114Y-23019799D01*
X840691Y-23050500D01*
X840694Y-23050500D01*
X959306Y-23050500D01*
X959309Y-23050500D01*
X1073886Y-23019799D01*
X1176613Y-22960489D01*
X1260489Y-22876613D01*
X1319799Y-22773886D01*
X1350500Y-22659309D01*
X1350500Y-22540691D01*
X1319799Y-22426114D01*
X1260489Y-22323387D01*
X1176613Y-22239511D01*
X1073886Y-22180201D01*
X959309Y-22149500D01*
X840691Y-22149500D01*
X726114Y-22180201D01*
X726112Y-22180201D01*
X726112Y-22180202D01*
X623387Y-22239511D01*
X623384Y-22239513D01*
X539513Y-22323384D01*
X539511Y-22323387D01*
X480201Y-22426114D01*
X449500Y-22540691D01*
X-299500Y-22540691D01*
X-299500Y-21540691D01*
X3949500Y-21540691D01*
X3949500Y-21659309D01*
X3980201Y-21773886D01*
X4039511Y-21876613D01*
X4123387Y-21960489D01*
X4226114Y-22019799D01*
X4340691Y-22050500D01*
X4340694Y-22050500D01*
X4459306Y-22050500D01*
X4459309Y-22050500D01*
X4573886Y-22019799D01*
X4676613Y-21960489D01*
X4760489Y-21876613D01*
X4769682Y-21860691D01*
X7149500Y-21860691D01*
X7149500Y-21979309D01*
X7180201Y-22093886D01*
X7239511Y-22196613D01*
X7323387Y-22280489D01*
X7426114Y-22339799D01*
X7540691Y-22370500D01*
X7540694Y-22370500D01*
X7659306Y-22370500D01*
X7659309Y-22370500D01*
X7773886Y-22339799D01*
X7876613Y-22280489D01*
X7960489Y-22196613D01*
X8019799Y-22093886D01*
X8050500Y-21979309D01*
X8050500Y-21860691D01*
X8019799Y-21746114D01*
X7960489Y-21643387D01*
X7876613Y-21559511D01*
X7773886Y-21500201D01*
X7659309Y-21469500D01*
X7540691Y-21469500D01*
X7426114Y-21500201D01*
X7426112Y-21500201D01*
X7426112Y-21500202D01*
X7323387Y-21559511D01*
X7323384Y-21559513D01*
X7239513Y-21643384D01*
X7239511Y-21643387D01*
X7180201Y-21746114D01*
X7149500Y-21860691D01*
X4769682Y-21860691D01*
X4819799Y-21773886D01*
X4850500Y-21659309D01*
X4850500Y-21540691D01*
X4819799Y-21426114D01*
X4760489Y-21323387D01*
X4676613Y-21239511D01*
X4573886Y-21180201D01*
X4459309Y-21149500D01*
X4340691Y-21149500D01*
X4226114Y-21180201D01*
X4226112Y-21180201D01*
X4226112Y-21180202D01*
X4123387Y-21239511D01*
X4123384Y-21239513D01*
X4039513Y-21323384D01*
X4039511Y-21323387D01*
X4006623Y-21380351D01*
X3980201Y-21426114D01*
X3949500Y-21540691D01*
X-299500Y-21540691D01*
X-299500Y-20440691D01*
X5549500Y-20440691D01*
X5549500Y-20559309D01*
X5580201Y-20673886D01*
X5639511Y-20776613D01*
X5723387Y-20860489D01*
X5826114Y-20919799D01*
X5940691Y-20950500D01*
X5940694Y-20950500D01*
X6059306Y-20950500D01*
X6059309Y-20950500D01*
X6173886Y-20919799D01*
X6276613Y-20860489D01*
X6360489Y-20776613D01*
X6419799Y-20673886D01*
X6450500Y-20559309D01*
X6450500Y-20440691D01*
X6419799Y-20326114D01*
X6360489Y-20223387D01*
X6276613Y-20139511D01*
X6173886Y-20080201D01*
X6059309Y-20049500D01*
X5940691Y-20049500D01*
X5826114Y-20080201D01*
X5826112Y-20080201D01*
X5826112Y-20080202D01*
X5723387Y-20139511D01*
X5723384Y-20139513D01*
X5639513Y-20223384D01*
X5639511Y-20223387D01*
X5610355Y-20273887D01*
X5580201Y-20326114D01*
X5549500Y-20440691D01*
X-299500Y-20440691D01*
X-299500Y-18366836D01*
X7954059Y-18366836D01*
X7954059Y-18485454D01*
X7984760Y-18600031D01*
X8044070Y-18702758D01*
X8127946Y-18786634D01*
X8230673Y-18845944D01*
X8345250Y-18876645D01*
X8345253Y-18876645D01*
X8463865Y-18876645D01*
X8463868Y-18876645D01*
X8578445Y-18845944D01*
X8681172Y-18786634D01*
X8700526Y-18767279D01*
X8761846Y-18733794D01*
X8831538Y-18738777D01*
X8875888Y-18767279D01*
X8946243Y-18837634D01*
X9048970Y-18896944D01*
X9163547Y-18927645D01*
X9163550Y-18927645D01*
X9282162Y-18927645D01*
X9282165Y-18927645D01*
X9396742Y-18896944D01*
X9499469Y-18837634D01*
X9583345Y-18753758D01*
X9642655Y-18651031D01*
X9673356Y-18536454D01*
X9673356Y-18446408D01*
X9693041Y-18379369D01*
X9709675Y-18358727D01*
X10213584Y-17854819D01*
X10274907Y-17821334D01*
X10301265Y-17818500D01*
X11285036Y-17818500D01*
X11352075Y-17838185D01*
X11397830Y-17890989D01*
X11407774Y-17960147D01*
X11378749Y-18023703D01*
X11372717Y-18030181D01*
X11339513Y-18063384D01*
X11339511Y-18063387D01*
X11297581Y-18136012D01*
X11280201Y-18166114D01*
X11249500Y-18280691D01*
X11249500Y-18399309D01*
X11280201Y-18513886D01*
X11339511Y-18616613D01*
X11423387Y-18700489D01*
X11526114Y-18759799D01*
X11640691Y-18790500D01*
X11640694Y-18790500D01*
X11759306Y-18790500D01*
X11759309Y-18790500D01*
X11873886Y-18759799D01*
X11976613Y-18700489D01*
X12060489Y-18616613D01*
X12119799Y-18513886D01*
X12150500Y-18399309D01*
X12150500Y-18338807D01*
X12170185Y-18271768D01*
X12222989Y-18226013D01*
X12292147Y-18216069D01*
X12355703Y-18245094D01*
X12381886Y-18276805D01*
X12439511Y-18376613D01*
X12523387Y-18460489D01*
X12626114Y-18519799D01*
X12740691Y-18550500D01*
X12740694Y-18550500D01*
X12859306Y-18550500D01*
X12859309Y-18550500D01*
X12973886Y-18519799D01*
X13024499Y-18490576D01*
X13092399Y-18474104D01*
X13158426Y-18496956D01*
X13174181Y-18510283D01*
X13213387Y-18549489D01*
X13316114Y-18608799D01*
X13430691Y-18639500D01*
X13430694Y-18639500D01*
X13549306Y-18639500D01*
X13549309Y-18639500D01*
X13663886Y-18608799D01*
X13766613Y-18549489D01*
X13847806Y-18468295D01*
X13909125Y-18434813D01*
X13978817Y-18439797D01*
X14034751Y-18481668D01*
X14059168Y-18547132D01*
X14059081Y-18565962D01*
X14058173Y-18577194D01*
X14047185Y-18618205D01*
X14047185Y-18713241D01*
X14046782Y-18718231D01*
X14035990Y-18746372D01*
X14027500Y-18775287D01*
X14022543Y-18781437D01*
X14021765Y-18783468D01*
X14019664Y-18785010D01*
X14010866Y-18795929D01*
X11152440Y-21654356D01*
X11152434Y-21654363D01*
X11138787Y-21668008D01*
X11113113Y-21687707D01*
X11023387Y-21739511D01*
X11023384Y-21739513D01*
X10939513Y-21823384D01*
X10939511Y-21823387D01*
X10885117Y-21917600D01*
X10880201Y-21926114D01*
X10858620Y-22006653D01*
X10849499Y-22040694D01*
X10848439Y-22048751D01*
X10846664Y-22048517D01*
X10829815Y-22105900D01*
X10777011Y-22151655D01*
X10707853Y-22161599D01*
X10693409Y-22158636D01*
X10659313Y-22149500D01*
X10659309Y-22149500D01*
X10540691Y-22149500D01*
X10426114Y-22180201D01*
X10426112Y-22180201D01*
X10426112Y-22180202D01*
X10323387Y-22239511D01*
X10323384Y-22239513D01*
X10239513Y-22323384D01*
X10239511Y-22323387D01*
X10180201Y-22426114D01*
X10149500Y-22540691D01*
X10149500Y-22659309D01*
X10180201Y-22773886D01*
X10239511Y-22876613D01*
X10323387Y-22960489D01*
X10426114Y-23019799D01*
X10540691Y-23050500D01*
X10540694Y-23050500D01*
X10659306Y-23050500D01*
X10659309Y-23050500D01*
X10773886Y-23019799D01*
X10876613Y-22960489D01*
X10940283Y-22896819D01*
X11001606Y-22863334D01*
X11027964Y-22860500D01*
X12671816Y-22860500D01*
X12671817Y-22860500D01*
X12678671Y-22857660D01*
X12748138Y-22850188D01*
X12810619Y-22881459D01*
X12846275Y-22941545D01*
X12849067Y-22956023D01*
X12849499Y-22959303D01*
X12849500Y-22959306D01*
X12849500Y-22959309D01*
X12880201Y-23073886D01*
X12939511Y-23176613D01*
X13023387Y-23260489D01*
X13104783Y-23307483D01*
X13152998Y-23358050D01*
X13166220Y-23426658D01*
X13162557Y-23446962D01*
X13149500Y-23495692D01*
X13149500Y-23614310D01*
X13180201Y-23728887D01*
X13239511Y-23831614D01*
X13323387Y-23915490D01*
X13388858Y-23953290D01*
X13437074Y-24003857D01*
X13450296Y-24072464D01*
X13424328Y-24137329D01*
X13414540Y-24148358D01*
X13339511Y-24223387D01*
X13299350Y-24292948D01*
X13280201Y-24326114D01*
X13249500Y-24440691D01*
X13249500Y-24559309D01*
X13280201Y-24673886D01*
X13339511Y-24776613D01*
X13423387Y-24860489D01*
X13526114Y-24919799D01*
X13640691Y-24950500D01*
X13640694Y-24950500D01*
X13759306Y-24950500D01*
X13759309Y-24950500D01*
X13873886Y-24919799D01*
X13976613Y-24860489D01*
X14060489Y-24776613D01*
X14119799Y-24673886D01*
X14150500Y-24559309D01*
X14150500Y-24440691D01*
X14119799Y-24326114D01*
X14119797Y-24326111D01*
X14119797Y-24326109D01*
X14119796Y-24326108D01*
X14100652Y-24292950D01*
X14100650Y-24292948D01*
X14069546Y-24239074D01*
X15049500Y-24239074D01*
X15049500Y-24357692D01*
X15080201Y-24472269D01*
X15139511Y-24574996D01*
X15223387Y-24658872D01*
X15326114Y-24718182D01*
X15440691Y-24748883D01*
X15440694Y-24748883D01*
X15559306Y-24748883D01*
X15559309Y-24748883D01*
X15673886Y-24718182D01*
X15776613Y-24658872D01*
X15860489Y-24574996D01*
X15919799Y-24472269D01*
X15950500Y-24357692D01*
X15950500Y-24239074D01*
X15919799Y-24124497D01*
X15860489Y-24021770D01*
X15776613Y-23937894D01*
X15673886Y-23878584D01*
X15559309Y-23847883D01*
X15440691Y-23847883D01*
X15326114Y-23878584D01*
X15326112Y-23878584D01*
X15326112Y-23878585D01*
X15223387Y-23937894D01*
X15223384Y-23937896D01*
X15139513Y-24021767D01*
X15139511Y-24021770D01*
X15082915Y-24119797D01*
X15080201Y-24124497D01*
X15049500Y-24239074D01*
X14069546Y-24239074D01*
X14060489Y-24223387D01*
X13976613Y-24139511D01*
X13911139Y-24101709D01*
X13862925Y-24051142D01*
X13849703Y-23982535D01*
X13875671Y-23917671D01*
X13885444Y-23906658D01*
X13960489Y-23831614D01*
X14019799Y-23728887D01*
X14050500Y-23614310D01*
X14050500Y-23495692D01*
X14019799Y-23381115D01*
X13960489Y-23278388D01*
X13876613Y-23194512D01*
X13795215Y-23147516D01*
X13747001Y-23096949D01*
X13733779Y-23028342D01*
X13737441Y-23008044D01*
X13750500Y-22959309D01*
X13750500Y-22840691D01*
X13744043Y-22816592D01*
X13745706Y-22746742D01*
X13784870Y-22688880D01*
X13849098Y-22661377D01*
X13863818Y-22660500D01*
X21171736Y-22660500D01*
X21238775Y-22680185D01*
X21284530Y-22732989D01*
X21294474Y-22802147D01*
X21265449Y-22865703D01*
X21259417Y-22872181D01*
X20592728Y-23538870D01*
X20531405Y-23572355D01*
X20505047Y-23575189D01*
X18886950Y-23575189D01*
X18824290Y-23601145D01*
X18791210Y-23614847D01*
X18791207Y-23614849D01*
X18602081Y-23803976D01*
X18540758Y-23837461D01*
X18514400Y-23840295D01*
X18448067Y-23840295D01*
X18333490Y-23870996D01*
X18333488Y-23870996D01*
X18333488Y-23870997D01*
X18230763Y-23930306D01*
X18230760Y-23930308D01*
X18146889Y-24014179D01*
X18146887Y-24014182D01*
X18088175Y-24115874D01*
X18087577Y-24116909D01*
X18056876Y-24231486D01*
X18056876Y-24350104D01*
X18087577Y-24464681D01*
X18146887Y-24567408D01*
X18230763Y-24651284D01*
X18333490Y-24710594D01*
X18448067Y-24741295D01*
X18448070Y-24741295D01*
X18566682Y-24741295D01*
X18566685Y-24741295D01*
X18681262Y-24710594D01*
X18783989Y-24651284D01*
X18867865Y-24567408D01*
X18927175Y-24464681D01*
X18957876Y-24350104D01*
X18957876Y-24236347D01*
X18966522Y-24206901D01*
X18973046Y-24176917D01*
X18976798Y-24171904D01*
X18977561Y-24169308D01*
X18994197Y-24148663D01*
X19010356Y-24132505D01*
X19071681Y-24099022D01*
X19098035Y-24096189D01*
X19552086Y-24096189D01*
X19619125Y-24115874D01*
X19664880Y-24168678D01*
X19674824Y-24237836D01*
X19671864Y-24252266D01*
X19649500Y-24335731D01*
X19649500Y-24454349D01*
X19680201Y-24568926D01*
X19739511Y-24671653D01*
X19823387Y-24755529D01*
X19867646Y-24781082D01*
X19914464Y-24808113D01*
X19962679Y-24858681D01*
X19975901Y-24927288D01*
X19949933Y-24992153D01*
X19893018Y-25032680D01*
X19852463Y-25039500D01*
X17145329Y-25039500D01*
X17078290Y-25019815D01*
X17033569Y-24969219D01*
X17028552Y-24958782D01*
X17019799Y-24926114D01*
X16978305Y-24854245D01*
X16976280Y-24850032D01*
X16971357Y-24819996D01*
X16964180Y-24790415D01*
X16965760Y-24785848D01*
X16964979Y-24781082D01*
X16977075Y-24753155D01*
X16987031Y-24724388D01*
X16992162Y-24718321D01*
X16992749Y-24716968D01*
X16994040Y-24716101D01*
X17000354Y-24708637D01*
X17046434Y-24662558D01*
X17105744Y-24559831D01*
X17136445Y-24445254D01*
X17136445Y-24326636D01*
X17105744Y-24212059D01*
X17046434Y-24109332D01*
X16962558Y-24025456D01*
X16859831Y-23966146D01*
X16745254Y-23935445D01*
X16626636Y-23935445D01*
X16512059Y-23966146D01*
X16512057Y-23966146D01*
X16512057Y-23966147D01*
X16409332Y-24025456D01*
X16409329Y-24025458D01*
X16325458Y-24109329D01*
X16325456Y-24109332D01*
X16290829Y-24169308D01*
X16266146Y-24212059D01*
X16235445Y-24326636D01*
X16235445Y-24445254D01*
X16266006Y-24559309D01*
X16266147Y-24559834D01*
X16305290Y-24627631D01*
X16321763Y-24695531D01*
X16298911Y-24761558D01*
X16285586Y-24777311D01*
X16239511Y-24823387D01*
X16218091Y-24860488D01*
X16180201Y-24926114D01*
X16149500Y-25040691D01*
X16149500Y-25159309D01*
X16180201Y-25273886D01*
X16239511Y-25376613D01*
X16239513Y-25376615D01*
X16248809Y-25385911D01*
X16282294Y-25447234D01*
X16277310Y-25516926D01*
X16252128Y-25556114D01*
X16252322Y-25556263D01*
X16250542Y-25558582D01*
X16248821Y-25561261D01*
X16247383Y-25562699D01*
X16247375Y-25562709D01*
X16188065Y-25665436D01*
X16157364Y-25780013D01*
X16157364Y-25898631D01*
X16188065Y-26013208D01*
X16247375Y-26115935D01*
X16331251Y-26199811D01*
X16433978Y-26259121D01*
X16548555Y-26289822D01*
X16548558Y-26289822D01*
X16667170Y-26289822D01*
X16667173Y-26289822D01*
X16781750Y-26259121D01*
X16884477Y-26199811D01*
X16968353Y-26115935D01*
X17027663Y-26013208D01*
X17058364Y-25898631D01*
X17058364Y-25780013D01*
X17041370Y-25716591D01*
X17043033Y-25646744D01*
X17082195Y-25588881D01*
X17146423Y-25561377D01*
X17161145Y-25560500D01*
X21104428Y-25560500D01*
X21104429Y-25560500D01*
X21200173Y-25520841D01*
X21974817Y-24746196D01*
X22007236Y-24724537D01*
X22006847Y-24723863D01*
X22016446Y-24718321D01*
X22116613Y-24660489D01*
X22200489Y-24576613D01*
X22259799Y-24473886D01*
X22290500Y-24359309D01*
X22290500Y-24271856D01*
X22310185Y-24204817D01*
X22362989Y-24159062D01*
X22432147Y-24149118D01*
X22435641Y-24149834D01*
X22440689Y-24150499D01*
X22440691Y-24150500D01*
X22440693Y-24150500D01*
X22559306Y-24150500D01*
X22559309Y-24150500D01*
X22673886Y-24119799D01*
X22776613Y-24060489D01*
X22860489Y-23976613D01*
X22919799Y-23873886D01*
X22950500Y-23759309D01*
X22950500Y-23640691D01*
X22919799Y-23526114D01*
X22860489Y-23423387D01*
X22776613Y-23339511D01*
X22673886Y-23280201D01*
X22559309Y-23249500D01*
X22440691Y-23249500D01*
X22326114Y-23280201D01*
X22326112Y-23280201D01*
X22326112Y-23280202D01*
X22223387Y-23339511D01*
X22223384Y-23339513D01*
X22139513Y-23423384D01*
X22139511Y-23423387D01*
X22110355Y-23473887D01*
X22080201Y-23526114D01*
X22049500Y-23640691D01*
X22049500Y-23640693D01*
X22049500Y-23728143D01*
X22029815Y-23795182D01*
X21977011Y-23840937D01*
X21907853Y-23850881D01*
X21904358Y-23850165D01*
X21899310Y-23849500D01*
X21899309Y-23849500D01*
X21780691Y-23849500D01*
X21666114Y-23880201D01*
X21666112Y-23880201D01*
X21666112Y-23880202D01*
X21563387Y-23939511D01*
X21563384Y-23939513D01*
X21479513Y-24023384D01*
X21479511Y-24023387D01*
X21421135Y-24124497D01*
X21420201Y-24126114D01*
X21389500Y-24240691D01*
X21389500Y-24359309D01*
X21417735Y-24464681D01*
X21420717Y-24475810D01*
X21419054Y-24545660D01*
X21388623Y-24595585D01*
X20981029Y-25003181D01*
X20919706Y-25036666D01*
X20893348Y-25039500D01*
X20347537Y-25039500D01*
X20280498Y-25019815D01*
X20234743Y-24967011D01*
X20224799Y-24897853D01*
X20253824Y-24834297D01*
X20285536Y-24808113D01*
X20316189Y-24790415D01*
X20376613Y-24755529D01*
X20460489Y-24671653D01*
X20519799Y-24568926D01*
X20550500Y-24454349D01*
X20550500Y-24335731D01*
X20528139Y-24252279D01*
X20529802Y-24182433D01*
X20568964Y-24124571D01*
X20633192Y-24097066D01*
X20647914Y-24096189D01*
X20716127Y-24096189D01*
X20716128Y-24096189D01*
X20811872Y-24056530D01*
X23488051Y-21380351D01*
X23549374Y-21346866D01*
X23619066Y-21351850D01*
X23674999Y-21393722D01*
X23699416Y-21459186D01*
X23699732Y-21468032D01*
X23699732Y-24496211D01*
X23680047Y-24563250D01*
X23627243Y-24609005D01*
X23575732Y-24620211D01*
X23511402Y-24620211D01*
X23396825Y-24650912D01*
X23396823Y-24650912D01*
X23396823Y-24650913D01*
X23294098Y-24710222D01*
X23294095Y-24710224D01*
X23210224Y-24794095D01*
X23210222Y-24794098D01*
X23171893Y-24860486D01*
X23150912Y-24896825D01*
X23120211Y-25011402D01*
X23120211Y-25130020D01*
X23139467Y-25201884D01*
X23150912Y-25244598D01*
X23153747Y-25251441D01*
X23161213Y-25320911D01*
X23129936Y-25383389D01*
X23126866Y-25386570D01*
X23049392Y-25464045D01*
X23049389Y-25464049D01*
X23005821Y-25539511D01*
X22990079Y-25566776D01*
X22959378Y-25681353D01*
X22959378Y-25799971D01*
X22990079Y-25914548D01*
X23049389Y-26017275D01*
X23133265Y-26101151D01*
X23235992Y-26160461D01*
X23350569Y-26191162D01*
X23350572Y-26191162D01*
X23469184Y-26191162D01*
X23469187Y-26191162D01*
X23583764Y-26160461D01*
X23686491Y-26101151D01*
X23770367Y-26017275D01*
X23798242Y-25968995D01*
X26269499Y-25968995D01*
X26296418Y-26104322D01*
X26296421Y-26104332D01*
X26349221Y-26231804D01*
X26349228Y-26231817D01*
X26425885Y-26346541D01*
X26425888Y-26346545D01*
X26523454Y-26444111D01*
X26523458Y-26444114D01*
X26638182Y-26520771D01*
X26638195Y-26520778D01*
X26765667Y-26573578D01*
X26765672Y-26573580D01*
X26765676Y-26573580D01*
X26765677Y-26573581D01*
X26901004Y-26600500D01*
X26901007Y-26600500D01*
X28138995Y-26600500D01*
X28230041Y-26582389D01*
X28274328Y-26573580D01*
X28401811Y-26520775D01*
X28516542Y-26444114D01*
X28614114Y-26346542D01*
X28690775Y-26231811D01*
X28743580Y-26104328D01*
X28770500Y-25968995D01*
X30599499Y-25968995D01*
X30626418Y-26104322D01*
X30626421Y-26104332D01*
X30679221Y-26231804D01*
X30679228Y-26231817D01*
X30755885Y-26346541D01*
X30755888Y-26346545D01*
X30853454Y-26444111D01*
X30853458Y-26444114D01*
X30968182Y-26520771D01*
X30968195Y-26520778D01*
X31095667Y-26573578D01*
X31095672Y-26573580D01*
X31095676Y-26573580D01*
X31095677Y-26573581D01*
X31231004Y-26600500D01*
X31231007Y-26600500D01*
X32168995Y-26600500D01*
X32260041Y-26582389D01*
X32304328Y-26573580D01*
X32431811Y-26520775D01*
X32546542Y-26444114D01*
X32644114Y-26346542D01*
X32720775Y-26231811D01*
X32773580Y-26104328D01*
X32800500Y-25968993D01*
X32800500Y-25831007D01*
X32800500Y-25831004D01*
X32773581Y-25695677D01*
X32773580Y-25695676D01*
X32773580Y-25695672D01*
X32761055Y-25665434D01*
X32720778Y-25568195D01*
X32720771Y-25568182D01*
X32644114Y-25453458D01*
X32644111Y-25453454D01*
X32546545Y-25355888D01*
X32546541Y-25355885D01*
X32431817Y-25279228D01*
X32431804Y-25279221D01*
X32304332Y-25226421D01*
X32304322Y-25226418D01*
X32168995Y-25199500D01*
X32168993Y-25199500D01*
X31231007Y-25199500D01*
X31231005Y-25199500D01*
X31095677Y-25226418D01*
X31095667Y-25226421D01*
X30968195Y-25279221D01*
X30968182Y-25279228D01*
X30853458Y-25355885D01*
X30853454Y-25355888D01*
X30755888Y-25453454D01*
X30755885Y-25453458D01*
X30679228Y-25568182D01*
X30679221Y-25568195D01*
X30626421Y-25695667D01*
X30626418Y-25695677D01*
X30599500Y-25831004D01*
X30599500Y-25831007D01*
X30599500Y-25968993D01*
X30599500Y-25968995D01*
X30599499Y-25968995D01*
X28770500Y-25968995D01*
X28770500Y-25968993D01*
X28770500Y-25831007D01*
X28770500Y-25831004D01*
X28743581Y-25695677D01*
X28743580Y-25695676D01*
X28743580Y-25695672D01*
X28731055Y-25665434D01*
X28690778Y-25568195D01*
X28690771Y-25568182D01*
X28614114Y-25453458D01*
X28614111Y-25453454D01*
X28516545Y-25355888D01*
X28516541Y-25355885D01*
X28401817Y-25279228D01*
X28401804Y-25279221D01*
X28274332Y-25226421D01*
X28274322Y-25226418D01*
X28195032Y-25210646D01*
X28133121Y-25178261D01*
X28098547Y-25117545D01*
X28102288Y-25047775D01*
X28143154Y-24991103D01*
X28187128Y-24969255D01*
X28222836Y-24959688D01*
X28342665Y-24890505D01*
X28440505Y-24792665D01*
X28509688Y-24672836D01*
X28545500Y-24539183D01*
X28545500Y-24400817D01*
X28509688Y-24267164D01*
X28453191Y-24169308D01*
X28440507Y-24147338D01*
X28440503Y-24147333D01*
X28342666Y-24049496D01*
X28342661Y-24049492D01*
X28222838Y-23980313D01*
X28222837Y-23980312D01*
X28222836Y-23980312D01*
X28089183Y-23944500D01*
X27950817Y-23944500D01*
X27817164Y-23980312D01*
X27817161Y-23980313D01*
X27697338Y-24049492D01*
X27697333Y-24049496D01*
X27599496Y-24147333D01*
X27599492Y-24147338D01*
X27530313Y-24267161D01*
X27530312Y-24267164D01*
X27494500Y-24400817D01*
X27494500Y-24539183D01*
X27526571Y-24658872D01*
X27530312Y-24672835D01*
X27530313Y-24672838D01*
X27599492Y-24792661D01*
X27599494Y-24792664D01*
X27599495Y-24792665D01*
X27697335Y-24890505D01*
X27697336Y-24890506D01*
X27697338Y-24890507D01*
X27710062Y-24897853D01*
X27817164Y-24959688D01*
X27817167Y-24959689D01*
X27820182Y-24960938D01*
X27822337Y-24962675D01*
X27824203Y-24963752D01*
X27824035Y-24964042D01*
X27874587Y-25004778D01*
X27896653Y-25071072D01*
X27879375Y-25138771D01*
X27828239Y-25186383D01*
X27772732Y-25199500D01*
X26901005Y-25199500D01*
X26765677Y-25226418D01*
X26765667Y-25226421D01*
X26638195Y-25279221D01*
X26638182Y-25279228D01*
X26523458Y-25355885D01*
X26523454Y-25355888D01*
X26425888Y-25453454D01*
X26425885Y-25453458D01*
X26349228Y-25568182D01*
X26349221Y-25568195D01*
X26296421Y-25695667D01*
X26296418Y-25695677D01*
X26269500Y-25831004D01*
X26269500Y-25831007D01*
X26269500Y-25968993D01*
X26269500Y-25968995D01*
X26269499Y-25968995D01*
X23798242Y-25968995D01*
X23829677Y-25914548D01*
X23860378Y-25799971D01*
X23860378Y-25778716D01*
X23860558Y-25775377D01*
X23871124Y-25745450D01*
X23880063Y-25715011D01*
X23883284Y-25711013D01*
X23883821Y-25709494D01*
X23885658Y-25708067D01*
X23896697Y-25694369D01*
X24143832Y-25447234D01*
X24502074Y-25088993D01*
X24502074Y-25088991D01*
X24502076Y-25088990D01*
X24534212Y-25011404D01*
X24541732Y-24993249D01*
X24541732Y-24889615D01*
X24541732Y-23858788D01*
X24561417Y-23791749D01*
X24614221Y-23745994D01*
X24683379Y-23736050D01*
X24697818Y-23739012D01*
X24740691Y-23750500D01*
X24740693Y-23750500D01*
X24859306Y-23750500D01*
X24859309Y-23750500D01*
X24973886Y-23719799D01*
X25076613Y-23660489D01*
X25160489Y-23576613D01*
X25219799Y-23473886D01*
X25250500Y-23359309D01*
X25250500Y-23240691D01*
X25250207Y-23239597D01*
X25250229Y-23238641D01*
X25249439Y-23232635D01*
X25250375Y-23232511D01*
X25251865Y-23169753D01*
X25291024Y-23111888D01*
X25307974Y-23100117D01*
X25376613Y-23060489D01*
X25460489Y-22976613D01*
X25519799Y-22873886D01*
X25550500Y-22759309D01*
X25550500Y-22640691D01*
X25519799Y-22526114D01*
X25460489Y-22423387D01*
X25376613Y-22339511D01*
X25273886Y-22280201D01*
X25159309Y-22249500D01*
X25040691Y-22249500D01*
X24926114Y-22280201D01*
X24926112Y-22280201D01*
X24926112Y-22280202D01*
X24823387Y-22339511D01*
X24823384Y-22339513D01*
X24753413Y-22409485D01*
X24692090Y-22442970D01*
X24622398Y-22437986D01*
X24566465Y-22396114D01*
X24542048Y-22330650D01*
X24541732Y-22321804D01*
X24541732Y-18067499D01*
X24541732Y-18067498D01*
X24502073Y-17971754D01*
X24428793Y-17898474D01*
X24391017Y-17860698D01*
X24357532Y-17799375D01*
X24362516Y-17729683D01*
X24404388Y-17673750D01*
X24451935Y-17654386D01*
X24451458Y-17652603D01*
X24459306Y-17650500D01*
X24459309Y-17650500D01*
X24573886Y-17619799D01*
X24676613Y-17560489D01*
X24760489Y-17476613D01*
X24819799Y-17373886D01*
X24831828Y-17328995D01*
X26269499Y-17328995D01*
X26296418Y-17464322D01*
X26296421Y-17464332D01*
X26349221Y-17591804D01*
X26349228Y-17591817D01*
X26425885Y-17706541D01*
X26425888Y-17706545D01*
X26523454Y-17804111D01*
X26523458Y-17804114D01*
X26638182Y-17880771D01*
X26638195Y-17880778D01*
X26733372Y-17920201D01*
X26765672Y-17933580D01*
X26765676Y-17933580D01*
X26765677Y-17933581D01*
X26901004Y-17960500D01*
X27772732Y-17960500D01*
X27839771Y-17980185D01*
X27885526Y-18032989D01*
X27895470Y-18102147D01*
X27866445Y-18165703D01*
X27824168Y-18196187D01*
X27824203Y-18196248D01*
X27823608Y-18196591D01*
X27820182Y-18199062D01*
X27817163Y-18200312D01*
X27697338Y-18269492D01*
X27697333Y-18269496D01*
X27599496Y-18367333D01*
X27599492Y-18367338D01*
X27530313Y-18487161D01*
X27530312Y-18487164D01*
X27494500Y-18620817D01*
X27494500Y-18759183D01*
X27517748Y-18845944D01*
X27530312Y-18892835D01*
X27530313Y-18892838D01*
X27599492Y-19012661D01*
X27599494Y-19012664D01*
X27599495Y-19012665D01*
X27697335Y-19110505D01*
X27817164Y-19179688D01*
X27950817Y-19215500D01*
X27950819Y-19215500D01*
X28089181Y-19215500D01*
X28089183Y-19215500D01*
X28222836Y-19179688D01*
X28342665Y-19110505D01*
X28440505Y-19012665D01*
X28509688Y-18892836D01*
X28545500Y-18759183D01*
X28545500Y-18620817D01*
X28509688Y-18487164D01*
X28459884Y-18400901D01*
X28440507Y-18367338D01*
X28440503Y-18367333D01*
X28342666Y-18269496D01*
X28342661Y-18269492D01*
X28222838Y-18200313D01*
X28222837Y-18200312D01*
X28207017Y-18196073D01*
X28187129Y-18190744D01*
X28127470Y-18154379D01*
X28096941Y-18091532D01*
X28105236Y-18022157D01*
X28149722Y-17968279D01*
X28195033Y-17949353D01*
X28209297Y-17946515D01*
X28274328Y-17933580D01*
X28401811Y-17880775D01*
X28516542Y-17804114D01*
X28614114Y-17706542D01*
X28690775Y-17591811D01*
X28743580Y-17464328D01*
X28770500Y-17328993D01*
X28770500Y-17191007D01*
X28770500Y-17191004D01*
X28743581Y-17055677D01*
X28743580Y-17055676D01*
X28743580Y-17055672D01*
X28741438Y-17050500D01*
X28690778Y-16928195D01*
X28690771Y-16928182D01*
X28614114Y-16813458D01*
X28614111Y-16813454D01*
X28516545Y-16715888D01*
X28516541Y-16715885D01*
X28401818Y-16639229D01*
X28401812Y-16639226D01*
X28401811Y-16639225D01*
X28401808Y-16639224D01*
X28401803Y-16639221D01*
X28274332Y-16586421D01*
X28274322Y-16586418D01*
X28138995Y-16559500D01*
X28138993Y-16559500D01*
X26901007Y-16559500D01*
X26901005Y-16559500D01*
X26765677Y-16586418D01*
X26765667Y-16586421D01*
X26638195Y-16639221D01*
X26638182Y-16639228D01*
X26523458Y-16715885D01*
X26523454Y-16715888D01*
X26425888Y-16813454D01*
X26425885Y-16813458D01*
X26349228Y-16928182D01*
X26349221Y-16928195D01*
X26296421Y-17055667D01*
X26296418Y-17055677D01*
X26269500Y-17191004D01*
X26269500Y-17191007D01*
X26269500Y-17328993D01*
X26269500Y-17328995D01*
X26269499Y-17328995D01*
X24831828Y-17328995D01*
X24850500Y-17259309D01*
X24850500Y-17140691D01*
X24819799Y-17026114D01*
X24760489Y-16923387D01*
X24676613Y-16839511D01*
X24573886Y-16780201D01*
X24459309Y-16749500D01*
X24340691Y-16749500D01*
X24226114Y-16780201D01*
X24226112Y-16780201D01*
X24226112Y-16780202D01*
X24123387Y-16839511D01*
X24123384Y-16839513D01*
X24039513Y-16923384D01*
X24039511Y-16923387D01*
X24008780Y-16976615D01*
X23980201Y-17026114D01*
X23949500Y-17140691D01*
X23949500Y-17140693D01*
X23947397Y-17148542D01*
X23945286Y-17147976D01*
X23921637Y-17201404D01*
X23863304Y-17239862D01*
X23793439Y-17240678D01*
X23739301Y-17208982D01*
X23471391Y-16941072D01*
X23437906Y-16879749D01*
X23442890Y-16810057D01*
X23471391Y-16765709D01*
X23476608Y-16760491D01*
X23476613Y-16760489D01*
X23560489Y-16676613D01*
X23619799Y-16573886D01*
X23628694Y-16540691D01*
X30049500Y-16540691D01*
X30049500Y-16659309D01*
X30080201Y-16773886D01*
X30139511Y-16876613D01*
X30223387Y-16960489D01*
X30326114Y-17019799D01*
X30440691Y-17050500D01*
X30440694Y-17050500D01*
X30476526Y-17050500D01*
X30543565Y-17070185D01*
X30589320Y-17122989D01*
X30599929Y-17186657D01*
X30599500Y-17191003D01*
X30599500Y-17191007D01*
X30599500Y-17328993D01*
X30599500Y-17328995D01*
X30599499Y-17328995D01*
X30626418Y-17464322D01*
X30626421Y-17464332D01*
X30679221Y-17591804D01*
X30679228Y-17591817D01*
X30755885Y-17706541D01*
X30755888Y-17706545D01*
X30853454Y-17804111D01*
X30853458Y-17804114D01*
X30968182Y-17880771D01*
X30968195Y-17880778D01*
X31063372Y-17920201D01*
X31095672Y-17933580D01*
X31095676Y-17933580D01*
X31095677Y-17933581D01*
X31231004Y-17960500D01*
X31231007Y-17960500D01*
X32168995Y-17960500D01*
X32274511Y-17939511D01*
X32304328Y-17933580D01*
X32431811Y-17880775D01*
X32546542Y-17804114D01*
X32644114Y-17706542D01*
X32720775Y-17591811D01*
X32773580Y-17464328D01*
X32800500Y-17328993D01*
X32800500Y-17191007D01*
X32800500Y-17191004D01*
X32773581Y-17055677D01*
X32773580Y-17055676D01*
X32773580Y-17055672D01*
X32771438Y-17050500D01*
X32720778Y-16928195D01*
X32720771Y-16928182D01*
X32644114Y-16813458D01*
X32644111Y-16813454D01*
X32546545Y-16715888D01*
X32546541Y-16715885D01*
X32431817Y-16639228D01*
X32431804Y-16639221D01*
X32304332Y-16586421D01*
X32304322Y-16586418D01*
X32168995Y-16559500D01*
X32168993Y-16559500D01*
X31231007Y-16559500D01*
X31231005Y-16559500D01*
X31095669Y-16586420D01*
X31095347Y-16586518D01*
X31095169Y-16586519D01*
X31089698Y-16587608D01*
X31089491Y-16586570D01*
X31025480Y-16587139D01*
X30966369Y-16549888D01*
X30939584Y-16499953D01*
X30919799Y-16426114D01*
X30860489Y-16323387D01*
X30776613Y-16239511D01*
X30673886Y-16180201D01*
X30559309Y-16149500D01*
X30440691Y-16149500D01*
X30326114Y-16180201D01*
X30326112Y-16180201D01*
X30326112Y-16180202D01*
X30223387Y-16239511D01*
X30223384Y-16239513D01*
X30139513Y-16323384D01*
X30139511Y-16323387D01*
X30085934Y-16416185D01*
X30080201Y-16426114D01*
X30049500Y-16540691D01*
X23628694Y-16540691D01*
X23650500Y-16459309D01*
X23650500Y-16340691D01*
X23619799Y-16226114D01*
X23560489Y-16123387D01*
X23476613Y-16039511D01*
X23373886Y-15980201D01*
X23259309Y-15949500D01*
X23259307Y-15949500D01*
X23259296Y-15949497D01*
X23257480Y-15949258D01*
X23256062Y-15948630D01*
X23251458Y-15947397D01*
X23251650Y-15946678D01*
X23193586Y-15920985D01*
X23155121Y-15862657D01*
X23150739Y-15842509D01*
X23150500Y-15840700D01*
X23150500Y-15840691D01*
X23119799Y-15726114D01*
X23060489Y-15623387D01*
X22976613Y-15539511D01*
X22873886Y-15480201D01*
X22759309Y-15449500D01*
X22640691Y-15449500D01*
X22526114Y-15480201D01*
X22526112Y-15480201D01*
X22526112Y-15480202D01*
X22423387Y-15539510D01*
X22334289Y-15628609D01*
X22272965Y-15662093D01*
X22203274Y-15657109D01*
X22158927Y-15628608D01*
X21620477Y-15090158D01*
X21620476Y-15090157D01*
X21524732Y-15050498D01*
X20998508Y-15050498D01*
X20931469Y-15030813D01*
X20885714Y-14978009D01*
X20875770Y-14908851D01*
X20904795Y-14845295D01*
X20910827Y-14838817D01*
X21557259Y-14192385D01*
X31526493Y-14192385D01*
X31526493Y-14311003D01*
X31557194Y-14425580D01*
X31616504Y-14528307D01*
X31700380Y-14612183D01*
X31803107Y-14671493D01*
X31917684Y-14702194D01*
X31917687Y-14702194D01*
X32036299Y-14702194D01*
X32036302Y-14702194D01*
X32150879Y-14671493D01*
X32253606Y-14612183D01*
X32337482Y-14528307D01*
X32396792Y-14425580D01*
X32427493Y-14311003D01*
X32427493Y-14192385D01*
X32396792Y-14077808D01*
X32337482Y-13975081D01*
X32253606Y-13891205D01*
X32150879Y-13831895D01*
X32036302Y-13801194D01*
X31917684Y-13801194D01*
X31803107Y-13831895D01*
X31803105Y-13831895D01*
X31803105Y-13831896D01*
X31700380Y-13891205D01*
X31700377Y-13891207D01*
X31616506Y-13975078D01*
X31616504Y-13975081D01*
X31557194Y-14077808D01*
X31526493Y-14192385D01*
X21557259Y-14192385D01*
X21653067Y-14096577D01*
X23308954Y-12440691D01*
X25649500Y-12440691D01*
X25649500Y-12559309D01*
X25680201Y-12673886D01*
X25739511Y-12776613D01*
X25823387Y-12860489D01*
X25926114Y-12919799D01*
X26040691Y-12950500D01*
X26040694Y-12950500D01*
X26159306Y-12950500D01*
X26159309Y-12950500D01*
X26273886Y-12919799D01*
X26376613Y-12860489D01*
X26460489Y-12776613D01*
X26519799Y-12673886D01*
X26550500Y-12559309D01*
X26550500Y-12440691D01*
X26519799Y-12326114D01*
X26460489Y-12223387D01*
X26376613Y-12139511D01*
X26273886Y-12080201D01*
X26159309Y-12049500D01*
X26040691Y-12049500D01*
X25926114Y-12080201D01*
X25926112Y-12080201D01*
X25926112Y-12080202D01*
X25823387Y-12139511D01*
X25823384Y-12139513D01*
X25739513Y-12223384D01*
X25739511Y-12223387D01*
X25680201Y-12326114D01*
X25649500Y-12440691D01*
X23308954Y-12440691D01*
X23404762Y-12344883D01*
X24393533Y-11356112D01*
X25391342Y-10358303D01*
X25423581Y-10280469D01*
X25431000Y-10262559D01*
X25431000Y-9321924D01*
X25450685Y-9254885D01*
X25503489Y-9209130D01*
X25572647Y-9199186D01*
X25617003Y-9214539D01*
X25626110Y-9219797D01*
X25626111Y-9219797D01*
X25626114Y-9219799D01*
X25740691Y-9250500D01*
X25740694Y-9250500D01*
X25859306Y-9250500D01*
X25859309Y-9250500D01*
X25973886Y-9219799D01*
X26076613Y-9160489D01*
X26160489Y-9076613D01*
X26219799Y-8973886D01*
X26250500Y-8859309D01*
X26250500Y-8740691D01*
X26223705Y-8640691D01*
X32349500Y-8640691D01*
X32349500Y-8759309D01*
X32380201Y-8873886D01*
X32439511Y-8976613D01*
X32523387Y-9060489D01*
X32626114Y-9119799D01*
X32740691Y-9150500D01*
X32740694Y-9150500D01*
X32859306Y-9150500D01*
X32859309Y-9150500D01*
X32973886Y-9119799D01*
X33076613Y-9060489D01*
X33160489Y-8976613D01*
X33219799Y-8873886D01*
X33250500Y-8759309D01*
X33250500Y-8640691D01*
X33219799Y-8526114D01*
X33160489Y-8423387D01*
X33076613Y-8339511D01*
X32973886Y-8280201D01*
X32859309Y-8249500D01*
X32740691Y-8249500D01*
X32626114Y-8280201D01*
X32626112Y-8280201D01*
X32626112Y-8280202D01*
X32523387Y-8339511D01*
X32523384Y-8339513D01*
X32439513Y-8423384D01*
X32439511Y-8423387D01*
X32416699Y-8462899D01*
X32380201Y-8526114D01*
X32349500Y-8640691D01*
X26223705Y-8640691D01*
X26219799Y-8626114D01*
X26160489Y-8523387D01*
X26076613Y-8439511D01*
X25973886Y-8380201D01*
X25859309Y-8349500D01*
X25740691Y-8349500D01*
X25626114Y-8380201D01*
X25626112Y-8380201D01*
X25626112Y-8380202D01*
X25523387Y-8439511D01*
X25523383Y-8439514D01*
X25487681Y-8475216D01*
X25426358Y-8508701D01*
X25356666Y-8503715D01*
X25312320Y-8475215D01*
X25276618Y-8439513D01*
X25276616Y-8439511D01*
X25173889Y-8380201D01*
X25059312Y-8349500D01*
X24940694Y-8349500D01*
X24835508Y-8377684D01*
X24826113Y-8380202D01*
X24762001Y-8417218D01*
X24694101Y-8433691D01*
X24638001Y-8417218D01*
X24573886Y-8380201D01*
X24459309Y-8349500D01*
X24340691Y-8349500D01*
X24226114Y-8380201D01*
X24123387Y-8439511D01*
X24123385Y-8439512D01*
X24116349Y-8443575D01*
X24115338Y-8441824D01*
X24060311Y-8463095D01*
X23991867Y-8449053D01*
X23980615Y-8441822D01*
X23976614Y-8439512D01*
X23976613Y-8439511D01*
X23873886Y-8380201D01*
X23759309Y-8349500D01*
X23640691Y-8349500D01*
X23526114Y-8380201D01*
X23526112Y-8380201D01*
X23526112Y-8380202D01*
X23423387Y-8439511D01*
X23423384Y-8439513D01*
X23339513Y-8523384D01*
X23339511Y-8523387D01*
X23310355Y-8573887D01*
X23280201Y-8626114D01*
X23249500Y-8740691D01*
X23249500Y-8859309D01*
X23280201Y-8973886D01*
X23339511Y-9076613D01*
X23423387Y-9160489D01*
X23526114Y-9219799D01*
X23640691Y-9250500D01*
X23640694Y-9250500D01*
X23759306Y-9250500D01*
X23759309Y-9250500D01*
X23873886Y-9219799D01*
X23976613Y-9160489D01*
X23976614Y-9160487D01*
X23983651Y-9156425D01*
X23984662Y-9158177D01*
X24039671Y-9136906D01*
X24108117Y-9150938D01*
X24119367Y-9158167D01*
X24123384Y-9160486D01*
X24123387Y-9160489D01*
X24226114Y-9219799D01*
X24340691Y-9250500D01*
X24340694Y-9250500D01*
X24459306Y-9250500D01*
X24459309Y-9250500D01*
X24573886Y-9219799D01*
X24638002Y-9182781D01*
X24648381Y-9180262D01*
X24656949Y-9173882D01*
X24681742Y-9172168D01*
X24705899Y-9166308D01*
X24717837Y-9169675D01*
X24726653Y-9169066D01*
X24755863Y-9180400D01*
X24759692Y-9181480D01*
X24760822Y-9182100D01*
X24826117Y-9219799D01*
X24832655Y-9221550D01*
X24845691Y-9228710D01*
X24865732Y-9248848D01*
X24887852Y-9266672D01*
X24890055Y-9273290D01*
X24894976Y-9278235D01*
X24900947Y-9306008D01*
X24909921Y-9332965D01*
X24910000Y-9337398D01*
X24910000Y-10051477D01*
X24890315Y-10118516D01*
X24873681Y-10139158D01*
X19511661Y-15501177D01*
X19450338Y-15534662D01*
X19380646Y-15529678D01*
X19361980Y-15520883D01*
X19340551Y-15508511D01*
X19340552Y-15508511D01*
X19331156Y-15505993D01*
X19225971Y-15477809D01*
X19107353Y-15477809D01*
X18992776Y-15508510D01*
X18992774Y-15508510D01*
X18992774Y-15508511D01*
X18890049Y-15567820D01*
X18862794Y-15595074D01*
X18801469Y-15628557D01*
X18731778Y-15623570D01*
X18687434Y-15595071D01*
X18667943Y-15575580D01*
X18667941Y-15575578D01*
X18565214Y-15516268D01*
X18450637Y-15485567D01*
X18335457Y-15485567D01*
X18268418Y-15465882D01*
X18228070Y-15423567D01*
X18212477Y-15396559D01*
X18128601Y-15312683D01*
X18025874Y-15253373D01*
X17911297Y-15222672D01*
X17792679Y-15222672D01*
X17792677Y-15222672D01*
X17739092Y-15237030D01*
X17669242Y-15235367D01*
X17619319Y-15204936D01*
X17554081Y-15139698D01*
X17554079Y-15139696D01*
X17451352Y-15080386D01*
X17336775Y-15049685D01*
X17218157Y-15049685D01*
X17103580Y-15080386D01*
X17103578Y-15080386D01*
X17103578Y-15080387D01*
X17000853Y-15139696D01*
X17000850Y-15139698D01*
X16916979Y-15223569D01*
X16916977Y-15223572D01*
X16857667Y-15326299D01*
X16826966Y-15440876D01*
X16826966Y-15559494D01*
X16857667Y-15674071D01*
X16916977Y-15776798D01*
X17000853Y-15860674D01*
X17048072Y-15887936D01*
X17096287Y-15938504D01*
X17109509Y-16007111D01*
X17083541Y-16071976D01*
X17073752Y-16083004D01*
X15895577Y-17261181D01*
X15834254Y-17294666D01*
X15807896Y-17297500D01*
X15005471Y-17297500D01*
X14938432Y-17277815D01*
X14892677Y-17225011D01*
X14882733Y-17155853D01*
X14898085Y-17111498D01*
X14919799Y-17073889D01*
X14950500Y-16959312D01*
X14950500Y-16840694D01*
X14919799Y-16726117D01*
X14919797Y-16726114D01*
X14919797Y-16726112D01*
X14919796Y-16726111D01*
X14882782Y-16662002D01*
X14866308Y-16594102D01*
X14882782Y-16538000D01*
X14919799Y-16473886D01*
X14950500Y-16359309D01*
X14950500Y-16240691D01*
X14919799Y-16126114D01*
X14860489Y-16023387D01*
X14776613Y-15939511D01*
X14673886Y-15880201D01*
X14559309Y-15849500D01*
X14440691Y-15849500D01*
X14326114Y-15880201D01*
X14326112Y-15880201D01*
X14326112Y-15880202D01*
X14223387Y-15939511D01*
X14223384Y-15939513D01*
X14139513Y-16023384D01*
X14139511Y-16023387D01*
X14080201Y-16126114D01*
X14049500Y-16240691D01*
X14049500Y-16359309D01*
X14080201Y-16473886D01*
X14110355Y-16526114D01*
X14117218Y-16538000D01*
X14133691Y-16605900D01*
X14117218Y-16662001D01*
X14080202Y-16726113D01*
X14080201Y-16726117D01*
X14049500Y-16840694D01*
X14049500Y-16959312D01*
X14080201Y-17073888D01*
X14080202Y-17073891D01*
X14101915Y-17111498D01*
X14118389Y-17179398D01*
X14095537Y-17245426D01*
X14040617Y-17288617D01*
X13994529Y-17297500D01*
X10090184Y-17297500D01*
X10090183Y-17297500D01*
X10090178Y-17297501D01*
X10034046Y-17320752D01*
X9964577Y-17328221D01*
X9902098Y-17296946D01*
X9866446Y-17236857D01*
X9868940Y-17167031D01*
X9879203Y-17144198D01*
X9919799Y-17073886D01*
X9950500Y-16959309D01*
X9950500Y-16840691D01*
X9919799Y-16726114D01*
X9860489Y-16623387D01*
X9776613Y-16539511D01*
X9673886Y-16480201D01*
X9559309Y-16449500D01*
X9440691Y-16449500D01*
X9326114Y-16480201D01*
X9326112Y-16480201D01*
X9326112Y-16480202D01*
X9223387Y-16539511D01*
X9223384Y-16539513D01*
X9139513Y-16623384D01*
X9139511Y-16623387D01*
X9080201Y-16726114D01*
X9049500Y-16840691D01*
X9049500Y-16959309D01*
X9080201Y-17073886D01*
X9139511Y-17176613D01*
X9223387Y-17260489D01*
X9326114Y-17319799D01*
X9440691Y-17350500D01*
X9440694Y-17350500D01*
X9559306Y-17350500D01*
X9559309Y-17350500D01*
X9673886Y-17319799D01*
X9673897Y-17319792D01*
X9674794Y-17319422D01*
X9675624Y-17319332D01*
X9681736Y-17317695D01*
X9681991Y-17318647D01*
X9744262Y-17311947D01*
X9806744Y-17343217D01*
X9842402Y-17403303D01*
X9839914Y-17473128D01*
X9809937Y-17521660D01*
X9341272Y-17990326D01*
X9279949Y-18023811D01*
X9253591Y-18026645D01*
X9163547Y-18026645D01*
X9048970Y-18057346D01*
X9048968Y-18057346D01*
X9048968Y-18057347D01*
X8946243Y-18116656D01*
X8946239Y-18116659D01*
X8926886Y-18136012D01*
X8865563Y-18169496D01*
X8795871Y-18164510D01*
X8751526Y-18136010D01*
X8681174Y-18065658D01*
X8681172Y-18065656D01*
X8578445Y-18006346D01*
X8463868Y-17975645D01*
X8345250Y-17975645D01*
X8230673Y-18006346D01*
X8230671Y-18006346D01*
X8230671Y-18006347D01*
X8127946Y-18065656D01*
X8127943Y-18065658D01*
X8044072Y-18149529D01*
X8044070Y-18149532D01*
X7987041Y-18248309D01*
X7984760Y-18252259D01*
X7954059Y-18366836D01*
X-299500Y-18366836D01*
X-299500Y-16540691D01*
X3849500Y-16540691D01*
X3849500Y-16659309D01*
X3880201Y-16773886D01*
X3939511Y-16876613D01*
X4023387Y-16960489D01*
X4126114Y-17019799D01*
X4240691Y-17050500D01*
X4240694Y-17050500D01*
X4359306Y-17050500D01*
X4359309Y-17050500D01*
X4473886Y-17019799D01*
X4576613Y-16960489D01*
X4660489Y-16876613D01*
X4719799Y-16773886D01*
X4750500Y-16659309D01*
X4750500Y-16640691D01*
X6349500Y-16640691D01*
X6349500Y-16759309D01*
X6380201Y-16873886D01*
X6439511Y-16976613D01*
X6523387Y-17060489D01*
X6626114Y-17119799D01*
X6740691Y-17150500D01*
X6740694Y-17150500D01*
X6859306Y-17150500D01*
X6859309Y-17150500D01*
X6973886Y-17119799D01*
X7076613Y-17060489D01*
X7160489Y-16976613D01*
X7219799Y-16873886D01*
X7250500Y-16759309D01*
X7250500Y-16640691D01*
X7219799Y-16526114D01*
X7160489Y-16423387D01*
X7076613Y-16339511D01*
X6973886Y-16280201D01*
X6859309Y-16249500D01*
X6740691Y-16249500D01*
X6626114Y-16280201D01*
X6626112Y-16280201D01*
X6626112Y-16280202D01*
X6523387Y-16339511D01*
X6523384Y-16339513D01*
X6439513Y-16423384D01*
X6439511Y-16423387D01*
X6395308Y-16499949D01*
X6380201Y-16526114D01*
X6349500Y-16640691D01*
X4750500Y-16640691D01*
X4750500Y-16540691D01*
X4719799Y-16426114D01*
X4660489Y-16323387D01*
X4576613Y-16239511D01*
X4473886Y-16180201D01*
X4359309Y-16149500D01*
X4240691Y-16149500D01*
X4126114Y-16180201D01*
X4126112Y-16180201D01*
X4126112Y-16180202D01*
X4023387Y-16239511D01*
X4023384Y-16239513D01*
X3939513Y-16323384D01*
X3939511Y-16323387D01*
X3885934Y-16416185D01*
X3880201Y-16426114D01*
X3849500Y-16540691D01*
X-299500Y-16540691D01*
X-299500Y-15819068D01*
X10174680Y-15819068D01*
X10174680Y-15937686D01*
X10205381Y-16052263D01*
X10264691Y-16154990D01*
X10348567Y-16238866D01*
X10451294Y-16298176D01*
X10565871Y-16328877D01*
X10565874Y-16328877D01*
X10684486Y-16328877D01*
X10684489Y-16328877D01*
X10799066Y-16298176D01*
X10901793Y-16238866D01*
X10985669Y-16154990D01*
X11044979Y-16052263D01*
X11075680Y-15937686D01*
X11075680Y-15819068D01*
X11044979Y-15704491D01*
X10985669Y-15601764D01*
X10901793Y-15517888D01*
X10799066Y-15458578D01*
X10684489Y-15427877D01*
X10565871Y-15427877D01*
X10451294Y-15458578D01*
X10451292Y-15458578D01*
X10451292Y-15458579D01*
X10348567Y-15517888D01*
X10348564Y-15517890D01*
X10264693Y-15601761D01*
X10264691Y-15601764D01*
X10222944Y-15674072D01*
X10205381Y-15704491D01*
X10174680Y-15819068D01*
X-299500Y-15819068D01*
X-299500Y-14557902D01*
X13906364Y-14557902D01*
X13906364Y-14676520D01*
X13937065Y-14791097D01*
X13996375Y-14893824D01*
X14080251Y-14977700D01*
X14182978Y-15037010D01*
X14297555Y-15067711D01*
X14297558Y-15067711D01*
X14416170Y-15067711D01*
X14416173Y-15067711D01*
X14530750Y-15037010D01*
X14633477Y-14977700D01*
X14717353Y-14893824D01*
X14776663Y-14791097D01*
X14807364Y-14676520D01*
X14807364Y-14557902D01*
X14776663Y-14443325D01*
X14717353Y-14340598D01*
X14633477Y-14256722D01*
X14530750Y-14197412D01*
X14416173Y-14166711D01*
X14297555Y-14166711D01*
X14182978Y-14197412D01*
X14182976Y-14197412D01*
X14182976Y-14197413D01*
X14080251Y-14256722D01*
X14080248Y-14256724D01*
X13996377Y-14340595D01*
X13996375Y-14340598D01*
X13947310Y-14425581D01*
X13937065Y-14443325D01*
X13906364Y-14557902D01*
X-299500Y-14557902D01*
X-299500Y-13340691D01*
X12949500Y-13340691D01*
X12949500Y-13459309D01*
X12980201Y-13573886D01*
X13039511Y-13676613D01*
X13123387Y-13760489D01*
X13226114Y-13819799D01*
X13340691Y-13850500D01*
X13340694Y-13850500D01*
X13459306Y-13850500D01*
X13459309Y-13850500D01*
X13573886Y-13819799D01*
X13676613Y-13760489D01*
X13760489Y-13676613D01*
X13819799Y-13573886D01*
X13850500Y-13459309D01*
X13850500Y-13369265D01*
X13859144Y-13339825D01*
X13865672Y-13309830D01*
X13869423Y-13304819D01*
X13870185Y-13302226D01*
X13886826Y-13281577D01*
X13893207Y-13275197D01*
X13954532Y-13241717D01*
X13980881Y-13238885D01*
X17633087Y-13238885D01*
X17633088Y-13238885D01*
X17715696Y-13204666D01*
X17785165Y-13197197D01*
X17847644Y-13228471D01*
X17850831Y-13231546D01*
X17921323Y-13302038D01*
X18024050Y-13361348D01*
X18138627Y-13392049D01*
X18138630Y-13392049D01*
X18257242Y-13392049D01*
X18257245Y-13392049D01*
X18371822Y-13361348D01*
X18474549Y-13302038D01*
X18558425Y-13218162D01*
X18617735Y-13115435D01*
X18648436Y-13000858D01*
X18648436Y-12910813D01*
X18668121Y-12843774D01*
X18684755Y-12823132D01*
X18750347Y-12757540D01*
X18919596Y-12588292D01*
X18919596Y-12588290D01*
X18919598Y-12588289D01*
X18939425Y-12540420D01*
X18959254Y-12492548D01*
X18959254Y-12388914D01*
X18959254Y-9440691D01*
X21449500Y-9440691D01*
X21449500Y-9559309D01*
X21480201Y-9673886D01*
X21539511Y-9776613D01*
X21623387Y-9860489D01*
X21726114Y-9919799D01*
X21840691Y-9950500D01*
X21840694Y-9950500D01*
X21959306Y-9950500D01*
X21959309Y-9950500D01*
X22073886Y-9919799D01*
X22176613Y-9860489D01*
X22260489Y-9776613D01*
X22319799Y-9673886D01*
X22350500Y-9559309D01*
X22350500Y-9440691D01*
X22319799Y-9326114D01*
X22260489Y-9223387D01*
X22176613Y-9139511D01*
X22073886Y-9080201D01*
X21959309Y-9049500D01*
X21840691Y-9049500D01*
X21726114Y-9080201D01*
X21726112Y-9080201D01*
X21726112Y-9080202D01*
X21623387Y-9139511D01*
X21623384Y-9139513D01*
X21539513Y-9223384D01*
X21539511Y-9223387D01*
X21510355Y-9273887D01*
X21480201Y-9326114D01*
X21449500Y-9440691D01*
X18959254Y-9440691D01*
X18959254Y-9360509D01*
X18978939Y-9293470D01*
X18995569Y-9272832D01*
X19381582Y-8886818D01*
X19442905Y-8853334D01*
X19469263Y-8850500D01*
X19559306Y-8850500D01*
X19559309Y-8850500D01*
X19673886Y-8819799D01*
X19776613Y-8760489D01*
X19860489Y-8676613D01*
X19919799Y-8573886D01*
X19950500Y-8459309D01*
X19950500Y-8340691D01*
X19932352Y-8272962D01*
X19934013Y-8203115D01*
X19973175Y-8145252D01*
X20037403Y-8117747D01*
X20106306Y-8129333D01*
X20114126Y-8133483D01*
X20174864Y-8168550D01*
X20174865Y-8168550D01*
X20174868Y-8168552D01*
X20289445Y-8199253D01*
X20289448Y-8199253D01*
X20408060Y-8199253D01*
X20408063Y-8199253D01*
X20522640Y-8168552D01*
X20625367Y-8109242D01*
X20709243Y-8025366D01*
X20768553Y-7922639D01*
X20799254Y-7808062D01*
X20799254Y-7689444D01*
X20768553Y-7574867D01*
X20709243Y-7472140D01*
X20625367Y-7388264D01*
X20522640Y-7328954D01*
X20408063Y-7298253D01*
X20289445Y-7298253D01*
X20174868Y-7328954D01*
X20174866Y-7328954D01*
X20174866Y-7328955D01*
X20072141Y-7388264D01*
X20072138Y-7388266D01*
X19988267Y-7472137D01*
X19988265Y-7472140D01*
X19928955Y-7574867D01*
X19898254Y-7689444D01*
X19898254Y-7808062D01*
X19916401Y-7875790D01*
X19914739Y-7945638D01*
X19875577Y-8003501D01*
X19811348Y-8031005D01*
X19742446Y-8019419D01*
X19734627Y-8015269D01*
X19673889Y-7980202D01*
X19673890Y-7980202D01*
X19664494Y-7977684D01*
X19559309Y-7949500D01*
X19440691Y-7949500D01*
X19326114Y-7980201D01*
X19326112Y-7980201D01*
X19326112Y-7980202D01*
X19223387Y-8039511D01*
X19223384Y-8039513D01*
X19139513Y-8123384D01*
X19139511Y-8123387D01*
X19093480Y-8203115D01*
X19080201Y-8226114D01*
X19049500Y-8340691D01*
X19049500Y-8340693D01*
X19049500Y-8430735D01*
X19029815Y-8497774D01*
X19013181Y-8518416D01*
X18551193Y-8980405D01*
X18477914Y-9053683D01*
X18438254Y-9149428D01*
X18438254Y-11116573D01*
X18418569Y-11183612D01*
X18365765Y-11229367D01*
X18314254Y-11240573D01*
X18229446Y-11240573D01*
X18114869Y-11271274D01*
X18114867Y-11271274D01*
X18114867Y-11271275D01*
X18012142Y-11330584D01*
X18012139Y-11330586D01*
X17928268Y-11414457D01*
X17928266Y-11414460D01*
X17895800Y-11470693D01*
X17868956Y-11517187D01*
X17838255Y-11631764D01*
X17838255Y-11750382D01*
X17868956Y-11864959D01*
X17883696Y-11890489D01*
X17890428Y-11902149D01*
X17906901Y-11970049D01*
X17884049Y-12036076D01*
X17870725Y-12051828D01*
X17861377Y-12061176D01*
X17861373Y-12061181D01*
X17816148Y-12139513D01*
X17802063Y-12163908D01*
X17771362Y-12278485D01*
X17771362Y-12278487D01*
X17771362Y-12368527D01*
X17751677Y-12435566D01*
X17735044Y-12456208D01*
X17509688Y-12681566D01*
X17448365Y-12715051D01*
X17422006Y-12717885D01*
X13873432Y-12717885D01*
X13769798Y-12717885D01*
X13769796Y-12717885D01*
X13769794Y-12717886D01*
X13674057Y-12757540D01*
X13674054Y-12757543D01*
X13518413Y-12913182D01*
X13457092Y-12946666D01*
X13430734Y-12949500D01*
X13340691Y-12949500D01*
X13226114Y-12980201D01*
X13226112Y-12980201D01*
X13226112Y-12980202D01*
X13123387Y-13039511D01*
X13123384Y-13039513D01*
X13039513Y-13123384D01*
X13039511Y-13123387D01*
X12992584Y-13204667D01*
X12980201Y-13226114D01*
X12949500Y-13340691D01*
X-299500Y-13340691D01*
X-299500Y-12440691D01*
X449500Y-12440691D01*
X449500Y-12559309D01*
X480201Y-12673886D01*
X539511Y-12776613D01*
X623387Y-12860489D01*
X726114Y-12919799D01*
X840691Y-12950500D01*
X840694Y-12950500D01*
X959306Y-12950500D01*
X959309Y-12950500D01*
X1073886Y-12919799D01*
X1176613Y-12860489D01*
X1260489Y-12776613D01*
X1319799Y-12673886D01*
X1350500Y-12559309D01*
X1350500Y-12440691D01*
X1319799Y-12326114D01*
X1260489Y-12223387D01*
X1176613Y-12139511D01*
X1073886Y-12080201D01*
X959309Y-12049500D01*
X840691Y-12049500D01*
X726114Y-12080201D01*
X726112Y-12080201D01*
X726112Y-12080202D01*
X623387Y-12139511D01*
X623384Y-12139513D01*
X539513Y-12223384D01*
X539511Y-12223387D01*
X480201Y-12326114D01*
X449500Y-12440691D01*
X-299500Y-12440691D01*
X-299500Y-11470691D01*
X4049500Y-11470691D01*
X4049500Y-11589309D01*
X4080201Y-11703886D01*
X4139511Y-11806613D01*
X4223387Y-11890489D01*
X4326114Y-11949799D01*
X4440691Y-11980500D01*
X4440694Y-11980500D01*
X4559306Y-11980500D01*
X4559309Y-11980500D01*
X4673886Y-11949799D01*
X4776613Y-11890489D01*
X4860489Y-11806613D01*
X4919799Y-11703886D01*
X4950500Y-11589309D01*
X4950500Y-11470691D01*
X4942461Y-11440691D01*
X13859500Y-11440691D01*
X13859500Y-11559309D01*
X13890201Y-11673886D01*
X13949511Y-11776613D01*
X14033387Y-11860489D01*
X14136114Y-11919799D01*
X14250691Y-11950500D01*
X14250694Y-11950500D01*
X14369306Y-11950500D01*
X14369309Y-11950500D01*
X14483886Y-11919799D01*
X14586613Y-11860489D01*
X14670489Y-11776613D01*
X14729799Y-11673886D01*
X14760500Y-11559309D01*
X14760500Y-11440691D01*
X14729799Y-11326114D01*
X14670489Y-11223387D01*
X14586613Y-11139511D01*
X14483886Y-11080201D01*
X14369309Y-11049500D01*
X14250691Y-11049500D01*
X14136114Y-11080201D01*
X14136112Y-11080201D01*
X14136112Y-11080202D01*
X14033387Y-11139511D01*
X14033384Y-11139513D01*
X13949513Y-11223384D01*
X13949511Y-11223387D01*
X13890201Y-11326114D01*
X13859500Y-11440691D01*
X4942461Y-11440691D01*
X4919799Y-11356114D01*
X4860489Y-11253387D01*
X4776613Y-11169511D01*
X4673886Y-11110201D01*
X4559309Y-11079500D01*
X4440691Y-11079500D01*
X4326114Y-11110201D01*
X4326112Y-11110201D01*
X4326112Y-11110202D01*
X4223387Y-11169511D01*
X4223384Y-11169513D01*
X4139513Y-11253384D01*
X4139511Y-11253387D01*
X4080201Y-11356114D01*
X4049500Y-11470691D01*
X-299500Y-11470691D01*
X-299500Y-10140691D01*
X7149500Y-10140691D01*
X7149500Y-10259309D01*
X7180201Y-10373886D01*
X7239511Y-10476613D01*
X7323387Y-10560489D01*
X7426114Y-10619799D01*
X7540691Y-10650500D01*
X7540694Y-10650500D01*
X7659306Y-10650500D01*
X7659309Y-10650500D01*
X7773886Y-10619799D01*
X7876613Y-10560489D01*
X7960489Y-10476613D01*
X7981228Y-10440691D01*
X8449500Y-10440691D01*
X8449500Y-10559309D01*
X8480201Y-10673886D01*
X8539511Y-10776613D01*
X8623387Y-10860489D01*
X8726114Y-10919799D01*
X8840691Y-10950500D01*
X8840694Y-10950500D01*
X8959306Y-10950500D01*
X8959309Y-10950500D01*
X9073886Y-10919799D01*
X9176613Y-10860489D01*
X9260489Y-10776613D01*
X9319799Y-10673886D01*
X9350500Y-10559309D01*
X9350500Y-10440691D01*
X9319799Y-10326114D01*
X9260489Y-10223387D01*
X9176613Y-10139511D01*
X9073886Y-10080201D01*
X8969901Y-10052338D01*
X8966352Y-10051387D01*
X8959309Y-10049500D01*
X8840691Y-10049500D01*
X8726114Y-10080201D01*
X8726112Y-10080201D01*
X8726112Y-10080202D01*
X8623387Y-10139511D01*
X8623384Y-10139513D01*
X8539513Y-10223384D01*
X8539511Y-10223387D01*
X8506500Y-10280564D01*
X8480201Y-10326114D01*
X8449500Y-10440691D01*
X7981228Y-10440691D01*
X7997691Y-10412177D01*
X8019795Y-10373894D01*
X8019797Y-10373890D01*
X8019798Y-10373887D01*
X8019799Y-10373886D01*
X8050500Y-10259309D01*
X8050500Y-10140691D01*
X8019799Y-10026114D01*
X7970480Y-9940691D01*
X17049500Y-9940691D01*
X17049500Y-10059309D01*
X17080201Y-10173886D01*
X17139511Y-10276613D01*
X17223387Y-10360489D01*
X17326114Y-10419799D01*
X17440691Y-10450500D01*
X17440694Y-10450500D01*
X17559306Y-10450500D01*
X17559309Y-10450500D01*
X17673886Y-10419799D01*
X17776613Y-10360489D01*
X17860489Y-10276613D01*
X17919799Y-10173886D01*
X17950500Y-10059309D01*
X17950500Y-9940691D01*
X17919799Y-9826114D01*
X17860489Y-9723387D01*
X17776613Y-9639511D01*
X17673886Y-9580201D01*
X17559309Y-9549500D01*
X17440691Y-9549500D01*
X17326114Y-9580201D01*
X17326112Y-9580201D01*
X17326112Y-9580202D01*
X17223387Y-9639511D01*
X17223384Y-9639513D01*
X17139513Y-9723384D01*
X17139511Y-9723387D01*
X17106709Y-9780202D01*
X17080201Y-9826114D01*
X17049500Y-9940691D01*
X7970480Y-9940691D01*
X7960489Y-9923387D01*
X7876613Y-9839511D01*
X7773886Y-9780201D01*
X7659309Y-9749500D01*
X7540691Y-9749500D01*
X7426114Y-9780201D01*
X7426112Y-9780201D01*
X7426112Y-9780202D01*
X7323387Y-9839511D01*
X7323384Y-9839513D01*
X7239513Y-9923384D01*
X7239511Y-9923387D01*
X7180201Y-10026114D01*
X7149500Y-10140691D01*
X-299500Y-10140691D01*
X-299500Y-9040691D01*
X9449500Y-9040691D01*
X9449500Y-9159309D01*
X9480201Y-9273886D01*
X9539511Y-9376613D01*
X9623387Y-9460489D01*
X9726114Y-9519799D01*
X9840691Y-9550500D01*
X9840694Y-9550500D01*
X9959306Y-9550500D01*
X9959309Y-9550500D01*
X10073886Y-9519799D01*
X10176613Y-9460489D01*
X10260489Y-9376613D01*
X10319799Y-9273886D01*
X10350500Y-9159309D01*
X10350500Y-9040691D01*
X10319799Y-8926114D01*
X10260489Y-8823387D01*
X10176613Y-8739511D01*
X10073886Y-8680201D01*
X9959309Y-8649500D01*
X9840691Y-8649500D01*
X9726114Y-8680201D01*
X9726112Y-8680201D01*
X9726112Y-8680202D01*
X9623387Y-8739511D01*
X9623384Y-8739513D01*
X9539513Y-8823384D01*
X9539511Y-8823387D01*
X9510355Y-8873887D01*
X9480201Y-8926114D01*
X9449500Y-9040691D01*
X-299500Y-9040691D01*
X-299500Y-6050691D01*
X21749500Y-6050691D01*
X21749500Y-6169309D01*
X21780201Y-6283886D01*
X21839511Y-6386613D01*
X21923387Y-6470489D01*
X22026114Y-6529799D01*
X22140691Y-6560500D01*
X22140694Y-6560500D01*
X22259306Y-6560500D01*
X22259309Y-6560500D01*
X22333237Y-6540691D01*
X28624500Y-6540691D01*
X28624500Y-6659309D01*
X28655201Y-6773886D01*
X28714511Y-6876613D01*
X28798387Y-6960489D01*
X28901114Y-7019799D01*
X29015691Y-7050500D01*
X29015694Y-7050500D01*
X29134306Y-7050500D01*
X29134309Y-7050500D01*
X29248886Y-7019799D01*
X29351613Y-6960489D01*
X29435489Y-6876613D01*
X29494799Y-6773886D01*
X29525500Y-6659309D01*
X29525500Y-6540691D01*
X29494799Y-6426114D01*
X29435489Y-6323387D01*
X29351613Y-6239511D01*
X29248886Y-6180201D01*
X29134309Y-6149500D01*
X29015691Y-6149500D01*
X28901114Y-6180201D01*
X28901112Y-6180201D01*
X28901112Y-6180202D01*
X28798387Y-6239511D01*
X28798384Y-6239513D01*
X28714513Y-6323384D01*
X28714511Y-6323387D01*
X28693091Y-6360488D01*
X28655201Y-6426114D01*
X28624500Y-6540691D01*
X22333237Y-6540691D01*
X22373886Y-6529799D01*
X22476613Y-6470489D01*
X22560489Y-6386613D01*
X22619799Y-6283886D01*
X22635849Y-6223984D01*
X22672212Y-6164327D01*
X22735059Y-6133797D01*
X22787714Y-6136304D01*
X22840691Y-6150500D01*
X22840693Y-6150500D01*
X22959306Y-6150500D01*
X22959309Y-6150500D01*
X23073886Y-6119799D01*
X23176613Y-6060489D01*
X23260489Y-5976613D01*
X23263742Y-5970977D01*
X23314303Y-5922762D01*
X23382909Y-5909534D01*
X23447776Y-5935497D01*
X23478517Y-5970972D01*
X23529520Y-6059309D01*
X23539511Y-6076613D01*
X23623387Y-6160489D01*
X23726114Y-6219799D01*
X23840691Y-6250500D01*
X23840694Y-6250500D01*
X23959306Y-6250500D01*
X23959309Y-6250500D01*
X24073886Y-6219799D01*
X24176613Y-6160489D01*
X24260489Y-6076613D01*
X24292613Y-6020972D01*
X24343180Y-5972757D01*
X24411787Y-5959535D01*
X24476652Y-5985503D01*
X24507386Y-6020972D01*
X24539511Y-6076613D01*
X24623387Y-6160489D01*
X24726114Y-6219799D01*
X24840691Y-6250500D01*
X24840694Y-6250500D01*
X24959306Y-6250500D01*
X24959309Y-6250500D01*
X25073886Y-6219799D01*
X25176613Y-6160489D01*
X25260489Y-6076613D01*
X25292613Y-6020972D01*
X25343180Y-5972757D01*
X25411787Y-5959535D01*
X25476652Y-5985503D01*
X25507386Y-6020972D01*
X25539511Y-6076613D01*
X25623387Y-6160489D01*
X25726114Y-6219799D01*
X25840691Y-6250500D01*
X25840694Y-6250500D01*
X25959306Y-6250500D01*
X25959309Y-6250500D01*
X26073886Y-6219799D01*
X26176613Y-6160489D01*
X26260489Y-6076613D01*
X26260491Y-6076608D01*
X26261345Y-6075755D01*
X26322668Y-6042270D01*
X26392360Y-6047254D01*
X26448294Y-6089125D01*
X26468801Y-6131341D01*
X26480201Y-6173886D01*
X26539511Y-6276613D01*
X26623387Y-6360489D01*
X26726114Y-6419799D01*
X26840691Y-6450500D01*
X26840694Y-6450500D01*
X26959306Y-6450500D01*
X26959309Y-6450500D01*
X27073886Y-6419799D01*
X27176613Y-6360489D01*
X27260489Y-6276613D01*
X27319799Y-6173886D01*
X27350500Y-6059309D01*
X27350500Y-5940691D01*
X30449500Y-5940691D01*
X30449500Y-6059309D01*
X30480201Y-6173886D01*
X30539511Y-6276613D01*
X30623387Y-6360489D01*
X30726114Y-6419799D01*
X30840691Y-6450500D01*
X30840694Y-6450500D01*
X30959306Y-6450500D01*
X30959309Y-6450500D01*
X31073886Y-6419799D01*
X31176613Y-6360489D01*
X31260489Y-6276613D01*
X31319799Y-6173886D01*
X31350500Y-6059309D01*
X31350500Y-5940691D01*
X31319799Y-5826114D01*
X31260489Y-5723387D01*
X31176613Y-5639511D01*
X31073886Y-5580201D01*
X30959309Y-5549500D01*
X30840691Y-5549500D01*
X30726114Y-5580201D01*
X30726112Y-5580201D01*
X30726112Y-5580202D01*
X30623387Y-5639511D01*
X30623384Y-5639513D01*
X30539513Y-5723384D01*
X30539511Y-5723387D01*
X30480201Y-5826114D01*
X30449500Y-5940691D01*
X27350500Y-5940691D01*
X27319799Y-5826114D01*
X27260489Y-5723387D01*
X27176613Y-5639511D01*
X27073886Y-5580201D01*
X26959309Y-5549500D01*
X26840691Y-5549500D01*
X26726114Y-5580201D01*
X26726112Y-5580201D01*
X26726112Y-5580202D01*
X26623387Y-5639510D01*
X26538653Y-5724245D01*
X26477329Y-5757729D01*
X26407638Y-5752745D01*
X26351704Y-5710873D01*
X26331198Y-5668659D01*
X26319799Y-5626114D01*
X26260489Y-5523387D01*
X26176613Y-5439511D01*
X26073886Y-5380201D01*
X25959309Y-5349500D01*
X25840691Y-5349500D01*
X25726114Y-5380201D01*
X25726112Y-5380201D01*
X25726112Y-5380202D01*
X25623387Y-5439511D01*
X25623384Y-5439513D01*
X25539513Y-5523384D01*
X25539511Y-5523387D01*
X25507387Y-5579027D01*
X25456819Y-5627242D01*
X25388212Y-5640464D01*
X25323347Y-5614496D01*
X25292613Y-5579027D01*
X25275738Y-5549799D01*
X25260489Y-5523387D01*
X25176613Y-5439511D01*
X25073886Y-5380201D01*
X24959309Y-5349500D01*
X24840691Y-5349500D01*
X24726114Y-5380201D01*
X24726112Y-5380201D01*
X24726112Y-5380202D01*
X24623387Y-5439511D01*
X24623384Y-5439513D01*
X24539513Y-5523384D01*
X24539511Y-5523387D01*
X24507387Y-5579027D01*
X24456819Y-5627242D01*
X24388212Y-5640464D01*
X24323347Y-5614496D01*
X24292613Y-5579027D01*
X24275738Y-5549799D01*
X24260489Y-5523387D01*
X24176613Y-5439511D01*
X24073886Y-5380201D01*
X23959309Y-5349500D01*
X23840691Y-5349500D01*
X23726114Y-5380201D01*
X23726112Y-5380201D01*
X23726112Y-5380202D01*
X23623387Y-5439511D01*
X23623384Y-5439513D01*
X23539513Y-5523384D01*
X23539508Y-5523390D01*
X23536254Y-5529028D01*
X23485686Y-5577243D01*
X23417078Y-5590464D01*
X23352214Y-5564495D01*
X23321481Y-5529027D01*
X23312915Y-5514191D01*
X23260489Y-5423387D01*
X23176613Y-5339511D01*
X23073886Y-5280201D01*
X22959309Y-5249500D01*
X22840691Y-5249500D01*
X22726114Y-5280201D01*
X22726112Y-5280201D01*
X22726112Y-5280202D01*
X22623387Y-5339511D01*
X22623384Y-5339513D01*
X22539513Y-5423384D01*
X22539511Y-5423387D01*
X22480200Y-5526114D01*
X22464150Y-5586014D01*
X22427785Y-5645674D01*
X22364938Y-5676202D01*
X22312284Y-5673694D01*
X22259310Y-5659500D01*
X22259309Y-5659500D01*
X22140691Y-5659500D01*
X22026114Y-5690201D01*
X22026112Y-5690201D01*
X22026112Y-5690202D01*
X21923387Y-5749511D01*
X21923384Y-5749513D01*
X21839513Y-5833384D01*
X21839511Y-5833387D01*
X21780201Y-5936114D01*
X21749500Y-6050691D01*
X-299500Y-6050691D01*
X-299500Y-5070691D01*
X2049500Y-5070691D01*
X2049500Y-5189309D01*
X2080201Y-5303886D01*
X2139511Y-5406613D01*
X2223387Y-5490489D01*
X2326114Y-5549799D01*
X2440691Y-5580500D01*
X2440694Y-5580500D01*
X2559306Y-5580500D01*
X2559309Y-5580500D01*
X2673886Y-5549799D01*
X2776613Y-5490489D01*
X2860489Y-5406613D01*
X2919799Y-5303886D01*
X2950500Y-5189309D01*
X2950500Y-5140691D01*
X6949500Y-5140691D01*
X6949500Y-5259309D01*
X6980201Y-5373886D01*
X7039511Y-5476613D01*
X7123387Y-5560489D01*
X7226114Y-5619799D01*
X7340691Y-5650500D01*
X7340694Y-5650500D01*
X7459306Y-5650500D01*
X7459309Y-5650500D01*
X7573886Y-5619799D01*
X7676613Y-5560489D01*
X7760489Y-5476613D01*
X7819799Y-5373886D01*
X7850500Y-5259309D01*
X7850500Y-5240691D01*
X9149500Y-5240691D01*
X9149500Y-5359309D01*
X9180201Y-5473886D01*
X9239511Y-5576613D01*
X9323387Y-5660489D01*
X9426114Y-5719799D01*
X9540691Y-5750500D01*
X9540694Y-5750500D01*
X9659306Y-5750500D01*
X9659309Y-5750500D01*
X9773886Y-5719799D01*
X9876613Y-5660489D01*
X9960489Y-5576613D01*
X10019799Y-5473886D01*
X10050500Y-5359309D01*
X10050500Y-5240691D01*
X10019799Y-5126114D01*
X9960489Y-5023387D01*
X9876613Y-4939511D01*
X9773886Y-4880201D01*
X9659309Y-4849500D01*
X9540691Y-4849500D01*
X9426114Y-4880201D01*
X9426112Y-4880201D01*
X9426112Y-4880202D01*
X9323387Y-4939511D01*
X9323384Y-4939513D01*
X9239513Y-5023384D01*
X9239511Y-5023387D01*
X9180201Y-5126114D01*
X9149500Y-5240691D01*
X7850500Y-5240691D01*
X7850500Y-5140691D01*
X7819799Y-5026114D01*
X7760489Y-4923387D01*
X7676613Y-4839511D01*
X7573886Y-4780201D01*
X7459309Y-4749500D01*
X7340691Y-4749500D01*
X7226114Y-4780201D01*
X7226112Y-4780201D01*
X7226112Y-4780202D01*
X7123387Y-4839511D01*
X7123384Y-4839513D01*
X7039513Y-4923384D01*
X7039511Y-4923387D01*
X6980201Y-5026114D01*
X6949500Y-5140691D01*
X2950500Y-5140691D01*
X2950500Y-5070691D01*
X2919799Y-4956114D01*
X2860489Y-4853387D01*
X2776613Y-4769511D01*
X2673886Y-4710201D01*
X2559309Y-4679500D01*
X2440691Y-4679500D01*
X2326114Y-4710201D01*
X2326112Y-4710201D01*
X2326112Y-4710202D01*
X2223387Y-4769511D01*
X2223384Y-4769513D01*
X2139513Y-4853384D01*
X2139511Y-4853387D01*
X2080201Y-4956114D01*
X2049500Y-5070691D01*
X-299500Y-5070691D01*
X-299500Y-1635266D01*
X-500Y-1635266D01*
X-500Y-1864734D01*
X29452Y-2092238D01*
X81534Y-2286612D01*
X88842Y-2313887D01*
X176650Y-2525876D01*
X176657Y-2525890D01*
X291392Y-2724617D01*
X431081Y-2906661D01*
X431089Y-2906670D01*
X593330Y-3068911D01*
X593338Y-3068918D01*
X775382Y-3208607D01*
X775385Y-3208608D01*
X775388Y-3208611D01*
X974112Y-3323344D01*
X974117Y-3323346D01*
X974123Y-3323349D01*
X1065480Y-3361190D01*
X1186113Y-3411158D01*
X1407762Y-3470548D01*
X1635266Y-3500500D01*
X1635273Y-3500500D01*
X1864727Y-3500500D01*
X1864734Y-3500500D01*
X2092238Y-3470548D01*
X2313887Y-3411158D01*
X2525888Y-3323344D01*
X2724612Y-3208611D01*
X2906661Y-3068919D01*
X2906665Y-3068914D01*
X2906670Y-3068911D01*
X2934890Y-3040691D01*
X7149500Y-3040691D01*
X7149500Y-3159309D01*
X7180201Y-3273886D01*
X7239511Y-3376613D01*
X7323387Y-3460489D01*
X7426114Y-3519799D01*
X7540691Y-3550500D01*
X7540694Y-3550500D01*
X7659306Y-3550500D01*
X7659309Y-3550500D01*
X7773886Y-3519799D01*
X7876613Y-3460489D01*
X7960489Y-3376613D01*
X8019799Y-3273886D01*
X8050500Y-3159309D01*
X8050500Y-3040691D01*
X8047797Y-3030605D01*
X8939414Y-3030605D01*
X8939414Y-3149223D01*
X8970115Y-3263800D01*
X9029425Y-3366527D01*
X9113301Y-3450403D01*
X9216028Y-3509713D01*
X9330605Y-3540414D01*
X9330608Y-3540414D01*
X9449220Y-3540414D01*
X9449223Y-3540414D01*
X9563800Y-3509713D01*
X9666527Y-3450403D01*
X9750403Y-3366527D01*
X9809713Y-3263800D01*
X9837442Y-3160314D01*
X13039500Y-3160314D01*
X13039500Y-3278932D01*
X13070201Y-3393509D01*
X13129511Y-3496236D01*
X13213387Y-3580112D01*
X13316114Y-3639422D01*
X13430691Y-3670123D01*
X13430694Y-3670123D01*
X13549306Y-3670123D01*
X13549309Y-3670123D01*
X13663886Y-3639422D01*
X13766613Y-3580112D01*
X13850489Y-3496236D01*
X13909799Y-3393509D01*
X13940500Y-3278932D01*
X13940500Y-3160314D01*
X13935242Y-3140691D01*
X19449500Y-3140691D01*
X19449500Y-3259309D01*
X19480201Y-3373886D01*
X19539511Y-3476613D01*
X19623387Y-3560489D01*
X19726114Y-3619799D01*
X19840691Y-3650500D01*
X19840694Y-3650500D01*
X19959306Y-3650500D01*
X19959309Y-3650500D01*
X20073886Y-3619799D01*
X20176613Y-3560489D01*
X20260489Y-3476613D01*
X20319799Y-3373886D01*
X20350500Y-3259309D01*
X20350500Y-3140691D01*
X20319799Y-3026114D01*
X20260489Y-2923387D01*
X20176613Y-2839511D01*
X20073886Y-2780201D01*
X19959309Y-2749500D01*
X19840691Y-2749500D01*
X19726114Y-2780201D01*
X19726112Y-2780201D01*
X19726112Y-2780202D01*
X19623387Y-2839511D01*
X19623384Y-2839513D01*
X19539513Y-2923384D01*
X19539511Y-2923387D01*
X19480201Y-3026114D01*
X19449500Y-3140691D01*
X13935242Y-3140691D01*
X13909799Y-3045737D01*
X13850489Y-2943010D01*
X13766613Y-2859134D01*
X13663886Y-2799824D01*
X13549309Y-2769123D01*
X13430691Y-2769123D01*
X13316114Y-2799824D01*
X13316112Y-2799824D01*
X13316112Y-2799825D01*
X13213387Y-2859134D01*
X13213384Y-2859136D01*
X13129513Y-2943007D01*
X13129511Y-2943010D01*
X13078938Y-3030605D01*
X13070201Y-3045737D01*
X13039500Y-3160314D01*
X9837442Y-3160314D01*
X9840414Y-3149223D01*
X9840414Y-3030605D01*
X9809713Y-2916028D01*
X9750403Y-2813301D01*
X9666527Y-2729425D01*
X9563800Y-2670115D01*
X9449223Y-2639414D01*
X9330605Y-2639414D01*
X9216028Y-2670115D01*
X9216026Y-2670115D01*
X9216026Y-2670116D01*
X9113301Y-2729425D01*
X9113298Y-2729427D01*
X9029427Y-2813298D01*
X9029425Y-2813301D01*
X9014293Y-2839511D01*
X8970115Y-2916028D01*
X8939414Y-3030605D01*
X8047797Y-3030605D01*
X8019799Y-2926114D01*
X7960489Y-2823387D01*
X7876613Y-2739511D01*
X7773886Y-2680201D01*
X7659309Y-2649500D01*
X7540691Y-2649500D01*
X7426114Y-2680201D01*
X7426112Y-2680201D01*
X7426112Y-2680202D01*
X7323387Y-2739511D01*
X7323384Y-2739513D01*
X7239513Y-2823384D01*
X7239511Y-2823387D01*
X7180201Y-2926114D01*
X7149500Y-3040691D01*
X2934890Y-3040691D01*
X3068911Y-2906670D01*
X3068914Y-2906665D01*
X3068919Y-2906661D01*
X3208611Y-2724612D01*
X3323344Y-2525888D01*
X3411158Y-2313887D01*
X3415443Y-2297896D01*
X12092546Y-2297896D01*
X12092546Y-2416514D01*
X12123247Y-2531091D01*
X12182557Y-2633818D01*
X12266433Y-2717694D01*
X12369160Y-2777004D01*
X12483737Y-2807705D01*
X12483740Y-2807705D01*
X12602352Y-2807705D01*
X12602355Y-2807705D01*
X12716932Y-2777004D01*
X12819659Y-2717694D01*
X12903535Y-2633818D01*
X12962845Y-2531091D01*
X12993546Y-2416514D01*
X12993546Y-2297896D01*
X12962845Y-2183319D01*
X12903535Y-2080592D01*
X12819659Y-1996716D01*
X12739942Y-1950691D01*
X14249500Y-1950691D01*
X14249500Y-2069309D01*
X14280201Y-2183886D01*
X14339511Y-2286613D01*
X14423387Y-2370489D01*
X14526114Y-2429799D01*
X14640691Y-2460500D01*
X14640694Y-2460500D01*
X14759306Y-2460500D01*
X14759309Y-2460500D01*
X14873886Y-2429799D01*
X14976613Y-2370489D01*
X15060489Y-2286613D01*
X15119799Y-2183886D01*
X15150500Y-2069309D01*
X15150500Y-1950691D01*
X15119799Y-1836114D01*
X15060489Y-1733387D01*
X14976613Y-1649511D01*
X14951926Y-1635258D01*
X30499500Y-1635258D01*
X30499500Y-1864741D01*
X30516876Y-1996716D01*
X30529452Y-2092238D01*
X30581534Y-2286612D01*
X30588842Y-2313887D01*
X30676650Y-2525876D01*
X30676657Y-2525890D01*
X30791392Y-2724617D01*
X30931081Y-2906661D01*
X30931089Y-2906670D01*
X31093330Y-3068911D01*
X31093338Y-3068918D01*
X31275382Y-3208607D01*
X31275385Y-3208608D01*
X31275388Y-3208611D01*
X31474112Y-3323344D01*
X31474117Y-3323346D01*
X31474123Y-3323349D01*
X31565480Y-3361190D01*
X31686113Y-3411158D01*
X31907762Y-3470548D01*
X32135266Y-3500500D01*
X32135273Y-3500500D01*
X32364727Y-3500500D01*
X32364734Y-3500500D01*
X32592238Y-3470548D01*
X32813887Y-3411158D01*
X33025888Y-3323344D01*
X33224612Y-3208611D01*
X33406661Y-3068919D01*
X33406665Y-3068914D01*
X33406670Y-3068911D01*
X33568911Y-2906670D01*
X33568914Y-2906665D01*
X33568919Y-2906661D01*
X33708611Y-2724612D01*
X33823344Y-2525888D01*
X33911158Y-2313887D01*
X33970548Y-2092238D01*
X34000500Y-1864734D01*
X34000500Y-1635266D01*
X33970548Y-1407762D01*
X33911158Y-1186113D01*
X33823344Y-974112D01*
X33708611Y-775388D01*
X33708608Y-775385D01*
X33708607Y-775382D01*
X33574222Y-600250D01*
X33568919Y-593339D01*
X33568918Y-593338D01*
X33568911Y-593330D01*
X33406670Y-431089D01*
X33406661Y-431081D01*
X33224617Y-291392D01*
X33025890Y-176657D01*
X33025876Y-176650D01*
X32813887Y-88842D01*
X32752378Y-72361D01*
X32592238Y-29452D01*
X32364734Y500D01*
X32135266Y500D01*
X31907762Y-29452D01*
X31814076Y-54554D01*
X31686112Y-88842D01*
X31474123Y-176650D01*
X31474109Y-176657D01*
X31275382Y-291392D01*
X31093338Y-431081D01*
X30931081Y-593338D01*
X30791392Y-775382D01*
X30676657Y-974109D01*
X30676650Y-974123D01*
X30588842Y-1186112D01*
X30568913Y-1260489D01*
X30540403Y-1366894D01*
X30529453Y-1407759D01*
X30529451Y-1407770D01*
X30499500Y-1635258D01*
X14951926Y-1635258D01*
X14873886Y-1590201D01*
X14759309Y-1559500D01*
X14640691Y-1559500D01*
X14526114Y-1590201D01*
X14526112Y-1590201D01*
X14526112Y-1590202D01*
X14423387Y-1649511D01*
X14423384Y-1649513D01*
X14339513Y-1733384D01*
X14339511Y-1733387D01*
X14280201Y-1836114D01*
X14249500Y-1950691D01*
X12739942Y-1950691D01*
X12716932Y-1937406D01*
X12602355Y-1906705D01*
X12483737Y-1906705D01*
X12369160Y-1937406D01*
X12369158Y-1937406D01*
X12369158Y-1937407D01*
X12266433Y-1996716D01*
X12266430Y-1996718D01*
X12182559Y-2080589D01*
X12182557Y-2080592D01*
X12123247Y-2183319D01*
X12092546Y-2297896D01*
X3415443Y-2297896D01*
X3470548Y-2092238D01*
X3500500Y-1864734D01*
X3500500Y-1635266D01*
X3470548Y-1407762D01*
X3411158Y-1186113D01*
X3323344Y-974112D01*
X3246314Y-840691D01*
X8649500Y-840691D01*
X8649500Y-959309D01*
X8680201Y-1073886D01*
X8739511Y-1176613D01*
X8823387Y-1260489D01*
X8926114Y-1319799D01*
X9040691Y-1350500D01*
X9040694Y-1350500D01*
X9159306Y-1350500D01*
X9159309Y-1350500D01*
X9273886Y-1319799D01*
X9376613Y-1260489D01*
X9460489Y-1176613D01*
X9519799Y-1073886D01*
X9550500Y-959309D01*
X9550500Y-840691D01*
X9519799Y-726114D01*
X9460489Y-623387D01*
X9376613Y-539511D01*
X9273886Y-480201D01*
X9159309Y-449500D01*
X9040691Y-449500D01*
X8926114Y-480201D01*
X8926112Y-480201D01*
X8926112Y-480202D01*
X8823387Y-539511D01*
X8823384Y-539513D01*
X8739513Y-623384D01*
X8739511Y-623387D01*
X8718091Y-660488D01*
X8680201Y-726114D01*
X8649500Y-840691D01*
X3246314Y-840691D01*
X3208611Y-775388D01*
X3208608Y-775385D01*
X3208607Y-775382D01*
X3074222Y-600250D01*
X3068919Y-593339D01*
X3068918Y-593338D01*
X3068911Y-593330D01*
X2906670Y-431089D01*
X2906661Y-431081D01*
X2724617Y-291392D01*
X2525890Y-176657D01*
X2525876Y-176650D01*
X2313887Y-88842D01*
X2252378Y-72361D01*
X2092238Y-29452D01*
X1864734Y500D01*
X1635266Y500D01*
X1407762Y-29452D01*
X1314076Y-54554D01*
X1186112Y-88842D01*
X974123Y-176650D01*
X974109Y-176657D01*
X775382Y-291392D01*
X593338Y-431081D01*
X431081Y-593338D01*
X291392Y-775382D01*
X176657Y-974109D01*
X176650Y-974123D01*
X88842Y-1186112D01*
X68913Y-1260489D01*
X29452Y-1407762D01*
X-500Y-1635266D01*
X-299500Y-1635266D01*
X-299500Y-1504066D01*
X-299235Y-1495956D01*
X-284636Y-1273221D01*
X-282518Y-1257140D01*
X-239769Y-1042228D01*
X-235571Y-1026561D01*
X-165133Y-819057D01*
X-158926Y-804072D01*
X-62008Y-607540D01*
X-62007Y-607539D01*
X-53898Y-593493D01*
X26020Y-473887D01*
X67847Y-411287D01*
X77709Y-398433D01*
X222207Y-233665D01*
X233665Y-222207D01*
X398433Y-77709D01*
X411291Y-67845D01*
X593493Y53898D01*
X607540Y62008D01*
X804072Y158926D01*
X819057Y165133D01*
X1026561Y235571D01*
X1042228Y239769D01*
X1257140Y282518D01*
X1273221Y284636D01*
X1495957Y299235D01*
X1504067Y299500D01*
X1539882Y299500D01*
X14874592Y299500D01*
X14941631Y279815D01*
G37*
%TD.AperFunction*%
%TD*%
M02*
