%TF.GenerationSoftware,KiCad,Pcbnew,9.0.7-9.0.7~ubuntu24.04.1*%
%TF.CreationDate,2026-02-28T20:49:21+01:00*%
%TF.ProjectId,fcg4,66636734-2e6b-4696-9361-645f70636258,rev?*%
%TF.SameCoordinates,Original*%
%TF.FileFunction,Copper,L2,Inr*%
%TF.FilePolarity,Positive*%
%FSLAX46Y46*%
G04 Gerber Fmt 4.6, Leading zero omitted, Abs format (unit mm)*
G04 Created by KiCad (PCBNEW 9.0.7-9.0.7~ubuntu24.04.1) date 2026-02-28 20:49:21*
%MOMM*%
%LPD*%
G01*
G04 APERTURE LIST*
%TA.AperFunction,WasherPad*%
%ADD10C,3.300000*%
%TD*%
%TA.AperFunction,ComponentPad*%
%ADD11O,2.100000X1.000000*%
%TD*%
%TA.AperFunction,ComponentPad*%
%ADD12O,1.800000X1.000000*%
%TD*%
%TA.AperFunction,ViaPad*%
%ADD13C,0.500000*%
%TD*%
G04 APERTURE END LIST*
D10*
%TO.N,*%
%TO.C,H1*%
X1750000Y-32250000D03*
X32250000Y-32250000D03*
X1750000Y-1750000D03*
X32250000Y-1750000D03*
%TD*%
D11*
%TO.N,GND*%
%TO.C,J1*%
X27520000Y-25900000D03*
%TO.N,N/C*%
X27520000Y-17260000D03*
D12*
X31700000Y-25900000D03*
X31700000Y-17260000D03*
%TD*%
D13*
%TO.N,VDD_MCU*%
X6100000Y-15800000D03*
X3800000Y-7900000D03*
X3800000Y-13000000D03*
X15400000Y-16100000D03*
X25510000Y-19701490D03*
X27300000Y-30800000D03*
X32800000Y-5800000D03*
X21839914Y-26539914D03*
%TO.N,GND*%
X6800000Y-16700000D03*
X12800000Y-25900000D03*
X8700000Y-9700000D03*
X900000Y-27800000D03*
X28400000Y-4900000D03*
X21689914Y-27389914D03*
X9100000Y-900000D03*
X19900000Y-3200000D03*
X17700000Y-33100000D03*
X20400000Y-21600000D03*
X8824730Y-24925269D03*
X18800000Y-20150000D03*
X18800000Y-21600000D03*
X17300000Y-18300000D03*
X22300000Y-11800000D03*
X4300000Y-16600000D03*
X22500000Y-23700000D03*
X3500000Y-5000000D03*
X11900000Y-11400000D03*
X900000Y-12500000D03*
X18800000Y-18300000D03*
X12200000Y-4100000D03*
X26800000Y-14800000D03*
X20400000Y-20100000D03*
X24000000Y-29600000D03*
X14356864Y-14617211D03*
X16700000Y-25900000D03*
X21989914Y-7989914D03*
X13110000Y-21100000D03*
X25510000Y-19100000D03*
X17300000Y-20100000D03*
X29600000Y-12900000D03*
X4400000Y-21600000D03*
X18200000Y-13400000D03*
X20400000Y-18300000D03*
X17300000Y-21600000D03*
X17700000Y-29900000D03*
X33200000Y-16800000D03*
X10625180Y-15878377D03*
X32800000Y-8700000D03*
X7600000Y-21920000D03*
X16200000Y-2009000D03*
X8900000Y-33100000D03*
X14500000Y-16900003D03*
%TO.N,/Power/FB_5V5*%
X19000000Y-15600000D03*
X11500000Y-15800000D03*
%TO.N,MOTOR2*%
X18507376Y-24290795D03*
X25000003Y-8800000D03*
%TO.N,MOTOR1*%
X25800000Y-8800000D03*
X17277466Y-15500185D03*
X30900000Y-6000000D03*
%TO.N,RX2*%
X14525440Y-21837402D03*
X22200000Y-6110000D03*
%TO.N,CURRENT_SENSOR*%
X22900000Y-5700000D03*
X14414056Y-20835405D03*
%TO.N,MOTOR3*%
X18391328Y-15936067D03*
X24400000Y-8800000D03*
%TO.N,MOTOR4*%
X23700000Y-8800000D03*
X18540849Y-11523751D03*
%TO.N,TX3*%
X14700000Y-2010000D03*
X20100000Y-24395040D03*
%TO.N,/MCU/NRST*%
X11700000Y-18340000D03*
X6000000Y-20500000D03*
%TO.N,TX1*%
X23329232Y-20378025D03*
X6700000Y-29900000D03*
%TO.N,/MCU/OSC_OUT*%
X14496277Y-20001000D03*
X12800000Y-18100000D03*
%TO.N,SWDIO-JTMS*%
X23200000Y-16400000D03*
X24800000Y-23300000D03*
%TO.N,RX3*%
X16600000Y-25100000D03*
X21840000Y-24300000D03*
X12543046Y-2357205D03*
X6700000Y-33100000D03*
%TO.N,TX4*%
X23570711Y-25070711D03*
X20668758Y-15968758D03*
X13300000Y-33100000D03*
%TO.N,SPI1_SDI*%
X13300000Y-22900000D03*
X15500000Y-24298383D03*
%TO.N,SWCLK-JTCK*%
X22700000Y-15900000D03*
X25100000Y-22700000D03*
%TO.N,RX1*%
X23329232Y-19778022D03*
X8900000Y-29900000D03*
%TO.N,/MCU/OSC_IN*%
X14582980Y-19271421D03*
X14500000Y-16300000D03*
%TO.N,BZ*%
X23024998Y-20895173D03*
X10600000Y-22600000D03*
X900000Y-23800000D03*
%TO.N,GYRO_1_EXTI*%
X11300000Y-22100000D03*
X14497685Y-18677514D03*
%TO.N,SPI1_SD0*%
X16685945Y-24385945D03*
X13600000Y-23555001D03*
%TO.N,GYRO_1_CS*%
X13700000Y-24500000D03*
X13490000Y-18189000D03*
%TO.N,I2C1_SDA*%
X17851988Y-15673172D03*
X9222856Y-18477145D03*
X13300000Y-29900000D03*
%TO.N,I2C1_SCL*%
X15456124Y-29856124D03*
X8404559Y-18426145D03*
X21472090Y-15890000D03*
%TO.N,RX4*%
X20050000Y-16000000D03*
X23409878Y-25740662D03*
X11100000Y-33100000D03*
%TO.N,VOLTAGE_SENSOR*%
X9900000Y-10900000D03*
X9500000Y-16900000D03*
%TO.N,9V_BEC*%
X29100000Y-17600000D03*
X30700000Y-8300000D03*
X15539914Y-33139914D03*
%TO.N,/Connectors/MOTOR_2*%
X7300000Y-5300000D03*
X25900000Y-5800000D03*
%TO.N,/Connectors/MOTOR_1*%
X26900000Y-6000000D03*
X7600000Y-3100000D03*
%TO.N,/Connectors/MOTOR_3*%
X9389914Y-3089914D03*
X24900000Y-5800000D03*
%TO.N,/Connectors/MOTOR_4*%
X9600000Y-5300000D03*
X23900000Y-5800000D03*
%TD*%
%TA.AperFunction,Conductor*%
%TO.N,GND*%
G36*
X32503234Y299288D02*
G01*
X32728405Y284529D01*
X32741244Y282839D01*
X32959382Y239449D01*
X32971891Y236097D01*
X33182500Y164604D01*
X33194462Y159649D01*
X33393937Y61279D01*
X33405142Y54810D01*
X33590072Y-68757D01*
X33600345Y-76640D01*
X33767560Y-223282D01*
X33776717Y-232439D01*
X33923359Y-399654D01*
X33931242Y-409927D01*
X34054809Y-594857D01*
X34061284Y-606073D01*
X34159648Y-805536D01*
X34164604Y-817499D01*
X34236097Y-1028108D01*
X34239449Y-1040617D01*
X34282839Y-1258755D01*
X34284529Y-1271594D01*
X34299288Y-1496765D01*
X34299500Y-1503240D01*
X34299500Y-32496759D01*
X34299288Y-32503234D01*
X34284529Y-32728405D01*
X34282839Y-32741244D01*
X34239449Y-32959382D01*
X34236097Y-32971891D01*
X34164604Y-33182500D01*
X34159648Y-33194463D01*
X34061284Y-33393926D01*
X34054809Y-33405142D01*
X33931242Y-33590072D01*
X33923359Y-33600345D01*
X33776717Y-33767560D01*
X33767560Y-33776717D01*
X33600345Y-33923359D01*
X33590072Y-33931242D01*
X33405142Y-34054809D01*
X33393926Y-34061284D01*
X33194463Y-34159648D01*
X33182500Y-34164604D01*
X32971891Y-34236097D01*
X32959382Y-34239449D01*
X32741244Y-34282839D01*
X32728405Y-34284529D01*
X32503234Y-34299288D01*
X32496759Y-34299500D01*
X1503241Y-34299500D01*
X1496766Y-34299288D01*
X1271594Y-34284529D01*
X1258755Y-34282839D01*
X1040617Y-34239449D01*
X1028108Y-34236097D01*
X817499Y-34164604D01*
X805536Y-34159648D01*
X606073Y-34061284D01*
X594857Y-34054809D01*
X409927Y-33931242D01*
X399654Y-33923359D01*
X232439Y-33776717D01*
X223282Y-33767560D01*
X76640Y-33600345D01*
X68757Y-33590072D01*
X-54810Y-33405142D01*
X-61279Y-33393937D01*
X-159649Y-33194462D01*
X-164604Y-33182500D01*
X-236097Y-32971891D01*
X-239449Y-32959382D01*
X-282839Y-32741244D01*
X-284529Y-32728405D01*
X-299288Y-32503234D01*
X-299500Y-32496759D01*
X-299500Y-32128712D01*
X-100500Y-32128712D01*
X-100500Y-32371288D01*
X-68838Y-32611789D01*
X-6054Y-32846100D01*
X43620Y-32966023D01*
X86772Y-33070204D01*
X86774Y-33070207D01*
X86776Y-33070212D01*
X204370Y-33273890D01*
X208066Y-33280292D01*
X355729Y-33472731D01*
X355731Y-33472733D01*
X355735Y-33472738D01*
X527262Y-33644265D01*
X527266Y-33644268D01*
X527268Y-33644270D01*
X694302Y-33772439D01*
X719711Y-33791936D01*
X929788Y-33913224D01*
X1153900Y-34006054D01*
X1388211Y-34068838D01*
X1628712Y-34100500D01*
X1628713Y-34100500D01*
X1871287Y-34100500D01*
X1871288Y-34100500D01*
X2111789Y-34068838D01*
X2346100Y-34006054D01*
X2570212Y-33913224D01*
X2780289Y-33791936D01*
X2972738Y-33644265D01*
X3144265Y-33472738D01*
X3291936Y-33280289D01*
X3413224Y-33070212D01*
X3425452Y-33040691D01*
X6249500Y-33040691D01*
X6249500Y-33159309D01*
X6260195Y-33199223D01*
X6280202Y-33273890D01*
X6339507Y-33376608D01*
X6339509Y-33376610D01*
X6339511Y-33376613D01*
X6423387Y-33460489D01*
X6423389Y-33460490D01*
X6423391Y-33460492D01*
X6526110Y-33519797D01*
X6526111Y-33519797D01*
X6526114Y-33519799D01*
X6640691Y-33550500D01*
X6640693Y-33550500D01*
X6759307Y-33550500D01*
X6759309Y-33550500D01*
X6873886Y-33519799D01*
X6873888Y-33519797D01*
X6873890Y-33519797D01*
X6976608Y-33460492D01*
X6976608Y-33460491D01*
X6976613Y-33460489D01*
X7060489Y-33376613D01*
X7096752Y-33313804D01*
X7119797Y-33273890D01*
X7119797Y-33273888D01*
X7119799Y-33273886D01*
X7150500Y-33159309D01*
X7150500Y-33040691D01*
X10649500Y-33040691D01*
X10649500Y-33159309D01*
X10660195Y-33199223D01*
X10680202Y-33273890D01*
X10739507Y-33376608D01*
X10739509Y-33376610D01*
X10739511Y-33376613D01*
X10823387Y-33460489D01*
X10823389Y-33460490D01*
X10823391Y-33460492D01*
X10926110Y-33519797D01*
X10926111Y-33519797D01*
X10926114Y-33519799D01*
X11040691Y-33550500D01*
X11040693Y-33550500D01*
X11159307Y-33550500D01*
X11159309Y-33550500D01*
X11273886Y-33519799D01*
X11273888Y-33519797D01*
X11273890Y-33519797D01*
X11376608Y-33460492D01*
X11376608Y-33460491D01*
X11376613Y-33460489D01*
X11460489Y-33376613D01*
X11496752Y-33313804D01*
X11519797Y-33273890D01*
X11519797Y-33273888D01*
X11519799Y-33273886D01*
X11550500Y-33159309D01*
X11550500Y-33040691D01*
X12849500Y-33040691D01*
X12849500Y-33159309D01*
X12860195Y-33199223D01*
X12880202Y-33273890D01*
X12939507Y-33376608D01*
X12939509Y-33376610D01*
X12939511Y-33376613D01*
X13023387Y-33460489D01*
X13023389Y-33460490D01*
X13023391Y-33460492D01*
X13126110Y-33519797D01*
X13126111Y-33519797D01*
X13126114Y-33519799D01*
X13240691Y-33550500D01*
X13240693Y-33550500D01*
X13359307Y-33550500D01*
X13359309Y-33550500D01*
X13473886Y-33519799D01*
X13473888Y-33519797D01*
X13473890Y-33519797D01*
X13576608Y-33460492D01*
X13576608Y-33460491D01*
X13576613Y-33460489D01*
X13660489Y-33376613D01*
X13696752Y-33313804D01*
X13719797Y-33273890D01*
X13719797Y-33273888D01*
X13719799Y-33273886D01*
X13750500Y-33159309D01*
X13750500Y-33080605D01*
X15089414Y-33080605D01*
X15089414Y-33199223D01*
X15109420Y-33273886D01*
X15120116Y-33313804D01*
X15179421Y-33416522D01*
X15179423Y-33416524D01*
X15179425Y-33416527D01*
X15263301Y-33500403D01*
X15263303Y-33500404D01*
X15263305Y-33500406D01*
X15366024Y-33559711D01*
X15366025Y-33559711D01*
X15366028Y-33559713D01*
X15480605Y-33590414D01*
X15480607Y-33590414D01*
X15599221Y-33590414D01*
X15599223Y-33590414D01*
X15713800Y-33559713D01*
X15713802Y-33559711D01*
X15713804Y-33559711D01*
X15816522Y-33500406D01*
X15816522Y-33500405D01*
X15816527Y-33500403D01*
X15900403Y-33416527D01*
X15906976Y-33405142D01*
X15959711Y-33313804D01*
X15959711Y-33313802D01*
X15959713Y-33313800D01*
X15990414Y-33199223D01*
X15990414Y-33080605D01*
X15959713Y-32966028D01*
X15959711Y-32966025D01*
X15959711Y-32966023D01*
X15900406Y-32863305D01*
X15900404Y-32863303D01*
X15900403Y-32863301D01*
X15816527Y-32779425D01*
X15816524Y-32779423D01*
X15816522Y-32779421D01*
X15713803Y-32720116D01*
X15713804Y-32720116D01*
X15700265Y-32716488D01*
X15599223Y-32689414D01*
X15480605Y-32689414D01*
X15410481Y-32708203D01*
X15366023Y-32720116D01*
X15263305Y-32779421D01*
X15179421Y-32863305D01*
X15120116Y-32966023D01*
X15111999Y-32996316D01*
X15089414Y-33080605D01*
X13750500Y-33080605D01*
X13750500Y-33040691D01*
X13719799Y-32926114D01*
X13719797Y-32926111D01*
X13719797Y-32926109D01*
X13660492Y-32823391D01*
X13660490Y-32823389D01*
X13660489Y-32823387D01*
X13576613Y-32739511D01*
X13576610Y-32739509D01*
X13576608Y-32739507D01*
X13473889Y-32680202D01*
X13473890Y-32680202D01*
X13460351Y-32676574D01*
X13359309Y-32649500D01*
X13240691Y-32649500D01*
X13170567Y-32668289D01*
X13126109Y-32680202D01*
X13023391Y-32739507D01*
X12939507Y-32823391D01*
X12880202Y-32926109D01*
X12880201Y-32926114D01*
X12849500Y-33040691D01*
X11550500Y-33040691D01*
X11519799Y-32926114D01*
X11519797Y-32926111D01*
X11519797Y-32926109D01*
X11460492Y-32823391D01*
X11460490Y-32823389D01*
X11460489Y-32823387D01*
X11376613Y-32739511D01*
X11376610Y-32739509D01*
X11376608Y-32739507D01*
X11273889Y-32680202D01*
X11273890Y-32680202D01*
X11260351Y-32676574D01*
X11159309Y-32649500D01*
X11040691Y-32649500D01*
X10970567Y-32668289D01*
X10926109Y-32680202D01*
X10823391Y-32739507D01*
X10739507Y-32823391D01*
X10680202Y-32926109D01*
X10680201Y-32926114D01*
X10649500Y-33040691D01*
X7150500Y-33040691D01*
X7119799Y-32926114D01*
X7119797Y-32926111D01*
X7119797Y-32926109D01*
X7060492Y-32823391D01*
X7060490Y-32823389D01*
X7060489Y-32823387D01*
X6976613Y-32739511D01*
X6976610Y-32739509D01*
X6976608Y-32739507D01*
X6873889Y-32680202D01*
X6873890Y-32680202D01*
X6860351Y-32676574D01*
X6759309Y-32649500D01*
X6640691Y-32649500D01*
X6570567Y-32668289D01*
X6526109Y-32680202D01*
X6423391Y-32739507D01*
X6339507Y-32823391D01*
X6280202Y-32926109D01*
X6280201Y-32926114D01*
X6249500Y-33040691D01*
X3425452Y-33040691D01*
X3506054Y-32846100D01*
X3568838Y-32611789D01*
X3600500Y-32371288D01*
X3600500Y-32128712D01*
X3600500Y-32128710D01*
X30399500Y-32128710D01*
X30399500Y-32371289D01*
X30431161Y-32611781D01*
X30431161Y-32611786D01*
X30493944Y-32846092D01*
X30493948Y-32846105D01*
X30586772Y-33070204D01*
X30586774Y-33070207D01*
X30586776Y-33070212D01*
X30704370Y-33273890D01*
X30708066Y-33280292D01*
X30855729Y-33472731D01*
X30855731Y-33472733D01*
X30855735Y-33472738D01*
X31027262Y-33644265D01*
X31027266Y-33644268D01*
X31027268Y-33644270D01*
X31194302Y-33772439D01*
X31219711Y-33791936D01*
X31429788Y-33913224D01*
X31653900Y-34006054D01*
X31888211Y-34068838D01*
X32128712Y-34100500D01*
X32128713Y-34100500D01*
X32371287Y-34100500D01*
X32371288Y-34100500D01*
X32611789Y-34068838D01*
X32846100Y-34006054D01*
X33070212Y-33913224D01*
X33280289Y-33791936D01*
X33472738Y-33644265D01*
X33644265Y-33472738D01*
X33791936Y-33280289D01*
X33913224Y-33070212D01*
X34006054Y-32846100D01*
X34068838Y-32611789D01*
X34100500Y-32371288D01*
X34100500Y-32128712D01*
X34068838Y-31888211D01*
X34006054Y-31653900D01*
X33913224Y-31429788D01*
X33791936Y-31219711D01*
X33746496Y-31160492D01*
X33644270Y-31027268D01*
X33644268Y-31027266D01*
X33644265Y-31027262D01*
X33472738Y-30855735D01*
X33472733Y-30855731D01*
X33472731Y-30855729D01*
X33280292Y-30708066D01*
X33138347Y-30626114D01*
X33070212Y-30586776D01*
X33070208Y-30586774D01*
X33070204Y-30586772D01*
X32846105Y-30493948D01*
X32846104Y-30493947D01*
X32846100Y-30493946D01*
X32611789Y-30431162D01*
X32611786Y-30431161D01*
X32611784Y-30431161D01*
X32371289Y-30399500D01*
X32371288Y-30399500D01*
X32128712Y-30399500D01*
X32128710Y-30399500D01*
X31888218Y-30431161D01*
X31888213Y-30431161D01*
X31653907Y-30493944D01*
X31653894Y-30493948D01*
X31429795Y-30586772D01*
X31219707Y-30708066D01*
X31027268Y-30855729D01*
X30855729Y-31027268D01*
X30708066Y-31219707D01*
X30586772Y-31429795D01*
X30493948Y-31653894D01*
X30493944Y-31653907D01*
X30431161Y-31888213D01*
X30431161Y-31888218D01*
X30399500Y-32128710D01*
X3600500Y-32128710D01*
X3568838Y-31888211D01*
X3506054Y-31653900D01*
X3413224Y-31429788D01*
X3291936Y-31219711D01*
X3246496Y-31160492D01*
X3144270Y-31027268D01*
X3144268Y-31027266D01*
X3144265Y-31027262D01*
X2972738Y-30855735D01*
X2916711Y-30812744D01*
X2916709Y-30812742D01*
X2822810Y-30740691D01*
X26849500Y-30740691D01*
X26849500Y-30859309D01*
X26876574Y-30960351D01*
X26880202Y-30973890D01*
X26939507Y-31076608D01*
X26939509Y-31076610D01*
X26939511Y-31076613D01*
X27023387Y-31160489D01*
X27023389Y-31160490D01*
X27023391Y-31160492D01*
X27126110Y-31219797D01*
X27126111Y-31219797D01*
X27126114Y-31219799D01*
X27240691Y-31250500D01*
X27240693Y-31250500D01*
X27359307Y-31250500D01*
X27359309Y-31250500D01*
X27473886Y-31219799D01*
X27473888Y-31219797D01*
X27473890Y-31219797D01*
X27576608Y-31160492D01*
X27576608Y-31160491D01*
X27576613Y-31160489D01*
X27660489Y-31076613D01*
X27719799Y-30973886D01*
X27750500Y-30859309D01*
X27750500Y-30740691D01*
X27719799Y-30626114D01*
X27719797Y-30626111D01*
X27719797Y-30626109D01*
X27660492Y-30523391D01*
X27660490Y-30523389D01*
X27660489Y-30523387D01*
X27576613Y-30439511D01*
X27576610Y-30439509D01*
X27576608Y-30439507D01*
X27473889Y-30380202D01*
X27473890Y-30380202D01*
X27460351Y-30376574D01*
X27359309Y-30349500D01*
X27240691Y-30349500D01*
X27170567Y-30368289D01*
X27126109Y-30380202D01*
X27023391Y-30439507D01*
X26939507Y-30523391D01*
X26880202Y-30626109D01*
X26880201Y-30626114D01*
X26849500Y-30740691D01*
X2822810Y-30740691D01*
X2780292Y-30708066D01*
X2638347Y-30626114D01*
X2570212Y-30586776D01*
X2570208Y-30586774D01*
X2570204Y-30586772D01*
X2346105Y-30493948D01*
X2346104Y-30493947D01*
X2346100Y-30493946D01*
X2111789Y-30431162D01*
X2111786Y-30431161D01*
X2111784Y-30431161D01*
X1871289Y-30399500D01*
X1871288Y-30399500D01*
X1628712Y-30399500D01*
X1628710Y-30399500D01*
X1388218Y-30431161D01*
X1388213Y-30431161D01*
X1153907Y-30493944D01*
X1153894Y-30493948D01*
X929795Y-30586772D01*
X719707Y-30708066D01*
X527268Y-30855729D01*
X355729Y-31027268D01*
X208066Y-31219707D01*
X86772Y-31429795D01*
X23528Y-31582480D01*
X-6054Y-31653900D01*
X-68838Y-31888211D01*
X-100500Y-32128712D01*
X-299500Y-32128712D01*
X-299500Y-29840691D01*
X6249500Y-29840691D01*
X6249500Y-29959309D01*
X6276574Y-30060351D01*
X6280202Y-30073890D01*
X6339507Y-30176608D01*
X6339509Y-30176610D01*
X6339511Y-30176613D01*
X6423387Y-30260489D01*
X6423389Y-30260490D01*
X6423391Y-30260492D01*
X6526110Y-30319797D01*
X6526111Y-30319797D01*
X6526114Y-30319799D01*
X6640691Y-30350500D01*
X6640693Y-30350500D01*
X6759307Y-30350500D01*
X6759309Y-30350500D01*
X6873886Y-30319799D01*
X6873888Y-30319797D01*
X6873890Y-30319797D01*
X6976608Y-30260492D01*
X6976608Y-30260491D01*
X6976613Y-30260489D01*
X7060489Y-30176613D01*
X7119799Y-30073886D01*
X7150500Y-29959309D01*
X7150500Y-29840691D01*
X8449500Y-29840691D01*
X8449500Y-29959309D01*
X8476574Y-30060351D01*
X8480202Y-30073890D01*
X8539507Y-30176608D01*
X8539509Y-30176610D01*
X8539511Y-30176613D01*
X8623387Y-30260489D01*
X8623389Y-30260490D01*
X8623391Y-30260492D01*
X8726110Y-30319797D01*
X8726111Y-30319797D01*
X8726114Y-30319799D01*
X8840691Y-30350500D01*
X8840693Y-30350500D01*
X8959307Y-30350500D01*
X8959309Y-30350500D01*
X9073886Y-30319799D01*
X9073888Y-30319797D01*
X9073890Y-30319797D01*
X9176608Y-30260492D01*
X9176608Y-30260491D01*
X9176613Y-30260489D01*
X9260489Y-30176613D01*
X9319799Y-30073886D01*
X9350500Y-29959309D01*
X9350500Y-29840691D01*
X12849500Y-29840691D01*
X12849500Y-29959309D01*
X12876574Y-30060351D01*
X12880202Y-30073890D01*
X12939507Y-30176608D01*
X12939509Y-30176610D01*
X12939511Y-30176613D01*
X13023387Y-30260489D01*
X13023389Y-30260490D01*
X13023391Y-30260492D01*
X13126110Y-30319797D01*
X13126111Y-30319797D01*
X13126114Y-30319799D01*
X13240691Y-30350500D01*
X13240693Y-30350500D01*
X13359307Y-30350500D01*
X13359309Y-30350500D01*
X13473886Y-30319799D01*
X13473888Y-30319797D01*
X13473890Y-30319797D01*
X13576608Y-30260492D01*
X13576608Y-30260491D01*
X13576613Y-30260489D01*
X13660489Y-30176613D01*
X13719799Y-30073886D01*
X13750500Y-29959309D01*
X13750500Y-29840691D01*
X13738743Y-29796815D01*
X15005624Y-29796815D01*
X15005624Y-29915433D01*
X15017380Y-29959307D01*
X15036326Y-30030014D01*
X15095631Y-30132732D01*
X15095633Y-30132734D01*
X15095635Y-30132737D01*
X15179511Y-30216613D01*
X15179513Y-30216614D01*
X15179515Y-30216616D01*
X15282234Y-30275921D01*
X15282235Y-30275921D01*
X15282238Y-30275923D01*
X15396815Y-30306624D01*
X15396817Y-30306624D01*
X15515431Y-30306624D01*
X15515433Y-30306624D01*
X15630010Y-30275923D01*
X15630012Y-30275921D01*
X15630014Y-30275921D01*
X15732732Y-30216616D01*
X15732732Y-30216615D01*
X15732737Y-30216613D01*
X15816613Y-30132737D01*
X15875923Y-30030010D01*
X15906624Y-29915433D01*
X15906624Y-29796815D01*
X15875923Y-29682238D01*
X15875921Y-29682235D01*
X15875921Y-29682233D01*
X15816616Y-29579515D01*
X15816614Y-29579513D01*
X15816613Y-29579511D01*
X15732737Y-29495635D01*
X15732734Y-29495633D01*
X15732732Y-29495631D01*
X15630013Y-29436326D01*
X15630014Y-29436326D01*
X15616475Y-29432698D01*
X15515433Y-29405624D01*
X15396815Y-29405624D01*
X15326691Y-29424413D01*
X15282233Y-29436326D01*
X15179515Y-29495631D01*
X15095631Y-29579515D01*
X15036327Y-29682233D01*
X15036326Y-29682233D01*
X15036325Y-29682238D01*
X15005624Y-29796815D01*
X13738743Y-29796815D01*
X13719799Y-29726114D01*
X13719797Y-29726111D01*
X13719797Y-29726109D01*
X13660492Y-29623391D01*
X13660490Y-29623389D01*
X13660489Y-29623387D01*
X13576613Y-29539511D01*
X13576610Y-29539509D01*
X13576608Y-29539507D01*
X13473889Y-29480202D01*
X13473890Y-29480202D01*
X13460351Y-29476574D01*
X13359309Y-29449500D01*
X13240691Y-29449500D01*
X13170567Y-29468289D01*
X13126109Y-29480202D01*
X13023391Y-29539507D01*
X12939507Y-29623391D01*
X12880202Y-29726109D01*
X12880201Y-29726114D01*
X12849500Y-29840691D01*
X9350500Y-29840691D01*
X9319799Y-29726114D01*
X9319797Y-29726111D01*
X9319797Y-29726109D01*
X9260492Y-29623391D01*
X9260490Y-29623389D01*
X9260489Y-29623387D01*
X9176613Y-29539511D01*
X9176610Y-29539509D01*
X9176608Y-29539507D01*
X9073889Y-29480202D01*
X9073890Y-29480202D01*
X9060351Y-29476574D01*
X8959309Y-29449500D01*
X8840691Y-29449500D01*
X8770567Y-29468289D01*
X8726109Y-29480202D01*
X8623391Y-29539507D01*
X8539507Y-29623391D01*
X8480202Y-29726109D01*
X8480201Y-29726114D01*
X8449500Y-29840691D01*
X7150500Y-29840691D01*
X7119799Y-29726114D01*
X7119797Y-29726111D01*
X7119797Y-29726109D01*
X7060492Y-29623391D01*
X7060490Y-29623389D01*
X7060489Y-29623387D01*
X6976613Y-29539511D01*
X6976610Y-29539509D01*
X6976608Y-29539507D01*
X6873889Y-29480202D01*
X6873890Y-29480202D01*
X6860351Y-29476574D01*
X6759309Y-29449500D01*
X6640691Y-29449500D01*
X6570567Y-29468289D01*
X6526109Y-29480202D01*
X6423391Y-29539507D01*
X6339507Y-29623391D01*
X6280202Y-29726109D01*
X6280201Y-29726114D01*
X6249500Y-29840691D01*
X-299500Y-29840691D01*
X-299500Y-26480605D01*
X21389414Y-26480605D01*
X21389414Y-26599223D01*
X21392020Y-26608947D01*
X21420116Y-26713804D01*
X21479421Y-26816522D01*
X21479423Y-26816524D01*
X21479425Y-26816527D01*
X21563301Y-26900403D01*
X21563303Y-26900404D01*
X21563305Y-26900406D01*
X21666024Y-26959711D01*
X21666025Y-26959711D01*
X21666028Y-26959713D01*
X21780605Y-26990414D01*
X21780607Y-26990414D01*
X21899221Y-26990414D01*
X21899223Y-26990414D01*
X22013800Y-26959713D01*
X22013802Y-26959711D01*
X22013804Y-26959711D01*
X22116522Y-26900406D01*
X22116522Y-26900405D01*
X22116527Y-26900403D01*
X22200403Y-26816527D01*
X22259713Y-26713800D01*
X22290414Y-26599223D01*
X22290414Y-26480605D01*
X22259713Y-26366028D01*
X22259711Y-26366025D01*
X22259711Y-26366023D01*
X22200406Y-26263305D01*
X22200404Y-26263303D01*
X22200403Y-26263301D01*
X22116527Y-26179425D01*
X22116524Y-26179423D01*
X22116522Y-26179421D01*
X22013803Y-26120116D01*
X22013804Y-26120116D01*
X22000265Y-26116488D01*
X21899223Y-26089414D01*
X21780605Y-26089414D01*
X21724946Y-26104328D01*
X21666023Y-26120116D01*
X21563305Y-26179421D01*
X21479421Y-26263305D01*
X21420116Y-26366023D01*
X21420115Y-26366028D01*
X21389414Y-26480605D01*
X-299500Y-26480605D01*
X-299500Y-25681353D01*
X22959378Y-25681353D01*
X22959378Y-25799971D01*
X22975598Y-25860504D01*
X22990080Y-25914552D01*
X23049385Y-26017270D01*
X23049387Y-26017272D01*
X23049389Y-26017275D01*
X23133265Y-26101151D01*
X23133267Y-26101152D01*
X23133269Y-26101154D01*
X23235988Y-26160459D01*
X23235989Y-26160459D01*
X23235992Y-26160461D01*
X23350569Y-26191162D01*
X23350571Y-26191162D01*
X23469185Y-26191162D01*
X23469187Y-26191162D01*
X23583764Y-26160461D01*
X23583766Y-26160459D01*
X23583768Y-26160459D01*
X23686486Y-26101154D01*
X23686486Y-26101153D01*
X23686491Y-26101151D01*
X23770367Y-26017275D01*
X23829677Y-25914548D01*
X23860378Y-25799971D01*
X23860378Y-25681353D01*
X23851977Y-25650000D01*
X26207639Y-25650000D01*
X26803012Y-25650000D01*
X26785795Y-25659940D01*
X26729940Y-25715795D01*
X26690444Y-25784204D01*
X26670000Y-25860504D01*
X26670000Y-25939496D01*
X26690444Y-26015796D01*
X26729940Y-26084205D01*
X26785795Y-26140060D01*
X26803012Y-26150000D01*
X26207639Y-26150000D01*
X26261048Y-26278940D01*
X26261052Y-26278949D01*
X26348599Y-26409969D01*
X26348602Y-26409973D01*
X26460026Y-26521397D01*
X26460030Y-26521400D01*
X26591050Y-26608947D01*
X26591059Y-26608951D01*
X26736650Y-26669257D01*
X26891204Y-26699999D01*
X26891208Y-26700000D01*
X27269999Y-26700000D01*
X27270000Y-26699999D01*
X27270000Y-26200000D01*
X27770000Y-26200000D01*
X27770000Y-26699999D01*
X27770001Y-26700000D01*
X28148792Y-26700000D01*
X28148795Y-26699999D01*
X28303349Y-26669257D01*
X28448940Y-26608951D01*
X28448949Y-26608947D01*
X28579969Y-26521400D01*
X28579973Y-26521397D01*
X28691397Y-26409973D01*
X28691400Y-26409969D01*
X28778947Y-26278949D01*
X28778951Y-26278940D01*
X28832361Y-26150000D01*
X28236988Y-26150000D01*
X28254205Y-26140060D01*
X28310060Y-26084205D01*
X28349556Y-26015796D01*
X28370000Y-25939496D01*
X28370000Y-25860504D01*
X28362096Y-25831004D01*
X30599500Y-25831004D01*
X30599500Y-25831007D01*
X30599500Y-25968993D01*
X30625788Y-26101153D01*
X30626420Y-26104327D01*
X30626420Y-26104329D01*
X30679222Y-26231806D01*
X30679228Y-26231817D01*
X30755885Y-26346541D01*
X30853458Y-26444114D01*
X30968182Y-26520771D01*
X30968193Y-26520777D01*
X31015283Y-26540282D01*
X31095672Y-26573580D01*
X31231007Y-26600500D01*
X31231008Y-26600500D01*
X32168992Y-26600500D01*
X32168993Y-26600500D01*
X32304328Y-26573580D01*
X32431811Y-26520775D01*
X32546542Y-26444114D01*
X32644114Y-26346542D01*
X32720775Y-26231811D01*
X32773580Y-26104328D01*
X32800500Y-25968993D01*
X32800500Y-25831007D01*
X32773580Y-25695672D01*
X32720775Y-25568189D01*
X32720774Y-25568187D01*
X32720771Y-25568182D01*
X32644114Y-25453458D01*
X32546541Y-25355885D01*
X32431817Y-25279228D01*
X32431806Y-25279222D01*
X32304328Y-25226420D01*
X32168995Y-25199500D01*
X32168993Y-25199500D01*
X31231007Y-25199500D01*
X31231004Y-25199500D01*
X31095672Y-25226420D01*
X31095670Y-25226420D01*
X30968193Y-25279222D01*
X30968182Y-25279228D01*
X30853458Y-25355885D01*
X30755885Y-25453458D01*
X30679228Y-25568182D01*
X30679222Y-25568193D01*
X30626420Y-25695670D01*
X30626420Y-25695672D01*
X30599500Y-25831004D01*
X28362096Y-25831004D01*
X28349556Y-25784204D01*
X28310060Y-25715795D01*
X28254205Y-25659940D01*
X28236988Y-25650000D01*
X28832360Y-25650000D01*
X28778951Y-25521059D01*
X28778947Y-25521050D01*
X28691400Y-25390030D01*
X28691397Y-25390026D01*
X28579973Y-25278602D01*
X28579969Y-25278599D01*
X28448949Y-25191052D01*
X28448940Y-25191048D01*
X28303348Y-25130742D01*
X28303343Y-25130741D01*
X28281090Y-25126314D01*
X28227707Y-25096417D01*
X28202092Y-25040851D01*
X28214030Y-24980842D01*
X28250904Y-24943482D01*
X28342665Y-24890505D01*
X28440505Y-24792665D01*
X28509688Y-24672836D01*
X28545500Y-24539183D01*
X28545500Y-24400817D01*
X28509688Y-24267164D01*
X28440505Y-24147335D01*
X28342665Y-24049495D01*
X28222836Y-23980312D01*
X28089183Y-23944500D01*
X27950817Y-23944500D01*
X27817164Y-23980312D01*
X27697335Y-24049495D01*
X27599495Y-24147335D01*
X27530312Y-24267164D01*
X27494500Y-24400817D01*
X27494500Y-24539183D01*
X27530312Y-24672836D01*
X27599495Y-24792665D01*
X27697335Y-24890505D01*
X27764484Y-24929273D01*
X27805424Y-24974742D01*
X27811820Y-25035592D01*
X27784987Y-25085012D01*
X27770000Y-25099999D01*
X27770000Y-25600000D01*
X27270000Y-25600000D01*
X27270000Y-25100001D01*
X27269999Y-25100000D01*
X26891204Y-25100000D01*
X26736650Y-25130742D01*
X26591059Y-25191048D01*
X26591050Y-25191052D01*
X26460030Y-25278599D01*
X26460026Y-25278602D01*
X26348602Y-25390026D01*
X26348599Y-25390030D01*
X26261052Y-25521050D01*
X26261048Y-25521059D01*
X26207639Y-25650000D01*
X23851977Y-25650000D01*
X23829677Y-25566776D01*
X23818711Y-25547784D01*
X23815429Y-25537184D01*
X23815705Y-25517149D01*
X23811539Y-25497550D01*
X23816118Y-25487263D01*
X23816274Y-25476005D01*
X23828273Y-25459959D01*
X23836423Y-25441654D01*
X23842751Y-25435804D01*
X23842735Y-25435788D01*
X23847321Y-25431201D01*
X23847324Y-25431200D01*
X23931200Y-25347324D01*
X23931203Y-25347319D01*
X23990508Y-25244601D01*
X23990508Y-25244599D01*
X23990510Y-25244597D01*
X24021211Y-25130020D01*
X24021211Y-25011402D01*
X23990510Y-24896825D01*
X23990508Y-24896822D01*
X23990508Y-24896820D01*
X23931203Y-24794102D01*
X23931201Y-24794100D01*
X23931200Y-24794098D01*
X23847324Y-24710222D01*
X23847321Y-24710220D01*
X23847319Y-24710218D01*
X23744600Y-24650913D01*
X23744601Y-24650913D01*
X23719708Y-24644243D01*
X23630020Y-24620211D01*
X23511402Y-24620211D01*
X23441278Y-24639000D01*
X23396820Y-24650913D01*
X23294102Y-24710218D01*
X23210218Y-24794102D01*
X23150913Y-24896820D01*
X23144756Y-24919799D01*
X23120211Y-25011402D01*
X23120211Y-25130020D01*
X23150912Y-25244597D01*
X23150913Y-25244599D01*
X23156327Y-25253976D01*
X23169049Y-25313824D01*
X23144163Y-25369720D01*
X23137837Y-25375568D01*
X23137854Y-25375585D01*
X23133267Y-25380171D01*
X23133265Y-25380173D01*
X23082238Y-25431200D01*
X23049386Y-25464052D01*
X23049385Y-25464053D01*
X22990080Y-25566771D01*
X22975699Y-25620444D01*
X22959378Y-25681353D01*
X-299500Y-25681353D01*
X-299500Y-25040691D01*
X16149500Y-25040691D01*
X16149500Y-25159309D01*
X16172353Y-25244597D01*
X16180202Y-25273890D01*
X16239507Y-25376608D01*
X16239509Y-25376610D01*
X16239511Y-25376613D01*
X16323387Y-25460489D01*
X16323389Y-25460490D01*
X16323391Y-25460492D01*
X16426110Y-25519797D01*
X16426111Y-25519797D01*
X16426114Y-25519799D01*
X16540691Y-25550500D01*
X16540693Y-25550500D01*
X16659307Y-25550500D01*
X16659309Y-25550500D01*
X16773886Y-25519799D01*
X16773888Y-25519797D01*
X16773890Y-25519797D01*
X16876608Y-25460492D01*
X16876608Y-25460491D01*
X16876613Y-25460489D01*
X16960489Y-25376613D01*
X16972456Y-25355886D01*
X17019797Y-25273890D01*
X17019797Y-25273888D01*
X17019799Y-25273886D01*
X17050500Y-25159309D01*
X17050500Y-25040691D01*
X17019799Y-24926114D01*
X16971061Y-24841699D01*
X16958340Y-24781853D01*
X16983226Y-24725957D01*
X16986776Y-24722215D01*
X17046434Y-24662558D01*
X17047629Y-24660489D01*
X17105742Y-24559835D01*
X17105742Y-24559833D01*
X17105744Y-24559831D01*
X17136445Y-24445254D01*
X17136445Y-24326636D01*
X17110949Y-24231486D01*
X18056876Y-24231486D01*
X18056876Y-24350104D01*
X18070465Y-24400817D01*
X18087578Y-24464685D01*
X18146883Y-24567403D01*
X18146885Y-24567405D01*
X18146887Y-24567408D01*
X18230763Y-24651284D01*
X18230765Y-24651285D01*
X18230767Y-24651287D01*
X18333486Y-24710592D01*
X18333487Y-24710592D01*
X18333490Y-24710594D01*
X18448067Y-24741295D01*
X18448069Y-24741295D01*
X18566683Y-24741295D01*
X18566685Y-24741295D01*
X18681262Y-24710594D01*
X18681264Y-24710592D01*
X18681266Y-24710592D01*
X18783984Y-24651287D01*
X18783984Y-24651286D01*
X18783989Y-24651284D01*
X18867865Y-24567408D01*
X18872237Y-24559835D01*
X18927173Y-24464685D01*
X18927173Y-24464683D01*
X18927175Y-24464681D01*
X18957876Y-24350104D01*
X18957876Y-24335731D01*
X19649500Y-24335731D01*
X19649500Y-24454349D01*
X19652270Y-24464685D01*
X19680202Y-24568930D01*
X19739507Y-24671648D01*
X19739509Y-24671650D01*
X19739511Y-24671653D01*
X19823387Y-24755529D01*
X19823389Y-24755530D01*
X19823391Y-24755532D01*
X19926110Y-24814837D01*
X19926111Y-24814837D01*
X19926114Y-24814839D01*
X20040691Y-24845540D01*
X20040693Y-24845540D01*
X20159307Y-24845540D01*
X20159309Y-24845540D01*
X20273886Y-24814839D01*
X20273888Y-24814837D01*
X20273890Y-24814837D01*
X20376608Y-24755532D01*
X20376608Y-24755531D01*
X20376613Y-24755529D01*
X20460489Y-24671653D01*
X20466935Y-24660489D01*
X20519797Y-24568930D01*
X20519797Y-24568928D01*
X20519799Y-24568926D01*
X20550500Y-24454349D01*
X20550500Y-24335731D01*
X20525034Y-24240691D01*
X21389500Y-24240691D01*
X21389500Y-24359309D01*
X21412529Y-24445254D01*
X21420202Y-24473890D01*
X21479507Y-24576608D01*
X21479509Y-24576610D01*
X21479511Y-24576613D01*
X21563387Y-24660489D01*
X21563389Y-24660490D01*
X21563391Y-24660492D01*
X21666110Y-24719797D01*
X21666111Y-24719797D01*
X21666114Y-24719799D01*
X21780691Y-24750500D01*
X21780693Y-24750500D01*
X21899307Y-24750500D01*
X21899309Y-24750500D01*
X22013886Y-24719799D01*
X22013888Y-24719797D01*
X22013890Y-24719797D01*
X22116608Y-24660492D01*
X22116608Y-24660491D01*
X22116613Y-24660489D01*
X22200489Y-24576613D01*
X22201423Y-24574996D01*
X22259797Y-24473890D01*
X22259797Y-24473888D01*
X22259799Y-24473886D01*
X22290500Y-24359309D01*
X22290500Y-24240691D01*
X22259799Y-24126114D01*
X22259797Y-24126111D01*
X22259797Y-24126109D01*
X22200492Y-24023391D01*
X22200490Y-24023389D01*
X22200489Y-24023387D01*
X22116613Y-23939511D01*
X22116610Y-23939509D01*
X22116608Y-23939507D01*
X22013889Y-23880202D01*
X22013890Y-23880202D01*
X21979536Y-23870997D01*
X21899309Y-23849500D01*
X21780691Y-23849500D01*
X21744084Y-23859309D01*
X21666109Y-23880202D01*
X21563391Y-23939507D01*
X21479507Y-24023391D01*
X21420202Y-24126109D01*
X21420201Y-24126114D01*
X21389500Y-24240691D01*
X20525034Y-24240691D01*
X20519799Y-24221154D01*
X20514545Y-24212054D01*
X20460492Y-24118431D01*
X20460490Y-24118429D01*
X20460489Y-24118427D01*
X20376613Y-24034551D01*
X20376610Y-24034549D01*
X20376608Y-24034547D01*
X20273889Y-23975242D01*
X20273890Y-23975242D01*
X20239943Y-23966146D01*
X20159309Y-23944540D01*
X20040691Y-23944540D01*
X19970567Y-23963329D01*
X19926109Y-23975242D01*
X19823391Y-24034547D01*
X19739507Y-24118431D01*
X19680202Y-24221149D01*
X19663874Y-24282085D01*
X19649500Y-24335731D01*
X18957876Y-24335731D01*
X18957876Y-24231486D01*
X18927175Y-24116909D01*
X18927173Y-24116906D01*
X18927173Y-24116904D01*
X18867868Y-24014186D01*
X18867866Y-24014184D01*
X18867865Y-24014182D01*
X18783989Y-23930306D01*
X18783986Y-23930304D01*
X18783984Y-23930302D01*
X18681265Y-23870997D01*
X18681266Y-23870997D01*
X18667727Y-23867369D01*
X18566685Y-23840295D01*
X18448067Y-23840295D01*
X18377943Y-23859084D01*
X18333485Y-23870997D01*
X18230767Y-23930302D01*
X18146883Y-24014186D01*
X18087578Y-24116904D01*
X18081521Y-24139509D01*
X18056876Y-24231486D01*
X17110949Y-24231486D01*
X17105744Y-24212059D01*
X17105742Y-24212056D01*
X17105742Y-24212054D01*
X17046437Y-24109336D01*
X17046435Y-24109334D01*
X17046434Y-24109332D01*
X16962558Y-24025456D01*
X16962555Y-24025454D01*
X16962553Y-24025452D01*
X16859834Y-23966147D01*
X16859835Y-23966147D01*
X16846296Y-23962519D01*
X16745254Y-23935445D01*
X16626636Y-23935445D01*
X16556512Y-23954234D01*
X16512054Y-23966147D01*
X16409336Y-24025452D01*
X16325452Y-24109336D01*
X16266147Y-24212054D01*
X16253347Y-24259824D01*
X16235445Y-24326636D01*
X16235445Y-24445254D01*
X16266146Y-24559831D01*
X16266147Y-24559833D01*
X16314882Y-24644243D01*
X16327604Y-24704091D01*
X16302718Y-24759987D01*
X16299150Y-24763747D01*
X16239511Y-24823386D01*
X16239507Y-24823391D01*
X16180202Y-24926109D01*
X16176862Y-24938575D01*
X16149500Y-25040691D01*
X-299500Y-25040691D01*
X-299500Y-23740691D01*
X449500Y-23740691D01*
X449500Y-23859309D01*
X465692Y-23919737D01*
X480202Y-23973890D01*
X539507Y-24076608D01*
X539509Y-24076610D01*
X539511Y-24076613D01*
X623387Y-24160489D01*
X623389Y-24160490D01*
X623391Y-24160492D01*
X726110Y-24219797D01*
X726111Y-24219797D01*
X726114Y-24219799D01*
X840691Y-24250500D01*
X840693Y-24250500D01*
X959307Y-24250500D01*
X959309Y-24250500D01*
X1073886Y-24219799D01*
X1073888Y-24219797D01*
X1073890Y-24219797D01*
X1176608Y-24160492D01*
X1176608Y-24160491D01*
X1176613Y-24160489D01*
X1260489Y-24076613D01*
X1291217Y-24023391D01*
X1319797Y-23973890D01*
X1319797Y-23973888D01*
X1319799Y-23973886D01*
X1350500Y-23859309D01*
X1350500Y-23740691D01*
X1319799Y-23626114D01*
X1319797Y-23626111D01*
X1319797Y-23626109D01*
X1260492Y-23523391D01*
X1260490Y-23523389D01*
X1260489Y-23523387D01*
X1176613Y-23439511D01*
X1176610Y-23439509D01*
X1176608Y-23439507D01*
X1073889Y-23380202D01*
X1073890Y-23380202D01*
X1060351Y-23376574D01*
X959309Y-23349500D01*
X840691Y-23349500D01*
X770567Y-23368289D01*
X726109Y-23380202D01*
X623391Y-23439507D01*
X539507Y-23523391D01*
X480202Y-23626109D01*
X480201Y-23626114D01*
X449500Y-23740691D01*
X-299500Y-23740691D01*
X-299500Y-22540691D01*
X10149500Y-22540691D01*
X10149500Y-22659309D01*
X10176295Y-22759307D01*
X10180202Y-22773890D01*
X10239507Y-22876608D01*
X10239509Y-22876610D01*
X10239511Y-22876613D01*
X10323387Y-22960489D01*
X10323389Y-22960490D01*
X10323391Y-22960492D01*
X10426110Y-23019797D01*
X10426111Y-23019797D01*
X10426114Y-23019799D01*
X10540691Y-23050500D01*
X10540693Y-23050500D01*
X10659307Y-23050500D01*
X10659309Y-23050500D01*
X10773886Y-23019799D01*
X10773888Y-23019797D01*
X10773890Y-23019797D01*
X10876608Y-22960492D01*
X10876608Y-22960491D01*
X10876613Y-22960489D01*
X10960489Y-22876613D01*
X10962061Y-22873890D01*
X10981229Y-22840691D01*
X12849500Y-22840691D01*
X12849500Y-22959309D01*
X12866670Y-23023387D01*
X12880202Y-23073890D01*
X12939507Y-23176608D01*
X12939509Y-23176610D01*
X12939511Y-23176613D01*
X13023387Y-23260489D01*
X13023389Y-23260490D01*
X13023391Y-23260492D01*
X13121395Y-23317075D01*
X13162336Y-23362544D01*
X13168732Y-23423395D01*
X13167523Y-23428428D01*
X13149500Y-23495692D01*
X13149500Y-23614310D01*
X13152662Y-23626109D01*
X13180202Y-23728891D01*
X13239507Y-23831609D01*
X13239509Y-23831611D01*
X13239511Y-23831614D01*
X13323387Y-23915490D01*
X13330230Y-23919441D01*
X13418894Y-23970632D01*
X13459834Y-24016102D01*
X13466229Y-24076952D01*
X13435636Y-24129940D01*
X13428310Y-24135265D01*
X13428536Y-24135560D01*
X13423390Y-24139508D01*
X13339507Y-24223391D01*
X13280202Y-24326109D01*
X13271306Y-24359309D01*
X13249500Y-24440691D01*
X13249500Y-24559309D01*
X13254137Y-24576613D01*
X13280202Y-24673890D01*
X13339507Y-24776608D01*
X13339509Y-24776610D01*
X13339511Y-24776613D01*
X13423387Y-24860489D01*
X13423389Y-24860490D01*
X13423391Y-24860492D01*
X13526110Y-24919797D01*
X13526111Y-24919797D01*
X13526114Y-24919799D01*
X13640691Y-24950500D01*
X13640693Y-24950500D01*
X13759307Y-24950500D01*
X13759309Y-24950500D01*
X13873886Y-24919799D01*
X13873888Y-24919797D01*
X13873890Y-24919797D01*
X13976608Y-24860492D01*
X13976608Y-24860491D01*
X13976613Y-24860489D01*
X14060489Y-24776613D01*
X14072662Y-24755529D01*
X14119797Y-24673890D01*
X14119797Y-24673888D01*
X14119799Y-24673886D01*
X14150500Y-24559309D01*
X14150500Y-24440691D01*
X14119799Y-24326114D01*
X14069546Y-24239074D01*
X15049500Y-24239074D01*
X15049500Y-24357692D01*
X15061056Y-24400818D01*
X15080202Y-24472273D01*
X15139507Y-24574991D01*
X15139509Y-24574993D01*
X15139511Y-24574996D01*
X15223387Y-24658872D01*
X15223389Y-24658873D01*
X15223391Y-24658875D01*
X15326110Y-24718180D01*
X15326111Y-24718180D01*
X15326114Y-24718182D01*
X15440691Y-24748883D01*
X15440693Y-24748883D01*
X15559307Y-24748883D01*
X15559309Y-24748883D01*
X15673886Y-24718182D01*
X15673888Y-24718180D01*
X15673890Y-24718180D01*
X15776608Y-24658875D01*
X15776608Y-24658874D01*
X15776613Y-24658872D01*
X15860489Y-24574996D01*
X15869242Y-24559835D01*
X15919797Y-24472273D01*
X15919797Y-24472271D01*
X15919799Y-24472269D01*
X15950500Y-24357692D01*
X15950500Y-24239074D01*
X15919799Y-24124497D01*
X15919797Y-24124494D01*
X15919797Y-24124492D01*
X15860492Y-24021774D01*
X15860490Y-24021772D01*
X15860489Y-24021770D01*
X15776613Y-23937894D01*
X15776610Y-23937892D01*
X15776608Y-23937890D01*
X15673889Y-23878585D01*
X15673890Y-23878585D01*
X15645567Y-23870996D01*
X15559309Y-23847883D01*
X15440691Y-23847883D01*
X15370567Y-23866672D01*
X15326109Y-23878585D01*
X15223391Y-23937890D01*
X15139507Y-24021774D01*
X15080202Y-24124492D01*
X15070557Y-24160489D01*
X15049500Y-24239074D01*
X14069546Y-24239074D01*
X14060489Y-24223387D01*
X13976613Y-24139511D01*
X13960036Y-24129940D01*
X13881105Y-24084368D01*
X13840165Y-24038898D01*
X13833770Y-23978048D01*
X13864363Y-23925060D01*
X13871691Y-23919737D01*
X13871464Y-23919441D01*
X13876607Y-23915493D01*
X13876613Y-23915490D01*
X13960489Y-23831614D01*
X14007321Y-23750500D01*
X14019797Y-23728891D01*
X14019797Y-23728889D01*
X14019799Y-23728887D01*
X14050500Y-23614310D01*
X14050500Y-23495692D01*
X14019799Y-23381115D01*
X14019797Y-23381112D01*
X14019797Y-23381110D01*
X13963559Y-23283704D01*
X13963558Y-23283703D01*
X13960490Y-23278390D01*
X13960489Y-23278388D01*
X13922792Y-23240691D01*
X24349500Y-23240691D01*
X24349500Y-23359309D01*
X24355342Y-23381110D01*
X24380202Y-23473890D01*
X24439507Y-23576608D01*
X24439509Y-23576610D01*
X24439511Y-23576613D01*
X24523387Y-23660489D01*
X24523389Y-23660490D01*
X24523391Y-23660492D01*
X24626110Y-23719797D01*
X24626111Y-23719797D01*
X24626114Y-23719799D01*
X24740691Y-23750500D01*
X24740693Y-23750500D01*
X24859307Y-23750500D01*
X24859309Y-23750500D01*
X24973886Y-23719799D01*
X24973888Y-23719797D01*
X24973890Y-23719797D01*
X25076608Y-23660492D01*
X25076608Y-23660491D01*
X25076613Y-23660489D01*
X25160489Y-23576613D01*
X25191217Y-23523391D01*
X25219797Y-23473890D01*
X25219797Y-23473888D01*
X25219799Y-23473886D01*
X25250500Y-23359309D01*
X25250500Y-23240691D01*
X25245241Y-23221065D01*
X25248441Y-23159967D01*
X25286945Y-23112416D01*
X25291332Y-23109726D01*
X25376613Y-23060489D01*
X25460489Y-22976613D01*
X25481911Y-22939509D01*
X25519797Y-22873890D01*
X25519797Y-22873888D01*
X25519799Y-22873886D01*
X25550500Y-22759309D01*
X25550500Y-22640691D01*
X25519799Y-22526114D01*
X25519797Y-22526111D01*
X25519797Y-22526109D01*
X25460492Y-22423391D01*
X25460490Y-22423389D01*
X25460489Y-22423387D01*
X25376613Y-22339511D01*
X25376610Y-22339509D01*
X25376608Y-22339507D01*
X25273889Y-22280202D01*
X25273890Y-22280202D01*
X25250318Y-22273886D01*
X25159309Y-22249500D01*
X25040691Y-22249500D01*
X24970567Y-22268289D01*
X24926109Y-22280202D01*
X24823391Y-22339507D01*
X24739507Y-22423391D01*
X24680202Y-22526109D01*
X24680201Y-22526114D01*
X24649500Y-22640691D01*
X24649500Y-22759309D01*
X24653131Y-22772860D01*
X24654759Y-22778937D01*
X24651554Y-22840039D01*
X24613047Y-22887587D01*
X24608632Y-22890293D01*
X24523389Y-22939509D01*
X24439507Y-23023391D01*
X24380202Y-23126109D01*
X24380201Y-23126114D01*
X24349500Y-23240691D01*
X13922792Y-23240691D01*
X13876613Y-23194512D01*
X13876610Y-23194510D01*
X13876608Y-23194508D01*
X13778604Y-23137925D01*
X13737663Y-23092455D01*
X13731268Y-23031605D01*
X13732471Y-23026590D01*
X13750500Y-22959309D01*
X13750500Y-22840691D01*
X13719799Y-22726114D01*
X13719797Y-22726111D01*
X13719797Y-22726109D01*
X13660492Y-22623391D01*
X13660490Y-22623389D01*
X13660489Y-22623387D01*
X13576613Y-22539511D01*
X13576610Y-22539509D01*
X13576608Y-22539507D01*
X13473889Y-22480202D01*
X13473890Y-22480202D01*
X13460351Y-22476574D01*
X13359309Y-22449500D01*
X13240691Y-22449500D01*
X13199669Y-22460492D01*
X13126109Y-22480202D01*
X13023391Y-22539507D01*
X12939507Y-22623391D01*
X12880202Y-22726109D01*
X12880201Y-22726114D01*
X12849500Y-22840691D01*
X10981229Y-22840691D01*
X11013555Y-22784702D01*
X11013555Y-22784701D01*
X11014214Y-22783558D01*
X11019799Y-22773886D01*
X11050500Y-22659309D01*
X11050500Y-22628557D01*
X11069407Y-22570366D01*
X11118907Y-22534402D01*
X11175123Y-22532931D01*
X11240691Y-22550500D01*
X11240692Y-22550500D01*
X11359307Y-22550500D01*
X11359309Y-22550500D01*
X11473886Y-22519799D01*
X11473888Y-22519797D01*
X11473890Y-22519797D01*
X11576608Y-22460492D01*
X11576608Y-22460491D01*
X11576613Y-22460489D01*
X11660489Y-22376613D01*
X11681910Y-22339511D01*
X11719797Y-22273890D01*
X11719797Y-22273888D01*
X11719799Y-22273886D01*
X11750500Y-22159309D01*
X11750500Y-22040691D01*
X11719799Y-21926114D01*
X11719797Y-21926111D01*
X11719797Y-21926109D01*
X11660492Y-21823391D01*
X11660490Y-21823389D01*
X11660489Y-21823387D01*
X11576613Y-21739511D01*
X11576610Y-21739509D01*
X11576608Y-21739507D01*
X11473889Y-21680202D01*
X11473890Y-21680202D01*
X11460351Y-21676574D01*
X11359309Y-21649500D01*
X11240691Y-21649500D01*
X11188402Y-21663511D01*
X11126109Y-21680202D01*
X11023391Y-21739507D01*
X10939507Y-21823391D01*
X10880202Y-21926109D01*
X10880201Y-21926114D01*
X10857378Y-22011292D01*
X10849500Y-22040692D01*
X10849500Y-22071442D01*
X10830593Y-22129633D01*
X10781093Y-22165597D01*
X10724877Y-22167069D01*
X10659309Y-22149500D01*
X10540691Y-22149500D01*
X10504084Y-22159309D01*
X10426109Y-22180202D01*
X10323391Y-22239507D01*
X10239507Y-22323391D01*
X10180202Y-22426109D01*
X10170990Y-22460489D01*
X10149500Y-22540691D01*
X-299500Y-22540691D01*
X-299500Y-20440691D01*
X5549500Y-20440691D01*
X5549500Y-20559309D01*
X5576574Y-20660351D01*
X5580202Y-20673890D01*
X5639507Y-20776608D01*
X5639509Y-20776610D01*
X5639511Y-20776613D01*
X5723387Y-20860489D01*
X5723389Y-20860490D01*
X5723391Y-20860492D01*
X5826110Y-20919797D01*
X5826111Y-20919797D01*
X5826114Y-20919799D01*
X5940691Y-20950500D01*
X5940693Y-20950500D01*
X6059307Y-20950500D01*
X6059309Y-20950500D01*
X6173886Y-20919799D01*
X6173888Y-20919797D01*
X6173890Y-20919797D01*
X6276608Y-20860492D01*
X6276608Y-20860491D01*
X6276613Y-20860489D01*
X6360489Y-20776613D01*
X6360787Y-20776096D01*
X13963556Y-20776096D01*
X13963556Y-20894714D01*
X13979571Y-20954482D01*
X13994258Y-21009295D01*
X14053563Y-21112013D01*
X14053565Y-21112015D01*
X14053567Y-21112018D01*
X14137443Y-21195894D01*
X14137445Y-21195895D01*
X14137447Y-21195897D01*
X14240166Y-21255202D01*
X14240167Y-21255202D01*
X14240170Y-21255204D01*
X14277504Y-21265207D01*
X14328818Y-21298532D01*
X14350744Y-21355653D01*
X14334908Y-21414754D01*
X14301381Y-21446570D01*
X14248829Y-21476911D01*
X14164947Y-21560793D01*
X14105642Y-21663511D01*
X14105641Y-21663516D01*
X14074940Y-21778093D01*
X14074940Y-21896711D01*
X14082819Y-21926114D01*
X14105642Y-22011292D01*
X14164947Y-22114010D01*
X14164949Y-22114012D01*
X14164951Y-22114015D01*
X14248827Y-22197891D01*
X14248829Y-22197892D01*
X14248831Y-22197894D01*
X14351550Y-22257199D01*
X14351551Y-22257199D01*
X14351554Y-22257201D01*
X14466131Y-22287902D01*
X14466133Y-22287902D01*
X14584747Y-22287902D01*
X14584749Y-22287902D01*
X14699326Y-22257201D01*
X14699328Y-22257199D01*
X14699330Y-22257199D01*
X14802048Y-22197894D01*
X14802048Y-22197893D01*
X14802053Y-22197891D01*
X14885929Y-22114015D01*
X14910509Y-22071442D01*
X14945237Y-22011292D01*
X14945237Y-22011290D01*
X14945239Y-22011288D01*
X14975940Y-21896711D01*
X14975940Y-21778093D01*
X14945239Y-21663516D01*
X14945237Y-21663513D01*
X14945237Y-21663511D01*
X14885932Y-21560793D01*
X14885930Y-21560791D01*
X14885929Y-21560789D01*
X14802053Y-21476913D01*
X14802050Y-21476911D01*
X14802048Y-21476909D01*
X14699329Y-21417604D01*
X14699327Y-21417603D01*
X14661990Y-21407598D01*
X14610676Y-21374273D01*
X14588751Y-21317151D01*
X14604588Y-21258051D01*
X14638113Y-21226236D01*
X14690669Y-21195894D01*
X14774545Y-21112018D01*
X14774548Y-21112013D01*
X14833853Y-21009295D01*
X14833853Y-21009293D01*
X14833855Y-21009291D01*
X14864556Y-20894714D01*
X14864556Y-20835864D01*
X22574498Y-20835864D01*
X22574498Y-20954482D01*
X22589184Y-21009291D01*
X22605200Y-21069063D01*
X22664505Y-21171781D01*
X22664507Y-21171783D01*
X22664509Y-21171786D01*
X22748385Y-21255662D01*
X22748387Y-21255663D01*
X22748389Y-21255665D01*
X22851108Y-21314970D01*
X22851109Y-21314970D01*
X22851112Y-21314972D01*
X22965689Y-21345673D01*
X22965691Y-21345673D01*
X23084305Y-21345673D01*
X23084307Y-21345673D01*
X23198884Y-21314972D01*
X23198886Y-21314970D01*
X23198888Y-21314970D01*
X23301606Y-21255665D01*
X23301606Y-21255664D01*
X23301611Y-21255662D01*
X23385487Y-21171786D01*
X23385490Y-21171781D01*
X23444795Y-21069063D01*
X23444795Y-21069061D01*
X23444797Y-21069059D01*
X23475498Y-20954482D01*
X23475498Y-20870928D01*
X23494405Y-20812737D01*
X23524998Y-20785192D01*
X23605840Y-20738517D01*
X23605840Y-20738516D01*
X23605845Y-20738514D01*
X23689721Y-20654638D01*
X23745056Y-20558796D01*
X23749029Y-20551915D01*
X23749029Y-20551913D01*
X23749031Y-20551911D01*
X23779732Y-20437334D01*
X23779732Y-20318716D01*
X23749031Y-20204139D01*
X23749029Y-20204136D01*
X23749029Y-20204134D01*
X23704797Y-20127523D01*
X23692075Y-20067675D01*
X23704797Y-20028522D01*
X23749031Y-19951908D01*
X23779732Y-19837331D01*
X23779732Y-19718713D01*
X23764352Y-19661314D01*
X23764352Y-19661312D01*
X23759226Y-19642181D01*
X25059500Y-19642181D01*
X25059500Y-19760799D01*
X25077268Y-19827109D01*
X25090202Y-19875380D01*
X25149507Y-19978098D01*
X25149509Y-19978100D01*
X25149511Y-19978103D01*
X25233387Y-20061979D01*
X25233389Y-20061980D01*
X25233391Y-20061982D01*
X25336110Y-20121287D01*
X25336111Y-20121287D01*
X25336114Y-20121289D01*
X25450691Y-20151990D01*
X25450693Y-20151990D01*
X25569307Y-20151990D01*
X25569309Y-20151990D01*
X25683886Y-20121289D01*
X25683888Y-20121287D01*
X25683890Y-20121287D01*
X25786608Y-20061982D01*
X25786608Y-20061981D01*
X25786613Y-20061979D01*
X25870489Y-19978103D01*
X25929799Y-19875376D01*
X25960500Y-19760799D01*
X25960500Y-19642181D01*
X25929799Y-19527604D01*
X25929797Y-19527601D01*
X25929797Y-19527599D01*
X25870492Y-19424881D01*
X25870490Y-19424879D01*
X25870489Y-19424877D01*
X25786613Y-19341001D01*
X25786610Y-19340999D01*
X25786608Y-19340997D01*
X25683889Y-19281692D01*
X25683890Y-19281692D01*
X25670351Y-19278064D01*
X25569309Y-19250990D01*
X25450691Y-19250990D01*
X25380567Y-19269779D01*
X25336109Y-19281692D01*
X25233391Y-19340997D01*
X25149507Y-19424881D01*
X25090202Y-19527599D01*
X25090201Y-19527604D01*
X25059500Y-19642181D01*
X23759226Y-19642181D01*
X23749031Y-19604136D01*
X23749029Y-19604132D01*
X23689724Y-19501413D01*
X23689722Y-19501411D01*
X23689721Y-19501409D01*
X23605845Y-19417533D01*
X23605842Y-19417531D01*
X23605840Y-19417529D01*
X23503121Y-19358224D01*
X23503122Y-19358224D01*
X23489583Y-19354596D01*
X23388541Y-19327522D01*
X23269923Y-19327522D01*
X23199799Y-19346311D01*
X23155341Y-19358224D01*
X23052623Y-19417529D01*
X22968739Y-19501413D01*
X22909434Y-19604131D01*
X22895851Y-19654826D01*
X22878732Y-19718713D01*
X22878732Y-19837331D01*
X22905806Y-19938373D01*
X22909434Y-19951912D01*
X22953666Y-20028523D01*
X22966388Y-20088371D01*
X22953667Y-20127523D01*
X22909433Y-20204137D01*
X22878732Y-20318717D01*
X22878732Y-20402270D01*
X22859825Y-20460461D01*
X22829232Y-20488006D01*
X22748389Y-20534680D01*
X22664505Y-20618564D01*
X22605200Y-20721282D01*
X22605199Y-20721287D01*
X22574498Y-20835864D01*
X14864556Y-20835864D01*
X14864556Y-20776096D01*
X14833855Y-20661519D01*
X14833853Y-20661516D01*
X14833853Y-20661514D01*
X14774548Y-20558796D01*
X14774546Y-20558794D01*
X14774545Y-20558792D01*
X14740082Y-20524329D01*
X14712307Y-20469815D01*
X14721878Y-20409383D01*
X14760589Y-20368591D01*
X14772890Y-20361489D01*
X14856766Y-20277613D01*
X14856769Y-20277608D01*
X14916074Y-20174890D01*
X14916074Y-20174888D01*
X14916076Y-20174886D01*
X14946777Y-20060309D01*
X14946777Y-19941691D01*
X14916076Y-19827114D01*
X14916074Y-19827111D01*
X14916074Y-19827109D01*
X14861935Y-19733338D01*
X14849213Y-19673490D01*
X14874100Y-19617594D01*
X14877649Y-19613853D01*
X14943469Y-19548034D01*
X14943472Y-19548029D01*
X15002777Y-19445311D01*
X15002778Y-19445308D01*
X15002779Y-19445307D01*
X15033480Y-19330730D01*
X15033480Y-19212112D01*
X15002779Y-19097535D01*
X15002777Y-19097532D01*
X15002777Y-19097530D01*
X14943472Y-18994812D01*
X14943467Y-18994806D01*
X14928218Y-18979556D01*
X14900441Y-18925039D01*
X14910014Y-18864607D01*
X14912468Y-18860086D01*
X14917484Y-18851400D01*
X14948185Y-18736823D01*
X14948185Y-18620817D01*
X27494500Y-18620817D01*
X27494500Y-18759183D01*
X27530312Y-18892836D01*
X27599495Y-19012665D01*
X27697335Y-19110505D01*
X27817164Y-19179688D01*
X27950817Y-19215500D01*
X27950819Y-19215500D01*
X28089181Y-19215500D01*
X28089183Y-19215500D01*
X28222836Y-19179688D01*
X28342665Y-19110505D01*
X28440505Y-19012665D01*
X28509688Y-18892836D01*
X28545500Y-18759183D01*
X28545500Y-18620817D01*
X28509688Y-18487164D01*
X28440505Y-18367335D01*
X28342665Y-18269495D01*
X28222836Y-18200312D01*
X28089183Y-18164500D01*
X27950817Y-18164500D01*
X27817164Y-18200312D01*
X27697335Y-18269495D01*
X27599495Y-18367335D01*
X27530312Y-18487164D01*
X27494500Y-18620817D01*
X14948185Y-18620817D01*
X14948185Y-18618205D01*
X14917484Y-18503628D01*
X14917482Y-18503625D01*
X14917482Y-18503623D01*
X14858177Y-18400905D01*
X14858175Y-18400903D01*
X14858174Y-18400901D01*
X14774298Y-18317025D01*
X14774295Y-18317023D01*
X14774293Y-18317021D01*
X14671574Y-18257716D01*
X14671575Y-18257716D01*
X14651190Y-18252254D01*
X14556994Y-18227014D01*
X14438376Y-18227014D01*
X14368252Y-18245803D01*
X14323794Y-18257716D01*
X14221076Y-18317021D01*
X14137192Y-18400905D01*
X14077887Y-18503623D01*
X14065597Y-18549492D01*
X14047185Y-18618205D01*
X14047185Y-18736823D01*
X14060532Y-18786633D01*
X14077887Y-18851404D01*
X14137192Y-18954122D01*
X14137194Y-18954124D01*
X14137196Y-18954127D01*
X14152446Y-18969377D01*
X14180222Y-19023892D01*
X14170651Y-19084324D01*
X14168179Y-19088876D01*
X14163182Y-19097530D01*
X14146017Y-19161590D01*
X14132480Y-19212112D01*
X14132480Y-19330730D01*
X14139847Y-19358223D01*
X14163181Y-19445308D01*
X14217322Y-19539082D01*
X14230043Y-19598930D01*
X14205156Y-19654826D01*
X14201589Y-19658585D01*
X14135788Y-19724386D01*
X14135784Y-19724391D01*
X14076479Y-19827109D01*
X14076478Y-19827114D01*
X14045777Y-19941691D01*
X14045777Y-20060309D01*
X14056791Y-20101412D01*
X14076479Y-20174890D01*
X14135784Y-20277608D01*
X14135786Y-20277610D01*
X14135788Y-20277613D01*
X14170249Y-20312074D01*
X14198025Y-20366589D01*
X14188454Y-20427021D01*
X14149749Y-20467810D01*
X14137445Y-20474914D01*
X14053563Y-20558796D01*
X13994258Y-20661514D01*
X13994257Y-20661519D01*
X13963556Y-20776096D01*
X6360787Y-20776096D01*
X6419799Y-20673886D01*
X6450500Y-20559309D01*
X6450500Y-20440691D01*
X6419799Y-20326114D01*
X6419797Y-20326111D01*
X6419797Y-20326109D01*
X6360492Y-20223391D01*
X6360490Y-20223389D01*
X6360489Y-20223387D01*
X6276613Y-20139511D01*
X6276610Y-20139509D01*
X6276608Y-20139507D01*
X6173889Y-20080202D01*
X6173890Y-20080202D01*
X6160351Y-20076574D01*
X6059309Y-20049500D01*
X5940691Y-20049500D01*
X5894108Y-20061982D01*
X5826109Y-20080202D01*
X5723391Y-20139507D01*
X5639507Y-20223391D01*
X5580202Y-20326109D01*
X5580201Y-20326114D01*
X5549500Y-20440691D01*
X-299500Y-20440691D01*
X-299500Y-18366836D01*
X7954059Y-18366836D01*
X7954059Y-18485454D01*
X7971217Y-18549489D01*
X7984761Y-18600035D01*
X8044066Y-18702753D01*
X8044068Y-18702755D01*
X8044070Y-18702758D01*
X8127946Y-18786634D01*
X8127948Y-18786635D01*
X8127950Y-18786637D01*
X8230669Y-18845942D01*
X8230670Y-18845942D01*
X8230673Y-18845944D01*
X8345250Y-18876645D01*
X8345252Y-18876645D01*
X8463866Y-18876645D01*
X8463868Y-18876645D01*
X8578445Y-18845944D01*
X8578447Y-18845942D01*
X8578449Y-18845942D01*
X8681167Y-18786637D01*
X8681167Y-18786636D01*
X8681172Y-18786634D01*
X8718205Y-18749600D01*
X8772719Y-18721824D01*
X8833151Y-18731395D01*
X8858211Y-18749601D01*
X8862365Y-18753755D01*
X8862367Y-18753758D01*
X8946243Y-18837634D01*
X8946245Y-18837635D01*
X8946247Y-18837637D01*
X9048966Y-18896942D01*
X9048967Y-18896942D01*
X9048970Y-18896944D01*
X9163547Y-18927645D01*
X9163549Y-18927645D01*
X9282163Y-18927645D01*
X9282165Y-18927645D01*
X9396742Y-18896944D01*
X9396744Y-18896942D01*
X9396746Y-18896942D01*
X9499464Y-18837637D01*
X9499464Y-18837636D01*
X9499469Y-18837634D01*
X9583345Y-18753758D01*
X9583348Y-18753753D01*
X9642653Y-18651035D01*
X9642653Y-18651033D01*
X9642655Y-18651031D01*
X9673356Y-18536454D01*
X9673356Y-18417836D01*
X9642655Y-18303259D01*
X9629626Y-18280692D01*
X9629625Y-18280691D01*
X11249500Y-18280691D01*
X11249500Y-18399309D01*
X11254465Y-18417837D01*
X11280202Y-18513890D01*
X11339507Y-18616608D01*
X11339509Y-18616610D01*
X11339511Y-18616613D01*
X11423387Y-18700489D01*
X11423389Y-18700490D01*
X11423391Y-18700492D01*
X11526110Y-18759797D01*
X11526111Y-18759797D01*
X11526114Y-18759799D01*
X11640691Y-18790500D01*
X11640693Y-18790500D01*
X11759307Y-18790500D01*
X11759309Y-18790500D01*
X11873886Y-18759799D01*
X11873888Y-18759797D01*
X11873890Y-18759797D01*
X11976608Y-18700492D01*
X11976608Y-18700491D01*
X11976613Y-18700489D01*
X12060489Y-18616613D01*
X12060492Y-18616608D01*
X12119797Y-18513890D01*
X12119797Y-18513888D01*
X12119799Y-18513886D01*
X12150500Y-18399309D01*
X12150500Y-18280691D01*
X12119799Y-18166114D01*
X12119797Y-18166111D01*
X12119797Y-18166109D01*
X12072220Y-18083704D01*
X12072219Y-18083703D01*
X12060490Y-18063389D01*
X12060489Y-18063387D01*
X12037793Y-18040691D01*
X12349500Y-18040691D01*
X12349500Y-18159309D01*
X12352872Y-18171893D01*
X12380202Y-18273890D01*
X12439507Y-18376608D01*
X12439509Y-18376610D01*
X12439511Y-18376613D01*
X12523387Y-18460489D01*
X12523389Y-18460490D01*
X12523391Y-18460492D01*
X12626110Y-18519797D01*
X12626111Y-18519797D01*
X12626114Y-18519799D01*
X12740691Y-18550500D01*
X12740693Y-18550500D01*
X12859307Y-18550500D01*
X12859309Y-18550500D01*
X12973886Y-18519799D01*
X13041115Y-18480983D01*
X13100958Y-18468263D01*
X13156854Y-18493148D01*
X13160596Y-18496698D01*
X13213387Y-18549489D01*
X13213389Y-18549490D01*
X13213391Y-18549492D01*
X13316110Y-18608797D01*
X13316111Y-18608797D01*
X13316114Y-18608799D01*
X13430691Y-18639500D01*
X13430693Y-18639500D01*
X13549307Y-18639500D01*
X13549309Y-18639500D01*
X13663886Y-18608799D01*
X13663888Y-18608797D01*
X13663890Y-18608797D01*
X13766608Y-18549492D01*
X13766608Y-18549491D01*
X13766613Y-18549489D01*
X13850489Y-18465613D01*
X13878073Y-18417837D01*
X13909797Y-18362890D01*
X13909797Y-18362888D01*
X13909799Y-18362886D01*
X13940500Y-18248309D01*
X13940500Y-18129691D01*
X13909799Y-18015114D01*
X13909797Y-18015111D01*
X13909797Y-18015109D01*
X13850492Y-17912391D01*
X13850490Y-17912389D01*
X13850489Y-17912387D01*
X13766613Y-17828511D01*
X13766610Y-17828509D01*
X13766608Y-17828507D01*
X13663889Y-17769202D01*
X13663890Y-17769202D01*
X13638198Y-17762318D01*
X13549309Y-17738500D01*
X13430691Y-17738500D01*
X13377521Y-17752747D01*
X13316109Y-17769202D01*
X13248887Y-17808014D01*
X13189039Y-17820736D01*
X13133143Y-17795850D01*
X13129402Y-17792300D01*
X13076613Y-17739511D01*
X13076610Y-17739509D01*
X13076608Y-17739507D01*
X12973889Y-17680202D01*
X12973890Y-17680202D01*
X12960351Y-17676574D01*
X12859309Y-17649500D01*
X12740691Y-17649500D01*
X12704084Y-17659309D01*
X12626109Y-17680202D01*
X12523391Y-17739507D01*
X12439507Y-17823391D01*
X12380202Y-17926109D01*
X12370987Y-17960500D01*
X12349500Y-18040691D01*
X12037793Y-18040691D01*
X11976613Y-17979511D01*
X11976610Y-17979509D01*
X11976608Y-17979507D01*
X11873889Y-17920202D01*
X11873890Y-17920202D01*
X11844724Y-17912387D01*
X11759309Y-17889500D01*
X11640691Y-17889500D01*
X11570567Y-17908289D01*
X11526109Y-17920202D01*
X11423391Y-17979507D01*
X11339507Y-18063391D01*
X11280202Y-18166109D01*
X11263883Y-18227014D01*
X11249500Y-18280691D01*
X9629625Y-18280691D01*
X9583348Y-18200536D01*
X9583346Y-18200534D01*
X9583345Y-18200532D01*
X9499469Y-18116656D01*
X9499466Y-18116654D01*
X9499464Y-18116652D01*
X9396745Y-18057347D01*
X9396746Y-18057347D01*
X9383207Y-18053719D01*
X9282165Y-18026645D01*
X9163547Y-18026645D01*
X9093423Y-18045434D01*
X9048965Y-18057347D01*
X8946247Y-18116652D01*
X8946241Y-18116657D01*
X8909210Y-18153688D01*
X8854693Y-18181465D01*
X8794261Y-18171893D01*
X8769203Y-18153688D01*
X8765049Y-18149534D01*
X8765048Y-18149532D01*
X8681172Y-18065656D01*
X8681169Y-18065654D01*
X8681167Y-18065652D01*
X8578448Y-18006347D01*
X8578449Y-18006347D01*
X8564910Y-18002719D01*
X8463868Y-17975645D01*
X8345250Y-17975645D01*
X8275126Y-17994434D01*
X8230668Y-18006347D01*
X8127950Y-18065652D01*
X8044066Y-18149536D01*
X7984761Y-18252254D01*
X7967596Y-18316314D01*
X7954059Y-18366836D01*
X-299500Y-18366836D01*
X-299500Y-16840691D01*
X9049500Y-16840691D01*
X9049500Y-16959309D01*
X9075320Y-17055670D01*
X9080202Y-17073890D01*
X9139507Y-17176608D01*
X9139509Y-17176610D01*
X9139511Y-17176613D01*
X9223387Y-17260489D01*
X9223389Y-17260490D01*
X9223391Y-17260492D01*
X9326110Y-17319797D01*
X9326111Y-17319797D01*
X9326114Y-17319799D01*
X9440691Y-17350500D01*
X9440693Y-17350500D01*
X9559307Y-17350500D01*
X9559309Y-17350500D01*
X9673886Y-17319799D01*
X9673888Y-17319797D01*
X9673890Y-17319797D01*
X9776608Y-17260492D01*
X9776608Y-17260491D01*
X9776613Y-17260489D01*
X9846098Y-17191004D01*
X26269500Y-17191004D01*
X26269500Y-17328995D01*
X26296420Y-17464327D01*
X26296420Y-17464329D01*
X26349222Y-17591806D01*
X26349228Y-17591817D01*
X26425885Y-17706541D01*
X26523458Y-17804114D01*
X26638182Y-17880771D01*
X26638193Y-17880777D01*
X26659253Y-17889500D01*
X26765672Y-17933580D01*
X26901007Y-17960500D01*
X26901008Y-17960500D01*
X28138992Y-17960500D01*
X28138993Y-17960500D01*
X28274328Y-17933580D01*
X28401811Y-17880775D01*
X28516542Y-17804114D01*
X28540130Y-17780526D01*
X28594646Y-17752747D01*
X28655078Y-17762318D01*
X28695871Y-17801028D01*
X28739507Y-17876608D01*
X28739509Y-17876610D01*
X28739511Y-17876613D01*
X28823387Y-17960489D01*
X28823389Y-17960490D01*
X28823391Y-17960492D01*
X28926110Y-18019797D01*
X28926111Y-18019797D01*
X28926114Y-18019799D01*
X29040691Y-18050500D01*
X29040693Y-18050500D01*
X29159307Y-18050500D01*
X29159309Y-18050500D01*
X29273886Y-18019799D01*
X29273888Y-18019797D01*
X29273890Y-18019797D01*
X29376608Y-17960492D01*
X29376608Y-17960491D01*
X29376613Y-17960489D01*
X29460489Y-17876613D01*
X29491217Y-17823391D01*
X29519797Y-17773890D01*
X29519797Y-17773888D01*
X29519799Y-17773886D01*
X29550500Y-17659309D01*
X29550500Y-17540691D01*
X29519799Y-17426114D01*
X29519797Y-17426111D01*
X29519797Y-17426109D01*
X29460492Y-17323391D01*
X29460490Y-17323389D01*
X29460489Y-17323387D01*
X29376613Y-17239511D01*
X29376610Y-17239509D01*
X29376608Y-17239507D01*
X29292599Y-17191004D01*
X30599500Y-17191004D01*
X30599500Y-17328995D01*
X30626420Y-17464327D01*
X30626420Y-17464329D01*
X30679222Y-17591806D01*
X30679228Y-17591817D01*
X30755885Y-17706541D01*
X30853458Y-17804114D01*
X30968182Y-17880771D01*
X30968193Y-17880777D01*
X30989253Y-17889500D01*
X31095672Y-17933580D01*
X31231007Y-17960500D01*
X31231008Y-17960500D01*
X32168992Y-17960500D01*
X32168993Y-17960500D01*
X32304328Y-17933580D01*
X32431811Y-17880775D01*
X32546542Y-17804114D01*
X32644114Y-17706542D01*
X32720775Y-17591811D01*
X32773580Y-17464328D01*
X32800500Y-17328993D01*
X32800500Y-17191007D01*
X32773580Y-17055672D01*
X32733665Y-16959309D01*
X32720777Y-16928193D01*
X32720771Y-16928182D01*
X32644114Y-16813458D01*
X32546541Y-16715885D01*
X32431817Y-16639228D01*
X32431806Y-16639222D01*
X32304328Y-16586420D01*
X32168995Y-16559500D01*
X32168993Y-16559500D01*
X31231007Y-16559500D01*
X31231004Y-16559500D01*
X31095672Y-16586420D01*
X31095670Y-16586420D01*
X30968193Y-16639222D01*
X30968182Y-16639228D01*
X30853458Y-16715885D01*
X30755885Y-16813458D01*
X30679228Y-16928182D01*
X30679222Y-16928193D01*
X30626420Y-17055670D01*
X30626420Y-17055672D01*
X30599500Y-17191004D01*
X29292599Y-17191004D01*
X29273889Y-17180202D01*
X29273890Y-17180202D01*
X29260351Y-17176574D01*
X29159309Y-17149500D01*
X29040691Y-17149500D01*
X28926114Y-17180201D01*
X28926113Y-17180201D01*
X28926111Y-17180202D01*
X28904245Y-17192826D01*
X28844396Y-17205545D01*
X28788501Y-17180657D01*
X28757910Y-17127668D01*
X28757649Y-17126402D01*
X28743580Y-17055672D01*
X28703665Y-16959309D01*
X28690777Y-16928193D01*
X28690771Y-16928182D01*
X28614114Y-16813458D01*
X28516541Y-16715885D01*
X28401817Y-16639228D01*
X28401806Y-16639222D01*
X28274328Y-16586420D01*
X28138995Y-16559500D01*
X28138993Y-16559500D01*
X26901007Y-16559500D01*
X26901004Y-16559500D01*
X26765672Y-16586420D01*
X26765670Y-16586420D01*
X26638193Y-16639222D01*
X26638182Y-16639228D01*
X26523458Y-16715885D01*
X26425885Y-16813458D01*
X26349228Y-16928182D01*
X26349222Y-16928193D01*
X26296420Y-17055670D01*
X26296420Y-17055672D01*
X26269500Y-17191004D01*
X9846098Y-17191004D01*
X9860489Y-17176613D01*
X9876143Y-17149500D01*
X9883567Y-17136642D01*
X9883568Y-17136640D01*
X9919797Y-17073890D01*
X9919797Y-17073888D01*
X9919799Y-17073886D01*
X9950500Y-16959309D01*
X9950500Y-16840691D01*
X9919799Y-16726114D01*
X9919797Y-16726111D01*
X9919797Y-16726109D01*
X9860492Y-16623391D01*
X9860490Y-16623389D01*
X9860489Y-16623387D01*
X9776613Y-16539511D01*
X9776610Y-16539509D01*
X9776608Y-16539507D01*
X9673889Y-16480202D01*
X9673890Y-16480202D01*
X9629803Y-16468389D01*
X9559309Y-16449500D01*
X9440691Y-16449500D01*
X9399669Y-16460492D01*
X9326109Y-16480202D01*
X9223391Y-16539507D01*
X9139507Y-16623391D01*
X9080202Y-16726109D01*
X9080201Y-16726114D01*
X9049500Y-16840691D01*
X-299500Y-16840691D01*
X-299500Y-15740691D01*
X5649500Y-15740691D01*
X5649500Y-15859309D01*
X5668601Y-15930593D01*
X5680202Y-15973890D01*
X5739507Y-16076608D01*
X5739509Y-16076610D01*
X5739511Y-16076613D01*
X5823387Y-16160489D01*
X5823389Y-16160490D01*
X5823391Y-16160492D01*
X5926110Y-16219797D01*
X5926111Y-16219797D01*
X5926114Y-16219799D01*
X6040691Y-16250500D01*
X6040693Y-16250500D01*
X6159307Y-16250500D01*
X6159309Y-16250500D01*
X6273886Y-16219799D01*
X6273888Y-16219797D01*
X6273890Y-16219797D01*
X6376608Y-16160492D01*
X6376608Y-16160491D01*
X6376613Y-16160489D01*
X6460489Y-16076613D01*
X6462061Y-16073890D01*
X6519797Y-15973890D01*
X6519797Y-15973888D01*
X6519799Y-15973886D01*
X6550500Y-15859309D01*
X6550500Y-15740691D01*
X11049500Y-15740691D01*
X11049500Y-15859309D01*
X11068601Y-15930593D01*
X11080202Y-15973890D01*
X11139507Y-16076608D01*
X11139509Y-16076610D01*
X11139511Y-16076613D01*
X11223387Y-16160489D01*
X11223389Y-16160490D01*
X11223391Y-16160492D01*
X11326110Y-16219797D01*
X11326111Y-16219797D01*
X11326114Y-16219799D01*
X11440691Y-16250500D01*
X11440693Y-16250500D01*
X11559307Y-16250500D01*
X11559309Y-16250500D01*
X11595916Y-16240691D01*
X14049500Y-16240691D01*
X14049500Y-16359309D01*
X14066835Y-16424004D01*
X14080202Y-16473890D01*
X14139507Y-16576608D01*
X14139509Y-16576610D01*
X14139511Y-16576613D01*
X14223387Y-16660489D01*
X14223389Y-16660490D01*
X14223391Y-16660492D01*
X14326110Y-16719797D01*
X14326111Y-16719797D01*
X14326114Y-16719799D01*
X14440691Y-16750500D01*
X14440693Y-16750500D01*
X14559307Y-16750500D01*
X14559309Y-16750500D01*
X14673886Y-16719799D01*
X14673888Y-16719797D01*
X14673890Y-16719797D01*
X14776608Y-16660492D01*
X14776608Y-16660491D01*
X14776613Y-16660489D01*
X14860489Y-16576613D01*
X14862064Y-16573886D01*
X14916152Y-16480202D01*
X14919799Y-16473886D01*
X14921272Y-16468386D01*
X14954593Y-16417073D01*
X15011714Y-16395144D01*
X15070815Y-16410978D01*
X15086897Y-16423999D01*
X15123387Y-16460489D01*
X15123389Y-16460490D01*
X15123391Y-16460492D01*
X15226110Y-16519797D01*
X15226111Y-16519797D01*
X15226114Y-16519799D01*
X15340691Y-16550500D01*
X15340693Y-16550500D01*
X15459307Y-16550500D01*
X15459309Y-16550500D01*
X15573886Y-16519799D01*
X15573888Y-16519797D01*
X15573890Y-16519797D01*
X15676608Y-16460492D01*
X15676608Y-16460491D01*
X15676613Y-16460489D01*
X15760489Y-16376613D01*
X15760492Y-16376608D01*
X15819797Y-16273890D01*
X15819797Y-16273888D01*
X15819799Y-16273886D01*
X15850500Y-16159309D01*
X15850500Y-16040691D01*
X15819799Y-15926114D01*
X15819797Y-15926110D01*
X15819797Y-15926109D01*
X15760492Y-15823391D01*
X15760490Y-15823389D01*
X15760489Y-15823387D01*
X15676613Y-15739511D01*
X15676610Y-15739509D01*
X15676608Y-15739507D01*
X15573889Y-15680202D01*
X15573890Y-15680202D01*
X15560351Y-15676574D01*
X15459309Y-15649500D01*
X15340691Y-15649500D01*
X15304084Y-15659309D01*
X15226109Y-15680202D01*
X15123391Y-15739507D01*
X15039507Y-15823391D01*
X14980202Y-15926110D01*
X14980200Y-15926114D01*
X14978725Y-15931620D01*
X14945398Y-15982932D01*
X14888275Y-16004856D01*
X14829176Y-15989016D01*
X14813101Y-15975999D01*
X14776613Y-15939511D01*
X14776610Y-15939509D01*
X14776608Y-15939507D01*
X14673889Y-15880202D01*
X14673890Y-15880202D01*
X14660351Y-15876574D01*
X14559309Y-15849500D01*
X14440691Y-15849500D01*
X14370567Y-15868289D01*
X14326109Y-15880202D01*
X14223391Y-15939507D01*
X14139507Y-16023391D01*
X14080202Y-16126109D01*
X14069349Y-16166613D01*
X14049500Y-16240691D01*
X11595916Y-16240691D01*
X11673886Y-16219799D01*
X11673888Y-16219797D01*
X11673890Y-16219797D01*
X11776608Y-16160492D01*
X11776608Y-16160491D01*
X11776613Y-16160489D01*
X11860489Y-16076613D01*
X11862061Y-16073890D01*
X11919797Y-15973890D01*
X11919797Y-15973888D01*
X11919799Y-15973886D01*
X11950500Y-15859309D01*
X11950500Y-15740691D01*
X11919799Y-15626114D01*
X11919797Y-15626111D01*
X11919797Y-15626109D01*
X11860492Y-15523391D01*
X11860490Y-15523389D01*
X11860489Y-15523387D01*
X11777978Y-15440876D01*
X16826966Y-15440876D01*
X16826966Y-15559494D01*
X16851083Y-15649500D01*
X16857668Y-15674075D01*
X16916973Y-15776793D01*
X16916975Y-15776795D01*
X16916977Y-15776798D01*
X17000853Y-15860674D01*
X17000855Y-15860675D01*
X17000857Y-15860677D01*
X17103576Y-15919982D01*
X17103577Y-15919982D01*
X17103580Y-15919984D01*
X17218157Y-15950685D01*
X17218159Y-15950685D01*
X17336774Y-15950685D01*
X17336775Y-15950685D01*
X17404301Y-15932591D01*
X17465401Y-15935792D01*
X17499925Y-15958211D01*
X17575375Y-16033661D01*
X17575377Y-16033662D01*
X17575379Y-16033664D01*
X17678098Y-16092969D01*
X17678099Y-16092969D01*
X17678102Y-16092971D01*
X17792679Y-16123672D01*
X17792681Y-16123672D01*
X17917786Y-16123672D01*
X17917786Y-16125589D01*
X17969196Y-16135109D01*
X18007709Y-16172619D01*
X18030836Y-16212675D01*
X18030839Y-16212680D01*
X18114715Y-16296556D01*
X18114717Y-16296557D01*
X18114719Y-16296559D01*
X18217438Y-16355864D01*
X18217439Y-16355864D01*
X18217442Y-16355866D01*
X18332019Y-16386567D01*
X18332021Y-16386567D01*
X18450635Y-16386567D01*
X18450637Y-16386567D01*
X18565214Y-16355866D01*
X18565216Y-16355864D01*
X18565218Y-16355864D01*
X18667936Y-16296559D01*
X18667936Y-16296558D01*
X18667941Y-16296556D01*
X18751817Y-16212680D01*
X18752955Y-16210710D01*
X18811123Y-16109960D01*
X18811123Y-16109959D01*
X18811127Y-16109953D01*
X18811129Y-16109945D01*
X18813007Y-16105412D01*
X18852739Y-16058882D01*
X18912232Y-16044592D01*
X18930098Y-16047661D01*
X18940691Y-16050500D01*
X19059307Y-16050500D01*
X19059309Y-16050500D01*
X19173886Y-16019799D01*
X19173888Y-16019797D01*
X19173890Y-16019797D01*
X19276608Y-15960492D01*
X19276608Y-15960491D01*
X19276613Y-15960489D01*
X19296411Y-15940691D01*
X19599500Y-15940691D01*
X19599500Y-16059309D01*
X19618912Y-16131754D01*
X19630202Y-16173890D01*
X19689507Y-16276608D01*
X19689509Y-16276610D01*
X19689511Y-16276613D01*
X19773387Y-16360489D01*
X19773389Y-16360490D01*
X19773391Y-16360492D01*
X19876110Y-16419797D01*
X19876111Y-16419797D01*
X19876114Y-16419799D01*
X19990691Y-16450500D01*
X19990693Y-16450500D01*
X20109307Y-16450500D01*
X20109309Y-16450500D01*
X20223886Y-16419799D01*
X20223888Y-16419797D01*
X20223890Y-16419797D01*
X20332233Y-16357245D01*
X20333055Y-16358669D01*
X20383158Y-16340916D01*
X20435270Y-16354145D01*
X20494872Y-16388557D01*
X20609449Y-16419258D01*
X20609451Y-16419258D01*
X20728065Y-16419258D01*
X20728067Y-16419258D01*
X20842644Y-16388557D01*
X20842646Y-16388555D01*
X20842648Y-16388555D01*
X20945366Y-16329250D01*
X20945366Y-16329249D01*
X20945371Y-16329247D01*
X21029247Y-16245371D01*
X21029253Y-16245359D01*
X21030467Y-16243779D01*
X21031654Y-16242962D01*
X21033835Y-16240782D01*
X21034238Y-16241185D01*
X21080887Y-16209117D01*
X21142051Y-16210710D01*
X21179018Y-16234030D01*
X21195477Y-16250489D01*
X21195479Y-16250490D01*
X21195481Y-16250492D01*
X21298200Y-16309797D01*
X21298201Y-16309797D01*
X21298204Y-16309799D01*
X21412781Y-16340500D01*
X21412783Y-16340500D01*
X21531397Y-16340500D01*
X21531399Y-16340500D01*
X21645976Y-16309799D01*
X21645978Y-16309797D01*
X21645980Y-16309797D01*
X21748698Y-16250492D01*
X21748698Y-16250491D01*
X21748703Y-16250489D01*
X21832579Y-16166613D01*
X21852705Y-16131754D01*
X21891887Y-16063890D01*
X21891887Y-16063888D01*
X21891889Y-16063886D01*
X21922590Y-15949309D01*
X21922590Y-15840691D01*
X22249500Y-15840691D01*
X22249500Y-15959309D01*
X22270989Y-16039507D01*
X22280202Y-16073890D01*
X22339507Y-16176608D01*
X22339509Y-16176610D01*
X22339511Y-16176613D01*
X22423387Y-16260489D01*
X22423389Y-16260490D01*
X22423391Y-16260492D01*
X22526110Y-16319797D01*
X22526111Y-16319797D01*
X22526114Y-16319799D01*
X22640691Y-16350500D01*
X22650500Y-16350500D01*
X22708691Y-16369407D01*
X22744655Y-16418907D01*
X22749500Y-16449500D01*
X22749500Y-16459309D01*
X22770989Y-16539507D01*
X22780202Y-16573890D01*
X22839507Y-16676608D01*
X22839509Y-16676610D01*
X22839511Y-16676613D01*
X22923387Y-16760489D01*
X22923389Y-16760490D01*
X22923391Y-16760492D01*
X23026110Y-16819797D01*
X23026111Y-16819797D01*
X23026114Y-16819799D01*
X23140691Y-16850500D01*
X23140693Y-16850500D01*
X23259307Y-16850500D01*
X23259309Y-16850500D01*
X23373886Y-16819799D01*
X23373888Y-16819797D01*
X23373890Y-16819797D01*
X23476608Y-16760492D01*
X23476608Y-16760491D01*
X23476613Y-16760489D01*
X23560489Y-16676613D01*
X23569798Y-16660489D01*
X23619797Y-16573890D01*
X23619797Y-16573888D01*
X23619799Y-16573886D01*
X23650500Y-16459309D01*
X23650500Y-16340691D01*
X23619799Y-16226114D01*
X23619797Y-16226111D01*
X23619797Y-16226109D01*
X23560492Y-16123391D01*
X23560490Y-16123389D01*
X23560489Y-16123387D01*
X23476613Y-16039511D01*
X23476610Y-16039509D01*
X23476608Y-16039507D01*
X23373889Y-15980202D01*
X23373890Y-15980202D01*
X23350318Y-15973886D01*
X23259309Y-15949500D01*
X23259307Y-15949500D01*
X23249500Y-15949500D01*
X23191309Y-15930593D01*
X23155345Y-15881093D01*
X23150500Y-15850500D01*
X23150500Y-15840692D01*
X23150500Y-15840691D01*
X23119799Y-15726114D01*
X23119797Y-15726111D01*
X23119797Y-15726109D01*
X23060492Y-15623391D01*
X23060490Y-15623389D01*
X23060489Y-15623387D01*
X22976613Y-15539511D01*
X22976610Y-15539509D01*
X22976608Y-15539507D01*
X22873889Y-15480202D01*
X22873890Y-15480202D01*
X22836569Y-15470202D01*
X22759309Y-15449500D01*
X22640691Y-15449500D01*
X22572537Y-15467762D01*
X22526109Y-15480202D01*
X22423391Y-15539507D01*
X22339507Y-15623391D01*
X22280202Y-15726109D01*
X22266620Y-15776798D01*
X22249500Y-15840691D01*
X21922590Y-15840691D01*
X21922590Y-15830691D01*
X21891889Y-15716114D01*
X21891887Y-15716111D01*
X21891887Y-15716109D01*
X21832582Y-15613391D01*
X21832580Y-15613389D01*
X21832579Y-15613387D01*
X21748703Y-15529511D01*
X21748700Y-15529509D01*
X21748698Y-15529507D01*
X21645979Y-15470202D01*
X21645980Y-15470202D01*
X21627219Y-15465175D01*
X21531399Y-15439500D01*
X21412781Y-15439500D01*
X21342657Y-15458289D01*
X21298199Y-15470202D01*
X21195481Y-15529507D01*
X21111593Y-15613395D01*
X21110366Y-15614995D01*
X21109176Y-15615812D01*
X21107013Y-15617976D01*
X21106611Y-15617574D01*
X21059938Y-15649646D01*
X20998774Y-15648038D01*
X20961828Y-15624725D01*
X20945372Y-15608270D01*
X20945366Y-15608265D01*
X20842647Y-15548960D01*
X20842648Y-15548960D01*
X20811791Y-15540692D01*
X20728067Y-15518258D01*
X20609449Y-15518258D01*
X20539325Y-15537047D01*
X20494867Y-15548960D01*
X20386525Y-15611513D01*
X20385704Y-15610091D01*
X20335571Y-15627841D01*
X20283487Y-15614611D01*
X20223889Y-15580202D01*
X20223890Y-15580202D01*
X20210351Y-15576574D01*
X20109309Y-15549500D01*
X19990691Y-15549500D01*
X19920567Y-15568289D01*
X19876109Y-15580202D01*
X19773391Y-15639507D01*
X19689507Y-15723391D01*
X19630202Y-15826109D01*
X19620940Y-15860677D01*
X19599500Y-15940691D01*
X19296411Y-15940691D01*
X19360489Y-15876613D01*
X19369690Y-15860677D01*
X19419797Y-15773890D01*
X19419797Y-15773888D01*
X19419799Y-15773886D01*
X19450500Y-15659309D01*
X19450500Y-15540691D01*
X19419799Y-15426114D01*
X19419797Y-15426111D01*
X19419797Y-15426109D01*
X19360492Y-15323391D01*
X19360490Y-15323389D01*
X19360489Y-15323387D01*
X19276613Y-15239511D01*
X19276610Y-15239509D01*
X19276608Y-15239507D01*
X19173889Y-15180202D01*
X19173890Y-15180202D01*
X19160351Y-15176574D01*
X19059309Y-15149500D01*
X18940691Y-15149500D01*
X18870567Y-15168289D01*
X18826109Y-15180202D01*
X18723391Y-15239507D01*
X18639507Y-15323391D01*
X18580203Y-15426108D01*
X18578316Y-15430665D01*
X18538579Y-15477190D01*
X18483468Y-15491720D01*
X18472156Y-15491333D01*
X18450637Y-15485567D01*
X18332019Y-15485567D01*
X18328795Y-15486430D01*
X18317958Y-15486060D01*
X18296521Y-15478275D01*
X18274096Y-15474117D01*
X18267573Y-15467762D01*
X18260448Y-15465175D01*
X18251841Y-15452435D01*
X18235606Y-15436618D01*
X18212480Y-15396563D01*
X18212478Y-15396561D01*
X18212477Y-15396559D01*
X18128601Y-15312683D01*
X18128598Y-15312681D01*
X18128596Y-15312679D01*
X18025877Y-15253374D01*
X18025878Y-15253374D01*
X17978824Y-15240766D01*
X17911297Y-15222672D01*
X17792679Y-15222672D01*
X17725152Y-15240766D01*
X17664050Y-15237563D01*
X17629527Y-15215144D01*
X17554079Y-15139696D01*
X17554076Y-15139694D01*
X17554074Y-15139692D01*
X17451355Y-15080387D01*
X17451356Y-15080387D01*
X17437817Y-15076759D01*
X17336775Y-15049685D01*
X17218157Y-15049685D01*
X17148033Y-15068474D01*
X17103575Y-15080387D01*
X17000857Y-15139692D01*
X16916973Y-15223576D01*
X16857668Y-15326294D01*
X16857667Y-15326299D01*
X16826966Y-15440876D01*
X11777978Y-15440876D01*
X11776613Y-15439511D01*
X11776610Y-15439509D01*
X11776608Y-15439507D01*
X11673889Y-15380202D01*
X11673890Y-15380202D01*
X11660351Y-15376574D01*
X11559309Y-15349500D01*
X11440691Y-15349500D01*
X11370567Y-15368289D01*
X11326109Y-15380202D01*
X11223391Y-15439507D01*
X11139507Y-15523391D01*
X11080202Y-15626109D01*
X11072017Y-15656656D01*
X11049500Y-15740691D01*
X6550500Y-15740691D01*
X6519799Y-15626114D01*
X6519797Y-15626111D01*
X6519797Y-15626109D01*
X6460492Y-15523391D01*
X6460490Y-15523389D01*
X6460489Y-15523387D01*
X6376613Y-15439511D01*
X6376610Y-15439509D01*
X6376608Y-15439507D01*
X6273889Y-15380202D01*
X6273890Y-15380202D01*
X6260351Y-15376574D01*
X6159309Y-15349500D01*
X6040691Y-15349500D01*
X5970567Y-15368289D01*
X5926109Y-15380202D01*
X5823391Y-15439507D01*
X5739507Y-15523391D01*
X5680202Y-15626109D01*
X5672017Y-15656656D01*
X5649500Y-15740691D01*
X-299500Y-15740691D01*
X-299500Y-12940691D01*
X3349500Y-12940691D01*
X3349500Y-13059309D01*
X3376574Y-13160351D01*
X3380202Y-13173890D01*
X3439507Y-13276608D01*
X3439509Y-13276610D01*
X3439511Y-13276613D01*
X3523387Y-13360489D01*
X3523389Y-13360490D01*
X3523391Y-13360492D01*
X3626110Y-13419797D01*
X3626111Y-13419797D01*
X3626114Y-13419799D01*
X3740691Y-13450500D01*
X3740693Y-13450500D01*
X3859307Y-13450500D01*
X3859309Y-13450500D01*
X3973886Y-13419799D01*
X3973888Y-13419797D01*
X3973890Y-13419797D01*
X4076608Y-13360492D01*
X4076608Y-13360491D01*
X4076613Y-13360489D01*
X4160489Y-13276613D01*
X4219799Y-13173886D01*
X4250500Y-13059309D01*
X4250500Y-12940691D01*
X4219799Y-12826114D01*
X4219797Y-12826111D01*
X4219797Y-12826109D01*
X4160492Y-12723391D01*
X4160490Y-12723389D01*
X4160489Y-12723387D01*
X4076613Y-12639511D01*
X4076610Y-12639509D01*
X4076608Y-12639507D01*
X3973889Y-12580202D01*
X3973890Y-12580202D01*
X3960351Y-12576574D01*
X3859309Y-12549500D01*
X3740691Y-12549500D01*
X3670567Y-12568289D01*
X3626109Y-12580202D01*
X3523391Y-12639507D01*
X3439507Y-12723391D01*
X3380202Y-12826109D01*
X3380201Y-12826114D01*
X3349500Y-12940691D01*
X-299500Y-12940691D01*
X-299500Y-11464442D01*
X18090349Y-11464442D01*
X18090349Y-11583060D01*
X18117423Y-11684102D01*
X18121051Y-11697641D01*
X18180356Y-11800359D01*
X18180358Y-11800361D01*
X18180360Y-11800364D01*
X18264236Y-11884240D01*
X18264238Y-11884241D01*
X18264240Y-11884243D01*
X18366959Y-11943548D01*
X18366960Y-11943548D01*
X18366963Y-11943550D01*
X18481540Y-11974251D01*
X18481542Y-11974251D01*
X18600156Y-11974251D01*
X18600158Y-11974251D01*
X18714735Y-11943550D01*
X18714737Y-11943548D01*
X18714739Y-11943548D01*
X18817457Y-11884243D01*
X18817457Y-11884242D01*
X18817462Y-11884240D01*
X18901338Y-11800364D01*
X18960648Y-11697637D01*
X18991349Y-11583060D01*
X18991349Y-11464442D01*
X18960648Y-11349865D01*
X18960646Y-11349862D01*
X18960646Y-11349860D01*
X18901341Y-11247142D01*
X18901339Y-11247140D01*
X18901338Y-11247138D01*
X18817462Y-11163262D01*
X18817459Y-11163260D01*
X18817457Y-11163258D01*
X18714738Y-11103953D01*
X18714739Y-11103953D01*
X18701200Y-11100325D01*
X18600158Y-11073251D01*
X18481540Y-11073251D01*
X18411416Y-11092040D01*
X18366958Y-11103953D01*
X18264240Y-11163258D01*
X18180356Y-11247142D01*
X18121051Y-11349860D01*
X18121050Y-11349865D01*
X18090349Y-11464442D01*
X-299500Y-11464442D01*
X-299500Y-10840691D01*
X9449500Y-10840691D01*
X9449500Y-10959309D01*
X9476574Y-11060351D01*
X9480202Y-11073890D01*
X9539507Y-11176608D01*
X9539509Y-11176610D01*
X9539511Y-11176613D01*
X9623387Y-11260489D01*
X9623389Y-11260490D01*
X9623391Y-11260492D01*
X9726110Y-11319797D01*
X9726111Y-11319797D01*
X9726114Y-11319799D01*
X9840691Y-11350500D01*
X9840693Y-11350500D01*
X9959307Y-11350500D01*
X9959309Y-11350500D01*
X10073886Y-11319799D01*
X10073888Y-11319797D01*
X10073890Y-11319797D01*
X10176608Y-11260492D01*
X10176608Y-11260491D01*
X10176613Y-11260489D01*
X10260489Y-11176613D01*
X10319799Y-11073886D01*
X10350500Y-10959309D01*
X10350500Y-10840691D01*
X10319799Y-10726114D01*
X10319797Y-10726111D01*
X10319797Y-10726109D01*
X10260492Y-10623391D01*
X10260490Y-10623389D01*
X10260489Y-10623387D01*
X10176613Y-10539511D01*
X10176610Y-10539509D01*
X10176608Y-10539507D01*
X10073889Y-10480202D01*
X10073890Y-10480202D01*
X10060351Y-10476574D01*
X9959309Y-10449500D01*
X9840691Y-10449500D01*
X9770567Y-10468289D01*
X9726109Y-10480202D01*
X9623391Y-10539507D01*
X9539507Y-10623391D01*
X9480202Y-10726109D01*
X9480201Y-10726114D01*
X9449500Y-10840691D01*
X-299500Y-10840691D01*
X-299500Y-8740691D01*
X23249500Y-8740691D01*
X23249500Y-8859309D01*
X23276574Y-8960351D01*
X23280202Y-8973890D01*
X23339507Y-9076608D01*
X23339509Y-9076610D01*
X23339511Y-9076613D01*
X23423387Y-9160489D01*
X23423389Y-9160490D01*
X23423391Y-9160492D01*
X23526110Y-9219797D01*
X23526111Y-9219797D01*
X23526114Y-9219799D01*
X23640691Y-9250500D01*
X23640693Y-9250500D01*
X23759307Y-9250500D01*
X23759309Y-9250500D01*
X23873886Y-9219799D01*
X23873888Y-9219797D01*
X23873890Y-9219797D01*
X23976608Y-9160492D01*
X23976608Y-9160491D01*
X23976613Y-9160489D01*
X23979998Y-9157103D01*
X24034513Y-9129328D01*
X24094945Y-9138899D01*
X24120000Y-9157102D01*
X24123387Y-9160489D01*
X24123389Y-9160490D01*
X24123391Y-9160492D01*
X24226110Y-9219797D01*
X24226111Y-9219797D01*
X24226114Y-9219799D01*
X24340691Y-9250500D01*
X24340693Y-9250500D01*
X24459307Y-9250500D01*
X24459309Y-9250500D01*
X24573886Y-9219799D01*
X24650501Y-9175564D01*
X24710348Y-9162843D01*
X24749501Y-9175565D01*
X24826113Y-9219797D01*
X24826114Y-9219797D01*
X24826117Y-9219799D01*
X24940694Y-9250500D01*
X24940696Y-9250500D01*
X25059310Y-9250500D01*
X25059312Y-9250500D01*
X25173889Y-9219799D01*
X25173891Y-9219797D01*
X25173893Y-9219797D01*
X25276611Y-9160492D01*
X25276611Y-9160491D01*
X25276616Y-9160489D01*
X25329999Y-9107105D01*
X25384513Y-9079329D01*
X25444945Y-9088900D01*
X25470001Y-9107103D01*
X25523387Y-9160489D01*
X25523389Y-9160490D01*
X25523391Y-9160492D01*
X25626110Y-9219797D01*
X25626111Y-9219797D01*
X25626114Y-9219799D01*
X25740691Y-9250500D01*
X25740693Y-9250500D01*
X25859307Y-9250500D01*
X25859309Y-9250500D01*
X25973886Y-9219799D01*
X25973888Y-9219797D01*
X25973890Y-9219797D01*
X26076608Y-9160492D01*
X26076608Y-9160491D01*
X26076613Y-9160489D01*
X26160489Y-9076613D01*
X26219799Y-8973886D01*
X26250500Y-8859309D01*
X26250500Y-8740691D01*
X26219799Y-8626114D01*
X26219797Y-8626111D01*
X26219797Y-8626109D01*
X26160492Y-8523391D01*
X26160490Y-8523389D01*
X26160489Y-8523387D01*
X26076613Y-8439511D01*
X26076610Y-8439509D01*
X26076608Y-8439507D01*
X25973889Y-8380202D01*
X25973890Y-8380202D01*
X25960351Y-8376574D01*
X25859309Y-8349500D01*
X25740691Y-8349500D01*
X25704084Y-8359309D01*
X25626109Y-8380202D01*
X25523391Y-8439507D01*
X25523386Y-8439511D01*
X25470004Y-8492893D01*
X25415487Y-8520670D01*
X25355055Y-8511098D01*
X25330000Y-8492895D01*
X25276616Y-8439511D01*
X25276613Y-8439509D01*
X25276611Y-8439507D01*
X25173892Y-8380202D01*
X25173893Y-8380202D01*
X25160354Y-8376574D01*
X25059312Y-8349500D01*
X24940694Y-8349500D01*
X24904087Y-8359309D01*
X24826115Y-8380201D01*
X24749501Y-8424435D01*
X24689652Y-8437156D01*
X24650501Y-8424434D01*
X24573889Y-8380202D01*
X24573890Y-8380202D01*
X24560351Y-8376574D01*
X24459309Y-8349500D01*
X24340691Y-8349500D01*
X24304084Y-8359309D01*
X24226109Y-8380202D01*
X24123391Y-8439507D01*
X24123383Y-8439513D01*
X24119999Y-8442898D01*
X24065481Y-8470672D01*
X24005049Y-8461097D01*
X23980001Y-8442898D01*
X23976616Y-8439513D01*
X23976608Y-8439507D01*
X23873889Y-8380202D01*
X23873890Y-8380202D01*
X23860351Y-8376574D01*
X23759309Y-8349500D01*
X23640691Y-8349500D01*
X23604084Y-8359309D01*
X23526109Y-8380202D01*
X23423391Y-8439507D01*
X23339507Y-8523391D01*
X23280202Y-8626109D01*
X23280201Y-8626114D01*
X23249500Y-8740691D01*
X-299500Y-8740691D01*
X-299500Y-7840691D01*
X3349500Y-7840691D01*
X3349500Y-7959309D01*
X3366670Y-8023387D01*
X3380202Y-8073890D01*
X3439507Y-8176608D01*
X3439509Y-8176610D01*
X3439511Y-8176613D01*
X3523387Y-8260489D01*
X3523389Y-8260490D01*
X3523391Y-8260492D01*
X3626110Y-8319797D01*
X3626111Y-8319797D01*
X3626114Y-8319799D01*
X3740691Y-8350500D01*
X3740693Y-8350500D01*
X3859307Y-8350500D01*
X3859309Y-8350500D01*
X3973886Y-8319799D01*
X3973888Y-8319797D01*
X3973890Y-8319797D01*
X4076608Y-8260492D01*
X4076608Y-8260491D01*
X4076613Y-8260489D01*
X4096411Y-8240691D01*
X30249500Y-8240691D01*
X30249500Y-8359309D01*
X30266950Y-8424434D01*
X30280202Y-8473890D01*
X30339507Y-8576608D01*
X30339509Y-8576610D01*
X30339511Y-8576613D01*
X30423387Y-8660489D01*
X30423389Y-8660490D01*
X30423391Y-8660492D01*
X30526110Y-8719797D01*
X30526111Y-8719797D01*
X30526114Y-8719799D01*
X30640691Y-8750500D01*
X30640693Y-8750500D01*
X30759307Y-8750500D01*
X30759309Y-8750500D01*
X30873886Y-8719799D01*
X30873888Y-8719797D01*
X30873890Y-8719797D01*
X30976608Y-8660492D01*
X30976608Y-8660491D01*
X30976613Y-8660489D01*
X31060489Y-8576613D01*
X31091217Y-8523391D01*
X31119797Y-8473890D01*
X31119797Y-8473888D01*
X31119799Y-8473886D01*
X31150500Y-8359309D01*
X31150500Y-8240691D01*
X31119799Y-8126114D01*
X31119797Y-8126111D01*
X31119797Y-8126109D01*
X31060492Y-8023391D01*
X31060490Y-8023389D01*
X31060489Y-8023387D01*
X30976613Y-7939511D01*
X30976610Y-7939509D01*
X30976608Y-7939507D01*
X30873889Y-7880202D01*
X30873890Y-7880202D01*
X30860351Y-7876574D01*
X30759309Y-7849500D01*
X30640691Y-7849500D01*
X30570567Y-7868289D01*
X30526109Y-7880202D01*
X30423391Y-7939507D01*
X30339507Y-8023391D01*
X30280202Y-8126109D01*
X30280201Y-8126114D01*
X30249500Y-8240691D01*
X4096411Y-8240691D01*
X4160489Y-8176613D01*
X4219799Y-8073886D01*
X4250500Y-7959309D01*
X4250500Y-7840691D01*
X4219799Y-7726114D01*
X4219797Y-7726111D01*
X4219797Y-7726109D01*
X4160492Y-7623391D01*
X4160490Y-7623389D01*
X4160489Y-7623387D01*
X4076613Y-7539511D01*
X4076610Y-7539509D01*
X4076608Y-7539507D01*
X3973889Y-7480202D01*
X3973890Y-7480202D01*
X3960351Y-7476574D01*
X3859309Y-7449500D01*
X3740691Y-7449500D01*
X3670567Y-7468289D01*
X3626109Y-7480202D01*
X3523391Y-7539507D01*
X3439507Y-7623391D01*
X3380202Y-7726109D01*
X3380201Y-7726114D01*
X3349500Y-7840691D01*
X-299500Y-7840691D01*
X-299500Y-6050691D01*
X21749500Y-6050691D01*
X21749500Y-6169309D01*
X21763029Y-6219799D01*
X21780202Y-6283890D01*
X21839507Y-6386608D01*
X21839509Y-6386610D01*
X21839511Y-6386613D01*
X21923387Y-6470489D01*
X21923389Y-6470490D01*
X21923391Y-6470492D01*
X22026110Y-6529797D01*
X22026111Y-6529797D01*
X22026114Y-6529799D01*
X22140691Y-6560500D01*
X22140693Y-6560500D01*
X22259307Y-6560500D01*
X22259309Y-6560500D01*
X22373886Y-6529799D01*
X22373888Y-6529797D01*
X22373890Y-6529797D01*
X22476608Y-6470492D01*
X22476608Y-6470491D01*
X22476613Y-6470489D01*
X22560489Y-6386613D01*
X22619799Y-6283886D01*
X22642320Y-6199836D01*
X22675643Y-6148524D01*
X22732765Y-6126597D01*
X22763567Y-6129834D01*
X22840691Y-6150500D01*
X22840692Y-6150500D01*
X22959307Y-6150500D01*
X22959309Y-6150500D01*
X23073886Y-6119799D01*
X23073888Y-6119797D01*
X23073890Y-6119797D01*
X23176608Y-6060492D01*
X23176608Y-6060491D01*
X23176613Y-6060489D01*
X23260489Y-5976613D01*
X23291551Y-5922811D01*
X23337020Y-5881872D01*
X23397870Y-5875476D01*
X23450858Y-5906069D01*
X23472913Y-5946689D01*
X23480200Y-5973885D01*
X23480202Y-5973889D01*
X23539507Y-6076608D01*
X23539509Y-6076610D01*
X23539511Y-6076613D01*
X23623387Y-6160489D01*
X23623389Y-6160490D01*
X23623391Y-6160492D01*
X23726110Y-6219797D01*
X23726111Y-6219797D01*
X23726114Y-6219799D01*
X23840691Y-6250500D01*
X23840693Y-6250500D01*
X23959307Y-6250500D01*
X23959309Y-6250500D01*
X24073886Y-6219799D01*
X24073888Y-6219797D01*
X24073890Y-6219797D01*
X24176608Y-6160492D01*
X24176608Y-6160491D01*
X24176613Y-6160489D01*
X24260489Y-6076613D01*
X24296887Y-6013571D01*
X24314264Y-5983474D01*
X24359733Y-5942533D01*
X24420584Y-5936137D01*
X24473572Y-5966730D01*
X24485736Y-5983474D01*
X24539507Y-6076608D01*
X24539509Y-6076610D01*
X24539511Y-6076613D01*
X24623387Y-6160489D01*
X24623389Y-6160490D01*
X24623391Y-6160492D01*
X24726110Y-6219797D01*
X24726111Y-6219797D01*
X24726114Y-6219799D01*
X24840691Y-6250500D01*
X24840693Y-6250500D01*
X24959307Y-6250500D01*
X24959309Y-6250500D01*
X25073886Y-6219799D01*
X25073888Y-6219797D01*
X25073890Y-6219797D01*
X25176608Y-6160492D01*
X25176608Y-6160491D01*
X25176613Y-6160489D01*
X25260489Y-6076613D01*
X25296887Y-6013571D01*
X25314264Y-5983474D01*
X25359733Y-5942533D01*
X25420584Y-5936137D01*
X25473572Y-5966730D01*
X25485736Y-5983474D01*
X25539507Y-6076608D01*
X25539509Y-6076610D01*
X25539511Y-6076613D01*
X25623387Y-6160489D01*
X25623389Y-6160490D01*
X25623391Y-6160492D01*
X25726110Y-6219797D01*
X25726111Y-6219797D01*
X25726114Y-6219799D01*
X25840691Y-6250500D01*
X25840693Y-6250500D01*
X25959307Y-6250500D01*
X25959309Y-6250500D01*
X26073886Y-6219799D01*
X26073888Y-6219797D01*
X26073890Y-6219797D01*
X26176608Y-6160492D01*
X26176608Y-6160491D01*
X26176613Y-6160489D01*
X26260489Y-6076613D01*
X26273249Y-6054512D01*
X26318715Y-6013571D01*
X26379565Y-6007174D01*
X26432554Y-6037764D01*
X26454611Y-6078387D01*
X26480200Y-6173885D01*
X26480202Y-6173889D01*
X26539507Y-6276608D01*
X26539509Y-6276610D01*
X26539511Y-6276613D01*
X26623387Y-6360489D01*
X26623389Y-6360490D01*
X26623391Y-6360492D01*
X26726110Y-6419797D01*
X26726111Y-6419797D01*
X26726114Y-6419799D01*
X26840691Y-6450500D01*
X26840693Y-6450500D01*
X26959307Y-6450500D01*
X26959309Y-6450500D01*
X27073886Y-6419799D01*
X27073888Y-6419797D01*
X27073890Y-6419797D01*
X27176608Y-6360492D01*
X27176608Y-6360491D01*
X27176613Y-6360489D01*
X27260489Y-6276613D01*
X27260492Y-6276608D01*
X27319797Y-6173890D01*
X27319797Y-6173888D01*
X27319799Y-6173886D01*
X27350500Y-6059309D01*
X27350500Y-5940691D01*
X30449500Y-5940691D01*
X30449500Y-6059309D01*
X30473405Y-6148524D01*
X30480202Y-6173890D01*
X30539507Y-6276608D01*
X30539509Y-6276610D01*
X30539511Y-6276613D01*
X30623387Y-6360489D01*
X30623389Y-6360490D01*
X30623391Y-6360492D01*
X30726110Y-6419797D01*
X30726111Y-6419797D01*
X30726114Y-6419799D01*
X30840691Y-6450500D01*
X30840693Y-6450500D01*
X30959307Y-6450500D01*
X30959309Y-6450500D01*
X31073886Y-6419799D01*
X31073888Y-6419797D01*
X31073890Y-6419797D01*
X31176608Y-6360492D01*
X31176608Y-6360491D01*
X31176613Y-6360489D01*
X31260489Y-6276613D01*
X31260492Y-6276608D01*
X31319797Y-6173890D01*
X31319797Y-6173888D01*
X31319799Y-6173886D01*
X31350500Y-6059309D01*
X31350500Y-5940691D01*
X31319799Y-5826114D01*
X31319797Y-5826111D01*
X31319797Y-5826109D01*
X31295313Y-5783702D01*
X31270480Y-5740691D01*
X32349500Y-5740691D01*
X32349500Y-5859309D01*
X32366516Y-5922813D01*
X32380202Y-5973890D01*
X32439507Y-6076608D01*
X32439509Y-6076610D01*
X32439511Y-6076613D01*
X32523387Y-6160489D01*
X32523389Y-6160490D01*
X32523391Y-6160492D01*
X32626110Y-6219797D01*
X32626111Y-6219797D01*
X32626114Y-6219799D01*
X32740691Y-6250500D01*
X32740693Y-6250500D01*
X32859307Y-6250500D01*
X32859309Y-6250500D01*
X32973886Y-6219799D01*
X32973888Y-6219797D01*
X32973890Y-6219797D01*
X33076608Y-6160492D01*
X33076608Y-6160491D01*
X33076613Y-6160489D01*
X33160489Y-6076613D01*
X33200580Y-6007174D01*
X33219797Y-5973890D01*
X33219797Y-5973888D01*
X33219799Y-5973886D01*
X33250500Y-5859309D01*
X33250500Y-5740691D01*
X33219799Y-5626114D01*
X33219797Y-5626111D01*
X33219797Y-5626109D01*
X33160492Y-5523391D01*
X33160490Y-5523389D01*
X33160489Y-5523387D01*
X33076613Y-5439511D01*
X33076610Y-5439509D01*
X33076608Y-5439507D01*
X32973889Y-5380202D01*
X32973890Y-5380202D01*
X32960351Y-5376574D01*
X32859309Y-5349500D01*
X32740691Y-5349500D01*
X32704084Y-5359309D01*
X32626109Y-5380202D01*
X32523391Y-5439507D01*
X32439507Y-5523391D01*
X32380202Y-5626109D01*
X32380201Y-5626114D01*
X32349500Y-5740691D01*
X31270480Y-5740691D01*
X31260492Y-5723391D01*
X31260490Y-5723389D01*
X31260489Y-5723387D01*
X31176613Y-5639511D01*
X31176610Y-5639509D01*
X31176608Y-5639507D01*
X31073889Y-5580202D01*
X31073890Y-5580202D01*
X31060351Y-5576574D01*
X30959309Y-5549500D01*
X30840691Y-5549500D01*
X30770567Y-5568289D01*
X30726109Y-5580202D01*
X30623391Y-5639507D01*
X30539507Y-5723391D01*
X30480202Y-5826109D01*
X30480201Y-5826114D01*
X30449500Y-5940691D01*
X27350500Y-5940691D01*
X27319799Y-5826114D01*
X27319797Y-5826111D01*
X27319797Y-5826109D01*
X27260492Y-5723391D01*
X27260490Y-5723389D01*
X27260489Y-5723387D01*
X27176613Y-5639511D01*
X27176610Y-5639509D01*
X27176608Y-5639507D01*
X27073889Y-5580202D01*
X27073890Y-5580202D01*
X27060351Y-5576574D01*
X26959309Y-5549500D01*
X26840691Y-5549500D01*
X26770567Y-5568289D01*
X26726109Y-5580202D01*
X26623391Y-5639507D01*
X26539509Y-5723389D01*
X26526750Y-5745489D01*
X26481280Y-5786429D01*
X26420430Y-5792824D01*
X26367442Y-5762231D01*
X26345387Y-5721611D01*
X26319799Y-5626114D01*
X26319797Y-5626111D01*
X26319797Y-5626109D01*
X26260492Y-5523391D01*
X26260490Y-5523389D01*
X26260489Y-5523387D01*
X26176613Y-5439511D01*
X26176610Y-5439509D01*
X26176608Y-5439507D01*
X26073889Y-5380202D01*
X26073890Y-5380202D01*
X26060351Y-5376574D01*
X25959309Y-5349500D01*
X25840691Y-5349500D01*
X25804084Y-5359309D01*
X25726109Y-5380202D01*
X25623391Y-5439507D01*
X25539509Y-5523389D01*
X25485736Y-5616526D01*
X25440266Y-5657466D01*
X25379416Y-5663861D01*
X25326428Y-5633268D01*
X25314264Y-5616526D01*
X25260490Y-5523389D01*
X25260489Y-5523387D01*
X25176613Y-5439511D01*
X25176610Y-5439509D01*
X25176608Y-5439507D01*
X25073889Y-5380202D01*
X25073890Y-5380202D01*
X25060351Y-5376574D01*
X24959309Y-5349500D01*
X24840691Y-5349500D01*
X24804084Y-5359309D01*
X24726109Y-5380202D01*
X24623391Y-5439507D01*
X24539509Y-5523389D01*
X24485736Y-5616526D01*
X24440266Y-5657466D01*
X24379416Y-5663861D01*
X24326428Y-5633268D01*
X24314264Y-5616526D01*
X24260490Y-5523389D01*
X24260489Y-5523387D01*
X24176613Y-5439511D01*
X24176610Y-5439509D01*
X24176608Y-5439507D01*
X24073889Y-5380202D01*
X24073890Y-5380202D01*
X24060351Y-5376574D01*
X23959309Y-5349500D01*
X23840691Y-5349500D01*
X23804084Y-5359309D01*
X23726109Y-5380202D01*
X23623391Y-5439507D01*
X23539510Y-5523388D01*
X23508448Y-5577188D01*
X23462977Y-5618128D01*
X23402127Y-5624522D01*
X23349139Y-5593929D01*
X23327086Y-5553310D01*
X23319799Y-5526114D01*
X23318225Y-5523387D01*
X23260492Y-5423391D01*
X23260490Y-5423389D01*
X23260489Y-5423387D01*
X23176613Y-5339511D01*
X23176610Y-5339509D01*
X23176608Y-5339507D01*
X23073889Y-5280202D01*
X23073890Y-5280202D01*
X23060351Y-5276574D01*
X22959309Y-5249500D01*
X22840691Y-5249500D01*
X22770567Y-5268289D01*
X22726109Y-5280202D01*
X22623391Y-5339507D01*
X22539507Y-5423391D01*
X22480202Y-5526110D01*
X22480200Y-5526114D01*
X22457679Y-5610162D01*
X22424355Y-5661476D01*
X22367233Y-5683402D01*
X22336432Y-5680165D01*
X22259309Y-5659500D01*
X22140691Y-5659500D01*
X22070567Y-5678289D01*
X22026109Y-5690202D01*
X21923391Y-5749507D01*
X21839507Y-5833391D01*
X21780202Y-5936109D01*
X21778974Y-5940692D01*
X21749500Y-6050691D01*
X-299500Y-6050691D01*
X-299500Y-5240691D01*
X6849500Y-5240691D01*
X6849500Y-5359309D01*
X6866670Y-5423387D01*
X6880202Y-5473890D01*
X6939507Y-5576608D01*
X6939509Y-5576610D01*
X6939511Y-5576613D01*
X7023387Y-5660489D01*
X7023389Y-5660490D01*
X7023391Y-5660492D01*
X7126110Y-5719797D01*
X7126111Y-5719797D01*
X7126114Y-5719799D01*
X7240691Y-5750500D01*
X7240693Y-5750500D01*
X7359307Y-5750500D01*
X7359309Y-5750500D01*
X7473886Y-5719799D01*
X7473888Y-5719797D01*
X7473890Y-5719797D01*
X7576608Y-5660492D01*
X7576608Y-5660491D01*
X7576613Y-5660489D01*
X7660489Y-5576613D01*
X7691219Y-5523388D01*
X7719797Y-5473890D01*
X7719797Y-5473888D01*
X7719799Y-5473886D01*
X7750500Y-5359309D01*
X7750500Y-5240691D01*
X9149500Y-5240691D01*
X9149500Y-5359309D01*
X9166670Y-5423387D01*
X9180202Y-5473890D01*
X9239507Y-5576608D01*
X9239509Y-5576610D01*
X9239511Y-5576613D01*
X9323387Y-5660489D01*
X9323389Y-5660490D01*
X9323391Y-5660492D01*
X9426110Y-5719797D01*
X9426111Y-5719797D01*
X9426114Y-5719799D01*
X9540691Y-5750500D01*
X9540693Y-5750500D01*
X9659307Y-5750500D01*
X9659309Y-5750500D01*
X9773886Y-5719799D01*
X9773888Y-5719797D01*
X9773890Y-5719797D01*
X9876608Y-5660492D01*
X9876608Y-5660491D01*
X9876613Y-5660489D01*
X9960489Y-5576613D01*
X9991219Y-5523388D01*
X10019797Y-5473890D01*
X10019797Y-5473888D01*
X10019799Y-5473886D01*
X10050500Y-5359309D01*
X10050500Y-5240691D01*
X10019799Y-5126114D01*
X10019797Y-5126111D01*
X10019797Y-5126109D01*
X9960492Y-5023391D01*
X9960490Y-5023389D01*
X9960489Y-5023387D01*
X9876613Y-4939511D01*
X9876610Y-4939509D01*
X9876608Y-4939507D01*
X9773889Y-4880202D01*
X9773890Y-4880202D01*
X9760351Y-4876574D01*
X9659309Y-4849500D01*
X9540691Y-4849500D01*
X9470567Y-4868289D01*
X9426109Y-4880202D01*
X9323391Y-4939507D01*
X9239507Y-5023391D01*
X9180202Y-5126109D01*
X9180201Y-5126114D01*
X9149500Y-5240691D01*
X7750500Y-5240691D01*
X7719799Y-5126114D01*
X7719797Y-5126111D01*
X7719797Y-5126109D01*
X7660492Y-5023391D01*
X7660490Y-5023389D01*
X7660489Y-5023387D01*
X7576613Y-4939511D01*
X7576610Y-4939509D01*
X7576608Y-4939507D01*
X7473889Y-4880202D01*
X7473890Y-4880202D01*
X7460351Y-4876574D01*
X7359309Y-4849500D01*
X7240691Y-4849500D01*
X7170567Y-4868289D01*
X7126109Y-4880202D01*
X7023391Y-4939507D01*
X6939507Y-5023391D01*
X6880202Y-5126109D01*
X6880201Y-5126114D01*
X6849500Y-5240691D01*
X-299500Y-5240691D01*
X-299500Y-1628712D01*
X-100500Y-1628712D01*
X-100500Y-1871288D01*
X-68838Y-2111789D01*
X-6054Y-2346100D01*
X41332Y-2460500D01*
X86772Y-2570204D01*
X86774Y-2570208D01*
X86776Y-2570212D01*
X208064Y-2780289D01*
X208066Y-2780292D01*
X355729Y-2972731D01*
X355731Y-2972733D01*
X355735Y-2972738D01*
X527262Y-3144265D01*
X527266Y-3144268D01*
X527268Y-3144270D01*
X696188Y-3273886D01*
X719711Y-3291936D01*
X929788Y-3413224D01*
X1153900Y-3506054D01*
X1388211Y-3568838D01*
X1628712Y-3600500D01*
X1628713Y-3600500D01*
X1871287Y-3600500D01*
X1871288Y-3600500D01*
X2111789Y-3568838D01*
X2346100Y-3506054D01*
X2570212Y-3413224D01*
X2780289Y-3291936D01*
X2972738Y-3144265D01*
X3076312Y-3040691D01*
X7149500Y-3040691D01*
X7149500Y-3159309D01*
X7176574Y-3260351D01*
X7180202Y-3273890D01*
X7239507Y-3376608D01*
X7239509Y-3376610D01*
X7239511Y-3376613D01*
X7323387Y-3460489D01*
X7323389Y-3460490D01*
X7323391Y-3460492D01*
X7426110Y-3519797D01*
X7426111Y-3519797D01*
X7426114Y-3519799D01*
X7540691Y-3550500D01*
X7540693Y-3550500D01*
X7659307Y-3550500D01*
X7659309Y-3550500D01*
X7773886Y-3519799D01*
X7773888Y-3519797D01*
X7773890Y-3519797D01*
X7876608Y-3460492D01*
X7876608Y-3460491D01*
X7876613Y-3460489D01*
X7960489Y-3376613D01*
X8009378Y-3291936D01*
X8019797Y-3273890D01*
X8019797Y-3273888D01*
X8019799Y-3273886D01*
X8050500Y-3159309D01*
X8050500Y-3040691D01*
X8047797Y-3030605D01*
X8939414Y-3030605D01*
X8939414Y-3149223D01*
X8942116Y-3159307D01*
X8970116Y-3263804D01*
X9029421Y-3366522D01*
X9029423Y-3366524D01*
X9029425Y-3366527D01*
X9113301Y-3450403D01*
X9113303Y-3450404D01*
X9113305Y-3450406D01*
X9216024Y-3509711D01*
X9216025Y-3509711D01*
X9216028Y-3509713D01*
X9330605Y-3540414D01*
X9330607Y-3540414D01*
X9449221Y-3540414D01*
X9449223Y-3540414D01*
X9563800Y-3509713D01*
X9563802Y-3509711D01*
X9563804Y-3509711D01*
X9666522Y-3450406D01*
X9666522Y-3450405D01*
X9666527Y-3450403D01*
X9750403Y-3366527D01*
X9793469Y-3291936D01*
X9809711Y-3263804D01*
X9809711Y-3263802D01*
X9809713Y-3263800D01*
X9840414Y-3149223D01*
X9840414Y-3030605D01*
X9809713Y-2916028D01*
X9809711Y-2916025D01*
X9809711Y-2916023D01*
X9750406Y-2813305D01*
X9750404Y-2813303D01*
X9750403Y-2813301D01*
X9666527Y-2729425D01*
X9666524Y-2729423D01*
X9666522Y-2729421D01*
X9563803Y-2670116D01*
X9563804Y-2670116D01*
X9550265Y-2666488D01*
X9449223Y-2639414D01*
X9330605Y-2639414D01*
X9260481Y-2658203D01*
X9216023Y-2670116D01*
X9113305Y-2729421D01*
X9029421Y-2813305D01*
X8970116Y-2916023D01*
X8952951Y-2980083D01*
X8939414Y-3030605D01*
X8047797Y-3030605D01*
X8019799Y-2926114D01*
X8019797Y-2926111D01*
X8019797Y-2926109D01*
X7960492Y-2823391D01*
X7960490Y-2823389D01*
X7960489Y-2823387D01*
X7876613Y-2739511D01*
X7876610Y-2739509D01*
X7876608Y-2739507D01*
X7773889Y-2680202D01*
X7773890Y-2680202D01*
X7736248Y-2670116D01*
X7659309Y-2649500D01*
X7540691Y-2649500D01*
X7470567Y-2668289D01*
X7426109Y-2680202D01*
X7323391Y-2739507D01*
X7239507Y-2823391D01*
X7180202Y-2926109D01*
X7180201Y-2926114D01*
X7149500Y-3040691D01*
X3076312Y-3040691D01*
X3144265Y-2972738D01*
X3291936Y-2780289D01*
X3413224Y-2570212D01*
X3506054Y-2346100D01*
X3518970Y-2297896D01*
X12092546Y-2297896D01*
X12092546Y-2416514D01*
X12096106Y-2429799D01*
X12123248Y-2531095D01*
X12182553Y-2633813D01*
X12182555Y-2633815D01*
X12182557Y-2633818D01*
X12266433Y-2717694D01*
X12266435Y-2717695D01*
X12266437Y-2717697D01*
X12369156Y-2777002D01*
X12369157Y-2777002D01*
X12369160Y-2777004D01*
X12483737Y-2807705D01*
X12483739Y-2807705D01*
X12602353Y-2807705D01*
X12602355Y-2807705D01*
X12716932Y-2777004D01*
X12716934Y-2777002D01*
X12716936Y-2777002D01*
X12819654Y-2717697D01*
X12819654Y-2717696D01*
X12819659Y-2717694D01*
X12903535Y-2633818D01*
X12903538Y-2633813D01*
X12962843Y-2531095D01*
X12962843Y-2531093D01*
X12962845Y-2531091D01*
X12993546Y-2416514D01*
X12993546Y-2297896D01*
X12962845Y-2183319D01*
X12962843Y-2183316D01*
X12962843Y-2183314D01*
X12903538Y-2080596D01*
X12903536Y-2080594D01*
X12903535Y-2080592D01*
X12819659Y-1996716D01*
X12819656Y-1996714D01*
X12819654Y-1996712D01*
X12739944Y-1950691D01*
X14249500Y-1950691D01*
X14249500Y-2069309D01*
X14260882Y-2111786D01*
X14280202Y-2183890D01*
X14339507Y-2286608D01*
X14339509Y-2286610D01*
X14339511Y-2286613D01*
X14423387Y-2370489D01*
X14423389Y-2370490D01*
X14423391Y-2370492D01*
X14526110Y-2429797D01*
X14526111Y-2429797D01*
X14526114Y-2429799D01*
X14640691Y-2460500D01*
X14640693Y-2460500D01*
X14759307Y-2460500D01*
X14759309Y-2460500D01*
X14873886Y-2429799D01*
X14873888Y-2429797D01*
X14873890Y-2429797D01*
X14976608Y-2370492D01*
X14976608Y-2370491D01*
X14976613Y-2370489D01*
X15060489Y-2286613D01*
X15119799Y-2183886D01*
X15150500Y-2069309D01*
X15150500Y-1950691D01*
X15119799Y-1836114D01*
X15119797Y-1836111D01*
X15119797Y-1836109D01*
X15060492Y-1733391D01*
X15060490Y-1733389D01*
X15060489Y-1733387D01*
X14976613Y-1649511D01*
X14976610Y-1649509D01*
X14976608Y-1649507D01*
X14940587Y-1628710D01*
X30399500Y-1628710D01*
X30399500Y-1871289D01*
X30431161Y-2111781D01*
X30431161Y-2111786D01*
X30493944Y-2346092D01*
X30493948Y-2346105D01*
X30586772Y-2570204D01*
X30586774Y-2570208D01*
X30586776Y-2570212D01*
X30708064Y-2780289D01*
X30708066Y-2780292D01*
X30855729Y-2972731D01*
X30855731Y-2972733D01*
X30855735Y-2972738D01*
X31027262Y-3144265D01*
X31027266Y-3144268D01*
X31027268Y-3144270D01*
X31196188Y-3273886D01*
X31219711Y-3291936D01*
X31429788Y-3413224D01*
X31653900Y-3506054D01*
X31888211Y-3568838D01*
X32128712Y-3600500D01*
X32128713Y-3600500D01*
X32371287Y-3600500D01*
X32371288Y-3600500D01*
X32611789Y-3568838D01*
X32846100Y-3506054D01*
X33070212Y-3413224D01*
X33280289Y-3291936D01*
X33472738Y-3144265D01*
X33644265Y-2972738D01*
X33791936Y-2780289D01*
X33913224Y-2570212D01*
X34006054Y-2346100D01*
X34068838Y-2111789D01*
X34100500Y-1871288D01*
X34100500Y-1628712D01*
X34068838Y-1388211D01*
X34006054Y-1153900D01*
X33913224Y-929788D01*
X33791936Y-719711D01*
X33696135Y-594860D01*
X33644270Y-527268D01*
X33644268Y-527266D01*
X33644265Y-527262D01*
X33472738Y-355735D01*
X33472733Y-355731D01*
X33472731Y-355729D01*
X33280292Y-208066D01*
X33163143Y-140430D01*
X33070212Y-86776D01*
X33070208Y-86774D01*
X33070204Y-86772D01*
X32974986Y-47332D01*
X32846100Y6054D01*
X32611789Y68838D01*
X32371288Y100500D01*
X32128712Y100500D01*
X31888211Y68838D01*
X31653900Y6054D01*
X31582480Y-23528D01*
X31429795Y-86772D01*
X31219707Y-208066D01*
X31027268Y-355729D01*
X30855729Y-527268D01*
X30708066Y-719707D01*
X30586772Y-929795D01*
X30493948Y-1153894D01*
X30493944Y-1153907D01*
X30431161Y-1388213D01*
X30431161Y-1388218D01*
X30399500Y-1628710D01*
X14940587Y-1628710D01*
X14873889Y-1590202D01*
X14873890Y-1590202D01*
X14860351Y-1586574D01*
X14759309Y-1559500D01*
X14640691Y-1559500D01*
X14570567Y-1578289D01*
X14526109Y-1590202D01*
X14423391Y-1649507D01*
X14339507Y-1733391D01*
X14280202Y-1836109D01*
X14280201Y-1836114D01*
X14249500Y-1950691D01*
X12739944Y-1950691D01*
X12716935Y-1937407D01*
X12716936Y-1937407D01*
X12703397Y-1933779D01*
X12602355Y-1906705D01*
X12483737Y-1906705D01*
X12413613Y-1925494D01*
X12369155Y-1937407D01*
X12266437Y-1996712D01*
X12182553Y-2080596D01*
X12123248Y-2183314D01*
X12123247Y-2183319D01*
X12092546Y-2297896D01*
X3518970Y-2297896D01*
X3568838Y-2111789D01*
X3600500Y-1871288D01*
X3600500Y-1628712D01*
X3568838Y-1388211D01*
X3506054Y-1153900D01*
X3413224Y-929788D01*
X3291936Y-719711D01*
X3196135Y-594860D01*
X3144270Y-527268D01*
X3144268Y-527266D01*
X3144265Y-527262D01*
X2972738Y-355735D01*
X2972733Y-355731D01*
X2972731Y-355729D01*
X2780292Y-208066D01*
X2663143Y-140430D01*
X2570212Y-86776D01*
X2570208Y-86774D01*
X2570204Y-86772D01*
X2474986Y-47332D01*
X2346100Y6054D01*
X2111789Y68838D01*
X1871288Y100500D01*
X1628712Y100500D01*
X1388211Y68838D01*
X1153900Y6054D01*
X1082480Y-23528D01*
X929795Y-86772D01*
X719707Y-208066D01*
X527268Y-355729D01*
X355729Y-527268D01*
X208066Y-719707D01*
X86772Y-929795D01*
X43504Y-1034255D01*
X-6054Y-1153900D01*
X-68838Y-1388211D01*
X-100500Y-1628712D01*
X-299500Y-1628712D01*
X-299500Y-1503240D01*
X-299288Y-1496765D01*
X-284529Y-1271594D01*
X-282839Y-1258755D01*
X-239449Y-1040617D01*
X-236097Y-1028108D01*
X-164604Y-817499D01*
X-159651Y-805543D01*
X-61277Y-606057D01*
X-54812Y-594860D01*
X-54810Y-594857D01*
X68765Y-409914D01*
X76630Y-399664D01*
X223291Y-232429D01*
X232429Y-223291D01*
X399664Y-76630D01*
X409914Y-68765D01*
X594865Y54815D01*
X606057Y61277D01*
X805543Y159651D01*
X817499Y164604D01*
X1028108Y236097D01*
X1040617Y239449D01*
X1258755Y282839D01*
X1271594Y284529D01*
X1496766Y299288D01*
X1503241Y299500D01*
X1539882Y299500D01*
X32460118Y299500D01*
X32496759Y299500D01*
X32503234Y299288D01*
G37*
%TD.AperFunction*%
%TD*%
M02*
