%TF.GenerationSoftware,KiCad,Pcbnew,9.0.7-9.0.7~ubuntu24.04.1*%
%TF.CreationDate,2026-02-28T20:49:21+01:00*%
%TF.ProjectId,fcg4,66636734-2e6b-4696-9361-645f70636258,rev?*%
%TF.SameCoordinates,Original*%
%TF.FileFunction,Legend,Top*%
%TF.FilePolarity,Positive*%
%FSLAX46Y46*%
G04 Gerber Fmt 4.6, Leading zero omitted, Abs format (unit mm)*
G04 Created by KiCad (PCBNEW 9.0.7-9.0.7~ubuntu24.04.1) date 2026-02-28 20:49:21*
%MOMM*%
%LPD*%
G01*
G04 APERTURE LIST*
%ADD10C,0.125000*%
%ADD11C,0.120000*%
%ADD12C,0.300000*%
%ADD13C,0.152400*%
%ADD14C,0.127000*%
%ADD15C,0.200000*%
%ADD16C,0.152000*%
%ADD17C,0.250000*%
%ADD18C,0.100000*%
G04 APERTURE END LIST*
D10*
X10024809Y-12145833D02*
X9786714Y-12312499D01*
X10024809Y-12431547D02*
X9524809Y-12431547D01*
X9524809Y-12431547D02*
X9524809Y-12241071D01*
X9524809Y-12241071D02*
X9548619Y-12193452D01*
X9548619Y-12193452D02*
X9572428Y-12169642D01*
X9572428Y-12169642D02*
X9620047Y-12145833D01*
X9620047Y-12145833D02*
X9691476Y-12145833D01*
X9691476Y-12145833D02*
X9739095Y-12169642D01*
X9739095Y-12169642D02*
X9762904Y-12193452D01*
X9762904Y-12193452D02*
X9786714Y-12241071D01*
X9786714Y-12241071D02*
X9786714Y-12431547D01*
X9739095Y-11860118D02*
X9715285Y-11907737D01*
X9715285Y-11907737D02*
X9691476Y-11931547D01*
X9691476Y-11931547D02*
X9643857Y-11955356D01*
X9643857Y-11955356D02*
X9620047Y-11955356D01*
X9620047Y-11955356D02*
X9572428Y-11931547D01*
X9572428Y-11931547D02*
X9548619Y-11907737D01*
X9548619Y-11907737D02*
X9524809Y-11860118D01*
X9524809Y-11860118D02*
X9524809Y-11764880D01*
X9524809Y-11764880D02*
X9548619Y-11717261D01*
X9548619Y-11717261D02*
X9572428Y-11693452D01*
X9572428Y-11693452D02*
X9620047Y-11669642D01*
X9620047Y-11669642D02*
X9643857Y-11669642D01*
X9643857Y-11669642D02*
X9691476Y-11693452D01*
X9691476Y-11693452D02*
X9715285Y-11717261D01*
X9715285Y-11717261D02*
X9739095Y-11764880D01*
X9739095Y-11764880D02*
X9739095Y-11860118D01*
X9739095Y-11860118D02*
X9762904Y-11907737D01*
X9762904Y-11907737D02*
X9786714Y-11931547D01*
X9786714Y-11931547D02*
X9834333Y-11955356D01*
X9834333Y-11955356D02*
X9929571Y-11955356D01*
X9929571Y-11955356D02*
X9977190Y-11931547D01*
X9977190Y-11931547D02*
X10001000Y-11907737D01*
X10001000Y-11907737D02*
X10024809Y-11860118D01*
X10024809Y-11860118D02*
X10024809Y-11764880D01*
X10024809Y-11764880D02*
X10001000Y-11717261D01*
X10001000Y-11717261D02*
X9977190Y-11693452D01*
X9977190Y-11693452D02*
X9929571Y-11669642D01*
X9929571Y-11669642D02*
X9834333Y-11669642D01*
X9834333Y-11669642D02*
X9786714Y-11693452D01*
X9786714Y-11693452D02*
X9762904Y-11717261D01*
X9762904Y-11717261D02*
X9739095Y-11764880D01*
X28424809Y-31254761D02*
X28924809Y-31088095D01*
X28924809Y-31088095D02*
X28424809Y-30921428D01*
X28924809Y-30754762D02*
X28424809Y-30754762D01*
X28424809Y-30754762D02*
X28424809Y-30635714D01*
X28424809Y-30635714D02*
X28448619Y-30564286D01*
X28448619Y-30564286D02*
X28496238Y-30516667D01*
X28496238Y-30516667D02*
X28543857Y-30492857D01*
X28543857Y-30492857D02*
X28639095Y-30469048D01*
X28639095Y-30469048D02*
X28710523Y-30469048D01*
X28710523Y-30469048D02*
X28805761Y-30492857D01*
X28805761Y-30492857D02*
X28853380Y-30516667D01*
X28853380Y-30516667D02*
X28901000Y-30564286D01*
X28901000Y-30564286D02*
X28924809Y-30635714D01*
X28924809Y-30635714D02*
X28924809Y-30754762D01*
X28924809Y-30254762D02*
X28424809Y-30254762D01*
X28424809Y-30254762D02*
X28424809Y-30135714D01*
X28424809Y-30135714D02*
X28448619Y-30064286D01*
X28448619Y-30064286D02*
X28496238Y-30016667D01*
X28496238Y-30016667D02*
X28543857Y-29992857D01*
X28543857Y-29992857D02*
X28639095Y-29969048D01*
X28639095Y-29969048D02*
X28710523Y-29969048D01*
X28710523Y-29969048D02*
X28805761Y-29992857D01*
X28805761Y-29992857D02*
X28853380Y-30016667D01*
X28853380Y-30016667D02*
X28901000Y-30064286D01*
X28901000Y-30064286D02*
X28924809Y-30135714D01*
X28924809Y-30135714D02*
X28924809Y-30254762D01*
X28972428Y-29873810D02*
X28972428Y-29492857D01*
X28924809Y-29373810D02*
X28424809Y-29373810D01*
X28424809Y-29373810D02*
X28781952Y-29207143D01*
X28781952Y-29207143D02*
X28424809Y-29040477D01*
X28424809Y-29040477D02*
X28924809Y-29040477D01*
X28877190Y-28516667D02*
X28901000Y-28540476D01*
X28901000Y-28540476D02*
X28924809Y-28611905D01*
X28924809Y-28611905D02*
X28924809Y-28659524D01*
X28924809Y-28659524D02*
X28901000Y-28730952D01*
X28901000Y-28730952D02*
X28853380Y-28778571D01*
X28853380Y-28778571D02*
X28805761Y-28802381D01*
X28805761Y-28802381D02*
X28710523Y-28826190D01*
X28710523Y-28826190D02*
X28639095Y-28826190D01*
X28639095Y-28826190D02*
X28543857Y-28802381D01*
X28543857Y-28802381D02*
X28496238Y-28778571D01*
X28496238Y-28778571D02*
X28448619Y-28730952D01*
X28448619Y-28730952D02*
X28424809Y-28659524D01*
X28424809Y-28659524D02*
X28424809Y-28611905D01*
X28424809Y-28611905D02*
X28448619Y-28540476D01*
X28448619Y-28540476D02*
X28472428Y-28516667D01*
X28424809Y-28302381D02*
X28829571Y-28302381D01*
X28829571Y-28302381D02*
X28877190Y-28278571D01*
X28877190Y-28278571D02*
X28901000Y-28254762D01*
X28901000Y-28254762D02*
X28924809Y-28207143D01*
X28924809Y-28207143D02*
X28924809Y-28111905D01*
X28924809Y-28111905D02*
X28901000Y-28064286D01*
X28901000Y-28064286D02*
X28877190Y-28040476D01*
X28877190Y-28040476D02*
X28829571Y-28016667D01*
X28829571Y-28016667D02*
X28424809Y-28016667D01*
X34124809Y-11883333D02*
X33886714Y-12049999D01*
X34124809Y-12169047D02*
X33624809Y-12169047D01*
X33624809Y-12169047D02*
X33624809Y-11978571D01*
X33624809Y-11978571D02*
X33648619Y-11930952D01*
X33648619Y-11930952D02*
X33672428Y-11907142D01*
X33672428Y-11907142D02*
X33720047Y-11883333D01*
X33720047Y-11883333D02*
X33791476Y-11883333D01*
X33791476Y-11883333D02*
X33839095Y-11907142D01*
X33839095Y-11907142D02*
X33862904Y-11930952D01*
X33862904Y-11930952D02*
X33886714Y-11978571D01*
X33886714Y-11978571D02*
X33886714Y-12169047D01*
X33624809Y-11716666D02*
X33624809Y-11407142D01*
X33624809Y-11407142D02*
X33815285Y-11573809D01*
X33815285Y-11573809D02*
X33815285Y-11502380D01*
X33815285Y-11502380D02*
X33839095Y-11454761D01*
X33839095Y-11454761D02*
X33862904Y-11430952D01*
X33862904Y-11430952D02*
X33910523Y-11407142D01*
X33910523Y-11407142D02*
X34029571Y-11407142D01*
X34029571Y-11407142D02*
X34077190Y-11430952D01*
X34077190Y-11430952D02*
X34101000Y-11454761D01*
X34101000Y-11454761D02*
X34124809Y-11502380D01*
X34124809Y-11502380D02*
X34124809Y-11645237D01*
X34124809Y-11645237D02*
X34101000Y-11692856D01*
X34101000Y-11692856D02*
X34077190Y-11716666D01*
X24224809Y-32869047D02*
X23724809Y-32869047D01*
X23724809Y-32869047D02*
X23724809Y-32749999D01*
X23724809Y-32749999D02*
X23748619Y-32678571D01*
X23748619Y-32678571D02*
X23796238Y-32630952D01*
X23796238Y-32630952D02*
X23843857Y-32607142D01*
X23843857Y-32607142D02*
X23939095Y-32583333D01*
X23939095Y-32583333D02*
X24010523Y-32583333D01*
X24010523Y-32583333D02*
X24105761Y-32607142D01*
X24105761Y-32607142D02*
X24153380Y-32630952D01*
X24153380Y-32630952D02*
X24201000Y-32678571D01*
X24201000Y-32678571D02*
X24224809Y-32749999D01*
X24224809Y-32749999D02*
X24224809Y-32869047D01*
X23772428Y-32392856D02*
X23748619Y-32369047D01*
X23748619Y-32369047D02*
X23724809Y-32321428D01*
X23724809Y-32321428D02*
X23724809Y-32202380D01*
X23724809Y-32202380D02*
X23748619Y-32154761D01*
X23748619Y-32154761D02*
X23772428Y-32130952D01*
X23772428Y-32130952D02*
X23820047Y-32107142D01*
X23820047Y-32107142D02*
X23867666Y-32107142D01*
X23867666Y-32107142D02*
X23939095Y-32130952D01*
X23939095Y-32130952D02*
X24224809Y-32416666D01*
X24224809Y-32416666D02*
X24224809Y-32107142D01*
X6080953Y-28034809D02*
X6366667Y-28034809D01*
X6223810Y-28534809D02*
X6223810Y-28034809D01*
X6485714Y-28034809D02*
X6819047Y-28534809D01*
X6819047Y-28034809D02*
X6485714Y-28534809D01*
X7271428Y-28534809D02*
X6985714Y-28534809D01*
X7128571Y-28534809D02*
X7128571Y-28034809D01*
X7128571Y-28034809D02*
X7080952Y-28106238D01*
X7080952Y-28106238D02*
X7033333Y-28153857D01*
X7033333Y-28153857D02*
X6985714Y-28177666D01*
X10357143Y-28344333D02*
X10738096Y-28344333D01*
X10547619Y-28534809D02*
X10547619Y-28153857D01*
X11214286Y-28034809D02*
X10976191Y-28034809D01*
X10976191Y-28034809D02*
X10952382Y-28272904D01*
X10952382Y-28272904D02*
X10976191Y-28249095D01*
X10976191Y-28249095D02*
X11023810Y-28225285D01*
X11023810Y-28225285D02*
X11142858Y-28225285D01*
X11142858Y-28225285D02*
X11190477Y-28249095D01*
X11190477Y-28249095D02*
X11214286Y-28272904D01*
X11214286Y-28272904D02*
X11238096Y-28320523D01*
X11238096Y-28320523D02*
X11238096Y-28439571D01*
X11238096Y-28439571D02*
X11214286Y-28487190D01*
X11214286Y-28487190D02*
X11190477Y-28511000D01*
X11190477Y-28511000D02*
X11142858Y-28534809D01*
X11142858Y-28534809D02*
X11023810Y-28534809D01*
X11023810Y-28534809D02*
X10976191Y-28511000D01*
X10976191Y-28511000D02*
X10952382Y-28487190D01*
X11380953Y-28034809D02*
X11547619Y-28534809D01*
X11547619Y-28534809D02*
X11714286Y-28034809D01*
X2248619Y-12880952D02*
X2224809Y-12928571D01*
X2224809Y-12928571D02*
X2224809Y-13000000D01*
X2224809Y-13000000D02*
X2248619Y-13071428D01*
X2248619Y-13071428D02*
X2296238Y-13119047D01*
X2296238Y-13119047D02*
X2343857Y-13142857D01*
X2343857Y-13142857D02*
X2439095Y-13166666D01*
X2439095Y-13166666D02*
X2510523Y-13166666D01*
X2510523Y-13166666D02*
X2605761Y-13142857D01*
X2605761Y-13142857D02*
X2653380Y-13119047D01*
X2653380Y-13119047D02*
X2701000Y-13071428D01*
X2701000Y-13071428D02*
X2724809Y-13000000D01*
X2724809Y-13000000D02*
X2724809Y-12952381D01*
X2724809Y-12952381D02*
X2701000Y-12880952D01*
X2701000Y-12880952D02*
X2677190Y-12857143D01*
X2677190Y-12857143D02*
X2510523Y-12857143D01*
X2510523Y-12857143D02*
X2510523Y-12952381D01*
X2724809Y-12642857D02*
X2224809Y-12642857D01*
X2224809Y-12642857D02*
X2724809Y-12357143D01*
X2724809Y-12357143D02*
X2224809Y-12357143D01*
X2724809Y-12119047D02*
X2224809Y-12119047D01*
X2224809Y-12119047D02*
X2224809Y-11999999D01*
X2224809Y-11999999D02*
X2248619Y-11928571D01*
X2248619Y-11928571D02*
X2296238Y-11880952D01*
X2296238Y-11880952D02*
X2343857Y-11857142D01*
X2343857Y-11857142D02*
X2439095Y-11833333D01*
X2439095Y-11833333D02*
X2510523Y-11833333D01*
X2510523Y-11833333D02*
X2605761Y-11857142D01*
X2605761Y-11857142D02*
X2653380Y-11880952D01*
X2653380Y-11880952D02*
X2701000Y-11928571D01*
X2701000Y-11928571D02*
X2724809Y-11999999D01*
X2724809Y-11999999D02*
X2724809Y-12119047D01*
X9657190Y-16283333D02*
X9681000Y-16307142D01*
X9681000Y-16307142D02*
X9704809Y-16378571D01*
X9704809Y-16378571D02*
X9704809Y-16426190D01*
X9704809Y-16426190D02*
X9681000Y-16497618D01*
X9681000Y-16497618D02*
X9633380Y-16545237D01*
X9633380Y-16545237D02*
X9585761Y-16569047D01*
X9585761Y-16569047D02*
X9490523Y-16592856D01*
X9490523Y-16592856D02*
X9419095Y-16592856D01*
X9419095Y-16592856D02*
X9323857Y-16569047D01*
X9323857Y-16569047D02*
X9276238Y-16545237D01*
X9276238Y-16545237D02*
X9228619Y-16497618D01*
X9228619Y-16497618D02*
X9204809Y-16426190D01*
X9204809Y-16426190D02*
X9204809Y-16378571D01*
X9204809Y-16378571D02*
X9228619Y-16307142D01*
X9228619Y-16307142D02*
X9252428Y-16283333D01*
X9204809Y-15830952D02*
X9204809Y-16069047D01*
X9204809Y-16069047D02*
X9442904Y-16092856D01*
X9442904Y-16092856D02*
X9419095Y-16069047D01*
X9419095Y-16069047D02*
X9395285Y-16021428D01*
X9395285Y-16021428D02*
X9395285Y-15902380D01*
X9395285Y-15902380D02*
X9419095Y-15854761D01*
X9419095Y-15854761D02*
X9442904Y-15830952D01*
X9442904Y-15830952D02*
X9490523Y-15807142D01*
X9490523Y-15807142D02*
X9609571Y-15807142D01*
X9609571Y-15807142D02*
X9657190Y-15830952D01*
X9657190Y-15830952D02*
X9681000Y-15854761D01*
X9681000Y-15854761D02*
X9704809Y-15902380D01*
X9704809Y-15902380D02*
X9704809Y-16021428D01*
X9704809Y-16021428D02*
X9681000Y-16069047D01*
X9681000Y-16069047D02*
X9657190Y-16092856D01*
X4477190Y-6183333D02*
X4501000Y-6207142D01*
X4501000Y-6207142D02*
X4524809Y-6278571D01*
X4524809Y-6278571D02*
X4524809Y-6326190D01*
X4524809Y-6326190D02*
X4501000Y-6397618D01*
X4501000Y-6397618D02*
X4453380Y-6445237D01*
X4453380Y-6445237D02*
X4405761Y-6469047D01*
X4405761Y-6469047D02*
X4310523Y-6492856D01*
X4310523Y-6492856D02*
X4239095Y-6492856D01*
X4239095Y-6492856D02*
X4143857Y-6469047D01*
X4143857Y-6469047D02*
X4096238Y-6445237D01*
X4096238Y-6445237D02*
X4048619Y-6397618D01*
X4048619Y-6397618D02*
X4024809Y-6326190D01*
X4024809Y-6326190D02*
X4024809Y-6278571D01*
X4024809Y-6278571D02*
X4048619Y-6207142D01*
X4048619Y-6207142D02*
X4072428Y-6183333D01*
X4524809Y-5707142D02*
X4524809Y-5992856D01*
X4524809Y-5849999D02*
X4024809Y-5849999D01*
X4024809Y-5849999D02*
X4096238Y-5897618D01*
X4096238Y-5897618D02*
X4143857Y-5945237D01*
X4143857Y-5945237D02*
X4167666Y-5992856D01*
X6977190Y-21221428D02*
X7001000Y-21245237D01*
X7001000Y-21245237D02*
X7024809Y-21316666D01*
X7024809Y-21316666D02*
X7024809Y-21364285D01*
X7024809Y-21364285D02*
X7001000Y-21435713D01*
X7001000Y-21435713D02*
X6953380Y-21483332D01*
X6953380Y-21483332D02*
X6905761Y-21507142D01*
X6905761Y-21507142D02*
X6810523Y-21530951D01*
X6810523Y-21530951D02*
X6739095Y-21530951D01*
X6739095Y-21530951D02*
X6643857Y-21507142D01*
X6643857Y-21507142D02*
X6596238Y-21483332D01*
X6596238Y-21483332D02*
X6548619Y-21435713D01*
X6548619Y-21435713D02*
X6524809Y-21364285D01*
X6524809Y-21364285D02*
X6524809Y-21316666D01*
X6524809Y-21316666D02*
X6548619Y-21245237D01*
X6548619Y-21245237D02*
X6572428Y-21221428D01*
X6572428Y-21030951D02*
X6548619Y-21007142D01*
X6548619Y-21007142D02*
X6524809Y-20959523D01*
X6524809Y-20959523D02*
X6524809Y-20840475D01*
X6524809Y-20840475D02*
X6548619Y-20792856D01*
X6548619Y-20792856D02*
X6572428Y-20769047D01*
X6572428Y-20769047D02*
X6620047Y-20745237D01*
X6620047Y-20745237D02*
X6667666Y-20745237D01*
X6667666Y-20745237D02*
X6739095Y-20769047D01*
X6739095Y-20769047D02*
X7024809Y-21054761D01*
X7024809Y-21054761D02*
X7024809Y-20745237D01*
X6524809Y-20435714D02*
X6524809Y-20388095D01*
X6524809Y-20388095D02*
X6548619Y-20340476D01*
X6548619Y-20340476D02*
X6572428Y-20316666D01*
X6572428Y-20316666D02*
X6620047Y-20292857D01*
X6620047Y-20292857D02*
X6715285Y-20269047D01*
X6715285Y-20269047D02*
X6834333Y-20269047D01*
X6834333Y-20269047D02*
X6929571Y-20292857D01*
X6929571Y-20292857D02*
X6977190Y-20316666D01*
X6977190Y-20316666D02*
X7001000Y-20340476D01*
X7001000Y-20340476D02*
X7024809Y-20388095D01*
X7024809Y-20388095D02*
X7024809Y-20435714D01*
X7024809Y-20435714D02*
X7001000Y-20483333D01*
X7001000Y-20483333D02*
X6977190Y-20507142D01*
X6977190Y-20507142D02*
X6929571Y-20530952D01*
X6929571Y-20530952D02*
X6834333Y-20554761D01*
X6834333Y-20554761D02*
X6715285Y-20554761D01*
X6715285Y-20554761D02*
X6620047Y-20530952D01*
X6620047Y-20530952D02*
X6572428Y-20507142D01*
X6572428Y-20507142D02*
X6548619Y-20483333D01*
X6548619Y-20483333D02*
X6524809Y-20435714D01*
X17877190Y-6721428D02*
X17901000Y-6745237D01*
X17901000Y-6745237D02*
X17924809Y-6816666D01*
X17924809Y-6816666D02*
X17924809Y-6864285D01*
X17924809Y-6864285D02*
X17901000Y-6935713D01*
X17901000Y-6935713D02*
X17853380Y-6983332D01*
X17853380Y-6983332D02*
X17805761Y-7007142D01*
X17805761Y-7007142D02*
X17710523Y-7030951D01*
X17710523Y-7030951D02*
X17639095Y-7030951D01*
X17639095Y-7030951D02*
X17543857Y-7007142D01*
X17543857Y-7007142D02*
X17496238Y-6983332D01*
X17496238Y-6983332D02*
X17448619Y-6935713D01*
X17448619Y-6935713D02*
X17424809Y-6864285D01*
X17424809Y-6864285D02*
X17424809Y-6816666D01*
X17424809Y-6816666D02*
X17448619Y-6745237D01*
X17448619Y-6745237D02*
X17472428Y-6721428D01*
X17924809Y-6245237D02*
X17924809Y-6530951D01*
X17924809Y-6388094D02*
X17424809Y-6388094D01*
X17424809Y-6388094D02*
X17496238Y-6435713D01*
X17496238Y-6435713D02*
X17543857Y-6483332D01*
X17543857Y-6483332D02*
X17567666Y-6530951D01*
X17424809Y-6078571D02*
X17424809Y-5745238D01*
X17424809Y-5745238D02*
X17924809Y-5959523D01*
X5424809Y-4304761D02*
X4924809Y-4304761D01*
X4924809Y-4304761D02*
X5281952Y-4138094D01*
X5281952Y-4138094D02*
X4924809Y-3971428D01*
X4924809Y-3971428D02*
X5424809Y-3971428D01*
X5424809Y-3471427D02*
X5424809Y-3757141D01*
X5424809Y-3614284D02*
X4924809Y-3614284D01*
X4924809Y-3614284D02*
X4996238Y-3661903D01*
X4996238Y-3661903D02*
X5043857Y-3709522D01*
X5043857Y-3709522D02*
X5067666Y-3757141D01*
X10978571Y-2724809D02*
X10811905Y-2486714D01*
X10692857Y-2724809D02*
X10692857Y-2224809D01*
X10692857Y-2224809D02*
X10883333Y-2224809D01*
X10883333Y-2224809D02*
X10930952Y-2248619D01*
X10930952Y-2248619D02*
X10954762Y-2272428D01*
X10954762Y-2272428D02*
X10978571Y-2320047D01*
X10978571Y-2320047D02*
X10978571Y-2391476D01*
X10978571Y-2391476D02*
X10954762Y-2439095D01*
X10954762Y-2439095D02*
X10930952Y-2462904D01*
X10930952Y-2462904D02*
X10883333Y-2486714D01*
X10883333Y-2486714D02*
X10692857Y-2486714D01*
X11145238Y-2224809D02*
X11478571Y-2724809D01*
X11478571Y-2224809D02*
X11145238Y-2724809D01*
X11621428Y-2224809D02*
X11930952Y-2224809D01*
X11930952Y-2224809D02*
X11764285Y-2415285D01*
X11764285Y-2415285D02*
X11835714Y-2415285D01*
X11835714Y-2415285D02*
X11883333Y-2439095D01*
X11883333Y-2439095D02*
X11907142Y-2462904D01*
X11907142Y-2462904D02*
X11930952Y-2510523D01*
X11930952Y-2510523D02*
X11930952Y-2629571D01*
X11930952Y-2629571D02*
X11907142Y-2677190D01*
X11907142Y-2677190D02*
X11883333Y-2701000D01*
X11883333Y-2701000D02*
X11835714Y-2724809D01*
X11835714Y-2724809D02*
X11692857Y-2724809D01*
X11692857Y-2724809D02*
X11645238Y-2701000D01*
X11645238Y-2701000D02*
X11621428Y-2677190D01*
X8319047Y-21824809D02*
X8319047Y-22229571D01*
X8319047Y-22229571D02*
X8342857Y-22277190D01*
X8342857Y-22277190D02*
X8366666Y-22301000D01*
X8366666Y-22301000D02*
X8414285Y-22324809D01*
X8414285Y-22324809D02*
X8509523Y-22324809D01*
X8509523Y-22324809D02*
X8557142Y-22301000D01*
X8557142Y-22301000D02*
X8580952Y-22277190D01*
X8580952Y-22277190D02*
X8604761Y-22229571D01*
X8604761Y-22229571D02*
X8604761Y-21824809D01*
X9080952Y-21824809D02*
X8842857Y-21824809D01*
X8842857Y-21824809D02*
X8819048Y-22062904D01*
X8819048Y-22062904D02*
X8842857Y-22039095D01*
X8842857Y-22039095D02*
X8890476Y-22015285D01*
X8890476Y-22015285D02*
X9009524Y-22015285D01*
X9009524Y-22015285D02*
X9057143Y-22039095D01*
X9057143Y-22039095D02*
X9080952Y-22062904D01*
X9080952Y-22062904D02*
X9104762Y-22110523D01*
X9104762Y-22110523D02*
X9104762Y-22229571D01*
X9104762Y-22229571D02*
X9080952Y-22277190D01*
X9080952Y-22277190D02*
X9057143Y-22301000D01*
X9057143Y-22301000D02*
X9009524Y-22324809D01*
X9009524Y-22324809D02*
X8890476Y-22324809D01*
X8890476Y-22324809D02*
X8842857Y-22301000D01*
X8842857Y-22301000D02*
X8819048Y-22277190D01*
X17777190Y-2296428D02*
X17801000Y-2320237D01*
X17801000Y-2320237D02*
X17824809Y-2391666D01*
X17824809Y-2391666D02*
X17824809Y-2439285D01*
X17824809Y-2439285D02*
X17801000Y-2510713D01*
X17801000Y-2510713D02*
X17753380Y-2558332D01*
X17753380Y-2558332D02*
X17705761Y-2582142D01*
X17705761Y-2582142D02*
X17610523Y-2605951D01*
X17610523Y-2605951D02*
X17539095Y-2605951D01*
X17539095Y-2605951D02*
X17443857Y-2582142D01*
X17443857Y-2582142D02*
X17396238Y-2558332D01*
X17396238Y-2558332D02*
X17348619Y-2510713D01*
X17348619Y-2510713D02*
X17324809Y-2439285D01*
X17324809Y-2439285D02*
X17324809Y-2391666D01*
X17324809Y-2391666D02*
X17348619Y-2320237D01*
X17348619Y-2320237D02*
X17372428Y-2296428D01*
X17824809Y-1820237D02*
X17824809Y-2105951D01*
X17824809Y-1963094D02*
X17324809Y-1963094D01*
X17324809Y-1963094D02*
X17396238Y-2010713D01*
X17396238Y-2010713D02*
X17443857Y-2058332D01*
X17443857Y-2058332D02*
X17467666Y-2105951D01*
X17824809Y-1582142D02*
X17824809Y-1486904D01*
X17824809Y-1486904D02*
X17801000Y-1439285D01*
X17801000Y-1439285D02*
X17777190Y-1415476D01*
X17777190Y-1415476D02*
X17705761Y-1367857D01*
X17705761Y-1367857D02*
X17610523Y-1344047D01*
X17610523Y-1344047D02*
X17420047Y-1344047D01*
X17420047Y-1344047D02*
X17372428Y-1367857D01*
X17372428Y-1367857D02*
X17348619Y-1391666D01*
X17348619Y-1391666D02*
X17324809Y-1439285D01*
X17324809Y-1439285D02*
X17324809Y-1534523D01*
X17324809Y-1534523D02*
X17348619Y-1582142D01*
X17348619Y-1582142D02*
X17372428Y-1605952D01*
X17372428Y-1605952D02*
X17420047Y-1629761D01*
X17420047Y-1629761D02*
X17539095Y-1629761D01*
X17539095Y-1629761D02*
X17586714Y-1605952D01*
X17586714Y-1605952D02*
X17610523Y-1582142D01*
X17610523Y-1582142D02*
X17634333Y-1534523D01*
X17634333Y-1534523D02*
X17634333Y-1439285D01*
X17634333Y-1439285D02*
X17610523Y-1391666D01*
X17610523Y-1391666D02*
X17586714Y-1367857D01*
X17586714Y-1367857D02*
X17539095Y-1344047D01*
X34124809Y-16521428D02*
X33886714Y-16688094D01*
X34124809Y-16807142D02*
X33624809Y-16807142D01*
X33624809Y-16807142D02*
X33624809Y-16616666D01*
X33624809Y-16616666D02*
X33648619Y-16569047D01*
X33648619Y-16569047D02*
X33672428Y-16545237D01*
X33672428Y-16545237D02*
X33720047Y-16521428D01*
X33720047Y-16521428D02*
X33791476Y-16521428D01*
X33791476Y-16521428D02*
X33839095Y-16545237D01*
X33839095Y-16545237D02*
X33862904Y-16569047D01*
X33862904Y-16569047D02*
X33886714Y-16616666D01*
X33886714Y-16616666D02*
X33886714Y-16807142D01*
X34124809Y-16045237D02*
X34124809Y-16330951D01*
X34124809Y-16188094D02*
X33624809Y-16188094D01*
X33624809Y-16188094D02*
X33696238Y-16235713D01*
X33696238Y-16235713D02*
X33743857Y-16283332D01*
X33743857Y-16283332D02*
X33767666Y-16330951D01*
X34124809Y-15569047D02*
X34124809Y-15854761D01*
X34124809Y-15711904D02*
X33624809Y-15711904D01*
X33624809Y-15711904D02*
X33696238Y-15759523D01*
X33696238Y-15759523D02*
X33743857Y-15807142D01*
X33743857Y-15807142D02*
X33767666Y-15854761D01*
X26578571Y-16077190D02*
X26554762Y-16101000D01*
X26554762Y-16101000D02*
X26483333Y-16124809D01*
X26483333Y-16124809D02*
X26435714Y-16124809D01*
X26435714Y-16124809D02*
X26364286Y-16101000D01*
X26364286Y-16101000D02*
X26316667Y-16053380D01*
X26316667Y-16053380D02*
X26292857Y-16005761D01*
X26292857Y-16005761D02*
X26269048Y-15910523D01*
X26269048Y-15910523D02*
X26269048Y-15839095D01*
X26269048Y-15839095D02*
X26292857Y-15743857D01*
X26292857Y-15743857D02*
X26316667Y-15696238D01*
X26316667Y-15696238D02*
X26364286Y-15648619D01*
X26364286Y-15648619D02*
X26435714Y-15624809D01*
X26435714Y-15624809D02*
X26483333Y-15624809D01*
X26483333Y-15624809D02*
X26554762Y-15648619D01*
X26554762Y-15648619D02*
X26578571Y-15672428D01*
X27054762Y-16124809D02*
X26769048Y-16124809D01*
X26911905Y-16124809D02*
X26911905Y-15624809D01*
X26911905Y-15624809D02*
X26864286Y-15696238D01*
X26864286Y-15696238D02*
X26816667Y-15743857D01*
X26816667Y-15743857D02*
X26769048Y-15767666D01*
X27507142Y-15624809D02*
X27269047Y-15624809D01*
X27269047Y-15624809D02*
X27245238Y-15862904D01*
X27245238Y-15862904D02*
X27269047Y-15839095D01*
X27269047Y-15839095D02*
X27316666Y-15815285D01*
X27316666Y-15815285D02*
X27435714Y-15815285D01*
X27435714Y-15815285D02*
X27483333Y-15839095D01*
X27483333Y-15839095D02*
X27507142Y-15862904D01*
X27507142Y-15862904D02*
X27530952Y-15910523D01*
X27530952Y-15910523D02*
X27530952Y-16029571D01*
X27530952Y-16029571D02*
X27507142Y-16077190D01*
X27507142Y-16077190D02*
X27483333Y-16101000D01*
X27483333Y-16101000D02*
X27435714Y-16124809D01*
X27435714Y-16124809D02*
X27316666Y-16124809D01*
X27316666Y-16124809D02*
X27269047Y-16101000D01*
X27269047Y-16101000D02*
X27245238Y-16077190D01*
X24078571Y-16324809D02*
X23911905Y-16086714D01*
X23792857Y-16324809D02*
X23792857Y-15824809D01*
X23792857Y-15824809D02*
X23983333Y-15824809D01*
X23983333Y-15824809D02*
X24030952Y-15848619D01*
X24030952Y-15848619D02*
X24054762Y-15872428D01*
X24054762Y-15872428D02*
X24078571Y-15920047D01*
X24078571Y-15920047D02*
X24078571Y-15991476D01*
X24078571Y-15991476D02*
X24054762Y-16039095D01*
X24054762Y-16039095D02*
X24030952Y-16062904D01*
X24030952Y-16062904D02*
X23983333Y-16086714D01*
X23983333Y-16086714D02*
X23792857Y-16086714D01*
X24554762Y-16324809D02*
X24269048Y-16324809D01*
X24411905Y-16324809D02*
X24411905Y-15824809D01*
X24411905Y-15824809D02*
X24364286Y-15896238D01*
X24364286Y-15896238D02*
X24316667Y-15943857D01*
X24316667Y-15943857D02*
X24269048Y-15967666D01*
X24721428Y-15824809D02*
X25030952Y-15824809D01*
X25030952Y-15824809D02*
X24864285Y-16015285D01*
X24864285Y-16015285D02*
X24935714Y-16015285D01*
X24935714Y-16015285D02*
X24983333Y-16039095D01*
X24983333Y-16039095D02*
X25007142Y-16062904D01*
X25007142Y-16062904D02*
X25030952Y-16110523D01*
X25030952Y-16110523D02*
X25030952Y-16229571D01*
X25030952Y-16229571D02*
X25007142Y-16277190D01*
X25007142Y-16277190D02*
X24983333Y-16301000D01*
X24983333Y-16301000D02*
X24935714Y-16324809D01*
X24935714Y-16324809D02*
X24792857Y-16324809D01*
X24792857Y-16324809D02*
X24745238Y-16301000D01*
X24745238Y-16301000D02*
X24721428Y-16277190D01*
X6324809Y-9869047D02*
X5824809Y-9869047D01*
X5824809Y-9869047D02*
X5824809Y-9749999D01*
X5824809Y-9749999D02*
X5848619Y-9678571D01*
X5848619Y-9678571D02*
X5896238Y-9630952D01*
X5896238Y-9630952D02*
X5943857Y-9607142D01*
X5943857Y-9607142D02*
X6039095Y-9583333D01*
X6039095Y-9583333D02*
X6110523Y-9583333D01*
X6110523Y-9583333D02*
X6205761Y-9607142D01*
X6205761Y-9607142D02*
X6253380Y-9630952D01*
X6253380Y-9630952D02*
X6301000Y-9678571D01*
X6301000Y-9678571D02*
X6324809Y-9749999D01*
X6324809Y-9749999D02*
X6324809Y-9869047D01*
X6324809Y-9107142D02*
X6324809Y-9392856D01*
X6324809Y-9249999D02*
X5824809Y-9249999D01*
X5824809Y-9249999D02*
X5896238Y-9297618D01*
X5896238Y-9297618D02*
X5943857Y-9345237D01*
X5943857Y-9345237D02*
X5967666Y-9392856D01*
X2524333Y-26342856D02*
X2524333Y-25961904D01*
X2714809Y-26152380D02*
X2333857Y-26152380D01*
X2214809Y-25485713D02*
X2214809Y-25723808D01*
X2214809Y-25723808D02*
X2452904Y-25747617D01*
X2452904Y-25747617D02*
X2429095Y-25723808D01*
X2429095Y-25723808D02*
X2405285Y-25676189D01*
X2405285Y-25676189D02*
X2405285Y-25557141D01*
X2405285Y-25557141D02*
X2429095Y-25509522D01*
X2429095Y-25509522D02*
X2452904Y-25485713D01*
X2452904Y-25485713D02*
X2500523Y-25461903D01*
X2500523Y-25461903D02*
X2619571Y-25461903D01*
X2619571Y-25461903D02*
X2667190Y-25485713D01*
X2667190Y-25485713D02*
X2691000Y-25509522D01*
X2691000Y-25509522D02*
X2714809Y-25557141D01*
X2714809Y-25557141D02*
X2714809Y-25676189D01*
X2714809Y-25676189D02*
X2691000Y-25723808D01*
X2691000Y-25723808D02*
X2667190Y-25747617D01*
X2214809Y-25319046D02*
X2714809Y-25152380D01*
X2714809Y-25152380D02*
X2214809Y-24985713D01*
X20077190Y-28941428D02*
X20101000Y-28965237D01*
X20101000Y-28965237D02*
X20124809Y-29036666D01*
X20124809Y-29036666D02*
X20124809Y-29084285D01*
X20124809Y-29084285D02*
X20101000Y-29155713D01*
X20101000Y-29155713D02*
X20053380Y-29203332D01*
X20053380Y-29203332D02*
X20005761Y-29227142D01*
X20005761Y-29227142D02*
X19910523Y-29250951D01*
X19910523Y-29250951D02*
X19839095Y-29250951D01*
X19839095Y-29250951D02*
X19743857Y-29227142D01*
X19743857Y-29227142D02*
X19696238Y-29203332D01*
X19696238Y-29203332D02*
X19648619Y-29155713D01*
X19648619Y-29155713D02*
X19624809Y-29084285D01*
X19624809Y-29084285D02*
X19624809Y-29036666D01*
X19624809Y-29036666D02*
X19648619Y-28965237D01*
X19648619Y-28965237D02*
X19672428Y-28941428D01*
X19672428Y-28750951D02*
X19648619Y-28727142D01*
X19648619Y-28727142D02*
X19624809Y-28679523D01*
X19624809Y-28679523D02*
X19624809Y-28560475D01*
X19624809Y-28560475D02*
X19648619Y-28512856D01*
X19648619Y-28512856D02*
X19672428Y-28489047D01*
X19672428Y-28489047D02*
X19720047Y-28465237D01*
X19720047Y-28465237D02*
X19767666Y-28465237D01*
X19767666Y-28465237D02*
X19839095Y-28489047D01*
X19839095Y-28489047D02*
X20124809Y-28774761D01*
X20124809Y-28774761D02*
X20124809Y-28465237D01*
X19791476Y-28036666D02*
X20124809Y-28036666D01*
X19601000Y-28155714D02*
X19958142Y-28274761D01*
X19958142Y-28274761D02*
X19958142Y-27965238D01*
X8578571Y-28534809D02*
X8411905Y-28296714D01*
X8292857Y-28534809D02*
X8292857Y-28034809D01*
X8292857Y-28034809D02*
X8483333Y-28034809D01*
X8483333Y-28034809D02*
X8530952Y-28058619D01*
X8530952Y-28058619D02*
X8554762Y-28082428D01*
X8554762Y-28082428D02*
X8578571Y-28130047D01*
X8578571Y-28130047D02*
X8578571Y-28201476D01*
X8578571Y-28201476D02*
X8554762Y-28249095D01*
X8554762Y-28249095D02*
X8530952Y-28272904D01*
X8530952Y-28272904D02*
X8483333Y-28296714D01*
X8483333Y-28296714D02*
X8292857Y-28296714D01*
X8745238Y-28034809D02*
X9078571Y-28534809D01*
X9078571Y-28034809D02*
X8745238Y-28534809D01*
X9530952Y-28534809D02*
X9245238Y-28534809D01*
X9388095Y-28534809D02*
X9388095Y-28034809D01*
X9388095Y-28034809D02*
X9340476Y-28106238D01*
X9340476Y-28106238D02*
X9292857Y-28153857D01*
X9292857Y-28153857D02*
X9245238Y-28177666D01*
X10024809Y-10083333D02*
X9786714Y-10249999D01*
X10024809Y-10369047D02*
X9524809Y-10369047D01*
X9524809Y-10369047D02*
X9524809Y-10178571D01*
X9524809Y-10178571D02*
X9548619Y-10130952D01*
X9548619Y-10130952D02*
X9572428Y-10107142D01*
X9572428Y-10107142D02*
X9620047Y-10083333D01*
X9620047Y-10083333D02*
X9691476Y-10083333D01*
X9691476Y-10083333D02*
X9739095Y-10107142D01*
X9739095Y-10107142D02*
X9762904Y-10130952D01*
X9762904Y-10130952D02*
X9786714Y-10178571D01*
X9786714Y-10178571D02*
X9786714Y-10369047D01*
X9524809Y-9916666D02*
X9524809Y-9583333D01*
X9524809Y-9583333D02*
X10024809Y-9797618D01*
X18977190Y-9021428D02*
X19001000Y-9045237D01*
X19001000Y-9045237D02*
X19024809Y-9116666D01*
X19024809Y-9116666D02*
X19024809Y-9164285D01*
X19024809Y-9164285D02*
X19001000Y-9235713D01*
X19001000Y-9235713D02*
X18953380Y-9283332D01*
X18953380Y-9283332D02*
X18905761Y-9307142D01*
X18905761Y-9307142D02*
X18810523Y-9330951D01*
X18810523Y-9330951D02*
X18739095Y-9330951D01*
X18739095Y-9330951D02*
X18643857Y-9307142D01*
X18643857Y-9307142D02*
X18596238Y-9283332D01*
X18596238Y-9283332D02*
X18548619Y-9235713D01*
X18548619Y-9235713D02*
X18524809Y-9164285D01*
X18524809Y-9164285D02*
X18524809Y-9116666D01*
X18524809Y-9116666D02*
X18548619Y-9045237D01*
X18548619Y-9045237D02*
X18572428Y-9021428D01*
X18524809Y-8854761D02*
X18524809Y-8545237D01*
X18524809Y-8545237D02*
X18715285Y-8711904D01*
X18715285Y-8711904D02*
X18715285Y-8640475D01*
X18715285Y-8640475D02*
X18739095Y-8592856D01*
X18739095Y-8592856D02*
X18762904Y-8569047D01*
X18762904Y-8569047D02*
X18810523Y-8545237D01*
X18810523Y-8545237D02*
X18929571Y-8545237D01*
X18929571Y-8545237D02*
X18977190Y-8569047D01*
X18977190Y-8569047D02*
X19001000Y-8592856D01*
X19001000Y-8592856D02*
X19024809Y-8640475D01*
X19024809Y-8640475D02*
X19024809Y-8783332D01*
X19024809Y-8783332D02*
X19001000Y-8830951D01*
X19001000Y-8830951D02*
X18977190Y-8854761D01*
X18691476Y-8116666D02*
X19024809Y-8116666D01*
X18501000Y-8235714D02*
X18858142Y-8354761D01*
X18858142Y-8354761D02*
X18858142Y-8045238D01*
X2024809Y-21526190D02*
X1786714Y-21692856D01*
X2024809Y-21811904D02*
X1524809Y-21811904D01*
X1524809Y-21811904D02*
X1524809Y-21621428D01*
X1524809Y-21621428D02*
X1548619Y-21573809D01*
X1548619Y-21573809D02*
X1572428Y-21549999D01*
X1572428Y-21549999D02*
X1620047Y-21526190D01*
X1620047Y-21526190D02*
X1691476Y-21526190D01*
X1691476Y-21526190D02*
X1739095Y-21549999D01*
X1739095Y-21549999D02*
X1762904Y-21573809D01*
X1762904Y-21573809D02*
X1786714Y-21621428D01*
X1786714Y-21621428D02*
X1786714Y-21811904D01*
X1762904Y-21311904D02*
X1762904Y-21145237D01*
X2024809Y-21073809D02*
X2024809Y-21311904D01*
X2024809Y-21311904D02*
X1524809Y-21311904D01*
X1524809Y-21311904D02*
X1524809Y-21073809D01*
X2001000Y-20883332D02*
X2024809Y-20811904D01*
X2024809Y-20811904D02*
X2024809Y-20692856D01*
X2024809Y-20692856D02*
X2001000Y-20645237D01*
X2001000Y-20645237D02*
X1977190Y-20621428D01*
X1977190Y-20621428D02*
X1929571Y-20597618D01*
X1929571Y-20597618D02*
X1881952Y-20597618D01*
X1881952Y-20597618D02*
X1834333Y-20621428D01*
X1834333Y-20621428D02*
X1810523Y-20645237D01*
X1810523Y-20645237D02*
X1786714Y-20692856D01*
X1786714Y-20692856D02*
X1762904Y-20788094D01*
X1762904Y-20788094D02*
X1739095Y-20835713D01*
X1739095Y-20835713D02*
X1715285Y-20859523D01*
X1715285Y-20859523D02*
X1667666Y-20883332D01*
X1667666Y-20883332D02*
X1620047Y-20883332D01*
X1620047Y-20883332D02*
X1572428Y-20859523D01*
X1572428Y-20859523D02*
X1548619Y-20835713D01*
X1548619Y-20835713D02*
X1524809Y-20788094D01*
X1524809Y-20788094D02*
X1524809Y-20669047D01*
X1524809Y-20669047D02*
X1548619Y-20597618D01*
X1762904Y-20383333D02*
X1762904Y-20216666D01*
X2024809Y-20145238D02*
X2024809Y-20383333D01*
X2024809Y-20383333D02*
X1524809Y-20383333D01*
X1524809Y-20383333D02*
X1524809Y-20145238D01*
X1524809Y-20002380D02*
X1524809Y-19716666D01*
X2024809Y-19859523D02*
X1524809Y-19859523D01*
X9024809Y-18521428D02*
X8786714Y-18688094D01*
X9024809Y-18807142D02*
X8524809Y-18807142D01*
X8524809Y-18807142D02*
X8524809Y-18616666D01*
X8524809Y-18616666D02*
X8548619Y-18569047D01*
X8548619Y-18569047D02*
X8572428Y-18545237D01*
X8572428Y-18545237D02*
X8620047Y-18521428D01*
X8620047Y-18521428D02*
X8691476Y-18521428D01*
X8691476Y-18521428D02*
X8739095Y-18545237D01*
X8739095Y-18545237D02*
X8762904Y-18569047D01*
X8762904Y-18569047D02*
X8786714Y-18616666D01*
X8786714Y-18616666D02*
X8786714Y-18807142D01*
X8572428Y-18330951D02*
X8548619Y-18307142D01*
X8548619Y-18307142D02*
X8524809Y-18259523D01*
X8524809Y-18259523D02*
X8524809Y-18140475D01*
X8524809Y-18140475D02*
X8548619Y-18092856D01*
X8548619Y-18092856D02*
X8572428Y-18069047D01*
X8572428Y-18069047D02*
X8620047Y-18045237D01*
X8620047Y-18045237D02*
X8667666Y-18045237D01*
X8667666Y-18045237D02*
X8739095Y-18069047D01*
X8739095Y-18069047D02*
X9024809Y-18354761D01*
X9024809Y-18354761D02*
X9024809Y-18045237D01*
X8572428Y-17854761D02*
X8548619Y-17830952D01*
X8548619Y-17830952D02*
X8524809Y-17783333D01*
X8524809Y-17783333D02*
X8524809Y-17664285D01*
X8524809Y-17664285D02*
X8548619Y-17616666D01*
X8548619Y-17616666D02*
X8572428Y-17592857D01*
X8572428Y-17592857D02*
X8620047Y-17569047D01*
X8620047Y-17569047D02*
X8667666Y-17569047D01*
X8667666Y-17569047D02*
X8739095Y-17592857D01*
X8739095Y-17592857D02*
X9024809Y-17878571D01*
X9024809Y-17878571D02*
X9024809Y-17569047D01*
X33962904Y-7678571D02*
X33986714Y-7607143D01*
X33986714Y-7607143D02*
X34010523Y-7583333D01*
X34010523Y-7583333D02*
X34058142Y-7559524D01*
X34058142Y-7559524D02*
X34129571Y-7559524D01*
X34129571Y-7559524D02*
X34177190Y-7583333D01*
X34177190Y-7583333D02*
X34201000Y-7607143D01*
X34201000Y-7607143D02*
X34224809Y-7654762D01*
X34224809Y-7654762D02*
X34224809Y-7845238D01*
X34224809Y-7845238D02*
X33724809Y-7845238D01*
X33724809Y-7845238D02*
X33724809Y-7678571D01*
X33724809Y-7678571D02*
X33748619Y-7630952D01*
X33748619Y-7630952D02*
X33772428Y-7607143D01*
X33772428Y-7607143D02*
X33820047Y-7583333D01*
X33820047Y-7583333D02*
X33867666Y-7583333D01*
X33867666Y-7583333D02*
X33915285Y-7607143D01*
X33915285Y-7607143D02*
X33939095Y-7630952D01*
X33939095Y-7630952D02*
X33962904Y-7678571D01*
X33962904Y-7678571D02*
X33962904Y-7845238D01*
X33724809Y-7250000D02*
X33724809Y-7154762D01*
X33724809Y-7154762D02*
X33748619Y-7107143D01*
X33748619Y-7107143D02*
X33796238Y-7059524D01*
X33796238Y-7059524D02*
X33891476Y-7035714D01*
X33891476Y-7035714D02*
X34058142Y-7035714D01*
X34058142Y-7035714D02*
X34153380Y-7059524D01*
X34153380Y-7059524D02*
X34201000Y-7107143D01*
X34201000Y-7107143D02*
X34224809Y-7154762D01*
X34224809Y-7154762D02*
X34224809Y-7250000D01*
X34224809Y-7250000D02*
X34201000Y-7297619D01*
X34201000Y-7297619D02*
X34153380Y-7345238D01*
X34153380Y-7345238D02*
X34058142Y-7369047D01*
X34058142Y-7369047D02*
X33891476Y-7369047D01*
X33891476Y-7369047D02*
X33796238Y-7345238D01*
X33796238Y-7345238D02*
X33748619Y-7297619D01*
X33748619Y-7297619D02*
X33724809Y-7250000D01*
X33724809Y-6726190D02*
X33724809Y-6630952D01*
X33724809Y-6630952D02*
X33748619Y-6583333D01*
X33748619Y-6583333D02*
X33796238Y-6535714D01*
X33796238Y-6535714D02*
X33891476Y-6511904D01*
X33891476Y-6511904D02*
X34058142Y-6511904D01*
X34058142Y-6511904D02*
X34153380Y-6535714D01*
X34153380Y-6535714D02*
X34201000Y-6583333D01*
X34201000Y-6583333D02*
X34224809Y-6630952D01*
X34224809Y-6630952D02*
X34224809Y-6726190D01*
X34224809Y-6726190D02*
X34201000Y-6773809D01*
X34201000Y-6773809D02*
X34153380Y-6821428D01*
X34153380Y-6821428D02*
X34058142Y-6845237D01*
X34058142Y-6845237D02*
X33891476Y-6845237D01*
X33891476Y-6845237D02*
X33796238Y-6821428D01*
X33796238Y-6821428D02*
X33748619Y-6773809D01*
X33748619Y-6773809D02*
X33724809Y-6726190D01*
X33724809Y-6369046D02*
X33724809Y-6083332D01*
X34224809Y-6226189D02*
X33724809Y-6226189D01*
X2578571Y-17477190D02*
X2554762Y-17501000D01*
X2554762Y-17501000D02*
X2483333Y-17524809D01*
X2483333Y-17524809D02*
X2435714Y-17524809D01*
X2435714Y-17524809D02*
X2364286Y-17501000D01*
X2364286Y-17501000D02*
X2316667Y-17453380D01*
X2316667Y-17453380D02*
X2292857Y-17405761D01*
X2292857Y-17405761D02*
X2269048Y-17310523D01*
X2269048Y-17310523D02*
X2269048Y-17239095D01*
X2269048Y-17239095D02*
X2292857Y-17143857D01*
X2292857Y-17143857D02*
X2316667Y-17096238D01*
X2316667Y-17096238D02*
X2364286Y-17048619D01*
X2364286Y-17048619D02*
X2435714Y-17024809D01*
X2435714Y-17024809D02*
X2483333Y-17024809D01*
X2483333Y-17024809D02*
X2554762Y-17048619D01*
X2554762Y-17048619D02*
X2578571Y-17072428D01*
X2769048Y-17072428D02*
X2792857Y-17048619D01*
X2792857Y-17048619D02*
X2840476Y-17024809D01*
X2840476Y-17024809D02*
X2959524Y-17024809D01*
X2959524Y-17024809D02*
X3007143Y-17048619D01*
X3007143Y-17048619D02*
X3030952Y-17072428D01*
X3030952Y-17072428D02*
X3054762Y-17120047D01*
X3054762Y-17120047D02*
X3054762Y-17167666D01*
X3054762Y-17167666D02*
X3030952Y-17239095D01*
X3030952Y-17239095D02*
X2745238Y-17524809D01*
X2745238Y-17524809D02*
X3054762Y-17524809D01*
X3292857Y-17524809D02*
X3388095Y-17524809D01*
X3388095Y-17524809D02*
X3435714Y-17501000D01*
X3435714Y-17501000D02*
X3459523Y-17477190D01*
X3459523Y-17477190D02*
X3507142Y-17405761D01*
X3507142Y-17405761D02*
X3530952Y-17310523D01*
X3530952Y-17310523D02*
X3530952Y-17120047D01*
X3530952Y-17120047D02*
X3507142Y-17072428D01*
X3507142Y-17072428D02*
X3483333Y-17048619D01*
X3483333Y-17048619D02*
X3435714Y-17024809D01*
X3435714Y-17024809D02*
X3340476Y-17024809D01*
X3340476Y-17024809D02*
X3292857Y-17048619D01*
X3292857Y-17048619D02*
X3269047Y-17072428D01*
X3269047Y-17072428D02*
X3245238Y-17120047D01*
X3245238Y-17120047D02*
X3245238Y-17239095D01*
X3245238Y-17239095D02*
X3269047Y-17286714D01*
X3269047Y-17286714D02*
X3292857Y-17310523D01*
X3292857Y-17310523D02*
X3340476Y-17334333D01*
X3340476Y-17334333D02*
X3435714Y-17334333D01*
X3435714Y-17334333D02*
X3483333Y-17310523D01*
X3483333Y-17310523D02*
X3507142Y-17286714D01*
X3507142Y-17286714D02*
X3530952Y-17239095D01*
X5278571Y-19624809D02*
X5111905Y-19386714D01*
X4992857Y-19624809D02*
X4992857Y-19124809D01*
X4992857Y-19124809D02*
X5183333Y-19124809D01*
X5183333Y-19124809D02*
X5230952Y-19148619D01*
X5230952Y-19148619D02*
X5254762Y-19172428D01*
X5254762Y-19172428D02*
X5278571Y-19220047D01*
X5278571Y-19220047D02*
X5278571Y-19291476D01*
X5278571Y-19291476D02*
X5254762Y-19339095D01*
X5254762Y-19339095D02*
X5230952Y-19362904D01*
X5230952Y-19362904D02*
X5183333Y-19386714D01*
X5183333Y-19386714D02*
X4992857Y-19386714D01*
X5469048Y-19172428D02*
X5492857Y-19148619D01*
X5492857Y-19148619D02*
X5540476Y-19124809D01*
X5540476Y-19124809D02*
X5659524Y-19124809D01*
X5659524Y-19124809D02*
X5707143Y-19148619D01*
X5707143Y-19148619D02*
X5730952Y-19172428D01*
X5730952Y-19172428D02*
X5754762Y-19220047D01*
X5754762Y-19220047D02*
X5754762Y-19267666D01*
X5754762Y-19267666D02*
X5730952Y-19339095D01*
X5730952Y-19339095D02*
X5445238Y-19624809D01*
X5445238Y-19624809D02*
X5754762Y-19624809D01*
X5921428Y-19124809D02*
X6230952Y-19124809D01*
X6230952Y-19124809D02*
X6064285Y-19315285D01*
X6064285Y-19315285D02*
X6135714Y-19315285D01*
X6135714Y-19315285D02*
X6183333Y-19339095D01*
X6183333Y-19339095D02*
X6207142Y-19362904D01*
X6207142Y-19362904D02*
X6230952Y-19410523D01*
X6230952Y-19410523D02*
X6230952Y-19529571D01*
X6230952Y-19529571D02*
X6207142Y-19577190D01*
X6207142Y-19577190D02*
X6183333Y-19601000D01*
X6183333Y-19601000D02*
X6135714Y-19624809D01*
X6135714Y-19624809D02*
X5992857Y-19624809D01*
X5992857Y-19624809D02*
X5945238Y-19601000D01*
X5945238Y-19601000D02*
X5921428Y-19577190D01*
X22677190Y-26821428D02*
X22701000Y-26845237D01*
X22701000Y-26845237D02*
X22724809Y-26916666D01*
X22724809Y-26916666D02*
X22724809Y-26964285D01*
X22724809Y-26964285D02*
X22701000Y-27035713D01*
X22701000Y-27035713D02*
X22653380Y-27083332D01*
X22653380Y-27083332D02*
X22605761Y-27107142D01*
X22605761Y-27107142D02*
X22510523Y-27130951D01*
X22510523Y-27130951D02*
X22439095Y-27130951D01*
X22439095Y-27130951D02*
X22343857Y-27107142D01*
X22343857Y-27107142D02*
X22296238Y-27083332D01*
X22296238Y-27083332D02*
X22248619Y-27035713D01*
X22248619Y-27035713D02*
X22224809Y-26964285D01*
X22224809Y-26964285D02*
X22224809Y-26916666D01*
X22224809Y-26916666D02*
X22248619Y-26845237D01*
X22248619Y-26845237D02*
X22272428Y-26821428D01*
X22724809Y-26345237D02*
X22724809Y-26630951D01*
X22724809Y-26488094D02*
X22224809Y-26488094D01*
X22224809Y-26488094D02*
X22296238Y-26535713D01*
X22296238Y-26535713D02*
X22343857Y-26583332D01*
X22343857Y-26583332D02*
X22367666Y-26630951D01*
X22224809Y-26035714D02*
X22224809Y-25988095D01*
X22224809Y-25988095D02*
X22248619Y-25940476D01*
X22248619Y-25940476D02*
X22272428Y-25916666D01*
X22272428Y-25916666D02*
X22320047Y-25892857D01*
X22320047Y-25892857D02*
X22415285Y-25869047D01*
X22415285Y-25869047D02*
X22534333Y-25869047D01*
X22534333Y-25869047D02*
X22629571Y-25892857D01*
X22629571Y-25892857D02*
X22677190Y-25916666D01*
X22677190Y-25916666D02*
X22701000Y-25940476D01*
X22701000Y-25940476D02*
X22724809Y-25988095D01*
X22724809Y-25988095D02*
X22724809Y-26035714D01*
X22724809Y-26035714D02*
X22701000Y-26083333D01*
X22701000Y-26083333D02*
X22677190Y-26107142D01*
X22677190Y-26107142D02*
X22629571Y-26130952D01*
X22629571Y-26130952D02*
X22534333Y-26154761D01*
X22534333Y-26154761D02*
X22415285Y-26154761D01*
X22415285Y-26154761D02*
X22320047Y-26130952D01*
X22320047Y-26130952D02*
X22272428Y-26107142D01*
X22272428Y-26107142D02*
X22248619Y-26083333D01*
X22248619Y-26083333D02*
X22224809Y-26035714D01*
X17319047Y-31258619D02*
X17271428Y-31234809D01*
X17271428Y-31234809D02*
X17199999Y-31234809D01*
X17199999Y-31234809D02*
X17128571Y-31258619D01*
X17128571Y-31258619D02*
X17080952Y-31306238D01*
X17080952Y-31306238D02*
X17057142Y-31353857D01*
X17057142Y-31353857D02*
X17033333Y-31449095D01*
X17033333Y-31449095D02*
X17033333Y-31520523D01*
X17033333Y-31520523D02*
X17057142Y-31615761D01*
X17057142Y-31615761D02*
X17080952Y-31663380D01*
X17080952Y-31663380D02*
X17128571Y-31711000D01*
X17128571Y-31711000D02*
X17199999Y-31734809D01*
X17199999Y-31734809D02*
X17247618Y-31734809D01*
X17247618Y-31734809D02*
X17319047Y-31711000D01*
X17319047Y-31711000D02*
X17342856Y-31687190D01*
X17342856Y-31687190D02*
X17342856Y-31520523D01*
X17342856Y-31520523D02*
X17247618Y-31520523D01*
X17557142Y-31734809D02*
X17557142Y-31234809D01*
X17557142Y-31234809D02*
X17842856Y-31734809D01*
X17842856Y-31734809D02*
X17842856Y-31234809D01*
X18080952Y-31734809D02*
X18080952Y-31234809D01*
X18080952Y-31234809D02*
X18200000Y-31234809D01*
X18200000Y-31234809D02*
X18271428Y-31258619D01*
X18271428Y-31258619D02*
X18319047Y-31306238D01*
X18319047Y-31306238D02*
X18342857Y-31353857D01*
X18342857Y-31353857D02*
X18366666Y-31449095D01*
X18366666Y-31449095D02*
X18366666Y-31520523D01*
X18366666Y-31520523D02*
X18342857Y-31615761D01*
X18342857Y-31615761D02*
X18319047Y-31663380D01*
X18319047Y-31663380D02*
X18271428Y-31711000D01*
X18271428Y-31711000D02*
X18200000Y-31734809D01*
X18200000Y-31734809D02*
X18080952Y-31734809D01*
X7924809Y-4304761D02*
X7424809Y-4304761D01*
X7424809Y-4304761D02*
X7781952Y-4138094D01*
X7781952Y-4138094D02*
X7424809Y-3971428D01*
X7424809Y-3971428D02*
X7924809Y-3971428D01*
X7424809Y-3780951D02*
X7424809Y-3471427D01*
X7424809Y-3471427D02*
X7615285Y-3638094D01*
X7615285Y-3638094D02*
X7615285Y-3566665D01*
X7615285Y-3566665D02*
X7639095Y-3519046D01*
X7639095Y-3519046D02*
X7662904Y-3495237D01*
X7662904Y-3495237D02*
X7710523Y-3471427D01*
X7710523Y-3471427D02*
X7829571Y-3471427D01*
X7829571Y-3471427D02*
X7877190Y-3495237D01*
X7877190Y-3495237D02*
X7901000Y-3519046D01*
X7901000Y-3519046D02*
X7924809Y-3566665D01*
X7924809Y-3566665D02*
X7924809Y-3709522D01*
X7924809Y-3709522D02*
X7901000Y-3757141D01*
X7901000Y-3757141D02*
X7877190Y-3780951D01*
X11416666Y-13614809D02*
X11250000Y-13376714D01*
X11130952Y-13614809D02*
X11130952Y-13114809D01*
X11130952Y-13114809D02*
X11321428Y-13114809D01*
X11321428Y-13114809D02*
X11369047Y-13138619D01*
X11369047Y-13138619D02*
X11392857Y-13162428D01*
X11392857Y-13162428D02*
X11416666Y-13210047D01*
X11416666Y-13210047D02*
X11416666Y-13281476D01*
X11416666Y-13281476D02*
X11392857Y-13329095D01*
X11392857Y-13329095D02*
X11369047Y-13352904D01*
X11369047Y-13352904D02*
X11321428Y-13376714D01*
X11321428Y-13376714D02*
X11130952Y-13376714D01*
X11607143Y-13162428D02*
X11630952Y-13138619D01*
X11630952Y-13138619D02*
X11678571Y-13114809D01*
X11678571Y-13114809D02*
X11797619Y-13114809D01*
X11797619Y-13114809D02*
X11845238Y-13138619D01*
X11845238Y-13138619D02*
X11869047Y-13162428D01*
X11869047Y-13162428D02*
X11892857Y-13210047D01*
X11892857Y-13210047D02*
X11892857Y-13257666D01*
X11892857Y-13257666D02*
X11869047Y-13329095D01*
X11869047Y-13329095D02*
X11583333Y-13614809D01*
X11583333Y-13614809D02*
X11892857Y-13614809D01*
X1624809Y-9610952D02*
X2029571Y-9610952D01*
X2029571Y-9610952D02*
X2077190Y-9587142D01*
X2077190Y-9587142D02*
X2101000Y-9563333D01*
X2101000Y-9563333D02*
X2124809Y-9515714D01*
X2124809Y-9515714D02*
X2124809Y-9420476D01*
X2124809Y-9420476D02*
X2101000Y-9372857D01*
X2101000Y-9372857D02*
X2077190Y-9349047D01*
X2077190Y-9349047D02*
X2029571Y-9325238D01*
X2029571Y-9325238D02*
X1624809Y-9325238D01*
X1791476Y-8872856D02*
X2124809Y-8872856D01*
X1601000Y-8991904D02*
X1958142Y-9110951D01*
X1958142Y-9110951D02*
X1958142Y-8801428D01*
X15090477Y-31724809D02*
X15185715Y-31724809D01*
X15185715Y-31724809D02*
X15233334Y-31701000D01*
X15233334Y-31701000D02*
X15257143Y-31677190D01*
X15257143Y-31677190D02*
X15304762Y-31605761D01*
X15304762Y-31605761D02*
X15328572Y-31510523D01*
X15328572Y-31510523D02*
X15328572Y-31320047D01*
X15328572Y-31320047D02*
X15304762Y-31272428D01*
X15304762Y-31272428D02*
X15280953Y-31248619D01*
X15280953Y-31248619D02*
X15233334Y-31224809D01*
X15233334Y-31224809D02*
X15138096Y-31224809D01*
X15138096Y-31224809D02*
X15090477Y-31248619D01*
X15090477Y-31248619D02*
X15066667Y-31272428D01*
X15066667Y-31272428D02*
X15042858Y-31320047D01*
X15042858Y-31320047D02*
X15042858Y-31439095D01*
X15042858Y-31439095D02*
X15066667Y-31486714D01*
X15066667Y-31486714D02*
X15090477Y-31510523D01*
X15090477Y-31510523D02*
X15138096Y-31534333D01*
X15138096Y-31534333D02*
X15233334Y-31534333D01*
X15233334Y-31534333D02*
X15280953Y-31510523D01*
X15280953Y-31510523D02*
X15304762Y-31486714D01*
X15304762Y-31486714D02*
X15328572Y-31439095D01*
X15471429Y-31224809D02*
X15638095Y-31724809D01*
X15638095Y-31724809D02*
X15804762Y-31224809D01*
X24501000Y-26959523D02*
X24524809Y-26888095D01*
X24524809Y-26888095D02*
X24524809Y-26769047D01*
X24524809Y-26769047D02*
X24501000Y-26721428D01*
X24501000Y-26721428D02*
X24477190Y-26697619D01*
X24477190Y-26697619D02*
X24429571Y-26673809D01*
X24429571Y-26673809D02*
X24381952Y-26673809D01*
X24381952Y-26673809D02*
X24334333Y-26697619D01*
X24334333Y-26697619D02*
X24310523Y-26721428D01*
X24310523Y-26721428D02*
X24286714Y-26769047D01*
X24286714Y-26769047D02*
X24262904Y-26864285D01*
X24262904Y-26864285D02*
X24239095Y-26911904D01*
X24239095Y-26911904D02*
X24215285Y-26935714D01*
X24215285Y-26935714D02*
X24167666Y-26959523D01*
X24167666Y-26959523D02*
X24120047Y-26959523D01*
X24120047Y-26959523D02*
X24072428Y-26935714D01*
X24072428Y-26935714D02*
X24048619Y-26911904D01*
X24048619Y-26911904D02*
X24024809Y-26864285D01*
X24024809Y-26864285D02*
X24024809Y-26745238D01*
X24024809Y-26745238D02*
X24048619Y-26673809D01*
X24024809Y-26507143D02*
X24524809Y-26388095D01*
X24524809Y-26388095D02*
X24167666Y-26292857D01*
X24167666Y-26292857D02*
X24524809Y-26197619D01*
X24524809Y-26197619D02*
X24024809Y-26078572D01*
X24524809Y-25888095D02*
X24024809Y-25888095D01*
X24024809Y-25888095D02*
X24024809Y-25769047D01*
X24024809Y-25769047D02*
X24048619Y-25697619D01*
X24048619Y-25697619D02*
X24096238Y-25650000D01*
X24096238Y-25650000D02*
X24143857Y-25626190D01*
X24143857Y-25626190D02*
X24239095Y-25602381D01*
X24239095Y-25602381D02*
X24310523Y-25602381D01*
X24310523Y-25602381D02*
X24405761Y-25626190D01*
X24405761Y-25626190D02*
X24453380Y-25650000D01*
X24453380Y-25650000D02*
X24501000Y-25697619D01*
X24501000Y-25697619D02*
X24524809Y-25769047D01*
X24524809Y-25769047D02*
X24524809Y-25888095D01*
X24524809Y-25388095D02*
X24024809Y-25388095D01*
X24024809Y-25054762D02*
X24024809Y-24959524D01*
X24024809Y-24959524D02*
X24048619Y-24911905D01*
X24048619Y-24911905D02*
X24096238Y-24864286D01*
X24096238Y-24864286D02*
X24191476Y-24840476D01*
X24191476Y-24840476D02*
X24358142Y-24840476D01*
X24358142Y-24840476D02*
X24453380Y-24864286D01*
X24453380Y-24864286D02*
X24501000Y-24911905D01*
X24501000Y-24911905D02*
X24524809Y-24959524D01*
X24524809Y-24959524D02*
X24524809Y-25054762D01*
X24524809Y-25054762D02*
X24501000Y-25102381D01*
X24501000Y-25102381D02*
X24453380Y-25150000D01*
X24453380Y-25150000D02*
X24358142Y-25173809D01*
X24358142Y-25173809D02*
X24191476Y-25173809D01*
X24191476Y-25173809D02*
X24096238Y-25150000D01*
X24096238Y-25150000D02*
X24048619Y-25102381D01*
X24048619Y-25102381D02*
X24024809Y-25054762D01*
X18177190Y-12521428D02*
X18201000Y-12545237D01*
X18201000Y-12545237D02*
X18224809Y-12616666D01*
X18224809Y-12616666D02*
X18224809Y-12664285D01*
X18224809Y-12664285D02*
X18201000Y-12735713D01*
X18201000Y-12735713D02*
X18153380Y-12783332D01*
X18153380Y-12783332D02*
X18105761Y-12807142D01*
X18105761Y-12807142D02*
X18010523Y-12830951D01*
X18010523Y-12830951D02*
X17939095Y-12830951D01*
X17939095Y-12830951D02*
X17843857Y-12807142D01*
X17843857Y-12807142D02*
X17796238Y-12783332D01*
X17796238Y-12783332D02*
X17748619Y-12735713D01*
X17748619Y-12735713D02*
X17724809Y-12664285D01*
X17724809Y-12664285D02*
X17724809Y-12616666D01*
X17724809Y-12616666D02*
X17748619Y-12545237D01*
X17748619Y-12545237D02*
X17772428Y-12521428D01*
X18224809Y-12045237D02*
X18224809Y-12330951D01*
X18224809Y-12188094D02*
X17724809Y-12188094D01*
X17724809Y-12188094D02*
X17796238Y-12235713D01*
X17796238Y-12235713D02*
X17843857Y-12283332D01*
X17843857Y-12283332D02*
X17867666Y-12330951D01*
X17772428Y-11854761D02*
X17748619Y-11830952D01*
X17748619Y-11830952D02*
X17724809Y-11783333D01*
X17724809Y-11783333D02*
X17724809Y-11664285D01*
X17724809Y-11664285D02*
X17748619Y-11616666D01*
X17748619Y-11616666D02*
X17772428Y-11592857D01*
X17772428Y-11592857D02*
X17820047Y-11569047D01*
X17820047Y-11569047D02*
X17867666Y-11569047D01*
X17867666Y-11569047D02*
X17939095Y-11592857D01*
X17939095Y-11592857D02*
X18224809Y-11878571D01*
X18224809Y-11878571D02*
X18224809Y-11569047D01*
X22883809Y-7721428D02*
X22645714Y-7888094D01*
X22883809Y-8007142D02*
X22383809Y-8007142D01*
X22383809Y-8007142D02*
X22383809Y-7816666D01*
X22383809Y-7816666D02*
X22407619Y-7769047D01*
X22407619Y-7769047D02*
X22431428Y-7745237D01*
X22431428Y-7745237D02*
X22479047Y-7721428D01*
X22479047Y-7721428D02*
X22550476Y-7721428D01*
X22550476Y-7721428D02*
X22598095Y-7745237D01*
X22598095Y-7745237D02*
X22621904Y-7769047D01*
X22621904Y-7769047D02*
X22645714Y-7816666D01*
X22645714Y-7816666D02*
X22645714Y-8007142D01*
X22883809Y-7245237D02*
X22883809Y-7530951D01*
X22883809Y-7388094D02*
X22383809Y-7388094D01*
X22383809Y-7388094D02*
X22455238Y-7435713D01*
X22455238Y-7435713D02*
X22502857Y-7483332D01*
X22502857Y-7483332D02*
X22526666Y-7530951D01*
X22431428Y-7054761D02*
X22407619Y-7030952D01*
X22407619Y-7030952D02*
X22383809Y-6983333D01*
X22383809Y-6983333D02*
X22383809Y-6864285D01*
X22383809Y-6864285D02*
X22407619Y-6816666D01*
X22407619Y-6816666D02*
X22431428Y-6792857D01*
X22431428Y-6792857D02*
X22479047Y-6769047D01*
X22479047Y-6769047D02*
X22526666Y-6769047D01*
X22526666Y-6769047D02*
X22598095Y-6792857D01*
X22598095Y-6792857D02*
X22883809Y-7078571D01*
X22883809Y-7078571D02*
X22883809Y-6769047D01*
X10778571Y-31734809D02*
X10611905Y-31496714D01*
X10492857Y-31734809D02*
X10492857Y-31234809D01*
X10492857Y-31234809D02*
X10683333Y-31234809D01*
X10683333Y-31234809D02*
X10730952Y-31258619D01*
X10730952Y-31258619D02*
X10754762Y-31282428D01*
X10754762Y-31282428D02*
X10778571Y-31330047D01*
X10778571Y-31330047D02*
X10778571Y-31401476D01*
X10778571Y-31401476D02*
X10754762Y-31449095D01*
X10754762Y-31449095D02*
X10730952Y-31472904D01*
X10730952Y-31472904D02*
X10683333Y-31496714D01*
X10683333Y-31496714D02*
X10492857Y-31496714D01*
X10945238Y-31234809D02*
X11278571Y-31734809D01*
X11278571Y-31234809D02*
X10945238Y-31734809D01*
X11683333Y-31401476D02*
X11683333Y-31734809D01*
X11564285Y-31211000D02*
X11445238Y-31568142D01*
X11445238Y-31568142D02*
X11754761Y-31568142D01*
X14077190Y-20321428D02*
X14101000Y-20345237D01*
X14101000Y-20345237D02*
X14124809Y-20416666D01*
X14124809Y-20416666D02*
X14124809Y-20464285D01*
X14124809Y-20464285D02*
X14101000Y-20535713D01*
X14101000Y-20535713D02*
X14053380Y-20583332D01*
X14053380Y-20583332D02*
X14005761Y-20607142D01*
X14005761Y-20607142D02*
X13910523Y-20630951D01*
X13910523Y-20630951D02*
X13839095Y-20630951D01*
X13839095Y-20630951D02*
X13743857Y-20607142D01*
X13743857Y-20607142D02*
X13696238Y-20583332D01*
X13696238Y-20583332D02*
X13648619Y-20535713D01*
X13648619Y-20535713D02*
X13624809Y-20464285D01*
X13624809Y-20464285D02*
X13624809Y-20416666D01*
X13624809Y-20416666D02*
X13648619Y-20345237D01*
X13648619Y-20345237D02*
X13672428Y-20321428D01*
X13672428Y-20130951D02*
X13648619Y-20107142D01*
X13648619Y-20107142D02*
X13624809Y-20059523D01*
X13624809Y-20059523D02*
X13624809Y-19940475D01*
X13624809Y-19940475D02*
X13648619Y-19892856D01*
X13648619Y-19892856D02*
X13672428Y-19869047D01*
X13672428Y-19869047D02*
X13720047Y-19845237D01*
X13720047Y-19845237D02*
X13767666Y-19845237D01*
X13767666Y-19845237D02*
X13839095Y-19869047D01*
X13839095Y-19869047D02*
X14124809Y-20154761D01*
X14124809Y-20154761D02*
X14124809Y-19845237D01*
X14124809Y-19369047D02*
X14124809Y-19654761D01*
X14124809Y-19511904D02*
X13624809Y-19511904D01*
X13624809Y-19511904D02*
X13696238Y-19559523D01*
X13696238Y-19559523D02*
X13743857Y-19607142D01*
X13743857Y-19607142D02*
X13767666Y-19654761D01*
X28624809Y-3266666D02*
X28981952Y-3266666D01*
X28981952Y-3266666D02*
X29053380Y-3290475D01*
X29053380Y-3290475D02*
X29101000Y-3338094D01*
X29101000Y-3338094D02*
X29124809Y-3409523D01*
X29124809Y-3409523D02*
X29124809Y-3457142D01*
X28672428Y-3052380D02*
X28648619Y-3028571D01*
X28648619Y-3028571D02*
X28624809Y-2980952D01*
X28624809Y-2980952D02*
X28624809Y-2861904D01*
X28624809Y-2861904D02*
X28648619Y-2814285D01*
X28648619Y-2814285D02*
X28672428Y-2790476D01*
X28672428Y-2790476D02*
X28720047Y-2766666D01*
X28720047Y-2766666D02*
X28767666Y-2766666D01*
X28767666Y-2766666D02*
X28839095Y-2790476D01*
X28839095Y-2790476D02*
X29124809Y-3076190D01*
X29124809Y-3076190D02*
X29124809Y-2766666D01*
X18577190Y-26783333D02*
X18601000Y-26807142D01*
X18601000Y-26807142D02*
X18624809Y-26878571D01*
X18624809Y-26878571D02*
X18624809Y-26926190D01*
X18624809Y-26926190D02*
X18601000Y-26997618D01*
X18601000Y-26997618D02*
X18553380Y-27045237D01*
X18553380Y-27045237D02*
X18505761Y-27069047D01*
X18505761Y-27069047D02*
X18410523Y-27092856D01*
X18410523Y-27092856D02*
X18339095Y-27092856D01*
X18339095Y-27092856D02*
X18243857Y-27069047D01*
X18243857Y-27069047D02*
X18196238Y-27045237D01*
X18196238Y-27045237D02*
X18148619Y-26997618D01*
X18148619Y-26997618D02*
X18124809Y-26926190D01*
X18124809Y-26926190D02*
X18124809Y-26878571D01*
X18124809Y-26878571D02*
X18148619Y-26807142D01*
X18148619Y-26807142D02*
X18172428Y-26783333D01*
X18124809Y-26616666D02*
X18124809Y-26307142D01*
X18124809Y-26307142D02*
X18315285Y-26473809D01*
X18315285Y-26473809D02*
X18315285Y-26402380D01*
X18315285Y-26402380D02*
X18339095Y-26354761D01*
X18339095Y-26354761D02*
X18362904Y-26330952D01*
X18362904Y-26330952D02*
X18410523Y-26307142D01*
X18410523Y-26307142D02*
X18529571Y-26307142D01*
X18529571Y-26307142D02*
X18577190Y-26330952D01*
X18577190Y-26330952D02*
X18601000Y-26354761D01*
X18601000Y-26354761D02*
X18624809Y-26402380D01*
X18624809Y-26402380D02*
X18624809Y-26545237D01*
X18624809Y-26545237D02*
X18601000Y-26592856D01*
X18601000Y-26592856D02*
X18577190Y-26616666D01*
X29778571Y-16877190D02*
X29754762Y-16901000D01*
X29754762Y-16901000D02*
X29683333Y-16924809D01*
X29683333Y-16924809D02*
X29635714Y-16924809D01*
X29635714Y-16924809D02*
X29564286Y-16901000D01*
X29564286Y-16901000D02*
X29516667Y-16853380D01*
X29516667Y-16853380D02*
X29492857Y-16805761D01*
X29492857Y-16805761D02*
X29469048Y-16710523D01*
X29469048Y-16710523D02*
X29469048Y-16639095D01*
X29469048Y-16639095D02*
X29492857Y-16543857D01*
X29492857Y-16543857D02*
X29516667Y-16496238D01*
X29516667Y-16496238D02*
X29564286Y-16448619D01*
X29564286Y-16448619D02*
X29635714Y-16424809D01*
X29635714Y-16424809D02*
X29683333Y-16424809D01*
X29683333Y-16424809D02*
X29754762Y-16448619D01*
X29754762Y-16448619D02*
X29778571Y-16472428D01*
X30254762Y-16924809D02*
X29969048Y-16924809D01*
X30111905Y-16924809D02*
X30111905Y-16424809D01*
X30111905Y-16424809D02*
X30064286Y-16496238D01*
X30064286Y-16496238D02*
X30016667Y-16543857D01*
X30016667Y-16543857D02*
X29969048Y-16567666D01*
X30683333Y-16591476D02*
X30683333Y-16924809D01*
X30564285Y-16401000D02*
X30445238Y-16758142D01*
X30445238Y-16758142D02*
X30754761Y-16758142D01*
X22678571Y-9777190D02*
X22654762Y-9801000D01*
X22654762Y-9801000D02*
X22583333Y-9824809D01*
X22583333Y-9824809D02*
X22535714Y-9824809D01*
X22535714Y-9824809D02*
X22464286Y-9801000D01*
X22464286Y-9801000D02*
X22416667Y-9753380D01*
X22416667Y-9753380D02*
X22392857Y-9705761D01*
X22392857Y-9705761D02*
X22369048Y-9610523D01*
X22369048Y-9610523D02*
X22369048Y-9539095D01*
X22369048Y-9539095D02*
X22392857Y-9443857D01*
X22392857Y-9443857D02*
X22416667Y-9396238D01*
X22416667Y-9396238D02*
X22464286Y-9348619D01*
X22464286Y-9348619D02*
X22535714Y-9324809D01*
X22535714Y-9324809D02*
X22583333Y-9324809D01*
X22583333Y-9324809D02*
X22654762Y-9348619D01*
X22654762Y-9348619D02*
X22678571Y-9372428D01*
X22869048Y-9372428D02*
X22892857Y-9348619D01*
X22892857Y-9348619D02*
X22940476Y-9324809D01*
X22940476Y-9324809D02*
X23059524Y-9324809D01*
X23059524Y-9324809D02*
X23107143Y-9348619D01*
X23107143Y-9348619D02*
X23130952Y-9372428D01*
X23130952Y-9372428D02*
X23154762Y-9420047D01*
X23154762Y-9420047D02*
X23154762Y-9467666D01*
X23154762Y-9467666D02*
X23130952Y-9539095D01*
X23130952Y-9539095D02*
X22845238Y-9824809D01*
X22845238Y-9824809D02*
X23154762Y-9824809D01*
X23345238Y-9372428D02*
X23369047Y-9348619D01*
X23369047Y-9348619D02*
X23416666Y-9324809D01*
X23416666Y-9324809D02*
X23535714Y-9324809D01*
X23535714Y-9324809D02*
X23583333Y-9348619D01*
X23583333Y-9348619D02*
X23607142Y-9372428D01*
X23607142Y-9372428D02*
X23630952Y-9420047D01*
X23630952Y-9420047D02*
X23630952Y-9467666D01*
X23630952Y-9467666D02*
X23607142Y-9539095D01*
X23607142Y-9539095D02*
X23321428Y-9824809D01*
X23321428Y-9824809D02*
X23630952Y-9824809D01*
X7578571Y-23177190D02*
X7554762Y-23201000D01*
X7554762Y-23201000D02*
X7483333Y-23224809D01*
X7483333Y-23224809D02*
X7435714Y-23224809D01*
X7435714Y-23224809D02*
X7364286Y-23201000D01*
X7364286Y-23201000D02*
X7316667Y-23153380D01*
X7316667Y-23153380D02*
X7292857Y-23105761D01*
X7292857Y-23105761D02*
X7269048Y-23010523D01*
X7269048Y-23010523D02*
X7269048Y-22939095D01*
X7269048Y-22939095D02*
X7292857Y-22843857D01*
X7292857Y-22843857D02*
X7316667Y-22796238D01*
X7316667Y-22796238D02*
X7364286Y-22748619D01*
X7364286Y-22748619D02*
X7435714Y-22724809D01*
X7435714Y-22724809D02*
X7483333Y-22724809D01*
X7483333Y-22724809D02*
X7554762Y-22748619D01*
X7554762Y-22748619D02*
X7578571Y-22772428D01*
X7769048Y-22772428D02*
X7792857Y-22748619D01*
X7792857Y-22748619D02*
X7840476Y-22724809D01*
X7840476Y-22724809D02*
X7959524Y-22724809D01*
X7959524Y-22724809D02*
X8007143Y-22748619D01*
X8007143Y-22748619D02*
X8030952Y-22772428D01*
X8030952Y-22772428D02*
X8054762Y-22820047D01*
X8054762Y-22820047D02*
X8054762Y-22867666D01*
X8054762Y-22867666D02*
X8030952Y-22939095D01*
X8030952Y-22939095D02*
X7745238Y-23224809D01*
X7745238Y-23224809D02*
X8054762Y-23224809D01*
X8340476Y-22939095D02*
X8292857Y-22915285D01*
X8292857Y-22915285D02*
X8269047Y-22891476D01*
X8269047Y-22891476D02*
X8245238Y-22843857D01*
X8245238Y-22843857D02*
X8245238Y-22820047D01*
X8245238Y-22820047D02*
X8269047Y-22772428D01*
X8269047Y-22772428D02*
X8292857Y-22748619D01*
X8292857Y-22748619D02*
X8340476Y-22724809D01*
X8340476Y-22724809D02*
X8435714Y-22724809D01*
X8435714Y-22724809D02*
X8483333Y-22748619D01*
X8483333Y-22748619D02*
X8507142Y-22772428D01*
X8507142Y-22772428D02*
X8530952Y-22820047D01*
X8530952Y-22820047D02*
X8530952Y-22843857D01*
X8530952Y-22843857D02*
X8507142Y-22891476D01*
X8507142Y-22891476D02*
X8483333Y-22915285D01*
X8483333Y-22915285D02*
X8435714Y-22939095D01*
X8435714Y-22939095D02*
X8340476Y-22939095D01*
X8340476Y-22939095D02*
X8292857Y-22962904D01*
X8292857Y-22962904D02*
X8269047Y-22986714D01*
X8269047Y-22986714D02*
X8245238Y-23034333D01*
X8245238Y-23034333D02*
X8245238Y-23129571D01*
X8245238Y-23129571D02*
X8269047Y-23177190D01*
X8269047Y-23177190D02*
X8292857Y-23201000D01*
X8292857Y-23201000D02*
X8340476Y-23224809D01*
X8340476Y-23224809D02*
X8435714Y-23224809D01*
X8435714Y-23224809D02*
X8483333Y-23201000D01*
X8483333Y-23201000D02*
X8507142Y-23177190D01*
X8507142Y-23177190D02*
X8530952Y-23129571D01*
X8530952Y-23129571D02*
X8530952Y-23034333D01*
X8530952Y-23034333D02*
X8507142Y-22986714D01*
X8507142Y-22986714D02*
X8483333Y-22962904D01*
X8483333Y-22962904D02*
X8435714Y-22939095D01*
X12680953Y-31234809D02*
X12966667Y-31234809D01*
X12823810Y-31734809D02*
X12823810Y-31234809D01*
X13085714Y-31234809D02*
X13419047Y-31734809D01*
X13419047Y-31234809D02*
X13085714Y-31734809D01*
X13823809Y-31401476D02*
X13823809Y-31734809D01*
X13704761Y-31211000D02*
X13585714Y-31568142D01*
X13585714Y-31568142D02*
X13895237Y-31568142D01*
X18424809Y-14988094D02*
X17924809Y-14988094D01*
X18377190Y-14464285D02*
X18401000Y-14488094D01*
X18401000Y-14488094D02*
X18424809Y-14559523D01*
X18424809Y-14559523D02*
X18424809Y-14607142D01*
X18424809Y-14607142D02*
X18401000Y-14678570D01*
X18401000Y-14678570D02*
X18353380Y-14726189D01*
X18353380Y-14726189D02*
X18305761Y-14749999D01*
X18305761Y-14749999D02*
X18210523Y-14773808D01*
X18210523Y-14773808D02*
X18139095Y-14773808D01*
X18139095Y-14773808D02*
X18043857Y-14749999D01*
X18043857Y-14749999D02*
X17996238Y-14726189D01*
X17996238Y-14726189D02*
X17948619Y-14678570D01*
X17948619Y-14678570D02*
X17924809Y-14607142D01*
X17924809Y-14607142D02*
X17924809Y-14559523D01*
X17924809Y-14559523D02*
X17948619Y-14488094D01*
X17948619Y-14488094D02*
X17972428Y-14464285D01*
X18424809Y-13988094D02*
X18424809Y-14273808D01*
X18424809Y-14130951D02*
X17924809Y-14130951D01*
X17924809Y-14130951D02*
X17996238Y-14178570D01*
X17996238Y-14178570D02*
X18043857Y-14226189D01*
X18043857Y-14226189D02*
X18067666Y-14273808D01*
X7924809Y-6404761D02*
X7424809Y-6404761D01*
X7424809Y-6404761D02*
X7781952Y-6238094D01*
X7781952Y-6238094D02*
X7424809Y-6071428D01*
X7424809Y-6071428D02*
X7924809Y-6071428D01*
X7591476Y-5619046D02*
X7924809Y-5619046D01*
X7401000Y-5738094D02*
X7758142Y-5857141D01*
X7758142Y-5857141D02*
X7758142Y-5547618D01*
X25777190Y-18221428D02*
X25801000Y-18245237D01*
X25801000Y-18245237D02*
X25824809Y-18316666D01*
X25824809Y-18316666D02*
X25824809Y-18364285D01*
X25824809Y-18364285D02*
X25801000Y-18435713D01*
X25801000Y-18435713D02*
X25753380Y-18483332D01*
X25753380Y-18483332D02*
X25705761Y-18507142D01*
X25705761Y-18507142D02*
X25610523Y-18530951D01*
X25610523Y-18530951D02*
X25539095Y-18530951D01*
X25539095Y-18530951D02*
X25443857Y-18507142D01*
X25443857Y-18507142D02*
X25396238Y-18483332D01*
X25396238Y-18483332D02*
X25348619Y-18435713D01*
X25348619Y-18435713D02*
X25324809Y-18364285D01*
X25324809Y-18364285D02*
X25324809Y-18316666D01*
X25324809Y-18316666D02*
X25348619Y-18245237D01*
X25348619Y-18245237D02*
X25372428Y-18221428D01*
X25824809Y-17745237D02*
X25824809Y-18030951D01*
X25824809Y-17888094D02*
X25324809Y-17888094D01*
X25324809Y-17888094D02*
X25396238Y-17935713D01*
X25396238Y-17935713D02*
X25443857Y-17983332D01*
X25443857Y-17983332D02*
X25467666Y-18030951D01*
X25824809Y-17269047D02*
X25824809Y-17554761D01*
X25824809Y-17411904D02*
X25324809Y-17411904D01*
X25324809Y-17411904D02*
X25396238Y-17459523D01*
X25396238Y-17459523D02*
X25443857Y-17507142D01*
X25443857Y-17507142D02*
X25467666Y-17554761D01*
X14016666Y-13597190D02*
X13992857Y-13621000D01*
X13992857Y-13621000D02*
X13921428Y-13644809D01*
X13921428Y-13644809D02*
X13873809Y-13644809D01*
X13873809Y-13644809D02*
X13802381Y-13621000D01*
X13802381Y-13621000D02*
X13754762Y-13573380D01*
X13754762Y-13573380D02*
X13730952Y-13525761D01*
X13730952Y-13525761D02*
X13707143Y-13430523D01*
X13707143Y-13430523D02*
X13707143Y-13359095D01*
X13707143Y-13359095D02*
X13730952Y-13263857D01*
X13730952Y-13263857D02*
X13754762Y-13216238D01*
X13754762Y-13216238D02*
X13802381Y-13168619D01*
X13802381Y-13168619D02*
X13873809Y-13144809D01*
X13873809Y-13144809D02*
X13921428Y-13144809D01*
X13921428Y-13144809D02*
X13992857Y-13168619D01*
X13992857Y-13168619D02*
X14016666Y-13192428D01*
X14445238Y-13144809D02*
X14350000Y-13144809D01*
X14350000Y-13144809D02*
X14302381Y-13168619D01*
X14302381Y-13168619D02*
X14278571Y-13192428D01*
X14278571Y-13192428D02*
X14230952Y-13263857D01*
X14230952Y-13263857D02*
X14207143Y-13359095D01*
X14207143Y-13359095D02*
X14207143Y-13549571D01*
X14207143Y-13549571D02*
X14230952Y-13597190D01*
X14230952Y-13597190D02*
X14254762Y-13621000D01*
X14254762Y-13621000D02*
X14302381Y-13644809D01*
X14302381Y-13644809D02*
X14397619Y-13644809D01*
X14397619Y-13644809D02*
X14445238Y-13621000D01*
X14445238Y-13621000D02*
X14469047Y-13597190D01*
X14469047Y-13597190D02*
X14492857Y-13549571D01*
X14492857Y-13549571D02*
X14492857Y-13430523D01*
X14492857Y-13430523D02*
X14469047Y-13382904D01*
X14469047Y-13382904D02*
X14445238Y-13359095D01*
X14445238Y-13359095D02*
X14397619Y-13335285D01*
X14397619Y-13335285D02*
X14302381Y-13335285D01*
X14302381Y-13335285D02*
X14254762Y-13359095D01*
X14254762Y-13359095D02*
X14230952Y-13382904D01*
X14230952Y-13382904D02*
X14207143Y-13430523D01*
X21077190Y-28941428D02*
X21101000Y-28965237D01*
X21101000Y-28965237D02*
X21124809Y-29036666D01*
X21124809Y-29036666D02*
X21124809Y-29084285D01*
X21124809Y-29084285D02*
X21101000Y-29155713D01*
X21101000Y-29155713D02*
X21053380Y-29203332D01*
X21053380Y-29203332D02*
X21005761Y-29227142D01*
X21005761Y-29227142D02*
X20910523Y-29250951D01*
X20910523Y-29250951D02*
X20839095Y-29250951D01*
X20839095Y-29250951D02*
X20743857Y-29227142D01*
X20743857Y-29227142D02*
X20696238Y-29203332D01*
X20696238Y-29203332D02*
X20648619Y-29155713D01*
X20648619Y-29155713D02*
X20624809Y-29084285D01*
X20624809Y-29084285D02*
X20624809Y-29036666D01*
X20624809Y-29036666D02*
X20648619Y-28965237D01*
X20648619Y-28965237D02*
X20672428Y-28941428D01*
X20672428Y-28750951D02*
X20648619Y-28727142D01*
X20648619Y-28727142D02*
X20624809Y-28679523D01*
X20624809Y-28679523D02*
X20624809Y-28560475D01*
X20624809Y-28560475D02*
X20648619Y-28512856D01*
X20648619Y-28512856D02*
X20672428Y-28489047D01*
X20672428Y-28489047D02*
X20720047Y-28465237D01*
X20720047Y-28465237D02*
X20767666Y-28465237D01*
X20767666Y-28465237D02*
X20839095Y-28489047D01*
X20839095Y-28489047D02*
X21124809Y-28774761D01*
X21124809Y-28774761D02*
X21124809Y-28465237D01*
X20624809Y-28012857D02*
X20624809Y-28250952D01*
X20624809Y-28250952D02*
X20862904Y-28274761D01*
X20862904Y-28274761D02*
X20839095Y-28250952D01*
X20839095Y-28250952D02*
X20815285Y-28203333D01*
X20815285Y-28203333D02*
X20815285Y-28084285D01*
X20815285Y-28084285D02*
X20839095Y-28036666D01*
X20839095Y-28036666D02*
X20862904Y-28012857D01*
X20862904Y-28012857D02*
X20910523Y-27989047D01*
X20910523Y-27989047D02*
X21029571Y-27989047D01*
X21029571Y-27989047D02*
X21077190Y-28012857D01*
X21077190Y-28012857D02*
X21101000Y-28036666D01*
X21101000Y-28036666D02*
X21124809Y-28084285D01*
X21124809Y-28084285D02*
X21124809Y-28203333D01*
X21124809Y-28203333D02*
X21101000Y-28250952D01*
X21101000Y-28250952D02*
X21077190Y-28274761D01*
X27224809Y-7883333D02*
X27224809Y-8121428D01*
X27224809Y-8121428D02*
X26724809Y-8121428D01*
X26772428Y-7740475D02*
X26748619Y-7716666D01*
X26748619Y-7716666D02*
X26724809Y-7669047D01*
X26724809Y-7669047D02*
X26724809Y-7549999D01*
X26724809Y-7549999D02*
X26748619Y-7502380D01*
X26748619Y-7502380D02*
X26772428Y-7478571D01*
X26772428Y-7478571D02*
X26820047Y-7454761D01*
X26820047Y-7454761D02*
X26867666Y-7454761D01*
X26867666Y-7454761D02*
X26939095Y-7478571D01*
X26939095Y-7478571D02*
X27224809Y-7764285D01*
X27224809Y-7764285D02*
X27224809Y-7454761D01*
X1877190Y-6283333D02*
X1901000Y-6307142D01*
X1901000Y-6307142D02*
X1924809Y-6378571D01*
X1924809Y-6378571D02*
X1924809Y-6426190D01*
X1924809Y-6426190D02*
X1901000Y-6497618D01*
X1901000Y-6497618D02*
X1853380Y-6545237D01*
X1853380Y-6545237D02*
X1805761Y-6569047D01*
X1805761Y-6569047D02*
X1710523Y-6592856D01*
X1710523Y-6592856D02*
X1639095Y-6592856D01*
X1639095Y-6592856D02*
X1543857Y-6569047D01*
X1543857Y-6569047D02*
X1496238Y-6545237D01*
X1496238Y-6545237D02*
X1448619Y-6497618D01*
X1448619Y-6497618D02*
X1424809Y-6426190D01*
X1424809Y-6426190D02*
X1424809Y-6378571D01*
X1424809Y-6378571D02*
X1448619Y-6307142D01*
X1448619Y-6307142D02*
X1472428Y-6283333D01*
X1472428Y-6092856D02*
X1448619Y-6069047D01*
X1448619Y-6069047D02*
X1424809Y-6021428D01*
X1424809Y-6021428D02*
X1424809Y-5902380D01*
X1424809Y-5902380D02*
X1448619Y-5854761D01*
X1448619Y-5854761D02*
X1472428Y-5830952D01*
X1472428Y-5830952D02*
X1520047Y-5807142D01*
X1520047Y-5807142D02*
X1567666Y-5807142D01*
X1567666Y-5807142D02*
X1639095Y-5830952D01*
X1639095Y-5830952D02*
X1924809Y-6116666D01*
X1924809Y-6116666D02*
X1924809Y-5807142D01*
X5024809Y-16380952D02*
X5429571Y-16380952D01*
X5429571Y-16380952D02*
X5477190Y-16357142D01*
X5477190Y-16357142D02*
X5501000Y-16333333D01*
X5501000Y-16333333D02*
X5524809Y-16285714D01*
X5524809Y-16285714D02*
X5524809Y-16190476D01*
X5524809Y-16190476D02*
X5501000Y-16142857D01*
X5501000Y-16142857D02*
X5477190Y-16119047D01*
X5477190Y-16119047D02*
X5429571Y-16095238D01*
X5429571Y-16095238D02*
X5024809Y-16095238D01*
X5024809Y-15904761D02*
X5024809Y-15595237D01*
X5024809Y-15595237D02*
X5215285Y-15761904D01*
X5215285Y-15761904D02*
X5215285Y-15690475D01*
X5215285Y-15690475D02*
X5239095Y-15642856D01*
X5239095Y-15642856D02*
X5262904Y-15619047D01*
X5262904Y-15619047D02*
X5310523Y-15595237D01*
X5310523Y-15595237D02*
X5429571Y-15595237D01*
X5429571Y-15595237D02*
X5477190Y-15619047D01*
X5477190Y-15619047D02*
X5501000Y-15642856D01*
X5501000Y-15642856D02*
X5524809Y-15690475D01*
X5524809Y-15690475D02*
X5524809Y-15833332D01*
X5524809Y-15833332D02*
X5501000Y-15880951D01*
X5501000Y-15880951D02*
X5477190Y-15904761D01*
X2578571Y-18524809D02*
X2411905Y-18286714D01*
X2292857Y-18524809D02*
X2292857Y-18024809D01*
X2292857Y-18024809D02*
X2483333Y-18024809D01*
X2483333Y-18024809D02*
X2530952Y-18048619D01*
X2530952Y-18048619D02*
X2554762Y-18072428D01*
X2554762Y-18072428D02*
X2578571Y-18120047D01*
X2578571Y-18120047D02*
X2578571Y-18191476D01*
X2578571Y-18191476D02*
X2554762Y-18239095D01*
X2554762Y-18239095D02*
X2530952Y-18262904D01*
X2530952Y-18262904D02*
X2483333Y-18286714D01*
X2483333Y-18286714D02*
X2292857Y-18286714D01*
X3054762Y-18524809D02*
X2769048Y-18524809D01*
X2911905Y-18524809D02*
X2911905Y-18024809D01*
X2911905Y-18024809D02*
X2864286Y-18096238D01*
X2864286Y-18096238D02*
X2816667Y-18143857D01*
X2816667Y-18143857D02*
X2769048Y-18167666D01*
X3483333Y-18191476D02*
X3483333Y-18524809D01*
X3364285Y-18001000D02*
X3245238Y-18358142D01*
X3245238Y-18358142D02*
X3554761Y-18358142D01*
X12578571Y-11477190D02*
X12554762Y-11501000D01*
X12554762Y-11501000D02*
X12483333Y-11524809D01*
X12483333Y-11524809D02*
X12435714Y-11524809D01*
X12435714Y-11524809D02*
X12364286Y-11501000D01*
X12364286Y-11501000D02*
X12316667Y-11453380D01*
X12316667Y-11453380D02*
X12292857Y-11405761D01*
X12292857Y-11405761D02*
X12269048Y-11310523D01*
X12269048Y-11310523D02*
X12269048Y-11239095D01*
X12269048Y-11239095D02*
X12292857Y-11143857D01*
X12292857Y-11143857D02*
X12316667Y-11096238D01*
X12316667Y-11096238D02*
X12364286Y-11048619D01*
X12364286Y-11048619D02*
X12435714Y-11024809D01*
X12435714Y-11024809D02*
X12483333Y-11024809D01*
X12483333Y-11024809D02*
X12554762Y-11048619D01*
X12554762Y-11048619D02*
X12578571Y-11072428D01*
X12745238Y-11024809D02*
X13054762Y-11024809D01*
X13054762Y-11024809D02*
X12888095Y-11215285D01*
X12888095Y-11215285D02*
X12959524Y-11215285D01*
X12959524Y-11215285D02*
X13007143Y-11239095D01*
X13007143Y-11239095D02*
X13030952Y-11262904D01*
X13030952Y-11262904D02*
X13054762Y-11310523D01*
X13054762Y-11310523D02*
X13054762Y-11429571D01*
X13054762Y-11429571D02*
X13030952Y-11477190D01*
X13030952Y-11477190D02*
X13007143Y-11501000D01*
X13007143Y-11501000D02*
X12959524Y-11524809D01*
X12959524Y-11524809D02*
X12816667Y-11524809D01*
X12816667Y-11524809D02*
X12769048Y-11501000D01*
X12769048Y-11501000D02*
X12745238Y-11477190D01*
X13245238Y-11072428D02*
X13269047Y-11048619D01*
X13269047Y-11048619D02*
X13316666Y-11024809D01*
X13316666Y-11024809D02*
X13435714Y-11024809D01*
X13435714Y-11024809D02*
X13483333Y-11048619D01*
X13483333Y-11048619D02*
X13507142Y-11072428D01*
X13507142Y-11072428D02*
X13530952Y-11120047D01*
X13530952Y-11120047D02*
X13530952Y-11167666D01*
X13530952Y-11167666D02*
X13507142Y-11239095D01*
X13507142Y-11239095D02*
X13221428Y-11524809D01*
X13221428Y-11524809D02*
X13530952Y-11524809D01*
X13524809Y-25580952D02*
X13929571Y-25580952D01*
X13929571Y-25580952D02*
X13977190Y-25557142D01*
X13977190Y-25557142D02*
X14001000Y-25533333D01*
X14001000Y-25533333D02*
X14024809Y-25485714D01*
X14024809Y-25485714D02*
X14024809Y-25390476D01*
X14024809Y-25390476D02*
X14001000Y-25342857D01*
X14001000Y-25342857D02*
X13977190Y-25319047D01*
X13977190Y-25319047D02*
X13929571Y-25295238D01*
X13929571Y-25295238D02*
X13524809Y-25295238D01*
X13572428Y-25080951D02*
X13548619Y-25057142D01*
X13548619Y-25057142D02*
X13524809Y-25009523D01*
X13524809Y-25009523D02*
X13524809Y-24890475D01*
X13524809Y-24890475D02*
X13548619Y-24842856D01*
X13548619Y-24842856D02*
X13572428Y-24819047D01*
X13572428Y-24819047D02*
X13620047Y-24795237D01*
X13620047Y-24795237D02*
X13667666Y-24795237D01*
X13667666Y-24795237D02*
X13739095Y-24819047D01*
X13739095Y-24819047D02*
X14024809Y-25104761D01*
X14024809Y-25104761D02*
X14024809Y-24795237D01*
X12478571Y-13577190D02*
X12454762Y-13601000D01*
X12454762Y-13601000D02*
X12383333Y-13624809D01*
X12383333Y-13624809D02*
X12335714Y-13624809D01*
X12335714Y-13624809D02*
X12264286Y-13601000D01*
X12264286Y-13601000D02*
X12216667Y-13553380D01*
X12216667Y-13553380D02*
X12192857Y-13505761D01*
X12192857Y-13505761D02*
X12169048Y-13410523D01*
X12169048Y-13410523D02*
X12169048Y-13339095D01*
X12169048Y-13339095D02*
X12192857Y-13243857D01*
X12192857Y-13243857D02*
X12216667Y-13196238D01*
X12216667Y-13196238D02*
X12264286Y-13148619D01*
X12264286Y-13148619D02*
X12335714Y-13124809D01*
X12335714Y-13124809D02*
X12383333Y-13124809D01*
X12383333Y-13124809D02*
X12454762Y-13148619D01*
X12454762Y-13148619D02*
X12478571Y-13172428D01*
X12954762Y-13624809D02*
X12669048Y-13624809D01*
X12811905Y-13624809D02*
X12811905Y-13124809D01*
X12811905Y-13124809D02*
X12764286Y-13196238D01*
X12764286Y-13196238D02*
X12716667Y-13243857D01*
X12716667Y-13243857D02*
X12669048Y-13267666D01*
X13121428Y-13124809D02*
X13430952Y-13124809D01*
X13430952Y-13124809D02*
X13264285Y-13315285D01*
X13264285Y-13315285D02*
X13335714Y-13315285D01*
X13335714Y-13315285D02*
X13383333Y-13339095D01*
X13383333Y-13339095D02*
X13407142Y-13362904D01*
X13407142Y-13362904D02*
X13430952Y-13410523D01*
X13430952Y-13410523D02*
X13430952Y-13529571D01*
X13430952Y-13529571D02*
X13407142Y-13577190D01*
X13407142Y-13577190D02*
X13383333Y-13601000D01*
X13383333Y-13601000D02*
X13335714Y-13624809D01*
X13335714Y-13624809D02*
X13192857Y-13624809D01*
X13192857Y-13624809D02*
X13145238Y-13601000D01*
X13145238Y-13601000D02*
X13121428Y-13577190D01*
X12692858Y-28501000D02*
X12764286Y-28524809D01*
X12764286Y-28524809D02*
X12883334Y-28524809D01*
X12883334Y-28524809D02*
X12930953Y-28501000D01*
X12930953Y-28501000D02*
X12954762Y-28477190D01*
X12954762Y-28477190D02*
X12978572Y-28429571D01*
X12978572Y-28429571D02*
X12978572Y-28381952D01*
X12978572Y-28381952D02*
X12954762Y-28334333D01*
X12954762Y-28334333D02*
X12930953Y-28310523D01*
X12930953Y-28310523D02*
X12883334Y-28286714D01*
X12883334Y-28286714D02*
X12788096Y-28262904D01*
X12788096Y-28262904D02*
X12740477Y-28239095D01*
X12740477Y-28239095D02*
X12716667Y-28215285D01*
X12716667Y-28215285D02*
X12692858Y-28167666D01*
X12692858Y-28167666D02*
X12692858Y-28120047D01*
X12692858Y-28120047D02*
X12716667Y-28072428D01*
X12716667Y-28072428D02*
X12740477Y-28048619D01*
X12740477Y-28048619D02*
X12788096Y-28024809D01*
X12788096Y-28024809D02*
X12907143Y-28024809D01*
X12907143Y-28024809D02*
X12978572Y-28048619D01*
X13192857Y-28524809D02*
X13192857Y-28024809D01*
X13192857Y-28024809D02*
X13311905Y-28024809D01*
X13311905Y-28024809D02*
X13383333Y-28048619D01*
X13383333Y-28048619D02*
X13430952Y-28096238D01*
X13430952Y-28096238D02*
X13454762Y-28143857D01*
X13454762Y-28143857D02*
X13478571Y-28239095D01*
X13478571Y-28239095D02*
X13478571Y-28310523D01*
X13478571Y-28310523D02*
X13454762Y-28405761D01*
X13454762Y-28405761D02*
X13430952Y-28453380D01*
X13430952Y-28453380D02*
X13383333Y-28501000D01*
X13383333Y-28501000D02*
X13311905Y-28524809D01*
X13311905Y-28524809D02*
X13192857Y-28524809D01*
X13669048Y-28381952D02*
X13907143Y-28381952D01*
X13621429Y-28524809D02*
X13788095Y-28024809D01*
X13788095Y-28024809D02*
X13954762Y-28524809D01*
X16877190Y-15583333D02*
X16901000Y-15607142D01*
X16901000Y-15607142D02*
X16924809Y-15678571D01*
X16924809Y-15678571D02*
X16924809Y-15726190D01*
X16924809Y-15726190D02*
X16901000Y-15797618D01*
X16901000Y-15797618D02*
X16853380Y-15845237D01*
X16853380Y-15845237D02*
X16805761Y-15869047D01*
X16805761Y-15869047D02*
X16710523Y-15892856D01*
X16710523Y-15892856D02*
X16639095Y-15892856D01*
X16639095Y-15892856D02*
X16543857Y-15869047D01*
X16543857Y-15869047D02*
X16496238Y-15845237D01*
X16496238Y-15845237D02*
X16448619Y-15797618D01*
X16448619Y-15797618D02*
X16424809Y-15726190D01*
X16424809Y-15726190D02*
X16424809Y-15678571D01*
X16424809Y-15678571D02*
X16448619Y-15607142D01*
X16448619Y-15607142D02*
X16472428Y-15583333D01*
X16639095Y-15297618D02*
X16615285Y-15345237D01*
X16615285Y-15345237D02*
X16591476Y-15369047D01*
X16591476Y-15369047D02*
X16543857Y-15392856D01*
X16543857Y-15392856D02*
X16520047Y-15392856D01*
X16520047Y-15392856D02*
X16472428Y-15369047D01*
X16472428Y-15369047D02*
X16448619Y-15345237D01*
X16448619Y-15345237D02*
X16424809Y-15297618D01*
X16424809Y-15297618D02*
X16424809Y-15202380D01*
X16424809Y-15202380D02*
X16448619Y-15154761D01*
X16448619Y-15154761D02*
X16472428Y-15130952D01*
X16472428Y-15130952D02*
X16520047Y-15107142D01*
X16520047Y-15107142D02*
X16543857Y-15107142D01*
X16543857Y-15107142D02*
X16591476Y-15130952D01*
X16591476Y-15130952D02*
X16615285Y-15154761D01*
X16615285Y-15154761D02*
X16639095Y-15202380D01*
X16639095Y-15202380D02*
X16639095Y-15297618D01*
X16639095Y-15297618D02*
X16662904Y-15345237D01*
X16662904Y-15345237D02*
X16686714Y-15369047D01*
X16686714Y-15369047D02*
X16734333Y-15392856D01*
X16734333Y-15392856D02*
X16829571Y-15392856D01*
X16829571Y-15392856D02*
X16877190Y-15369047D01*
X16877190Y-15369047D02*
X16901000Y-15345237D01*
X16901000Y-15345237D02*
X16924809Y-15297618D01*
X16924809Y-15297618D02*
X16924809Y-15202380D01*
X16924809Y-15202380D02*
X16901000Y-15154761D01*
X16901000Y-15154761D02*
X16877190Y-15130952D01*
X16877190Y-15130952D02*
X16829571Y-15107142D01*
X16829571Y-15107142D02*
X16734333Y-15107142D01*
X16734333Y-15107142D02*
X16686714Y-15130952D01*
X16686714Y-15130952D02*
X16662904Y-15154761D01*
X16662904Y-15154761D02*
X16639095Y-15202380D01*
X5477190Y-12851428D02*
X5501000Y-12875237D01*
X5501000Y-12875237D02*
X5524809Y-12946666D01*
X5524809Y-12946666D02*
X5524809Y-12994285D01*
X5524809Y-12994285D02*
X5501000Y-13065713D01*
X5501000Y-13065713D02*
X5453380Y-13113332D01*
X5453380Y-13113332D02*
X5405761Y-13137142D01*
X5405761Y-13137142D02*
X5310523Y-13160951D01*
X5310523Y-13160951D02*
X5239095Y-13160951D01*
X5239095Y-13160951D02*
X5143857Y-13137142D01*
X5143857Y-13137142D02*
X5096238Y-13113332D01*
X5096238Y-13113332D02*
X5048619Y-13065713D01*
X5048619Y-13065713D02*
X5024809Y-12994285D01*
X5024809Y-12994285D02*
X5024809Y-12946666D01*
X5024809Y-12946666D02*
X5048619Y-12875237D01*
X5048619Y-12875237D02*
X5072428Y-12851428D01*
X5024809Y-12684761D02*
X5024809Y-12375237D01*
X5024809Y-12375237D02*
X5215285Y-12541904D01*
X5215285Y-12541904D02*
X5215285Y-12470475D01*
X5215285Y-12470475D02*
X5239095Y-12422856D01*
X5239095Y-12422856D02*
X5262904Y-12399047D01*
X5262904Y-12399047D02*
X5310523Y-12375237D01*
X5310523Y-12375237D02*
X5429571Y-12375237D01*
X5429571Y-12375237D02*
X5477190Y-12399047D01*
X5477190Y-12399047D02*
X5501000Y-12422856D01*
X5501000Y-12422856D02*
X5524809Y-12470475D01*
X5524809Y-12470475D02*
X5524809Y-12613332D01*
X5524809Y-12613332D02*
X5501000Y-12660951D01*
X5501000Y-12660951D02*
X5477190Y-12684761D01*
X5024809Y-12065714D02*
X5024809Y-12018095D01*
X5024809Y-12018095D02*
X5048619Y-11970476D01*
X5048619Y-11970476D02*
X5072428Y-11946666D01*
X5072428Y-11946666D02*
X5120047Y-11922857D01*
X5120047Y-11922857D02*
X5215285Y-11899047D01*
X5215285Y-11899047D02*
X5334333Y-11899047D01*
X5334333Y-11899047D02*
X5429571Y-11922857D01*
X5429571Y-11922857D02*
X5477190Y-11946666D01*
X5477190Y-11946666D02*
X5501000Y-11970476D01*
X5501000Y-11970476D02*
X5524809Y-12018095D01*
X5524809Y-12018095D02*
X5524809Y-12065714D01*
X5524809Y-12065714D02*
X5501000Y-12113333D01*
X5501000Y-12113333D02*
X5477190Y-12137142D01*
X5477190Y-12137142D02*
X5429571Y-12160952D01*
X5429571Y-12160952D02*
X5334333Y-12184761D01*
X5334333Y-12184761D02*
X5215285Y-12184761D01*
X5215285Y-12184761D02*
X5120047Y-12160952D01*
X5120047Y-12160952D02*
X5072428Y-12137142D01*
X5072428Y-12137142D02*
X5048619Y-12113333D01*
X5048619Y-12113333D02*
X5024809Y-12065714D01*
X17319047Y-28058619D02*
X17271428Y-28034809D01*
X17271428Y-28034809D02*
X17199999Y-28034809D01*
X17199999Y-28034809D02*
X17128571Y-28058619D01*
X17128571Y-28058619D02*
X17080952Y-28106238D01*
X17080952Y-28106238D02*
X17057142Y-28153857D01*
X17057142Y-28153857D02*
X17033333Y-28249095D01*
X17033333Y-28249095D02*
X17033333Y-28320523D01*
X17033333Y-28320523D02*
X17057142Y-28415761D01*
X17057142Y-28415761D02*
X17080952Y-28463380D01*
X17080952Y-28463380D02*
X17128571Y-28511000D01*
X17128571Y-28511000D02*
X17199999Y-28534809D01*
X17199999Y-28534809D02*
X17247618Y-28534809D01*
X17247618Y-28534809D02*
X17319047Y-28511000D01*
X17319047Y-28511000D02*
X17342856Y-28487190D01*
X17342856Y-28487190D02*
X17342856Y-28320523D01*
X17342856Y-28320523D02*
X17247618Y-28320523D01*
X17557142Y-28534809D02*
X17557142Y-28034809D01*
X17557142Y-28034809D02*
X17842856Y-28534809D01*
X17842856Y-28534809D02*
X17842856Y-28034809D01*
X18080952Y-28534809D02*
X18080952Y-28034809D01*
X18080952Y-28034809D02*
X18200000Y-28034809D01*
X18200000Y-28034809D02*
X18271428Y-28058619D01*
X18271428Y-28058619D02*
X18319047Y-28106238D01*
X18319047Y-28106238D02*
X18342857Y-28153857D01*
X18342857Y-28153857D02*
X18366666Y-28249095D01*
X18366666Y-28249095D02*
X18366666Y-28320523D01*
X18366666Y-28320523D02*
X18342857Y-28415761D01*
X18342857Y-28415761D02*
X18319047Y-28463380D01*
X18319047Y-28463380D02*
X18271428Y-28511000D01*
X18271428Y-28511000D02*
X18200000Y-28534809D01*
X18200000Y-28534809D02*
X18080952Y-28534809D01*
X33977190Y-9321428D02*
X34001000Y-9345237D01*
X34001000Y-9345237D02*
X34024809Y-9416666D01*
X34024809Y-9416666D02*
X34024809Y-9464285D01*
X34024809Y-9464285D02*
X34001000Y-9535713D01*
X34001000Y-9535713D02*
X33953380Y-9583332D01*
X33953380Y-9583332D02*
X33905761Y-9607142D01*
X33905761Y-9607142D02*
X33810523Y-9630951D01*
X33810523Y-9630951D02*
X33739095Y-9630951D01*
X33739095Y-9630951D02*
X33643857Y-9607142D01*
X33643857Y-9607142D02*
X33596238Y-9583332D01*
X33596238Y-9583332D02*
X33548619Y-9535713D01*
X33548619Y-9535713D02*
X33524809Y-9464285D01*
X33524809Y-9464285D02*
X33524809Y-9416666D01*
X33524809Y-9416666D02*
X33548619Y-9345237D01*
X33548619Y-9345237D02*
X33572428Y-9321428D01*
X33524809Y-9154761D02*
X33524809Y-8845237D01*
X33524809Y-8845237D02*
X33715285Y-9011904D01*
X33715285Y-9011904D02*
X33715285Y-8940475D01*
X33715285Y-8940475D02*
X33739095Y-8892856D01*
X33739095Y-8892856D02*
X33762904Y-8869047D01*
X33762904Y-8869047D02*
X33810523Y-8845237D01*
X33810523Y-8845237D02*
X33929571Y-8845237D01*
X33929571Y-8845237D02*
X33977190Y-8869047D01*
X33977190Y-8869047D02*
X34001000Y-8892856D01*
X34001000Y-8892856D02*
X34024809Y-8940475D01*
X34024809Y-8940475D02*
X34024809Y-9083332D01*
X34024809Y-9083332D02*
X34001000Y-9130951D01*
X34001000Y-9130951D02*
X33977190Y-9154761D01*
X33524809Y-8678571D02*
X33524809Y-8369047D01*
X33524809Y-8369047D02*
X33715285Y-8535714D01*
X33715285Y-8535714D02*
X33715285Y-8464285D01*
X33715285Y-8464285D02*
X33739095Y-8416666D01*
X33739095Y-8416666D02*
X33762904Y-8392857D01*
X33762904Y-8392857D02*
X33810523Y-8369047D01*
X33810523Y-8369047D02*
X33929571Y-8369047D01*
X33929571Y-8369047D02*
X33977190Y-8392857D01*
X33977190Y-8392857D02*
X34001000Y-8416666D01*
X34001000Y-8416666D02*
X34024809Y-8464285D01*
X34024809Y-8464285D02*
X34024809Y-8607142D01*
X34024809Y-8607142D02*
X34001000Y-8654761D01*
X34001000Y-8654761D02*
X33977190Y-8678571D01*
X20030952Y-6224809D02*
X20030952Y-5724809D01*
X20030952Y-5724809D02*
X20150000Y-5724809D01*
X20150000Y-5724809D02*
X20221428Y-5748619D01*
X20221428Y-5748619D02*
X20269047Y-5796238D01*
X20269047Y-5796238D02*
X20292857Y-5843857D01*
X20292857Y-5843857D02*
X20316666Y-5939095D01*
X20316666Y-5939095D02*
X20316666Y-6010523D01*
X20316666Y-6010523D02*
X20292857Y-6105761D01*
X20292857Y-6105761D02*
X20269047Y-6153380D01*
X20269047Y-6153380D02*
X20221428Y-6201000D01*
X20221428Y-6201000D02*
X20150000Y-6224809D01*
X20150000Y-6224809D02*
X20030952Y-6224809D01*
X20483333Y-5724809D02*
X20792857Y-5724809D01*
X20792857Y-5724809D02*
X20626190Y-5915285D01*
X20626190Y-5915285D02*
X20697619Y-5915285D01*
X20697619Y-5915285D02*
X20745238Y-5939095D01*
X20745238Y-5939095D02*
X20769047Y-5962904D01*
X20769047Y-5962904D02*
X20792857Y-6010523D01*
X20792857Y-6010523D02*
X20792857Y-6129571D01*
X20792857Y-6129571D02*
X20769047Y-6177190D01*
X20769047Y-6177190D02*
X20745238Y-6201000D01*
X20745238Y-6201000D02*
X20697619Y-6224809D01*
X20697619Y-6224809D02*
X20554762Y-6224809D01*
X20554762Y-6224809D02*
X20507143Y-6201000D01*
X20507143Y-6201000D02*
X20483333Y-6177190D01*
X27824809Y-12888094D02*
X27324809Y-12888094D01*
X27777190Y-12364285D02*
X27801000Y-12388094D01*
X27801000Y-12388094D02*
X27824809Y-12459523D01*
X27824809Y-12459523D02*
X27824809Y-12507142D01*
X27824809Y-12507142D02*
X27801000Y-12578570D01*
X27801000Y-12578570D02*
X27753380Y-12626189D01*
X27753380Y-12626189D02*
X27705761Y-12649999D01*
X27705761Y-12649999D02*
X27610523Y-12673808D01*
X27610523Y-12673808D02*
X27539095Y-12673808D01*
X27539095Y-12673808D02*
X27443857Y-12649999D01*
X27443857Y-12649999D02*
X27396238Y-12626189D01*
X27396238Y-12626189D02*
X27348619Y-12578570D01*
X27348619Y-12578570D02*
X27324809Y-12507142D01*
X27324809Y-12507142D02*
X27324809Y-12459523D01*
X27324809Y-12459523D02*
X27348619Y-12388094D01*
X27348619Y-12388094D02*
X27372428Y-12364285D01*
X27372428Y-12173808D02*
X27348619Y-12149999D01*
X27348619Y-12149999D02*
X27324809Y-12102380D01*
X27324809Y-12102380D02*
X27324809Y-11983332D01*
X27324809Y-11983332D02*
X27348619Y-11935713D01*
X27348619Y-11935713D02*
X27372428Y-11911904D01*
X27372428Y-11911904D02*
X27420047Y-11888094D01*
X27420047Y-11888094D02*
X27467666Y-11888094D01*
X27467666Y-11888094D02*
X27539095Y-11911904D01*
X27539095Y-11911904D02*
X27824809Y-12197618D01*
X27824809Y-12197618D02*
X27824809Y-11888094D01*
X8719047Y-2248619D02*
X8671428Y-2224809D01*
X8671428Y-2224809D02*
X8599999Y-2224809D01*
X8599999Y-2224809D02*
X8528571Y-2248619D01*
X8528571Y-2248619D02*
X8480952Y-2296238D01*
X8480952Y-2296238D02*
X8457142Y-2343857D01*
X8457142Y-2343857D02*
X8433333Y-2439095D01*
X8433333Y-2439095D02*
X8433333Y-2510523D01*
X8433333Y-2510523D02*
X8457142Y-2605761D01*
X8457142Y-2605761D02*
X8480952Y-2653380D01*
X8480952Y-2653380D02*
X8528571Y-2701000D01*
X8528571Y-2701000D02*
X8599999Y-2724809D01*
X8599999Y-2724809D02*
X8647618Y-2724809D01*
X8647618Y-2724809D02*
X8719047Y-2701000D01*
X8719047Y-2701000D02*
X8742856Y-2677190D01*
X8742856Y-2677190D02*
X8742856Y-2510523D01*
X8742856Y-2510523D02*
X8647618Y-2510523D01*
X8957142Y-2724809D02*
X8957142Y-2224809D01*
X8957142Y-2224809D02*
X9242856Y-2724809D01*
X9242856Y-2724809D02*
X9242856Y-2224809D01*
X9480952Y-2724809D02*
X9480952Y-2224809D01*
X9480952Y-2224809D02*
X9600000Y-2224809D01*
X9600000Y-2224809D02*
X9671428Y-2248619D01*
X9671428Y-2248619D02*
X9719047Y-2296238D01*
X9719047Y-2296238D02*
X9742857Y-2343857D01*
X9742857Y-2343857D02*
X9766666Y-2439095D01*
X9766666Y-2439095D02*
X9766666Y-2510523D01*
X9766666Y-2510523D02*
X9742857Y-2605761D01*
X9742857Y-2605761D02*
X9719047Y-2653380D01*
X9719047Y-2653380D02*
X9671428Y-2701000D01*
X9671428Y-2701000D02*
X9600000Y-2724809D01*
X9600000Y-2724809D02*
X9480952Y-2724809D01*
X31577190Y-11021428D02*
X31601000Y-11045237D01*
X31601000Y-11045237D02*
X31624809Y-11116666D01*
X31624809Y-11116666D02*
X31624809Y-11164285D01*
X31624809Y-11164285D02*
X31601000Y-11235713D01*
X31601000Y-11235713D02*
X31553380Y-11283332D01*
X31553380Y-11283332D02*
X31505761Y-11307142D01*
X31505761Y-11307142D02*
X31410523Y-11330951D01*
X31410523Y-11330951D02*
X31339095Y-11330951D01*
X31339095Y-11330951D02*
X31243857Y-11307142D01*
X31243857Y-11307142D02*
X31196238Y-11283332D01*
X31196238Y-11283332D02*
X31148619Y-11235713D01*
X31148619Y-11235713D02*
X31124809Y-11164285D01*
X31124809Y-11164285D02*
X31124809Y-11116666D01*
X31124809Y-11116666D02*
X31148619Y-11045237D01*
X31148619Y-11045237D02*
X31172428Y-11021428D01*
X31124809Y-10854761D02*
X31124809Y-10545237D01*
X31124809Y-10545237D02*
X31315285Y-10711904D01*
X31315285Y-10711904D02*
X31315285Y-10640475D01*
X31315285Y-10640475D02*
X31339095Y-10592856D01*
X31339095Y-10592856D02*
X31362904Y-10569047D01*
X31362904Y-10569047D02*
X31410523Y-10545237D01*
X31410523Y-10545237D02*
X31529571Y-10545237D01*
X31529571Y-10545237D02*
X31577190Y-10569047D01*
X31577190Y-10569047D02*
X31601000Y-10592856D01*
X31601000Y-10592856D02*
X31624809Y-10640475D01*
X31624809Y-10640475D02*
X31624809Y-10783332D01*
X31624809Y-10783332D02*
X31601000Y-10830951D01*
X31601000Y-10830951D02*
X31577190Y-10854761D01*
X31624809Y-10069047D02*
X31624809Y-10354761D01*
X31624809Y-10211904D02*
X31124809Y-10211904D01*
X31124809Y-10211904D02*
X31196238Y-10259523D01*
X31196238Y-10259523D02*
X31243857Y-10307142D01*
X31243857Y-10307142D02*
X31267666Y-10354761D01*
X34124809Y-14183333D02*
X33886714Y-14349999D01*
X34124809Y-14469047D02*
X33624809Y-14469047D01*
X33624809Y-14469047D02*
X33624809Y-14278571D01*
X33624809Y-14278571D02*
X33648619Y-14230952D01*
X33648619Y-14230952D02*
X33672428Y-14207142D01*
X33672428Y-14207142D02*
X33720047Y-14183333D01*
X33720047Y-14183333D02*
X33791476Y-14183333D01*
X33791476Y-14183333D02*
X33839095Y-14207142D01*
X33839095Y-14207142D02*
X33862904Y-14230952D01*
X33862904Y-14230952D02*
X33886714Y-14278571D01*
X33886714Y-14278571D02*
X33886714Y-14469047D01*
X33624809Y-13754761D02*
X33624809Y-13849999D01*
X33624809Y-13849999D02*
X33648619Y-13897618D01*
X33648619Y-13897618D02*
X33672428Y-13921428D01*
X33672428Y-13921428D02*
X33743857Y-13969047D01*
X33743857Y-13969047D02*
X33839095Y-13992856D01*
X33839095Y-13992856D02*
X34029571Y-13992856D01*
X34029571Y-13992856D02*
X34077190Y-13969047D01*
X34077190Y-13969047D02*
X34101000Y-13945237D01*
X34101000Y-13945237D02*
X34124809Y-13897618D01*
X34124809Y-13897618D02*
X34124809Y-13802380D01*
X34124809Y-13802380D02*
X34101000Y-13754761D01*
X34101000Y-13754761D02*
X34077190Y-13730952D01*
X34077190Y-13730952D02*
X34029571Y-13707142D01*
X34029571Y-13707142D02*
X33910523Y-13707142D01*
X33910523Y-13707142D02*
X33862904Y-13730952D01*
X33862904Y-13730952D02*
X33839095Y-13754761D01*
X33839095Y-13754761D02*
X33815285Y-13802380D01*
X33815285Y-13802380D02*
X33815285Y-13897618D01*
X33815285Y-13897618D02*
X33839095Y-13945237D01*
X33839095Y-13945237D02*
X33862904Y-13969047D01*
X33862904Y-13969047D02*
X33910523Y-13992856D01*
X31624809Y-14983333D02*
X31386714Y-15149999D01*
X31624809Y-15269047D02*
X31124809Y-15269047D01*
X31124809Y-15269047D02*
X31124809Y-15078571D01*
X31124809Y-15078571D02*
X31148619Y-15030952D01*
X31148619Y-15030952D02*
X31172428Y-15007142D01*
X31172428Y-15007142D02*
X31220047Y-14983333D01*
X31220047Y-14983333D02*
X31291476Y-14983333D01*
X31291476Y-14983333D02*
X31339095Y-15007142D01*
X31339095Y-15007142D02*
X31362904Y-15030952D01*
X31362904Y-15030952D02*
X31386714Y-15078571D01*
X31386714Y-15078571D02*
X31386714Y-15269047D01*
X31124809Y-14530952D02*
X31124809Y-14769047D01*
X31124809Y-14769047D02*
X31362904Y-14792856D01*
X31362904Y-14792856D02*
X31339095Y-14769047D01*
X31339095Y-14769047D02*
X31315285Y-14721428D01*
X31315285Y-14721428D02*
X31315285Y-14602380D01*
X31315285Y-14602380D02*
X31339095Y-14554761D01*
X31339095Y-14554761D02*
X31362904Y-14530952D01*
X31362904Y-14530952D02*
X31410523Y-14507142D01*
X31410523Y-14507142D02*
X31529571Y-14507142D01*
X31529571Y-14507142D02*
X31577190Y-14530952D01*
X31577190Y-14530952D02*
X31601000Y-14554761D01*
X31601000Y-14554761D02*
X31624809Y-14602380D01*
X31624809Y-14602380D02*
X31624809Y-14721428D01*
X31624809Y-14721428D02*
X31601000Y-14769047D01*
X31601000Y-14769047D02*
X31577190Y-14792856D01*
X14904762Y-28501000D02*
X14976190Y-28524809D01*
X14976190Y-28524809D02*
X15095238Y-28524809D01*
X15095238Y-28524809D02*
X15142857Y-28501000D01*
X15142857Y-28501000D02*
X15166666Y-28477190D01*
X15166666Y-28477190D02*
X15190476Y-28429571D01*
X15190476Y-28429571D02*
X15190476Y-28381952D01*
X15190476Y-28381952D02*
X15166666Y-28334333D01*
X15166666Y-28334333D02*
X15142857Y-28310523D01*
X15142857Y-28310523D02*
X15095238Y-28286714D01*
X15095238Y-28286714D02*
X15000000Y-28262904D01*
X15000000Y-28262904D02*
X14952381Y-28239095D01*
X14952381Y-28239095D02*
X14928571Y-28215285D01*
X14928571Y-28215285D02*
X14904762Y-28167666D01*
X14904762Y-28167666D02*
X14904762Y-28120047D01*
X14904762Y-28120047D02*
X14928571Y-28072428D01*
X14928571Y-28072428D02*
X14952381Y-28048619D01*
X14952381Y-28048619D02*
X15000000Y-28024809D01*
X15000000Y-28024809D02*
X15119047Y-28024809D01*
X15119047Y-28024809D02*
X15190476Y-28048619D01*
X15690475Y-28477190D02*
X15666666Y-28501000D01*
X15666666Y-28501000D02*
X15595237Y-28524809D01*
X15595237Y-28524809D02*
X15547618Y-28524809D01*
X15547618Y-28524809D02*
X15476190Y-28501000D01*
X15476190Y-28501000D02*
X15428571Y-28453380D01*
X15428571Y-28453380D02*
X15404761Y-28405761D01*
X15404761Y-28405761D02*
X15380952Y-28310523D01*
X15380952Y-28310523D02*
X15380952Y-28239095D01*
X15380952Y-28239095D02*
X15404761Y-28143857D01*
X15404761Y-28143857D02*
X15428571Y-28096238D01*
X15428571Y-28096238D02*
X15476190Y-28048619D01*
X15476190Y-28048619D02*
X15547618Y-28024809D01*
X15547618Y-28024809D02*
X15595237Y-28024809D01*
X15595237Y-28024809D02*
X15666666Y-28048619D01*
X15666666Y-28048619D02*
X15690475Y-28072428D01*
X16142856Y-28524809D02*
X15904761Y-28524809D01*
X15904761Y-28524809D02*
X15904761Y-28024809D01*
X15016666Y-9424809D02*
X14778571Y-9424809D01*
X14778571Y-9424809D02*
X14778571Y-8924809D01*
X15445238Y-9424809D02*
X15159524Y-9424809D01*
X15302381Y-9424809D02*
X15302381Y-8924809D01*
X15302381Y-8924809D02*
X15254762Y-8996238D01*
X15254762Y-8996238D02*
X15207143Y-9043857D01*
X15207143Y-9043857D02*
X15159524Y-9067666D01*
X7724809Y-14811904D02*
X7724809Y-15049999D01*
X7724809Y-15049999D02*
X7962904Y-15073808D01*
X7962904Y-15073808D02*
X7939095Y-15049999D01*
X7939095Y-15049999D02*
X7915285Y-15002380D01*
X7915285Y-15002380D02*
X7915285Y-14883332D01*
X7915285Y-14883332D02*
X7939095Y-14835713D01*
X7939095Y-14835713D02*
X7962904Y-14811904D01*
X7962904Y-14811904D02*
X8010523Y-14788094D01*
X8010523Y-14788094D02*
X8129571Y-14788094D01*
X8129571Y-14788094D02*
X8177190Y-14811904D01*
X8177190Y-14811904D02*
X8201000Y-14835713D01*
X8201000Y-14835713D02*
X8224809Y-14883332D01*
X8224809Y-14883332D02*
X8224809Y-15002380D01*
X8224809Y-15002380D02*
X8201000Y-15049999D01*
X8201000Y-15049999D02*
X8177190Y-15073808D01*
X7724809Y-14645237D02*
X8224809Y-14478571D01*
X8224809Y-14478571D02*
X7724809Y-14311904D01*
X8272428Y-14264286D02*
X8272428Y-13883333D01*
X7962904Y-13597619D02*
X7986714Y-13526191D01*
X7986714Y-13526191D02*
X8010523Y-13502381D01*
X8010523Y-13502381D02*
X8058142Y-13478572D01*
X8058142Y-13478572D02*
X8129571Y-13478572D01*
X8129571Y-13478572D02*
X8177190Y-13502381D01*
X8177190Y-13502381D02*
X8201000Y-13526191D01*
X8201000Y-13526191D02*
X8224809Y-13573810D01*
X8224809Y-13573810D02*
X8224809Y-13764286D01*
X8224809Y-13764286D02*
X7724809Y-13764286D01*
X7724809Y-13764286D02*
X7724809Y-13597619D01*
X7724809Y-13597619D02*
X7748619Y-13550000D01*
X7748619Y-13550000D02*
X7772428Y-13526191D01*
X7772428Y-13526191D02*
X7820047Y-13502381D01*
X7820047Y-13502381D02*
X7867666Y-13502381D01*
X7867666Y-13502381D02*
X7915285Y-13526191D01*
X7915285Y-13526191D02*
X7939095Y-13550000D01*
X7939095Y-13550000D02*
X7962904Y-13597619D01*
X7962904Y-13597619D02*
X7962904Y-13764286D01*
X7962904Y-13264286D02*
X7962904Y-13097619D01*
X8224809Y-13026191D02*
X8224809Y-13264286D01*
X8224809Y-13264286D02*
X7724809Y-13264286D01*
X7724809Y-13264286D02*
X7724809Y-13026191D01*
X8177190Y-12526191D02*
X8201000Y-12550000D01*
X8201000Y-12550000D02*
X8224809Y-12621429D01*
X8224809Y-12621429D02*
X8224809Y-12669048D01*
X8224809Y-12669048D02*
X8201000Y-12740476D01*
X8201000Y-12740476D02*
X8153380Y-12788095D01*
X8153380Y-12788095D02*
X8105761Y-12811905D01*
X8105761Y-12811905D02*
X8010523Y-12835714D01*
X8010523Y-12835714D02*
X7939095Y-12835714D01*
X7939095Y-12835714D02*
X7843857Y-12811905D01*
X7843857Y-12811905D02*
X7796238Y-12788095D01*
X7796238Y-12788095D02*
X7748619Y-12740476D01*
X7748619Y-12740476D02*
X7724809Y-12669048D01*
X7724809Y-12669048D02*
X7724809Y-12621429D01*
X7724809Y-12621429D02*
X7748619Y-12550000D01*
X7748619Y-12550000D02*
X7772428Y-12526191D01*
X2462904Y-23902380D02*
X2486714Y-23830952D01*
X2486714Y-23830952D02*
X2510523Y-23807142D01*
X2510523Y-23807142D02*
X2558142Y-23783333D01*
X2558142Y-23783333D02*
X2629571Y-23783333D01*
X2629571Y-23783333D02*
X2677190Y-23807142D01*
X2677190Y-23807142D02*
X2701000Y-23830952D01*
X2701000Y-23830952D02*
X2724809Y-23878571D01*
X2724809Y-23878571D02*
X2724809Y-24069047D01*
X2724809Y-24069047D02*
X2224809Y-24069047D01*
X2224809Y-24069047D02*
X2224809Y-23902380D01*
X2224809Y-23902380D02*
X2248619Y-23854761D01*
X2248619Y-23854761D02*
X2272428Y-23830952D01*
X2272428Y-23830952D02*
X2320047Y-23807142D01*
X2320047Y-23807142D02*
X2367666Y-23807142D01*
X2367666Y-23807142D02*
X2415285Y-23830952D01*
X2415285Y-23830952D02*
X2439095Y-23854761D01*
X2439095Y-23854761D02*
X2462904Y-23902380D01*
X2462904Y-23902380D02*
X2462904Y-24069047D01*
X2224809Y-23616666D02*
X2224809Y-23283333D01*
X2224809Y-23283333D02*
X2724809Y-23616666D01*
X2724809Y-23616666D02*
X2724809Y-23283333D01*
X29388571Y-4324809D02*
X29221905Y-4086714D01*
X29102857Y-4324809D02*
X29102857Y-3824809D01*
X29102857Y-3824809D02*
X29293333Y-3824809D01*
X29293333Y-3824809D02*
X29340952Y-3848619D01*
X29340952Y-3848619D02*
X29364762Y-3872428D01*
X29364762Y-3872428D02*
X29388571Y-3920047D01*
X29388571Y-3920047D02*
X29388571Y-3991476D01*
X29388571Y-3991476D02*
X29364762Y-4039095D01*
X29364762Y-4039095D02*
X29340952Y-4062904D01*
X29340952Y-4062904D02*
X29293333Y-4086714D01*
X29293333Y-4086714D02*
X29102857Y-4086714D01*
X29864762Y-4324809D02*
X29579048Y-4324809D01*
X29721905Y-4324809D02*
X29721905Y-3824809D01*
X29721905Y-3824809D02*
X29674286Y-3896238D01*
X29674286Y-3896238D02*
X29626667Y-3943857D01*
X29626667Y-3943857D02*
X29579048Y-3967666D01*
X30317142Y-3824809D02*
X30079047Y-3824809D01*
X30079047Y-3824809D02*
X30055238Y-4062904D01*
X30055238Y-4062904D02*
X30079047Y-4039095D01*
X30079047Y-4039095D02*
X30126666Y-4015285D01*
X30126666Y-4015285D02*
X30245714Y-4015285D01*
X30245714Y-4015285D02*
X30293333Y-4039095D01*
X30293333Y-4039095D02*
X30317142Y-4062904D01*
X30317142Y-4062904D02*
X30340952Y-4110523D01*
X30340952Y-4110523D02*
X30340952Y-4229571D01*
X30340952Y-4229571D02*
X30317142Y-4277190D01*
X30317142Y-4277190D02*
X30293333Y-4301000D01*
X30293333Y-4301000D02*
X30245714Y-4324809D01*
X30245714Y-4324809D02*
X30126666Y-4324809D01*
X30126666Y-4324809D02*
X30079047Y-4301000D01*
X30079047Y-4301000D02*
X30055238Y-4277190D01*
X17477190Y-26803333D02*
X17501000Y-26827142D01*
X17501000Y-26827142D02*
X17524809Y-26898571D01*
X17524809Y-26898571D02*
X17524809Y-26946190D01*
X17524809Y-26946190D02*
X17501000Y-27017618D01*
X17501000Y-27017618D02*
X17453380Y-27065237D01*
X17453380Y-27065237D02*
X17405761Y-27089047D01*
X17405761Y-27089047D02*
X17310523Y-27112856D01*
X17310523Y-27112856D02*
X17239095Y-27112856D01*
X17239095Y-27112856D02*
X17143857Y-27089047D01*
X17143857Y-27089047D02*
X17096238Y-27065237D01*
X17096238Y-27065237D02*
X17048619Y-27017618D01*
X17048619Y-27017618D02*
X17024809Y-26946190D01*
X17024809Y-26946190D02*
X17024809Y-26898571D01*
X17024809Y-26898571D02*
X17048619Y-26827142D01*
X17048619Y-26827142D02*
X17072428Y-26803333D01*
X17191476Y-26374761D02*
X17524809Y-26374761D01*
X17001000Y-26493809D02*
X17358142Y-26612856D01*
X17358142Y-26612856D02*
X17358142Y-26303333D01*
X6157143Y-2534333D02*
X6538096Y-2534333D01*
X6347619Y-2724809D02*
X6347619Y-2343857D01*
X7014286Y-2224809D02*
X6776191Y-2224809D01*
X6776191Y-2224809D02*
X6752382Y-2462904D01*
X6752382Y-2462904D02*
X6776191Y-2439095D01*
X6776191Y-2439095D02*
X6823810Y-2415285D01*
X6823810Y-2415285D02*
X6942858Y-2415285D01*
X6942858Y-2415285D02*
X6990477Y-2439095D01*
X6990477Y-2439095D02*
X7014286Y-2462904D01*
X7014286Y-2462904D02*
X7038096Y-2510523D01*
X7038096Y-2510523D02*
X7038096Y-2629571D01*
X7038096Y-2629571D02*
X7014286Y-2677190D01*
X7014286Y-2677190D02*
X6990477Y-2701000D01*
X6990477Y-2701000D02*
X6942858Y-2724809D01*
X6942858Y-2724809D02*
X6823810Y-2724809D01*
X6823810Y-2724809D02*
X6776191Y-2701000D01*
X6776191Y-2701000D02*
X6752382Y-2677190D01*
X7180953Y-2224809D02*
X7347619Y-2724809D01*
X7347619Y-2724809D02*
X7514286Y-2224809D01*
X10277190Y-4421428D02*
X10301000Y-4445237D01*
X10301000Y-4445237D02*
X10324809Y-4516666D01*
X10324809Y-4516666D02*
X10324809Y-4564285D01*
X10324809Y-4564285D02*
X10301000Y-4635713D01*
X10301000Y-4635713D02*
X10253380Y-4683332D01*
X10253380Y-4683332D02*
X10205761Y-4707142D01*
X10205761Y-4707142D02*
X10110523Y-4730951D01*
X10110523Y-4730951D02*
X10039095Y-4730951D01*
X10039095Y-4730951D02*
X9943857Y-4707142D01*
X9943857Y-4707142D02*
X9896238Y-4683332D01*
X9896238Y-4683332D02*
X9848619Y-4635713D01*
X9848619Y-4635713D02*
X9824809Y-4564285D01*
X9824809Y-4564285D02*
X9824809Y-4516666D01*
X9824809Y-4516666D02*
X9848619Y-4445237D01*
X9848619Y-4445237D02*
X9872428Y-4421428D01*
X10324809Y-3945237D02*
X10324809Y-4230951D01*
X10324809Y-4088094D02*
X9824809Y-4088094D01*
X9824809Y-4088094D02*
X9896238Y-4135713D01*
X9896238Y-4135713D02*
X9943857Y-4183332D01*
X9943857Y-4183332D02*
X9967666Y-4230951D01*
X9824809Y-3516666D02*
X9824809Y-3611904D01*
X9824809Y-3611904D02*
X9848619Y-3659523D01*
X9848619Y-3659523D02*
X9872428Y-3683333D01*
X9872428Y-3683333D02*
X9943857Y-3730952D01*
X9943857Y-3730952D02*
X10039095Y-3754761D01*
X10039095Y-3754761D02*
X10229571Y-3754761D01*
X10229571Y-3754761D02*
X10277190Y-3730952D01*
X10277190Y-3730952D02*
X10301000Y-3707142D01*
X10301000Y-3707142D02*
X10324809Y-3659523D01*
X10324809Y-3659523D02*
X10324809Y-3564285D01*
X10324809Y-3564285D02*
X10301000Y-3516666D01*
X10301000Y-3516666D02*
X10277190Y-3492857D01*
X10277190Y-3492857D02*
X10229571Y-3469047D01*
X10229571Y-3469047D02*
X10110523Y-3469047D01*
X10110523Y-3469047D02*
X10062904Y-3492857D01*
X10062904Y-3492857D02*
X10039095Y-3516666D01*
X10039095Y-3516666D02*
X10015285Y-3564285D01*
X10015285Y-3564285D02*
X10015285Y-3659523D01*
X10015285Y-3659523D02*
X10039095Y-3707142D01*
X10039095Y-3707142D02*
X10062904Y-3730952D01*
X10062904Y-3730952D02*
X10110523Y-3754761D01*
X14224809Y-23180952D02*
X14629571Y-23180952D01*
X14629571Y-23180952D02*
X14677190Y-23157142D01*
X14677190Y-23157142D02*
X14701000Y-23133333D01*
X14701000Y-23133333D02*
X14724809Y-23085714D01*
X14724809Y-23085714D02*
X14724809Y-22990476D01*
X14724809Y-22990476D02*
X14701000Y-22942857D01*
X14701000Y-22942857D02*
X14677190Y-22919047D01*
X14677190Y-22919047D02*
X14629571Y-22895238D01*
X14629571Y-22895238D02*
X14224809Y-22895238D01*
X14724809Y-22395237D02*
X14724809Y-22680951D01*
X14724809Y-22538094D02*
X14224809Y-22538094D01*
X14224809Y-22538094D02*
X14296238Y-22585713D01*
X14296238Y-22585713D02*
X14343857Y-22633332D01*
X14343857Y-22633332D02*
X14367666Y-22680951D01*
X2248619Y-28180952D02*
X2224809Y-28228571D01*
X2224809Y-28228571D02*
X2224809Y-28300000D01*
X2224809Y-28300000D02*
X2248619Y-28371428D01*
X2248619Y-28371428D02*
X2296238Y-28419047D01*
X2296238Y-28419047D02*
X2343857Y-28442857D01*
X2343857Y-28442857D02*
X2439095Y-28466666D01*
X2439095Y-28466666D02*
X2510523Y-28466666D01*
X2510523Y-28466666D02*
X2605761Y-28442857D01*
X2605761Y-28442857D02*
X2653380Y-28419047D01*
X2653380Y-28419047D02*
X2701000Y-28371428D01*
X2701000Y-28371428D02*
X2724809Y-28300000D01*
X2724809Y-28300000D02*
X2724809Y-28252381D01*
X2724809Y-28252381D02*
X2701000Y-28180952D01*
X2701000Y-28180952D02*
X2677190Y-28157143D01*
X2677190Y-28157143D02*
X2510523Y-28157143D01*
X2510523Y-28157143D02*
X2510523Y-28252381D01*
X2724809Y-27942857D02*
X2224809Y-27942857D01*
X2224809Y-27942857D02*
X2724809Y-27657143D01*
X2724809Y-27657143D02*
X2224809Y-27657143D01*
X2724809Y-27419047D02*
X2224809Y-27419047D01*
X2224809Y-27419047D02*
X2224809Y-27299999D01*
X2224809Y-27299999D02*
X2248619Y-27228571D01*
X2248619Y-27228571D02*
X2296238Y-27180952D01*
X2296238Y-27180952D02*
X2343857Y-27157142D01*
X2343857Y-27157142D02*
X2439095Y-27133333D01*
X2439095Y-27133333D02*
X2510523Y-27133333D01*
X2510523Y-27133333D02*
X2605761Y-27157142D01*
X2605761Y-27157142D02*
X2653380Y-27180952D01*
X2653380Y-27180952D02*
X2701000Y-27228571D01*
X2701000Y-27228571D02*
X2724809Y-27299999D01*
X2724809Y-27299999D02*
X2724809Y-27419047D01*
X9778571Y-26577190D02*
X9754762Y-26601000D01*
X9754762Y-26601000D02*
X9683333Y-26624809D01*
X9683333Y-26624809D02*
X9635714Y-26624809D01*
X9635714Y-26624809D02*
X9564286Y-26601000D01*
X9564286Y-26601000D02*
X9516667Y-26553380D01*
X9516667Y-26553380D02*
X9492857Y-26505761D01*
X9492857Y-26505761D02*
X9469048Y-26410523D01*
X9469048Y-26410523D02*
X9469048Y-26339095D01*
X9469048Y-26339095D02*
X9492857Y-26243857D01*
X9492857Y-26243857D02*
X9516667Y-26196238D01*
X9516667Y-26196238D02*
X9564286Y-26148619D01*
X9564286Y-26148619D02*
X9635714Y-26124809D01*
X9635714Y-26124809D02*
X9683333Y-26124809D01*
X9683333Y-26124809D02*
X9754762Y-26148619D01*
X9754762Y-26148619D02*
X9778571Y-26172428D01*
X9969048Y-26172428D02*
X9992857Y-26148619D01*
X9992857Y-26148619D02*
X10040476Y-26124809D01*
X10040476Y-26124809D02*
X10159524Y-26124809D01*
X10159524Y-26124809D02*
X10207143Y-26148619D01*
X10207143Y-26148619D02*
X10230952Y-26172428D01*
X10230952Y-26172428D02*
X10254762Y-26220047D01*
X10254762Y-26220047D02*
X10254762Y-26267666D01*
X10254762Y-26267666D02*
X10230952Y-26339095D01*
X10230952Y-26339095D02*
X9945238Y-26624809D01*
X9945238Y-26624809D02*
X10254762Y-26624809D01*
X10421428Y-26124809D02*
X10754761Y-26124809D01*
X10754761Y-26124809D02*
X10540476Y-26624809D01*
X5016666Y-22377190D02*
X4992857Y-22401000D01*
X4992857Y-22401000D02*
X4921428Y-22424809D01*
X4921428Y-22424809D02*
X4873809Y-22424809D01*
X4873809Y-22424809D02*
X4802381Y-22401000D01*
X4802381Y-22401000D02*
X4754762Y-22353380D01*
X4754762Y-22353380D02*
X4730952Y-22305761D01*
X4730952Y-22305761D02*
X4707143Y-22210523D01*
X4707143Y-22210523D02*
X4707143Y-22139095D01*
X4707143Y-22139095D02*
X4730952Y-22043857D01*
X4730952Y-22043857D02*
X4754762Y-21996238D01*
X4754762Y-21996238D02*
X4802381Y-21948619D01*
X4802381Y-21948619D02*
X4873809Y-21924809D01*
X4873809Y-21924809D02*
X4921428Y-21924809D01*
X4921428Y-21924809D02*
X4992857Y-21948619D01*
X4992857Y-21948619D02*
X5016666Y-21972428D01*
X5183333Y-21924809D02*
X5516666Y-21924809D01*
X5516666Y-21924809D02*
X5302381Y-22424809D01*
X24124809Y-13369047D02*
X23624809Y-13369047D01*
X23624809Y-13369047D02*
X23624809Y-13249999D01*
X23624809Y-13249999D02*
X23648619Y-13178571D01*
X23648619Y-13178571D02*
X23696238Y-13130952D01*
X23696238Y-13130952D02*
X23743857Y-13107142D01*
X23743857Y-13107142D02*
X23839095Y-13083333D01*
X23839095Y-13083333D02*
X23910523Y-13083333D01*
X23910523Y-13083333D02*
X24005761Y-13107142D01*
X24005761Y-13107142D02*
X24053380Y-13130952D01*
X24053380Y-13130952D02*
X24101000Y-13178571D01*
X24101000Y-13178571D02*
X24124809Y-13249999D01*
X24124809Y-13249999D02*
X24124809Y-13369047D01*
X23791476Y-12654761D02*
X24124809Y-12654761D01*
X23601000Y-12773809D02*
X23958142Y-12892856D01*
X23958142Y-12892856D02*
X23958142Y-12583333D01*
X10516666Y-18424809D02*
X10350000Y-18186714D01*
X10230952Y-18424809D02*
X10230952Y-17924809D01*
X10230952Y-17924809D02*
X10421428Y-17924809D01*
X10421428Y-17924809D02*
X10469047Y-17948619D01*
X10469047Y-17948619D02*
X10492857Y-17972428D01*
X10492857Y-17972428D02*
X10516666Y-18020047D01*
X10516666Y-18020047D02*
X10516666Y-18091476D01*
X10516666Y-18091476D02*
X10492857Y-18139095D01*
X10492857Y-18139095D02*
X10469047Y-18162904D01*
X10469047Y-18162904D02*
X10421428Y-18186714D01*
X10421428Y-18186714D02*
X10230952Y-18186714D01*
X10754762Y-18424809D02*
X10850000Y-18424809D01*
X10850000Y-18424809D02*
X10897619Y-18401000D01*
X10897619Y-18401000D02*
X10921428Y-18377190D01*
X10921428Y-18377190D02*
X10969047Y-18305761D01*
X10969047Y-18305761D02*
X10992857Y-18210523D01*
X10992857Y-18210523D02*
X10992857Y-18020047D01*
X10992857Y-18020047D02*
X10969047Y-17972428D01*
X10969047Y-17972428D02*
X10945238Y-17948619D01*
X10945238Y-17948619D02*
X10897619Y-17924809D01*
X10897619Y-17924809D02*
X10802381Y-17924809D01*
X10802381Y-17924809D02*
X10754762Y-17948619D01*
X10754762Y-17948619D02*
X10730952Y-17972428D01*
X10730952Y-17972428D02*
X10707143Y-18020047D01*
X10707143Y-18020047D02*
X10707143Y-18139095D01*
X10707143Y-18139095D02*
X10730952Y-18186714D01*
X10730952Y-18186714D02*
X10754762Y-18210523D01*
X10754762Y-18210523D02*
X10802381Y-18234333D01*
X10802381Y-18234333D02*
X10897619Y-18234333D01*
X10897619Y-18234333D02*
X10945238Y-18210523D01*
X10945238Y-18210523D02*
X10969047Y-18186714D01*
X10969047Y-18186714D02*
X10992857Y-18139095D01*
X24201000Y-20930951D02*
X24224809Y-20859523D01*
X24224809Y-20859523D02*
X24224809Y-20740475D01*
X24224809Y-20740475D02*
X24201000Y-20692856D01*
X24201000Y-20692856D02*
X24177190Y-20669047D01*
X24177190Y-20669047D02*
X24129571Y-20645237D01*
X24129571Y-20645237D02*
X24081952Y-20645237D01*
X24081952Y-20645237D02*
X24034333Y-20669047D01*
X24034333Y-20669047D02*
X24010523Y-20692856D01*
X24010523Y-20692856D02*
X23986714Y-20740475D01*
X23986714Y-20740475D02*
X23962904Y-20835713D01*
X23962904Y-20835713D02*
X23939095Y-20883332D01*
X23939095Y-20883332D02*
X23915285Y-20907142D01*
X23915285Y-20907142D02*
X23867666Y-20930951D01*
X23867666Y-20930951D02*
X23820047Y-20930951D01*
X23820047Y-20930951D02*
X23772428Y-20907142D01*
X23772428Y-20907142D02*
X23748619Y-20883332D01*
X23748619Y-20883332D02*
X23724809Y-20835713D01*
X23724809Y-20835713D02*
X23724809Y-20716666D01*
X23724809Y-20716666D02*
X23748619Y-20645237D01*
X23724809Y-20478571D02*
X24224809Y-20359523D01*
X24224809Y-20359523D02*
X23867666Y-20264285D01*
X23867666Y-20264285D02*
X24224809Y-20169047D01*
X24224809Y-20169047D02*
X23724809Y-20050000D01*
X24177190Y-19573809D02*
X24201000Y-19597618D01*
X24201000Y-19597618D02*
X24224809Y-19669047D01*
X24224809Y-19669047D02*
X24224809Y-19716666D01*
X24224809Y-19716666D02*
X24201000Y-19788094D01*
X24201000Y-19788094D02*
X24153380Y-19835713D01*
X24153380Y-19835713D02*
X24105761Y-19859523D01*
X24105761Y-19859523D02*
X24010523Y-19883332D01*
X24010523Y-19883332D02*
X23939095Y-19883332D01*
X23939095Y-19883332D02*
X23843857Y-19859523D01*
X23843857Y-19859523D02*
X23796238Y-19835713D01*
X23796238Y-19835713D02*
X23748619Y-19788094D01*
X23748619Y-19788094D02*
X23724809Y-19716666D01*
X23724809Y-19716666D02*
X23724809Y-19669047D01*
X23724809Y-19669047D02*
X23748619Y-19597618D01*
X23748619Y-19597618D02*
X23772428Y-19573809D01*
X24224809Y-19121428D02*
X24224809Y-19359523D01*
X24224809Y-19359523D02*
X23724809Y-19359523D01*
X24224809Y-18954761D02*
X23724809Y-18954761D01*
X24224809Y-18669047D02*
X23939095Y-18883332D01*
X23724809Y-18669047D02*
X24010523Y-18954761D01*
X19062904Y-26969046D02*
X19062904Y-27135713D01*
X19324809Y-27135713D02*
X18824809Y-27135713D01*
X18824809Y-27135713D02*
X18824809Y-26897618D01*
X19324809Y-26469047D02*
X19324809Y-26707142D01*
X19324809Y-26707142D02*
X18824809Y-26707142D01*
X19324809Y-26040475D02*
X19324809Y-26326189D01*
X19324809Y-26183332D02*
X18824809Y-26183332D01*
X18824809Y-26183332D02*
X18896238Y-26230951D01*
X18896238Y-26230951D02*
X18943857Y-26278570D01*
X18943857Y-26278570D02*
X18967666Y-26326189D01*
X8519047Y-31258619D02*
X8471428Y-31234809D01*
X8471428Y-31234809D02*
X8399999Y-31234809D01*
X8399999Y-31234809D02*
X8328571Y-31258619D01*
X8328571Y-31258619D02*
X8280952Y-31306238D01*
X8280952Y-31306238D02*
X8257142Y-31353857D01*
X8257142Y-31353857D02*
X8233333Y-31449095D01*
X8233333Y-31449095D02*
X8233333Y-31520523D01*
X8233333Y-31520523D02*
X8257142Y-31615761D01*
X8257142Y-31615761D02*
X8280952Y-31663380D01*
X8280952Y-31663380D02*
X8328571Y-31711000D01*
X8328571Y-31711000D02*
X8399999Y-31734809D01*
X8399999Y-31734809D02*
X8447618Y-31734809D01*
X8447618Y-31734809D02*
X8519047Y-31711000D01*
X8519047Y-31711000D02*
X8542856Y-31687190D01*
X8542856Y-31687190D02*
X8542856Y-31520523D01*
X8542856Y-31520523D02*
X8447618Y-31520523D01*
X8757142Y-31734809D02*
X8757142Y-31234809D01*
X8757142Y-31234809D02*
X9042856Y-31734809D01*
X9042856Y-31734809D02*
X9042856Y-31234809D01*
X9280952Y-31734809D02*
X9280952Y-31234809D01*
X9280952Y-31234809D02*
X9400000Y-31234809D01*
X9400000Y-31234809D02*
X9471428Y-31258619D01*
X9471428Y-31258619D02*
X9519047Y-31306238D01*
X9519047Y-31306238D02*
X9542857Y-31353857D01*
X9542857Y-31353857D02*
X9566666Y-31449095D01*
X9566666Y-31449095D02*
X9566666Y-31520523D01*
X9566666Y-31520523D02*
X9542857Y-31615761D01*
X9542857Y-31615761D02*
X9519047Y-31663380D01*
X9519047Y-31663380D02*
X9471428Y-31711000D01*
X9471428Y-31711000D02*
X9400000Y-31734809D01*
X9400000Y-31734809D02*
X9280952Y-31734809D01*
X31677190Y-13121428D02*
X31701000Y-13145237D01*
X31701000Y-13145237D02*
X31724809Y-13216666D01*
X31724809Y-13216666D02*
X31724809Y-13264285D01*
X31724809Y-13264285D02*
X31701000Y-13335713D01*
X31701000Y-13335713D02*
X31653380Y-13383332D01*
X31653380Y-13383332D02*
X31605761Y-13407142D01*
X31605761Y-13407142D02*
X31510523Y-13430951D01*
X31510523Y-13430951D02*
X31439095Y-13430951D01*
X31439095Y-13430951D02*
X31343857Y-13407142D01*
X31343857Y-13407142D02*
X31296238Y-13383332D01*
X31296238Y-13383332D02*
X31248619Y-13335713D01*
X31248619Y-13335713D02*
X31224809Y-13264285D01*
X31224809Y-13264285D02*
X31224809Y-13216666D01*
X31224809Y-13216666D02*
X31248619Y-13145237D01*
X31248619Y-13145237D02*
X31272428Y-13121428D01*
X31272428Y-12930951D02*
X31248619Y-12907142D01*
X31248619Y-12907142D02*
X31224809Y-12859523D01*
X31224809Y-12859523D02*
X31224809Y-12740475D01*
X31224809Y-12740475D02*
X31248619Y-12692856D01*
X31248619Y-12692856D02*
X31272428Y-12669047D01*
X31272428Y-12669047D02*
X31320047Y-12645237D01*
X31320047Y-12645237D02*
X31367666Y-12645237D01*
X31367666Y-12645237D02*
X31439095Y-12669047D01*
X31439095Y-12669047D02*
X31724809Y-12954761D01*
X31724809Y-12954761D02*
X31724809Y-12645237D01*
X31224809Y-12478571D02*
X31224809Y-12169047D01*
X31224809Y-12169047D02*
X31415285Y-12335714D01*
X31415285Y-12335714D02*
X31415285Y-12264285D01*
X31415285Y-12264285D02*
X31439095Y-12216666D01*
X31439095Y-12216666D02*
X31462904Y-12192857D01*
X31462904Y-12192857D02*
X31510523Y-12169047D01*
X31510523Y-12169047D02*
X31629571Y-12169047D01*
X31629571Y-12169047D02*
X31677190Y-12192857D01*
X31677190Y-12192857D02*
X31701000Y-12216666D01*
X31701000Y-12216666D02*
X31724809Y-12264285D01*
X31724809Y-12264285D02*
X31724809Y-12407142D01*
X31724809Y-12407142D02*
X31701000Y-12454761D01*
X31701000Y-12454761D02*
X31677190Y-12478571D01*
X32833333Y-26624809D02*
X32833333Y-26981952D01*
X32833333Y-26981952D02*
X32809524Y-27053380D01*
X32809524Y-27053380D02*
X32761905Y-27101000D01*
X32761905Y-27101000D02*
X32690476Y-27124809D01*
X32690476Y-27124809D02*
X32642857Y-27124809D01*
X33333333Y-27124809D02*
X33047619Y-27124809D01*
X33190476Y-27124809D02*
X33190476Y-26624809D01*
X33190476Y-26624809D02*
X33142857Y-26696238D01*
X33142857Y-26696238D02*
X33095238Y-26743857D01*
X33095238Y-26743857D02*
X33047619Y-26767666D01*
X16897190Y-14483333D02*
X16921000Y-14507142D01*
X16921000Y-14507142D02*
X16944809Y-14578571D01*
X16944809Y-14578571D02*
X16944809Y-14626190D01*
X16944809Y-14626190D02*
X16921000Y-14697618D01*
X16921000Y-14697618D02*
X16873380Y-14745237D01*
X16873380Y-14745237D02*
X16825761Y-14769047D01*
X16825761Y-14769047D02*
X16730523Y-14792856D01*
X16730523Y-14792856D02*
X16659095Y-14792856D01*
X16659095Y-14792856D02*
X16563857Y-14769047D01*
X16563857Y-14769047D02*
X16516238Y-14745237D01*
X16516238Y-14745237D02*
X16468619Y-14697618D01*
X16468619Y-14697618D02*
X16444809Y-14626190D01*
X16444809Y-14626190D02*
X16444809Y-14578571D01*
X16444809Y-14578571D02*
X16468619Y-14507142D01*
X16468619Y-14507142D02*
X16492428Y-14483333D01*
X16944809Y-14245237D02*
X16944809Y-14149999D01*
X16944809Y-14149999D02*
X16921000Y-14102380D01*
X16921000Y-14102380D02*
X16897190Y-14078571D01*
X16897190Y-14078571D02*
X16825761Y-14030952D01*
X16825761Y-14030952D02*
X16730523Y-14007142D01*
X16730523Y-14007142D02*
X16540047Y-14007142D01*
X16540047Y-14007142D02*
X16492428Y-14030952D01*
X16492428Y-14030952D02*
X16468619Y-14054761D01*
X16468619Y-14054761D02*
X16444809Y-14102380D01*
X16444809Y-14102380D02*
X16444809Y-14197618D01*
X16444809Y-14197618D02*
X16468619Y-14245237D01*
X16468619Y-14245237D02*
X16492428Y-14269047D01*
X16492428Y-14269047D02*
X16540047Y-14292856D01*
X16540047Y-14292856D02*
X16659095Y-14292856D01*
X16659095Y-14292856D02*
X16706714Y-14269047D01*
X16706714Y-14269047D02*
X16730523Y-14245237D01*
X16730523Y-14245237D02*
X16754333Y-14197618D01*
X16754333Y-14197618D02*
X16754333Y-14102380D01*
X16754333Y-14102380D02*
X16730523Y-14054761D01*
X16730523Y-14054761D02*
X16706714Y-14030952D01*
X16706714Y-14030952D02*
X16659095Y-14007142D01*
X12980953Y-2224809D02*
X13266667Y-2224809D01*
X13123810Y-2724809D02*
X13123810Y-2224809D01*
X13385714Y-2224809D02*
X13719047Y-2724809D01*
X13719047Y-2224809D02*
X13385714Y-2724809D01*
X13861904Y-2224809D02*
X14171428Y-2224809D01*
X14171428Y-2224809D02*
X14004761Y-2415285D01*
X14004761Y-2415285D02*
X14076190Y-2415285D01*
X14076190Y-2415285D02*
X14123809Y-2439095D01*
X14123809Y-2439095D02*
X14147618Y-2462904D01*
X14147618Y-2462904D02*
X14171428Y-2510523D01*
X14171428Y-2510523D02*
X14171428Y-2629571D01*
X14171428Y-2629571D02*
X14147618Y-2677190D01*
X14147618Y-2677190D02*
X14123809Y-2701000D01*
X14123809Y-2701000D02*
X14076190Y-2724809D01*
X14076190Y-2724809D02*
X13933333Y-2724809D01*
X13933333Y-2724809D02*
X13885714Y-2701000D01*
X13885714Y-2701000D02*
X13861904Y-2677190D01*
X29278571Y-27524809D02*
X29111905Y-27286714D01*
X28992857Y-27524809D02*
X28992857Y-27024809D01*
X28992857Y-27024809D02*
X29183333Y-27024809D01*
X29183333Y-27024809D02*
X29230952Y-27048619D01*
X29230952Y-27048619D02*
X29254762Y-27072428D01*
X29254762Y-27072428D02*
X29278571Y-27120047D01*
X29278571Y-27120047D02*
X29278571Y-27191476D01*
X29278571Y-27191476D02*
X29254762Y-27239095D01*
X29254762Y-27239095D02*
X29230952Y-27262904D01*
X29230952Y-27262904D02*
X29183333Y-27286714D01*
X29183333Y-27286714D02*
X28992857Y-27286714D01*
X29754762Y-27524809D02*
X29469048Y-27524809D01*
X29611905Y-27524809D02*
X29611905Y-27024809D01*
X29611905Y-27024809D02*
X29564286Y-27096238D01*
X29564286Y-27096238D02*
X29516667Y-27143857D01*
X29516667Y-27143857D02*
X29469048Y-27167666D01*
X30064285Y-27024809D02*
X30111904Y-27024809D01*
X30111904Y-27024809D02*
X30159523Y-27048619D01*
X30159523Y-27048619D02*
X30183333Y-27072428D01*
X30183333Y-27072428D02*
X30207142Y-27120047D01*
X30207142Y-27120047D02*
X30230952Y-27215285D01*
X30230952Y-27215285D02*
X30230952Y-27334333D01*
X30230952Y-27334333D02*
X30207142Y-27429571D01*
X30207142Y-27429571D02*
X30183333Y-27477190D01*
X30183333Y-27477190D02*
X30159523Y-27501000D01*
X30159523Y-27501000D02*
X30111904Y-27524809D01*
X30111904Y-27524809D02*
X30064285Y-27524809D01*
X30064285Y-27524809D02*
X30016666Y-27501000D01*
X30016666Y-27501000D02*
X29992857Y-27477190D01*
X29992857Y-27477190D02*
X29969047Y-27429571D01*
X29969047Y-27429571D02*
X29945238Y-27334333D01*
X29945238Y-27334333D02*
X29945238Y-27215285D01*
X29945238Y-27215285D02*
X29969047Y-27120047D01*
X29969047Y-27120047D02*
X29992857Y-27072428D01*
X29992857Y-27072428D02*
X30016666Y-27048619D01*
X30016666Y-27048619D02*
X30064285Y-27024809D01*
X10416666Y-13614809D02*
X10250000Y-13376714D01*
X10130952Y-13614809D02*
X10130952Y-13114809D01*
X10130952Y-13114809D02*
X10321428Y-13114809D01*
X10321428Y-13114809D02*
X10369047Y-13138619D01*
X10369047Y-13138619D02*
X10392857Y-13162428D01*
X10392857Y-13162428D02*
X10416666Y-13210047D01*
X10416666Y-13210047D02*
X10416666Y-13281476D01*
X10416666Y-13281476D02*
X10392857Y-13329095D01*
X10392857Y-13329095D02*
X10369047Y-13352904D01*
X10369047Y-13352904D02*
X10321428Y-13376714D01*
X10321428Y-13376714D02*
X10130952Y-13376714D01*
X10892857Y-13614809D02*
X10607143Y-13614809D01*
X10750000Y-13614809D02*
X10750000Y-13114809D01*
X10750000Y-13114809D02*
X10702381Y-13186238D01*
X10702381Y-13186238D02*
X10654762Y-13233857D01*
X10654762Y-13233857D02*
X10607143Y-13257666D01*
X7598571Y-24177190D02*
X7574762Y-24201000D01*
X7574762Y-24201000D02*
X7503333Y-24224809D01*
X7503333Y-24224809D02*
X7455714Y-24224809D01*
X7455714Y-24224809D02*
X7384286Y-24201000D01*
X7384286Y-24201000D02*
X7336667Y-24153380D01*
X7336667Y-24153380D02*
X7312857Y-24105761D01*
X7312857Y-24105761D02*
X7289048Y-24010523D01*
X7289048Y-24010523D02*
X7289048Y-23939095D01*
X7289048Y-23939095D02*
X7312857Y-23843857D01*
X7312857Y-23843857D02*
X7336667Y-23796238D01*
X7336667Y-23796238D02*
X7384286Y-23748619D01*
X7384286Y-23748619D02*
X7455714Y-23724809D01*
X7455714Y-23724809D02*
X7503333Y-23724809D01*
X7503333Y-23724809D02*
X7574762Y-23748619D01*
X7574762Y-23748619D02*
X7598571Y-23772428D01*
X7789048Y-23772428D02*
X7812857Y-23748619D01*
X7812857Y-23748619D02*
X7860476Y-23724809D01*
X7860476Y-23724809D02*
X7979524Y-23724809D01*
X7979524Y-23724809D02*
X8027143Y-23748619D01*
X8027143Y-23748619D02*
X8050952Y-23772428D01*
X8050952Y-23772428D02*
X8074762Y-23820047D01*
X8074762Y-23820047D02*
X8074762Y-23867666D01*
X8074762Y-23867666D02*
X8050952Y-23939095D01*
X8050952Y-23939095D02*
X7765238Y-24224809D01*
X7765238Y-24224809D02*
X8074762Y-24224809D01*
X8503333Y-23724809D02*
X8408095Y-23724809D01*
X8408095Y-23724809D02*
X8360476Y-23748619D01*
X8360476Y-23748619D02*
X8336666Y-23772428D01*
X8336666Y-23772428D02*
X8289047Y-23843857D01*
X8289047Y-23843857D02*
X8265238Y-23939095D01*
X8265238Y-23939095D02*
X8265238Y-24129571D01*
X8265238Y-24129571D02*
X8289047Y-24177190D01*
X8289047Y-24177190D02*
X8312857Y-24201000D01*
X8312857Y-24201000D02*
X8360476Y-24224809D01*
X8360476Y-24224809D02*
X8455714Y-24224809D01*
X8455714Y-24224809D02*
X8503333Y-24201000D01*
X8503333Y-24201000D02*
X8527142Y-24177190D01*
X8527142Y-24177190D02*
X8550952Y-24129571D01*
X8550952Y-24129571D02*
X8550952Y-24010523D01*
X8550952Y-24010523D02*
X8527142Y-23962904D01*
X8527142Y-23962904D02*
X8503333Y-23939095D01*
X8503333Y-23939095D02*
X8455714Y-23915285D01*
X8455714Y-23915285D02*
X8360476Y-23915285D01*
X8360476Y-23915285D02*
X8312857Y-23939095D01*
X8312857Y-23939095D02*
X8289047Y-23962904D01*
X8289047Y-23962904D02*
X8265238Y-24010523D01*
X2534333Y-15342856D02*
X2534333Y-14961904D01*
X2724809Y-15152380D02*
X2343857Y-15152380D01*
X2224809Y-14485713D02*
X2224809Y-14723808D01*
X2224809Y-14723808D02*
X2462904Y-14747617D01*
X2462904Y-14747617D02*
X2439095Y-14723808D01*
X2439095Y-14723808D02*
X2415285Y-14676189D01*
X2415285Y-14676189D02*
X2415285Y-14557141D01*
X2415285Y-14557141D02*
X2439095Y-14509522D01*
X2439095Y-14509522D02*
X2462904Y-14485713D01*
X2462904Y-14485713D02*
X2510523Y-14461903D01*
X2510523Y-14461903D02*
X2629571Y-14461903D01*
X2629571Y-14461903D02*
X2677190Y-14485713D01*
X2677190Y-14485713D02*
X2701000Y-14509522D01*
X2701000Y-14509522D02*
X2724809Y-14557141D01*
X2724809Y-14557141D02*
X2724809Y-14676189D01*
X2724809Y-14676189D02*
X2701000Y-14723808D01*
X2701000Y-14723808D02*
X2677190Y-14747617D01*
X2224809Y-14319046D02*
X2724809Y-14152380D01*
X2724809Y-14152380D02*
X2224809Y-13985713D01*
X11961905Y-18286714D02*
X11961905Y-18524809D01*
X11795239Y-18024809D02*
X11961905Y-18286714D01*
X11961905Y-18286714D02*
X12128572Y-18024809D01*
X12557143Y-18524809D02*
X12271429Y-18524809D01*
X12414286Y-18524809D02*
X12414286Y-18024809D01*
X12414286Y-18024809D02*
X12366667Y-18096238D01*
X12366667Y-18096238D02*
X12319048Y-18143857D01*
X12319048Y-18143857D02*
X12271429Y-18167666D01*
X10277190Y-6821428D02*
X10301000Y-6845237D01*
X10301000Y-6845237D02*
X10324809Y-6916666D01*
X10324809Y-6916666D02*
X10324809Y-6964285D01*
X10324809Y-6964285D02*
X10301000Y-7035713D01*
X10301000Y-7035713D02*
X10253380Y-7083332D01*
X10253380Y-7083332D02*
X10205761Y-7107142D01*
X10205761Y-7107142D02*
X10110523Y-7130951D01*
X10110523Y-7130951D02*
X10039095Y-7130951D01*
X10039095Y-7130951D02*
X9943857Y-7107142D01*
X9943857Y-7107142D02*
X9896238Y-7083332D01*
X9896238Y-7083332D02*
X9848619Y-7035713D01*
X9848619Y-7035713D02*
X9824809Y-6964285D01*
X9824809Y-6964285D02*
X9824809Y-6916666D01*
X9824809Y-6916666D02*
X9848619Y-6845237D01*
X9848619Y-6845237D02*
X9872428Y-6821428D01*
X10324809Y-6345237D02*
X10324809Y-6630951D01*
X10324809Y-6488094D02*
X9824809Y-6488094D01*
X9824809Y-6488094D02*
X9896238Y-6535713D01*
X9896238Y-6535713D02*
X9943857Y-6583332D01*
X9943857Y-6583332D02*
X9967666Y-6630951D01*
X10039095Y-6059523D02*
X10015285Y-6107142D01*
X10015285Y-6107142D02*
X9991476Y-6130952D01*
X9991476Y-6130952D02*
X9943857Y-6154761D01*
X9943857Y-6154761D02*
X9920047Y-6154761D01*
X9920047Y-6154761D02*
X9872428Y-6130952D01*
X9872428Y-6130952D02*
X9848619Y-6107142D01*
X9848619Y-6107142D02*
X9824809Y-6059523D01*
X9824809Y-6059523D02*
X9824809Y-5964285D01*
X9824809Y-5964285D02*
X9848619Y-5916666D01*
X9848619Y-5916666D02*
X9872428Y-5892857D01*
X9872428Y-5892857D02*
X9920047Y-5869047D01*
X9920047Y-5869047D02*
X9943857Y-5869047D01*
X9943857Y-5869047D02*
X9991476Y-5892857D01*
X9991476Y-5892857D02*
X10015285Y-5916666D01*
X10015285Y-5916666D02*
X10039095Y-5964285D01*
X10039095Y-5964285D02*
X10039095Y-6059523D01*
X10039095Y-6059523D02*
X10062904Y-6107142D01*
X10062904Y-6107142D02*
X10086714Y-6130952D01*
X10086714Y-6130952D02*
X10134333Y-6154761D01*
X10134333Y-6154761D02*
X10229571Y-6154761D01*
X10229571Y-6154761D02*
X10277190Y-6130952D01*
X10277190Y-6130952D02*
X10301000Y-6107142D01*
X10301000Y-6107142D02*
X10324809Y-6059523D01*
X10324809Y-6059523D02*
X10324809Y-5964285D01*
X10324809Y-5964285D02*
X10301000Y-5916666D01*
X10301000Y-5916666D02*
X10277190Y-5892857D01*
X10277190Y-5892857D02*
X10229571Y-5869047D01*
X10229571Y-5869047D02*
X10134333Y-5869047D01*
X10134333Y-5869047D02*
X10086714Y-5892857D01*
X10086714Y-5892857D02*
X10062904Y-5916666D01*
X10062904Y-5916666D02*
X10039095Y-5964285D01*
X5424809Y-6404761D02*
X4924809Y-6404761D01*
X4924809Y-6404761D02*
X5281952Y-6238094D01*
X5281952Y-6238094D02*
X4924809Y-6071428D01*
X4924809Y-6071428D02*
X5424809Y-6071428D01*
X4972428Y-5857141D02*
X4948619Y-5833332D01*
X4948619Y-5833332D02*
X4924809Y-5785713D01*
X4924809Y-5785713D02*
X4924809Y-5666665D01*
X4924809Y-5666665D02*
X4948619Y-5619046D01*
X4948619Y-5619046D02*
X4972428Y-5595237D01*
X4972428Y-5595237D02*
X5020047Y-5571427D01*
X5020047Y-5571427D02*
X5067666Y-5571427D01*
X5067666Y-5571427D02*
X5139095Y-5595237D01*
X5139095Y-5595237D02*
X5424809Y-5880951D01*
X5424809Y-5880951D02*
X5424809Y-5571427D01*
X6378571Y-31734809D02*
X6211905Y-31496714D01*
X6092857Y-31734809D02*
X6092857Y-31234809D01*
X6092857Y-31234809D02*
X6283333Y-31234809D01*
X6283333Y-31234809D02*
X6330952Y-31258619D01*
X6330952Y-31258619D02*
X6354762Y-31282428D01*
X6354762Y-31282428D02*
X6378571Y-31330047D01*
X6378571Y-31330047D02*
X6378571Y-31401476D01*
X6378571Y-31401476D02*
X6354762Y-31449095D01*
X6354762Y-31449095D02*
X6330952Y-31472904D01*
X6330952Y-31472904D02*
X6283333Y-31496714D01*
X6283333Y-31496714D02*
X6092857Y-31496714D01*
X6545238Y-31234809D02*
X6878571Y-31734809D01*
X6878571Y-31234809D02*
X6545238Y-31734809D01*
X7021428Y-31234809D02*
X7330952Y-31234809D01*
X7330952Y-31234809D02*
X7164285Y-31425285D01*
X7164285Y-31425285D02*
X7235714Y-31425285D01*
X7235714Y-31425285D02*
X7283333Y-31449095D01*
X7283333Y-31449095D02*
X7307142Y-31472904D01*
X7307142Y-31472904D02*
X7330952Y-31520523D01*
X7330952Y-31520523D02*
X7330952Y-31639571D01*
X7330952Y-31639571D02*
X7307142Y-31687190D01*
X7307142Y-31687190D02*
X7283333Y-31711000D01*
X7283333Y-31711000D02*
X7235714Y-31734809D01*
X7235714Y-31734809D02*
X7092857Y-31734809D01*
X7092857Y-31734809D02*
X7045238Y-31711000D01*
X7045238Y-31711000D02*
X7021428Y-31687190D01*
D11*
%TO.C,R8*%
X10220000Y-11808859D02*
X10220000Y-12116141D01*
X10980000Y-11808859D02*
X10980000Y-12116141D01*
%TO.C,TP3*%
X28000000Y-29700000D02*
G75*
G02*
X26600000Y-29700000I-700000J0D01*
G01*
X26600000Y-29700000D02*
G75*
G02*
X28000000Y-29700000I700000J0D01*
G01*
%TO.C,R3*%
X32753641Y-11420000D02*
X32446359Y-11420000D01*
X32753641Y-12180000D02*
X32446359Y-12180000D01*
D12*
%TO.C,D2*%
X25550000Y-27425000D02*
X25550000Y-28975000D01*
D11*
%TO.C,C5*%
X10492164Y-16040000D02*
X10707836Y-16040000D01*
X10492164Y-16760000D02*
X10707836Y-16760000D01*
%TO.C,C1*%
X3140000Y-6307836D02*
X3140000Y-6092164D01*
X3860000Y-6307836D02*
X3860000Y-6092164D01*
%TO.C,C20*%
X7240000Y-20792164D02*
X7240000Y-21007836D01*
X7960000Y-20792164D02*
X7960000Y-21007836D01*
%TO.C,C17*%
X15290000Y-5963748D02*
X15290000Y-7386252D01*
X17110000Y-5963748D02*
X17110000Y-7386252D01*
%TO.C,TP4*%
X7100000Y-3900000D02*
G75*
G02*
X5700000Y-3900000I-700000J0D01*
G01*
X5700000Y-3900000D02*
G75*
G02*
X7100000Y-3900000I700000J0D01*
G01*
D13*
%TO.C,U5*%
X9368852Y-22026401D02*
X11324652Y-22026401D01*
X11324652Y-18673601D02*
X9368852Y-18673601D01*
X11324652Y-20687862D02*
X11324652Y-20012140D01*
D11*
%TO.C,C19*%
X15290000Y-2686252D02*
X15290000Y-1263748D01*
X17110000Y-2686252D02*
X17110000Y-1263748D01*
%TO.C,R11*%
X32753641Y-15520000D02*
X32446359Y-15520000D01*
X32753641Y-16280000D02*
X32446359Y-16280000D01*
%TO.C,C15*%
X28292164Y-15540000D02*
X28507836Y-15540000D01*
X28292164Y-16260000D02*
X28507836Y-16260000D01*
%TO.C,R13*%
X24563641Y-16520000D02*
X24256359Y-16520000D01*
X24563641Y-17280000D02*
X24256359Y-17280000D01*
D12*
%TO.C,D1*%
X6350000Y-11875000D02*
X6350000Y-10325000D01*
D11*
%TO.C,C24*%
X19540000Y-27107836D02*
X19540000Y-26892164D01*
X20260000Y-27107836D02*
X20260000Y-26892164D01*
%TO.C,R7*%
X10220000Y-9856359D02*
X10220000Y-10163641D01*
X10980000Y-9856359D02*
X10980000Y-10163641D01*
%TO.C,C34*%
X17640000Y-8787836D02*
X17640000Y-8572164D01*
X18360000Y-8787836D02*
X18360000Y-8572164D01*
%TO.C,JP1*%
X2300000Y-21650000D02*
X2300000Y-20250000D01*
X3000000Y-19550000D02*
X3600000Y-19550000D01*
X3600000Y-22350000D02*
X3000000Y-22350000D01*
X4300000Y-20250000D02*
X4300000Y-21650000D01*
X2300000Y-20250000D02*
G75*
G02*
X3000000Y-19550000I700000J0D01*
G01*
X3000000Y-22350000D02*
G75*
G02*
X2300000Y-21650000I-1J699999D01*
G01*
X3600000Y-19550000D02*
G75*
G02*
X4300000Y-20250000I0J-700000D01*
G01*
X4300000Y-21650000D02*
G75*
G02*
X3600000Y-22350000I-699999J-1D01*
G01*
%TO.C,R22*%
X8320000Y-16763641D02*
X8320000Y-16456359D01*
X9080000Y-16763641D02*
X9080000Y-16456359D01*
%TO.C,JP2*%
X30750000Y-7500000D02*
X30750000Y-6900000D01*
X31450000Y-6200000D02*
X32850000Y-6200000D01*
X32850000Y-8200000D02*
X31450000Y-8200000D01*
X33550000Y-6900000D02*
X33550000Y-7500000D01*
X30750000Y-6900000D02*
G75*
G02*
X31450000Y-6200000I700000J0D01*
G01*
X31450000Y-8200000D02*
G75*
G02*
X30750000Y-7500000I0J700000D01*
G01*
X32850000Y-6200000D02*
G75*
G02*
X33550000Y-6900000I1J-699999D01*
G01*
X33550000Y-7500000D02*
G75*
G02*
X32850000Y-8200000I-699999J-1D01*
G01*
%TO.C,C29*%
X4392164Y-16940000D02*
X4607836Y-16940000D01*
X4392164Y-17660000D02*
X4607836Y-17660000D01*
%TO.C,R23*%
X7343641Y-19020000D02*
X7036359Y-19020000D01*
X7343641Y-19780000D02*
X7036359Y-19780000D01*
%TO.C,C10*%
X22140000Y-24987836D02*
X22140000Y-24772164D01*
X22860000Y-24987836D02*
X22860000Y-24772164D01*
%TO.C,TP6*%
X9500000Y-3900000D02*
G75*
G02*
X8100000Y-3900000I-700000J0D01*
G01*
X8100000Y-3900000D02*
G75*
G02*
X9500000Y-3900000I700000J0D01*
G01*
%TO.C,R2*%
X11420000Y-14753641D02*
X11420000Y-14446359D01*
X12180000Y-14753641D02*
X12180000Y-14446359D01*
D14*
%TO.C,U4*%
X2400000Y-8465000D02*
X2400000Y-10165000D01*
X2400000Y-8465000D02*
X2500000Y-8465000D01*
X2400000Y-10165000D02*
X2500000Y-10165000D01*
X5500000Y-8465000D02*
X5400000Y-8465000D01*
X5500000Y-8465000D02*
X5500000Y-10165000D01*
X5500000Y-10165000D02*
X5400000Y-10165000D01*
D15*
X3100000Y-11784000D02*
G75*
G02*
X2900000Y-11784000I-100000J0D01*
G01*
X2900000Y-11784000D02*
G75*
G02*
X3100000Y-11784000I100000J0D01*
G01*
D11*
%TO.C,TP2*%
X25000000Y-24000000D02*
G75*
G02*
X23600000Y-24000000I-700000J0D01*
G01*
X23600000Y-24000000D02*
G75*
G02*
X25000000Y-24000000I700000J0D01*
G01*
%TO.C,C12*%
X17640000Y-10472164D02*
X17640000Y-10687836D01*
X18360000Y-10472164D02*
X18360000Y-10687836D01*
%TO.C,C21*%
X12740000Y-19872164D02*
X12740000Y-20087836D01*
X13460000Y-19872164D02*
X13460000Y-20087836D01*
D15*
%TO.C,J2*%
X27300000Y100000D02*
X19500000Y100000D01*
D11*
%TO.C,C3*%
X18140000Y-25507836D02*
X18140000Y-25292164D01*
X18860000Y-25507836D02*
X18860000Y-25292164D01*
%TO.C,C14*%
X30192164Y-15540000D02*
X30407836Y-15540000D01*
X30192164Y-16260000D02*
X30407836Y-16260000D01*
%TO.C,C22*%
X22640000Y-10887836D02*
X22640000Y-10672164D01*
X23360000Y-10887836D02*
X23360000Y-10672164D01*
%TO.C,C28*%
X9607836Y-22640000D02*
X9392164Y-22640000D01*
X9607836Y-23360000D02*
X9392164Y-23360000D01*
D15*
%TO.C,IC1*%
X18750000Y-12200000D02*
X20050000Y-12200000D01*
X20400000Y-12400000D02*
X21300000Y-12400000D01*
X20400000Y-15300000D02*
X20400000Y-12400000D01*
X21300000Y-12400000D02*
X21300000Y-15300000D01*
X21300000Y-15300000D02*
X20400000Y-15300000D01*
D11*
%TO.C,TP7*%
X9500000Y-6000000D02*
G75*
G02*
X8100000Y-6000000I-700000J0D01*
G01*
X8100000Y-6000000D02*
G75*
G02*
X9500000Y-6000000I700000J0D01*
G01*
%TO.C,C11*%
X24272164Y-17540000D02*
X24487836Y-17540000D01*
X24272164Y-18260000D02*
X24487836Y-18260000D01*
%TO.C,C6*%
X13440000Y-14492164D02*
X13440000Y-14707836D01*
X14160000Y-14492164D02*
X14160000Y-14707836D01*
%TO.C,C25*%
X20540000Y-27107836D02*
X20540000Y-26892164D01*
X21260000Y-27107836D02*
X21260000Y-26892164D01*
%TO.C,L2*%
X27440000Y-8402064D02*
X27440000Y-7197936D01*
X30160000Y-8402064D02*
X30160000Y-7197936D01*
%TO.C,C2*%
X2140000Y-6307836D02*
X2140000Y-6092164D01*
X2860000Y-6307836D02*
X2860000Y-6092164D01*
D16*
%TO.C,U3*%
X5725000Y-15974500D02*
X5725000Y-18623500D01*
X5725000Y-18623500D02*
X7925000Y-18623500D01*
D11*
X7425000Y-15635000D02*
X7545000Y-15755000D01*
X7845000Y-15635000D02*
X7425000Y-15635000D01*
D16*
X7925000Y-15926500D02*
X5725000Y-15926500D01*
X7925000Y-18623500D02*
X7925000Y-15926500D01*
D11*
%TO.C,R14*%
X4653641Y-17920000D02*
X4346359Y-17920000D01*
X4653641Y-18680000D02*
X4346359Y-18680000D01*
%TO.C,C32*%
X12559420Y-11790000D02*
X12840580Y-11790000D01*
X12559420Y-12810000D02*
X12840580Y-12810000D01*
D15*
%TO.C,U2*%
X13633553Y-24015001D02*
X14583553Y-24015001D01*
D17*
X14230000Y-24368554D02*
X14230000Y-23661448D01*
X14583553Y-24015001D02*
X14230000Y-23661448D01*
X14583553Y-24015001D02*
X14230000Y-24368554D01*
D15*
X13360000Y-22845001D02*
G75*
G02*
X13160000Y-22845001I-100000J0D01*
G01*
X13160000Y-22845001D02*
G75*
G02*
X13360000Y-22845001I100000J0D01*
G01*
D11*
%TO.C,C13*%
X12440000Y-14492164D02*
X12440000Y-14707836D01*
X13160000Y-14492164D02*
X13160000Y-14707836D01*
%TO.C,C8*%
X15607836Y-15140000D02*
X15392164Y-15140000D01*
X15607836Y-15860000D02*
X15392164Y-15860000D01*
%TO.C,C30*%
X4140000Y-12422164D02*
X4140000Y-12637836D01*
X4860000Y-12422164D02*
X4860000Y-12637836D01*
%TO.C,C33*%
X32115580Y-8790000D02*
X31834420Y-8790000D01*
X32115580Y-9810000D02*
X31834420Y-9810000D01*
D18*
%TO.C,D3*%
X20500000Y-11200000D02*
X20500000Y-11200000D01*
X20500000Y-11300000D02*
X20500000Y-11300000D01*
X20500000Y-11200000D02*
G75*
G02*
X20500000Y-11300000I0J-50000D01*
G01*
X20500000Y-11300000D02*
G75*
G02*
X20500000Y-11200000I0J50000D01*
G01*
D15*
%TO.C,IC2*%
X27874153Y-14875847D02*
X27874153Y-13575847D01*
X28074153Y-12325847D02*
X30974153Y-12325847D01*
X28074153Y-13225847D02*
X28074153Y-12325847D01*
X30974153Y-12325847D02*
X30974153Y-13225847D01*
X30974153Y-13225847D02*
X28074153Y-13225847D01*
D11*
%TO.C,C31*%
X32492164Y-10440000D02*
X32707836Y-10440000D01*
X32492164Y-11160000D02*
X32707836Y-11160000D01*
%TO.C,R6*%
X32753641Y-13520000D02*
X32446359Y-13520000D01*
X32753641Y-14280000D02*
X32446359Y-14280000D01*
%TO.C,R5*%
X32753641Y-14520000D02*
X32446359Y-14520000D01*
X32753641Y-15280000D02*
X32446359Y-15280000D01*
%TO.C,L1*%
X14540000Y-11010436D02*
X14540000Y-12214564D01*
X17260000Y-11010436D02*
X17260000Y-12214564D01*
%TO.C,TP8*%
X9900000Y-13700000D02*
G75*
G02*
X8500000Y-13700000I-700000J0D01*
G01*
X8500000Y-13700000D02*
G75*
G02*
X9900000Y-13700000I700000J0D01*
G01*
%TO.C,R15*%
X29556359Y-4520000D02*
X29863641Y-4520000D01*
X29556359Y-5280000D02*
X29863641Y-5280000D01*
%TO.C,C4*%
X17140000Y-25507836D02*
X17140000Y-25292164D01*
X17860000Y-25507836D02*
X17860000Y-25292164D01*
%TO.C,C16*%
X13311252Y-3190000D02*
X11888748Y-3190000D01*
X13311252Y-5010000D02*
X11888748Y-5010000D01*
%TO.C,U1*%
X15190000Y-16540000D02*
X15665000Y-16540000D01*
X15190000Y-17015000D02*
X15190000Y-16540000D01*
X15190000Y-23760000D02*
X15190000Y-23285000D01*
X15665000Y-23760000D02*
X15190000Y-23760000D01*
X21935000Y-16540000D02*
X22410000Y-16540000D01*
X22410000Y-16540000D02*
X22410000Y-17015000D01*
X22410000Y-23285000D02*
X22410000Y-23760000D01*
X22410000Y-23760000D02*
X21935000Y-23760000D01*
X14743978Y-17400000D02*
X14413978Y-17640000D01*
X14413978Y-17160000D01*
X14743978Y-17400000D01*
G36*
X14743978Y-17400000D02*
G01*
X14413978Y-17640000D01*
X14413978Y-17160000D01*
X14743978Y-17400000D01*
G37*
%TO.C,C27*%
X11612164Y-25940000D02*
X11827836Y-25940000D01*
X11612164Y-26660000D02*
X11827836Y-26660000D01*
%TO.C,C7*%
X4740000Y-21107836D02*
X4740000Y-20892164D01*
X5460000Y-21107836D02*
X5460000Y-20892164D01*
D18*
%TO.C,D4*%
X25500000Y-10650000D02*
X25500000Y-10650000D01*
X25500000Y-10750000D02*
X25500000Y-10750000D01*
X25500000Y-10650000D02*
G75*
G02*
X25500000Y-10750000I0J-50000D01*
G01*
X25500000Y-10750000D02*
G75*
G02*
X25500000Y-10650000I0J50000D01*
G01*
D11*
%TO.C,R9*%
X10446359Y-17020000D02*
X10753641Y-17020000D01*
X10446359Y-17780000D02*
X10753641Y-17780000D01*
%TO.C,TP1*%
X24700000Y-21900000D02*
G75*
G02*
X23300000Y-21900000I-700000J0D01*
G01*
X23300000Y-21900000D02*
G75*
G02*
X24700000Y-21900000I700000J0D01*
G01*
%TO.C,C23*%
X32707836Y-12440000D02*
X32492164Y-12440000D01*
X32707836Y-13160000D02*
X32492164Y-13160000D01*
D15*
%TO.C,J1*%
X29050000Y-17110000D02*
X30300000Y-17110000D01*
X29050000Y-26050000D02*
X30300000Y-26050000D01*
X33020000Y-26050000D02*
X34300000Y-26050000D01*
X34300000Y-17110000D02*
X33020000Y-17110000D01*
X25800000Y-24830000D02*
G75*
G02*
X25600000Y-24830000I-100000J0D01*
G01*
X25600000Y-24830000D02*
G75*
G02*
X25800000Y-24830000I100000J0D01*
G01*
D11*
%TO.C,C9*%
X15607836Y-14140000D02*
X15392164Y-14140000D01*
X15607836Y-14860000D02*
X15392164Y-14860000D01*
%TO.C,R10*%
X27856359Y-26820000D02*
X28163641Y-26820000D01*
X27856359Y-27580000D02*
X28163641Y-27580000D01*
%TO.C,R1*%
X10420000Y-14753641D02*
X10420000Y-14446359D01*
X11180000Y-14753641D02*
X11180000Y-14446359D01*
%TO.C,C26*%
X9607836Y-23640000D02*
X9392164Y-23640000D01*
X9607836Y-24360000D02*
X9392164Y-24360000D01*
%TO.C,C18*%
X13311252Y-5590000D02*
X11888748Y-5590000D01*
X13311252Y-7410000D02*
X11888748Y-7410000D01*
%TO.C,TP5*%
X7100000Y-6000000D02*
G75*
G02*
X5700000Y-6000000I-700000J0D01*
G01*
X5700000Y-6000000D02*
G75*
G02*
X7100000Y-6000000I700000J0D01*
G01*
%TD*%
M02*
