M48
; DRILL file {KiCad 9.0.6} date 2026-02-21T19:38:50+0100
; FORMAT={-:-/ absolute / metric / decimal}
; #@! TF.CreationDate,2026-02-21T19:38:50+01:00
; #@! TF.GenerationSoftware,Kicad,Pcbnew,9.0.6
; #@! TF.FileFunction,Plated,1,4,PTH
FMAT,2
METRIC
; #@! TA.AperFunction,Plated,PTH,ViaDrill
T1C0.200
; #@! TA.AperFunction,Plated,PTH,ComponentDrill
T2C0.600
%
G90
G05
T1
X1.6Y-22.8
X1.6Y-29.1
X2.7Y-13.7
X4.1Y-7.3
X4.3Y-16.6
X4.4Y-21.6
X5.8Y-9.6
X6.0Y-20.5
X6.1Y-13.7
X6.1Y-15.8
X6.8Y-16.7
X7.6Y-20.9
X8.405Y-18.605
X8.579Y-30.416
X8.588Y-30.934
X8.6Y-5.6
X8.8Y-3.5
X8.825Y-25.125
X9.223Y-18.477
X9.3Y-17.4
X9.6Y-11.4
X9.7Y-2.3
X10.625Y-15.878
X10.8Y-3.8
X10.8Y-5.7
X10.8Y-22.8
X11.2Y-33.0
X11.3Y-22.51
X11.379Y-30.416
X11.6Y-11.5
X11.7Y-18.34
X11.775Y-12.925
X12.6Y-2.7
X13.077Y-17.893
X13.11Y-21.1
X13.175Y-26.225
X13.4Y-13.4
X13.44Y-18.24
X13.6Y-23.2
X13.6Y-23.755
X13.7Y-24.7
X14.179Y-32.816
X14.414Y-20.835
X14.45Y-18.75
X14.5Y-16.3
X14.5Y-19.3
X14.525Y-21.837
X14.592Y-17.007
X14.6Y-19.851
X14.9Y-13.388
X14.9Y-28.1
X15.6Y-2.699
X15.84Y-24.298
X15.84Y-13.5
X16.416Y-24.656
X16.5Y-25.3
X16.5Y-27.5
X16.608Y-25.839
X16.9Y-9.9
X17.024Y-30.412
X17.061Y-30.91
X17.1Y-27.5
X17.277Y-15.5
X17.3Y-18.3
X17.3Y-20.1
X17.3Y-21.6
X17.458Y-13.458
X17.811Y-9.711
X17.852Y-15.672
X18.078Y-12.978
X18.239Y-12.1
X18.39Y-15.786
X18.507Y-24.291
X18.699Y-9.399
X18.8Y-18.3
X18.8Y-20.15
X18.8Y-21.6
X18.9Y-15.5
X19.2Y-5.8
X20.05Y-16.0
X20.2Y-33.2
X20.349Y-7.749
X20.4Y-18.3
X20.4Y-20.1
X20.4Y-21.6
X20.44Y-24.395
X20.64Y-15.997
X21.472Y-15.89
X21.55Y-24.3
X21.69Y-27.39
X21.9Y-9.5
X22.005Y-25.305
X22.349Y-7.06
X22.5Y-23.7
X22.8Y-31.9
X22.846Y-16.046
X22.9Y-6.8
X23.071Y-20.624
X23.114Y-20.075
X23.2Y-16.4
X23.2Y-19.5
X23.41Y-25.741
X23.571Y-25.071
X23.7Y-16.9
X23.841Y-9.6
X23.9Y-4.7
X24.4Y-17.2
X24.62Y-9.5
X24.641Y-23.0
X24.9Y-4.7
X24.9Y-29.0
X25.1Y-22.5
X25.171Y-9.5
X25.5Y-30.4
X25.9Y-4.7
X26.1Y-12.5
X26.2Y-9.7
X26.3Y-15.99
X26.719Y-13.942
X26.9Y-4.7
X28.1Y-10.8
X28.294Y-12.995
X29.1Y-6.7
X30.21Y-6.0
X31.2Y-15.9
X31.5Y-5.9
X32.277Y-14.252
T2
G00X26.37Y-17.26
M15
G01X27.47Y-17.26
M16
G05
G00X26.37Y-25.9
M15
G01X27.47Y-25.9
M16
G05
G00X30.7Y-17.26
M15
G01X31.5Y-17.26
M16
G05
G00X30.7Y-25.9
M15
G01X31.5Y-25.9
M16
G05
M30
