%TF.GenerationSoftware,KiCad,Pcbnew,9.0.6*%
%TF.CreationDate,2026-02-21T19:38:27+01:00*%
%TF.ProjectId,fcg4,66636734-2e6b-4696-9361-645f70636258,rev?*%
%TF.SameCoordinates,Original*%
%TF.FileFunction,Legend,Top*%
%TF.FilePolarity,Positive*%
%FSLAX46Y46*%
G04 Gerber Fmt 4.6, Leading zero omitted, Abs format (unit mm)*
G04 Created by KiCad (PCBNEW 9.0.6) date 2026-02-21 19:38:27*
%MOMM*%
%LPD*%
G01*
G04 APERTURE LIST*
%ADD10C,0.125000*%
%ADD11C,0.150000*%
%ADD12C,0.152000*%
%ADD13C,0.120000*%
%ADD14C,0.200000*%
%ADD15C,0.250000*%
G04 APERTURE END LIST*
D10*
X25824809Y-32854761D02*
X26324809Y-32688095D01*
X26324809Y-32688095D02*
X25824809Y-32521428D01*
X26324809Y-32354762D02*
X25824809Y-32354762D01*
X25824809Y-32354762D02*
X25824809Y-32235714D01*
X25824809Y-32235714D02*
X25848619Y-32164286D01*
X25848619Y-32164286D02*
X25896238Y-32116667D01*
X25896238Y-32116667D02*
X25943857Y-32092857D01*
X25943857Y-32092857D02*
X26039095Y-32069048D01*
X26039095Y-32069048D02*
X26110523Y-32069048D01*
X26110523Y-32069048D02*
X26205761Y-32092857D01*
X26205761Y-32092857D02*
X26253380Y-32116667D01*
X26253380Y-32116667D02*
X26301000Y-32164286D01*
X26301000Y-32164286D02*
X26324809Y-32235714D01*
X26324809Y-32235714D02*
X26324809Y-32354762D01*
X26324809Y-31854762D02*
X25824809Y-31854762D01*
X25824809Y-31854762D02*
X25824809Y-31735714D01*
X25824809Y-31735714D02*
X25848619Y-31664286D01*
X25848619Y-31664286D02*
X25896238Y-31616667D01*
X25896238Y-31616667D02*
X25943857Y-31592857D01*
X25943857Y-31592857D02*
X26039095Y-31569048D01*
X26039095Y-31569048D02*
X26110523Y-31569048D01*
X26110523Y-31569048D02*
X26205761Y-31592857D01*
X26205761Y-31592857D02*
X26253380Y-31616667D01*
X26253380Y-31616667D02*
X26301000Y-31664286D01*
X26301000Y-31664286D02*
X26324809Y-31735714D01*
X26324809Y-31735714D02*
X26324809Y-31854762D01*
X26372428Y-31473810D02*
X26372428Y-31092857D01*
X26324809Y-30973810D02*
X25824809Y-30973810D01*
X25824809Y-30973810D02*
X26181952Y-30807143D01*
X26181952Y-30807143D02*
X25824809Y-30640477D01*
X25824809Y-30640477D02*
X26324809Y-30640477D01*
X26277190Y-30116667D02*
X26301000Y-30140476D01*
X26301000Y-30140476D02*
X26324809Y-30211905D01*
X26324809Y-30211905D02*
X26324809Y-30259524D01*
X26324809Y-30259524D02*
X26301000Y-30330952D01*
X26301000Y-30330952D02*
X26253380Y-30378571D01*
X26253380Y-30378571D02*
X26205761Y-30402381D01*
X26205761Y-30402381D02*
X26110523Y-30426190D01*
X26110523Y-30426190D02*
X26039095Y-30426190D01*
X26039095Y-30426190D02*
X25943857Y-30402381D01*
X25943857Y-30402381D02*
X25896238Y-30378571D01*
X25896238Y-30378571D02*
X25848619Y-30330952D01*
X25848619Y-30330952D02*
X25824809Y-30259524D01*
X25824809Y-30259524D02*
X25824809Y-30211905D01*
X25824809Y-30211905D02*
X25848619Y-30140476D01*
X25848619Y-30140476D02*
X25872428Y-30116667D01*
X25824809Y-29902381D02*
X26229571Y-29902381D01*
X26229571Y-29902381D02*
X26277190Y-29878571D01*
X26277190Y-29878571D02*
X26301000Y-29854762D01*
X26301000Y-29854762D02*
X26324809Y-29807143D01*
X26324809Y-29807143D02*
X26324809Y-29711905D01*
X26324809Y-29711905D02*
X26301000Y-29664286D01*
X26301000Y-29664286D02*
X26277190Y-29640476D01*
X26277190Y-29640476D02*
X26229571Y-29616667D01*
X26229571Y-29616667D02*
X25824809Y-29616667D01*
X6629855Y-28032309D02*
X6915569Y-28032309D01*
X6772712Y-28532309D02*
X6772712Y-28032309D01*
X7034616Y-28032309D02*
X7367949Y-28532309D01*
X7367949Y-28032309D02*
X7034616Y-28532309D01*
X7820330Y-28532309D02*
X7534616Y-28532309D01*
X7677473Y-28532309D02*
X7677473Y-28032309D01*
X7677473Y-28032309D02*
X7629854Y-28103738D01*
X7629854Y-28103738D02*
X7582235Y-28151357D01*
X7582235Y-28151357D02*
X7534616Y-28175166D01*
X12101283Y-28341833D02*
X12482236Y-28341833D01*
X12291759Y-28532309D02*
X12291759Y-28151357D01*
X12958426Y-28032309D02*
X12720331Y-28032309D01*
X12720331Y-28032309D02*
X12696522Y-28270404D01*
X12696522Y-28270404D02*
X12720331Y-28246595D01*
X12720331Y-28246595D02*
X12767950Y-28222785D01*
X12767950Y-28222785D02*
X12886998Y-28222785D01*
X12886998Y-28222785D02*
X12934617Y-28246595D01*
X12934617Y-28246595D02*
X12958426Y-28270404D01*
X12958426Y-28270404D02*
X12982236Y-28318023D01*
X12982236Y-28318023D02*
X12982236Y-28437071D01*
X12982236Y-28437071D02*
X12958426Y-28484690D01*
X12958426Y-28484690D02*
X12934617Y-28508500D01*
X12934617Y-28508500D02*
X12886998Y-28532309D01*
X12886998Y-28532309D02*
X12767950Y-28532309D01*
X12767950Y-28532309D02*
X12720331Y-28508500D01*
X12720331Y-28508500D02*
X12696522Y-28484690D01*
X13125093Y-28032309D02*
X13291759Y-28532309D01*
X13291759Y-28532309D02*
X13458426Y-28032309D01*
X2056119Y-13936811D02*
X2032309Y-13984430D01*
X2032309Y-13984430D02*
X2032309Y-14055859D01*
X2032309Y-14055859D02*
X2056119Y-14127287D01*
X2056119Y-14127287D02*
X2103738Y-14174906D01*
X2103738Y-14174906D02*
X2151357Y-14198716D01*
X2151357Y-14198716D02*
X2246595Y-14222525D01*
X2246595Y-14222525D02*
X2318023Y-14222525D01*
X2318023Y-14222525D02*
X2413261Y-14198716D01*
X2413261Y-14198716D02*
X2460880Y-14174906D01*
X2460880Y-14174906D02*
X2508500Y-14127287D01*
X2508500Y-14127287D02*
X2532309Y-14055859D01*
X2532309Y-14055859D02*
X2532309Y-14008240D01*
X2532309Y-14008240D02*
X2508500Y-13936811D01*
X2508500Y-13936811D02*
X2484690Y-13913002D01*
X2484690Y-13913002D02*
X2318023Y-13913002D01*
X2318023Y-13913002D02*
X2318023Y-14008240D01*
X2532309Y-13698716D02*
X2032309Y-13698716D01*
X2032309Y-13698716D02*
X2532309Y-13413002D01*
X2532309Y-13413002D02*
X2032309Y-13413002D01*
X2532309Y-13174906D02*
X2032309Y-13174906D01*
X2032309Y-13174906D02*
X2032309Y-13055858D01*
X2032309Y-13055858D02*
X2056119Y-12984430D01*
X2056119Y-12984430D02*
X2103738Y-12936811D01*
X2103738Y-12936811D02*
X2151357Y-12913001D01*
X2151357Y-12913001D02*
X2246595Y-12889192D01*
X2246595Y-12889192D02*
X2318023Y-12889192D01*
X2318023Y-12889192D02*
X2413261Y-12913001D01*
X2413261Y-12913001D02*
X2460880Y-12936811D01*
X2460880Y-12936811D02*
X2508500Y-12984430D01*
X2508500Y-12984430D02*
X2532309Y-13055858D01*
X2532309Y-13055858D02*
X2532309Y-13174906D01*
X5159523Y-4524809D02*
X5159523Y-4024809D01*
X5159523Y-4024809D02*
X5349999Y-4024809D01*
X5349999Y-4024809D02*
X5397618Y-4048619D01*
X5397618Y-4048619D02*
X5421428Y-4072428D01*
X5421428Y-4072428D02*
X5445237Y-4120047D01*
X5445237Y-4120047D02*
X5445237Y-4191476D01*
X5445237Y-4191476D02*
X5421428Y-4239095D01*
X5421428Y-4239095D02*
X5397618Y-4262904D01*
X5397618Y-4262904D02*
X5349999Y-4286714D01*
X5349999Y-4286714D02*
X5159523Y-4286714D01*
X5611904Y-4024809D02*
X5730952Y-4524809D01*
X5730952Y-4524809D02*
X5826190Y-4167666D01*
X5826190Y-4167666D02*
X5921428Y-4524809D01*
X5921428Y-4524809D02*
X6040476Y-4024809D01*
X6230952Y-4524809D02*
X6230952Y-4024809D01*
X6230952Y-4024809D02*
X6397619Y-4381952D01*
X6397619Y-4381952D02*
X6564285Y-4024809D01*
X6564285Y-4024809D02*
X6564285Y-4524809D01*
X7064286Y-4524809D02*
X6778572Y-4524809D01*
X6921429Y-4524809D02*
X6921429Y-4024809D01*
X6921429Y-4024809D02*
X6873810Y-4096238D01*
X6873810Y-4096238D02*
X6826191Y-4143857D01*
X6826191Y-4143857D02*
X6778572Y-4167666D01*
X12813002Y-2067690D02*
X12979668Y-2305785D01*
X13098716Y-2067690D02*
X13098716Y-2567690D01*
X13098716Y-2567690D02*
X12908240Y-2567690D01*
X12908240Y-2567690D02*
X12860621Y-2543880D01*
X12860621Y-2543880D02*
X12836811Y-2520071D01*
X12836811Y-2520071D02*
X12813002Y-2472452D01*
X12813002Y-2472452D02*
X12813002Y-2401023D01*
X12813002Y-2401023D02*
X12836811Y-2353404D01*
X12836811Y-2353404D02*
X12860621Y-2329595D01*
X12860621Y-2329595D02*
X12908240Y-2305785D01*
X12908240Y-2305785D02*
X13098716Y-2305785D01*
X12646335Y-2567690D02*
X12313002Y-2067690D01*
X12313002Y-2567690D02*
X12646335Y-2067690D01*
X12170145Y-2567690D02*
X11860621Y-2567690D01*
X11860621Y-2567690D02*
X12027288Y-2377214D01*
X12027288Y-2377214D02*
X11955859Y-2377214D01*
X11955859Y-2377214D02*
X11908240Y-2353404D01*
X11908240Y-2353404D02*
X11884431Y-2329595D01*
X11884431Y-2329595D02*
X11860621Y-2281976D01*
X11860621Y-2281976D02*
X11860621Y-2162928D01*
X11860621Y-2162928D02*
X11884431Y-2115309D01*
X11884431Y-2115309D02*
X11908240Y-2091500D01*
X11908240Y-2091500D02*
X11955859Y-2067690D01*
X11955859Y-2067690D02*
X12098716Y-2067690D01*
X12098716Y-2067690D02*
X12146335Y-2091500D01*
X12146335Y-2091500D02*
X12170145Y-2115309D01*
X7724809Y-22180952D02*
X8129571Y-22180952D01*
X8129571Y-22180952D02*
X8177190Y-22157142D01*
X8177190Y-22157142D02*
X8201000Y-22133333D01*
X8201000Y-22133333D02*
X8224809Y-22085714D01*
X8224809Y-22085714D02*
X8224809Y-21990476D01*
X8224809Y-21990476D02*
X8201000Y-21942857D01*
X8201000Y-21942857D02*
X8177190Y-21919047D01*
X8177190Y-21919047D02*
X8129571Y-21895238D01*
X8129571Y-21895238D02*
X7724809Y-21895238D01*
X7724809Y-21419047D02*
X7724809Y-21657142D01*
X7724809Y-21657142D02*
X7962904Y-21680951D01*
X7962904Y-21680951D02*
X7939095Y-21657142D01*
X7939095Y-21657142D02*
X7915285Y-21609523D01*
X7915285Y-21609523D02*
X7915285Y-21490475D01*
X7915285Y-21490475D02*
X7939095Y-21442856D01*
X7939095Y-21442856D02*
X7962904Y-21419047D01*
X7962904Y-21419047D02*
X8010523Y-21395237D01*
X8010523Y-21395237D02*
X8129571Y-21395237D01*
X8129571Y-21395237D02*
X8177190Y-21419047D01*
X8177190Y-21419047D02*
X8201000Y-21442856D01*
X8201000Y-21442856D02*
X8224809Y-21490475D01*
X8224809Y-21490475D02*
X8224809Y-21609523D01*
X8224809Y-21609523D02*
X8201000Y-21657142D01*
X8201000Y-21657142D02*
X8177190Y-21680951D01*
X21011905Y-8524809D02*
X21011905Y-8024809D01*
X21535714Y-8477190D02*
X21511905Y-8501000D01*
X21511905Y-8501000D02*
X21440476Y-8524809D01*
X21440476Y-8524809D02*
X21392857Y-8524809D01*
X21392857Y-8524809D02*
X21321429Y-8501000D01*
X21321429Y-8501000D02*
X21273810Y-8453380D01*
X21273810Y-8453380D02*
X21250000Y-8405761D01*
X21250000Y-8405761D02*
X21226191Y-8310523D01*
X21226191Y-8310523D02*
X21226191Y-8239095D01*
X21226191Y-8239095D02*
X21250000Y-8143857D01*
X21250000Y-8143857D02*
X21273810Y-8096238D01*
X21273810Y-8096238D02*
X21321429Y-8048619D01*
X21321429Y-8048619D02*
X21392857Y-8024809D01*
X21392857Y-8024809D02*
X21440476Y-8024809D01*
X21440476Y-8024809D02*
X21511905Y-8048619D01*
X21511905Y-8048619D02*
X21535714Y-8072428D01*
X22011905Y-8524809D02*
X21726191Y-8524809D01*
X21869048Y-8524809D02*
X21869048Y-8024809D01*
X21869048Y-8024809D02*
X21821429Y-8096238D01*
X21821429Y-8096238D02*
X21773810Y-8143857D01*
X21773810Y-8143857D02*
X21726191Y-8167666D01*
X3001283Y-25941833D02*
X3382236Y-25941833D01*
X3191759Y-26132309D02*
X3191759Y-25751357D01*
X3858426Y-25632309D02*
X3620331Y-25632309D01*
X3620331Y-25632309D02*
X3596522Y-25870404D01*
X3596522Y-25870404D02*
X3620331Y-25846595D01*
X3620331Y-25846595D02*
X3667950Y-25822785D01*
X3667950Y-25822785D02*
X3786998Y-25822785D01*
X3786998Y-25822785D02*
X3834617Y-25846595D01*
X3834617Y-25846595D02*
X3858426Y-25870404D01*
X3858426Y-25870404D02*
X3882236Y-25918023D01*
X3882236Y-25918023D02*
X3882236Y-26037071D01*
X3882236Y-26037071D02*
X3858426Y-26084690D01*
X3858426Y-26084690D02*
X3834617Y-26108500D01*
X3834617Y-26108500D02*
X3786998Y-26132309D01*
X3786998Y-26132309D02*
X3667950Y-26132309D01*
X3667950Y-26132309D02*
X3620331Y-26108500D01*
X3620331Y-26108500D02*
X3596522Y-26084690D01*
X4025093Y-25632309D02*
X4191759Y-26132309D01*
X4191759Y-26132309D02*
X4358426Y-25632309D01*
X9686997Y-28532309D02*
X9520331Y-28294214D01*
X9401283Y-28532309D02*
X9401283Y-28032309D01*
X9401283Y-28032309D02*
X9591759Y-28032309D01*
X9591759Y-28032309D02*
X9639378Y-28056119D01*
X9639378Y-28056119D02*
X9663188Y-28079928D01*
X9663188Y-28079928D02*
X9686997Y-28127547D01*
X9686997Y-28127547D02*
X9686997Y-28198976D01*
X9686997Y-28198976D02*
X9663188Y-28246595D01*
X9663188Y-28246595D02*
X9639378Y-28270404D01*
X9639378Y-28270404D02*
X9591759Y-28294214D01*
X9591759Y-28294214D02*
X9401283Y-28294214D01*
X9853664Y-28032309D02*
X10186997Y-28532309D01*
X10186997Y-28032309D02*
X9853664Y-28532309D01*
X10639378Y-28532309D02*
X10353664Y-28532309D01*
X10496521Y-28532309D02*
X10496521Y-28032309D01*
X10496521Y-28032309D02*
X10448902Y-28103738D01*
X10448902Y-28103738D02*
X10401283Y-28151357D01*
X10401283Y-28151357D02*
X10353664Y-28175166D01*
X1575190Y-20073809D02*
X1813285Y-19907143D01*
X1575190Y-19788095D02*
X2075190Y-19788095D01*
X2075190Y-19788095D02*
X2075190Y-19978571D01*
X2075190Y-19978571D02*
X2051380Y-20026190D01*
X2051380Y-20026190D02*
X2027571Y-20050000D01*
X2027571Y-20050000D02*
X1979952Y-20073809D01*
X1979952Y-20073809D02*
X1908523Y-20073809D01*
X1908523Y-20073809D02*
X1860904Y-20050000D01*
X1860904Y-20050000D02*
X1837095Y-20026190D01*
X1837095Y-20026190D02*
X1813285Y-19978571D01*
X1813285Y-19978571D02*
X1813285Y-19788095D01*
X1837095Y-20288095D02*
X1837095Y-20454762D01*
X1575190Y-20526190D02*
X1575190Y-20288095D01*
X1575190Y-20288095D02*
X2075190Y-20288095D01*
X2075190Y-20288095D02*
X2075190Y-20526190D01*
X1599000Y-20716667D02*
X1575190Y-20788095D01*
X1575190Y-20788095D02*
X1575190Y-20907143D01*
X1575190Y-20907143D02*
X1599000Y-20954762D01*
X1599000Y-20954762D02*
X1622809Y-20978571D01*
X1622809Y-20978571D02*
X1670428Y-21002381D01*
X1670428Y-21002381D02*
X1718047Y-21002381D01*
X1718047Y-21002381D02*
X1765666Y-20978571D01*
X1765666Y-20978571D02*
X1789476Y-20954762D01*
X1789476Y-20954762D02*
X1813285Y-20907143D01*
X1813285Y-20907143D02*
X1837095Y-20811905D01*
X1837095Y-20811905D02*
X1860904Y-20764286D01*
X1860904Y-20764286D02*
X1884714Y-20740476D01*
X1884714Y-20740476D02*
X1932333Y-20716667D01*
X1932333Y-20716667D02*
X1979952Y-20716667D01*
X1979952Y-20716667D02*
X2027571Y-20740476D01*
X2027571Y-20740476D02*
X2051380Y-20764286D01*
X2051380Y-20764286D02*
X2075190Y-20811905D01*
X2075190Y-20811905D02*
X2075190Y-20930952D01*
X2075190Y-20930952D02*
X2051380Y-21002381D01*
X1837095Y-21216666D02*
X1837095Y-21383333D01*
X1575190Y-21454761D02*
X1575190Y-21216666D01*
X1575190Y-21216666D02*
X2075190Y-21216666D01*
X2075190Y-21216666D02*
X2075190Y-21454761D01*
X2075190Y-21597619D02*
X2075190Y-21883333D01*
X1575190Y-21740476D02*
X2075190Y-21740476D01*
X32737095Y-6421428D02*
X32713285Y-6492856D01*
X32713285Y-6492856D02*
X32689476Y-6516666D01*
X32689476Y-6516666D02*
X32641857Y-6540475D01*
X32641857Y-6540475D02*
X32570428Y-6540475D01*
X32570428Y-6540475D02*
X32522809Y-6516666D01*
X32522809Y-6516666D02*
X32499000Y-6492856D01*
X32499000Y-6492856D02*
X32475190Y-6445237D01*
X32475190Y-6445237D02*
X32475190Y-6254761D01*
X32475190Y-6254761D02*
X32975190Y-6254761D01*
X32975190Y-6254761D02*
X32975190Y-6421428D01*
X32975190Y-6421428D02*
X32951380Y-6469047D01*
X32951380Y-6469047D02*
X32927571Y-6492856D01*
X32927571Y-6492856D02*
X32879952Y-6516666D01*
X32879952Y-6516666D02*
X32832333Y-6516666D01*
X32832333Y-6516666D02*
X32784714Y-6492856D01*
X32784714Y-6492856D02*
X32760904Y-6469047D01*
X32760904Y-6469047D02*
X32737095Y-6421428D01*
X32737095Y-6421428D02*
X32737095Y-6254761D01*
X32975190Y-6849999D02*
X32975190Y-6945237D01*
X32975190Y-6945237D02*
X32951380Y-6992856D01*
X32951380Y-6992856D02*
X32903761Y-7040475D01*
X32903761Y-7040475D02*
X32808523Y-7064285D01*
X32808523Y-7064285D02*
X32641857Y-7064285D01*
X32641857Y-7064285D02*
X32546619Y-7040475D01*
X32546619Y-7040475D02*
X32499000Y-6992856D01*
X32499000Y-6992856D02*
X32475190Y-6945237D01*
X32475190Y-6945237D02*
X32475190Y-6849999D01*
X32475190Y-6849999D02*
X32499000Y-6802380D01*
X32499000Y-6802380D02*
X32546619Y-6754761D01*
X32546619Y-6754761D02*
X32641857Y-6730952D01*
X32641857Y-6730952D02*
X32808523Y-6730952D01*
X32808523Y-6730952D02*
X32903761Y-6754761D01*
X32903761Y-6754761D02*
X32951380Y-6802380D01*
X32951380Y-6802380D02*
X32975190Y-6849999D01*
X32975190Y-7373809D02*
X32975190Y-7469047D01*
X32975190Y-7469047D02*
X32951380Y-7516666D01*
X32951380Y-7516666D02*
X32903761Y-7564285D01*
X32903761Y-7564285D02*
X32808523Y-7588095D01*
X32808523Y-7588095D02*
X32641857Y-7588095D01*
X32641857Y-7588095D02*
X32546619Y-7564285D01*
X32546619Y-7564285D02*
X32499000Y-7516666D01*
X32499000Y-7516666D02*
X32475190Y-7469047D01*
X32475190Y-7469047D02*
X32475190Y-7373809D01*
X32475190Y-7373809D02*
X32499000Y-7326190D01*
X32499000Y-7326190D02*
X32546619Y-7278571D01*
X32546619Y-7278571D02*
X32641857Y-7254762D01*
X32641857Y-7254762D02*
X32808523Y-7254762D01*
X32808523Y-7254762D02*
X32903761Y-7278571D01*
X32903761Y-7278571D02*
X32951380Y-7326190D01*
X32951380Y-7326190D02*
X32975190Y-7373809D01*
X32975190Y-7730953D02*
X32975190Y-8016667D01*
X32475190Y-7873810D02*
X32975190Y-7873810D01*
X20963188Y-32856119D02*
X20915569Y-32832309D01*
X20915569Y-32832309D02*
X20844140Y-32832309D01*
X20844140Y-32832309D02*
X20772712Y-32856119D01*
X20772712Y-32856119D02*
X20725093Y-32903738D01*
X20725093Y-32903738D02*
X20701283Y-32951357D01*
X20701283Y-32951357D02*
X20677474Y-33046595D01*
X20677474Y-33046595D02*
X20677474Y-33118023D01*
X20677474Y-33118023D02*
X20701283Y-33213261D01*
X20701283Y-33213261D02*
X20725093Y-33260880D01*
X20725093Y-33260880D02*
X20772712Y-33308500D01*
X20772712Y-33308500D02*
X20844140Y-33332309D01*
X20844140Y-33332309D02*
X20891759Y-33332309D01*
X20891759Y-33332309D02*
X20963188Y-33308500D01*
X20963188Y-33308500D02*
X20986997Y-33284690D01*
X20986997Y-33284690D02*
X20986997Y-33118023D01*
X20986997Y-33118023D02*
X20891759Y-33118023D01*
X21201283Y-33332309D02*
X21201283Y-32832309D01*
X21201283Y-32832309D02*
X21486997Y-33332309D01*
X21486997Y-33332309D02*
X21486997Y-32832309D01*
X21725093Y-33332309D02*
X21725093Y-32832309D01*
X21725093Y-32832309D02*
X21844141Y-32832309D01*
X21844141Y-32832309D02*
X21915569Y-32856119D01*
X21915569Y-32856119D02*
X21963188Y-32903738D01*
X21963188Y-32903738D02*
X21986998Y-32951357D01*
X21986998Y-32951357D02*
X22010807Y-33046595D01*
X22010807Y-33046595D02*
X22010807Y-33118023D01*
X22010807Y-33118023D02*
X21986998Y-33213261D01*
X21986998Y-33213261D02*
X21963188Y-33260880D01*
X21963188Y-33260880D02*
X21915569Y-33308500D01*
X21915569Y-33308500D02*
X21844141Y-33332309D01*
X21844141Y-33332309D02*
X21725093Y-33332309D01*
X10959523Y-4624809D02*
X10959523Y-4124809D01*
X10959523Y-4124809D02*
X11149999Y-4124809D01*
X11149999Y-4124809D02*
X11197618Y-4148619D01*
X11197618Y-4148619D02*
X11221428Y-4172428D01*
X11221428Y-4172428D02*
X11245237Y-4220047D01*
X11245237Y-4220047D02*
X11245237Y-4291476D01*
X11245237Y-4291476D02*
X11221428Y-4339095D01*
X11221428Y-4339095D02*
X11197618Y-4362904D01*
X11197618Y-4362904D02*
X11149999Y-4386714D01*
X11149999Y-4386714D02*
X10959523Y-4386714D01*
X11411904Y-4124809D02*
X11530952Y-4624809D01*
X11530952Y-4624809D02*
X11626190Y-4267666D01*
X11626190Y-4267666D02*
X11721428Y-4624809D01*
X11721428Y-4624809D02*
X11840476Y-4124809D01*
X12030952Y-4624809D02*
X12030952Y-4124809D01*
X12030952Y-4124809D02*
X12197619Y-4481952D01*
X12197619Y-4481952D02*
X12364285Y-4124809D01*
X12364285Y-4124809D02*
X12364285Y-4624809D01*
X12554762Y-4124809D02*
X12864286Y-4124809D01*
X12864286Y-4124809D02*
X12697619Y-4315285D01*
X12697619Y-4315285D02*
X12769048Y-4315285D01*
X12769048Y-4315285D02*
X12816667Y-4339095D01*
X12816667Y-4339095D02*
X12840476Y-4362904D01*
X12840476Y-4362904D02*
X12864286Y-4410523D01*
X12864286Y-4410523D02*
X12864286Y-4529571D01*
X12864286Y-4529571D02*
X12840476Y-4577190D01*
X12840476Y-4577190D02*
X12816667Y-4601000D01*
X12816667Y-4601000D02*
X12769048Y-4624809D01*
X12769048Y-4624809D02*
X12626191Y-4624809D01*
X12626191Y-4624809D02*
X12578572Y-4601000D01*
X12578572Y-4601000D02*
X12554762Y-4577190D01*
X3724809Y-11780952D02*
X4129571Y-11780952D01*
X4129571Y-11780952D02*
X4177190Y-11757142D01*
X4177190Y-11757142D02*
X4201000Y-11733333D01*
X4201000Y-11733333D02*
X4224809Y-11685714D01*
X4224809Y-11685714D02*
X4224809Y-11590476D01*
X4224809Y-11590476D02*
X4201000Y-11542857D01*
X4201000Y-11542857D02*
X4177190Y-11519047D01*
X4177190Y-11519047D02*
X4129571Y-11495238D01*
X4129571Y-11495238D02*
X3724809Y-11495238D01*
X3891476Y-11042856D02*
X4224809Y-11042856D01*
X3701000Y-11161904D02*
X4058142Y-11280951D01*
X4058142Y-11280951D02*
X4058142Y-10971428D01*
X17425093Y-33332309D02*
X17520331Y-33332309D01*
X17520331Y-33332309D02*
X17567950Y-33308500D01*
X17567950Y-33308500D02*
X17591759Y-33284690D01*
X17591759Y-33284690D02*
X17639378Y-33213261D01*
X17639378Y-33213261D02*
X17663188Y-33118023D01*
X17663188Y-33118023D02*
X17663188Y-32927547D01*
X17663188Y-32927547D02*
X17639378Y-32879928D01*
X17639378Y-32879928D02*
X17615569Y-32856119D01*
X17615569Y-32856119D02*
X17567950Y-32832309D01*
X17567950Y-32832309D02*
X17472712Y-32832309D01*
X17472712Y-32832309D02*
X17425093Y-32856119D01*
X17425093Y-32856119D02*
X17401283Y-32879928D01*
X17401283Y-32879928D02*
X17377474Y-32927547D01*
X17377474Y-32927547D02*
X17377474Y-33046595D01*
X17377474Y-33046595D02*
X17401283Y-33094214D01*
X17401283Y-33094214D02*
X17425093Y-33118023D01*
X17425093Y-33118023D02*
X17472712Y-33141833D01*
X17472712Y-33141833D02*
X17567950Y-33141833D01*
X17567950Y-33141833D02*
X17615569Y-33118023D01*
X17615569Y-33118023D02*
X17639378Y-33094214D01*
X17639378Y-33094214D02*
X17663188Y-33046595D01*
X17806045Y-32832309D02*
X17972711Y-33332309D01*
X17972711Y-33332309D02*
X18139378Y-32832309D01*
X18186997Y-33379928D02*
X18567949Y-33379928D01*
X18853663Y-33070404D02*
X18925091Y-33094214D01*
X18925091Y-33094214D02*
X18948901Y-33118023D01*
X18948901Y-33118023D02*
X18972710Y-33165642D01*
X18972710Y-33165642D02*
X18972710Y-33237071D01*
X18972710Y-33237071D02*
X18948901Y-33284690D01*
X18948901Y-33284690D02*
X18925091Y-33308500D01*
X18925091Y-33308500D02*
X18877472Y-33332309D01*
X18877472Y-33332309D02*
X18686996Y-33332309D01*
X18686996Y-33332309D02*
X18686996Y-32832309D01*
X18686996Y-32832309D02*
X18853663Y-32832309D01*
X18853663Y-32832309D02*
X18901282Y-32856119D01*
X18901282Y-32856119D02*
X18925091Y-32879928D01*
X18925091Y-32879928D02*
X18948901Y-32927547D01*
X18948901Y-32927547D02*
X18948901Y-32975166D01*
X18948901Y-32975166D02*
X18925091Y-33022785D01*
X18925091Y-33022785D02*
X18901282Y-33046595D01*
X18901282Y-33046595D02*
X18853663Y-33070404D01*
X18853663Y-33070404D02*
X18686996Y-33070404D01*
X19186996Y-33070404D02*
X19353663Y-33070404D01*
X19425091Y-33332309D02*
X19186996Y-33332309D01*
X19186996Y-33332309D02*
X19186996Y-32832309D01*
X19186996Y-32832309D02*
X19425091Y-32832309D01*
X19925091Y-33284690D02*
X19901282Y-33308500D01*
X19901282Y-33308500D02*
X19829853Y-33332309D01*
X19829853Y-33332309D02*
X19782234Y-33332309D01*
X19782234Y-33332309D02*
X19710806Y-33308500D01*
X19710806Y-33308500D02*
X19663187Y-33260880D01*
X19663187Y-33260880D02*
X19639377Y-33213261D01*
X19639377Y-33213261D02*
X19615568Y-33118023D01*
X19615568Y-33118023D02*
X19615568Y-33046595D01*
X19615568Y-33046595D02*
X19639377Y-32951357D01*
X19639377Y-32951357D02*
X19663187Y-32903738D01*
X19663187Y-32903738D02*
X19710806Y-32856119D01*
X19710806Y-32856119D02*
X19782234Y-32832309D01*
X19782234Y-32832309D02*
X19829853Y-32832309D01*
X19829853Y-32832309D02*
X19901282Y-32856119D01*
X19901282Y-32856119D02*
X19925091Y-32879928D01*
X24801000Y-26959523D02*
X24824809Y-26888095D01*
X24824809Y-26888095D02*
X24824809Y-26769047D01*
X24824809Y-26769047D02*
X24801000Y-26721428D01*
X24801000Y-26721428D02*
X24777190Y-26697619D01*
X24777190Y-26697619D02*
X24729571Y-26673809D01*
X24729571Y-26673809D02*
X24681952Y-26673809D01*
X24681952Y-26673809D02*
X24634333Y-26697619D01*
X24634333Y-26697619D02*
X24610523Y-26721428D01*
X24610523Y-26721428D02*
X24586714Y-26769047D01*
X24586714Y-26769047D02*
X24562904Y-26864285D01*
X24562904Y-26864285D02*
X24539095Y-26911904D01*
X24539095Y-26911904D02*
X24515285Y-26935714D01*
X24515285Y-26935714D02*
X24467666Y-26959523D01*
X24467666Y-26959523D02*
X24420047Y-26959523D01*
X24420047Y-26959523D02*
X24372428Y-26935714D01*
X24372428Y-26935714D02*
X24348619Y-26911904D01*
X24348619Y-26911904D02*
X24324809Y-26864285D01*
X24324809Y-26864285D02*
X24324809Y-26745238D01*
X24324809Y-26745238D02*
X24348619Y-26673809D01*
X24324809Y-26507143D02*
X24824809Y-26388095D01*
X24824809Y-26388095D02*
X24467666Y-26292857D01*
X24467666Y-26292857D02*
X24824809Y-26197619D01*
X24824809Y-26197619D02*
X24324809Y-26078572D01*
X24824809Y-25888095D02*
X24324809Y-25888095D01*
X24324809Y-25888095D02*
X24324809Y-25769047D01*
X24324809Y-25769047D02*
X24348619Y-25697619D01*
X24348619Y-25697619D02*
X24396238Y-25650000D01*
X24396238Y-25650000D02*
X24443857Y-25626190D01*
X24443857Y-25626190D02*
X24539095Y-25602381D01*
X24539095Y-25602381D02*
X24610523Y-25602381D01*
X24610523Y-25602381D02*
X24705761Y-25626190D01*
X24705761Y-25626190D02*
X24753380Y-25650000D01*
X24753380Y-25650000D02*
X24801000Y-25697619D01*
X24801000Y-25697619D02*
X24824809Y-25769047D01*
X24824809Y-25769047D02*
X24824809Y-25888095D01*
X24824809Y-25388095D02*
X24324809Y-25388095D01*
X24324809Y-25054762D02*
X24324809Y-24959524D01*
X24324809Y-24959524D02*
X24348619Y-24911905D01*
X24348619Y-24911905D02*
X24396238Y-24864286D01*
X24396238Y-24864286D02*
X24491476Y-24840476D01*
X24491476Y-24840476D02*
X24658142Y-24840476D01*
X24658142Y-24840476D02*
X24753380Y-24864286D01*
X24753380Y-24864286D02*
X24801000Y-24911905D01*
X24801000Y-24911905D02*
X24824809Y-24959524D01*
X24824809Y-24959524D02*
X24824809Y-25054762D01*
X24824809Y-25054762D02*
X24801000Y-25102381D01*
X24801000Y-25102381D02*
X24753380Y-25150000D01*
X24753380Y-25150000D02*
X24658142Y-25173809D01*
X24658142Y-25173809D02*
X24491476Y-25173809D01*
X24491476Y-25173809D02*
X24396238Y-25150000D01*
X24396238Y-25150000D02*
X24348619Y-25102381D01*
X24348619Y-25102381D02*
X24324809Y-25054762D01*
X24578571Y-10224809D02*
X24411905Y-9986714D01*
X24292857Y-10224809D02*
X24292857Y-9724809D01*
X24292857Y-9724809D02*
X24483333Y-9724809D01*
X24483333Y-9724809D02*
X24530952Y-9748619D01*
X24530952Y-9748619D02*
X24554762Y-9772428D01*
X24554762Y-9772428D02*
X24578571Y-9820047D01*
X24578571Y-9820047D02*
X24578571Y-9891476D01*
X24578571Y-9891476D02*
X24554762Y-9939095D01*
X24554762Y-9939095D02*
X24530952Y-9962904D01*
X24530952Y-9962904D02*
X24483333Y-9986714D01*
X24483333Y-9986714D02*
X24292857Y-9986714D01*
X25054762Y-10224809D02*
X24769048Y-10224809D01*
X24911905Y-10224809D02*
X24911905Y-9724809D01*
X24911905Y-9724809D02*
X24864286Y-9796238D01*
X24864286Y-9796238D02*
X24816667Y-9843857D01*
X24816667Y-9843857D02*
X24769048Y-9867666D01*
X25245238Y-9772428D02*
X25269047Y-9748619D01*
X25269047Y-9748619D02*
X25316666Y-9724809D01*
X25316666Y-9724809D02*
X25435714Y-9724809D01*
X25435714Y-9724809D02*
X25483333Y-9748619D01*
X25483333Y-9748619D02*
X25507142Y-9772428D01*
X25507142Y-9772428D02*
X25530952Y-9820047D01*
X25530952Y-9820047D02*
X25530952Y-9867666D01*
X25530952Y-9867666D02*
X25507142Y-9939095D01*
X25507142Y-9939095D02*
X25221428Y-10224809D01*
X25221428Y-10224809D02*
X25530952Y-10224809D01*
X24711905Y-11524809D02*
X24711905Y-11024809D01*
X25235714Y-11477190D02*
X25211905Y-11501000D01*
X25211905Y-11501000D02*
X25140476Y-11524809D01*
X25140476Y-11524809D02*
X25092857Y-11524809D01*
X25092857Y-11524809D02*
X25021429Y-11501000D01*
X25021429Y-11501000D02*
X24973810Y-11453380D01*
X24973810Y-11453380D02*
X24950000Y-11405761D01*
X24950000Y-11405761D02*
X24926191Y-11310523D01*
X24926191Y-11310523D02*
X24926191Y-11239095D01*
X24926191Y-11239095D02*
X24950000Y-11143857D01*
X24950000Y-11143857D02*
X24973810Y-11096238D01*
X24973810Y-11096238D02*
X25021429Y-11048619D01*
X25021429Y-11048619D02*
X25092857Y-11024809D01*
X25092857Y-11024809D02*
X25140476Y-11024809D01*
X25140476Y-11024809D02*
X25211905Y-11048619D01*
X25211905Y-11048619D02*
X25235714Y-11072428D01*
X25426191Y-11072428D02*
X25450000Y-11048619D01*
X25450000Y-11048619D02*
X25497619Y-11024809D01*
X25497619Y-11024809D02*
X25616667Y-11024809D01*
X25616667Y-11024809D02*
X25664286Y-11048619D01*
X25664286Y-11048619D02*
X25688095Y-11072428D01*
X25688095Y-11072428D02*
X25711905Y-11120047D01*
X25711905Y-11120047D02*
X25711905Y-11167666D01*
X25711905Y-11167666D02*
X25688095Y-11239095D01*
X25688095Y-11239095D02*
X25402381Y-11524809D01*
X25402381Y-11524809D02*
X25711905Y-11524809D01*
X12586997Y-33332309D02*
X12420331Y-33094214D01*
X12301283Y-33332309D02*
X12301283Y-32832309D01*
X12301283Y-32832309D02*
X12491759Y-32832309D01*
X12491759Y-32832309D02*
X12539378Y-32856119D01*
X12539378Y-32856119D02*
X12563188Y-32879928D01*
X12563188Y-32879928D02*
X12586997Y-32927547D01*
X12586997Y-32927547D02*
X12586997Y-32998976D01*
X12586997Y-32998976D02*
X12563188Y-33046595D01*
X12563188Y-33046595D02*
X12539378Y-33070404D01*
X12539378Y-33070404D02*
X12491759Y-33094214D01*
X12491759Y-33094214D02*
X12301283Y-33094214D01*
X12753664Y-32832309D02*
X13086997Y-33332309D01*
X13086997Y-32832309D02*
X12753664Y-33332309D01*
X13491759Y-32998976D02*
X13491759Y-33332309D01*
X13372711Y-32808500D02*
X13253664Y-33165642D01*
X13253664Y-33165642D02*
X13563187Y-33165642D01*
X17624809Y-5166666D02*
X17981952Y-5166666D01*
X17981952Y-5166666D02*
X18053380Y-5190475D01*
X18053380Y-5190475D02*
X18101000Y-5238094D01*
X18101000Y-5238094D02*
X18124809Y-5309523D01*
X18124809Y-5309523D02*
X18124809Y-5357142D01*
X17672428Y-4952380D02*
X17648619Y-4928571D01*
X17648619Y-4928571D02*
X17624809Y-4880952D01*
X17624809Y-4880952D02*
X17624809Y-4761904D01*
X17624809Y-4761904D02*
X17648619Y-4714285D01*
X17648619Y-4714285D02*
X17672428Y-4690476D01*
X17672428Y-4690476D02*
X17720047Y-4666666D01*
X17720047Y-4666666D02*
X17767666Y-4666666D01*
X17767666Y-4666666D02*
X17839095Y-4690476D01*
X17839095Y-4690476D02*
X18124809Y-4976190D01*
X18124809Y-4976190D02*
X18124809Y-4666666D01*
X15029855Y-32832309D02*
X15315569Y-32832309D01*
X15172712Y-33332309D02*
X15172712Y-32832309D01*
X15434616Y-32832309D02*
X15767949Y-33332309D01*
X15767949Y-32832309D02*
X15434616Y-33332309D01*
X16172711Y-32998976D02*
X16172711Y-33332309D01*
X16053663Y-32808500D02*
X15934616Y-33165642D01*
X15934616Y-33165642D02*
X16244139Y-33165642D01*
X10859523Y-6724809D02*
X10859523Y-6224809D01*
X10859523Y-6224809D02*
X11049999Y-6224809D01*
X11049999Y-6224809D02*
X11097618Y-6248619D01*
X11097618Y-6248619D02*
X11121428Y-6272428D01*
X11121428Y-6272428D02*
X11145237Y-6320047D01*
X11145237Y-6320047D02*
X11145237Y-6391476D01*
X11145237Y-6391476D02*
X11121428Y-6439095D01*
X11121428Y-6439095D02*
X11097618Y-6462904D01*
X11097618Y-6462904D02*
X11049999Y-6486714D01*
X11049999Y-6486714D02*
X10859523Y-6486714D01*
X11311904Y-6224809D02*
X11430952Y-6724809D01*
X11430952Y-6724809D02*
X11526190Y-6367666D01*
X11526190Y-6367666D02*
X11621428Y-6724809D01*
X11621428Y-6724809D02*
X11740476Y-6224809D01*
X11930952Y-6724809D02*
X11930952Y-6224809D01*
X11930952Y-6224809D02*
X12097619Y-6581952D01*
X12097619Y-6581952D02*
X12264285Y-6224809D01*
X12264285Y-6224809D02*
X12264285Y-6724809D01*
X12716667Y-6391476D02*
X12716667Y-6724809D01*
X12597619Y-6201000D02*
X12478572Y-6558142D01*
X12478572Y-6558142D02*
X12788095Y-6558142D01*
X26075190Y-27580952D02*
X25670428Y-27580952D01*
X25670428Y-27580952D02*
X25622809Y-27604762D01*
X25622809Y-27604762D02*
X25599000Y-27628571D01*
X25599000Y-27628571D02*
X25575190Y-27676190D01*
X25575190Y-27676190D02*
X25575190Y-27771428D01*
X25575190Y-27771428D02*
X25599000Y-27819047D01*
X25599000Y-27819047D02*
X25622809Y-27842857D01*
X25622809Y-27842857D02*
X25670428Y-27866666D01*
X25670428Y-27866666D02*
X26075190Y-27866666D01*
X25575190Y-28366667D02*
X25575190Y-28080953D01*
X25575190Y-28223810D02*
X26075190Y-28223810D01*
X26075190Y-28223810D02*
X26003761Y-28176191D01*
X26003761Y-28176191D02*
X25956142Y-28128572D01*
X25956142Y-28128572D02*
X25932333Y-28080953D01*
X25575190Y-28842857D02*
X25575190Y-28557143D01*
X25575190Y-28700000D02*
X26075190Y-28700000D01*
X26075190Y-28700000D02*
X26003761Y-28652381D01*
X26003761Y-28652381D02*
X25956142Y-28604762D01*
X25956142Y-28604762D02*
X25932333Y-28557143D01*
X8124809Y-17380952D02*
X8529571Y-17380952D01*
X8529571Y-17380952D02*
X8577190Y-17357142D01*
X8577190Y-17357142D02*
X8601000Y-17333333D01*
X8601000Y-17333333D02*
X8624809Y-17285714D01*
X8624809Y-17285714D02*
X8624809Y-17190476D01*
X8624809Y-17190476D02*
X8601000Y-17142857D01*
X8601000Y-17142857D02*
X8577190Y-17119047D01*
X8577190Y-17119047D02*
X8529571Y-17095238D01*
X8529571Y-17095238D02*
X8124809Y-17095238D01*
X8124809Y-16904761D02*
X8124809Y-16595237D01*
X8124809Y-16595237D02*
X8315285Y-16761904D01*
X8315285Y-16761904D02*
X8315285Y-16690475D01*
X8315285Y-16690475D02*
X8339095Y-16642856D01*
X8339095Y-16642856D02*
X8362904Y-16619047D01*
X8362904Y-16619047D02*
X8410523Y-16595237D01*
X8410523Y-16595237D02*
X8529571Y-16595237D01*
X8529571Y-16595237D02*
X8577190Y-16619047D01*
X8577190Y-16619047D02*
X8601000Y-16642856D01*
X8601000Y-16642856D02*
X8624809Y-16690475D01*
X8624809Y-16690475D02*
X8624809Y-16833332D01*
X8624809Y-16833332D02*
X8601000Y-16880951D01*
X8601000Y-16880951D02*
X8577190Y-16904761D01*
X14075190Y-25019047D02*
X13670428Y-25019047D01*
X13670428Y-25019047D02*
X13622809Y-25042857D01*
X13622809Y-25042857D02*
X13599000Y-25066666D01*
X13599000Y-25066666D02*
X13575190Y-25114285D01*
X13575190Y-25114285D02*
X13575190Y-25209523D01*
X13575190Y-25209523D02*
X13599000Y-25257142D01*
X13599000Y-25257142D02*
X13622809Y-25280952D01*
X13622809Y-25280952D02*
X13670428Y-25304761D01*
X13670428Y-25304761D02*
X14075190Y-25304761D01*
X14027571Y-25519048D02*
X14051380Y-25542857D01*
X14051380Y-25542857D02*
X14075190Y-25590476D01*
X14075190Y-25590476D02*
X14075190Y-25709524D01*
X14075190Y-25709524D02*
X14051380Y-25757143D01*
X14051380Y-25757143D02*
X14027571Y-25780952D01*
X14027571Y-25780952D02*
X13979952Y-25804762D01*
X13979952Y-25804762D02*
X13932333Y-25804762D01*
X13932333Y-25804762D02*
X13860904Y-25780952D01*
X13860904Y-25780952D02*
X13575190Y-25495238D01*
X13575190Y-25495238D02*
X13575190Y-25804762D01*
X13201283Y-30932309D02*
X13201283Y-30432309D01*
X13415569Y-30479928D02*
X13439378Y-30456119D01*
X13439378Y-30456119D02*
X13486997Y-30432309D01*
X13486997Y-30432309D02*
X13606045Y-30432309D01*
X13606045Y-30432309D02*
X13653664Y-30456119D01*
X13653664Y-30456119D02*
X13677473Y-30479928D01*
X13677473Y-30479928D02*
X13701283Y-30527547D01*
X13701283Y-30527547D02*
X13701283Y-30575166D01*
X13701283Y-30575166D02*
X13677473Y-30646595D01*
X13677473Y-30646595D02*
X13391759Y-30932309D01*
X13391759Y-30932309D02*
X13701283Y-30932309D01*
X14201282Y-30884690D02*
X14177473Y-30908500D01*
X14177473Y-30908500D02*
X14106044Y-30932309D01*
X14106044Y-30932309D02*
X14058425Y-30932309D01*
X14058425Y-30932309D02*
X13986997Y-30908500D01*
X13986997Y-30908500D02*
X13939378Y-30860880D01*
X13939378Y-30860880D02*
X13915568Y-30813261D01*
X13915568Y-30813261D02*
X13891759Y-30718023D01*
X13891759Y-30718023D02*
X13891759Y-30646595D01*
X13891759Y-30646595D02*
X13915568Y-30551357D01*
X13915568Y-30551357D02*
X13939378Y-30503738D01*
X13939378Y-30503738D02*
X13986997Y-30456119D01*
X13986997Y-30456119D02*
X14058425Y-30432309D01*
X14058425Y-30432309D02*
X14106044Y-30432309D01*
X14106044Y-30432309D02*
X14177473Y-30456119D01*
X14177473Y-30456119D02*
X14201282Y-30479928D01*
X14677473Y-30932309D02*
X14391759Y-30932309D01*
X14534616Y-30932309D02*
X14534616Y-30432309D01*
X14534616Y-30432309D02*
X14486997Y-30503738D01*
X14486997Y-30503738D02*
X14439378Y-30551357D01*
X14439378Y-30551357D02*
X14391759Y-30575166D01*
X14772711Y-30979928D02*
X15153663Y-30979928D01*
X15248901Y-30908500D02*
X15320329Y-30932309D01*
X15320329Y-30932309D02*
X15439377Y-30932309D01*
X15439377Y-30932309D02*
X15486996Y-30908500D01*
X15486996Y-30908500D02*
X15510805Y-30884690D01*
X15510805Y-30884690D02*
X15534615Y-30837071D01*
X15534615Y-30837071D02*
X15534615Y-30789452D01*
X15534615Y-30789452D02*
X15510805Y-30741833D01*
X15510805Y-30741833D02*
X15486996Y-30718023D01*
X15486996Y-30718023D02*
X15439377Y-30694214D01*
X15439377Y-30694214D02*
X15344139Y-30670404D01*
X15344139Y-30670404D02*
X15296520Y-30646595D01*
X15296520Y-30646595D02*
X15272710Y-30622785D01*
X15272710Y-30622785D02*
X15248901Y-30575166D01*
X15248901Y-30575166D02*
X15248901Y-30527547D01*
X15248901Y-30527547D02*
X15272710Y-30479928D01*
X15272710Y-30479928D02*
X15296520Y-30456119D01*
X15296520Y-30456119D02*
X15344139Y-30432309D01*
X15344139Y-30432309D02*
X15463186Y-30432309D01*
X15463186Y-30432309D02*
X15534615Y-30456119D01*
X15748900Y-30932309D02*
X15748900Y-30432309D01*
X15748900Y-30432309D02*
X15867948Y-30432309D01*
X15867948Y-30432309D02*
X15939376Y-30456119D01*
X15939376Y-30456119D02*
X15986995Y-30503738D01*
X15986995Y-30503738D02*
X16010805Y-30551357D01*
X16010805Y-30551357D02*
X16034614Y-30646595D01*
X16034614Y-30646595D02*
X16034614Y-30718023D01*
X16034614Y-30718023D02*
X16010805Y-30813261D01*
X16010805Y-30813261D02*
X15986995Y-30860880D01*
X15986995Y-30860880D02*
X15939376Y-30908500D01*
X15939376Y-30908500D02*
X15867948Y-30932309D01*
X15867948Y-30932309D02*
X15748900Y-30932309D01*
X16225091Y-30789452D02*
X16463186Y-30789452D01*
X16177472Y-30932309D02*
X16344138Y-30432309D01*
X16344138Y-30432309D02*
X16510805Y-30932309D01*
X20863188Y-28056119D02*
X20815569Y-28032309D01*
X20815569Y-28032309D02*
X20744140Y-28032309D01*
X20744140Y-28032309D02*
X20672712Y-28056119D01*
X20672712Y-28056119D02*
X20625093Y-28103738D01*
X20625093Y-28103738D02*
X20601283Y-28151357D01*
X20601283Y-28151357D02*
X20577474Y-28246595D01*
X20577474Y-28246595D02*
X20577474Y-28318023D01*
X20577474Y-28318023D02*
X20601283Y-28413261D01*
X20601283Y-28413261D02*
X20625093Y-28460880D01*
X20625093Y-28460880D02*
X20672712Y-28508500D01*
X20672712Y-28508500D02*
X20744140Y-28532309D01*
X20744140Y-28532309D02*
X20791759Y-28532309D01*
X20791759Y-28532309D02*
X20863188Y-28508500D01*
X20863188Y-28508500D02*
X20886997Y-28484690D01*
X20886997Y-28484690D02*
X20886997Y-28318023D01*
X20886997Y-28318023D02*
X20791759Y-28318023D01*
X21101283Y-28532309D02*
X21101283Y-28032309D01*
X21101283Y-28032309D02*
X21386997Y-28532309D01*
X21386997Y-28532309D02*
X21386997Y-28032309D01*
X21625093Y-28532309D02*
X21625093Y-28032309D01*
X21625093Y-28032309D02*
X21744141Y-28032309D01*
X21744141Y-28032309D02*
X21815569Y-28056119D01*
X21815569Y-28056119D02*
X21863188Y-28103738D01*
X21863188Y-28103738D02*
X21886998Y-28151357D01*
X21886998Y-28151357D02*
X21910807Y-28246595D01*
X21910807Y-28246595D02*
X21910807Y-28318023D01*
X21910807Y-28318023D02*
X21886998Y-28413261D01*
X21886998Y-28413261D02*
X21863188Y-28460880D01*
X21863188Y-28460880D02*
X21815569Y-28508500D01*
X21815569Y-28508500D02*
X21744141Y-28532309D01*
X21744141Y-28532309D02*
X21625093Y-28532309D01*
X8924809Y-12919047D02*
X9329571Y-12919047D01*
X9329571Y-12919047D02*
X9377190Y-12895237D01*
X9377190Y-12895237D02*
X9401000Y-12871428D01*
X9401000Y-12871428D02*
X9424809Y-12823809D01*
X9424809Y-12823809D02*
X9424809Y-12728571D01*
X9424809Y-12728571D02*
X9401000Y-12680952D01*
X9401000Y-12680952D02*
X9377190Y-12657142D01*
X9377190Y-12657142D02*
X9329571Y-12633333D01*
X9329571Y-12633333D02*
X8924809Y-12633333D01*
X9424809Y-12133332D02*
X9424809Y-12419046D01*
X9424809Y-12276189D02*
X8924809Y-12276189D01*
X8924809Y-12276189D02*
X8996238Y-12323808D01*
X8996238Y-12323808D02*
X9043857Y-12371427D01*
X9043857Y-12371427D02*
X9067666Y-12419046D01*
X8924809Y-11823809D02*
X8924809Y-11776190D01*
X8924809Y-11776190D02*
X8948619Y-11728571D01*
X8948619Y-11728571D02*
X8972428Y-11704761D01*
X8972428Y-11704761D02*
X9020047Y-11680952D01*
X9020047Y-11680952D02*
X9115285Y-11657142D01*
X9115285Y-11657142D02*
X9234333Y-11657142D01*
X9234333Y-11657142D02*
X9329571Y-11680952D01*
X9329571Y-11680952D02*
X9377190Y-11704761D01*
X9377190Y-11704761D02*
X9401000Y-11728571D01*
X9401000Y-11728571D02*
X9424809Y-11776190D01*
X9424809Y-11776190D02*
X9424809Y-11823809D01*
X9424809Y-11823809D02*
X9401000Y-11871428D01*
X9401000Y-11871428D02*
X9377190Y-11895237D01*
X9377190Y-11895237D02*
X9329571Y-11919047D01*
X9329571Y-11919047D02*
X9234333Y-11942856D01*
X9234333Y-11942856D02*
X9115285Y-11942856D01*
X9115285Y-11942856D02*
X9020047Y-11919047D01*
X9020047Y-11919047D02*
X8972428Y-11895237D01*
X8972428Y-11895237D02*
X8948619Y-11871428D01*
X8948619Y-11871428D02*
X8924809Y-11823809D01*
X10036811Y-2543880D02*
X10084430Y-2567690D01*
X10084430Y-2567690D02*
X10155859Y-2567690D01*
X10155859Y-2567690D02*
X10227287Y-2543880D01*
X10227287Y-2543880D02*
X10274906Y-2496261D01*
X10274906Y-2496261D02*
X10298716Y-2448642D01*
X10298716Y-2448642D02*
X10322525Y-2353404D01*
X10322525Y-2353404D02*
X10322525Y-2281976D01*
X10322525Y-2281976D02*
X10298716Y-2186738D01*
X10298716Y-2186738D02*
X10274906Y-2139119D01*
X10274906Y-2139119D02*
X10227287Y-2091500D01*
X10227287Y-2091500D02*
X10155859Y-2067690D01*
X10155859Y-2067690D02*
X10108240Y-2067690D01*
X10108240Y-2067690D02*
X10036811Y-2091500D01*
X10036811Y-2091500D02*
X10013002Y-2115309D01*
X10013002Y-2115309D02*
X10013002Y-2281976D01*
X10013002Y-2281976D02*
X10108240Y-2281976D01*
X9798716Y-2067690D02*
X9798716Y-2567690D01*
X9798716Y-2567690D02*
X9513002Y-2067690D01*
X9513002Y-2067690D02*
X9513002Y-2567690D01*
X9274906Y-2067690D02*
X9274906Y-2567690D01*
X9274906Y-2567690D02*
X9155858Y-2567690D01*
X9155858Y-2567690D02*
X9084430Y-2543880D01*
X9084430Y-2543880D02*
X9036811Y-2496261D01*
X9036811Y-2496261D02*
X9013001Y-2448642D01*
X9013001Y-2448642D02*
X8989192Y-2353404D01*
X8989192Y-2353404D02*
X8989192Y-2281976D01*
X8989192Y-2281976D02*
X9013001Y-2186738D01*
X9013001Y-2186738D02*
X9036811Y-2139119D01*
X9036811Y-2139119D02*
X9084430Y-2091500D01*
X9084430Y-2091500D02*
X9155858Y-2067690D01*
X9155858Y-2067690D02*
X9274906Y-2067690D01*
X17401283Y-30932309D02*
X17401283Y-30432309D01*
X17615569Y-30479928D02*
X17639378Y-30456119D01*
X17639378Y-30456119D02*
X17686997Y-30432309D01*
X17686997Y-30432309D02*
X17806045Y-30432309D01*
X17806045Y-30432309D02*
X17853664Y-30456119D01*
X17853664Y-30456119D02*
X17877473Y-30479928D01*
X17877473Y-30479928D02*
X17901283Y-30527547D01*
X17901283Y-30527547D02*
X17901283Y-30575166D01*
X17901283Y-30575166D02*
X17877473Y-30646595D01*
X17877473Y-30646595D02*
X17591759Y-30932309D01*
X17591759Y-30932309D02*
X17901283Y-30932309D01*
X18401282Y-30884690D02*
X18377473Y-30908500D01*
X18377473Y-30908500D02*
X18306044Y-30932309D01*
X18306044Y-30932309D02*
X18258425Y-30932309D01*
X18258425Y-30932309D02*
X18186997Y-30908500D01*
X18186997Y-30908500D02*
X18139378Y-30860880D01*
X18139378Y-30860880D02*
X18115568Y-30813261D01*
X18115568Y-30813261D02*
X18091759Y-30718023D01*
X18091759Y-30718023D02*
X18091759Y-30646595D01*
X18091759Y-30646595D02*
X18115568Y-30551357D01*
X18115568Y-30551357D02*
X18139378Y-30503738D01*
X18139378Y-30503738D02*
X18186997Y-30456119D01*
X18186997Y-30456119D02*
X18258425Y-30432309D01*
X18258425Y-30432309D02*
X18306044Y-30432309D01*
X18306044Y-30432309D02*
X18377473Y-30456119D01*
X18377473Y-30456119D02*
X18401282Y-30479928D01*
X18877473Y-30932309D02*
X18591759Y-30932309D01*
X18734616Y-30932309D02*
X18734616Y-30432309D01*
X18734616Y-30432309D02*
X18686997Y-30503738D01*
X18686997Y-30503738D02*
X18639378Y-30551357D01*
X18639378Y-30551357D02*
X18591759Y-30575166D01*
X18972711Y-30979928D02*
X19353663Y-30979928D01*
X19448901Y-30908500D02*
X19520329Y-30932309D01*
X19520329Y-30932309D02*
X19639377Y-30932309D01*
X19639377Y-30932309D02*
X19686996Y-30908500D01*
X19686996Y-30908500D02*
X19710805Y-30884690D01*
X19710805Y-30884690D02*
X19734615Y-30837071D01*
X19734615Y-30837071D02*
X19734615Y-30789452D01*
X19734615Y-30789452D02*
X19710805Y-30741833D01*
X19710805Y-30741833D02*
X19686996Y-30718023D01*
X19686996Y-30718023D02*
X19639377Y-30694214D01*
X19639377Y-30694214D02*
X19544139Y-30670404D01*
X19544139Y-30670404D02*
X19496520Y-30646595D01*
X19496520Y-30646595D02*
X19472710Y-30622785D01*
X19472710Y-30622785D02*
X19448901Y-30575166D01*
X19448901Y-30575166D02*
X19448901Y-30527547D01*
X19448901Y-30527547D02*
X19472710Y-30479928D01*
X19472710Y-30479928D02*
X19496520Y-30456119D01*
X19496520Y-30456119D02*
X19544139Y-30432309D01*
X19544139Y-30432309D02*
X19663186Y-30432309D01*
X19663186Y-30432309D02*
X19734615Y-30456119D01*
X20234614Y-30884690D02*
X20210805Y-30908500D01*
X20210805Y-30908500D02*
X20139376Y-30932309D01*
X20139376Y-30932309D02*
X20091757Y-30932309D01*
X20091757Y-30932309D02*
X20020329Y-30908500D01*
X20020329Y-30908500D02*
X19972710Y-30860880D01*
X19972710Y-30860880D02*
X19948900Y-30813261D01*
X19948900Y-30813261D02*
X19925091Y-30718023D01*
X19925091Y-30718023D02*
X19925091Y-30646595D01*
X19925091Y-30646595D02*
X19948900Y-30551357D01*
X19948900Y-30551357D02*
X19972710Y-30503738D01*
X19972710Y-30503738D02*
X20020329Y-30456119D01*
X20020329Y-30456119D02*
X20091757Y-30432309D01*
X20091757Y-30432309D02*
X20139376Y-30432309D01*
X20139376Y-30432309D02*
X20210805Y-30456119D01*
X20210805Y-30456119D02*
X20234614Y-30479928D01*
X20686995Y-30932309D02*
X20448900Y-30932309D01*
X20448900Y-30932309D02*
X20448900Y-30432309D01*
X7824809Y-15211904D02*
X7824809Y-15449999D01*
X7824809Y-15449999D02*
X8062904Y-15473808D01*
X8062904Y-15473808D02*
X8039095Y-15449999D01*
X8039095Y-15449999D02*
X8015285Y-15402380D01*
X8015285Y-15402380D02*
X8015285Y-15283332D01*
X8015285Y-15283332D02*
X8039095Y-15235713D01*
X8039095Y-15235713D02*
X8062904Y-15211904D01*
X8062904Y-15211904D02*
X8110523Y-15188094D01*
X8110523Y-15188094D02*
X8229571Y-15188094D01*
X8229571Y-15188094D02*
X8277190Y-15211904D01*
X8277190Y-15211904D02*
X8301000Y-15235713D01*
X8301000Y-15235713D02*
X8324809Y-15283332D01*
X8324809Y-15283332D02*
X8324809Y-15402380D01*
X8324809Y-15402380D02*
X8301000Y-15449999D01*
X8301000Y-15449999D02*
X8277190Y-15473808D01*
X7824809Y-15045237D02*
X8324809Y-14878571D01*
X8324809Y-14878571D02*
X7824809Y-14711904D01*
X8372428Y-14664286D02*
X8372428Y-14283333D01*
X8062904Y-13997619D02*
X8086714Y-13926191D01*
X8086714Y-13926191D02*
X8110523Y-13902381D01*
X8110523Y-13902381D02*
X8158142Y-13878572D01*
X8158142Y-13878572D02*
X8229571Y-13878572D01*
X8229571Y-13878572D02*
X8277190Y-13902381D01*
X8277190Y-13902381D02*
X8301000Y-13926191D01*
X8301000Y-13926191D02*
X8324809Y-13973810D01*
X8324809Y-13973810D02*
X8324809Y-14164286D01*
X8324809Y-14164286D02*
X7824809Y-14164286D01*
X7824809Y-14164286D02*
X7824809Y-13997619D01*
X7824809Y-13997619D02*
X7848619Y-13950000D01*
X7848619Y-13950000D02*
X7872428Y-13926191D01*
X7872428Y-13926191D02*
X7920047Y-13902381D01*
X7920047Y-13902381D02*
X7967666Y-13902381D01*
X7967666Y-13902381D02*
X8015285Y-13926191D01*
X8015285Y-13926191D02*
X8039095Y-13950000D01*
X8039095Y-13950000D02*
X8062904Y-13997619D01*
X8062904Y-13997619D02*
X8062904Y-14164286D01*
X8062904Y-13664286D02*
X8062904Y-13497619D01*
X8324809Y-13426191D02*
X8324809Y-13664286D01*
X8324809Y-13664286D02*
X7824809Y-13664286D01*
X7824809Y-13664286D02*
X7824809Y-13426191D01*
X8277190Y-12926191D02*
X8301000Y-12950000D01*
X8301000Y-12950000D02*
X8324809Y-13021429D01*
X8324809Y-13021429D02*
X8324809Y-13069048D01*
X8324809Y-13069048D02*
X8301000Y-13140476D01*
X8301000Y-13140476D02*
X8253380Y-13188095D01*
X8253380Y-13188095D02*
X8205761Y-13211905D01*
X8205761Y-13211905D02*
X8110523Y-13235714D01*
X8110523Y-13235714D02*
X8039095Y-13235714D01*
X8039095Y-13235714D02*
X7943857Y-13211905D01*
X7943857Y-13211905D02*
X7896238Y-13188095D01*
X7896238Y-13188095D02*
X7848619Y-13140476D01*
X7848619Y-13140476D02*
X7824809Y-13069048D01*
X7824809Y-13069048D02*
X7824809Y-13021429D01*
X7824809Y-13021429D02*
X7848619Y-12950000D01*
X7848619Y-12950000D02*
X7872428Y-12926191D01*
X3267950Y-24070404D02*
X3339378Y-24094214D01*
X3339378Y-24094214D02*
X3363188Y-24118023D01*
X3363188Y-24118023D02*
X3386997Y-24165642D01*
X3386997Y-24165642D02*
X3386997Y-24237071D01*
X3386997Y-24237071D02*
X3363188Y-24284690D01*
X3363188Y-24284690D02*
X3339378Y-24308500D01*
X3339378Y-24308500D02*
X3291759Y-24332309D01*
X3291759Y-24332309D02*
X3101283Y-24332309D01*
X3101283Y-24332309D02*
X3101283Y-23832309D01*
X3101283Y-23832309D02*
X3267950Y-23832309D01*
X3267950Y-23832309D02*
X3315569Y-23856119D01*
X3315569Y-23856119D02*
X3339378Y-23879928D01*
X3339378Y-23879928D02*
X3363188Y-23927547D01*
X3363188Y-23927547D02*
X3363188Y-23975166D01*
X3363188Y-23975166D02*
X3339378Y-24022785D01*
X3339378Y-24022785D02*
X3315569Y-24046595D01*
X3315569Y-24046595D02*
X3267950Y-24070404D01*
X3267950Y-24070404D02*
X3101283Y-24070404D01*
X3553664Y-23832309D02*
X3886997Y-23832309D01*
X3886997Y-23832309D02*
X3553664Y-24332309D01*
X3553664Y-24332309D02*
X3886997Y-24332309D01*
X7598716Y-2258166D02*
X7217764Y-2258166D01*
X7408240Y-2067690D02*
X7408240Y-2448642D01*
X6741573Y-2567690D02*
X6979668Y-2567690D01*
X6979668Y-2567690D02*
X7003477Y-2329595D01*
X7003477Y-2329595D02*
X6979668Y-2353404D01*
X6979668Y-2353404D02*
X6932049Y-2377214D01*
X6932049Y-2377214D02*
X6813001Y-2377214D01*
X6813001Y-2377214D02*
X6765382Y-2353404D01*
X6765382Y-2353404D02*
X6741573Y-2329595D01*
X6741573Y-2329595D02*
X6717763Y-2281976D01*
X6717763Y-2281976D02*
X6717763Y-2162928D01*
X6717763Y-2162928D02*
X6741573Y-2115309D01*
X6741573Y-2115309D02*
X6765382Y-2091500D01*
X6765382Y-2091500D02*
X6813001Y-2067690D01*
X6813001Y-2067690D02*
X6932049Y-2067690D01*
X6932049Y-2067690D02*
X6979668Y-2091500D01*
X6979668Y-2091500D02*
X7003477Y-2115309D01*
X6574906Y-2567690D02*
X6408240Y-2067690D01*
X6408240Y-2067690D02*
X6241573Y-2567690D01*
X16219047Y-15524809D02*
X16219047Y-15929571D01*
X16219047Y-15929571D02*
X16242857Y-15977190D01*
X16242857Y-15977190D02*
X16266666Y-16001000D01*
X16266666Y-16001000D02*
X16314285Y-16024809D01*
X16314285Y-16024809D02*
X16409523Y-16024809D01*
X16409523Y-16024809D02*
X16457142Y-16001000D01*
X16457142Y-16001000D02*
X16480952Y-15977190D01*
X16480952Y-15977190D02*
X16504761Y-15929571D01*
X16504761Y-15929571D02*
X16504761Y-15524809D01*
X17004762Y-16024809D02*
X16719048Y-16024809D01*
X16861905Y-16024809D02*
X16861905Y-15524809D01*
X16861905Y-15524809D02*
X16814286Y-15596238D01*
X16814286Y-15596238D02*
X16766667Y-15643857D01*
X16766667Y-15643857D02*
X16719048Y-15667666D01*
X3263188Y-27656119D02*
X3215569Y-27632309D01*
X3215569Y-27632309D02*
X3144140Y-27632309D01*
X3144140Y-27632309D02*
X3072712Y-27656119D01*
X3072712Y-27656119D02*
X3025093Y-27703738D01*
X3025093Y-27703738D02*
X3001283Y-27751357D01*
X3001283Y-27751357D02*
X2977474Y-27846595D01*
X2977474Y-27846595D02*
X2977474Y-27918023D01*
X2977474Y-27918023D02*
X3001283Y-28013261D01*
X3001283Y-28013261D02*
X3025093Y-28060880D01*
X3025093Y-28060880D02*
X3072712Y-28108500D01*
X3072712Y-28108500D02*
X3144140Y-28132309D01*
X3144140Y-28132309D02*
X3191759Y-28132309D01*
X3191759Y-28132309D02*
X3263188Y-28108500D01*
X3263188Y-28108500D02*
X3286997Y-28084690D01*
X3286997Y-28084690D02*
X3286997Y-27918023D01*
X3286997Y-27918023D02*
X3191759Y-27918023D01*
X3501283Y-28132309D02*
X3501283Y-27632309D01*
X3501283Y-27632309D02*
X3786997Y-28132309D01*
X3786997Y-28132309D02*
X3786997Y-27632309D01*
X4025093Y-28132309D02*
X4025093Y-27632309D01*
X4025093Y-27632309D02*
X4144141Y-27632309D01*
X4144141Y-27632309D02*
X4215569Y-27656119D01*
X4215569Y-27656119D02*
X4263188Y-27703738D01*
X4263188Y-27703738D02*
X4286998Y-27751357D01*
X4286998Y-27751357D02*
X4310807Y-27846595D01*
X4310807Y-27846595D02*
X4310807Y-27918023D01*
X4310807Y-27918023D02*
X4286998Y-28013261D01*
X4286998Y-28013261D02*
X4263188Y-28060880D01*
X4263188Y-28060880D02*
X4215569Y-28108500D01*
X4215569Y-28108500D02*
X4144141Y-28132309D01*
X4144141Y-28132309D02*
X4025093Y-28132309D01*
X24401000Y-20830951D02*
X24424809Y-20759523D01*
X24424809Y-20759523D02*
X24424809Y-20640475D01*
X24424809Y-20640475D02*
X24401000Y-20592856D01*
X24401000Y-20592856D02*
X24377190Y-20569047D01*
X24377190Y-20569047D02*
X24329571Y-20545237D01*
X24329571Y-20545237D02*
X24281952Y-20545237D01*
X24281952Y-20545237D02*
X24234333Y-20569047D01*
X24234333Y-20569047D02*
X24210523Y-20592856D01*
X24210523Y-20592856D02*
X24186714Y-20640475D01*
X24186714Y-20640475D02*
X24162904Y-20735713D01*
X24162904Y-20735713D02*
X24139095Y-20783332D01*
X24139095Y-20783332D02*
X24115285Y-20807142D01*
X24115285Y-20807142D02*
X24067666Y-20830951D01*
X24067666Y-20830951D02*
X24020047Y-20830951D01*
X24020047Y-20830951D02*
X23972428Y-20807142D01*
X23972428Y-20807142D02*
X23948619Y-20783332D01*
X23948619Y-20783332D02*
X23924809Y-20735713D01*
X23924809Y-20735713D02*
X23924809Y-20616666D01*
X23924809Y-20616666D02*
X23948619Y-20545237D01*
X23924809Y-20378571D02*
X24424809Y-20259523D01*
X24424809Y-20259523D02*
X24067666Y-20164285D01*
X24067666Y-20164285D02*
X24424809Y-20069047D01*
X24424809Y-20069047D02*
X23924809Y-19950000D01*
X24377190Y-19473809D02*
X24401000Y-19497618D01*
X24401000Y-19497618D02*
X24424809Y-19569047D01*
X24424809Y-19569047D02*
X24424809Y-19616666D01*
X24424809Y-19616666D02*
X24401000Y-19688094D01*
X24401000Y-19688094D02*
X24353380Y-19735713D01*
X24353380Y-19735713D02*
X24305761Y-19759523D01*
X24305761Y-19759523D02*
X24210523Y-19783332D01*
X24210523Y-19783332D02*
X24139095Y-19783332D01*
X24139095Y-19783332D02*
X24043857Y-19759523D01*
X24043857Y-19759523D02*
X23996238Y-19735713D01*
X23996238Y-19735713D02*
X23948619Y-19688094D01*
X23948619Y-19688094D02*
X23924809Y-19616666D01*
X23924809Y-19616666D02*
X23924809Y-19569047D01*
X23924809Y-19569047D02*
X23948619Y-19497618D01*
X23948619Y-19497618D02*
X23972428Y-19473809D01*
X24424809Y-19021428D02*
X24424809Y-19259523D01*
X24424809Y-19259523D02*
X23924809Y-19259523D01*
X24424809Y-18854761D02*
X23924809Y-18854761D01*
X24424809Y-18569047D02*
X24139095Y-18783332D01*
X23924809Y-18569047D02*
X24210523Y-18854761D01*
X21630953Y-26262904D02*
X21464286Y-26262904D01*
X21464286Y-26524809D02*
X21464286Y-26024809D01*
X21464286Y-26024809D02*
X21702381Y-26024809D01*
X22130952Y-26524809D02*
X21892857Y-26524809D01*
X21892857Y-26524809D02*
X21892857Y-26024809D01*
X22559524Y-26524809D02*
X22273810Y-26524809D01*
X22416667Y-26524809D02*
X22416667Y-26024809D01*
X22416667Y-26024809D02*
X22369048Y-26096238D01*
X22369048Y-26096238D02*
X22321429Y-26143857D01*
X22321429Y-26143857D02*
X22273810Y-26167666D01*
X9563188Y-32856119D02*
X9515569Y-32832309D01*
X9515569Y-32832309D02*
X9444140Y-32832309D01*
X9444140Y-32832309D02*
X9372712Y-32856119D01*
X9372712Y-32856119D02*
X9325093Y-32903738D01*
X9325093Y-32903738D02*
X9301283Y-32951357D01*
X9301283Y-32951357D02*
X9277474Y-33046595D01*
X9277474Y-33046595D02*
X9277474Y-33118023D01*
X9277474Y-33118023D02*
X9301283Y-33213261D01*
X9301283Y-33213261D02*
X9325093Y-33260880D01*
X9325093Y-33260880D02*
X9372712Y-33308500D01*
X9372712Y-33308500D02*
X9444140Y-33332309D01*
X9444140Y-33332309D02*
X9491759Y-33332309D01*
X9491759Y-33332309D02*
X9563188Y-33308500D01*
X9563188Y-33308500D02*
X9586997Y-33284690D01*
X9586997Y-33284690D02*
X9586997Y-33118023D01*
X9586997Y-33118023D02*
X9491759Y-33118023D01*
X9801283Y-33332309D02*
X9801283Y-32832309D01*
X9801283Y-32832309D02*
X10086997Y-33332309D01*
X10086997Y-33332309D02*
X10086997Y-32832309D01*
X10325093Y-33332309D02*
X10325093Y-32832309D01*
X10325093Y-32832309D02*
X10444141Y-32832309D01*
X10444141Y-32832309D02*
X10515569Y-32856119D01*
X10515569Y-32856119D02*
X10563188Y-32903738D01*
X10563188Y-32903738D02*
X10586998Y-32951357D01*
X10586998Y-32951357D02*
X10610807Y-33046595D01*
X10610807Y-33046595D02*
X10610807Y-33118023D01*
X10610807Y-33118023D02*
X10586998Y-33213261D01*
X10586998Y-33213261D02*
X10563188Y-33260880D01*
X10563188Y-33260880D02*
X10515569Y-33308500D01*
X10515569Y-33308500D02*
X10444141Y-33332309D01*
X10444141Y-33332309D02*
X10325093Y-33332309D01*
X25024809Y-18566666D02*
X25381952Y-18566666D01*
X25381952Y-18566666D02*
X25453380Y-18590475D01*
X25453380Y-18590475D02*
X25501000Y-18638094D01*
X25501000Y-18638094D02*
X25524809Y-18709523D01*
X25524809Y-18709523D02*
X25524809Y-18757142D01*
X25524809Y-18066666D02*
X25524809Y-18352380D01*
X25524809Y-18209523D02*
X25024809Y-18209523D01*
X25024809Y-18209523D02*
X25096238Y-18257142D01*
X25096238Y-18257142D02*
X25143857Y-18304761D01*
X25143857Y-18304761D02*
X25167666Y-18352380D01*
X15970144Y-2567690D02*
X15684430Y-2567690D01*
X15827287Y-2067690D02*
X15827287Y-2567690D01*
X15565383Y-2567690D02*
X15232050Y-2067690D01*
X15232050Y-2567690D02*
X15565383Y-2067690D01*
X15089193Y-2567690D02*
X14779669Y-2567690D01*
X14779669Y-2567690D02*
X14946336Y-2377214D01*
X14946336Y-2377214D02*
X14874907Y-2377214D01*
X14874907Y-2377214D02*
X14827288Y-2353404D01*
X14827288Y-2353404D02*
X14803479Y-2329595D01*
X14803479Y-2329595D02*
X14779669Y-2281976D01*
X14779669Y-2281976D02*
X14779669Y-2162928D01*
X14779669Y-2162928D02*
X14803479Y-2115309D01*
X14803479Y-2115309D02*
X14827288Y-2091500D01*
X14827288Y-2091500D02*
X14874907Y-2067690D01*
X14874907Y-2067690D02*
X15017764Y-2067690D01*
X15017764Y-2067690D02*
X15065383Y-2091500D01*
X15065383Y-2091500D02*
X15089193Y-2115309D01*
X2341833Y-17298716D02*
X2341833Y-16917764D01*
X2532309Y-17108240D02*
X2151357Y-17108240D01*
X2032309Y-16441573D02*
X2032309Y-16679668D01*
X2032309Y-16679668D02*
X2270404Y-16703477D01*
X2270404Y-16703477D02*
X2246595Y-16679668D01*
X2246595Y-16679668D02*
X2222785Y-16632049D01*
X2222785Y-16632049D02*
X2222785Y-16513001D01*
X2222785Y-16513001D02*
X2246595Y-16465382D01*
X2246595Y-16465382D02*
X2270404Y-16441573D01*
X2270404Y-16441573D02*
X2318023Y-16417763D01*
X2318023Y-16417763D02*
X2437071Y-16417763D01*
X2437071Y-16417763D02*
X2484690Y-16441573D01*
X2484690Y-16441573D02*
X2508500Y-16465382D01*
X2508500Y-16465382D02*
X2532309Y-16513001D01*
X2532309Y-16513001D02*
X2532309Y-16632049D01*
X2532309Y-16632049D02*
X2508500Y-16679668D01*
X2508500Y-16679668D02*
X2484690Y-16703477D01*
X2032309Y-16274906D02*
X2532309Y-16108240D01*
X2532309Y-16108240D02*
X2032309Y-15941573D01*
X11961905Y-18286714D02*
X11961905Y-18524809D01*
X11795239Y-18024809D02*
X11961905Y-18286714D01*
X11961905Y-18286714D02*
X12128572Y-18024809D01*
X12557143Y-18524809D02*
X12271429Y-18524809D01*
X12414286Y-18524809D02*
X12414286Y-18024809D01*
X12414286Y-18024809D02*
X12366667Y-18096238D01*
X12366667Y-18096238D02*
X12319048Y-18143857D01*
X12319048Y-18143857D02*
X12271429Y-18167666D01*
X4959523Y-6424809D02*
X4959523Y-5924809D01*
X4959523Y-5924809D02*
X5149999Y-5924809D01*
X5149999Y-5924809D02*
X5197618Y-5948619D01*
X5197618Y-5948619D02*
X5221428Y-5972428D01*
X5221428Y-5972428D02*
X5245237Y-6020047D01*
X5245237Y-6020047D02*
X5245237Y-6091476D01*
X5245237Y-6091476D02*
X5221428Y-6139095D01*
X5221428Y-6139095D02*
X5197618Y-6162904D01*
X5197618Y-6162904D02*
X5149999Y-6186714D01*
X5149999Y-6186714D02*
X4959523Y-6186714D01*
X5411904Y-5924809D02*
X5530952Y-6424809D01*
X5530952Y-6424809D02*
X5626190Y-6067666D01*
X5626190Y-6067666D02*
X5721428Y-6424809D01*
X5721428Y-6424809D02*
X5840476Y-5924809D01*
X6030952Y-6424809D02*
X6030952Y-5924809D01*
X6030952Y-5924809D02*
X6197619Y-6281952D01*
X6197619Y-6281952D02*
X6364285Y-5924809D01*
X6364285Y-5924809D02*
X6364285Y-6424809D01*
X6578572Y-5972428D02*
X6602381Y-5948619D01*
X6602381Y-5948619D02*
X6650000Y-5924809D01*
X6650000Y-5924809D02*
X6769048Y-5924809D01*
X6769048Y-5924809D02*
X6816667Y-5948619D01*
X6816667Y-5948619D02*
X6840476Y-5972428D01*
X6840476Y-5972428D02*
X6864286Y-6020047D01*
X6864286Y-6020047D02*
X6864286Y-6067666D01*
X6864286Y-6067666D02*
X6840476Y-6139095D01*
X6840476Y-6139095D02*
X6554762Y-6424809D01*
X6554762Y-6424809D02*
X6864286Y-6424809D01*
X6886997Y-33332309D02*
X6720331Y-33094214D01*
X6601283Y-33332309D02*
X6601283Y-32832309D01*
X6601283Y-32832309D02*
X6791759Y-32832309D01*
X6791759Y-32832309D02*
X6839378Y-32856119D01*
X6839378Y-32856119D02*
X6863188Y-32879928D01*
X6863188Y-32879928D02*
X6886997Y-32927547D01*
X6886997Y-32927547D02*
X6886997Y-32998976D01*
X6886997Y-32998976D02*
X6863188Y-33046595D01*
X6863188Y-33046595D02*
X6839378Y-33070404D01*
X6839378Y-33070404D02*
X6791759Y-33094214D01*
X6791759Y-33094214D02*
X6601283Y-33094214D01*
X7053664Y-32832309D02*
X7386997Y-33332309D01*
X7386997Y-32832309D02*
X7053664Y-33332309D01*
X7529854Y-32832309D02*
X7839378Y-32832309D01*
X7839378Y-32832309D02*
X7672711Y-33022785D01*
X7672711Y-33022785D02*
X7744140Y-33022785D01*
X7744140Y-33022785D02*
X7791759Y-33046595D01*
X7791759Y-33046595D02*
X7815568Y-33070404D01*
X7815568Y-33070404D02*
X7839378Y-33118023D01*
X7839378Y-33118023D02*
X7839378Y-33237071D01*
X7839378Y-33237071D02*
X7815568Y-33284690D01*
X7815568Y-33284690D02*
X7791759Y-33308500D01*
X7791759Y-33308500D02*
X7744140Y-33332309D01*
X7744140Y-33332309D02*
X7601283Y-33332309D01*
X7601283Y-33332309D02*
X7553664Y-33308500D01*
X7553664Y-33308500D02*
X7529854Y-33284690D01*
D11*
%TO.C,R8*%
X11920000Y-11746359D02*
X11920000Y-12053641D01*
X12680000Y-11746359D02*
X12680000Y-12053641D01*
%TO.C,TP3*%
X25500000Y-31100000D02*
G75*
G02*
X24100000Y-31100000I-700000J0D01*
G01*
X24100000Y-31100000D02*
G75*
G02*
X25500000Y-31100000I700000J0D01*
G01*
%TO.C,C36*%
X28207836Y-11940000D02*
X27992164Y-11940000D01*
X28207836Y-12660000D02*
X27992164Y-12660000D01*
%TO.C,C5*%
X10512164Y-16040000D02*
X10727836Y-16040000D01*
X10512164Y-16760000D02*
X10727836Y-16760000D01*
%TO.C,R20*%
X27946359Y-10920000D02*
X28253641Y-10920000D01*
X27946359Y-11680000D02*
X28253641Y-11680000D01*
%TO.C,C1*%
X4740000Y-8507836D02*
X4740000Y-8292164D01*
X5460000Y-8507836D02*
X5460000Y-8292164D01*
%TO.C,C20*%
X7240000Y-19772164D02*
X7240000Y-19987836D01*
X7960000Y-19772164D02*
X7960000Y-19987836D01*
%TO.C,C17*%
X14610580Y-7190000D02*
X14329420Y-7190000D01*
X14610580Y-8210000D02*
X14329420Y-8210000D01*
%TO.C,TP4*%
X8600000Y-4300000D02*
G75*
G02*
X7200000Y-4300000I-700000J0D01*
G01*
X7200000Y-4300000D02*
G75*
G02*
X8600000Y-4300000I700000J0D01*
G01*
%TO.C,U5*%
X9368852Y-22026401D02*
X11324652Y-22026401D01*
X11324652Y-18673601D02*
X9368852Y-18673601D01*
X11324652Y-20687862D02*
X11324652Y-20012140D01*
%TO.C,C19*%
X14640580Y-3990000D02*
X14359420Y-3990000D01*
X14640580Y-5010000D02*
X14359420Y-5010000D01*
%TO.C,R11*%
X30243641Y-15520000D02*
X29936359Y-15520000D01*
X30243641Y-16280000D02*
X29936359Y-16280000D01*
%TO.C,IC1*%
X18910000Y-12675000D02*
G75*
G02*
X18660000Y-12675000I-125000J0D01*
G01*
X18660000Y-12675000D02*
G75*
G02*
X18910000Y-12675000I125000J0D01*
G01*
%TO.C,C40*%
X30484420Y-10490000D02*
X30765580Y-10490000D01*
X30484420Y-11510000D02*
X30765580Y-11510000D01*
%TO.C,C42*%
X30484420Y-8890000D02*
X30765580Y-8890000D01*
X30484420Y-9910000D02*
X30765580Y-9910000D01*
%TO.C,C24*%
X19540000Y-27187836D02*
X19540000Y-26972164D01*
X20260000Y-27187836D02*
X20260000Y-26972164D01*
%TO.C,R7*%
X11920000Y-9756359D02*
X11920000Y-10063641D01*
X12680000Y-9756359D02*
X12680000Y-10063641D01*
%TO.C,C34*%
X17407836Y-6640000D02*
X17192164Y-6640000D01*
X17407836Y-7360000D02*
X17192164Y-7360000D01*
%TO.C,JP1*%
X2300000Y-21650000D02*
X2300000Y-20250000D01*
X3000000Y-19550000D02*
X3600000Y-19550000D01*
X3600000Y-22350000D02*
X3000000Y-22350000D01*
X4300000Y-20250000D02*
X4300000Y-21650000D01*
X2300000Y-20250000D02*
G75*
G02*
X3000000Y-19550000I700000J0D01*
G01*
X3000000Y-22350000D02*
G75*
G02*
X2300000Y-21650000I-1J699999D01*
G01*
X3600000Y-19550000D02*
G75*
G02*
X4300000Y-20250000I0J-700000D01*
G01*
X4300000Y-21650000D02*
G75*
G02*
X3600000Y-22350000I-699999J-1D01*
G01*
%TO.C,R22*%
X15836359Y-27720000D02*
X16143641Y-27720000D01*
X15836359Y-28480000D02*
X16143641Y-28480000D01*
%TO.C,JP2*%
X29450000Y-7400000D02*
X29450000Y-6800000D01*
X30150000Y-6100000D02*
X31550000Y-6100000D01*
X31550000Y-8100000D02*
X30150000Y-8100000D01*
X32250000Y-6800000D02*
X32250000Y-7400000D01*
X29450000Y-6800000D02*
G75*
G02*
X30150000Y-6100000I700000J0D01*
G01*
X30150000Y-8100000D02*
G75*
G02*
X29450000Y-7400000I0J700000D01*
G01*
X31550000Y-6100000D02*
G75*
G02*
X32250000Y-6800000I1J-699999D01*
G01*
X32250000Y-7400000D02*
G75*
G02*
X31550000Y-8100000I-699999J-1D01*
G01*
%TO.C,C29*%
X4392164Y-16940000D02*
X4607836Y-16940000D01*
X4392164Y-17660000D02*
X4607836Y-17660000D01*
%TO.C,C39*%
X28207836Y-8940000D02*
X27992164Y-8940000D01*
X28207836Y-9660000D02*
X27992164Y-9660000D01*
%TO.C,R23*%
X18143641Y-27720000D02*
X17836359Y-27720000D01*
X18143641Y-28480000D02*
X17836359Y-28480000D01*
%TO.C,R21*%
X28220000Y-14236359D02*
X28220000Y-14543641D01*
X28980000Y-14236359D02*
X28980000Y-14543641D01*
%TO.C,C10*%
X22140000Y-24987836D02*
X22140000Y-24772164D01*
X22860000Y-24987836D02*
X22860000Y-24772164D01*
%TO.C,TP6*%
X10700000Y-4300000D02*
G75*
G02*
X9300000Y-4300000I-700000J0D01*
G01*
X9300000Y-4300000D02*
G75*
G02*
X10700000Y-4300000I700000J0D01*
G01*
%TO.C,R2*%
X11520000Y-14763641D02*
X11520000Y-14456359D01*
X12280000Y-14763641D02*
X12280000Y-14456359D01*
%TO.C,U4*%
X4500000Y-10635000D02*
X4500000Y-12335000D01*
X4500000Y-10635000D02*
X4600000Y-10635000D01*
X4500000Y-12335000D02*
X4600000Y-12335000D01*
X7600000Y-10635000D02*
X7500000Y-10635000D01*
X7600000Y-10635000D02*
X7600000Y-12335000D01*
X7600000Y-12335000D02*
X7500000Y-12335000D01*
X5200000Y-13954000D02*
G75*
G02*
X5000000Y-13954000I-100000J0D01*
G01*
X5000000Y-13954000D02*
G75*
G02*
X5200000Y-13954000I100000J0D01*
G01*
%TO.C,R16*%
X19620000Y-14353641D02*
X19620000Y-14046359D01*
X20380000Y-14353641D02*
X20380000Y-14046359D01*
%TO.C,C33*%
X14690000Y-11471920D02*
X14690000Y-11753080D01*
X15710000Y-11471920D02*
X15710000Y-11753080D01*
%TO.C,TP2*%
X25000000Y-24000000D02*
G75*
G02*
X23600000Y-24000000I-700000J0D01*
G01*
X23600000Y-24000000D02*
G75*
G02*
X25000000Y-24000000I700000J0D01*
G01*
%TO.C,R3*%
X12520000Y-14446359D02*
X12520000Y-14753641D01*
X13280000Y-14446359D02*
X13280000Y-14753641D01*
%TO.C,IC2*%
X23150000Y-15675000D02*
G75*
G02*
X22900000Y-15675000I-125000J0D01*
G01*
X22900000Y-15675000D02*
G75*
G02*
X23150000Y-15675000I125000J0D01*
G01*
%TO.C,C21*%
X12740000Y-19872164D02*
X12740000Y-20087836D01*
X13460000Y-19872164D02*
X13460000Y-20087836D01*
%TO.C,J2*%
X27300000Y-1225000D02*
X19500000Y-1225000D01*
%TO.C,C3*%
X17940000Y-25507836D02*
X17940000Y-25292164D01*
X18660000Y-25507836D02*
X18660000Y-25292164D01*
%TO.C,R4*%
X29220000Y-14563641D02*
X29220000Y-14256359D01*
X29980000Y-14563641D02*
X29980000Y-14256359D01*
%TO.C,C22*%
X17427836Y-7640000D02*
X17212164Y-7640000D01*
X17427836Y-8360000D02*
X17212164Y-8360000D01*
%TO.C,C28*%
X9607836Y-22840000D02*
X9392164Y-22840000D01*
X9607836Y-23560000D02*
X9392164Y-23560000D01*
%TO.C,TP7*%
X10600000Y-6400000D02*
G75*
G02*
X9200000Y-6400000I-700000J0D01*
G01*
X9200000Y-6400000D02*
G75*
G02*
X10600000Y-6400000I700000J0D01*
G01*
%TO.C,C11*%
X23792164Y-17440000D02*
X24007836Y-17440000D01*
X23792164Y-18160000D02*
X24007836Y-18160000D01*
%TO.C,C6*%
X13540000Y-14472164D02*
X13540000Y-14687836D01*
X14260000Y-14472164D02*
X14260000Y-14687836D01*
%TO.C,R19*%
X27946359Y-9920000D02*
X28253641Y-9920000D01*
X27946359Y-10680000D02*
X28253641Y-10680000D01*
%TO.C,C25*%
X20540000Y-27187836D02*
X20540000Y-26972164D01*
X21260000Y-27187836D02*
X21260000Y-26972164D01*
%TO.C,U11*%
X24080000Y-27580000D02*
X24080000Y-27877500D01*
X24080000Y-27580000D02*
X24377500Y-27580000D01*
X24080000Y-28770000D02*
X24080000Y-28472500D01*
X24080000Y-28770000D02*
X24377500Y-28770000D01*
X25270000Y-27580000D02*
X24972500Y-27580000D01*
X25270000Y-27580000D02*
X25270000Y-27877500D01*
X25270000Y-28770000D02*
X24972500Y-28770000D01*
X25270000Y-28770000D02*
X25270000Y-28472500D01*
X23898500Y-28000000D02*
G75*
G02*
X23698500Y-28000000I-100000J0D01*
G01*
X23698500Y-28000000D02*
G75*
G02*
X23898500Y-28000000I100000J0D01*
G01*
%TO.C,C2*%
X3740000Y-8507836D02*
X3740000Y-8292164D01*
X4460000Y-8507836D02*
X4460000Y-8292164D01*
D12*
%TO.C,U3*%
X5725000Y-15974500D02*
X5725000Y-18623500D01*
X5725000Y-18623500D02*
X7925000Y-18623500D01*
D13*
X7425000Y-15635000D02*
X7545000Y-15755000D01*
X7845000Y-15635000D02*
X7425000Y-15635000D01*
D12*
X7925000Y-15926500D02*
X5725000Y-15926500D01*
X7925000Y-18623500D02*
X7925000Y-15926500D01*
D11*
%TO.C,R14*%
X4653641Y-17920000D02*
X4346359Y-17920000D01*
X4653641Y-18680000D02*
X4346359Y-18680000D01*
%TO.C,C32*%
X13090000Y-11471920D02*
X13090000Y-11753080D01*
X14110000Y-11471920D02*
X14110000Y-11753080D01*
D14*
%TO.C,U2*%
X13633553Y-24215001D02*
X14583553Y-24215001D01*
D15*
X14230000Y-24568554D02*
X14230000Y-23861448D01*
X14583553Y-24215001D02*
X14230000Y-23861448D01*
X14583553Y-24215001D02*
X14230000Y-24568554D01*
D14*
X13360000Y-23045001D02*
G75*
G02*
X13160000Y-23045001I-100000J0D01*
G01*
X13160000Y-23045001D02*
G75*
G02*
X13360000Y-23045001I100000J0D01*
G01*
D11*
%TO.C,C8*%
X15507836Y-14740000D02*
X15292164Y-14740000D01*
X15507836Y-15460000D02*
X15292164Y-15460000D01*
%TO.C,C30*%
X5740000Y-14592164D02*
X5740000Y-14807836D01*
X6460000Y-14592164D02*
X6460000Y-14807836D01*
%TO.C,C38*%
X28207836Y-6940000D02*
X27992164Y-6940000D01*
X28207836Y-7660000D02*
X27992164Y-7660000D01*
%TO.C,C35*%
X17427836Y-8640000D02*
X17212164Y-8640000D01*
X17427836Y-9360000D02*
X17212164Y-9360000D01*
%TO.C,U10*%
X9730000Y-11530000D02*
X9730000Y-11827500D01*
X9730000Y-11530000D02*
X10027500Y-11530000D01*
X9730000Y-12720000D02*
X9730000Y-12422500D01*
X9730000Y-12720000D02*
X10027500Y-12720000D01*
X10920000Y-11530000D02*
X10622500Y-11530000D01*
X10920000Y-11530000D02*
X10920000Y-11827500D01*
X10920000Y-12720000D02*
X10622500Y-12720000D01*
X10920000Y-12720000D02*
X10920000Y-12422500D01*
X11301500Y-12300000D02*
G75*
G02*
X11101500Y-12300000I-100000J0D01*
G01*
X11101500Y-12300000D02*
G75*
G02*
X11301500Y-12300000I100000J0D01*
G01*
%TO.C,R6*%
X31220000Y-14256359D02*
X31220000Y-14563641D01*
X31980000Y-14256359D02*
X31980000Y-14563641D01*
%TO.C,R5*%
X30220000Y-14256359D02*
X30220000Y-14563641D01*
X30980000Y-14256359D02*
X30980000Y-14563641D01*
%TO.C,L1*%
X16290000Y-11449721D02*
X16290000Y-11775279D01*
X17310000Y-11449721D02*
X17310000Y-11775279D01*
%TO.C,TP8*%
X10000000Y-14600000D02*
G75*
G02*
X8600000Y-14600000I-700000J0D01*
G01*
X8600000Y-14600000D02*
G75*
G02*
X10000000Y-14600000I700000J0D01*
G01*
%TO.C,C41*%
X28207836Y-7940000D02*
X27992164Y-7940000D01*
X28207836Y-8660000D02*
X27992164Y-8660000D01*
%TO.C,R18*%
X18346359Y-13320000D02*
X18653641Y-13320000D01*
X18346359Y-14080000D02*
X18653641Y-14080000D01*
%TO.C,R15*%
X29546359Y-4820000D02*
X29853641Y-4820000D01*
X29546359Y-5580000D02*
X29853641Y-5580000D01*
%TO.C,C4*%
X16940000Y-25487836D02*
X16940000Y-25272164D01*
X17660000Y-25487836D02*
X17660000Y-25272164D01*
%TO.C,C16*%
X14615580Y-5590000D02*
X14334420Y-5590000D01*
X14615580Y-6610000D02*
X14334420Y-6610000D01*
D13*
%TO.C,U1*%
X15190000Y-16540000D02*
X15665000Y-16540000D01*
X15190000Y-17015000D02*
X15190000Y-16540000D01*
X15190000Y-23760000D02*
X15190000Y-23285000D01*
X15665000Y-23760000D02*
X15190000Y-23760000D01*
X21935000Y-16540000D02*
X22410000Y-16540000D01*
X22410000Y-16540000D02*
X22410000Y-17015000D01*
X22410000Y-23285000D02*
X22410000Y-23760000D01*
X22410000Y-23760000D02*
X21935000Y-23760000D01*
X14743978Y-17400000D02*
X14413978Y-17640000D01*
X14413978Y-17160000D01*
X14743978Y-17400000D01*
G36*
X14743978Y-17400000D02*
G01*
X14413978Y-17640000D01*
X14413978Y-17160000D01*
X14743978Y-17400000D01*
G37*
D11*
%TO.C,C27*%
X11612164Y-26140000D02*
X11827836Y-26140000D01*
X11612164Y-26860000D02*
X11827836Y-26860000D01*
%TO.C,C7*%
X4740000Y-21107836D02*
X4740000Y-20892164D01*
X5460000Y-21107836D02*
X5460000Y-20892164D01*
%TO.C,R9*%
X10446359Y-17020000D02*
X10753641Y-17020000D01*
X10446359Y-17780000D02*
X10753641Y-17780000D01*
%TO.C,TP1*%
X24700000Y-21900000D02*
G75*
G02*
X23300000Y-21900000I-700000J0D01*
G01*
X23300000Y-21900000D02*
G75*
G02*
X24700000Y-21900000I700000J0D01*
G01*
%TO.C,L2*%
X30437221Y-12090000D02*
X30762779Y-12090000D01*
X30437221Y-13110000D02*
X30762779Y-13110000D01*
%TO.C,R17*%
X21620000Y-14056359D02*
X21620000Y-14363641D01*
X22380000Y-14056359D02*
X22380000Y-14363641D01*
%TO.C,J1*%
X28450000Y-17110000D02*
X29700000Y-17110000D01*
X28450000Y-26050000D02*
X29700000Y-26050000D01*
X32420000Y-26050000D02*
X33700000Y-26050000D01*
X33700000Y-17110000D02*
X32420000Y-17110000D01*
X25200000Y-24830000D02*
G75*
G02*
X25000000Y-24830000I-100000J0D01*
G01*
X25000000Y-24830000D02*
G75*
G02*
X25200000Y-24830000I100000J0D01*
G01*
%TO.C,C9*%
X15487836Y-13740000D02*
X15272164Y-13740000D01*
X15487836Y-14460000D02*
X15272164Y-14460000D01*
%TO.C,R10*%
X27856359Y-26820000D02*
X28163641Y-26820000D01*
X27856359Y-27580000D02*
X28163641Y-27580000D01*
%TO.C,R1*%
X10520000Y-14763641D02*
X10520000Y-14456359D01*
X11280000Y-14763641D02*
X11280000Y-14456359D01*
%TO.C,C26*%
X9587836Y-23840000D02*
X9372164Y-23840000D01*
X9587836Y-24560000D02*
X9372164Y-24560000D01*
%TO.C,C23*%
X18587836Y-14340000D02*
X18372164Y-14340000D01*
X18587836Y-15060000D02*
X18372164Y-15060000D01*
%TO.C,C37*%
X27240000Y-14272164D02*
X27240000Y-14487836D01*
X27960000Y-14272164D02*
X27960000Y-14487836D01*
%TO.C,C18*%
X14610580Y-8780000D02*
X14329420Y-8780000D01*
X14610580Y-9800000D02*
X14329420Y-9800000D01*
%TO.C,TP5*%
X8500000Y-6400000D02*
G75*
G02*
X7100000Y-6400000I-700000J0D01*
G01*
X7100000Y-6400000D02*
G75*
G02*
X8500000Y-6400000I700000J0D01*
G01*
%TO.C,C31*%
X20640000Y-14092164D02*
X20640000Y-14307836D01*
X21360000Y-14092164D02*
X21360000Y-14307836D01*
%TD*%
M02*
