M48
; DRILL file {KiCad 9.0.7-9.0.7~ubuntu24.04.1} date 2026-02-25T20:16:40+0100
; FORMAT={-:-/ absolute / metric / decimal}
; #@! TF.CreationDate,2026-02-25T20:16:40+01:00
; #@! TF.GenerationSoftware,Kicad,Pcbnew,9.0.7-9.0.7~ubuntu24.04.1
; #@! TF.FileFunction,Plated,1,4,PTH
FMAT,2
METRIC
; #@! TA.AperFunction,Plated,PTH,ViaDrill
T1C0.300
; #@! TA.AperFunction,Plated,PTH,ComponentDrill
T2C0.600
%
G90
G05
T1
X0.9Y-12.5
X0.9Y-23.8
X0.9Y-27.8
X2.5Y-5.13
X3.8Y-7.9
X3.8Y-13.0
X4.3Y-16.6
X4.4Y-21.6
X6.0Y-20.5
X6.1Y-15.8
X6.7Y-29.9
X6.7Y-33.1
X6.8Y-16.7
X7.4Y-5.2
X7.6Y-3.1
X7.6Y-21.92
X8.405Y-18.426
X8.7Y-9.7
X8.825Y-24.925
X8.9Y-29.9
X8.9Y-33.1
X9.1Y-0.9
X9.223Y-18.477
X9.39Y-3.09
X9.5Y-16.9
X9.6Y-5.3
X9.9Y-10.9
X10.6Y-22.6
X10.625Y-15.878
X11.1Y-33.1
X11.3Y-22.1
X11.7Y-18.34
X12.543Y-2.357
X12.8Y-18.1
X12.8Y-25.9
X13.11Y-21.1
X13.3Y-22.9
X13.3Y-29.9
X13.3Y-33.1
X13.4Y-13.4
X13.49Y-3.22
X13.49Y-18.189
X13.6Y-23.555
X13.7Y-24.5
X14.31Y-11.5
X14.357Y-14.617
X14.414Y-20.835
X14.496Y-20.001
X14.498Y-18.678
X14.5Y-16.3
X14.5Y-16.9
X14.525Y-21.837
X14.583Y-19.271
X14.7Y-2.01
X15.2Y-0.3
X15.4Y-16.1
X15.456Y-29.856
X15.5Y-24.298
X15.54Y-33.14
X16.6Y-25.1
X16.608Y-25.839
X16.686Y-24.386
X17.277Y-15.5
X17.3Y-18.3
X17.3Y-20.1
X17.3Y-21.6
X17.5Y-10.0
X17.7Y-29.9
X17.7Y-33.1
X17.852Y-15.673
X18.198Y-12.942
X18.222Y-12.338
X18.289Y-11.691
X18.391Y-15.936
X18.507Y-24.291
X18.8Y-18.3
X18.8Y-20.15
X18.8Y-21.6
X19.167Y-15.928
X19.5Y-8.4
X19.9Y-3.2
X20.05Y-16.0
X20.1Y-24.395
X20.349Y-7.749
X20.4Y-18.3
X20.4Y-20.1
X20.4Y-21.6
X20.8Y-15.8
X21.472Y-15.89
X21.69Y-27.39
X21.84Y-24.3
X21.9Y-9.5
X22.2Y-6.11
X22.5Y-23.7
X22.7Y-15.9
X22.9Y-5.7
X23.025Y-20.895
X23.199Y-24.599
X23.2Y-16.4
X23.329Y-19.778
X23.329Y-20.378
X23.41Y-25.741
X23.571Y-25.071
X23.7Y-8.8
X23.7Y-16.9
X23.9Y-5.8
X24.4Y-8.8
X24.4Y-17.2
X24.8Y-23.3
X24.9Y-5.8
X25.0Y-8.8
X25.1Y-22.7
X25.8Y-8.8
X25.9Y-5.8
X26.1Y-12.5
X26.9Y-6.0
X28.5Y-29.7
X29.075Y-6.6
X30.5Y-16.6
X30.9Y-6.0
X31.977Y-14.252
X32.19Y-5.9
X32.8Y-8.7
T2
G00X26.97Y-17.26
M15
G01X28.07Y-17.26
M16
G05
G00X26.97Y-25.9
M15
G01X28.07Y-25.9
M16
G05
G00X31.3Y-17.26
M15
G01X32.1Y-17.26
M16
G05
G00X31.3Y-25.9
M15
G01X32.1Y-25.9
M16
G05
M30
