M48
; DRILL file {KiCad 9.0.6} date 2026-02-22T15:47:50+0100
; FORMAT={-:-/ absolute / metric / decimal}
; #@! TF.CreationDate,2026-02-22T15:47:50+01:00
; #@! TF.GenerationSoftware,Kicad,Pcbnew,9.0.6
; #@! TF.FileFunction,Plated,1,4,PTH
FMAT,2
METRIC
; #@! TA.AperFunction,Plated,PTH,ViaDrill
T1C0.300
; #@! TA.AperFunction,Plated,PTH,ComponentDrill
T2C0.600
%
G90
G05
T1
X1.4Y-13.6
X1.6Y-22.8
X1.6Y-29.1
X4.1Y-7.3
X4.3Y-16.6
X4.4Y-21.6
X5.8Y-9.6
X6.0Y-20.5
X6.1Y-13.7
X6.1Y-15.8
X6.8Y-16.7
X6.8Y-29.4
X6.8Y-32.6
X7.6Y-21.92
X8.405Y-18.426
X8.6Y-5.6
X8.8Y-3.5
X8.825Y-24.925
X9.0Y-29.4
X9.0Y-32.6
X9.1Y-1.4
X9.223Y-18.477
X9.5Y-16.9
X9.6Y-11.4
X10.59Y-3.49
X10.6Y-22.6
X10.625Y-15.878
X10.8Y-5.7
X11.2Y-32.6
X11.3Y-22.1
X11.6Y-11.5
X11.7Y-18.34
X11.775Y-12.925
X12.4Y-3.0
X12.8Y-18.1
X12.8Y-25.9
X13.11Y-21.1
X13.3Y-22.9
X13.4Y-13.4
X13.4Y-29.4
X13.4Y-32.6
X13.49Y-18.189
X13.6Y-23.555
X13.7Y-24.5
X14.414Y-20.835
X14.496Y-20.001
X14.498Y-18.678
X14.5Y-16.3
X14.525Y-21.837
X14.583Y-19.271
X14.592Y-17.007
X14.7Y-2.51
X14.9Y-13.388
X15.5Y-24.298
X15.556Y-29.356
X15.64Y-32.64
X15.7Y-13.4
X16.6Y-25.1
X16.608Y-25.839
X16.686Y-24.386
X16.9Y-9.9
X17.277Y-15.5
X17.3Y-14.4
X17.3Y-18.3
X17.3Y-20.1
X17.3Y-21.6
X17.458Y-13.458
X17.8Y-32.6
X17.811Y-9.711
X17.852Y-15.673
X18.078Y-12.978
X18.239Y-12.1
X18.507Y-24.291
X18.6Y-15.9
X18.699Y-9.399
X18.8Y-18.3
X18.8Y-20.15
X18.8Y-21.6
X19.2Y-5.8
X20.05Y-16.0
X20.1Y-24.395
X20.349Y-7.749
X20.4Y-18.3
X20.4Y-20.1
X20.4Y-21.6
X20.8Y-15.8
X21.472Y-15.89
X21.69Y-27.39
X21.84Y-24.3
X21.9Y-9.5
X22.2Y-7.2
X22.5Y-23.7
X22.7Y-15.9
X22.9Y-6.8
X23.025Y-20.895
X23.199Y-24.599
X23.2Y-16.4
X23.329Y-19.778
X23.329Y-20.378
X23.41Y-25.741
X23.571Y-25.071
X23.7Y-9.6
X23.7Y-16.9
X23.9Y-4.7
X24.4Y-9.6
X24.4Y-17.2
X24.8Y-23.3
X24.9Y-4.7
X24.9Y-29.0
X25.1Y-22.7
X25.171Y-9.7
X25.5Y-30.4
X25.9Y-4.7
X26.1Y-12.5
X26.2Y-9.7
X26.3Y-15.99
X26.719Y-13.942
X26.9Y-4.7
X28.1Y-10.8
X28.294Y-12.995
X28.8Y-5.9
X30.21Y-6.0
X31.2Y-15.9
X31.5Y-5.9
X32.277Y-14.252
T2
G00X26.37Y-17.26
M15
G01X27.47Y-17.26
M16
G05
G00X26.37Y-25.9
M15
G01X27.47Y-25.9
M16
G05
G00X30.7Y-17.26
M15
G01X31.5Y-17.26
M16
G05
G00X30.7Y-25.9
M15
G01X31.5Y-25.9
M16
G05
M30
